<svg version="1.1" xmlns="http://www.w3.org/2000/svg" xmlns:xlink="http://www.w3.org/1999/xlink" width="66.82013" height="69.71629" viewBox="0,0,66.82013,69.71629"><g transform="translate(-205.84178,-133.07639)"><g data-paper-data="{&quot;isPaintingLayer&quot;:true}" stroke="none" stroke-width="1" stroke-linecap="butt" stroke-linejoin="miter" stroke-miterlimit="10" stroke-dasharray="" stroke-dashoffset="0" style="mix-blend-mode: normal"><path d="M260.0262,191.05296c-0.99237,2.39782 -2.61279,4.48377 -4.6907,6.03831c-0.36282,0.27859 -0.73859,0.5507 -1.12085,0.80986c-4.9,3.87515 -11.18425,5.55173 -17.36338,4.63239c-6.24563,-0.53775 -12.03127,-3.51803 -15.31606,-9.55634c-5.55852,-8.0319 -5.34915,-18.7207 0.51963,-26.52877c5.86878,-7.80808 16.07803,-10.98066 25.33859,-7.87411c9.26056,3.10655 15.49122,11.79407 15.46404,21.56176c-0.00539,3.81984 -0.97951,7.57591 -2.83127,10.9169z" fill="#e6781e" fill-rule="evenodd"/><g fill="#824600" fill-rule="evenodd"><path d="M240.77746,202.79268h-0.57014h-0.07775c-0.1231,-15.4262 -0.00648,-31.97324 0.0907,-45.28732h0.64789c-0.09718,13.31408 -0.2138,29.84817 -0.0907,45.28732z"/><path d="M262.8769,179.31972c0,0.22676 0,0.46 0,0.69324h-45.28085c0,-0.23324 0,-0.46 0,-0.68676z"/><path d="M254.82366,197.48c-0.18789,0.13606 -0.3693,0.27859 -0.56366,0.40817c-6.64732,-6.69268 -7.95606,-18.29634 -5.6431,-26.94563c0.84926,-3.40173 2.56327,-6.52624 4.97577,-9.07042c0.18141,0.12958 0.36282,0.27211 0.53775,0.40817c-2.3761,2.47428 -4.0626,5.52784 -4.89155,8.85662c-2.93493,10.99465 0.44056,21.13408 5.58479,26.3431z"/><path d="M225.62338,198.0307c-0.18141,-0.14685 -0.35634,-0.30235 -0.52479,-0.46648c5.33859,-4.82028 9.06394,-14.5062 6.63437,-25.81831c-0.76279,-3.66011 -2.43123,-7.0705 -4.85268,-9.91915l0.54423,-0.38873c2.45914,2.92427 4.15533,6.41235 4.9369,10.15239c1.0837,5.21132 0.92612,10.6045 -0.46,15.74366c-1.23746,4.48986 -3.38845,8.13099 -6.27803,10.69662z"/></g><text transform="translate(206.02937,149.39744) scale(0.3752,0.3752)" font-size="40" xml:space="preserve" fill="#ff0000" fill-rule="nonzero" stroke="none" stroke-width="1" stroke-linecap="butt" stroke-linejoin="miter" stroke-miterlimit="10" stroke-dasharray="" stroke-dashoffset="0" font-family="Sans Serif" font-weight="normal" text-anchor="start" style="mix-blend-mode: normal"><tspan x="0" dy="0">20 points</tspan></text></g></g></svg>