<svg version="1.1" xmlns="http://www.w3.org/2000/svg" xmlns:xlink="http://www.w3.org/1999/xlink" width="120" height="52.287" viewBox="0,0,120,52.287"><g transform="translate(-181.018,-150.787)"><g data-paper-data="{&quot;isPaintingLayer&quot;:true}" fill-rule="nonzero" stroke="none" stroke-width="1" stroke-linecap="butt" stroke-linejoin="miter" stroke-miterlimit="10" stroke-dasharray="" stroke-dashoffset="0" style="mix-blend-mode: normal"><path d="M301.018,176.93c0,14.416 -11.729,26.144 -26.144,26.144h-67.713c-14.415,0 -26.143,-11.727 -26.143,-26.144c0,-14.415 11.727,-26.143 26.143,-26.143h67.713c14.415,0 26.144,11.728 26.144,26.143z" fill="#bb0000"/><path d="M296.514,176.93c0,11.952 -9.688,21.641 -21.64,21.641h-67.713c-11.952,0 -21.641,-9.689 -21.641,-21.641v0c0,-11.951 9.689,-21.64 21.641,-21.64h67.713c11.952,0 21.64,9.689 21.64,21.64z" fill="#ff0000"/><text transform="translate(188.7088,183.44713) scale(0.5,0.5)" font-size="40" xml:space="preserve" fill="#bb0000" fill-rule="nonzero" stroke="none" stroke-width="1" stroke-linecap="butt" stroke-linejoin="miter" stroke-miterlimit="10" stroke-dasharray="" stroke-dashoffset="0" font-family="Sans Serif" font-weight="normal" text-anchor="start" style="mix-blend-mode: normal"><tspan x="0" dy="0">Connexion </tspan></text></g></g></svg>