<svg version="1.1" xmlns="http://www.w3.org/2000/svg" xmlns:xlink="http://www.w3.org/1999/xlink" width="135.22066" height="137.32441" viewBox="0,0,135.22066,137.32441"><g transform="translate(-155.48028,-131.09487)"><g data-paper-data="{&quot;isPaintingLayer&quot;:true}" fill-rule="nonzero" stroke="none" stroke-width="1" stroke-linecap="butt" stroke-linejoin="miter" stroke-miterlimit="10" stroke-dasharray="" stroke-dashoffset="0" style="mix-blend-mode: normal"><g><path d="M221.29419,222.99006c0,0 -2.11253,-62.74223 0.42251,-71.40361c0,0 9.08389,-14.78773 23.44912,-20.49157c0,0 10.14016,14.36522 14.36522,27.04042c0,0 -19.4353,62.10847 -22.39285,66.33353c0,0 -6.54885,3.59131 -10.77392,4.01381c0.21125,0.21125 -5.07008,-2.32379 -5.07008,-5.49259z" fill="#8644b3"/><path d="M245.16581,131.51737l-11.40768,35.06805c-7.18261,-4.01381 -11.83018,-14.78773 -11.83018,-14.78773c0,0 9.08389,-14.78773 23.23786,-20.28032z" fill="#ea8be5"/><path d="M245.16581,131.51737l-11.40768,35.06805c-7.18261,-4.01381 -11.83018,-14.78773 -11.83018,-14.78773c0,0 9.08389,-14.78773 23.23786,-20.28032z" fill="#ea8be5"/><path d="M259.10853,160.03658c-13.30896,4.01381 -25.56165,6.54885 -25.56165,6.54885l11.61893,-35.06805c0,-0.21125 0.21125,-0.21125 0.21125,-0.21125c0,0 10.14016,14.36522 14.15397,27.04042c0,0 0,0.42251 -0.42251,1.69003z" fill="#ad59c2"/><path d="M233.75814,166.79669l-7.18261,62.10847c0,0 -5.07008,-2.74629 -5.07008,-5.70384c0,0 -2.11253,-62.74223 0.42251,-71.40361z" fill="#ad59c2"/><path d="M233.54688,166.58542c0,0 -0.21125,3.38005 -0.63376,8.45013c-0.21125,2.53504 -0.63376,5.49259 -0.84501,8.66138c-0.42251,3.1688 -0.63376,6.54885 -1.05627,9.71765c-0.42251,3.38005 -0.84501,6.76011 -1.26752,9.71765c-0.42251,3.1688 -0.84501,6.12635 -1.05627,8.45013c-0.84501,4.85883 -1.26752,8.23888 -1.26752,8.23888c0,0 0.21125,-3.38005 0.63376,-8.45013c0.21125,-2.53504 0.63376,-5.49259 0.84501,-8.66138c0.42251,-3.1688 0.63376,-6.54885 1.05627,-9.71765c0.42251,-3.38005 0.84501,-6.76011 1.26752,-9.71765c0.42251,-3.1688 0.84501,-6.12635 1.05627,-8.45013c0.84501,-5.07008 1.26752,-8.23888 1.26752,-8.23888z" fill="#ea8be5"/><path d="M227.20928,221.72254l-0.84501,6.97136c0,0 -5.07008,-2.74629 -5.07008,-5.70384c0,0 3.38005,-0.63376 5.91509,-1.26752z" fill="#a546bd"/><path d="M237.13819,224.68009c0,0 -6.76011,3.59131 -10.77392,4.01381l0.84501,-6.97136c1.26752,-0.21125 2.32379,-0.42251 2.74629,-0.42251c1.69003,-0.21125 7.18261,3.38005 7.18261,3.38005z" fill="#7c36ab"/><path d="M226.57552,228.6939c1.90128,-0.42251 3.80256,-1.05627 5.49259,-1.69003c1.69003,-0.63376 3.38005,-1.47877 4.85883,-2.74629l-0.21125,0.21125c1.26752,-4.22507 2.74629,-8.45013 4.22507,-12.6752c1.47877,-4.22507 2.74629,-8.45013 4.22507,-12.46394c2.95755,-8.45013 5.91509,-16.68901 9.08389,-24.92789c-2.53504,8.45013 -5.28133,16.90026 -8.23888,25.35039c-1.47877,4.22507 -2.95755,8.45013 -4.22507,12.46394c-1.47877,4.22507 -2.95755,8.45013 -4.43632,12.46394c-1.69003,1.05627 -3.38005,1.90128 -5.28133,2.53504c-1.90128,0.84501 -3.59131,1.26752 -5.49259,1.47877z" fill="#6b348f"/><path d="M221.7167,151.7977c0,0 9.71765,-0.84501 16.90026,-0.84501l-5.07008,15.63274c-6.97136,-4.22507 -11.83018,-14.78773 -11.83018,-14.78773z" fill="#e17de3"/><path d="M245.79957,151.58645c1.90128,0.63376 8.87264,3.80256 13.52021,6.12635c0,0.21125 0.21125,0.63376 0.21125,0.84501c0,0 -0.21125,0.42251 -0.42251,1.47877c-13.30896,4.01381 -25.56165,6.54885 -25.56165,6.54885l5.07008,-15.63274c3.38005,0 6.3376,0 7.18261,0.63376z" fill="#9b4dae"/><path d="M259.10853,159.82531c0,0 -1.26752,0.63376 -2.95755,1.26752c-1.90128,0.63376 -4.22507,1.47877 -6.76011,2.32379c-2.53504,0.63376 -5.07008,1.26752 -6.97136,1.69003c-1.90128,0.42251 -3.1688,0.42251 -3.1688,0.42251c0,0 0.21125,0 0.84501,-0.21125c0.63376,-0.21125 1.26752,-0.42251 2.32379,-0.63376c1.90128,-0.63376 4.22507,-1.26752 6.76011,-2.11253c2.53504,-0.63376 5.07008,-1.47877 6.97136,-1.90128c1.69003,-0.63376 2.95755,-0.84501 2.95755,-0.84501z" fill="#6b348f"/></g><path d="M245.16581,131.51737c0,0 -0.42251,1.69003 -1.05627,4.22507c-0.63376,2.53504 -1.69003,5.91509 -2.74629,9.29514c-1.05627,3.38005 -2.32379,6.76011 -3.38005,9.29514c-1.05627,2.53504 -1.69003,4.22507 -1.69003,4.22507c0,0 0.42251,-1.69003 1.05627,-4.22507c0.63376,-2.74629 1.69003,-6.3376 2.74629,-9.5064c1.05627,-3.38005 2.32379,-6.76011 3.38005,-9.29514c0.84501,-2.53504 1.69003,-4.01381 1.69003,-4.01381z" fill="#ffbcfc"/><text transform="translate(155.8167,260.00873) scale(0.67284,0.67284)" font-size="40" xml:space="preserve" fill="#ff0000" fill-rule="nonzero" stroke="none" stroke-width="1" stroke-linecap="butt" stroke-linejoin="miter" stroke-miterlimit="10" stroke-dasharray="" stroke-dashoffset="0" font-family="Sans Serif" font-weight="normal" text-anchor="start" style="mix-blend-mode: normal"><tspan x="0" dy="0">100 points</tspan></text></g></g></svg>