<svg version="1.1" xmlns="http://www.w3.org/2000/svg" xmlns:xlink="http://www.w3.org/1999/xlink" width="134.8953" height="107.60763" viewBox="0,0,134.8953,107.60763"><defs><linearGradient x1="172.55235" y1="180.00104" x2="307.44765" y2="180.00104" gradientUnits="userSpaceOnUse" id="color-1"><stop offset="0" stop-color="#8dc63f"/><stop offset="1" stop-color="#006838"/></linearGradient><radialGradient cx="240" cy="180.00104" r="55.16633" gradientUnits="userSpaceOnUse" id="color-2"><stop offset="0" stop-color="#d7df23"/><stop offset="1" stop-color="#009444"/></radialGradient></defs><g transform="translate(-172.55235,-126.19618)"><g data-paper-data="{&quot;isPaintingLayer&quot;:true}" fill-rule="nonzero" stroke="none" stroke-width="1" stroke-linecap="butt" stroke-linejoin="miter" stroke-miterlimit="10" stroke-dasharray="" stroke-dashoffset="0" style="mix-blend-mode: normal"><path d="M307.44765,180c0,29.666 -30.25555,53.80382 -67.44765,53.80382c-37.19047,0 -67.44765,-24.13782 -67.44765,-53.80382c0,-29.66729 30.25555,-53.80382 67.44765,-53.80382c37.1921,0 67.44765,24.13782 67.44765,53.80382z" fill="url(#color-1)"/><path d="M184.8327,180.0013c0,-24.30474 24.69924,-44.00763 55.1673,-44.00763c30.46806,0 55.1673,19.70289 55.1673,44.00763c0,24.30474 -24.69924,44.00763 -55.1673,44.00763c-30.46806,0 -55.1673,-19.70289 -55.1673,-44.00763z" fill="url(#color-2)"/><text transform="translate(183.77,185.76875) scale(0.5,0.5)" font-size="40" xml:space="preserve" fill="#9966ff" fill-rule="nonzero" stroke="none" stroke-width="1" stroke-linecap="butt" stroke-linejoin="miter" stroke-miterlimit="10" stroke-dasharray="" stroke-dashoffset="0" font-family="Sans Serif" font-weight="normal" text-anchor="start" style="mix-blend-mode: normal"><tspan x="0" dy="0">Émeraudes </tspan></text></g></g></svg>