<svg version="1.1" xmlns="http://www.w3.org/2000/svg" xmlns:xlink="http://www.w3.org/1999/xlink" width="100.48438" height="84.1106" viewBox="0,0,100.48438,84.1106"><g transform="translate(-190.5373,-152.91228)"><g data-paper-data="{&quot;isPaintingLayer&quot;:true}" fill-rule="nonzero" stroke="none" stroke-width="1" stroke-linecap="butt" stroke-linejoin="miter" stroke-miterlimit="10" stroke-dasharray="" stroke-dashoffset="0" style="mix-blend-mode: normal"><path d="M209.125,172.86793c0,0 7.46146,-13.37917 18.01042,-17.23854c0,0 20.32604,-4.63125 27.01563,-1.80104c0,0 13.37917,9.2625 16.72396,14.40833c0,0 -18.01042,33.44792 -26.50104,38.59375c0,0.25729 -31.90417,-20.06875 -35.24896,-33.9625z" fill="#7fccef"/><path d="M244.37396,207.08772l-2.31562,-17.75313l12.35,-14.92292l14.15104,-8.74792c1.02917,0.77188 1.80104,1.80104 2.31562,2.57292c0,0 -17.75312,33.44792 -26.50104,38.85104z" fill="#678fe4"/><path d="M236.9125,166.17835l17.49583,8.23333c-0.51458,8.23333 -10.03438,32.67604 -10.03438,32.67604c-7.46146,-7.71875 -13.89375,-30.10313 -13.89375,-30.10313z" fill="#73b5e4"/><path d="M270.875,168.23668c-6.43229,3.60208 -10.29167,4.37396 -16.46667,6.175c-9.2625,2.83021 -23.92812,2.57292 -23.92812,2.57292c-4.63125,0 -21.35521,-4.11667 -21.35521,-4.11667c0,0 7.71875,-13.12188 18.01042,-17.23854c0,0 20.06875,-4.63125 27.01563,-1.80104c0,0 13.37917,9.2625 16.72396,14.40833z" fill="#92d7ef"/><path d="M247.71875,158.97418l6.94687,15.69479c-9.2625,2.83021 -23.92813,2.57292 -23.92813,2.57292l1.02917,-16.72396l3.0875,-6.175c3.34479,-0.77188 7.20417,-1.02917 10.80625,-1.28646z" fill="#7fccef"/><path d="M252.09271,163.86272c1.28646,0 12.09271,2.31563 18.26771,3.60208c0.25729,0.25729 0.25729,0.51458 0.51458,0.77187c-6.43229,3.60208 -10.29167,4.37396 -16.46667,6.175c-9.2625,2.83021 -23.92812,2.57292 -23.92812,2.57292c-4.63125,0 -21.35521,-4.11667 -21.35521,-4.11667c0,0 0.25729,-0.51458 0.77188,-1.28646c7.46146,-2.31563 18.26771,-5.66042 20.32604,-5.66042c3.0875,0 20.06875,-1.80104 21.86979,-2.05833z" fill="#83cdef"/><path d="M227.13542,155.62939c0,0 20.06875,-4.63125 27.27292,-1.54375c-1.80104,4.63125 -6.43229,5.14583 -6.43229,5.14583l-16.20937,1.02917c-3.0875,-2.31562 -4.63125,-4.63125 -4.63125,-4.63125z" fill="#bee6f1"/><path d="M270.875,167.97939c-6.43229,3.60208 -10.29167,4.37396 -16.46667,6.175l-6.68958,-15.18021l4.37396,-5.66042c0.77188,0 1.54375,0.25729 2.05833,0.51458c0,0 13.37917,9.2625 16.72396,14.15104z" fill="#73b5e4"/><path d="M270.875,168.23668c0,0 -0.25729,0.77188 -0.77187,1.80104c-0.51458,1.28646 -1.28646,2.83021 -2.05833,4.88854c-0.51458,1.02917 -1.02917,2.05833 -1.54375,3.0875c-0.51458,1.02917 -1.28646,2.31563 -2.05833,3.60208c-1.28646,2.31563 -3.0875,4.88854 -4.63125,7.46146c-1.80104,2.31563 -3.60208,4.88854 -5.14583,6.94688c-1.80104,2.05833 -3.34479,4.11667 -4.88854,5.66042c-3.0875,3.34479 -5.14583,5.14583 -5.14583,5.14583c0,0 2.05833,-2.31563 4.63125,-5.66042c1.28646,-1.80104 2.83021,-3.85937 4.63125,-5.91771c1.54375,-2.31563 3.34479,-4.63125 5.14583,-6.94688c1.80104,-2.31563 3.34479,-4.88854 4.63125,-7.20417c1.54375,-2.31563 2.83021,-4.63125 3.85938,-6.43229c1.02917,-1.80104 2.05833,-3.60208 2.57292,-4.63125c0.51458,-1.02917 0.77187,-1.80104 0.77187,-1.80104z" fill="#3b73e4"/><path d="M209.125,172.86793c0,0 1.28646,0 3.0875,0.25729c1.80104,0.25729 4.11667,0.51458 6.43229,1.02917c2.31562,0.51458 4.63125,1.02917 6.43229,1.54375c1.80104,0.51458 2.83021,0.77188 2.83021,0.77188c0,0 -1.28646,0.25729 -3.0875,0c-1.80104,-0.25729 -4.11667,-0.51458 -6.43229,-1.02917c-2.31563,-0.51458 -4.63125,-1.02917 -6.43229,-1.54375c-1.80104,-0.51458 -2.83021,-1.02917 -2.83021,-1.02917z" fill="#bee6f1"/><path d="M230.99479,179.55751c0,0 0.77188,1.54375 1.54375,3.60208c1.02917,2.31563 2.05833,5.14583 3.34479,7.97604c1.02917,2.83021 2.31562,5.91771 3.0875,7.97604c0.51458,1.02917 0.77188,2.05833 1.28646,2.57292c0.51458,0.51458 0.51458,0.77187 0.51458,0.77187c0,0 -0.25729,-0.25729 -0.77188,-0.77187c-0.51458,-0.51458 -1.02917,-1.28646 -1.80104,-2.31562c-1.28646,-2.05833 -2.57292,-4.88854 -3.85937,-7.97604c-1.28646,-3.0875 -2.05833,-5.91771 -2.83021,-8.23333c0,-2.05833 -0.51458,-3.60208 -0.51458,-3.60208z" fill="#bee6f1"/><path d="M252.09271,163.86272c1.28646,0 12.09271,2.31563 18.26771,3.60208c0.25729,0.25729 0.25729,0.51458 0.51458,0.77187c-6.43229,3.60208 -10.29167,4.37396 -16.46667,6.175l-4.37396,-10.29167c1.02917,0 1.80104,0 2.05833,-0.25729z" fill="#679fe4"/><path d="M250.03438,164.12001l4.37396,10.29167c-9.2625,2.83021 -23.92812,2.57292 -23.92812,2.57292l0.77188,-11.06354c4.11667,-0.25729 14.40833,-1.28646 18.78229,-1.80104z" fill="#7cbfef"/><text transform="translate(190.7873,230.77288) scale(0.5,0.5)" font-size="40" xml:space="preserve" fill="#ff0000" fill-rule="nonzero" stroke="none" stroke-width="1" stroke-linecap="butt" stroke-linejoin="miter" stroke-miterlimit="10" stroke-dasharray="" stroke-dashoffset="0" font-family="Sans Serif" font-weight="normal" text-anchor="start" style="mix-blend-mode: normal"><tspan x="0" dy="0">200 points </tspan></text></g></g></svg>