<svg version="1.1" xmlns="http://www.w3.org/2000/svg" xmlns:xlink="http://www.w3.org/1999/xlink" width="56" height="56" viewBox="0,0,56,56"><g transform="translate(-212,-152)"><g data-paper-data="{&quot;isPaintingLayer&quot;:true}" fill-rule="nonzero" stroke="none" stroke-width="1" stroke-linecap="butt" stroke-linejoin="miter" stroke-miterlimit="10" stroke-dasharray="" stroke-dashoffset="0" style="mix-blend-mode: normal"><g><path d="M240,152c7.7,0 14.7,3.1 19.8,8.2c5.1,5.1 8.2,12.1 8.2,19.8c0,7.7 -3.1,14.7 -8.2,19.8c-5.1,5.1 -12.1,8.2 -19.8,8.2c-7.7,0 -14.7,-3.1 -19.8,-8.2c-5.1,-5.1 -8.2,-12.1 -8.2,-19.8c0,-7.7 3.1,-14.7 8.2,-19.8c5.1,-5.1 12.1,-8.2 19.8,-8.2z" fill="#faf0e6"/><path d="M250.9,205.8c-5.9,-11.4 -1.9,-23.4 -1.9,-23.4c3.4,-10.7 10.1,-16.7 13.3,-19c3.6,4.6 5.7,10.4 5.7,16.7c0,11.5 -6.9,21.3 -17.1,25.7z" fill="#f0e6d2"/></g><g fill="#f01446"><path d="M256.9,167.3l0.8,-4.4l0.7,0.2l-0.5,3.5l3.7,0.1v0.8l-4.7,-0.2"/><path d="M253,172.6l-0.2,-4.5l0.8,-0.1l0.3,3.6l3.6,-0.7l0.1,0.8l-4.6,0.9"/><path d="M250.5,178.2l-1.5,-4.2l0.9,-0.2l1.1,3.3l3.3,-1.2l0.2,0.7l-4,1.6"/><path d="M247.6,190.5l-2.6,-3.5l0.6,-0.5l2.1,2.9l2.8,-2.3l0.5,0.6l-3.4,2.8"/><path d="M247.8,197.4l-3.2,-3.2l0.7,-0.6l2.4,2.5l2.4,-2.5l0.7,0.6l-3,3.2"/><path d="M249.5,203.4l-3.7,-2.5l0.4,-0.6l3,1.9l1.8,-3l0.8,0.4l-2.3,3.8"/><path d="M248.6,184l-1.8,-3.9l0.8,-0.4l1.4,3.2l3.2,-1.6l0.3,0.7l-3.9,2"/><path d="M262.7,163.8c-3.6,2.1 -6.6,5 -8.8,8.6c-7.5,12.2 -7,25.4 -2.6,33.4c-0.2,0.1 -0.6,0.2 -0.8,0.3c-5.8,-10.4 -3.2,-24.7 2.7,-34.2c2.2,-3.6 5.3,-6.7 9,-8.9c0.1,0.3 0.3,0.4 0.5,0.8z"/></g><g fill="#f01446"><path d="M223.6,193.1l-0.7,4.4l-0.8,-0.1l0.5,-3.5l-3.5,-0.1l0.1,-0.8l4.4,0.1"/><path d="M227.2,188l0.3,4.4h-0.8l-0.2,-3.4l-3.5,0.6l-0.1,-0.8l4.3,-0.8"/><path d="M229.7,182.4l1.3,4.1l-0.8,0.2l-1,-3.2l-3.1,1.2l-0.4,-0.7l4,-1.6"/><path d="M232.3,170.3l2.5,3.4l-0.6,0.5l-2,-2.8l-2.5,2.2l-0.5,-0.6l3.1,-2.7"/><path d="M232.2,163.5l2.9,3.1l-0.5,0.5l-2.4,-2.5l-2.2,2.5l-0.7,-0.5l2.9,-3.1"/><path d="M230.6,157.5l3.5,2.4l-0.4,0.7l-2.9,-1.9l-1.7,2.8l-0.6,-0.4l2.1,-3.6"/><path d="M231.4,176.7l1.7,3.9l-0.7,0.3l-1.4,-3.2l-3,1.7l-0.3,-0.7l3.7,-2"/><path d="M228.5,154.7c0.3,-0.1 0.6,-0.2 0.8,-0.3c5.8,10.2 3.3,24.7 -2.3,34.2c-2.1,3.7 -5.1,6.8 -8.8,9c-0.2,-0.1 -0.3,-0.4 -0.5,-0.6c3.6,-2.1 6.7,-5.1 8.7,-8.8c7.3,-12.2 6.6,-25.6 2.1,-33.5z"/></g></g></g></svg>