<svg version="1.1" xmlns="http://www.w3.org/2000/svg" xmlns:xlink="http://www.w3.org/1999/xlink" width="103.31766" height="49.998" viewBox="0,0,103.31766,49.998"><g transform="translate(-188.71481,-155.07)"><g data-paper-data="{&quot;isPaintingLayer&quot;:true}" fill-rule="nonzero" stroke-linecap="butt" stroke-linejoin="miter" stroke-miterlimit="10" stroke-dasharray="" stroke-dashoffset="0" style="mix-blend-mode: normal"><path d="M211.564,180.069c0,-13.6685 12.48947,-24.749 27.896,-24.749c15.40653,0 27.896,11.0805 27.896,24.749c0,13.6685 -12.48946,24.749 -27.896,24.749c-15.40653,0 -27.896,-11.08051 -27.896,-24.749z" fill="#726658" stroke="none" stroke-width="1"/><path d="M211.564,180.069c0,-13.6685 12.48947,-24.749 27.896,-24.749c15.40653,0 27.896,11.0805 27.896,24.749c0,13.6685 -12.48946,24.749 -27.896,24.749c-15.40653,0 -27.896,-11.08051 -27.896,-24.749z" fill="none" stroke="#ffffff" stroke-width="0.5"/><path d="M266.382,186.593c-8.294,2.043 -18.515,2.229 -29.204,0.084c-9.879,-1.982 -18.621,-5.643 -25.307,-10.199" fill="none" stroke="#c2b59b" stroke-width="0.5"/><path d="M264.493,190.835c-4.839,2.38 -10.489,3.136 -16.073,2.142" fill="none" stroke="#c2b59b" stroke-width="0.5"/><path d="M220.58,191.15c-2.098,-0.047 -4.24,-0.262 -6.4,-0.655" fill="none" stroke="#c2b59b" stroke-width="0.5"/><path d="M244.729,192.412c-4.852,4.18 -12.408,6.924 -21.363,7.812" fill="none" stroke="#c2b59b" stroke-width="0.5"/><path d="M243.436,187.681c-4.857,5.245 -13.574,8.622 -24.102,9.478" fill="none" stroke="#c2b59b" stroke-width="0.5"/><path d="M252.229,188.198c-1.912,3.812 -5.406,6.505 -9.789,7.968" fill="none" stroke="#c2b59b" stroke-width="0.5"/><path d="M246.578,188.138c-2.734,7.206 -7.008,12.973 -11.978,16.331" fill="none" stroke="#c2b59b" stroke-width="0.5"/><path d="M251.324,202.48c-2.742,-1.16 -5.434,-2.717 -7.975,-4.674c-0.426,-0.326 -0.842,-0.662 -1.248,-1.002" fill="none" stroke="#c2b59b" stroke-width="0.5"/><path d="M257.414,199.113c-4.016,-0.525 -8.152,-1.91 -12.082,-4.152" fill="none" stroke="#c2b59b" stroke-width="0.5"/><path d="M225.074,196.383c-4.992,-4.451 -8.496,-10.644 -9.637,-17.669" fill="none" stroke="#c2b59b" stroke-width="0.5"/><path d="M267.237,183.265c-8.79,1.621 -19.452,-1.547 -28.046,-9.209c-5.418,-4.832 -9.156,-10.686 -11.025,-16.588" fill="none" stroke="#c2b59b" stroke-width="0.5"/><path d="M253.422,158.515c1.139,2.387 1.783,5.111 1.783,8.004c0,5.693 -2.498,10.736 -6.34,13.836" fill="none" stroke="#c2b59b" stroke-width="0.5"/><path d="M224.004,182.878c-0.221,-1.098 -0.336,-2.227 -0.336,-3.383c0,-10.314 9.186,-18.676 20.518,-18.676c11.33,0 20.517,8.361 20.517,18.676c0,1.43 -0.178,2.82 -0.512,4.156" fill="none" stroke="#c2b59b" stroke-width="0.5"/><path d="M266.035,187.619c0.135,-0.381 0.496,-1.6 0.496,-1.6c7.643,-2.494 12.305,-5.367 12.004,-7.92c-0.559,-4.74 -18,-6.584 -38.958,-4.117c-20.959,2.465 -37.497,8.305 -36.938,13.045c0.284,2.414 4.948,4.077 12.225,4.802c0,0 0.562,1.059 0.861,1.412c0.299,0.353 1.332,1.578 1.332,1.578c-16.197,-0.284 -27.502,-3.202 -28.07,-8.017c-0.826,-7.024 21.51,-15.424 49.891,-18.764c28.38,-3.34 52.056,-0.349 52.882,6.674c0.581,4.908 -10.154,10.488 -26.355,14.543c0,0 0.494,-1.258 0.63,-1.636z" fill="#f9ed32" stroke="none" stroke-width="1" opacity="0.8"/><g fill="none" stroke="#c2b59b" stroke-width="0.5"><path d="M214.865,191.829c-7.278,-0.725 -11.942,-2.388 -12.225,-4.802c-0.558,-4.74 15.979,-10.58 36.938,-13.045c20.958,-2.467 38.399,-0.623 38.958,4.117c0.301,2.553 -4.361,5.426 -12.004,7.92"/><path d="M217.057,194.819c-16.197,-0.284 -27.502,-3.202 -28.07,-8.017c-0.826,-7.024 21.51,-15.424 49.891,-18.764c28.38,-3.34 52.056,-0.349 52.882,6.674c0.581,4.908 -10.154,10.488 -26.355,14.543"/></g></g></g></svg>