<svg version="1.1" xmlns="http://www.w3.org/2000/svg" xmlns:xlink="http://www.w3.org/1999/xlink" width="138.001" height="68.672" viewBox="0,0,138.001,68.672"><defs><linearGradient x1="171.00086" y1="173.00025" x2="309.00035" y2="173.00025" gradientUnits="userSpaceOnUse" id="color-1"><stop offset="0.012" stop-color="#66b3e3"/><stop offset="1" stop-color="#1c75bc"/></linearGradient></defs><g transform="translate(-170.9995,-138.664)"><g data-paper-data="{&quot;isPaintingLayer&quot;:true}" fill-rule="nonzero" stroke="none" stroke-width="1" stroke-linecap="butt" stroke-linejoin="miter" stroke-miterlimit="10" stroke-dasharray="" stroke-dashoffset="0" style="mix-blend-mode: normal"><path d="M309.0005,196.5275c0,5.96886 -5.84451,10.8085 -13.04929,10.8085h-111.90393c-7.2063,0 -13.04778,-4.8409 -13.04778,-10.8085v-47.05625c0,-5.96886 5.84147,-10.80725 13.04778,-10.80725h111.90242c7.20934,0 13.04929,4.83839 13.04929,10.80725v47.05625z" fill="url(#color-1)"/><path d="M303.82173,149.47125v47.05499c0,3.59488 -3.52884,6.51902 -7.87204,6.51902h-111.90242c-4.33864,0 -7.87052,-2.92414 -7.87052,-6.51902v-47.05625c0,-3.59488 3.53188,-6.51902 7.87052,-6.51902h111.90242c4.34319,0 7.87204,2.92539 7.87204,6.52027z" fill="#27aae1"/><text transform="translate(177.5,179.5) scale(0.5,0.5)" font-size="40" xml:space="preserve" fill="#ff0000" fill-rule="nonzero" stroke="none" stroke-width="1" stroke-linecap="butt" stroke-linejoin="miter" stroke-miterlimit="10" stroke-dasharray="" stroke-dashoffset="0" font-family="Handwriting" font-weight="normal" text-anchor="start" style="mix-blend-mode: normal"><tspan x="0" dy="0">Mode hardcore</tspan></text></g></g></svg>