<svg version="1.1" xmlns="http://www.w3.org/2000/svg" xmlns:xlink="http://www.w3.org/1999/xlink" width="141.66257" height="69.09101" viewBox="0,0,141.66257,69.09101"><defs><linearGradient x1="165.80786" y1="180.00025" x2="307.46887" y2="180.00025" gradientUnits="userSpaceOnUse" id="color-1"><stop offset="0.012" stop-color="#a7a9ac"/><stop offset="1" stop-color="#414042"/></linearGradient><linearGradient x1="171.12109" y1="179.99912" x2="302.15425" y2="179.99912" gradientUnits="userSpaceOnUse" id="color-2"><stop offset="0" stop-color="#d1d2d3"/><stop offset="1" stop-color="#a4a5a8"/></linearGradient></defs><g transform="translate(-165.80646,-145.45449)"><g data-paper-data="{&quot;isPaintingLayer&quot;:true}" fill-rule="nonzero" stroke="none" stroke-width="1" stroke-linecap="butt" stroke-linejoin="miter" stroke-miterlimit="10" stroke-dasharray="" stroke-dashoffset="0" style="mix-blend-mode: normal"><path d="M307.46903,203.67105c0,6.00528 -5.99958,10.87445 -13.39553,10.87445h-114.87307c-7.39751,0 -13.39397,-4.87044 -13.39397,-10.87445v-47.34337c0,-6.00528 5.99646,-10.87319 13.39397,-10.87319h114.87151c7.40062,0 13.39553,4.86791 13.39553,10.87319v47.34337z" fill="url(#color-1)"/><path d="M302.15285,156.32769v47.3421c0,3.61681 -3.62247,6.55879 -8.0809,6.55879h-114.87151c-4.45376,0 -8.07935,-2.94198 -8.07935,-6.55879v-47.34337c0,-3.61681 3.62559,-6.55879 8.07935,-6.55879h114.87151c4.45843,0 8.0809,2.94324 8.0809,6.56006z" fill="url(#color-2)"/><text transform="translate(169.3835,187.04467) scale(0.61059,0.61059)" font-size="40" xml:space="preserve" fill="#ff0000" fill-rule="nonzero" stroke="none" stroke-width="1" stroke-linecap="butt" stroke-linejoin="miter" stroke-miterlimit="10" stroke-dasharray="" stroke-dashoffset="0" font-family="Handwriting" font-weight="normal" text-anchor="start" style="mix-blend-mode: normal"><tspan x="0" dy="0">Mode normal</tspan></text></g></g></svg>