<svg xmlns="http://www.w3.org/2000/svg" xmlns:xlink="http://www.w3.org/1999/xlink" version="1.1" width="33.40509796142578" height="53.86199951171875" viewBox="-0.20227521657943726 0.3199999928474426 33.40509796142578 53.86199951171875">
  <!-- Exported by Scratch - http://scratch.mit.edu/ -->
  <g id="fille">
    <g id="ID0.7309873132035136">
      <g id="ID0.4403187846764922">
        <g id="ID0.6269831601530313">
          <g id="ID0.8161305082030594">
            <path id="ID0.6046601482667029" fill="#8D5E1B" d="M 1.802 15.269 C 1.812 15.275 1.818 15.28 1.827 15.285 C 1.817 15.277 1.81 15.273 1.802 15.269 Z " stroke-width="1"/>
          </g>
          <g id="ID0.12750354828312993">
            <path id="ID0.2138292626477778" d="M 1.802 15.269 L 1.799 15.269 M 1.802 15.269 C 1.806 15.272 1.812 15.275 1.816 15.278 C 1.81 15.273 1.806 15.271 1.802 15.269 M 1.813 15.275 C 1.817 15.278 1.821 15.28 1.825 15.283 C 1.823 15.281 1.817 15.278 1.813 15.275 M 1.803 14.338 C 1.883 14.338 1.965 14.349 2.045 14.37 C 2.13 14.391 2.211 14.428 2.285 14.473 C 2.292 14.477 2.301 14.484 2.306 14.486 C 2.744 14.748 2.888 15.313 2.629 15.756 C 2.456 16.05 2.146 16.215 1.827 16.215 C 1.669 16.215 1.509 16.174 1.362 16.09 C 1.36 16.088 1.358 16.088 1.356 16.086 C 1.067 15.929 0.871 15.621 0.871 15.27 C 0.871 14.768 1.268 14.36 1.767 14.34 C 1.776 14.338 1.79 14.338 1.803 14.338 L 1.803 14.338 Z " stroke-width="1" fill="undefined"/>
          </g>
        </g>
        <g id="ID0.47907396918162704">
          <g id="ID0.5606904937885702">
            <path id="ID0.7766585587523878" fill="#8D5E1B" d="M 10.928 53.218 C 11.116 53.218 11.306 53.207 11.493 53.192 C 12.334 53.121 13.166 52.964 13.972 52.816 L 13.941 52.347 L 14.027 52.804 C 14.445 52.727 14.966 52.629 15.374 52.323 C 15.508 52.22 15.6 52.109 15.652 51.977 C 15.71 51.834 15.71 51.7 15.71 51.62 C 15.71 51.189 15.683 50.755 15.625 50.332 C 15.603 50.161 15.586 49.991 15.569 49.822 C 15.555 49.657 15.539 49.492 15.518 49.325 C 15.491 49.12 15.416 48.984 15.33 48.893 C 15.317 48.803 15.308 48.713 15.297 48.622 C 15.297 48.622 15.215 47.818 15.194 47.643 C 15.182 47.517 15.143 47.412 15.078 47.327 C 15.063 47.191 15.051 47.056 15.041 46.921 C 15.026 46.715 15.01 46.503 15.024 46.35 C 15.034 46.259 15.059 46.153 15.091 46.036 C 15.245 45.995 15.369 45.876 15.415 45.719 C 15.519 45.365 15.615 45.074 15.716 44.818 C 15.751 44.821 15.786 44.825 15.82 44.827 C 16.218 44.857 16.632 44.874 17.085 44.874 C 17.189 44.874 17.295 44.872 17.4 44.87 C 17.404 44.998 17.411 45.125 17.418 45.252 C 17.432 45.486 17.62 45.675 17.856 45.69 C 17.925 45.694 17.996 45.696 18.065 45.698 C 18.1 45.875 18.143 46.044 18.204 46.219 C 18.334 46.597 18.506 46.908 18.659 47.183 C 18.723 47.298 18.788 47.412 18.854 47.523 C 18.792 47.822 18.969 48.076 19.035 48.167 C 19.102 48.263 19.161 48.365 19.213 48.466 C 19.079 48.778 19.179 49.081 19.28 49.302 C 19.25 49.399 19.241 49.503 19.261 49.608 C 19.266 49.64 19.274 49.671 19.285 49.702 C 19.17 49.829 19.107 49.999 19.121 50.177 C 19.041 50.216 18.953 50.249 18.857 50.277 L 18.757 50.304 C 18.521 50.367 18.226 50.447 17.976 50.671 C 17.64 50.972 17.506 51.442 17.58 52.066 C 17.59 52.142 17.607 52.302 17.709 52.454 C 17.92 52.763 18.281 52.775 18.416 52.782 C 18.611 52.789 18.805 52.792 18.999 52.792 C 19.561 52.792 20.132 52.761 20.693 52.7 C 21.328 52.63 21.855 52.221 22.32 51.858 C 22.435 51.769 22.548 51.681 22.656 51.604 L 22.697 51.576 C 23.044 51.33 23.476 51.021 23.716 50.575 C 23.793 50.429 23.83 50.286 23.822 50.143 C 23.814 49.988 23.76 49.869 23.728 49.796 C 23.545 49.403 23.337 49.021 23.107 48.66 C 23.015 48.514 22.929 48.366 22.843 48.22 C 22.76 48.076 22.677 47.934 22.588 47.792 C 22.506 47.663 22.412 47.569 22.306 47.511 C 22.242 47.42 22.178 47.327 22.119 47.231 C 22.071 47.152 22.036 47.075 22.002 46.998 C 21.929 46.835 21.847 46.649 21.681 46.462 C 21.637 46.413 21.554 46.318 21.415 46.265 C 21.411 46.263 21.407 46.262 21.403 46.26 C 21.313 46.114 21.227 45.962 21.143 45.812 C 21.069 45.677 20.993 45.54 20.936 45.417 C 20.954 45.412 21.149 45.357 21.149 45.357 L 24.26 44.536 C 24.477 44.478 24.776 44.398 25.014 44.175 C 25.502 43.71 25.395 42.997 25.344 42.654 C 25.344 42.654 25.052 40.691 24.968 40.14 C 24.979 40.036 24.987 39.931 24.99 39.828 C 25.001 39.728 24.999 39.67 24.994 39.608 C 25.027 39.377 24.96 39.129 24.906 38.928 C 24.888 38.864 24.872 38.799 24.859 38.733 C 24.843 38.661 24.83 38.587 24.818 38.514 L 25.913 35.743 C 26.125 35.206 26.445 34.395 26.301 33.482 C 26.203 32.855 25.921 32.364 25.641 31.914 C 25.634 31.901 25.626 31.891 25.62 31.878 C 26.349 32.139 27.097 32.274 27.834 32.28 L 27.89 32.28 C 28.07 32.28 28.248 32.273 28.427 32.266 C 28.594 32.26 28.76 32.253 28.927 32.253 C 29.162 32.253 29.353 32.267 29.523 32.296 C 29.898 32.361 30.385 32.578 30.517 32.979 C 30.581 33.171 30.761 33.296 30.958 33.296 C 30.985 33.296 31.013 33.294 31.04 33.289 C 31.267 33.248 31.431 33.048 31.424 32.815 C 31.381 31.427 31.259 29.805 30.681 28.304 C 30.056 26.678 28.927 25.399 27.582 24.797 C 27.332 24.684 27.076 24.596 26.829 24.51 C 26.417 24.366 26.028 24.231 25.708 24.007 C 25.058 23.552 24.92 23.018 24.729 22.278 C 24.713 22.216 24.698 22.156 24.68 22.093 C 25.59 21.978 26.391 21.435 26.742 20.671 C 27.048 20.003 27.105 19.284 26.914 18.62 C 26.962 18.553 27.009 18.484 27.055 18.415 C 27.104 18.341 27.149 18.263 27.19 18.185 C 28.997 18.085 30.286 17.907 31.028 17.655 C 31.042 17.65 31.057 17.644 31.071 17.639 C 31.081 17.636 31.11 17.623 31.11 17.623 C 31.182 17.597 31.261 17.563 31.332 17.529 C 31.337 17.527 31.485 17.458 31.485 17.458 C 31.563 17.419 31.653 17.361 31.723 17.305 C 31.829 17.221 32.055 17.042 32.174 16.7 C 32.335 16.236 32.163 15.743 31.713 15.377 L 27.822 12.269 C 27.808 12.257 27.792 12.247 27.777 12.237 C 27.728 12.197 27.664 12.15 27.589 12.102 C 27.525 11.128 27.463 10.517 27.455 10.446 C 27.405 10.054 27.33 9.484 27.122 8.758 C 27.006 8.354 26.918 8.139 26.787 7.815 C 26.711 7.627 26.6 7.414 26.495 7.208 C 26.289 6.809 25.938 6.305 25.722 6.049 C 25.425 5.701 25.118 5.34 24.413 4.795 C 24.306 4.711 23.713 4.264 22.742 3.738 C 22.417 3.563 21.746 3.225 20.893 2.922 C 20.557 2.803 20.213 2.694 19.866 2.603 C 19.821 2.419 19.725 2.197 19.524 1.975 C 19.299 1.729 18.975 1.559 18.563 1.467 C 18.1 1.363 17.375 1.295 16.756 1.295 C 16.618 1.295 16.486 1.299 16.367 1.306 C 16.078 1.325 15.539 1.356 15.109 1.768 C 14.955 1.914 14.838 2.09 14.765 2.282 C 13.404 2.466 12.074 2.859 10.804 3.457 C 10.541 3.58 9.742 3.955 9.052 4.508 C 8.664 4.815 8.439 5.037 8.271 5.214 C 7.915 5.585 7.644 5.967 7.613 6.01 C 7.551 6.1 7.363 6.368 7.244 6.582 C 7.094 6.85 6.937 7.127 6.791 7.478 C 6.548 8.061 6.359 8.592 6.174 9.441 L 6.018 10.175 C 5.985 10.342 5.944 10.553 5.909 10.734 C 5.821 10.776 5.741 10.819 5.664 10.867 L 1.413 13.461 L 1.413 13.461 C 1.218 13.594 1.184 13.621 1.116 13.69 C 0.987 13.821 0.934 13.91 0.884 14.002 C 0.795 14.165 0.722 14.44 0.782 14.722 C 0.848 15.034 1.002 15.226 1.143 15.371 C 1.247 15.476 1.383 15.579 1.559 15.683 C 1.565 15.687 1.664 15.745 1.669 15.746 C 1.669 15.746 1.766 15.797 1.775 15.802 C 1.82 15.823 1.868 15.847 1.92 15.87 C 2.647 16.196 3.878 16.519 5.582 16.833 C 5.824 17.996 6.288 19.066 6.93 19.945 C 6.938 19.998 6.946 20.043 6.951 20.089 C 6.983 20.377 6.977 20.675 6.972 20.991 C 6.969 21.167 6.966 21.345 6.97 21.52 C 7.013 23.749 8.103 26.002 9.89 27.551 C 10.464 28.05 10.98 28.349 11.51 28.495 C 11.601 28.519 11.697 28.538 11.8 28.55 C 11.804 28.583 11.857 28.97 11.857 28.97 C 11.674 29.282 11.525 29.576 11.4 29.866 C 11.375 29.925 11.363 29.986 11.363 30.05 C 11.363 30.099 11.369 30.142 11.38 30.182 C 11.125 30.64 10.895 31.098 10.692 31.546 C 10.137 32.776 9.801 34.118 9.516 35.403 C 9.418 35.474 9.34 35.579 9.321 35.698 C 9.243 36.195 9.141 36.698 9.022 37.189 C 8.996 37.295 9.008 37.405 9.052 37.497 C 9.047 37.517 9.042 37.535 9.038 37.555 C 8.829 37.672 8.656 37.814 8.521 37.976 L 8.843 38.32 L 8.486 38.023 C 8.355 38.169 8.207 38.333 8.091 38.528 C 7.842 38.859 7.65 39.134 7.484 39.393 C 7.461 39.431 7.431 39.472 7.402 39.515 C 7.207 39.796 6.881 40.265 7.101 40.767 C 7.259 41.134 7.622 41.372 8.023 41.372 C 8.034 41.372 8.081 41.37 8.091 41.369 C 8.127 41.366 8.161 41.36 8.195 41.353 C 8.224 41.439 8.267 41.523 8.328 41.604 C 8.516 41.856 8.818 42.007 9.133 42.007 C 9.235 42.007 9.334 41.992 9.432 41.962 C 9.485 41.945 9.534 41.925 9.578 41.9 C 9.623 41.97 9.681 42.037 9.751 42.096 C 9.933 42.249 10.164 42.335 10.403 42.335 C 10.58 42.335 10.756 42.287 10.91 42.197 C 11.274 41.984 11.326 41.548 11.356 41.286 C 11.356 41.286 11.37 41.179 11.373 41.162 C 11.52 41.263 11.706 41.318 11.899 41.318 C 12.003 41.318 12.102 41.302 12.196 41.271 C 12.241 41.255 12.284 41.24 12.321 41.22 C 12.333 41.411 12.35 41.587 12.371 41.752 C 12.392 41.911 12.417 42.068 12.45 42.224 C 12.512 42.514 12.592 42.771 12.692 43.006 C 12.63 43.12 12.571 43.235 12.516 43.355 C 12.285 43.861 12.077 44.379 11.885 44.865 C 11.799 45.085 11.891 45.335 12.1 45.445 C 12.162 45.477 12.225 45.508 12.286 45.538 C 12.246 45.706 12.213 45.882 12.192 46.068 C 12.151 46.47 12.178 46.839 12.2 47.136 C 12.209 47.243 12.219 47.352 12.229 47.458 C 12.178 47.547 12.143 47.665 12.147 47.823 C 12.149 47.945 12.155 48.068 12.161 48.193 C 12.166 48.302 12.171 48.413 12.174 48.521 C 11.914 48.75 11.877 49.07 11.876 49.316 C 11.808 49.389 11.758 49.48 11.731 49.583 C 11.723 49.614 11.717 49.646 11.714 49.679 C 11.543 49.751 11.409 49.895 11.352 50.078 C 11.253 50.138 11.168 50.21 11.102 50.294 C 10.913 50.363 10.719 50.427 10.526 50.491 L 10.293 50.566 C 9.937 50.685 9.677 50.852 9.498 51.077 C 9.358 51.252 9.26 51.473 9.206 51.732 C 9.134 52.083 9.173 52.382 9.323 52.625 C 9.477 52.873 9.741 53.046 10.11 53.138 C 10.358 53.189 10.625 53.218 10.928 53.218 Z M 12.185 37.918 C 12.142 37.867 12.095 37.818 12.045 37.772 C 12.075 37.723 12.097 37.668 12.105 37.61 C 12.117 37.541 12.199 37.201 12.275 36.88 L 12.279 37.482 L 12.185 37.918 Z M 22.776 35.512 C 22.764 34.533 22.733 33.684 22.682 32.873 C 22.673 32.746 22.665 32.617 22.659 32.489 C 22.848 32.789 23.038 33.093 23.229 33.404 C 23.311 33.535 23.479 33.804 23.497 33.914 C 23.52 34.062 23.366 34.454 23.272 34.687 L 22.948 35.509 L 22.881 35.508 C 22.847 35.51 22.812 35.511 22.776 35.512 Z " stroke-width="1"/>
          </g>
          <g id="ID0.6337107322178781">
            <path id="ID0.21163611253723502" d="M 16.76 1.75 C 16.632 1.75 16.511 1.754 16.402 1.76 C 16.14 1.777 15.744 1.8 15.437 2.094 C 15.21 2.31 15.158 2.557 15.148 2.695 C 14.275 2.791 12.749 3.049 11.007 3.868 C 10.757 3.985 9.995 4.345 9.349 4.86 C 8.982 5.151 8.771 5.36 8.613 5.524 C 8.265 5.888 8.003 6.262 8 6.266 C 7.941 6.35 7.763 6.606 7.656 6.797 C 7.511 7.053 7.363 7.318 7.226 7.647 C 6.992 8.205 6.812 8.713 6.633 9.53 C 6.605 9.656 6.579 9.783 6.552 9.911 C 6.527 10.025 6.503 10.142 6.48 10.26 C 6.429 10.508 6.363 10.854 6.324 11.052 C 6.187 11.108 6.046 11.172 5.908 11.256 C 5.908 11.255 5.91 11.254 5.91 11.254 C 5.931 11.242 5.96 11.231 5.984 11.218 C 5.96 11.231 5.931 11.242 5.91 11.254 C 5.908 11.255 5.908 11.256 5.906 11.256 L 5.904 11.257 C 5.904 11.257 5.904 11.256 5.906 11.256 L 5.906 11.256 C 5.906 11.256 5.904 11.257 5.902 11.258 C 4.488 12.121 3.074 12.985 1.66 13.848 C 1.689 13.83 1.73 13.814 1.765 13.796 C 1.728 13.815 1.687 13.831 1.656 13.85 C 1.529 13.936 1.503 13.954 1.452 14.006 C 1.357 14.1 1.331 14.152 1.297 14.213 C 1.247 14.305 1.21 14.465 1.242 14.61 C 1.281 14.798 1.367 14.916 1.482 15.035 C 1.572 15.127 1.693 15.208 1.8 15.269 C 1.789 15.262 1.782 15.256 1.771 15.25 C 1.799 15.268 1.83 15.285 1.861 15.303 C 1.851 15.297 1.84 15.292 1.831 15.287 C 1.853 15.299 1.875 15.311 1.894 15.322 C 1.904 15.328 1.914 15.333 1.923 15.338 C 1.939 15.348 1.957 15.357 1.972 15.363 C 1.961 15.357 1.953 15.352 1.943 15.347 C 1.943 15.346 1.943 15.346 1.943 15.346 C 1.943 15.346 1.943 15.346 1.943 15.347 C 1.997 15.375 2.051 15.402 2.115 15.43 C 2.871 15.771 4.232 16.108 5.99 16.418 C 6.004 16.499 6.015 16.58 6.031 16.662 C 6.252 17.766 6.699 18.848 7.375 19.74 C 7.393 19.834 7.409 19.926 7.419 20.019 C 7.473 20.508 7.432 21.003 7.44 21.498 C 7.481 23.668 8.561 25.765 10.2 27.186 C 10.621 27.55 11.098 27.884 11.639 28.034 C 11.796 28.077 11.963 28.09 12.133 28.09 C 12.162 28.09 12.192 28.089 12.221 28.089 C 12.239 28.25 12.257 28.412 12.28 28.571 C 12.301 28.732 12.323 28.892 12.345 29.053 C 12.155 29.369 11.979 29.696 11.832 30.034 C 11.832 30.056 11.877 30.091 11.939 30.128 C 11.642 30.642 11.367 31.172 11.12 31.722 C 10.549 32.989 10.213 34.394 9.91 35.782 C 9.869 35.771 9.827 35.766 9.786 35.757 C 9.704 36.271 9.601 36.78 9.478 37.286 C 9.478 37.28 9.499 37.278 9.531 37.278 C 9.545 37.278 9.562 37.278 9.581 37.28 C 9.537 37.475 9.488 37.668 9.443 37.859 C 9.219 37.958 9.023 38.088 8.883 38.256 C 8.871 38.271 8.859 38.287 8.847 38.303 C 8.715 38.449 8.578 38.599 8.482 38.769 C 8.271 39.048 8.066 39.333 7.878 39.626 C 7.718 39.879 7.39 40.247 7.528 40.564 C 7.614 40.761 7.807 40.892 8.026 40.892 C 8.039 40.892 8.05 40.891 8.063 40.89 C 8.28 40.875 8.444 40.574 8.555 40.413 C 8.723 40.169 8.884 39.909 9.055 39.661 C 9.071 39.638 9.088 39.616 9.106 39.593 C 9.005 39.832 8.909 40.073 8.825 40.318 C 8.727 40.6 8.493 41.036 8.701 41.31 C 8.805 41.448 8.966 41.53 9.136 41.53 C 9.189 41.53 9.243 41.521 9.296 41.505 C 9.505 41.441 9.595 41.109 9.665 40.928 C 9.77 40.653 9.869 40.364 9.979 40.082 C 10.01 40.001 10.044 39.923 10.08 39.845 C 10.026 40.14 9.981 40.437 9.95 40.732 C 9.918 41.03 9.788 41.505 10.051 41.728 C 10.152 41.813 10.277 41.857 10.404 41.857 C 10.497 41.857 10.591 41.835 10.675 41.785 C 10.865 41.675 10.878 41.333 10.904 41.139 C 10.947 40.846 10.976 40.541 11.021 40.243 C 11.056 40.017 11.103 39.796 11.144 39.571 C 11.148 39.569 11.154 39.568 11.158 39.568 C 11.318 39.568 11.408 40.333 11.437 40.433 C 11.468 40.54 11.502 40.64 11.582 40.722 C 11.66 40.802 11.781 40.842 11.898 40.842 C 11.951 40.842 12.002 40.834 12.047 40.819 C 12.349 40.72 12.323 40.463 12.301 40.21 C 12.277 39.932 12.267 39.651 12.213 39.379 C 12.173 39.176 12.17 38.918 12.075 38.72 C 11.985 38.334 11.731 38.064 11.401 37.891 C 11.43 37.765 11.457 37.64 11.485 37.513 C 11.561 37.525 11.616 37.534 11.639 37.541 C 11.657 37.43 11.973 36.129 11.964 36.128 C 11.906 36.124 11.85 36.112 11.793 36.107 C 12.037 34.997 12.314 33.893 12.704 32.913 C 12.715 34.451 12.726 35.99 12.738 37.529 C 12.592 38.208 12.447 38.884 12.301 39.562 C 12.267 39.726 12.239 39.921 12.357 40.042 C 12.402 40.089 12.462 40.115 12.523 40.138 C 12.599 40.167 12.677 40.181 12.756 40.2 C 12.756 40.251 12.756 40.301 12.757 40.35 C 12.758 40.496 12.76 40.643 12.765 40.791 C 12.773 41.089 12.79 41.389 12.827 41.684 C 12.847 41.83 12.869 41.977 12.899 42.12 C 12.961 42.403 13.045 42.678 13.168 42.928 C 13.181 42.957 13.2 42.981 13.215 43.008 C 13.116 43.183 13.019 43.359 12.935 43.541 C 12.713 44.025 12.511 44.525 12.316 45.024 C 12.484 45.115 12.661 45.188 12.838 45.257 C 12.757 45.528 12.683 45.803 12.651 46.106 C 12.614 46.466 12.639 46.799 12.661 47.092 C 12.674 47.278 12.694 47.457 12.713 47.639 C 12.691 47.64 12.67 47.645 12.651 47.658 C 12.608 47.688 12.606 47.75 12.606 47.803 C 12.614 48.129 12.641 48.465 12.637 48.795 C 12.579 48.805 12.526 48.822 12.487 48.855 C 12.293 49.01 12.341 49.317 12.342 49.57 C 12.342 49.57 12.342 49.57 12.341 49.57 C 12.266 49.57 12.195 49.617 12.175 49.693 C 12.153 49.782 12.203 49.871 12.29 49.897 C 12.259 49.989 12.213 50.074 12.154 50.147 C 12.101 50.13 12.05 50.107 11.997 50.092 C 11.982 50.089 11.968 50.087 11.954 50.087 C 11.879 50.087 11.808 50.139 11.79 50.215 C 11.775 50.272 11.793 50.326 11.828 50.367 C 11.762 50.39 11.695 50.414 11.631 50.444 C 11.534 50.492 11.443 50.567 11.406 50.665 C 11.125 50.775 10.835 50.867 10.544 50.964 C 10.508 50.975 10.471 50.987 10.436 50.999 C 10.217 51.071 9.999 51.179 9.854 51.358 C 9.75 51.491 9.688 51.653 9.655 51.819 C 9.616 52.006 9.612 52.211 9.712 52.371 C 9.819 52.543 10.021 52.629 10.217 52.678 C 10.446 52.735 10.683 52.754 10.918 52.754 C 11.094 52.754 11.271 52.743 11.444 52.729 C 12.264 52.66 13.075 52.508 13.882 52.358 C 14.279 52.285 14.75 52.205 15.081 51.954 C 15.134 51.914 15.184 51.865 15.209 51.803 C 15.232 51.746 15.232 51.684 15.232 51.622 C 15.232 51.213 15.207 50.803 15.152 50.395 C 15.105 50.054 15.088 49.723 15.045 49.385 C 15.035 49.309 15.016 49.221 14.945 49.192 C 14.929 49.186 14.909 49.187 14.89 49.186 C 14.865 49.016 14.841 48.846 14.823 48.676 C 14.787 48.35 14.758 48.022 14.72 47.697 C 14.716 47.656 14.708 47.61 14.673 47.589 C 14.659 47.58 14.642 47.576 14.626 47.576 C 14.626 47.576 14.625 47.576 14.624 47.576 C 14.603 47.371 14.58 47.164 14.563 46.954 C 14.545 46.718 14.53 46.495 14.549 46.304 C 14.57 46.099 14.639 45.869 14.721 45.615 C 14.723 45.605 14.727 45.597 14.731 45.589 C 14.74 45.589 14.75 45.589 14.76 45.589 C 14.803 45.589 14.848 45.591 14.893 45.591 C 14.914 45.591 14.936 45.591 14.958 45.589 C 15.088 45.146 15.229 44.722 15.409 44.318 C 15.555 44.339 15.7 44.352 15.844 44.363 C 16.253 44.394 16.664 44.408 17.074 44.408 C 17.329 44.408 17.585 44.402 17.839 44.394 C 17.848 44.671 17.856 44.948 17.872 45.224 C 17.937 45.228 18.004 45.23 18.07 45.23 C 18.195 45.23 18.32 45.224 18.443 45.216 C 18.484 45.498 18.534 45.778 18.631 46.066 C 18.748 46.406 18.911 46.698 19.054 46.957 C 19.158 47.145 19.269 47.328 19.377 47.513 C 19.353 47.532 19.323 47.546 19.31 47.575 C 19.259 47.681 19.334 47.802 19.402 47.897 C 19.539 48.09 19.644 48.3 19.742 48.512 C 19.697 48.546 19.659 48.582 19.637 48.627 C 19.526 48.85 19.699 49.106 19.805 49.335 C 19.737 49.365 19.694 49.439 19.707 49.518 C 19.721 49.6 19.793 49.658 19.874 49.658 C 19.881 49.658 19.889 49.657 19.895 49.656 C 19.906 49.752 19.899 49.847 19.877 49.938 C 19.822 49.946 19.768 49.946 19.712 49.957 C 19.62 49.975 19.559 50.061 19.576 50.154 C 19.586 50.213 19.629 50.249 19.68 50.27 C 19.628 50.323 19.576 50.374 19.53 50.428 C 19.512 50.449 19.499 50.473 19.485 50.495 C 19.334 50.589 19.161 50.662 18.977 50.715 C 18.731 50.785 18.473 50.833 18.276 51.01 C 18.012 51.246 17.991 51.652 18.032 52.004 C 18.04 52.066 18.049 52.131 18.084 52.183 C 18.155 52.287 18.298 52.303 18.424 52.307 C 18.612 52.315 18.802 52.319 18.99 52.319 C 19.539 52.319 20.087 52.289 20.632 52.228 C 21.277 52.159 21.855 51.588 22.377 51.217 C 22.707 50.983 23.101 50.714 23.295 50.347 C 23.326 50.287 23.351 50.223 23.349 50.157 C 23.345 50.095 23.32 50.039 23.295 49.981 C 23.123 49.61 22.927 49.25 22.706 48.903 C 22.52 48.614 22.366 48.321 22.185 48.032 C 22.146 47.97 22.092 47.899 22.021 47.899 C 22.019 47.899 22.017 47.899 22.013 47.899 C 22.013 47.899 22.011 47.901 22.008 47.901 C 21.908 47.759 21.806 47.617 21.713 47.465 C 21.562 47.217 21.519 46.983 21.322 46.758 C 21.297 46.731 21.27 46.701 21.235 46.688 C 21.221 46.682 21.206 46.68 21.19 46.68 C 21.167 46.68 21.141 46.686 21.118 46.694 C 20.985 46.475 20.854 46.255 20.729 46.027 C 20.613 45.819 20.504 45.623 20.442 45.442 C 20.403 45.332 20.378 45.203 20.354 45.063 C 20.581 45.028 20.788 44.961 21.022 44.9 C 22.059 44.627 23.094 44.352 24.132 44.079 C 24.33 44.026 24.537 43.969 24.686 43.828 C 24.969 43.557 24.934 43.102 24.874 42.716 C 24.746 41.859 24.619 41 24.488 40.143 C 24.502 40.03 24.509 39.914 24.515 39.799 C 24.517 39.778 24.519 39.76 24.521 39.739 C 24.525 39.688 24.519 39.637 24.517 39.586 C 24.554 39.319 24.443 39.075 24.392 38.815 C 24.368 38.696 24.347 38.578 24.327 38.459 L 25.471 35.563 C 25.676 35.045 25.956 34.335 25.832 33.547 C 25.748 33.006 25.502 32.578 25.237 32.151 C 24.941 31.673 24.652 31.212 24.362 30.754 C 25.409 31.4 26.601 31.798 27.827 31.808 C 27.844 31.808 27.861 31.808 27.879 31.808 C 28.225 31.808 28.572 31.781 28.918 31.781 C 29.145 31.781 29.369 31.794 29.592 31.833 C 30.171 31.933 30.762 32.268 30.947 32.826 C 30.9 31.347 30.767 29.847 30.234 28.468 C 29.704 27.086 28.73 25.822 27.38 25.218 C 26.734 24.929 26.011 24.79 25.431 24.384 C 24.457 23.704 24.42 22.851 24.119 21.841 C 24.098 21.772 24.079 21.702 24.058 21.634 C 24.142 21.644 24.226 21.648 24.312 21.648 C 25.129 21.648 25.972 21.21 26.308 20.474 C 26.603 19.829 26.627 19.15 26.386 18.538 C 26.478 18.415 26.57 18.289 26.656 18.156 C 26.745 18.02 26.816 17.876 26.89 17.73 C 28.824 17.633 30.214 17.445 30.922 17.187 L 30.922 17.187 L 30.922 17.187 C 30.995 17.162 31.06 17.134 31.118 17.107 C 31.128 17.101 31.139 17.097 31.149 17.092 C 31.159 17.087 31.168 17.081 31.176 17.077 C 31.205 17.062 31.237 17.05 31.262 17.038 C 31.313 17.013 31.376 16.972 31.419 16.936 C 31.51 16.864 31.647 16.755 31.721 16.54 C 31.778 16.379 31.811 16.059 31.407 15.728 C 31.406 15.726 31.404 15.726 31.403 15.724 L 31.403 15.724 L 31.41 15.723 C 31.41 15.723 31.41 15.722 31.409 15.721 L 31.409 15.721 C 31.379 15.698 31.341 15.674 31.303 15.65 C 31.295 15.645 31.287 15.639 31.279 15.634 C 31.288 15.639 31.296 15.645 31.303 15.65 C 31.342 15.674 31.38 15.698 31.409 15.721 L 31.409 15.721 C 30.114 14.688 28.821 13.653 27.526 12.618 C 27.524 12.615 27.522 12.615 27.52 12.612 C 27.401 12.518 27.272 12.436 27.134 12.359 C 27.063 11.205 26.988 10.482 26.987 10.477 C 26.938 10.089 26.868 9.559 26.67 8.872 C 26.562 8.496 26.482 8.3 26.351 7.975 C 26.279 7.798 26.176 7.598 26.078 7.405 C 25.89 7.043 25.562 6.566 25.363 6.336 C 25.068 5.987 24.788 5.659 24.125 5.148 C 24.021 5.067 23.452 4.639 22.518 4.133 C 22.206 3.965 21.559 3.639 20.735 3.345 C 20.225 3.164 19.778 3.042 19.438 2.96 C 19.44 2.821 19.436 2.557 19.177 2.272 C 19.02 2.098 18.778 1.975 18.46 1.905 C 18.028 1.812 17.329 1.75 16.76 1.75 M 16.345 2.627 L 16.345 2.627 L 16.345 2.627 C 16.349 2.627 16.353 2.627 16.355 2.627 C 16.359 2.627 16.363 2.627 16.367 2.627 C 16.363 2.627 16.359 2.627 16.355 2.627 C 16.351 2.627 16.347 2.627 16.345 2.627 L 16.345 2.627 L 16.345 2.627 C 16.332 2.627 16.32 2.627 16.308 2.627 C 16.297 2.628 16.285 2.628 16.273 2.628 C 16.285 2.628 16.296 2.628 16.308 2.627 C 16.319 2.627 16.331 2.627 16.345 2.627 L 16.345 2.627 L 16.345 2.627 M 16.05 2.63 C 16.05 2.63 16.049 2.63 16.048 2.63 L 16.048 2.63 C 16.03 2.631 16.012 2.631 15.994 2.631 C 16.012 2.631 16.03 2.631 16.048 2.63 L 16.048 2.63 C 16.049 2.63 16.049 2.63 16.05 2.63 C 16.062 2.629 16.073 2.629 16.084 2.629 C 16.073 2.629 16.062 2.629 16.05 2.63 M 15.755 2.641 C 15.754 2.641 15.753 2.641 15.751 2.641 C 15.752 2.641 15.753 2.641 15.755 2.641 C 15.78 2.64 15.808 2.639 15.833 2.637 C 15.806 2.639 15.78 2.64 15.755 2.641 M 17.056 2.648 C 17.074 2.648 17.089 2.65 17.107 2.65 C 17.127 2.652 17.146 2.652 17.167 2.654 C 17.146 2.652 17.127 2.652 17.107 2.65 C 17.09 2.65 17.073 2.648 17.056 2.648 M 17.524 2.678 C 17.534 2.678 17.545 2.68 17.553 2.68 C 17.544 2.68 17.534 2.678 17.524 2.678 C 17.502 2.676 17.479 2.674 17.456 2.672 C 17.479 2.674 17.502 2.676 17.524 2.678 M 17.962 2.715 C 17.946 2.714 17.933 2.713 17.916 2.711 C 17.931 2.713 17.946 2.714 17.962 2.715 M 17.974 2.717 C 17.97 2.717 17.967 2.717 17.964 2.716 L 17.964 2.716 C 17.968 2.717 17.971 2.717 17.974 2.717 M 18.26 2.749 C 18.277 2.751 18.292 2.753 18.31 2.755 C 18.326 2.758 18.34 2.76 18.357 2.762 C 18.341 2.76 18.326 2.758 18.31 2.755 C 18.292 2.752 18.276 2.751 18.26 2.749 M 18.664 2.805 C 18.645 2.801 18.625 2.799 18.606 2.796 C 18.625 2.799 18.646 2.801 18.664 2.805 M 18.94 2.854 C 18.944 2.856 18.946 2.856 18.95 2.856 C 18.948 2.855 18.944 2.855 18.94 2.854 M 7.124 10.811 C 7.151 10.805 7.178 10.799 7.206 10.793 C 7.179 10.799 7.151 10.805 7.124 10.811 M 5.856 13.165 C 5.893 13.163 5.932 13.162 5.968 13.16 C 5.933 13.162 5.894 13.163 5.856 13.165 M 5.151 13.209 C 5.251 13.201 5.358 13.196 5.462 13.189 C 5.358 13.195 5.251 13.201 5.151 13.209 M 4.501 13.262 C 4.621 13.251 4.75 13.241 4.876 13.231 C 4.75 13.241 4.621 13.251 4.501 13.262 M 3.909 13.322 C 4.022 13.308 4.145 13.297 4.264 13.286 C 4.146 13.297 4.022 13.31 3.909 13.322 M 3.377 13.392 C 3.46 13.379 3.554 13.371 3.642 13.359 C 3.554 13.369 3.46 13.379 3.377 13.392 M 2.903 13.468 C 2.979 13.455 3.065 13.443 3.147 13.429 C 3.065 13.441 2.979 13.455 2.903 13.468 M 2.494 13.553 C 2.563 13.536 2.643 13.522 2.721 13.506 C 2.644 13.521 2.563 13.536 2.494 13.553 M 2.149 13.645 C 2.206 13.627 2.274 13.612 2.337 13.594 C 2.272 13.609 2.205 13.627 2.149 13.645 M 2.017 13.689 C 1.966 13.707 1.913 13.723 1.87 13.742 C 1.912 13.725 1.967 13.707 2.017 13.689 L 2.017 13.689 L 2.017 13.689 M 5.78 13.938 C 5.813 13.936 5.843 13.934 5.875 13.932 L 5.875 13.932 C 5.845 13.934 5.812 13.936 5.78 13.938 M 4.405 14.039 C 4.778 14.004 5.184 13.973 5.622 13.945 C 5.185 13.973 4.778 14.003 4.405 14.039 M 3.603 14.13 C 3.49 14.145 3.38 14.16 3.275 14.176 C 3.38 14.16 3.489 14.146 3.603 14.13 C 3.812 14.102 4.038 14.076 4.275 14.052 C 4.036 14.076 3.812 14.103 3.603 14.13 M 2.765 14.268 C 2.636 14.293 2.517 14.32 2.408 14.348 C 2.517 14.318 2.636 14.293 2.765 14.268 C 2.892 14.243 3.029 14.216 3.175 14.195 C 3.028 14.216 2.892 14.241 2.765 14.268 M 2.327 14.367 C 2.119 14.424 1.948 14.483 1.815 14.547 C 1.948 14.483 2.119 14.424 2.327 14.367 C 2.329 14.367 2.332 14.366 2.334 14.365 C 2.332 14.366 2.33 14.367 2.327 14.367 M 1.619 14.664 L 1.619 14.664 C 1.661 14.631 1.714 14.6 1.772 14.568 C 1.713 14.6 1.659 14.631 1.619 14.664 M 1.553 14.743 C 1.562 14.727 1.574 14.715 1.586 14.701 C 1.573 14.715 1.56 14.729 1.553 14.743 M 1.526 14.758 C 1.538 14.742 1.554 14.727 1.569 14.71 C 1.555 14.727 1.538 14.741 1.526 14.758 M 1.519 14.828 C 1.521 14.814 1.529 14.799 1.535 14.785 C 1.528 14.799 1.522 14.814 1.519 14.828 M 1.495 14.819 C 1.491 14.826 1.489 14.834 1.487 14.84 C 1.489 14.834 1.493 14.826 1.495 14.819 C 1.499 14.809 1.503 14.801 1.507 14.794 C 1.503 14.803 1.499 14.811 1.495 14.819 M 1.524 14.916 C 1.52 14.902 1.522 14.888 1.52 14.873 C 1.522 14.888 1.521 14.901 1.524 14.916 M 1.483 14.9 C 1.483 14.91 1.483 14.918 1.485 14.926 C 1.483 14.918 1.483 14.91 1.483 14.9 C 1.483 14.891 1.483 14.885 1.483 14.879 C 1.483 14.887 1.483 14.894 1.483 14.9 M 1.547 14.964 C 1.552 14.973 1.555 14.982 1.558 14.988 C 1.562 14.994 1.566 15.001 1.57 15.008 C 1.566 15.001 1.562 14.994 1.558 14.988 C 1.555 14.98 1.552 14.973 1.547 14.964 M 1.498 14.968 C 1.504 14.986 1.511 15.001 1.52 15.018 C 1.512 15.002 1.504 14.984 1.498 14.968 M 1.653 15.102 C 1.639 15.088 1.628 15.074 1.614 15.059 C 1.628 15.072 1.64 15.087 1.653 15.102 M 1.596 15.109 C 1.579 15.091 1.566 15.076 1.552 15.057 C 1.563 15.076 1.578 15.093 1.596 15.109 M 1.709 15.205 C 1.685 15.186 1.663 15.17 1.642 15.152 C 1.662 15.17 1.685 15.188 1.709 15.205 M 1.778 15.197 C 1.757 15.183 1.743 15.171 1.725 15.157 C 1.743 15.171 1.758 15.185 1.778 15.197 M 1.944 15.297 C 1.922 15.285 1.905 15.275 1.884 15.262 C 1.905 15.273 1.921 15.285 1.944 15.297 M 31.228 15.6 C 31.152 15.557 31.064 15.512 30.963 15.466 C 31.063 15.512 31.151 15.557 31.228 15.6 M 31.13 16.375 C 31.112 16.363 31.096 16.354 31.078 16.344 C 31.096 16.355 31.114 16.363 31.13 16.375 M 31.205 16.426 C 31.214 16.433 31.224 16.44 31.231 16.447 C 31.27 16.473 31.307 16.502 31.335 16.529 C 31.307 16.502 31.272 16.473 31.231 16.447 C 31.224 16.439 31.214 16.433 31.205 16.426 M 29.289 17.488 C 30.886 17.278 31.653 16.961 31.374 16.57 C 31.377 16.574 31.38 16.578 31.384 16.581 C 31.644 16.967 30.873 17.28 29.289 17.488 M 31.429 16.634 C 31.425 16.627 31.419 16.621 31.414 16.613 C 31.419 16.621 31.425 16.627 31.429 16.634 M 31.466 16.751 C 31.466 16.756 31.466 16.762 31.466 16.766 C 31.466 16.761 31.466 16.756 31.466 16.751 C 31.466 16.748 31.466 16.746 31.466 16.744 C 31.466 16.746 31.466 16.748 31.466 16.751 M 31.437 16.874 C 31.437 16.873 31.437 16.871 31.437 16.871 C 31.437 16.871 31.437 16.873 31.437 16.874 M 31.317 16.996 C 31.327 16.989 31.335 16.982 31.342 16.975 C 31.335 16.982 31.327 16.989 31.317 16.996 M 28.952 17.529 C 29.063 17.516 29.172 17.503 29.278 17.489 C 29.173 17.503 29.063 17.518 28.952 17.529 M 28.593 17.567 C 28.711 17.555 28.825 17.543 28.939 17.531 C 28.825 17.543 28.711 17.557 28.593 17.567 M 28.21 17.604 C 28.334 17.592 28.454 17.583 28.571 17.572 C 28.454 17.582 28.334 17.592 28.21 17.604 M 27.808 17.635 C 27.937 17.625 28.062 17.615 28.183 17.605 C 28.062 17.615 27.937 17.625 27.808 17.635 M 27.386 17.663 C 27.508 17.655 27.627 17.646 27.745 17.639 C 27.627 17.646 27.508 17.655 27.386 17.663 M 26.938 17.689 C 27.057 17.682 27.174 17.675 27.291 17.668 C 27.175 17.675 27.058 17.683 26.938 17.689 M 21.353 26.021 C 21.146 25.861 20.922 25.728 20.674 25.644 C 20.646 25.622 20.618 25.597 20.589 25.575 C 20.64 25.497 20.687 25.416 20.737 25.337 L 20.737 25.337 L 20.735 25.337 L 20.735 25.337 C 20.981 25.21 21.214 25.063 21.424 24.886 C 21.419 24.948 21.415 25.013 21.41 25.075 C 21.383 25.389 21.36 25.705 21.353 26.021 M 23.255 35.998 C 23.151 35.984 23.047 35.977 22.943 35.977 C 22.922 35.977 22.9 35.976 22.879 35.976 C 22.691 35.976 22.503 35.988 22.317 36.004 C 22.311 34.97 22.286 33.936 22.219 32.903 C 22.172 32.177 22.14 31.46 22.094 30.742 C 22.6 31.521 23.104 32.318 23.625 33.159 C 23.789 33.423 23.927 33.656 23.956 33.842 C 23.999 34.115 23.843 34.511 23.705 34.861 L 23.255 35.998 M 1.827 15.283 L 1.825 15.283 M 1.827 15.283 C 1.828 15.284 1.83 15.285 1.832 15.287 C 1.83 15.285 1.828 15.284 1.827 15.283 M 1.972 15.363 C 1.976 15.365 1.978 15.367 1.982 15.369 C 1.979 15.367 1.976 15.365 1.972 15.363 M 30.937 17.187 L 30.937 17.187 L 30.937 17.187 M 30.937 17.187 L 30.937 17.187 C 30.933 17.188 30.928 17.19 30.925 17.193 C 30.93 17.189 30.933 17.188 30.937 17.187 M 30.926 17.189 C 30.921 17.192 30.916 17.194 30.913 17.196 C 30.917 17.194 30.921 17.192 30.926 17.189 M 16.76 0.82 C 17.409 0.82 18.177 0.891 18.669 1.002 C 19.178 1.115 19.582 1.333 19.872 1.65 C 20.045 1.84 20.159 2.033 20.233 2.21 C 20.511 2.289 20.786 2.377 21.053 2.473 C 21.938 2.787 22.631 3.139 22.966 3.32 C 23.968 3.861 24.588 4.33 24.702 4.418 C 25.439 4.988 25.764 5.369 26.078 5.737 C 26.31 6.009 26.682 6.541 26.911 6.986 C 27.019 7.197 27.133 7.416 27.221 7.632 C 27.358 7.973 27.45 8.197 27.573 8.621 C 27.791 9.377 27.868 9.971 27.919 10.363 C 27.92 10.373 27.978 10.917 28.042 11.84 C 28.058 11.852 28.073 11.863 28.09 11.876 C 28.103 11.886 28.116 11.897 28.128 11.905 L 30.46 13.769 L 31.997 14.998 C 31.999 15 32.001 15.002 32.003 15.003 C 32.015 15.012 32.024 15.022 32.034 15.029 C 32.628 15.535 32.839 16.205 32.616 16.845 C 32.452 17.315 32.145 17.559 32.012 17.662 C 31.916 17.738 31.798 17.813 31.69 17.867 C 31.664 17.881 31.632 17.893 31.6 17.909 L 31.6 17.909 L 31.582 17.918 C 31.568 17.926 31.537 17.939 31.523 17.946 C 31.454 17.979 31.369 18.014 31.273 18.05 C 31.253 18.058 31.232 18.067 31.217 18.071 C 31.198 18.078 31.181 18.083 31.162 18.089 C 30.412 18.341 29.171 18.522 27.466 18.626 C 27.459 18.638 27.452 18.648 27.445 18.659 C 27.435 18.673 27.426 18.688 27.418 18.702 C 27.57 19.409 27.486 20.157 27.166 20.855 C 26.818 21.615 26.104 22.189 25.255 22.437 C 25.413 23.013 25.551 23.319 25.975 23.616 C 26.243 23.803 26.602 23.928 26.981 24.059 C 27.239 24.149 27.503 24.242 27.774 24.362 C 29.25 25.023 30.436 26.36 31.116 28.127 C 31.719 29.692 31.845 31.362 31.889 32.79 C 31.905 33.252 31.577 33.654 31.123 33.735 C 31.068 33.745 31.014 33.749 30.959 33.749 C 30.564 33.749 30.206 33.499 30.077 33.113 C 30.023 32.956 29.752 32.796 29.445 32.743 C 29.3 32.718 29.136 32.706 28.929 32.706 C 28.769 32.706 28.607 32.713 28.447 32.72 C 28.261 32.728 28.077 32.735 27.892 32.735 L 27.831 32.735 C 27.401 32.731 26.97 32.685 26.54 32.601 C 26.638 32.842 26.717 33.108 26.763 33.401 C 26.926 34.435 26.578 35.317 26.349 35.9 L 25.301 38.55 C 25.306 38.577 25.312 38.604 25.316 38.63 C 25.328 38.687 25.343 38.74 25.357 38.794 C 25.414 39 25.487 39.273 25.464 39.6 C 25.468 39.662 25.47 39.735 25.463 39.819 L 25.457 39.871 C 25.453 39.953 25.446 40.035 25.44 40.118 C 25.522 40.659 25.602 41.201 25.684 41.743 L 25.807 42.574 C 25.866 42.963 26 43.871 25.338 44.5 C 25.014 44.81 24.619 44.912 24.382 44.976 L 23.268 45.271 L 21.625 45.705 C 21.66 45.767 21.697 45.829 21.732 45.893 C 21.892 45.987 21.99 46.097 22.033 46.147 C 22.243 46.386 22.349 46.626 22.428 46.798 C 22.46 46.871 22.489 46.934 22.518 46.983 C 22.555 47.042 22.594 47.1 22.636 47.163 C 22.755 47.247 22.875 47.366 22.981 47.536 C 23.075 47.683 23.162 47.833 23.248 47.981 C 23.33 48.122 23.412 48.261 23.501 48.403 C 23.743 48.784 23.961 49.182 24.149 49.591 C 24.192 49.681 24.276 49.868 24.289 50.113 C 24.299 50.339 24.245 50.563 24.127 50.784 C 23.836 51.329 23.335 51.685 22.968 51.945 L 22.927 51.973 C 22.823 52.046 22.717 52.129 22.607 52.214 C 22.119 52.593 21.509 53.067 20.745 53.151 C 20.167 53.213 19.58 53.246 19.002 53.246 C 18.802 53.246 18.602 53.242 18.4 53.235 C 17.916 53.215 17.556 53.038 17.328 52.706 C 17.16 52.461 17.131 52.215 17.12 52.11 C 17.005 51.132 17.355 50.593 17.669 50.314 C 18.001 50.016 18.367 49.918 18.637 49.843 L 18.696 49.827 C 18.719 49.744 18.753 49.665 18.794 49.59 C 18.784 49.505 18.787 49.42 18.798 49.337 C 18.712 49.112 18.646 48.825 18.713 48.511 C 18.694 48.483 18.676 48.453 18.657 48.425 C 18.444 48.122 18.376 47.849 18.38 47.619 C 18.338 47.547 18.297 47.475 18.256 47.401 C 18.103 47.125 17.912 46.78 17.769 46.364 C 17.742 46.284 17.717 46.208 17.695 46.13 C 17.31 46.05 17.011 45.731 16.964 45.333 C 16.64 45.331 16.334 45.321 16.037 45.303 C 15.98 45.466 15.925 45.647 15.865 45.847 C 15.803 46.058 15.67 46.236 15.497 46.355 C 15.494 46.37 15.492 46.384 15.49 46.398 C 15.48 46.509 15.494 46.7 15.507 46.884 C 15.515 46.983 15.524 47.078 15.531 47.175 C 15.593 47.286 15.64 47.423 15.66 47.591 C 15.68 47.77 15.697 47.948 15.716 48.128 C 15.731 48.276 15.746 48.425 15.762 48.572 C 15.768 48.616 15.772 48.659 15.778 48.702 C 15.874 48.841 15.952 49.024 15.981 49.264 C 16.003 49.439 16.02 49.609 16.036 49.781 C 16.051 49.943 16.065 50.105 16.088 50.269 C 16.148 50.715 16.178 51.17 16.178 51.621 C 16.178 51.719 16.178 51.926 16.084 52.154 C 15.999 52.361 15.855 52.543 15.657 52.693 C 15.164 53.066 14.557 53.178 14.114 53.26 L 14.067 53.271 C 13.249 53.422 12.403 53.582 11.536 53.654 C 11.302 53.674 11.108 53.682 10.931 53.682 C 10.591 53.682 10.288 53.65 10.006 53.578 C 9.516 53.457 9.153 53.215 8.935 52.859 C 8.787 52.621 8.635 52.213 8.757 51.628 C 8.827 51.294 8.956 51.007 9.144 50.774 C 9.38 50.479 9.71 50.262 10.154 50.115 L 10.269 50.078 L 10.386 50.039 C 10.544 49.987 10.697 49.937 10.843 49.886 C 10.887 49.842 10.935 49.8 10.986 49.762 C 11.064 49.606 11.178 49.47 11.318 49.367 C 11.345 49.289 11.381 49.213 11.425 49.143 C 11.443 48.898 11.505 48.598 11.711 48.334 C 11.709 48.291 11.707 48.247 11.705 48.202 C 11.698 48.074 11.694 47.947 11.69 47.822 C 11.686 47.641 11.714 47.49 11.762 47.365 C 11.756 47.296 11.75 47.225 11.744 47.156 C 11.722 46.842 11.693 46.449 11.738 46.009 C 11.747 45.926 11.758 45.845 11.771 45.768 C 11.439 45.52 11.304 45.078 11.46 44.681 C 11.653 44.188 11.866 43.66 12.101 43.15 C 12.129 43.088 12.158 43.028 12.189 42.967 C 12.113 42.764 12.051 42.545 12.001 42.309 C 11.967 42.15 11.939 41.979 11.916 41.799 C 11.915 41.789 11.914 41.779 11.912 41.77 C 11.909 41.77 11.907 41.77 11.905 41.77 C 11.852 41.77 11.799 41.768 11.747 41.761 C 11.668 42.049 11.507 42.377 11.147 42.585 C 10.924 42.715 10.668 42.785 10.409 42.785 C 10.059 42.785 9.721 42.66 9.455 42.432 C 9.452 42.43 9.448 42.426 9.444 42.424 C 9.344 42.445 9.243 42.455 9.141 42.455 C 8.679 42.455 8.237 42.234 7.96 41.862 C 7.947 41.845 7.936 41.83 7.925 41.813 C 7.381 41.774 6.901 41.436 6.682 40.929 C 6.358 40.193 6.809 39.541 7.026 39.229 C 7.053 39.192 7.079 39.157 7.098 39.124 C 7.268 38.855 7.464 38.576 7.712 38.248 C 7.846 38.027 8.006 37.848 8.139 37.699 L 8.163 37.668 C 8.275 37.533 8.402 37.41 8.55 37.303 C 8.548 37.224 8.557 37.144 8.576 37.063 C 8.691 36.584 8.791 36.092 8.869 35.607 C 8.898 35.422 8.98 35.254 9.105 35.121 C 9.387 33.863 9.724 32.557 10.273 31.338 C 10.462 30.918 10.67 30.501 10.904 30.074 C 10.904 30.06 10.902 30.047 10.902 30.033 C 10.902 29.906 10.929 29.78 10.98 29.664 C 11.084 29.422 11.208 29.174 11.349 28.916 C 10.765 28.748 10.203 28.42 9.589 27.888 C 7.705 26.253 6.554 23.871 6.509 21.514 C 6.505 21.331 6.509 21.15 6.512 20.965 C 6.517 20.664 6.523 20.381 6.493 20.121 C 6.493 20.117 6.491 20.112 6.491 20.109 C 5.901 19.275 5.461 18.286 5.201 17.215 C 3.614 16.913 2.45 16.598 1.731 16.276 C 1.686 16.255 1.643 16.235 1.602 16.214 C 1.587 16.208 1.576 16.202 1.561 16.195 C 1.555 16.192 1.546 16.186 1.539 16.183 C 1.538 16.181 1.537 16.181 1.536 16.181 L 1.509 16.165 L 1.509 16.165 C 1.507 16.164 1.505 16.163 1.502 16.161 C 1.495 16.157 1.487 16.153 1.481 16.149 L 1.479 16.149 L 1.448 16.132 C 1.427 16.12 1.403 16.107 1.378 16.093 C 1.378 16.092 1.378 16.092 1.378 16.092 C 1.364 16.083 1.349 16.075 1.336 16.069 C 1.333 16.067 1.33 16.064 1.327 16.062 C 1.114 15.937 0.946 15.81 0.815 15.675 C 0.651 15.508 0.422 15.236 0.33 14.797 C 0.256 14.452 0.311 14.065 0.477 13.759 C 0.539 13.644 0.616 13.517 0.789 13.343 C 0.903 13.226 0.985 13.171 1.132 13.072 C 1.142 13.063 1.153 13.057 1.163 13.051 C 1.166 13.049 1.17 13.046 1.173 13.044 L 5.417 10.454 C 5.42 10.452 5.424 10.45 5.428 10.448 C 5.452 10.432 5.476 10.419 5.499 10.406 C 5.522 10.287 5.546 10.167 5.567 10.062 L 5.641 9.708 C 5.667 9.579 5.694 9.45 5.723 9.321 C 5.916 8.439 6.119 7.868 6.366 7.28 C 6.524 6.902 6.694 6.599 6.844 6.333 C 6.96 6.126 7.124 5.888 7.236 5.726 C 7.236 5.726 7.537 5.294 7.941 4.872 C 8.122 4.684 8.359 4.449 8.769 4.123 C 9.5 3.541 10.337 3.147 10.612 3.02 C 11.848 2.439 13.139 2.043 14.461 1.84 C 14.55 1.686 14.662 1.542 14.794 1.416 C 15.347 0.887 16.023 0.846 16.346 0.826 C 16.472 0.824 16.612 0.82 16.76 0.82 L 16.76 0.82 Z " stroke-width="1" fill="undefined"/>
          </g>
        </g>
        <g id="ID0.8127736710011959">
          <g id="ID0.624784009065479">
            <path id="ID0.2599494978785515" fill="#8D5E1B" d="M 27.534 13.086 C 27.68 13.086 27.825 13.018 27.915 12.889 C 28.058 12.686 28.017 12.41 27.821 12.256 C 27.815 12.251 27.774 12.222 27.774 12.222 C 27.692 12.164 27.596 12.135 27.503 12.135 C 27.357 12.135 27.214 12.202 27.124 12.328 C 26.976 12.537 27.02 12.823 27.228 12.974 C 27.228 12.974 27.279 13.01 27.287 13.015 C 27.362 13.064 27.448 13.086 27.534 13.086 Z " stroke-width="1"/>
          </g>
          <g id="ID0.739729018881917">
            <path id="ID0.18403098452836275" d="M 27.498 12.597 C 27.499 12.598 27.5 12.599 27.502 12.6 C 27.501 12.599 27.5 12.598 27.498 12.597 M 27.502 12.6 C 27.512 12.606 27.521 12.613 27.528 12.621 C 27.53 12.623 27.532 12.623 27.534 12.625 C 27.524 12.615 27.515 12.607 27.502 12.6 M 27.508 11.67 C 27.691 11.67 27.875 11.725 28.036 11.838 L 28.036 11.838 C 28.037 11.838 28.041 11.842 28.042 11.842 C 28.042 11.842 28.042 11.842 28.043 11.843 L 28.043 11.843 C 28.067 11.861 28.092 11.877 28.114 11.895 C 28.513 12.213 28.582 12.795 28.266 13.198 C 28.082 13.431 27.809 13.553 27.534 13.553 C 27.346 13.553 27.157 13.496 26.995 13.379 C 26.987 13.374 26.979 13.369 26.974 13.363 L 26.974 13.363 C 26.555 13.065 26.453 12.482 26.749 12.064 C 26.931 11.809 27.218 11.67 27.508 11.67 L 27.508 11.67 Z " stroke-width="1" fill="undefined"/>
          </g>
        </g>
      </g>
      <g id="ID0.862124603241682">
        <g id="ID0.4385010455735028">
          <path id="ID0.40214846655726433" fill="#090503" d="M 25.444 24.381 C 26.024 24.787 26.748 24.924 27.395 25.214 C 28.745 25.818 29.718 27.082 30.249 28.463 C 30.78 29.845 30.915 31.344 30.961 32.822 C 30.774 32.262 30.185 31.928 29.605 31.83 C 29.025 31.728 28.43 31.81 27.841 31.807 C 25.875 31.79 23.999 30.782 22.664 29.338 C 22.149 28.783 21.698 28.15 21.491 27.421 C 21.276 26.664 21.344 25.859 21.411 25.074 C 21.624 22.595 21.379 20.062 22.913 17.91 C 23.483 19.185 23.735 20.515 24.132 21.838 C 24.435 22.848 24.472 23.7 25.444 24.381 Z " stroke-width="1"/>
        </g>
        <g id="ID0.09147253632545471">
          <g id="ID0.46617644326761365">
            <path id="ID0.6456261109560728" fill="#E3A576" d="M 11.37 37.866 C 10.582 37.48 9.386 37.653 8.886 38.258 C 8.874 38.275 8.863 38.289 8.849 38.306 C 8.718 38.452 8.581 38.602 8.486 38.772 C 8.275 39.051 8.068 39.336 7.882 39.629 C 7.722 39.881 7.393 40.249 7.533 40.567 C 7.623 40.773 7.834 40.909 8.066 40.892 C 8.285 40.876 8.449 40.576 8.56 40.414 C 8.726 40.171 8.888 39.911 9.06 39.663 C 9.076 39.639 9.092 39.617 9.109 39.594 C 9.009 39.833 8.913 40.075 8.829 40.321 C 8.73 40.601 8.497 41.038 8.705 41.312 C 8.84 41.494 9.076 41.576 9.299 41.505 C 9.508 41.442 9.598 41.11 9.668 40.927 C 9.773 40.654 9.872 40.364 9.982 40.081 C 10.013 40.001 10.047 39.923 10.083 39.845 C 10.029 40.14 9.984 40.437 9.953 40.733 C 9.921 41.03 9.79 41.505 10.054 41.727 C 10.229 41.874 10.477 41.902 10.678 41.784 C 10.867 41.674 10.881 41.333 10.907 41.138 C 10.95 40.846 10.979 40.54 11.024 40.243 C 11.059 40.015 11.108 39.795 11.147 39.571 C 11.315 39.521 11.411 40.33 11.44 40.432 C 11.471 40.539 11.505 40.639 11.585 40.72 C 11.696 40.836 11.899 40.868 12.052 40.819 C 12.353 40.718 12.329 40.462 12.306 40.209 C 12.281 39.931 12.273 39.651 12.218 39.378 C 12.179 39.175 12.176 38.917 12.081 38.718 C 11.989 38.316 11.72 38.037 11.37 37.866 Z " stroke-width="1"/>
          </g>
          <g id="ID0.184764520265162">
            <path id="ID0.12146818870678544" fill="#E3A576" d="M 10.21 39.713 C 10.632 39.713 11.019 39.432 11.134 39.004 C 11.33 38.274 11.496 37.501 11.657 36.754 C 11.973 35.285 12.301 33.765 12.866 32.51 C 13.754 30.541 15.098 28.77 16.397 27.123 C 16.725 26.709 16.655 26.107 16.241 25.779 C 15.828 25.453 15.225 25.52 14.897 25.936 C 13.522 27.674 12.098 29.554 11.122 31.721 C 10.474 33.161 10.124 34.783 9.787 36.35 C 9.624 37.108 9.47 37.822 9.287 38.506 C 9.149 39.017 9.453 39.541 9.963 39.678 C 10.045 39.703 10.128 39.713 10.21 39.713 Z " stroke-width="1"/>
          </g>
          <g id="ID0.3509263973683119">
            <path id="ID0.48485041689127684" fill="#C0B565" d="M 14.971 29.337 C 14.908 29.737 14.777 30.155 14.555 30.498 C 14.5 30.582 13.992 31.38 13.98 31.372 C 13.626 31.121 13.298 30.785 12.925 30.569 C 12.802 30.498 11.834 30.151 11.834 30.037 C 12.092 29.441 12.419 28.876 12.81 28.356 C 13.002 28.098 13.22 27.844 13.515 27.713 C 13.562 27.692 13.615 27.674 13.667 27.68 C 13.726 27.689 13.774 27.721 13.823 27.755 C 14.157 27.997 14.465 28.276 14.741 28.583 C 14.835 28.689 14.929 28.803 14.969 28.939 C 15.004 29.068 14.991 29.205 14.971 29.337 Z " stroke-width="1"/>
          </g>
        </g>
        <g id="ID0.34758504945784807">
          <g id="ID0.903135715983808">
            <path id="ID0.024327289778739214" fill="#E3A576" d="M 14.067 51.092 C 14.128 51.092 14.188 51.087 14.25 51.076 C 14.769 50.974 15.108 50.473 15.009 49.955 C 14.839 49.072 14.655 48.025 14.577 46.954 C 14.559 46.717 14.543 46.494 14.563 46.303 C 14.584 46.099 14.653 45.869 14.733 45.614 C 14.967 44.875 15.227 44.129 15.504 43.399 C 15.692 42.906 15.443 42.352 14.949 42.166 C 14.457 41.979 13.904 42.227 13.716 42.719 C 13.425 43.484 13.154 44.263 12.908 45.037 C 12.8 45.382 12.699 45.724 12.658 46.107 C 12.622 46.466 12.646 46.799 12.668 47.093 C 12.753 48.263 12.949 49.379 13.129 50.318 C 13.218 50.774 13.618 51.092 14.067 51.092 Z " stroke-width="1"/>
          </g>
          <g id="ID0.19603135995566845">
            <path id="ID0.059468714985996485" fill="#AC9241" d="M 16.086 43.057 C 16.107 43.07 16.13 43.084 16.133 43.109 C 16.136 43.13 16.123 43.147 16.111 43.164 C 15.535 43.887 15.232 44.699 14.971 45.588 C 14.06 45.654 13.129 45.457 12.324 45.026 C 12.519 44.527 12.721 44.027 12.943 43.541 C 13.089 43.227 13.275 42.935 13.433 42.627 C 13.48 42.535 13.566 42.207 13.646 42.16 C 13.706 42.125 13.992 42.181 14.066 42.193 C 14.784 42.303 15.462 42.711 16.086 43.057 Z " stroke-width="1"/>
          </g>
          <g id="ID0.7126212911680341">
            <path id="ID0.2261610347777605" fill="#C0B565" d="M 14.834 48.676 C 14.798 48.35 14.769 48.022 14.731 47.697 C 14.727 47.657 14.719 47.61 14.684 47.589 C 14.655 47.57 14.616 47.577 14.58 47.585 C 13.988 47.708 13.376 47.729 12.777 47.644 C 12.736 47.639 12.691 47.634 12.658 47.659 C 12.615 47.688 12.611 47.751 12.613 47.804 C 12.623 48.2 12.67 48.612 12.644 49.004 C 12.619 49.372 12.594 49.739 12.601 50.112 C 12.605 50.249 12.613 50.39 12.679 50.509 C 12.779 50.68 12.978 50.76 13.167 50.817 C 13.397 50.884 13.634 50.933 13.871 50.964 C 14.051 50.986 14.237 50.998 14.411 50.945 C 14.643 50.874 14.815 50.714 14.89 50.483 C 14.958 50.265 14.996 50.039 15.003 49.81 C 15.009 49.605 14.939 49.456 14.907 49.263 C 14.881 49.068 14.856 48.873 14.834 48.676 Z " stroke-width="1"/>
          </g>
          <g id="ID0.2693893304094672">
            <path id="ID0.6892507579177618" fill="#704413" d="M 10.554 50.962 C 10.519 50.974 10.482 50.985 10.445 50.998 C 10.226 51.07 10.008 51.177 9.865 51.357 C 9.759 51.489 9.699 51.652 9.665 51.818 C 9.626 52.004 9.622 52.209 9.722 52.37 C 9.829 52.541 10.032 52.627 10.227 52.676 C 10.626 52.776 11.045 52.762 11.456 52.727 C 12.276 52.659 13.086 52.506 13.894 52.357 C 14.292 52.283 14.762 52.204 15.093 51.953 C 15.146 51.912 15.197 51.863 15.222 51.802 C 15.245 51.746 15.246 51.683 15.246 51.621 C 15.246 51.211 15.22 50.801 15.165 50.393 C 15.118 50.053 15.101 49.723 15.058 49.383 C 15.048 49.309 15.029 49.219 14.958 49.192 C 14.862 49.154 14.649 49.225 14.549 49.242 C 14.388 49.263 14.228 49.286 14.066 49.307 C 13.939 49.325 13.801 49.33 13.685 49.277 C 13.605 49.24 13.541 49.178 13.471 49.129 C 13.281 48.99 13.041 48.922 12.806 48.941 C 12.701 48.949 12.59 48.977 12.521 49.055 C 12.369 49.227 12.451 49.561 12.404 49.775 C 12.353 50.006 12.236 50.254 12.023 50.379 C 11.558 50.651 11.056 50.797 10.554 50.962 Z " stroke-width="1"/>
          </g>
          <g id="ID0.4124132739380002">
            <path id="ID0.21023631049320102" fill="#6D3E1B" d="M 12.637 51.04 C 12.4 51.127 12.14 51.121 11.89 51.094 C 11.781 51.082 11.67 51.068 11.574 51.014 C 11.478 50.961 11.4 50.864 11.4 50.753 C 11.398 50.614 11.517 50.504 11.642 50.443 C 11.767 50.381 11.906 50.352 12.023 50.279 C 12.206 50.162 12.303 49.945 12.341 49.732 C 12.39 49.468 12.255 49.044 12.497 48.851 C 12.747 48.653 13.425 48.889 13.569 49.14 C 13.667 49.307 13.684 49.593 13.635 49.776 C 13.503 50.271 13.147 50.853 12.637 51.04 Z " stroke-width="1"/>
          </g>
          <g id="ID0.6561448834836483">
            <path id="ID0.30346217565238476" fill="#D49F65" d="M 13.481 50.385 C 13.538 50.385 13.593 50.358 13.626 50.305 C 13.675 50.225 13.649 50.119 13.569 50.072 C 13.205 49.845 12.807 49.676 12.393 49.57 C 12.301 49.548 12.208 49.6 12.184 49.692 C 12.162 49.783 12.215 49.877 12.307 49.899 C 12.69 49.998 13.054 50.154 13.391 50.361 C 13.419 50.377 13.45 50.385 13.481 50.385 Z " stroke-width="1"/>
          </g>
          <g id="ID0.3529117116704583">
            <path id="ID0.0674606584943831" fill="#D49F65" d="M 13.095 50.908 C 13.152 50.908 13.208 50.879 13.24 50.827 C 13.29 50.747 13.265 50.641 13.185 50.592 C 12.818 50.367 12.422 50.197 12.006 50.09 C 11.915 50.069 11.823 50.121 11.798 50.213 C 11.775 50.304 11.829 50.397 11.921 50.42 C 12.304 50.52 12.668 50.675 13.005 50.883 C 13.034 50.899 13.063 50.908 13.095 50.908 Z " stroke-width="1"/>
          </g>
        </g>
        <g id="ID0.58151546260342">
          <g id="ID0.755416892003268">
            <path id="ID0.45841250009834766" fill="#E3A576" d="M 21.618 50.083 C 21.811 50.083 22.006 50.023 22.176 49.902 C 22.605 49.593 22.702 48.997 22.394 48.568 C 21.87 47.838 21.262 46.964 20.742 46.025 C 20.627 45.816 20.517 45.62 20.456 45.438 C 20.39 45.248 20.355 45.009 20.32 44.742 C 20.222 43.971 20.144 43.186 20.091 42.41 C 20.055 41.883 19.593 41.473 19.07 41.52 C 18.543 41.557 18.144 42.014 18.183 42.541 C 18.24 43.354 18.32 44.177 18.423 44.984 C 18.47 45.343 18.521 45.698 18.646 46.059 C 18.763 46.4 18.925 46.692 19.068 46.951 C 19.636 47.975 20.283 48.908 20.841 49.682 C 21.026 49.944 21.319 50.083 21.618 50.083 Z " stroke-width="1"/>
          </g>
          <g id="ID0.004756478127092123">
            <path id="ID0.37113738618791103" fill="#AC9241" d="M 20.387 42.143 C 20.357 42.97 20.402 43.799 20.525 44.62 C 19.724 45.062 18.798 45.275 17.885 45.223 C 17.84 44.459 17.823 43.694 17.836 42.928 C 17.84 42.711 17.851 42.482 17.976 42.305 " stroke-width="1"/>
          </g>
          <g id="ID0.0750353061594069">
            <path id="ID0.6808547778055072" fill="#C0B565" d="M 21.726 47.463 C 21.574 47.215 21.531 46.981 21.334 46.756 C 21.31 46.729 21.282 46.699 21.248 46.686 C 21.19 46.665 21.126 46.686 21.071 46.713 C 20.876 46.804 20.702 46.93 20.516 47.039 C 20.223 47.213 19.905 47.344 19.573 47.426 C 19.475 47.449 19.364 47.479 19.323 47.571 C 19.272 47.676 19.348 47.797 19.416 47.892 C 19.806 48.449 19.979 49.113 20.276 49.717 C 20.336 49.84 20.401 49.967 20.514 50.045 C 20.675 50.16 20.891 50.149 21.085 50.119 C 21.322 50.084 21.559 50.03 21.787 49.958 C 21.96 49.903 22.134 49.836 22.269 49.715 C 22.451 49.553 22.54 49.335 22.508 49.096 C 22.457 48.698 22.308 48.311 22.075 47.984 C 21.959 47.816 21.835 47.644 21.726 47.463 Z " stroke-width="1"/>
          </g>
          <g id="ID0.8827388314530253">
            <path id="ID0.9027413977310061" fill="#704413" d="M 19.95 49.498 C 20.098 50.176 19.584 50.542 18.989 50.712 C 18.744 50.781 18.485 50.83 18.289 51.006 C 18.024 51.244 18.003 51.65 18.044 52.001 C 18.052 52.063 18.062 52.129 18.096 52.18 C 18.167 52.284 18.31 52.299 18.437 52.305 C 19.173 52.332 19.912 52.306 20.644 52.226 C 21.29 52.156 21.867 51.586 22.39 51.215 C 22.719 50.982 23.111 50.711 23.308 50.344 C 23.338 50.285 23.363 50.221 23.361 50.155 C 23.357 50.093 23.333 50.036 23.308 49.98 C 23.135 49.608 22.939 49.248 22.718 48.902 C 22.532 48.612 22.378 48.32 22.197 48.031 C 22.156 47.967 22.101 47.893 22.025 47.898 C 21.922 47.904 21.76 48.057 21.675 48.114 C 21.539 48.203 21.4 48.29 21.265 48.377 C 21.156 48.447 21.035 48.51 20.904 48.51 C 20.818 48.51 20.734 48.484 20.65 48.465 C 20.419 48.42 20.171 48.459 19.966 48.572 C 19.874 48.625 19.786 48.696 19.756 48.797 C 19.688 49.016 19.903 49.284 19.95 49.498 Z " stroke-width="1"/>
          </g>
          <g id="ID0.9280852186493576">
            <path id="ID0.21498981537297368" fill="#6D3E1B" d="M 20.696 50.549 C 20.518 50.727 20.28 50.83 20.042 50.912 C 19.938 50.946 19.83 50.977 19.721 50.971 C 19.613 50.964 19.5 50.908 19.453 50.809 C 19.393 50.684 19.455 50.534 19.543 50.425 C 19.631 50.32 19.746 50.234 19.819 50.116 C 19.936 49.932 19.934 49.695 19.88 49.486 C 19.814 49.226 19.514 48.898 19.651 48.622 C 19.794 48.336 20.508 48.267 20.747 48.434 C 20.903 48.545 21.04 48.798 21.071 48.984 C 21.159 49.486 21.081 50.164 20.696 50.549 Z " stroke-width="1"/>
          </g>
          <g id="ID0.2694437918253243">
            <path id="ID0.2703730305656791" fill="#D49F65" d="M 19.888 49.652 C 19.898 49.652 19.908 49.652 19.919 49.65 C 20.308 49.58 20.705 49.568 21.097 49.613 C 21.193 49.63 21.275 49.557 21.286 49.465 C 21.297 49.371 21.231 49.287 21.137 49.277 C 20.711 49.225 20.281 49.24 19.857 49.315 C 19.765 49.334 19.704 49.42 19.721 49.514 C 19.735 49.596 19.806 49.652 19.888 49.652 Z " stroke-width="1"/>
          </g>
          <g id="ID0.6224932176992297">
            <path id="ID0.7232096754014492" fill="#D49F65" d="M 19.757 50.289 C 19.767 50.289 19.777 50.289 19.788 50.287 C 20.176 50.216 20.573 50.204 20.965 50.25 C 21.066 50.266 21.144 50.195 21.153 50.102 C 21.165 50.008 21.098 49.924 21.005 49.914 C 20.58 49.862 20.15 49.877 19.726 49.953 C 19.633 49.97 19.572 50.057 19.589 50.151 C 19.604 50.23 19.676 50.289 19.757 50.289 Z " stroke-width="1"/>
          </g>
        </g>
        <g id="ID0.39645354682579637">
          <path id="ID0.909910399466753" fill="#C0B565" d="M 21.499 26.9 C 21.649 27.318 21.744 27.766 21.819 28.206 C 22.09 29.775 22.118 31.326 22.218 32.902 C 22.403 35.781 22.352 38.674 22.067 41.545 C 22.002 42.215 21.905 42.928 21.489 43.441 C 20.944 44.111 20.024 44.25 19.188 44.316 C 18.08 44.403 16.964 44.443 15.856 44.359 C 15.073 44.298 14.243 44.154 13.659 43.598 C 12.84 42.818 12.772 41.511 12.764 40.348 C 12.743 37.539 12.723 34.731 12.702 31.92 C 12.693 30.691 12.749 29.439 12.683 28.212 C 12.635 27.338 12.269 26.185 12.816 25.412 C 13.449 24.516 15.04 24.437 15.98 24.524 C 16.886 24.607 17.788 24.729 18.683 24.886 C 19.425 25.018 20.203 25.193 20.767 25.717 C 21.108 26.039 21.337 26.451 21.499 26.9 Z " stroke-width="1"/>
        </g>
        <g id="ID0.7832813365384936">
          <g id="ID0.09237885195761919">
            <g id="ID0.276794942561537">
              <g id="ID0.40581887355074286">
                <path id="ID0.37825504085049033" fill="#7A6B47" d="M 15.909 30.935 L 18.393 30.935 C 18.518 30.935 18.619 31.037 18.619 31.162 L 18.619 33.97 C 18.619 34.095 18.518 34.197 18.393 34.197 L 15.909 34.197 C 15.784 34.197 15.682 34.095 15.682 33.97 L 15.682 31.162 C 15.683 31.035 15.784 30.935 15.909 30.935 Z M 15.8 33.849 C 15.8 33.963 15.894 34.056 16.007 34.056 L 18.295 34.056 C 18.409 34.056 18.502 33.963 18.502 33.849 L 18.502 31.28 C 18.502 31.167 18.409 31.073 18.295 31.073 L 16.007 31.073 C 15.894 31.073 15.8 31.167 15.8 31.28 L 15.8 33.849 Z " stroke-width="1"/>
              </g>
            </g>
            <g id="ID0.010069695767015219">
              <g id="ID0.5774058345705271">
                <path id="ID0.5222270181402564" fill="#AC9241" d="M 17.512 32.085 L 17.433 32.085 L 17.433 34.107 L 17.512 34.107 L 17.512 32.085 Z " stroke-width="1"/>
              </g>
              <g id="ID0.7850277493707836">
                <path id="ID0.5114686558954418" fill="#AC9241" d="M 16.87 32.085 L 16.79 32.085 L 16.79 34.107 L 16.87 34.107 L 16.87 32.085 Z " stroke-width="1"/>
              </g>
            </g>
            <g id="ID0.6390511291101575">
              <path id="ID0.13330454751849174" fill="#AC9241" d="M 15.733 31.947 C 15.764 31.962 15.807 31.953 15.84 31.951 C 16.07 31.94 16.3 31.922 16.529 31.943 C 16.699 31.958 16.926 32.024 17.06 32.133 C 17.068 32.141 17.081 32.152 17.099 32.164 C 17.115 32.179 17.133 32.195 17.15 32.213 C 17.167 32.195 17.185 32.18 17.202 32.164 C 17.218 32.15 17.232 32.14 17.24 32.133 C 17.373 32.024 17.599 31.956 17.769 31.943 C 17.998 31.922 18.23 31.939 18.458 31.951 C 18.493 31.953 18.535 31.962 18.565 31.947 C 18.555 31.985 18.551 32.033 18.561 32.072 C 18.471 32.064 18.376 32.054 18.286 32.051 C 18.088 32.041 17.912 32.038 17.715 32.072 C 17.581 32.093 17.451 32.131 17.339 32.211 C 17.314 32.229 17.235 32.323 17.171 32.345 C 17.169 32.346 17.166 32.348 17.163 32.349 C 17.157 32.35 17.153 32.348 17.149 32.349 C 17.143 32.348 17.139 32.35 17.134 32.349 C 17.132 32.348 17.129 32.346 17.126 32.345 C 17.063 32.324 16.982 32.229 16.958 32.211 C 16.848 32.131 16.716 32.094 16.583 32.072 C 16.386 32.04 16.21 32.043 16.012 32.051 C 15.92 32.056 15.827 32.067 15.737 32.072 C 15.748 32.033 15.744 31.985 15.733 31.947 Z " stroke-width="1"/>
            </g>
          </g>
          <g id="ID0.265781088732183">
            <path id="ID0.12588231917470694" fill="#AC9241" d="M 17.149 31.508 C 17.077 31.508 17.012 31.537 16.965 31.584 C 16.918 31.631 16.889 31.696 16.889 31.768 C 16.889 31.84 16.918 31.905 16.965 31.952 C 17.012 31.999 17.077 32.028 17.149 32.028 C 17.221 32.028 17.286 31.999 17.333 31.952 C 17.38 31.905 17.409 31.84 17.409 31.768 C 17.409 31.696 17.38 31.631 17.333 31.584 C 17.286 31.537 17.221 31.508 17.149 31.508 Z " stroke-width="1"/>
          </g>
        </g>
        <g id="ID0.804974801838398">
          <g id="ID0.9869991322048008">
            <g id="ID0.18443428678438067">
              <g id="ID0.23108609532937407">
                <path id="ID0.4405262377113104" fill="#7A6B47" d="M 12.948 30.935 L 13.877 30.935 C 13.957 30.935 14.023 31 14.023 31.081 L 14.023 34.05 C 14.023 34.13 13.959 34.196 13.877 34.196 L 12.948 34.196 C 12.868 34.196 12.802 34.132 12.802 34.05 L 12.802 31.081 C 12.802 31 12.868 30.935 12.948 30.935 Z M 12.851 33.922 C 12.851 33.995 12.91 34.056 12.984 34.056 L 13.839 34.056 C 13.913 34.056 13.974 33.996 13.974 33.922 L 13.974 31.206 C 13.974 31.133 13.913 31.072 13.839 31.072 L 12.984 31.072 C 12.91 31.072 12.851 31.132 12.851 31.206 L 12.851 33.922 Z " stroke-width="1"/>
              </g>
            </g>
            <g id="ID0.1482669161632657">
              <g id="ID0.08620160445570946">
                <path id="ID0.18987089535221457" fill="#AC9241" d="M 13.562 32.085 L 13.529 32.085 L 13.529 34.107 L 13.562 34.107 L 13.562 32.085 Z " stroke-width="1"/>
              </g>
              <g id="ID0.4614102435298264">
                <path id="ID0.10187811404466629" fill="#AC9241" d="M 13.295 32.085 L 13.262 32.085 L 13.262 34.107 L 13.295 34.107 L 13.295 32.085 Z " stroke-width="1"/>
              </g>
            </g>
            <g id="ID0.8752593686804175">
              <path id="ID0.2686445526778698" fill="#AC9241" d="M 12.823 31.947 C 12.836 31.962 12.854 31.953 12.868 31.951 C 12.963 31.94 13.059 31.922 13.155 31.943 C 13.225 31.958 13.319 32.024 13.375 32.133 C 13.378 32.141 13.385 32.152 13.392 32.164 C 13.398 32.179 13.406 32.195 13.413 32.213 C 13.42 32.195 13.428 32.18 13.434 32.164 C 13.44 32.15 13.446 32.14 13.45 32.133 C 13.506 32.024 13.6 31.956 13.671 31.943 C 13.767 31.922 13.862 31.939 13.958 31.951 C 13.973 31.953 13.989 31.962 14.003 31.947 C 13.999 31.985 13.997 32.033 14.001 32.072 C 13.963 32.064 13.925 32.054 13.887 32.051 C 13.804 32.041 13.732 32.038 13.65 32.072 C 13.593 32.093 13.54 32.131 13.494 32.211 C 13.482 32.229 13.451 32.323 13.423 32.345 C 13.422 32.346 13.421 32.348 13.42 32.349 C 13.418 32.35 13.416 32.348 13.414 32.349 C 13.412 32.348 13.41 32.35 13.408 32.349 C 13.406 32.348 13.406 32.346 13.404 32.345 C 13.378 32.324 13.345 32.229 13.335 32.211 C 13.289 32.131 13.234 32.094 13.179 32.072 C 13.097 32.04 13.024 32.043 12.942 32.051 C 12.903 32.056 12.864 32.067 12.827 32.072 C 12.829 32.033 12.827 31.985 12.823 31.947 Z " stroke-width="1"/>
            </g>
          </g>
          <g id="ID0.20344790071249008">
            <path id="ID0.35241965809836984" fill="#AC9241" d="M 13.412 31.508 C 13.382 31.508 13.355 31.537 13.336 31.584 C 13.316 31.631 13.304 31.696 13.304 31.768 C 13.304 31.84 13.316 31.905 13.336 31.952 C 13.355 31.999 13.382 32.028 13.412 32.028 C 13.442 32.028 13.469 31.999 13.488 31.952 C 13.508 31.905 13.52 31.84 13.52 31.768 C 13.52 31.696 13.508 31.631 13.488 31.584 C 13.469 31.537 13.442 31.508 13.412 31.508 Z " stroke-width="1"/>
          </g>
        </g>
        <g id="ID0.02322231698781252">
          <path id="ID0.9405538942664862" fill="#AC9241" d="M 20.216 28.318 C 20.409 28.335 20.599 28.381 20.777 28.461 C 21.037 28.572 21.234 28.788 21.441 28.979 C 21.613 29.134 21.842 29.248 21.949 29.458 C 22.064 29.691 22.216 29.902 22.314 30.146 C 22.324 30.17 22.334 30.202 22.32 30.225 C 22.31 30.245 22.291 30.254 22.271 30.262 C 22.168 30.31 22.064 30.358 21.961 30.406 C 21.901 30.432 21.838 30.462 21.773 30.456 C 21.716 30.451 21.666 30.42 21.617 30.391 C 20.971 29.991 20.363 29.529 19.805 29.01 C 19.754 28.964 19.703 28.916 19.676 28.854 C 19.64 28.772 19.65 28.676 19.661 28.588 C 19.667 28.533 19.674 28.477 19.705 28.43 C 19.761 28.344 19.876 28.322 19.979 28.317 C 20.058 28.312 20.138 28.312 20.216 28.318 Z " stroke-width="1"/>
        </g>
        <g id="ID0.6915091797709465">
          <path id="ID0.7029825486242771" fill="#AC9241" d="M 17.999 40.503 C 19.394 40.556 20.834 40.283 22.208 39.815 C 22.17 40.392 22.125 40.968 22.067 41.544 C 22.001 42.214 21.903 42.927 21.487 43.44 C 20.944 44.11 20.022 44.249 19.186 44.315 C 18.079 44.402 16.963 44.442 15.854 44.358 C 15.071 44.297 14.241 44.153 13.659 43.597 C 12.839 42.817 12.772 41.51 12.764 40.347 C 12.762 40.193 12.761 40.038 12.76 39.882 C 14.489 40.229 16.241 40.438 17.999 40.503 Z " stroke-width="1"/>
        </g>
        <g id="ID0.6554310764186084">
          <g id="ID0.5290122865699232">
            <path id="ID0.5638330108486116" fill="#8D6A28" d="M 18.909 40.293 C 18.862 40.694 18.872 41.103 18.936 41.502 C 18.952 41.592 18.969 41.684 19.014 41.764 C 19.088 41.897 19.227 41.981 19.368 42.043 C 19.967 42.306 20.657 42.252 21.299 42.12 C 21.064 42.258 20.782 42.301 20.51 42.309 C 20.027 42.327 19.541 42.244 19.089 42.07 C 18.993 42.034 18.896 41.99 18.83 41.912 C 18.757 41.824 18.735 41.707 18.716 41.596 C 18.654 41.209 18.611 40.82 18.593 40.426 " stroke-width="1"/>
          </g>
          <g id="ID0.1713037104345858">
            <path id="ID0.8653965299017727" fill="#8D6A28" d="M 16.276 43.941 C 15.953 43.016 15.866 42.029 15.891 41.055 C 15.893 40.96 15.864 40.439 15.948 40.41 C 16.134 40.346 16.052 40.813 16.048 40.867 C 16.012 41.359 15.991 41.852 16.015 42.346 C 16.038 42.879 16.099 43.438 16.276 43.941 Z " stroke-width="1"/>
          </g>
          <g id="ID0.9266041247174144">
            <path id="ID0.6370987403206527" fill="#8D6A28" d="M 15.194 42.316 C 15.2 42.516 15.213 42.723 15.295 42.91 C 15.41 43.167 15.646 43.348 15.887 43.495 C 15.54 43.468 15.26 43.176 15.14 42.849 C 15.019 42.522 15.027 42.164 15.036 41.818 C 15.043 41.556 15.05 41.297 15.057 41.036 C 15.061 40.851 15.016 40.574 15.087 40.407 C 15.284 40.493 15.24 40.886 15.227 41.049 C 15.194 41.47 15.183 41.894 15.194 42.316 Z " stroke-width="1"/>
          </g>
        </g>
        <g id="ID0.008211317472159863">
          <path id="ID0.9361957791261375" fill="#C0B565" d="M 22.194 36.936 C 22.354 37.601 22.512 38.266 22.672 38.931 C 22.739 39.211 22.798 39.535 22.625 39.766 C 22.542 39.877 22.417 39.947 22.293 40.007 C 21.269 40.507 20.09 40.566 18.95 40.573 C 17.054 40.588 15.157 40.491 13.272 40.283 C 13.022 40.256 12.768 40.224 12.532 40.137 C 12.47 40.115 12.41 40.086 12.364 40.04 C 12.247 39.919 12.274 39.724 12.309 39.561 C 12.514 38.607 12.718 37.653 12.922 36.698 " stroke-width="1"/>
        </g>
        <g id="ID0.82160341180861">
          <path id="ID0.11327248252928257" fill="#704413" d="M 23.418 36.205 C 23.083 36.042 22.825 36.102 22.497 36.195 C 22.082 36.311 21.616 36.336 21.188 36.404 C 20.313 36.543 19.436 36.68 18.559 36.82 C 18.344 36.852 18.121 36.89 17.948 37.02 C 17.495 37.361 17.729 38.207 17.792 38.662 C 17.886 39.352 18.013 40.039 18.095 40.732 C 18.241 41.967 18.383 43.208 18.587 44.436 C 18.633 44.715 18.755 44.84 19.028 44.927 C 19.376 45.037 19.741 45.089 20.106 45.082 C 20.444 45.075 20.712 44.98 21.034 44.895 C 22.071 44.622 23.106 44.346 24.145 44.073 C 24.342 44.02 24.549 43.963 24.698 43.823 C 24.981 43.552 24.944 43.096 24.886 42.71 C 24.743 41.759 24.606 40.807 24.459 39.856 C 24.324 38.979 24.077 38.114 23.963 37.219 C 23.93 36.958 23.897 36.686 23.744 36.471 C 23.661 36.355 23.547 36.268 23.418 36.205 Z " stroke-width="1"/>
        </g>
        <g id="ID0.157568724360317">
          <path id="ID0.7633096035569906" fill="#8C551B" d="M 19.839 44.311 C 19.871 44.5 19.954 44.625 20.107 44.738 C 20.195 44.802 20.287 44.856 20.394 44.885 C 20.488 44.91 20.601 44.883 20.687 44.908 C 20.454 44.838 20.244 44.689 20.107 44.486 C 19.906 44.191 19.876 43.816 19.846 43.461 C 19.746 42.219 19.607 40.981 19.371 39.756 C 19.224 38.991 19.145 38.224 19.032 37.453 C 18.926 37.576 18.93 37.756 18.948 37.918 C 19.039 38.818 19.239 39.707 19.345 40.606 C 19.493 41.842 19.635 43.08 19.839 44.311 Z " stroke-width="1"/>
        </g>
        <g id="ID0.9231572444550693">
          <path id="ID0.6851239586248994" fill="#8C551B" d="M 19.797 39.124 C 19.903 39.582 20.015 40.039 20.23 40.465 C 20.275 40.559 20.332 40.654 20.422 40.703 C 20.501 40.746 20.595 40.746 20.683 40.742 C 21.14 40.722 21.585 40.619 22.029 40.514 C 22.523 40.4 23.015 40.285 23.508 40.168 C 23.83 40.093 24.416 40.059 24.523 39.668 C 24.603 39.367 24.462 39.1 24.406 38.814 C 24.256 38.053 24.163 37.303 23.982 36.544 C 23.96 36.449 23.935 36.352 23.878 36.273 C 23.821 36.194 23.737 36.139 23.649 36.099 C 23.43 35.998 23.184 35.977 22.942 35.973 C 22.215 35.963 21.497 36.107 20.785 36.247 C 19.819 36.439 18.834 36.549 17.887 36.837 C 17.835 36.855 17.781 36.871 17.741 36.91 C 17.704 36.951 17.69 37.019 17.729 37.058 C 17.768 37.101 17.837 37.088 17.895 37.078 C 18.35 36.982 18.95 37.012 19.213 37.44 C 19.534 37.965 19.662 38.545 19.797 39.124 Z " stroke-width="1"/>
        </g>
        <g id="ID0.3843361143954098">
          <path id="ID0.1314324615523219" fill="#ACACAC" d="M 17.829 38.035 C 17.866 38.035 17.903 38.029 17.942 38.016 L 18.998 37.67 C 19.091 37.641 19.166 37.576 19.211 37.488 C 19.255 37.401 19.263 37.301 19.232 37.209 L 19.056 36.667 C 19.025 36.574 18.96 36.498 18.873 36.453 C 18.786 36.41 18.686 36.401 18.594 36.432 L 17.538 36.777 C 17.444 36.806 17.37 36.871 17.325 36.959 C 17.28 37.047 17.272 37.146 17.304 37.239 L 17.48 37.781 C 17.532 37.938 17.676 38.035 17.829 38.035 Z M 17.858 37.763 C 17.809 37.781 17.752 37.752 17.735 37.701 L 17.559 37.16 C 17.55 37.134 17.552 37.106 17.563 37.084 C 17.575 37.062 17.595 37.044 17.621 37.036 L 18.678 36.691 C 18.703 36.682 18.73 36.684 18.752 36.697 C 18.774 36.709 18.793 36.727 18.802 36.754 L 18.978 37.296 C 18.986 37.321 18.984 37.348 18.974 37.371 C 18.962 37.393 18.941 37.412 18.916 37.42 L 17.858 37.763 Z " stroke-width="1"/>
        </g>
        <g id="ID0.8901929827407002">
          <path id="ID0.42239618487656116" fill="#E3A576" d="M 23.045 37.711 C 23.876 37.991 24.607 38.955 24.536 39.736 C 24.534 39.756 24.53 39.775 24.528 39.795 C 24.518 39.991 24.51 40.193 24.459 40.382 C 24.414 40.731 24.358 41.077 24.284 41.416 C 24.222 41.708 24.196 42.201 23.875 42.328 C 23.665 42.412 23.42 42.359 23.267 42.184 C 23.121 42.021 23.218 41.691 23.251 41.497 C 23.304 41.207 23.371 40.908 23.424 40.611 C 23.429 40.582 23.433 40.554 23.437 40.527 C 23.339 40.766 23.238 41.006 23.126 41.241 C 22.997 41.511 22.858 41.983 22.517 42.033 C 22.293 42.066 22.068 41.96 21.957 41.754 C 21.854 41.562 22.022 41.263 22.101 41.083 C 22.219 40.812 22.353 40.537 22.472 40.26 C 22.505 40.181 22.536 40.102 22.566 40.021 C 22.398 40.268 22.22 40.511 22.035 40.745 C 21.85 40.979 21.607 41.41 21.264 41.381 C 21.036 41.364 20.842 41.207 20.781 40.984 C 20.724 40.772 20.956 40.52 21.072 40.363 C 21.248 40.126 21.441 39.887 21.619 39.643 C 21.753 39.457 21.875 39.266 22.004 39.08 C 21.918 38.928 21.283 39.434 21.19 39.487 C 21.091 39.541 20.998 39.589 20.884 39.591 C 20.723 39.595 20.556 39.475 20.485 39.332 C 20.339 39.05 20.539 38.883 20.733 38.719 C 20.946 38.539 21.149 38.347 21.379 38.191 C 21.549 38.075 21.733 37.892 21.94 37.819 C 22.289 37.598 22.677 37.587 23.045 37.711 Z " stroke-width="1"/>
        </g>
        <g id="ID0.11119921738281846">
          <path id="ID0.8265215023420751" fill="#E3A576" d="M 23.149 39.821 C 23.532 39.821 23.891 39.592 24.04 39.216 L 25.483 35.563 C 25.688 35.043 25.969 34.334 25.845 33.545 C 25.753 32.961 25.462 32.493 25.251 32.15 C 23.912 29.991 22.684 28.05 21.218 26.195 C 20.891 25.78 20.288 25.711 19.874 26.039 C 19.459 26.365 19.389 26.967 19.717 27.382 C 21.121 29.16 22.317 31.05 23.625 33.16 C 23.759 33.375 23.924 33.64 23.956 33.842 C 23.999 34.116 23.836 34.529 23.705 34.861 L 22.261 38.514 C 22.067 39.004 22.309 39.561 22.799 39.754 C 22.914 39.799 23.034 39.821 23.149 39.821 Z " stroke-width="1"/>
        </g>
        <g id="ID0.3189878547564149">
          <path id="ID0.6060177315957844" fill="#C0B565" d="M 19.56 26.066 C 19.648 25.904 19.757 25.744 19.918 25.654 C 20.132 25.534 20.399 25.555 20.634 25.629 C 21.292 25.834 21.777 26.382 22.226 26.906 C 22.521 27.25 22.865 27.588 23.109 27.968 C 23.34 28.329 23.566 28.67 23.871 28.981 C 23.134 29.423 22.433 29.927 21.781 30.488 C 21.267 29.928 20.769 29.354 20.287 28.767 C 19.963 28.371 19.564 28.015 19.34 27.547 C 19.106 27.059 19.313 26.523 19.56 26.066 Z " stroke-width="1"/>
        </g>
        <g id="ID0.9500563656911254">
          <path id="ID0.6796053326688707" fill="#AC9241" d="M 17.086 30.473 C 17.827 29.751 18.495 28.947 19.077 28.077 C 19.672 27.186 20.149 26.232 20.737 25.336 C 20.553 25.361 20.403 25.181 20.223 25.145 C 20.118 25.124 20.009 25.155 19.907 25.184 C 18.288 25.667 16.766 26.455 15.253 27.236 C 15.233 27.248 15.212 27.257 15.203 27.279 C 15.19 27.307 15.203 27.341 15.215 27.371 C 15.325 27.604 15.508 27.76 15.636 27.975 C 15.802 28.255 15.941 28.555 16.101 28.839 C 16.185 28.986 17.097 30.461 17.086 30.473 Z " stroke-width="1"/>
        </g>
        <g id="ID0.2359753786586225">
          <path id="ID0.3613245370797813" fill="#AC9241" d="M 13.056 30.256 C 13.081 30.203 12.851 29.781 12.822 29.71 C 12.748 29.525 12.676 29.338 12.607 29.15 C 12.465 28.754 12.34 28.352 12.232 27.946 C 12.123 27.534 12.042 27.116 11.951 26.698 C 11.871 26.316 11.773 25.969 11.822 25.57 C 12.749 26.187 13.619 26.906 14.419 27.714 C 13.942 28.543 13.472 29.385 13.056 30.256 Z " stroke-width="1"/>
        </g>
        <g id="ID0.8537665600888431">
          <path id="ID0.28432668233290315" fill="#B66949" d="M 15.401 26.267 C 15.227 28.547 14.991 30.811 14.69 33.047 C 14.493 30.596 14.334 28.135 14.246 25.672 " stroke-width="1"/>
        </g>
        <g id="ID0.09065871220082045">
          <path id="ID0.36336497124284506" fill="#704413" d="M 9.479 37.287 C 9.602 36.781 9.705 36.271 9.787 35.757 C 10.502 35.945 11.233 36.068 11.97 36.127 C 11.98 36.127 11.662 37.429 11.646 37.539 C 11.476 37.495 9.493 37.23 9.479 37.287 Z " stroke-width="1"/>
        </g>
        <g id="ID0.21437040949240327">
          <path id="ID0.6553459838032722" fill="#704413" d="M 15.948 36.141 C 14.839 35.217 13.862 34.127 13.276 32.799 C 12.678 31.449 12.475 30.022 12.28 28.572 C 12.18 27.837 12.11 27.084 12.259 26.357 C 12.387 26.359 12.515 26.363 12.642 26.365 C 12.826 27.588 12.894 28.828 13.148 30.039 C 13.398 31.219 13.872 32.295 14.596 33.263 C 15.189 34.055 15.919 34.738 16.689 35.354 C 17.262 35.816 17.877 36.225 18.433 36.709 C 18.568 36.826 18.701 36.948 18.829 37.076 C 18.99 37.238 18.959 37.297 18.734 37.312 C 18.433 37.333 18.201 37.539 17.88 37.528 C 17.865 37.527 17.85 37.527 17.836 37.521 C 17.816 37.512 17.804 37.497 17.791 37.481 C 17.562 37.21 17.244 37.071 16.954 36.871 C 16.61 36.636 16.267 36.404 15.948 36.141 Z " stroke-width="1"/>
        </g>
        <g id="ID0.6306315180845559">
          <g id="ID0.44301148876547813">
            <path id="ID0.3750841747969389" fill="#8D6A28" d="M 1.612 14.668 C 2.371 14.057 6.342 13.727 12.165 13.887 C 20.095 14.104 28.453 15.15 30.832 16.22 C 30.968 16.282 31.08 16.34 31.171 16.4 L 31.17 16.4 C 31.248 16.451 31.312 16.5 31.358 16.546 L 31.358 16.546 C 32.067 17.403 27.754 17.919 20.774 17.728 C 12.864 17.511 4.524 16.468 2.149 15.401 C 1.55 15.128 1.39 14.882 1.612 14.668 Z " stroke-width="1"/>
          </g>
          <g id="ID0.6542673236690462">
            <path id="ID0.5292625725269318" fill="#C0B565" d="M 1.595 14.683 C 1.607 14.672 1.619 14.662 1.631 14.653 C 1.381 14.871 1.534 15.123 2.152 15.401 C 4.527 16.468 12.867 17.51 20.777 17.727 C 27.798 17.92 32.125 17.399 31.349 16.532 C 31.359 16.544 31.37 16.555 31.38 16.568 C 32.157 17.435 27.821 17.96 20.784 17.766 C 12.854 17.547 4.497 16.503 2.118 15.432 C 1.497 15.153 1.344 14.9 1.595 14.683 Z " stroke-width="1"/>
          </g>
        </g>
        <g id="ID0.4169075791724026">
          <path id="ID0.5087570687755942" fill="#090503" d="M 8.757 15.016 C 8.601 13.694 8.71 12.229 7.116 11.766 C 6.858 11.693 6.553 11.674 6.354 11.854 C 6.223 11.974 6.167 12.158 6.126 12.332 C 5.792 13.76 5.742 15.219 6.031 16.666 C 6.382 18.416 7.298 20.115 8.798 21.084 C 8.935 19.062 8.993 17.026 8.757 15.016 Z " stroke-width="1"/>
        </g>
        <g id="ID0.41484663216397166">
          <path id="ID0.8703377828933299" fill="#E3A576" d="M 15.204 5.874 C 15.575 5.853 15.942 5.859 16.306 5.883 C 16.664 5.821 17.029 5.778 17.4 5.756 C 22.454 5.486 26.771 9.363 27.041 14.417 C 27.1 15.517 26.959 16.629 26.581 17.664 C 26.281 18.482 25.861 19.523 24.995 19.852 C 24.437 20.065 23.877 20.262 23.318 20.463 C 23.161 21.061 22.996 21.655 22.822 22.248 C 22.547 23.196 22.22 24.188 21.478 24.843 C 21.049 25.221 20.515 25.453 19.99 25.68 C 18.56 26.297 17.126 26.914 15.638 27.388 C 14.904 27.621 14.113 27.891 13.344 27.973 C 12.799 28.033 12.171 28.182 11.638 28.035 C 11.096 27.887 10.618 27.552 10.199 27.187 C 8.56 25.765 7.48 23.668 7.439 21.499 C 7.43 21.006 7.472 20.511 7.418 20.02 C 7.358 19.491 7.189 18.978 7.048 18.462 C 6.616 16.874 6.439 15.062 6.666 13.432 C 7.25 9.277 11.108 6.093 15.204 5.874 Z " stroke-width="1"/>
        </g>
        <g id="ID0.5365380686707795">
          <g id="ID0.15425967751070857">
            <path id="ID0.39783014031127095" fill="#090503" d="M 17.437 16.266 C 17.373 16.526 17.269 17.031 17.49 17.236 C 17.536 17.28 17.594 17.313 17.658 17.315 C 17.767 17.318 17.861 17.223 17.896 17.119 C 17.97 16.885 17.849 16.644 17.814 16.416 C 17.775 16.15 17.786 15.878 17.851 15.617 C 17.64 15.771 17.501 16.013 17.437 16.266 Z " stroke-width="1"/>
          </g>
          <g id="ID0.9030782571062446">
            <path id="ID0.5992446606978774" fill="#090503" d="M 15.187 16.342 C 15.183 16.609 15.197 17.123 15.458 17.275 C 15.513 17.305 15.578 17.326 15.64 17.311 C 15.748 17.29 15.818 17.176 15.828 17.068 C 15.848 16.822 15.674 16.617 15.588 16.401 C 15.488 16.152 15.438 15.883 15.442 15.616 C 15.272 15.814 15.192 16.08 15.187 16.342 Z " stroke-width="1"/>
          </g>
          <g id="ID0.2049083518795669">
            <path id="ID0.43456324422731996" fill="#090503" d="M 14.468 17.109 C 14.529 17.369 14.667 17.865 14.958 17.947 C 15.019 17.964 15.086 17.967 15.144 17.939 C 15.244 17.89 15.285 17.764 15.267 17.656 C 15.226 17.414 15.007 17.256 14.871 17.068 C 14.714 16.849 14.599 16.602 14.537 16.34 C 14.422 16.578 14.409 16.855 14.468 17.109 Z " stroke-width="1"/>
          </g>
          <g id="ID0.2723809229210019">
            <g id="ID0.757975454442203">
              <path id="ID0.8161834948696196" fill="#090503" d="M 18.715 18.232 C 18.806 19.365 17.958 20.35 16.821 20.441 C 15.688 20.53 14.698 19.684 14.61 18.553 C 14.52 17.422 15.368 16.434 16.501 16.343 C 17.635 16.256 18.626 17.102 18.715 18.232 Z " stroke-width="1"/>
            </g>
          </g>
          <g id="ID0.0016682925634086132">
            <g id="ID0.41879121866077185">
              <g id="ID0.8881967891938984">
                <path id="ID0.9396106619387865" fill="#FFFFFF" d="M 18.748 18.427 C 18.839 19.56 17.991 20.547 16.854 20.637 C 15.723 20.725 14.731 19.881 14.643 18.748 C 14.553 17.618 15.401 16.629 16.534 16.539 C 17.668 16.45 18.659 17.296 18.748 18.427 Z " stroke-width="1"/>
              </g>
            </g>
            <g id="ID0.5237079663202167">
              <path id="ID0.7673315419815481" fill="#090503" d="M 16.086 19.102 C 16.062 19.139 16.028 19.172 15.993 19.198 C 15.356 19.635 14.672 19.192 14.67 18.592 C 14.671 18.156 15.023 17.803 15.458 17.804 C 16.056 17.795 16.501 18.467 16.086 19.102 Z " stroke-width="1"/>
            </g>
          </g>
        </g>
        <g id="ID0.12279262347146869">
          <g id="ID0.04455643380060792">
            <path id="ID0.14620732888579369" fill="#090503" d="M 10.735 16.266 C 10.671 16.526 10.567 17.031 10.788 17.236 C 10.834 17.28 10.893 17.313 10.956 17.315 C 11.065 17.318 11.159 17.223 11.192 17.119 C 11.268 16.885 11.147 16.644 11.112 16.416 C 11.071 16.15 11.083 15.878 11.147 15.617 C 10.938 15.771 10.801 16.013 10.735 16.266 Z " stroke-width="1"/>
          </g>
          <g id="ID0.38782499823719263">
            <path id="ID0.27152196504175663" fill="#090503" d="M 8.487 16.342 C 8.481 16.609 8.497 17.123 8.758 17.275 C 8.814 17.305 8.878 17.326 8.941 17.311 C 9.048 17.29 9.119 17.176 9.128 17.068 C 9.149 16.822 8.975 16.617 8.889 16.401 C 8.79 16.152 8.739 15.883 8.743 15.616 C 8.573 15.814 8.491 16.08 8.487 16.342 Z " stroke-width="1"/>
          </g>
          <g id="ID0.4155685221776366">
            <path id="ID0.33384364657104015" fill="#090503" d="M 7.767 17.109 C 7.826 17.369 7.965 17.865 8.256 17.947 C 8.318 17.964 8.385 17.967 8.443 17.939 C 8.542 17.89 8.583 17.764 8.564 17.656 C 8.523 17.414 8.305 17.256 8.169 17.068 C 8.013 16.849 7.898 16.602 7.836 16.34 C 7.722 16.578 7.707 16.855 7.767 17.109 Z " stroke-width="1"/>
          </g>
          <g id="ID0.7560667893849313">
            <g id="ID0.002181372605264187">
              <path id="ID0.5337316426448524" fill="#090503" d="M 12.015 18.232 C 12.105 19.365 11.256 20.35 10.121 20.441 C 8.989 20.53 7.998 19.684 7.909 18.553 C 7.819 17.422 8.667 16.434 9.8 16.343 C 10.935 16.256 11.926 17.102 12.015 18.232 Z " stroke-width="1"/>
            </g>
          </g>
          <g id="ID0.5222407788969576">
            <g id="ID0.015577375888824463">
              <g id="ID0.7715895394794643">
                <path id="ID0.4467069571837783" fill="#FFFFFF" d="M 12.047 18.427 C 12.138 19.56 11.29 20.547 10.153 20.637 C 9.022 20.725 8.03 19.881 7.942 18.748 C 7.852 17.618 8.7 16.629 9.833 16.539 C 10.968 16.45 11.959 17.296 12.047 18.427 Z " stroke-width="1"/>
              </g>
            </g>
            <g id="ID0.9292834014631808">
              <path id="ID0.012225829530507326" fill="#090503" d="M 9.386 19.102 C 9.363 19.139 9.329 19.172 9.292 19.198 C 8.655 19.635 7.971 19.192 7.969 18.592 C 7.97 18.156 8.32 17.803 8.756 17.804 C 9.354 17.795 9.801 18.467 9.386 19.102 Z " stroke-width="1"/>
            </g>
          </g>
        </g>
        <g id="ID0.45449589658528566">
          <path id="ID0.8472734685055912" fill="#090503" d="M 16.255 16.02 C 16.22 16.285 16.174 16.797 16.418 16.977 C 16.47 17.014 16.532 17.041 16.595 17.037 C 16.705 17.027 16.787 16.924 16.81 16.815 C 16.857 16.574 16.708 16.348 16.648 16.126 C 16.578 15.867 16.558 15.595 16.591 15.328 C 16.399 15.506 16.29 15.76 16.255 16.02 Z " stroke-width="1"/>
        </g>
        <g id="ID0.8879108699038625">
          <path id="ID0.42679807217791677" fill="#090503" d="M 26.419 13.267 C 26.241 13.161 26.06 13.059 25.875 12.964 C 25.427 12.735 25.038 12.441 24.604 12.207 C 23.916 11.84 23.087 11.805 22.328 11.867 C 21.924 11.9 21.536 12.004 21.138 12.053 C 20.732 12.103 20.58 12.228 20.346 12.588 C 20.193 12.822 20.048 13.065 19.945 13.324 C 19.757 13.796 19.713 14.311 19.713 14.82 C 19.713 15.178 19.734 15.543 19.85 15.882 C 20.081 16.559 20.653 17.059 21.239 17.47 C 21.393 17.577 21.553 17.685 21.655 17.843 C 21.757 18.003 21.787 18.198 21.86 18.374 C 22.02 18.754 22.382 19.018 22.772 19.153 C 23.253 19.32 23.678 19.273 24.164 19.267 C 24.299 19.265 25.634 19.612 25.604 19.665 C 25.903 19.108 26.329 18.679 26.671 18.151 C 27.168 17.388 27.415 16.485 27.527 15.589 C 27.574 15.205 27.599 14.812 27.502 14.438 C 27.353 13.885 26.89 13.549 26.419 13.267 Z " stroke-width="1"/>
        </g>
        <g id="ID0.9846745883114636">
          <path id="ID0.02626296877861023" fill="#090503" d="M 10.937 9.579 C 12.07 9.529 13.146 9.631 14.267 9.764 C 14.762 9.823 15.24 9.777 15.742 9.904 C 16.394 10.068 16.941 10.18 17.594 10.266 C 18.309 10.36 19.056 10.833 19.538 11.351 C 20.111 11.965 20.742 13.254 20.125 14.004 C 19.443 14.831 19.369 16.186 19.695 17.166 C 18.488 16.555 17.492 15.605 16.515 14.669 C 15.474 13.67 14.404 12.633 13.836 11.307 C 14.153 12.545 14.819 13.673 15.622 14.67 C 16.424 15.666 17.362 16.541 18.299 17.414 C 16.534 17.443 14.754 17.18 13.114 16.527 C 11.475 15.874 9.979 14.823 8.899 13.426 C 9.282 14.311 9.938 15.053 10.657 15.697 C 11.376 16.341 12.163 16.905 12.887 17.542 C 12.723 17.396 12.387 17.323 12.184 17.24 C 11.934 17.136 11.684 17.04 11.434 16.937 C 10.94 16.737 10.448 16.528 9.983 16.264 C 9.522 16.003 9.17 15.674 8.774 15.333 C 8.299 14.922 7.746 14.591 7.261 14.184 C 6.964 13.934 6.667 13.665 6.492 13.32 C 6.23 12.803 6.279 12.165 6.539 11.647 C 7.254 10.236 9.483 9.643 10.937 9.579 Z " stroke-width="1"/>
        </g>
        <g id="ID0.14504296984523535">
          <path id="ID0.8308540107682347" fill="#935333" d="M 12.745 22.385 C 12.77 22.373 12.797 22.361 12.819 22.342 C 12.86 22.311 12.895 22.266 12.895 22.215 C 12.895 22.045 12.688 22.143 12.604 22.153 C 12.446 22.172 12.274 22.131 12.137 22.049 C 12.092 22.022 12.047 21.924 12.026 21.879 C 11.965 21.754 11.94 21.607 11.983 21.475 C 12.026 21.344 12.151 21.236 12.291 21.24 C 12.399 21.244 12.5 21.311 12.608 21.305 C 12.7 21.299 12.786 21.24 12.819 21.154 C 12.852 21.068 12.832 20.966 12.768 20.899 C 12.741 20.873 12.694 20.85 12.665 20.877 C 12.65 20.889 12.644 20.91 12.639 20.929 C 12.608 21.01 12.53 21.072 12.444 21.076 C 12.38 21.081 12.317 21.057 12.255 21.05 C 12.097 21.029 11.933 21.102 11.829 21.223 C 11.579 21.513 11.61 21.973 11.893 22.225 C 12.069 22.381 12.313 22.449 12.547 22.431 C 12.618 22.423 12.685 22.411 12.745 22.385 Z " stroke-width="1"/>
        </g>
        <g id="ID0.2625542734749615">
          <path id="ID0.7188217365182936" fill="#935333" d="M 15.569 23.118 C 15.563 23.094 15.551 23.07 15.534 23.051 C 15.483 22.992 15.391 22.979 15.315 22.998 C 15.239 23.019 15.17 23.064 15.104 23.105 C 13.991 23.811 12.43 23.986 11.141 23.885 C 12.393 24.463 13.811 24.367 15.038 23.762 C 15.24 23.66 15.445 23.529 15.541 23.324 C 15.571 23.26 15.587 23.184 15.569 23.118 Z " stroke-width="1"/>
        </g>
        <g id="ID0.553768954705447">
          <g id="ID0.7690600482746959">
            <path id="ID0.3418480227701366" fill="#E3A576" d="M 23.209 21.317 C 22.659 20.935 22.739 20.457 22.755 19.863 C 22.771 19.262 22.915 18.685 22.962 18.086 C 22.974 17.954 22.983 17.819 23.034 17.698 C 23.172 17.377 23.547 17.24 23.887 17.161 C 24.623 16.989 25.376 17.19 25.904 17.75 C 26.622 18.514 26.753 19.531 26.322 20.471 C 25.823 21.562 24.204 22.006 23.209 21.317 Z " stroke-width="1"/>
          </g>
          <g id="ID0.5186190051026642">
            <path id="ID0.46456345776095986" fill="#B66949" d="M 23.513 18.39 C 23.628 18.268 23.769 18.173 23.93 18.128 C 24.13 18.071 24.347 18.094 24.546 18.154 C 25.112 18.327 25.567 18.825 25.687 19.404 C 25.721 19.567 25.726 19.749 25.631 19.884 C 25.537 20.02 25.312 20.072 25.204 19.945 C 25.099 19.82 25.164 19.633 25.159 19.467 C 25.151 19.23 24.955 19.01 24.719 18.977 C 24.484 18.945 24.236 19.1 24.162 19.329 C 24.143 19.385 24.138 19.449 24.172 19.497 C 24.196 19.53 24.237 19.548 24.276 19.564 C 24.455 19.646 24.628 19.782 24.668 19.973 C 24.707 20.161 24.606 20.353 24.48 20.494 C 24.329 20.665 24.111 20.801 23.884 20.773 C 23.568 20.733 23.226 20.294 23.125 20.012 C 22.985 19.62 23.125 19.092 23.286 18.729 C 23.342 18.607 23.418 18.488 23.513 18.39 Z " stroke-width="1"/>
          </g>
        </g>
        <g id="ID0.12511343182995915">
          <g id="ID0.9171298425644636">
            <path id="ID0.782684245146811" fill="#AC9241" d="M 15.146 2.709 C 15.154 2.575 15.204 2.316 15.437 2.094 C 15.741 1.8 16.14 1.776 16.401 1.76 C 17.003 1.725 17.93 1.791 18.468 1.911 C 18.785 1.981 19.026 2.105 19.186 2.277 C 19.454 2.571 19.448 2.847 19.444 2.981 L 19.444 2.981 L 19.44 3.045 C 19.442 3.023 19.413 2.994 19.35 2.966 C 19.007 2.814 17.809 2.663 16.672 2.631 C 15.746 2.607 15.147 2.667 15.141 2.775 L 15.146 2.709 Z " stroke-width="1"/>
          </g>
          <g id="ID0.6907627028413117">
            <g id="ID0.0050704143941402435">
              <path id="ID0.6805462981574237" fill="#C0B565" d="M 27.155 12.524 C 27.08 11.273 26.998 10.488 26.998 10.484 C 26.948 10.095 26.878 9.566 26.68 8.878 C 26.572 8.502 26.492 8.306 26.361 7.982 C 26.29 7.804 26.187 7.604 26.087 7.412 C 25.9 7.049 25.57 6.572 25.373 6.342 C 25.076 5.994 24.797 5.666 24.134 5.154 C 24.03 5.074 23.462 4.645 22.526 4.139 C 22.214 3.971 21.569 3.645 20.743 3.351 C 19.873 3.04 19.168 2.902 18.903 2.848 C 18.364 2.744 17.504 2.659 16.674 2.635 C 16.288 2.624 15.958 2.628 15.705 2.645 C 15.09 2.692 13.22 2.83 11.008 3.869 C 10.758 3.986 9.996 4.346 9.35 4.861 C 8.983 5.152 8.772 5.361 8.614 5.526 C 8.266 5.889 8.004 6.263 8.001 6.266 C 7.942 6.35 7.764 6.607 7.657 6.797 C 7.512 7.055 7.364 7.32 7.227 7.649 C 6.993 8.207 6.813 8.714 6.634 9.531 C 6.606 9.658 6.58 9.785 6.553 9.912 C 6.528 10.027 6.504 10.143 6.481 10.26 C 6.407 10.623 6.296 11.203 6.295 11.209 C 6.389 10.702 9.283 10.414 13.727 10.535 C 19.244 10.686 25.057 11.414 26.712 12.158 C 27.005 12.288 27.147 12.412 27.155 12.524 Z " stroke-width="1"/>
            </g>
          </g>
          <g id="ID0.6218119249679148">
            <g id="ID0.11616244120523334">
              <path id="ID0.2467954116873443" fill="#C0B565" d="M 30.912 17.196 C 31.022 17.152 31.17 17.09 31.276 17.037 C 31.328 17.012 31.391 16.971 31.434 16.935 C 31.524 16.863 31.662 16.754 31.735 16.539 C 31.792 16.377 31.825 16.058 31.421 15.727 C 31.316 15.641 31.163 15.553 30.962 15.463 C 28.567 14.386 20.162 13.334 12.187 13.117 C 6.521 12.961 2.595 13.267 1.658 13.844 C 1.531 13.931 1.504 13.948 1.453 14 C 1.359 14.095 1.332 14.146 1.298 14.207 C 1.248 14.3 1.211 14.459 1.242 14.607 C 1.283 14.793 1.367 14.91 1.482 15.03 C 1.635 15.185 1.887 15.316 1.982 15.365 C -0.083 14.33 4.392 13.67 12.165 13.883 C 20.095 14.102 28.453 15.146 30.832 16.216 C 31.681 16.602 31.655 16.936 30.912 17.196 Z " stroke-width="1"/>
            </g>
          </g>
          <g id="ID0.5281860209070146">
            <path id="ID0.25457537081092596" fill="#AC9241" d="M 5.903 11.256 C 5.925 11.242 5.957 11.229 5.983 11.216 C 5.957 11.229 5.927 11.242 5.903 11.256 C 6.334 10.994 6.811 10.881 7.042 10.828 C 8.185 10.566 10.562 10.445 13.726 10.533 C 18.986 10.677 24.517 11.345 26.455 12.052 C 26.922 12.225 27.245 12.395 27.536 12.623 C 27.524 12.613 27.512 12.605 27.499 12.597 C 27.512 12.606 27.524 12.616 27.537 12.624 C 28.831 13.658 30.126 14.693 31.421 15.728 C 31.316 15.643 31.164 15.556 30.964 15.466 C 28.569 14.389 20.164 13.337 12.189 13.12 C 6.527 12.964 2.605 13.269 1.662 13.846 C 3.075 12.982 4.489 12.119 5.903 11.256 Z M 27.306 12.482 C 27.275 12.464 27.24 12.45 27.204 12.432 C 27.241 12.45 27.274 12.466 27.306 12.482 Z M 27.472 12.577 C 27.457 12.566 27.441 12.556 27.423 12.547 C 27.44 12.558 27.457 12.566 27.472 12.577 Z M 27.396 12.529 C 27.376 12.518 27.357 12.508 27.335 12.498 C 27.356 12.508 27.377 12.52 27.396 12.529 Z " stroke-width="1"/>
          </g>
        </g>
        <g id="ID0.6221673409454525">
          <path id="ID0.5845712381415069" fill="#AC9241" d="M 18.012 2.928 C 18.142 3.492 18.308 4.065 18.37 4.629 C 18.446 5.311 18.479 5.996 18.47 6.682 C 18.452 8.027 18.277 9.373 17.917 10.67 C 17.926 10.602 17.935 10.533 17.942 10.465 C 18.1 9.179 18.22 7.885 18.223 6.588 C 18.225 5.942 18.196 5.296 18.125 4.654 C 18.055 4.006 18.023 3.35 17.96 2.695 C 17.976 2.773 17.993 2.851 18.012 2.928 Z " stroke-width="1"/>
        </g>
        <g id="ID0.5429864493198693">
          <path id="ID0.6618712437339127" fill="#AC9241" d="M 25.666 11.568 C 25.642 11.141 25.769 10.672 25.778 10.239 C 25.788 9.771 25.766 9.301 25.696 8.838 C 25.561 7.919 25.239 7.028 24.67 6.287 C 23.494 4.757 21.503 3.756 19.644 3.371 C 20.306 3.508 20.806 3.892 21.404 4.172 C 21.879 4.393 22.34 4.588 22.783 4.885 C 23.691 5.492 24.488 6.293 24.949 7.295 C 25.556 8.623 25.582 10.137 25.666 11.568 Z " stroke-width="1"/>
        </g>
        <g id="ID0.045477925799787045">
          <path id="ID0.9513682438991964" fill="#AC9241" d="M 12.581 4.403 C 12.841 4.132 13.136 3.898 13.436 3.674 C 13.752 3.442 14.08 3.219 14.436 3.053 C 14.852 2.859 15.313 2.745 15.772 2.777 C 15.278 2.922 14.807 3.176 14.343 3.389 C 13.531 3.763 12.869 4.402 12.328 5.111 C 11.197 6.594 11.394 8.551 11.014 10.288 C 10.915 8.314 11.146 5.9 12.581 4.403 Z " stroke-width="1"/>
        </g>
      </g>
    </g>
  </g>
</svg>