<svg xmlns="http://www.w3.org/2000/svg" xmlns:xlink="http://www.w3.org/1999/xlink" version="1.1" width="55.684082004425505" height="56.03419491946457" viewBox="3.9258084431302667 4.24638272673012 55.684082004425505 56.03419491946457">
  <defs>
    <radialGradient id="grad_1" cx="-1241.3926" cy="458.5312" r="0.4998" gradientUnits="userSpaceOnUse">
      <stop offset="0" stop-color="#929292"/>
      <stop offset="0.7999" stop-color="#929292"/>
      <stop offset="1" stop-color="#929292"/>
    </radialGradient>
  <radialGradient id="grad_1-.15526207109177648,-0.9878732892589497,0.9878732892589497,0.15526207109177648,-9.87247226536274,63.22616668045521" cx="250.3571" cy="1360.7573" r="0.4998" gradientUnits="userSpaceOnUse">
      <stop offset="0" stop-color="#929292"/>
      <stop offset="0.7999" stop-color="#929292"/>
      <stop offset="1" stop-color="#929292"/>
    </radialGradient></defs>
  <!-- Exported by Scratch - http://scratch.mit.edu/ -->
  <g id="pierre_ronde">
    <g id="ID0.2773045846261084">
      <path id="ID0.8582379361614585" d="M 5.7002 29.4393 C 5.8888 28.239 6.175 27.0622 6.5611 25.9263 C 6.7506 25.371 6.9638 24.8195 7.0723 24.2453 C 7.0831 24.1893 7.0921 24.132 7.1006 24.0777 C 7.1998 23.4465 7.1936 22.8037 7.276 22.1698 C 7.2822 22.1171 7.2906 22.0638 7.2988 22.0114 C 7.4341 21.151 7.7422 20.3177 8.1988 19.5766 C 8.3745 19.2894 8.5781 19.0117 8.8617 18.8305 C 9.0866 18.6877 9.355 18.6155 9.5786 18.4684 C 10.0523 18.1531 10.2519 17.5721 10.4963 17.0608 C 10.9147 16.1761 11.5511 15.3924 12.3328 14.7985 C 12.6113 14.5852 12.9176 14.3884 13.0986 14.0868 C 13.6477 13.1689 13.8115 12.5974 14.6558 11.8818 C 15.9308 10.8027 17.2986 9.9963 18.7371 9.1585 C 19.331 8.8125 19.9419 8.4621 20.6203 8.3511 C 20.9672 8.2953 21.3255 8.302 21.6667 8.2048 C 22.0445 8.0941 22.3749 7.8596 22.6967 7.6287 C 23.2813 7.2064 23.867 6.7842 24.4512 6.3648 C 24.6783 6.2011 24.9121 6.0343 25.18 5.9529 C 25.5118 5.8512 25.8679 5.891 26.215 5.9243 C 26.562 5.9576 26.909 5.9716 27.259 5.9801 L 27.3912 5.9826 C 27.7458 5.9867 28.1006 5.9838 28.458 5.9701 C 31.3151 5.8776 34.2109 5.3579 36.9431 6.3684 C 37.5705 6.6016 38.1755 6.9001 38.8239 7.0638 C 39.4094 7.2095 40.0215 7.2439 40.5912 7.4448 C 41.166 7.6455 41.6801 8.0138 42.2769 8.139 C 43.1356 8.3235 44.0701 7.9875 44.8908 8.2987 C 46.3839 8.8654 47.9904 10.5594 48.8421 11.8898 C 49.4864 12.898 49.9687 13.7391 51.0041 14.242 C 51.0766 14.2767 51.1513 14.3107 51.2293 14.3422 C 51.3589 14.3939 51.4876 14.4445 51.6328 14.4866 C 51.8585 14.5514 52.1026 14.608 52.2704 14.7771 C 52.409 14.9193 52.4684 15.121 52.5299 15.3098 C 53.1474 17.2158 54.5301 18.7622 55.542 20.4903 C 56.7291 22.5213 57.4178 24.8697 57.3229 27.2194 C 57.2945 27.9347 57.1931 28.6506 57.2196 29.3644 C 57.271 30.6793 57.7506 31.937 57.977 33.2339 C 58.148 34.2194 58.168 35.2389 58.0127 36.2268 C 57.8978 36.9578 57.6851 37.6734 57.3713 38.3438 C 57.1158 38.8807 56.7952 39.3941 56.5923 39.9574 C 56.3735 40.5699 56.302 41.2247 56.1586 41.8602 C 55.6632 44.0458 54.3163 45.9305 52.9991 47.748 C 52.3287 48.6711 51.6538 49.6027 50.8005 50.3624 C 50.3286 50.7822 49.803 51.1511 49.4051 51.6412 C 49.3326 51.729 49.2682 51.8232 49.201 51.9159 C 49.0523 52.1274 48.9062 52.3423 48.7292 52.528 C 48.4707 52.7941 48.1503 52.9908 47.8342 53.1861 C 45.4222 54.6594 43.3686 56.3319 40.5737 57.0851 C 40.1141 57.2082 39.6371 57.2739 39.1988 57.4602 C 38.8112 57.627 38.4706 57.8812 38.1053 58.0931 C 37.4309 58.481 36.664 58.7168 35.8849 58.7725 C 35.0396 58.831 34.1943 58.683 33.3494 58.6231 C 32.2563 58.5444 31.162 58.6154 30.0681 58.6388 C 28.0458 58.6823 25.9685 58.5543 24.1163 57.7347 C 23.1595 57.311 22.2841 56.7108 21.3017 56.353 C 20.8758 56.197 20.4297 56.0853 20.0266 55.8742 C 19.4803 55.5889 19.0474 55.1352 18.6038 54.7051 C 16.9419 53.0875 15.0786 51.8613 13.0862 50.7039 C 11.4696 49.7635 10.2137 47.655 9.2409 46.0839 C 8.3149 44.588 7.547 42.9944 6.9328 41.344 C 6.8276 41.0603 6.7147 40.7803 6.6209 40.4943 C 5.4592 37.0137 5.1196 33.1269 5.7002 29.4393 M 4.7113 29.2839 L 5.7002 29.4393 L 4.7113 29.2839 C 4.1161 33.0714 4.4587 37.1642 5.6723 40.8109 C 5.7445 41.0338 5.8296 41.2526 5.9124 41.4732 L 5.9941 41.6935 C 6.6417 43.4342 7.4495 45.0897 8.391 46.6093 L 8.525 46.8257 C 9.55 48.484 10.8236 50.5437 12.5832 51.5663 C 14.2565 52.5389 16.1977 53.7581 17.9065 55.4195 L 18.0383 55.5465 C 18.4611 55.9612 18.9389 56.4311 19.5599 56.7564 C 19.9107 56.9401 20.2687 57.0582 20.5843 57.1624 C 20.7087 57.2022 20.8338 57.2431 20.9564 57.2877 C 21.4533 57.4691 21.9369 57.7283 22.4498 58.0073 C 22.852 58.2244 23.2679 58.4507 23.7101 58.6447 C 25.8633 59.5976 28.2503 59.6741 30.087 59.6328 C 30.3541 59.6272 30.6196 59.6193 30.8891 59.6111 C 31.7152 59.585 32.4987 59.5593 33.2755 59.6146 C 33.5177 59.6324 33.7588 59.6572 34.0027 59.6833 C 34.6275 59.7461 35.274 59.8123 35.9518 59.7639 C 36.8792 59.6982 37.7967 59.4192 38.5996 58.9542 C 38.7343 58.8762 38.8666 58.7948 38.9983 58.7102 C 39.2085 58.5772 39.403 58.4539 39.5877 58.3736 C 39.7982 58.2842 40.0607 58.2242 40.3384 58.1636 C 40.5012 58.1264 40.6661 58.0886 40.8284 58.0473 C 43.1203 57.4286 44.9488 56.235 46.7169 55.0775 C 47.2481 54.7318 47.795 54.3754 48.3495 54.0354 C 48.6991 53.8211 49.0953 53.5797 49.4437 53.2184 C 49.6544 52.9984 49.815 52.7686 49.9583 52.5653 L 50.0115 52.4907 C 50.0638 52.4159 50.1186 52.3375 50.1785 52.2659 C 50.3948 51.9972 50.6906 51.7512 51.003 51.4895 C 51.1571 51.3659 51.3112 51.2353 51.4606 51.1028 C 52.3974 50.2692 53.1123 49.2822 53.8037 48.329 C 55.1054 46.5323 56.5791 44.4985 57.1278 42.0763 C 57.1788 41.8545 57.2192 41.6301 57.2617 41.4049 C 57.3369 41.0037 57.4065 40.625 57.5264 40.2875 C 57.6346 39.9917 57.79 39.6922 57.9574 39.3743 C 58.0632 39.1713 58.17 38.9684 58.2667 38.765 C 58.6148 38.025 58.8583 37.2231 58.9915 36.3755 C 59.1614 35.2948 59.1482 34.1802 58.9534 33.0564 C 58.8628 32.538 58.7369 32.0313 58.6167 31.5468 C 58.4224 30.7732 58.2417 30.0423 58.2135 29.3202 C 58.1978 28.9178 58.2299 28.5008 58.264 28.0587 C 58.2848 27.7907 58.3046 27.5235 58.3165 27.2541 C 58.4175 24.8081 57.754 22.2926 56.3998 19.9793 C 56.0505 19.3808 55.6625 18.8096 55.2868 18.2566 C 54.5469 17.1675 53.8482 16.1386 53.4772 14.9951 L 53.4652 14.9618 C 53.3899 14.7263 53.2765 14.3724 52.9807 14.0708 C 52.6466 13.7298 52.2416 13.6145 51.975 13.5392 L 51.9091 13.5207 C 51.8125 13.4914 51.7189 13.4554 51.6036 13.41 C 51.5544 13.3881 51.4962 13.3657 51.438 13.3364 C 50.7307 12.9934 50.3458 12.3893 49.8149 11.5548 L 49.6811 11.3434 C 48.7136 9.8288 46.9657 8.0104 45.2424 7.3559 C 44.5892 7.1065 43.9541 7.1413 43.3946 7.1718 C 43.0545 7.1912 42.7339 7.2086 42.4815 7.1528 C 42.2502 7.1043 41.9889 6.9762 41.7115 6.8414 C 41.4763 6.7275 41.2087 6.5944 40.917 6.4929 C 40.4967 6.3458 40.0768 6.2738 39.7053 6.2093 C 39.4784 6.1716 39.2624 6.1356 39.0648 6.0853 C 38.6985 5.9944 38.3278 5.8409 37.934 5.6799 C 37.718 5.5923 37.5051 5.5041 37.2859 5.4241 C 34.9469 4.5585 32.56 4.7127 30.2525 4.8643 C 29.647 4.9038 29.0251 4.9447 28.4208 4.9641 C 28.0727 4.9762 27.7299 4.9801 27.4006 4.9759 L 27.3381 4.9742 L 27.2766 4.9726 C 26.9012 4.9652 26.5921 4.948 26.3025 4.9227 L 26.2617 4.9184 C 25.8739 4.8807 25.3927 4.8375 24.8861 4.9886 C 24.4567 5.1185 24.127 5.3552 23.8619 5.5474 L 22.9833 6.1786 L 22.1043 6.8118 C 21.8546 6.9902 21.5997 7.1759 21.3824 7.2379 C 21.2645 7.273 21.0991 7.2885 20.9238 7.3025 C 20.7811 7.3155 20.6209 7.3298 20.4543 7.3593 C 19.586 7.4992 18.8652 7.9183 18.229 8.289 C 16.901 9.0612 15.3937 9.9368 14.0044 11.1124 C 13.2248 11.7703 12.9051 12.3548 12.5686 12.976 C 12.4695 13.1558 12.362 13.3505 12.2346 13.5684 C 12.1837 13.6535 12.0107 13.7822 11.8573 13.8948 L 11.7217 13.9979 C 10.8149 14.6855 10.0766 15.5959 9.5877 16.6265 C 9.5477 16.7133 9.5064 16.802 9.4683 16.8902 C 9.3252 17.2017 9.1805 17.5231 9.0245 17.6272 C 8.9782 17.6574 8.8887 17.699 8.8017 17.7369 C 8.6648 17.7964 8.4959 17.8731 8.322 17.9814 C 7.8491 18.2786 7.5497 18.7083 7.3406 19.047 C 6.8194 19.8963 6.4614 20.8665 6.3068 21.8504 C 6.2972 21.9117 6.2877 21.972 6.2799 22.0345 C 6.2372 22.3578 6.2166 22.6754 6.1961 22.98 C 6.1755 23.3108 6.1549 23.6223 6.1086 23.9167 C 6.1016 23.9612 6.0946 24.0056 6.0853 24.0518 C 6.0101 24.4469 5.8685 24.8518 5.7191 25.2808 C 5.6824 25.3854 5.6453 25.4929 5.6096 25.5976 C 5.215 26.7746 4.9118 28.0146 4.7113 29.2839 " stroke-width="0.9999999731755018" fill="undefined"/>
      <path id="ID0.7327934480272233" fill="#878787" d="M 38.7057 56.1537 C 38.9937 56.0664 39.2552 55.9101 39.5422 55.8165 C 40.112 55.6368 40.7294 55.7339 41.3261 55.6798 C 41.923 55.6238 42.5843 55.3259 42.7222 54.7443 C 41.7551 55.0367 40.6908 55.329 39.7595 54.9366 C 39.5573 54.8512 39.3658 54.736 39.1525 54.6894 C 38.4752 54.5353 38.0114 55.0516 37.4068 55.2076 C 37.1631 55.2705 36.2891 55.0218 36.2197 55.3733 C 36.1996 55.4754 36.2879 55.5642 36.3705 55.6248 C 37.0048 56.1041 37.9199 56.3876 38.7057 56.1537 Z " stroke-width="0.9999999731755018"/>
      <path id="ID0.19872760865837336" fill="#878787" d="M 15.3781 49.9881 C 14.6083 49.2759 14.0711 48.411 13.3158 47.6971 C 13.2081 47.751 13.2347 47.9101 13.2813 48.0197 C 13.6932 49.0248 14.2372 49.8148 15.3781 49.9881 Z " stroke-width="0.9999999731755018"/>
      <path id="ID0.6473417826928198" fill="#706F6F" d="M 32.8485 55.4205 C 32.6432 55.4064 31.9498 55.9412 31.6627 56.0095 C 31.187 56.125 30.6885 56.1277 30.2039 56.0748 C 29.2196 55.9677 28.4511 55.4015 27.467 55.2549 C 27.0149 55.1879 26.5623 55.3304 26.1339 55.2863 C 25.2487 55.1927 24.1446 54.3987 23.4009 53.9396 C 23.1388 53.778 22.8606 53.5834 22.7726 53.2872 C 23.5818 53.5804 24.5329 54.1115 25.3986 54.117 C 26.2241 54.1202 27.0135 53.9021 27.8163 54.256 C 28.2037 54.4252 28.5317 54.7086 28.9162 54.8834 C 29.3341 55.0777 29.8009 55.1348 30.2586 55.1855 C 31.1211 55.2816 31.9845 55.3596 32.8485 55.4205 " stroke-width="0.9999999731755018"/>
      <path id="ID0.39996868278831244" fill="#686867" d="M 48.8402 11.8895 C 49.6024 13.0813 50.132 14.0523 51.6297 14.4871 C 51.8563 14.5521 52.1015 14.6088 52.2683 14.7778 C 52.4079 14.9202 52.4663 15.1217 52.5287 15.3106 C 53.1453 17.2165 54.5279 18.7629 55.5409 20.4912 C 56.7273 22.52 57.4157 24.8703 57.3217 27.2202 C 57.2923 27.9354 57.1922 28.6495 57.2184 29.3652 C 57.2689 30.68 57.7494 31.9379 57.9752 33.2326 C 58.2732 34.9497 58.1119 36.7677 57.368 38.3453 C 57.1132 38.8843 56.7929 39.3958 56.59 39.9591 C 56.3712 40.5716 56.3007 41.2266 56.1563 41.8619 C 55.6606 44.0494 54.314 45.9322 52.9968 47.7497 C 52.3261 48.6748 51.6513 49.6063 50.7973 50.3639 C 50.3273 50.784 49.8007 51.1527 49.4028 51.6429 C 49.169 51.9321 48.9847 52.2615 48.7272 52.5277 C 48.4694 52.796 48.148 52.9924 47.8322 53.1858 C 45.4212 54.6593 43.3663 56.3335 40.5726 57.0859 C 40.1122 57.2069 39.6362 57.2728 39.1967 57.4608 C 38.8104 57.6259 38.4685 57.8819 38.1032 58.0937 C 37.4288 58.4817 36.6628 58.7177 35.8831 58.7712 C 35.0384 58.8318 34.1922 58.6836 33.3465 58.6216 C 32.2542 58.5451 31.1599 58.616 30.066 58.6395 C 28.0437 58.683 25.9664 58.5549 24.1142 57.7354 C 23.1583 57.3119 22.2819 56.7115 21.2996 56.3537 C 20.8739 56.1957 20.4276 56.086 20.0245 55.8749 C 19.4791 55.5898 19.0443 55.1357 18.6017 54.7058 C 16.9407 53.0883 15.0765 51.862 13.085 50.7048 C 11.4674 49.7642 10.2116 47.6556 9.2387 46.0845 C 8.1529 44.3307 7.2709 42.452 6.6188 40.495 C 5.0826 35.8805 4.9843 30.5547 6.5601 25.9262 C 6.7496 25.3709 6.9628 24.8193 7.0703 24.245 C 7.2009 23.562 7.1829 22.8587 7.275 22.1696 C 7.3977 21.2536 7.712 20.3616 8.1968 19.5763 C 8.3725 19.2891 8.5761 19.0114 8.8597 18.8302 C 9.0856 18.6875 9.3541 18.6153 9.5766 18.4681 C 10.0513 18.153 10.2509 17.5719 10.4943 17.0605 C 10.9127 16.1758 11.5491 15.3921 12.331 14.7972 C 12.6091 14.5859 12.9157 14.3871 13.0964 14.0875 C 13.6456 13.1696 13.8083 12.5979 14.6527 11.8824 C 15.929 10.8014 17.2955 9.9968 18.735 9.1592 C 19.3289 8.8132 19.9397 8.4628 20.6172 8.3516 C 20.9641 8.2958 21.3234 8.3027 21.6639 8.2033 C 22.0424 8.0948 22.3718 7.8601 22.6939 7.6273 C 23.2792 7.207 23.8639 6.7847 24.4494 6.3635 C 24.6755 6.1996 24.909 6.0349 25.1771 5.9515 C 25.5087 5.8518 25.8658 5.8917 26.2121 5.9228 C 29.7745 6.257 33.4885 5.0915 36.94 6.3689 C 37.5664 6.602 38.1724 6.9007 38.8211 7.0624 C 39.4063 7.21 40.0184 7.2445 40.5881 7.4453 C 41.1629 7.646 41.677 8.0143 42.2734 8.1415 C 43.1325 8.3241 44.067 7.9881 44.8877 8.2993 C 46.3849 8.8656 47.9894 10.5592 48.8402 11.8895 " stroke-width="0.9999999731755018"/>
      <path id="ID0.501052432693541" fill="url(#grad_1-.15526207109177648,-0.9878732892589497,0.9878732892589497,0.15526207109177648,-9.87247226536274,63.22616668045521)" d="M 48.8402 11.8895 C 49.6024 13.0813 50.132 14.0523 51.6297 14.4871 C 51.8563 14.5521 52.1015 14.6088 52.2683 14.7778 C 52.4079 14.9202 52.4663 15.1217 52.5287 15.3106 C 53.1453 17.2165 54.5279 18.7629 55.5409 20.4912 C 56.7273 22.52 57.4157 24.8703 57.3217 27.2202 C 57.2923 27.9354 57.1922 28.6495 57.2184 29.3652 C 57.2689 30.68 57.7494 31.9379 57.9752 33.2326 C 58.2732 34.9497 58.1119 36.7677 57.368 38.3453 C 57.1132 38.8843 56.7929 39.3958 56.59 39.9591 C 56.3712 40.5716 56.3007 41.2266 56.1563 41.8619 C 55.6606 44.0494 54.314 45.9322 52.9968 47.7497 C 52.3261 48.6748 51.6513 49.6063 50.7973 50.3639 C 50.3273 50.784 49.8007 51.1527 49.4028 51.6429 C 49.169 51.9321 48.9847 52.2615 48.7272 52.5277 C 48.4694 52.796 48.148 52.9924 47.8322 53.1858 C 45.4212 54.6593 43.3663 56.3335 40.5726 57.0859 C 40.1122 57.2069 39.6362 57.2728 39.1967 57.4608 C 38.8104 57.6259 38.4685 57.8819 38.1032 58.0937 C 37.4288 58.4817 36.6628 58.7177 35.8831 58.7712 C 35.0384 58.8318 34.1922 58.6836 33.3465 58.6216 C 32.2542 58.5451 31.1599 58.616 30.066 58.6395 C 28.0437 58.683 25.9664 58.5549 24.1142 57.7354 C 23.1583 57.3119 22.2819 56.7115 21.2996 56.3537 C 20.8739 56.1957 20.4276 56.086 20.0245 55.8749 C 19.4791 55.5898 19.0443 55.1357 18.6017 54.7058 C 16.9407 53.0883 15.0765 51.862 13.085 50.7048 C 11.4674 49.7642 10.2116 47.6556 9.2387 46.0845 C 8.1529 44.3307 7.2709 42.452 6.6188 40.495 C 5.0826 35.8805 4.9843 30.5547 6.5601 25.9262 C 6.7496 25.3709 6.9628 24.8193 7.0703 24.245 C 7.2009 23.562 7.1829 22.8587 7.275 22.1696 C 7.3977 21.2536 7.712 20.3616 8.1968 19.5763 C 8.3725 19.2891 8.5761 19.0114 8.8597 18.8302 C 9.0856 18.6875 9.3541 18.6153 9.5766 18.4681 C 10.0513 18.153 10.2509 17.5719 10.4943 17.0605 C 10.9127 16.1758 11.5491 15.3921 12.331 14.7972 C 12.6091 14.5859 12.9157 14.3871 13.0964 14.0875 C 13.6456 13.1696 13.8083 12.5979 14.6527 11.8824 C 15.929 10.8014 17.2955 9.9968 18.735 9.1592 C 19.3289 8.8132 19.9397 8.4628 20.6172 8.3516 C 20.9641 8.2958 21.3234 8.3027 21.6639 8.2033 C 22.0424 8.0948 22.3718 7.8601 22.6939 7.6273 C 23.2792 7.207 23.8639 6.7847 24.4494 6.3635 C 24.6755 6.1996 24.909 6.0349 25.1771 5.9515 C 25.5087 5.8518 25.8658 5.8917 26.2121 5.9228 C 29.7745 6.257 33.4885 5.0915 36.94 6.3689 C 37.5664 6.602 38.1724 6.9007 38.8211 7.0624 C 39.4063 7.21 40.0184 7.2445 40.5881 7.4453 C 41.1629 7.646 41.677 8.0143 42.2734 8.1415 C 43.1325 8.3241 44.067 7.9881 44.8877 8.2993 C 46.3849 8.8656 47.9894 10.5592 48.8402 11.8895 " stroke-width="0.9999999731755018"/>
      <path id="ID0.7686593476682901" fill="#5A5A59" d="M 48.8402 11.8895 C 49.6024 13.0813 50.132 14.0523 51.6297 14.4871 C 51.8563 14.5521 52.1015 14.6088 52.2683 14.7778 C 52.4079 14.9202 52.4663 15.1217 52.5287 15.3106 C 53.1453 17.2165 54.5279 18.7629 55.5409 20.4912 C 56.7273 22.52 57.4157 24.8703 57.3217 27.2202 C 57.2923 27.9354 57.1922 28.6495 57.2184 29.3652 C 57.2689 30.68 57.7494 31.9379 57.9752 33.2326 C 58.2732 34.9497 58.1119 36.7677 57.368 38.3453 C 57.1132 38.8843 56.7929 39.3958 56.59 39.9591 C 56.3712 40.5716 56.3007 41.2266 56.1563 41.8619 C 55.6606 44.0494 54.314 45.9322 52.9968 47.7497 C 52.3261 48.6748 51.6513 49.6063 50.7973 50.3639 C 50.3273 50.784 49.8007 51.1527 49.4028 51.6429 C 49.169 51.9321 48.9847 52.2615 48.7272 52.5277 C 48.4694 52.796 48.148 52.9924 47.8322 53.1858 C 45.4212 54.6593 43.3663 56.3335 40.5726 57.0859 C 40.1122 57.2069 39.6362 57.2728 39.1967 57.4608 C 38.8104 57.6259 38.4685 57.8819 38.1032 58.0937 C 37.4288 58.4817 36.6628 58.7177 35.8831 58.7712 C 35.0384 58.8318 34.1922 58.6836 33.3465 58.6216 C 32.2542 58.5451 31.1599 58.616 30.066 58.6395 C 28.0437 58.683 25.9664 58.5549 24.1142 57.7354 C 23.1583 57.3119 22.2819 56.7115 21.2996 56.3537 C 20.8739 56.1957 20.4276 56.086 20.0245 55.8749 C 19.4791 55.5898 19.0443 55.1357 18.6017 54.7058 C 16.9407 53.0883 15.0765 51.862 13.085 50.7048 C 11.4674 49.7642 10.2116 47.6556 9.2387 46.0845 C 8.1529 44.3307 7.2709 42.452 6.6188 40.495 C 5.0826 35.8805 4.9843 30.5547 6.5601 25.9262 C 6.7496 25.3709 6.9628 24.8193 7.0703 24.245 C 7.2009 23.562 7.1829 22.8587 7.275 22.1696 C 7.3977 21.2536 7.712 20.3616 8.1968 19.5763 C 8.3725 19.2891 8.5761 19.0114 8.8597 18.8302 C 9.0856 18.6875 9.3541 18.6153 9.5766 18.4681 C 10.0513 18.153 10.2509 17.5719 10.4943 17.0605 C 10.9127 16.1758 11.5491 15.3921 12.331 14.7972 C 12.6091 14.5859 12.9157 14.3871 13.0964 14.0875 C 13.6456 13.1696 13.8083 12.5979 14.6527 11.8824 C 15.929 10.8014 17.2955 9.9968 18.735 9.1592 C 19.3289 8.8132 19.9397 8.4628 20.6172 8.3516 C 20.9641 8.2958 21.3234 8.3027 21.6639 8.2033 C 22.0424 8.0948 22.3718 7.8601 22.6939 7.6273 C 23.2792 7.207 23.8639 6.7847 24.4494 6.3635 C 24.6755 6.1996 24.909 6.0349 25.1771 5.9515 C 25.5087 5.8518 25.8658 5.8917 26.2121 5.9228 C 29.7745 6.257 33.4885 5.0915 36.94 6.3689 C 37.5664 6.602 38.1724 6.9007 38.8211 7.0624 C 39.4063 7.21 40.0184 7.2445 40.5881 7.4453 C 41.1629 7.646 41.677 8.0143 42.2734 8.1415 C 43.1325 8.3241 44.067 7.9881 44.8877 8.2993 C 46.3849 8.8656 47.9894 10.5592 48.8402 11.8895 " stroke-width="0.9999999731755018"/>
      <path id="ID0.7516578380018473" fill="#949494" d="M 7.985 29.9472 C 7.9551 30.0478 7.9292 30.148 7.9022 30.249 C 7.4735 31.9329 7.5183 33.6962 7.5763 35.4333 C 7.6006 36.1548 7.6476 36.9376 8.1059 37.4935 C 8.6841 36.7836 8.6441 35.8268 8.606 34.8652 C 8.5684 33.9321 8.5324 32.9952 9.0639 32.28 C 9.4093 32.2594 9.5647 32.7008 9.606 33.0434 C 9.7564 34.2119 10.0897 35.4983 10.0212 36.6749 C 9.977 37.413 9.7869 38.0816 9.8256 38.8469 C 9.8454 39.2812 9.7657 40.5098 10.1104 40.8413 C 10.2995 41.0229 11.1183 41.1202 10.8739 40.5756 C 11.3707 41.6781 11.7134 42.886 12.1154 44.0313 C 12.24 44.3849 12.3277 44.8573 12.015 45.0632 C 11.3126 44.3475 10.6659 43.5798 10.0766 42.7694 C 10.4234 44.1824 10.7864 45.6212 11.5617 46.8525 C 12.2197 47.8953 13.1424 48.7358 14.0537 49.5653 C 15.0261 50.45 15.996 51.3313 16.9665 52.2157 C 17.3172 51.955 17.3432 51.4165 17.1549 51.0235 C 16.9666 50.6305 16.6172 50.3418 16.292 50.0538 C 15.2513 49.127 14.3499 48.0479 13.6214 46.8604 C 14.0993 47.8709 15.4437 48.0184 16.4151 48.575 C 17.0998 48.965 17.6208 49.5854 18.1228 50.1917 C 19.5182 51.8697 20.7048 53.852 22.2887 55.348 C 24.8465 57.7645 28.6101 58.3449 32.1276 58.4938 C 30.4098 58.2299 28.7583 57.5432 27.3607 56.5106 C 29.2088 56.6928 31.0624 56.8728 32.9102 57.0569 C 33.4804 57.1131 34.0588 57.1686 34.622 57.0627 C 35.3455 56.9294 35.9958 56.5407 36.6955 56.3136 C 38.2248 55.8129 39.9025 56.0878 41.4771 55.7623 C 44.9526 55.0452 47.169 51.6603 50.262 49.9184 C 48.4852 50.6281 46.9529 51.85 45.1871 52.5868 C 43.4216 53.3216 41.1828 53.4678 39.7746 52.1734 C 40.9014 51.6511 42.1891 51.6439 43.4085 51.4084 C 46.3215 50.8499 48.8794 48.951 50.5812 46.5218 C 52.283 44.0925 53.1817 41.1696 53.5393 38.2244 C 53.6522 39.5288 53.7662 40.8323 53.8792 42.1356 C 53.9494 39.8792 55.71 38.0159 56.1863 35.8101 C 56.6753 33.5425 55.7673 31.2427 55.1361 29.0116 C 54.3895 26.3676 54.0196 23.627 53.2421 20.9933 C 52.4657 18.3588 51.2143 15.758 49.0825 14.025 C 50.5476 15.3819 51.2129 17.5444 50.7602 19.4908 C 48.8862 16.047 46.6051 12.3014 42.8241 11.2719 C 41.5102 10.9176 40.1234 10.9305 38.8046 10.6068 C 37.6281 10.3186 36.5262 9.7679 35.3433 9.501 C 30.3438 8.373 25.348 12.4711 20.2873 11.6484 C 23.1825 11.9829 25.5495 8.4324 28.4118 8.9825 C 26.7745 8.5277 25.0364 8.9207 23.3865 9.3132 C 21.965 9.6496 20.5247 9.9962 19.2511 10.7061 C 17.9749 11.4125 16.8605 12.5452 16.5055 13.9602 C 18.3201 13.963 20.1356 13.7857 21.9157 13.4288 C 21.3059 14.8159 19.5483 15.146 18.1055 15.6056 C 12.6161 17.3565 11.1378 22.5692 9.0295 27.3013 C 8.6373 28.1608 8.2489 29.0351 7.985 29.9472 " stroke-width="0.9999999731755018"/>
      <path id="ID0.06086314516142011" fill="#B0B0B0" d="M 31.3053 50.9729 C 30.8245 51.3144 30.3312 51.658 29.8089 51.8765 C 29.2808 52.1003 28.7329 52.2946 28.1606 52.323 C 27.6027 52.3497 27.0524 52.2116 26.5073 52.0865 C 25.3026 51.8101 24.085 51.5833 22.8618 51.4052 C 24.117 51.9527 25.3003 52.6621 26.5701 53.1744 C 27.1145 53.3946 27.6847 53.5794 28.271 53.5784 C 28.8237 53.5782 29.3618 53.4138 29.9037 53.3086 C 31.1323 53.0725 32.4799 53.1224 33.5197 52.4253 C 33.92 52.1583 34.2464 51.7945 34.6254 51.4958 C 35.4659 50.8373 36.7591 50.6275 37.7505 50.2772 C 38.7052 49.9413 39.7246 49.7098 40.6601 49.3801 C 41.6542 49.0322 42.205 48.4193 43.037 47.7503 C 43.7592 47.1674 44.6014 46.7491 45.328 46.1709 C 45.7303 45.8525 46.2272 45.4406 46.429 44.9682 C 46.663 44.4199 46.7618 43.9526 47.2469 43.5389 C 47.5614 43.2705 47.9557 43.0672 48.1511 42.7001 C 48.2573 42.5012 48.293 42.274 48.3262 42.0494 C 48.5149 40.8036 48.7038 39.5568 48.7787 38.3012 C 47.8513 39.1971 46.9206 40.0955 45.9929 40.9933 C 45.7212 41.2533 45.4522 41.5157 45.2195 41.8112 C 45.0133 42.0733 44.8339 42.365 44.5774 42.5798 C 43.6939 43.3125 42.2947 42.8699 41.2799 43.4079 L 41.1607 43.4509 C 41.0212 43.4563 40.9674 43.2707 40.9754 43.1292 C 41.015 42.2396 41.6215 41.4016 42.4536 41.0859 C 43.0804 40.8463 43.8103 40.8781 44.3707 40.5136 C 44.5694 40.3829 44.734 40.2114 44.8856 40.0267 C 45.3566 39.4579 45.7001 38.7861 45.8888 38.0748 C 46.112 37.2342 46.1158 36.3531 46.119 35.4831 C 46.1218 34.7243 46.1098 33.9632 46.1268 33.2047 C 46.1403 32.5842 46.3001 32.0182 46.2839 31.3809 C 46.2431 29.8561 46.0418 28.3354 45.6805 26.8534 C 45.4892 26.0742 45.2563 25.2824 44.8819 24.5666 C 44.6219 24.0692 44.1828 23.733 43.8396 23.2954 C 43.4001 22.7364 42.8672 22.275 42.2693 21.8865 C 41.967 21.6912 41.6505 21.5149 41.3297 21.3531 C 41.1094 21.2416 40.6589 20.9258 40.4136 20.9348 C 41.4866 20.896 42.5656 21.0382 43.5911 21.3472 C 44.084 21.4955 44.5725 21.6917 44.9575 22.0306 C 45.43 22.4511 45.6988 23.0531 45.9058 23.6485 C 46.2223 24.5465 46.4411 25.4859 46.8754 26.3356 C 47.1736 26.918 47.5717 27.4634 47.7093 28.1015 C 47.8518 28.7667 47.6945 29.4516 47.6146 30.1274 C 47.5318 30.8027 47.5479 31.5442 47.9679 32.0789 C 47.8431 31.0116 48.0347 29.9089 48.5104 28.9431 C 48.6695 28.6199 48.8646 28.2993 48.8889 27.9387 C 48.9054 27.6983 48.8419 27.4585 48.7774 27.2247 C 48.5018 26.2086 48.2276 25.1907 47.951 24.1744 C 48.4641 24.826 48.9786 25.4808 49.4907 26.1322 C 49.6213 26.2995 49.8279 26.4858 50.0165 26.3869 C 49.6119 25.0003 48.9289 23.6974 48.0226 22.5721 C 47.0773 21.3991 46.2465 20.3413 45.6413 18.9616 C 45.1471 17.8362 44.5663 16.5332 43.3085 16.1057 C 42.2053 15.7309 41.0042 16.2042 39.8389 16.2053 C 36.6646 16.2044 34.1667 12.7497 31.0068 13.0558 C 29.1348 13.2383 27.6584 14.7099 25.8964 15.3643 C 24.5125 15.8807 22.9644 15.8824 21.6177 16.4906 C 19.6218 17.3967 18.4355 19.4444 17.3809 21.369 C 18.2508 20.1553 19.2943 19.0682 20.4741 18.1502 C 20.9506 17.7787 21.4803 17.4226 22.082 17.3552 C 23.2329 17.2274 24.3267 18.4278 24.09 19.5607 C 20.9291 19.1196 17.9817 21.2559 15.8596 23.6413 C 15.3654 24.1964 14.8836 24.7887 14.6318 25.4891 C 14.3006 26.424 14.4137 27.45 14.2781 28.4289 C 14.1336 29.4832 13.7034 30.4754 13.486 31.5173 C 13.2124 32.8328 13.2812 34.192 13.4013 35.5278 C 13.6039 37.7745 13.9967 40.1189 15.3895 41.8907 C 16.2046 42.9258 17.5514 43.7408 18.8019 43.333 C 19.2105 43.1998 19.6272 42.9383 20.0376 43.0646 C 20.4606 43.1938 20.659 43.6643 20.8261 44.0763 C 22.0959 47.2357 24.3989 50.7327 28.2109 50.4896 C 30.0932 50.3704 31.849 49.5491 33.5568 48.7435 C 33.3476 49.5528 32.6004 50.0883 31.9047 50.5539 C 31.7098 50.6862 31.5102 50.829 31.3053 50.9729 " stroke-width="0.9999999731755018"/>
      <path id="ID0.7789751910604537" fill="#878787" d="M 12.3068 48.2755 C 11.9252 47.4958 11.722 46.6115 11.314 45.8651 C 11.2665 45.7807 11.186 45.681 11.0961 45.7185 C 11.0294 45.7434 11.0131 45.8279 11.0068 45.8998 C 10.9284 47.0111 11.5854 47.5709 12.3068 48.2755 Z " stroke-width="0.9999999731755018"/>
      <path id="ID0.08306930540129542" fill="#878787" d="M 9.2914 26.1763 C 8.445 25.3073 7.6557 27.2635 7.7105 27.8876 C 7.7276 28.0816 7.7865 28.4411 7.9882 28.5426 C 8.3573 28.7252 8.3243 28.1491 8.519 27.8831 C 8.8214 27.466 9.8863 26.7901 9.2914 26.1763 " stroke-width="0.9999999731755018"/>
      <path id="ID0.06779875792562962" fill="#878787" d="M 10.6078 25.5744 C 10.5963 25.7761 10.664 25.9831 10.7963 26.1334 C 10.8287 26.1719 10.8698 26.2067 10.9202 26.2146 C 10.985 26.2269 11.0476 26.1831 11.1 26.1397 C 11.3483 25.9317 11.5396 25.655 11.6492 25.3504 C 11.7088 25.1836 11.7363 24.9763 11.6133 24.8507 C 11.5114 24.7456 11.3378 24.7426 11.2055 24.8049 C 11.0739 24.8692 10.9749 24.9842 10.8873 25.1031 C 10.6514 25.4193 10.6303 25.1801 10.6078 25.5744 " stroke-width="0.9999999731755018"/>
      <path id="ID0.9455316951498389" fill="#878787" d="M 32.6066 17.4717 C 32.7951 17.5408 32.9482 17.6813 33.1039 17.811 C 33.5034 18.1482 34.0003 18.452 34.5164 18.3691 L 34.6204 18.3257 C 34.6586 18.2821 34.6528 18.2164 34.6343 18.1599 C 34.546 17.8656 34.2882 17.657 34.0297 17.4919 C 33.5204 17.1709 32.9727 17.0292 32.431 16.7922 C 31.9676 16.5908 31.5809 16.3782 31.0798 16.675 C 30.8384 16.8193 30.6568 17.0478 30.4047 17.1702 C 30.1412 17.3009 29.8329 17.298 29.5388 17.2953 C 28.6714 17.2814 27.8031 17.2674 26.9354 17.2556 C 27.3059 17.5132 27.7738 17.5827 28.2204 17.6458 C 28.9621 17.7442 29.7247 17.8448 30.4462 17.6535 C 31.1294 17.4734 31.9064 17.2118 32.6066 17.4717 " stroke-width="0.9999999731755018"/>
      <path id="ID0.8967293533496559" fill="#878787" d="M 51.1001 33.7909 C 51.0094 33.5115 50.834 33.2683 50.6958 33.0077 C 50.1402 31.9374 50.2731 30.5513 49.5015 29.6252 C 49.5746 30.1327 49.6493 30.6425 49.721 31.1528 C 49.7924 31.6449 49.8648 32.1442 50.0568 32.6036 C 50.2591 33.0939 50.5934 33.5301 50.7202 34.044 C 50.8881 34.7213 50.6776 35.4231 50.5153 36.1012 C 50.4503 36.3794 50.4485 36.6616 50.4458 36.9426 C 50.4446 37.2532 50.4431 37.5586 50.3553 37.8536 C 50.3088 38.0143 50.2278 38.1818 50.0778 38.2604 C 49.9573 38.3245 49.8106 38.3176 49.6752 38.3034 C 49.3855 38.2792 49.098 38.234 48.8141 38.1722 C 48.7558 38.1569 48.6952 38.1433 48.6358 38.1603 C 48.4642 38.2022 48.4379 38.4339 48.4494 38.6119 C 48.7922 38.7305 49.1565 38.8536 49.5154 38.7855 C 49.6969 38.7512 49.8721 38.6674 50.0554 38.6729 C 50.1936 38.6764 50.3289 38.7301 50.4613 38.6993 C 50.7093 38.6411 50.8019 38.3418 50.8426 38.0891 C 50.9671 37.3292 50.9564 36.6118 50.9409 35.8603 C 50.9358 35.5832 50.9958 35.3112 51.0536 35.0399 C 51.147 34.6263 51.2346 34.217 51.1001 33.7909 " stroke-width="0.9999999731755018"/>
      <path id="ID0.15125313634052873" fill="#878787" d="M 46.91 33.4452 C 47.4038 33.9874 48.371 34.8987 48.2103 35.7217 C 48.1961 35.7923 48.1528 35.8746 48.0821 35.8675 L 48.0029 35.8176 C 47.758 35.5656 47.7809 35.2786 47.7225 34.9607 C 47.6511 34.578 47.3981 34.2295 47.0526 34.0446 C 46.8768 33.9522 46.682 33.8973 46.5063 33.8109 C 46.33 33.7215 46.1606 33.5825 46.1065 33.3918 C 46.09 33.3295 46.0854 33.2619 46.1146 33.2048 C 46.147 33.1471 46.212 33.1138 46.2786 33.102 C 46.5238 33.0555 46.741 33.2577 46.91 33.4452 " stroke-width="0.9999999731755018"/>
      <path id="ID0.5474047465249896" fill="#878787" d="M 32.1516 35.94 C 32.1708 35.3225 32.5975 34.6618 31.9811 34.1974 L 31.9013 34.1646 L 31.8269 34.2127 C 31.6985 34.3727 31.7111 34.6014 31.7525 34.8023 C 31.9074 35.5878 32.0355 36.3631 31.1678 36.8412 C 31.1127 36.87 31.0568 36.8966 31.0197 36.9465 C 30.9318 37.0612 31.0118 37.2479 31.1495 37.2989 C 31.2866 37.3478 31.4419 37.2872 31.5493 37.1897 C 31.6561 37.09 31.7234 36.9579 31.7931 36.8302 C 32.0039 36.4422 32.1373 36.4176 32.1516 35.94 Z " stroke-width="0.9999999731755018"/>
      <path id="ID0.8588782614096999" fill="#878787" d="M 26.5324 33.9828 C 26.9523 33.7006 27.7866 34.9554 27.8863 35.216 C 27.9047 35.2665 27.9238 35.3191 27.9157 35.3704 C 27.8962 35.4818 27.7591 35.5361 27.6461 35.5275 C 27.3901 35.5075 27.1987 35.2952 27.0364 35.0976 C 26.8244 34.8426 26.3467 34.475 26.4596 34.0979 C 26.4719 34.0523 26.493 34.008 26.5324 33.9828 Z " stroke-width="0.9999999731755018"/>
      <path id="ID0.4822370004840195" fill="#878787" d="M 27.7831 33.5093 C 27.8499 33.4641 27.8311 33.365 27.8013 33.2904 C 27.5048 32.5616 26.3058 31.7212 25.7253 32.6514 C 25.9508 32.292 27.5788 33.3213 27.7831 33.5093 Z " stroke-width="0.9999999731755018"/>
      <path id="ID0.22765630669891834" fill="#878787" d="M 41.8226 23.4795 C 41.8842 23.7635 42.0243 24.0315 42.226 24.2423 C 42.2684 24.2885 42.3209 24.3342 42.3828 24.3267 L 42.4823 24.2735 C 42.9344 23.8698 42.8464 22.8973 42.2797 22.6321 C 42.0939 22.5453 41.8551 22.5573 41.7038 22.6955 C 41.3719 22.9976 41.7642 23.2132 41.8226 23.4795 Z " stroke-width="0.9999999731755018"/>
      <path id="ID0.6500831982120872" fill="#999998" d="M 51.4616 32.0702 C 51.7386 32.4336 52.0045 32.8024 52.089 33.2439 C 52.1575 33.6069 52.095 33.9787 52.0499 34.3431 C 51.9358 35.217 51.9286 36.1644 52.4111 36.9012 C 52.4426 35.6509 52.4734 34.3985 52.5031 33.147 C 52.5158 32.6216 52.622 32.0106 52.4582 31.5132 C 52.2867 30.9943 51.9792 30.4904 51.7371 30.0019 C 51.4644 29.457 51.3828 28.9522 51.2263 28.3698 C 51.1679 28.1551 51.0721 27.9083 50.8571 27.8593 C 50.69 27.8209 50.517 27.9303 50.4306 28.0807 C 50.3445 28.2292 50.3307 28.4072 50.3299 28.5792 C 50.3263 29.6071 50.5173 30.704 51.0951 31.5682 C 51.2059 31.7395 51.3355 31.9066 51.4616 32.0702 " stroke-width="0.9999999731755018"/>
      <path id="ID0.9915745845064521" fill="#999998" d="M 18.8632 44.3083 C 18.331 44.165 17.7562 44.1576 17.2128 44.0277 C 16.6174 43.8804 16.0328 43.6904 15.4692 43.451 C 15.825 44.0211 16.2121 44.6174 16.8138 44.9175 C 17.1357 45.0784 17.4963 45.1412 17.83 45.2787 C 18.286 45.4688 18.6827 45.8044 18.9459 46.2234 C 19.1174 46.4973 19.2319 46.7998 19.387 47.0813 C 19.9619 48.1191 21.028 48.7685 22.0447 49.3717 C 21.4233 48.7203 20.7934 48.0129 20.5933 47.1352 C 20.4807 46.6407 20.5115 46.1162 20.3474 45.6338 C 20.1231 44.974 19.5277 44.4856 18.8632 44.3083 " stroke-width="0.9999999731755018"/>
      <path id="ID0.8026054976508021" fill="#999998" d="M 13.516 26.6439 C 13.5466 26.5262 13.5622 26.4335 13.5037 26.3292 C 13.069 26.8601 12.4183 27.7539 12.3234 28.4547 C 12.2049 29.3178 12.634 30.362 12.9754 31.1334 C 13.0206 29.6089 13.1273 28.1316 13.516 26.6439 " stroke-width="0.9999999731755018"/>
      <path id="ID0.0178139409981668" fill="#949494" d="M 15.264 38.2126 C 15.6791 38.869 16.1868 39.4711 16.5057 40.1792 C 16.0495 39.2947 15.6228 38.358 15.6134 37.3615 C 15.6082 36.8151 15.7309 36.2725 15.7095 35.7256 C 15.6862 35.153 15.454 34.7562 15.2822 34.2453 C 15.0671 33.6041 15.0712 32.799 14.9836 32.1262 C 15.0051 32.2794 14.767 32.654 14.7159 32.812 C 14.6298 33.0697 14.5614 33.3313 14.5066 33.596 C 14.3989 34.1267 14.3511 34.6689 14.3642 35.2105 C 14.3934 36.3255 14.6737 37.2796 15.264 38.2126 " stroke-width="0.9999999731755018"/>
      <path id="ID0.49640776962041855" fill="#706F6F" d="M 42.273 13.1167 C 41.2401 12.3592 39.9238 12.1422 38.67 11.8884 C 37.9497 11.7438 37.2167 11.577 36.5443 11.2699 C 35.8715 10.9647 35.3358 10.5343 34.5836 10.3928 C 34.2483 10.33 33.8513 10.3314 33.6303 10.5912 C 33.3831 10.8824 33.5106 11.3589 33.7982 11.6096 C 34.0848 11.8602 34.4795 11.9445 34.8535 12.0124 C 35.4826 12.1315 36.0888 12.3452 36.7043 12.4672 C 37.531 12.6306 38.455 12.7151 39.2913 12.7787 C 40.2956 12.8616 41.3222 12.693 42.273 13.1167 Z " stroke-width="0.9999999731755018"/>
      <path id="ID0.6057176026515663" fill="#706F6F" d="M 50.188 44.65 C 48.9288 46.5495 46.6616 47.7136 44.9283 49.1064 C 47.5877 48.9707 48.8308 46.6192 50.188 44.65 " stroke-width="0.9999999731755018"/>
      <path id="ID0.8658094857819378" fill="#F8F8F8" d="M 26.356 5.9353 C 27.0504 5.9928 27.7513 5.9967 28.4526 5.9723 C 28.4536 5.9725 28.4556 5.9728 28.4579 5.9711 C 27.7526 5.9949 27.0521 5.9951 26.356 5.9353 M 26.3257 5.9346 C 26.3359 5.9342 26.3438 5.9354 26.3507 5.9365 C 26.3438 5.9354 26.3359 5.9342 26.3257 5.9346 M 26.2908 5.9312 C 26.2967 5.9321 26.3027 5.933 26.3086 5.934 C 26.3027 5.933 26.2967 5.9321 26.2908 5.9312 M 26.2539 5.9274 C 26.2579 5.928 26.2619 5.9286 26.2658 5.9293 C 26.2609 5.9285 26.2579 5.928 26.2539 5.9274 M 6.5687 40.3373 C 6.578 40.362 6.5848 40.3894 6.5941 40.4142 C 6.603 40.4409 6.6108 40.4684 6.6191 40.493 L 6.6191 40.493 C 6.6016 40.4437 6.5858 40.3896 6.5687 40.3373 M 6.3165 39.5071 C 6.3255 39.5338 6.3313 39.561 6.3393 39.5876 C 6.3315 39.56 6.3235 39.5335 6.3165 39.5071 M 6.3114 39.488 C 6.3125 39.4943 6.3138 39.4985 6.3168 39.5051 C 6.3138 39.4985 6.3125 39.4943 6.3114 39.488 M 7.1003 24.0797 C 7.1006 24.0777 7.1006 24.0777 7.1006 24.0777 L 7.1006 24.0777 C 7.1006 24.0777 7.1006 24.0777 7.1003 24.0797 M 7.0726 24.2434 C 7.0751 24.2336 7.0767 24.2238 7.0787 24.217 C 7.0762 24.2267 7.0746 24.2366 7.0726 24.2434 L 7.0726 24.2434 M 7.1772 23.365 L 7.1772 23.365 C 7.1769 23.3669 7.1766 23.3689 7.177 23.373 C 7.176 23.3789 7.1748 23.3868 7.1757 23.3941 C 7.1595 23.6132 7.1373 23.8314 7.1032 24.0487 C 7.1399 23.8217 7.1606 23.5931 7.1772 23.365 M 5.4289 32.473 C 5.374 34.7996 5.6641 37.1401 6.2715 39.3492 C 5.6641 37.1401 5.375 34.7998 5.4289 32.473 " stroke-width="0.9999999731755018"/>
      <path id="ID0.6319888099096715" d="M 6.6201 40.4932 L 6.6201 40.4932 L 6.6201 40.4932 L 6.6201 40.4932 L 6.6201 40.4932 L 6.6201 40.4932 M 6.5557 40.2978 C 6.5697 40.3374 6.5807 40.3766 6.595 40.4143 C 6.5858 40.3896 6.5789 40.3622 6.5697 40.3374 C 6.5639 40.3224 6.5596 40.3116 6.5557 40.2978 M 6.5279 40.2104 C 6.5362 40.235 6.5433 40.2604 6.5516 40.285 C 6.5433 40.2604 6.5362 40.235 6.5279 40.2104 M 8.1437 19.6631 C 8.1613 19.6345 8.177 19.6056 8.1971 19.5743 C 8.3725 19.2891 8.5764 19.0094 8.8597 18.8302 C 9.0846 18.6874 9.3521 18.615 9.5759 18.466 C 10.0506 18.1509 10.2499 17.5718 10.4933 17.0604 C 10.913 16.1738 11.5481 15.3919 12.331 14.7972 C 12.6095 14.5839 12.9154 14.389 13.0964 14.0875 C 13.6456 13.1696 13.8093 12.5981 14.6537 11.8825 C 15.929 10.8014 17.2968 9.995 18.735 9.1592 C 19.3282 8.8111 19.9397 8.4628 20.6182 8.3518 C 20.6674 8.3413 20.7165 8.3379 20.7661 8.3315 C 20.7165 8.3379 20.6674 8.3413 20.6182 8.3518 C 19.9397 8.4628 19.3292 8.8112 18.735 9.1592 C 17.2965 9.997 15.9265 10.8041 14.6537 11.8825 C 13.8074 12.5978 13.6456 13.1696 13.0964 14.0875 C 12.9157 14.3871 12.6114 14.5842 12.331 14.7972 C 11.5484 15.3899 10.913 16.1738 10.4933 17.0604 C 10.2499 17.5718 10.0483 18.1525 9.5759 18.466 C 9.3531 18.6152 9.0856 18.6875 8.8597 18.8302 C 8.5764 19.0094 8.3725 19.2891 8.1971 19.5743 C 8.1792 19.6049 8.1623 19.6347 8.1437 19.6631 M 8.0843 19.7641 C 8.1039 19.7297 8.1231 19.6973 8.1437 19.6631 C 8.1251 19.6977 8.1039 19.7297 8.0843 19.7641 M 8.0233 19.875 C 8.0266 19.8674 8.0308 19.86 8.0345 19.8555 C 8.0306 19.861 8.0264 19.8684 8.0233 19.875 M 7.1774 23.37 C 7.1762 23.378 7.1749 23.3859 7.1761 23.3911 C 7.1749 23.3859 7.1762 23.378 7.1774 23.37 M 7.1949 23.1238 C 7.1894 23.2039 7.1839 23.284 7.1784 23.3641 L 7.1787 23.3621 C 7.1827 23.2848 7.1894 23.2039 7.1949 23.1238 M 7.2753 22.1677 L 7.2753 22.1677 L 7.2753 22.1677 L 7.2753 22.1677 L 7.2753 22.1677 L 7.2753 22.1677 L 7.2753 22.1677 M 7.2979 22.0113 C 7.2937 22.0379 7.2896 22.0636 7.2867 22.0885 C 7.2896 22.0636 7.2937 22.0379 7.2979 22.0113 M 7.2979 22.0113 L 7.2979 22.0113 C 7.2994 22.0014 7.301 21.9915 7.3024 21.9826 C 7.3005 21.9945 7.2994 22.0014 7.2979 22.0113 M 6.5599 25.9272 L 6.5599 25.9272 C 6.7504 25.372 6.9636 24.8204 7.0711 24.2462 L 7.0711 24.2462 L 7.0711 24.2462 L 7.0711 24.2462 C 6.9628 24.8193 6.7499 25.3689 6.5599 25.9272 L 6.5599 25.9272 M 5.6977 29.4551 C 5.1369 33.0364 5.4453 36.8061 6.5272 40.2083 C 6.4613 40.0026 6.3996 39.7965 6.3403 39.5877 C 6.3323 39.5612 6.3255 39.5338 6.3165 39.5071 C 6.3165 39.5071 6.3165 39.5071 6.3168 39.5051 C 6.3148 39.4987 6.3125 39.4943 6.3114 39.488 C 6.2983 39.4425 6.2866 39.3951 6.2725 39.3493 C 5.6641 37.1401 5.373 34.7995 5.4289 32.473 C 5.4524 31.4603 5.5412 30.4509 5.6977 29.4551 M 5.6992 29.4391 L 5.6992 29.4391 C 5.6992 29.4391 5.6995 29.4372 5.6998 29.4352 C 5.6995 29.4372 5.6992 29.4391 5.6992 29.4391 " stroke-width="0.9999999731755018" fill="undefined"/>
      <path id="ID0.084318230394274" fill="#585857" d="M 8.9766 32.4039 C 9.127 32.4458 9.2794 32.4809 9.4289 32.4953 C 9.3437 32.3614 9.2235 32.2696 9.062 32.2797 C 9.0314 32.3194 9.0027 32.3605 8.9766 32.4039 M 5.6992 29.4391 C 5.6983 29.4451 5.6986 29.4492 5.6977 29.4551 C 5.5412 30.4509 5.4522 31.4613 5.4289 32.473 C 5.375 34.7998 5.6641 37.1401 6.2715 39.3492 C 6.2856 39.3949 6.2983 39.4425 6.3114 39.488 C 6.3125 39.4943 6.3138 39.4985 6.3168 39.5051 C 6.3168 39.5051 6.3168 39.5051 6.3165 39.5071 C 6.3255 39.5338 6.3313 39.561 6.3393 39.5876 C 6.3996 39.7965 6.4623 40.0027 6.5262 40.2081 C 6.5272 40.2083 6.5279 40.2104 6.5279 40.2104 C 6.5362 40.235 6.5423 40.2603 6.5516 40.285 C 6.5529 40.2893 6.5543 40.2935 6.5557 40.2978 C 6.5594 40.3125 6.5639 40.3224 6.5687 40.3373 C 6.5848 40.3894 6.6029 40.4419 6.6201 40.4932 L 6.6201 40.4932 L 6.6201 40.4932 C 6.7158 40.7795 6.8267 41.0591 6.9316 41.3449 C 7.5348 41.4295 8.1231 41.5443 8.619 41.8864 C 9.1719 42.2719 9.5177 42.8861 9.9923 43.3636 C 10.0813 43.4545 10.1801 43.5409 10.2855 43.6171 C 10.2119 43.3323 10.141 43.0488 10.0693 42.7642 C 10.3672 43.1745 10.681 43.574 11.0081 43.9595 C 11.2796 44.0224 11.5549 44.0039 11.8028 43.8688 C 11.8782 43.827 11.9465 43.779 12.008 43.7229 C 11.6471 42.6701 11.3252 41.5748 10.8727 40.5704 C 10.9116 40.6575 10.9228 40.7281 10.9136 40.7863 C 10.8675 41.0797 10.2659 40.9852 10.1082 40.8359 C 9.8243 40.5615 9.8291 39.6745 9.8275 39.1306 C 9.7126 39.2178 9.5899 39.2836 9.4461 39.2904 C 8.9159 39.3082 8.5622 38.4479 8.4775 38.0206 C 8.4457 37.8688 8.4551 37.7123 8.4793 37.5582 C 8.4966 37.4486 8.5235 37.3354 8.5499 37.2252 C 8.5763 37.1149 8.6019 37.0035 8.6192 36.8939 C 8.6465 36.72 8.6521 36.5488 8.6046 36.3814 C 8.597 36.359 8.5902 36.3376 8.5824 36.3162 C 8.5806 36.3341 8.5786 36.347 8.5758 36.3647 C 8.5112 36.7757 8.3766 37.1554 8.1071 37.4856 C 7.6501 36.9279 7.6038 36.1472 7.5788 35.4235 C 7.5688 35.1588 7.56 34.8932 7.5545 34.6251 C 7.4408 34.2023 7.3922 33.7452 7.3516 33.3076 C 7.3373 33.1474 7.3239 32.9813 7.3489 32.8223 C 7.3645 32.7235 7.394 32.632 7.4481 32.5453 C 7.4864 32.4886 7.5305 32.4399 7.5826 32.3984 C 7.6088 31.9936 7.6489 31.5899 7.7116 31.1908 C 7.7616 30.8727 7.8258 30.5548 7.9056 30.2404 C 7.9327 30.1384 7.9584 30.0392 7.9874 29.9385 C 8.2404 29.0631 8.609 28.2252 8.9802 27.3897 C 8.8038 27.5715 8.6214 27.7342 8.5215 27.8733 C 8.3302 28.1378 8.3608 28.7156 7.992 28.5311 C 7.7898 28.4325 7.7303 28.0709 7.713 27.8779 C 7.7058 27.8018 7.7131 27.7038 7.73 27.5961 C 7.8525 26.8167 8.5523 25.4042 9.2937 26.1676 C 9.3553 26.2329 9.4003 26.2946 9.4284 26.3608 C 11.3436 21.891 12.9673 17.2275 18.102 15.5889 C 18.9195 15.3276 19.8354 15.1102 20.5874 14.7182 C 20.4252 14.5388 20.2771 14.3475 20.1552 14.138 C 20.0769 14.0053 20.0133 13.8687 19.9612 13.73 C 18.814 13.8736 17.6579 13.945 16.4991 13.943 C 16.8541 12.528 17.969 11.3984 19.2447 10.6889 C 19.7305 10.419 20.2393 10.2024 20.7632 10.0185 C 20.8194 9.9504 20.8786 9.8828 20.939 9.8143 C 21.9991 8.6599 23.4884 8.0143 24.9348 7.4096 C 26.1041 6.9192 27.2765 6.4414 28.453 5.9633 C 27.7511 5.9855 27.0499 5.9836 26.3564 5.9263 C 26.3554 5.9261 26.3534 5.9258 26.3524 5.9257 C 26.3435 5.9243 26.3353 5.925 26.3264 5.9236 C 26.3205 5.9227 26.3152 5.9239 26.3083 5.9228 C 26.3024 5.9218 26.2965 5.9209 26.2896 5.9198 C 26.2813 5.9206 26.2724 5.9192 26.2655 5.9181 C 26.2616 5.9175 26.2576 5.9168 26.2534 5.9182 C 26.2386 5.9159 26.2274 5.9161 26.2145 5.9141 L 26.2145 5.9141 C 25.8675 5.8808 25.5123 5.8412 25.1785 5.9426 C 24.9108 6.023 24.6771 6.1897 24.4508 6.3546 C 23.8654 6.7748 23.2817 7.1973 22.6952 7.6184 L 22.6952 7.6184 C 22.3756 7.8485 22.046 8.0842 21.6653 8.1944 C 21.3759 8.2775 21.069 8.285 20.7678 8.3206 C 20.7173 8.3268 20.6688 8.3324 20.6199 8.3409 C 19.9421 8.454 19.3316 8.8025 18.7374 9.1504 C 17.2972 9.986 15.9299 10.7955 14.6554 11.8717 C 13.8091 12.5869 13.648 13.1609 13.0991 14.0768 C 12.9184 14.3763 12.6118 14.5752 12.3333 14.7885 C 11.5538 15.3817 10.9177 16.1634 10.4968 17.0508 C 10.2541 17.5643 10.0538 18.1433 9.5795 18.4564 C 9.3546 18.6053 9.0881 18.6778 8.8609 18.8223 C 8.5777 19.0015 8.3731 19.2791 8.1974 19.5663 C 8.1807 19.595 8.164 19.6238 8.1452 19.6532 L 8.1449 19.6552 C 8.1247 19.6875 8.1071 19.7222 8.0855 19.7562 C 8.0689 19.785 8.0532 19.8139 8.0361 19.8456 C 8.0318 19.8531 8.0276 19.8605 8.0236 19.8669 C 7.6678 20.5206 7.4225 21.2372 7.3038 21.9737 C 7.3022 21.9836 7.3007 21.9935 7.2996 22.0004 L 7.2996 22.0004 C 7.2954 22.0271 7.2913 22.0528 7.2881 22.0796 C 7.2843 22.1043 7.2799 22.1319 7.277 22.1568 L 7.277 22.1568 L 7.277 22.1568 L 7.277 22.1568 L 7.277 22.1568 C 7.2352 22.4742 7.2153 22.7939 7.1946 23.1126 C 7.1901 23.1929 7.1849 23.271 7.1784 23.351 C 7.1634 23.5814 7.1397 23.8095 7.106 24.037 C 7.1045 24.0469 7.1029 24.0568 7.1015 24.0657 L 7.1015 24.0657 L 7.1015 24.0657 L 7.1012 24.0677 C 7.0973 24.0924 7.0927 24.122 7.0875 24.1485 L 7.0875 24.1485 C 7.0834 24.1681 7.0807 24.1849 7.0776 24.2047 C 7.0761 24.2146 7.0745 24.2244 7.0725 24.2312 L 7.0725 24.2312 C 6.9617 24.807 6.7488 25.3566 6.5603 25.9121 L 6.5603 25.9121 C 6.1742 27.0479 5.888 28.2247 5.6997 29.423 C 5.6995 29.4372 5.6992 29.4391 5.6992 29.4391 " stroke-width="0.9999999731755018"/>
      <path id="ID0.9108041124418378" fill="#90908F" d="M 16.4987 13.9521 C 17.6555 13.9537 18.8096 13.882 19.9588 13.7387 C 19.7652 13.2254 19.7264 12.6666 19.8132 12.1144 C 19.9312 11.3636 20.278 10.6255 20.7615 10.0294 C 20.2384 10.2144 19.7286 10.4309 19.243 10.6997 C 17.9688 11.4065 16.8539 12.5361 16.4987 13.9521 M 10.0718 42.7677 C 10.1405 43.0518 10.2134 43.3355 10.287 43.6204 C 10.5067 43.7815 10.7581 43.908 11.0105 43.9639 C 10.6825 43.5773 10.3686 43.1787 10.0718 42.7677 M 9.8265 39.1375 C 9.828 39.6814 9.8243 40.5686 10.1084 40.841 C 10.2668 40.9924 10.8674 41.0868 10.9139 40.7914 C 10.9227 40.7351 10.9125 40.6647 10.8719 40.5753 C 11.3251 41.5819 11.6504 42.6746 12.0072 43.7278 C 12.3258 43.4398 12.4721 42.9789 12.5776 42.546 C 12.641 42.2847 12.6991 42.0175 12.7411 41.7508 C 12.8508 41.0523 12.854 40.3432 12.5584 39.7117 C 12.1513 38.8369 10.9593 38.28 10.1807 38.848 C 10.0602 38.9323 9.9473 39.0452 9.8265 39.1375 M 7.5524 34.6318 C 7.5589 34.9001 7.569 35.1639 7.5758 35.4301 C 7.5997 36.1536 7.6461 36.9343 8.105 37.4923 C 8.3724 37.1628 8.5072 36.7821 8.5718 36.3712 C 8.5745 36.3534 8.5769 36.3386 8.5794 36.3228 C 8.4876 36.0948 8.2824 35.9259 8.114 35.7415 C 7.8314 35.4268 7.6607 35.0447 7.5524 34.6318 M 11.6918 25.189 C 11.6832 25.2433 11.6663 25.2994 11.6482 25.3502 C 11.5386 25.6549 11.3473 25.9315 11.0987 26.1415 C 11.0463 26.1849 10.9841 26.2267 10.9189 26.2165 C 10.8685 26.2085 10.8285 26.1729 10.7951 26.1343 C 10.6633 25.9809 10.5932 25.7766 10.6066 25.5752 C 10.6102 25.5009 10.6145 25.4479 10.6206 25.4094 C 10.6451 25.2533 10.6942 25.3592 10.8864 25.1029 C 10.9719 24.9838 11.071 24.8687 11.2045 24.8047 C 11.3368 24.7425 11.5103 24.7465 11.6123 24.8506 C 11.6977 24.9389 11.7115 25.0636 11.6918 25.189 M 7.7094 31.1986 C 7.6467 31.5977 7.6045 32.001 7.5794 32.406 C 7.8265 32.212 8.2146 32.2032 8.5372 32.2822 C 8.6835 32.3174 8.8311 32.3639 8.9784 32.4052 C 9.0055 32.3619 9.0332 32.3207 9.062 32.2797 C 9.2235 32.2696 9.344 32.3594 9.4289 32.4953 C 9.5227 32.5039 9.6162 32.5014 9.7088 32.4856 C 10.1335 32.4177 10.4742 32.0795 10.688 31.7042 C 10.9006 31.3307 11.0147 30.9072 11.1876 30.5093 C 11.2338 30.4021 11.2967 30.2855 11.4089 30.2474 C 11.5371 30.2048 11.6773 30.2856 11.8135 30.2817 C 11.9363 30.2797 12.0478 30.2082 12.1691 30.1837 C 12.3465 30.1498 12.5236 30.2273 12.654 30.3571 C 12.4234 29.7378 12.2433 29.0545 12.3257 28.4591 C 12.3263 28.4491 12.3278 28.4392 12.3289 28.4323 C 12.4381 27.7378 13.0775 26.8574 13.5054 26.3314 C 13.5475 26.4049 13.5506 26.4752 13.5388 26.5503 C 13.534 26.5809 13.5262 26.6111 13.5173 26.6481 C 13.3946 27.1137 13.3022 27.579 13.2291 28.0443 C 13.0687 29.0648 13.0088 30.0899 12.9756 31.1385 C 12.9496 31.0787 12.9234 31.0199 12.897 30.9561 C 12.9057 31.0678 12.9051 31.1811 12.902 31.2909 C 12.8918 31.5302 12.8768 31.7931 13.0239 31.9842 C 13.1 32.0792 13.2054 32.1433 13.3174 32.1903 C 13.3372 32.1995 13.3571 32.2087 13.3772 32.2159 C 13.3897 32.1167 13.4028 32.0205 13.4184 31.9217 C 13.4393 31.7884 13.4632 31.6555 13.4923 31.5224 C 13.7015 30.5197 14.1072 29.5611 14.2662 28.5495 C 14.2723 28.511 14.2783 28.4724 14.2844 28.4339 C 14.3835 27.7004 14.3472 26.9395 14.4616 26.2115 C 14.4889 26.0376 14.5238 25.8669 14.5711 25.7013 C 14.3721 25.757 14.1663 25.7784 13.9038 25.7543 C 13.384 25.706 12.8504 25.7072 12.4052 25.3902 C 11.9189 25.0445 11.7525 24.4292 11.8455 23.8375 C 11.9135 23.4048 12.1202 22.9848 12.4424 22.6933 C 13.2072 22.0006 14.3613 21.9158 15.3677 22.1468 C 15.9089 22.2714 16.4357 22.4747 16.9892 22.4888 C 17.8063 21.7213 18.7045 21.0304 19.6657 20.5053 C 19.5069 20.4206 19.3467 20.3387 19.2267 20.2065 L 19.162 20.09 C 19.1602 20.0756 19.1603 20.0624 19.1628 20.0466 C 19.1695 20.0041 19.19 19.9638 19.2098 19.9275 C 19.2914 19.7824 19.4272 19.6134 19.5843 19.6705 C 19.6295 19.6857 19.6658 19.7187 19.7003 19.7505 C 19.8663 19.9112 20.0081 20.0975 20.1878 20.2421 C 20.895 19.9099 21.6345 19.6749 22.3899 19.5699 C 22.5668 19.2242 22.6956 18.8486 22.7556 18.4673 C 22.8102 18.1196 22.8078 17.7679 22.7319 17.426 C 22.5234 17.3618 22.3055 17.3377 22.0841 17.3616 C 21.4823 17.429 20.9546 17.7854 20.4761 18.1566 C 19.2983 19.0749 18.2529 20.1617 17.3849 21.3757 C 18.4383 19.4519 19.6236 17.4041 21.6226 16.4975 C 21.798 16.4188 21.9802 16.3482 22.1631 16.2858 C 21.7031 15.7216 21.0778 15.2751 20.5847 14.7289 C 19.8317 15.1207 18.9158 15.3382 18.1003 15.5997 C 12.9666 17.2385 11.3429 21.902 9.4267 26.3717 C 9.4696 26.4655 9.4774 26.5639 9.463 26.6558 C 9.4223 26.9146 9.2019 27.1705 8.9765 27.4003 C 8.6063 28.2359 8.2367 29.0737 7.9837 29.949 C 7.9548 30.0497 7.9289 30.1499 7.9029 30.2511 C 7.8217 30.5613 7.7594 30.8805 7.7094 31.1986 " stroke-width="0.9999999731755018"/>
      <path id="ID0.449022117536515" fill="#ABABAA" d="M 20.1854 20.2387 C 20.1989 20.2489 20.2095 20.2587 20.2233 20.268 C 20.928 20.8079 21.8589 20.4815 22.2752 19.7715 C 22.3154 19.7029 22.3542 19.6361 22.3889 19.5637 C 21.63 19.6711 20.8933 19.9076 20.1854 20.2387 M 17.3843 21.3726 C 18.2533 20.1588 19.2968 19.0716 20.4756 18.1535 C 20.9531 17.7821 21.4828 17.426 22.0842 17.3606 C 22.3071 17.3339 22.5255 17.3612 22.7314 17.4229 C 22.6922 17.2345 22.6283 17.0483 22.5422 16.8688 C 22.4388 16.6571 22.3101 16.4648 22.1612 16.2845 C 21.9783 16.3469 21.7985 16.4158 21.6218 16.4964 C 19.6223 17.3999 18.4389 19.448 17.3843 21.3726 M 16.9866 22.4863 C 16.9938 22.4854 16.9997 22.4864 17.007 22.4855 C 17.62 22.4948 18.2895 22.3115 18.8402 22.0478 C 19.2242 21.8652 20.1005 21.7124 20.21 21.2346 C 20.2136 21.2251 20.2151 21.2152 20.2162 21.2083 C 20.2535 20.9712 20.0649 20.7472 19.861 20.6149 C 19.7983 20.5757 19.7312 20.5388 19.665 20.5031 C 18.7028 21.0281 17.8037 21.7189 16.9866 22.4863 M 13.4167 31.9194 C 13.4012 32.0182 13.3881 32.1144 13.3765 32.2138 C 13.9373 32.4264 14.5985 32.2834 15.0885 31.9352 C 15.5988 31.5741 15.9454 31.0242 16.1794 30.4435 C 16.3184 30.0999 16.423 29.7367 16.6214 29.4217 C 16.7835 29.1628 17.0064 28.9427 17.1501 28.6727 C 17.2253 28.5287 17.2762 28.3727 17.3016 28.2107 C 17.3436 27.9439 17.3152 27.6672 17.2147 27.4175 C 17.1063 27.1474 16.9212 26.9149 16.8161 26.6433 C 16.644 26.1992 16.659 25.6205 16.2548 25.3646 C 15.9537 25.1746 15.5549 25.2708 15.2336 25.4217 C 14.9818 25.5421 14.7794 25.6389 14.5698 25.697 C 14.5217 25.8676 14.4858 26.0381 14.4589 26.209 C 14.3447 26.9361 14.3823 27.6951 14.2817 28.4315 C 14.2767 28.4701 14.2706 28.5087 14.2646 28.5472 C 14.1057 29.5578 13.699 30.5163 13.4896 31.5199 C 13.4614 31.6542 13.4377 31.7861 13.4167 31.9194 " stroke-width="0.9999999731755018"/>
      <path id="ID0.16697180224582553" fill="#848483" d="M 7.7263 27.6066 C 7.7094 27.7143 7.7044 27.8107 7.7106 27.8866 C 7.7279 28.0796 7.7866 28.4401 7.9883 28.5417 C 8.3584 28.7243 8.3248 28.1461 8.5182 27.8819 C 8.6165 27.7455 8.7982 27.5818 8.9775 27.4004 C 9.2039 27.1708 9.4213 26.9144 9.462 26.6556 C 9.4769 26.5608 9.4685 26.4663 9.4257 26.3715 C 9.3976 26.3054 9.353 26.2416 9.2914 26.1763 C 8.5486 25.4147 7.8488 26.8272 7.7263 27.6066 " stroke-width="0.9999999731755018"/>
      <path id="ID0.6733169793151319" fill="#848483" d="M 10.6217 25.4085 C 10.6156 25.4471 10.6114 25.5 10.6078 25.5744 C 10.5963 25.7761 10.664 25.9831 10.7963 26.1334 C 10.8287 26.1719 10.8698 26.2067 10.9202 26.2146 C 10.985 26.2269 11.0476 26.1831 11.1 26.1397 C 11.3483 25.9317 11.5396 25.655 11.6492 25.3504 C 11.6696 25.2979 11.6842 25.2435 11.6931 25.1872 C 11.7125 25.0637 11.6999 24.9372 11.6133 24.8507 C 11.5114 24.7456 11.3378 24.7426 11.2055 24.8049 C 11.0739 24.8692 10.9749 24.9842 10.8873 25.1031 C 10.6964 25.3585 10.6462 25.2524 10.6217 25.4085 " stroke-width="0.9999999731755018"/>
      <path id="ID0.19748767651617527" fill="#949494" d="M 12.3271 28.431 C 12.3256 28.4408 12.3243 28.4488 12.3229 28.4576 C 12.2413 29.0542 12.4206 29.7363 12.6502 30.3555 C 12.7045 30.4096 12.7503 30.4724 12.7844 30.5385 C 12.8502 30.6673 12.8816 30.8089 12.8933 30.9535 C 12.9197 31.0173 12.9469 31.0763 12.9729 31.136 C 13.0042 30.0872 13.0649 29.0632 13.2254 28.0417 C 13.2986 27.5764 13.3929 27.1114 13.514 26.6436 C 13.5234 26.6096 13.5302 26.5793 13.5355 26.5457 C 13.547 26.4726 13.5438 26.4023 13.5037 26.3292 C 13.076 26.8541 12.4366 27.7345 12.3271 28.431 " stroke-width="0.9999999731755018"/>
      <path id="ID0.07347159739583731" fill="#90908F" d="M 18.193 43.4397 C 18.341 43.7282 18.5119 44.0061 18.7024 44.2689 C 18.7564 44.2794 18.8088 44.2937 18.8632 44.3083 C 19.3918 44.4491 19.8771 44.7875 20.1666 45.2511 C 20.4233 45.1771 20.6711 45.0045 20.8857 44.8367 C 20.9505 44.7852 21.0148 44.7366 21.0855 44.6859 C 20.9962 44.4816 20.9096 44.2787 20.827 44.0764 C 20.6606 43.6666 20.4644 43.1954 20.0395 43.0649 C 19.6292 42.9386 19.2135 43.2003 18.8049 43.3334 C 18.6033 43.3989 18.3982 43.4345 18.193 43.4397 " stroke-width="0.9999999731755018"/>
      <path id="ID0.12021943414583802" fill="#ABABAA" d="M 17.5115 39.5123 C 17.3034 40.836 17.5669 42.2319 18.1934 43.4368 C 18.3967 43.4313 18.6018 43.3957 18.8062 43.3316 C 19.2158 43.1986 19.6315 42.937 20.0418 43.0632 C 20.4649 43.1925 20.6629 43.6649 20.8283 44.0746 C 20.9098 44.2777 20.9963 44.4806 21.0878 44.6843 C 21.3965 44.4656 21.7497 44.2923 22.0941 44.4071 C 22.2905 44.4714 22.4439 44.6221 22.6049 44.7506 C 23.1107 45.152 23.6176 45.2438 24.2261 45.3202 C 24.7449 45.3815 25.229 45.7603 25.2511 46.3215 C 25.2643 46.6242 25.1431 46.9251 25.1868 47.2265 C 25.2999 47.9822 26.3729 48.3361 27.0309 48.2462 C 27.351 48.1993 27.6283 47.9939 27.9278 47.8851 C 28.331 47.7349 28.7256 47.6076 28.9613 47.2154 C 29.0751 47.0258 29.1272 46.8103 29.1617 46.591 C 29.1741 46.5119 29.1839 46.4305 29.1943 46.3511 C 29.2041 46.2697 29.2145 46.1903 29.227 46.1113 C 29.2358 46.055 29.2462 46.0019 29.257 45.9459 C 29.2945 45.7716 29.3502 45.6043 29.4478 45.4536 C 29.565 45.2746 29.7382 45.1318 29.8168 44.9285 C 29.8352 44.8818 29.8488 44.8343 29.8565 44.7849 C 29.8835 44.6131 29.8529 44.4281 29.8217 44.2531 C 29.7198 43.6773 29.5225 42.9944 28.9586 42.8399 C 28.4218 42.6938 27.8008 43.1287 27.3225 42.848 C 27.1047 42.7207 26.9834 42.4748 26.9247 42.2298 C 26.9042 42.1415 26.8924 42.0425 26.9065 41.9526 C 26.9196 41.8696 26.9524 41.7958 27.0231 41.7452 C 27.1051 41.6872 27.2152 41.6822 27.316 41.6849 C 28.2817 41.6919 29.2472 41.8285 30.1796 42.0854 C 30.2669 42.1092 30.3612 42.1342 30.4429 42.0974 C 30.4922 42.0738 30.5301 42.0321 30.5654 41.9881 C 30.9191 41.573 31.0992 41.168 31.1749 40.6859 C 31.2038 40.5022 31.2157 40.3107 31.2192 40.1017 C 31.2101 39.6569 31.1211 39.1803 30.7974 38.8824 C 30.3939 38.5062 29.7452 38.5116 29.3307 38.1539 C 28.9249 37.8057 28.8404 37.2093 28.5249 36.7761 C 27.9577 35.9986 26.8488 35.9437 25.9372 35.6314 C 25.3426 35.4276 24.7907 35.0878 24.1728 34.9745 C 23.4864 34.8464 22.7495 35.0201 22.1904 35.4404 C 21.8022 35.7336 21.4934 36.1396 21.0522 36.3385 C 20.5302 36.5744 19.9151 36.4817 19.3713 36.6574 C 18.6383 36.8965 18.1444 37.5852 17.8514 38.2963 C 17.6883 38.6898 17.5767 39.0974 17.5115 39.5123 " stroke-width="0.9999999731755018"/>
      <path id="ID0.052685847505927086" fill="#949494" d="M 18.7024 44.2689 C 18.8611 44.4892 19.0354 44.7008 19.2197 44.8998 C 19.3514 45.041 19.4942 45.1819 19.6765 45.246 C 19.8393 45.305 20.0035 45.2974 20.1648 45.2498 C 19.8761 44.7874 19.3909 44.4479 18.8614 44.307 C 18.8108 44.294 18.7564 44.2794 18.7024 44.2689 " stroke-width="0.9999999731755018"/>
      <path id="ID0.8072715853340924" fill="#90908F" d="M 32.0772 49.424 C 32.1923 49.6769 32.3227 49.9232 32.4664 50.1614 C 32.9642 49.7831 33.4056 49.3382 33.5585 48.7457 C 33.071 48.9748 32.5758 49.2078 32.0772 49.424 M 33.1314 13.3664 C 35.2653 14.1391 37.2118 16.014 39.4965 16.194 C 39.5064 16.1439 39.5147 16.0915 39.5224 16.0421 C 39.5645 15.7744 39.5765 15.505 39.5103 15.2436 C 39.4162 14.8694 39.1699 14.5493 38.8935 14.2791 C 37.4258 12.8357 35.0469 12.6046 33.1314 13.3664 M 24.0172 18.9156 C 23.9842 19.126 23.9712 19.3376 23.9611 19.5496 C 24.0059 19.5546 24.0487 19.5593 24.0931 19.5663 C 24.097 19.5416 24.104 19.5164 24.1076 19.4937 C 24.147 19.2427 24.123 18.9899 24.0476 18.7483 C 24.047 18.7522 24.0463 18.7562 24.0457 18.7602 C 24.0347 18.8111 24.0255 18.8633 24.0172 18.9156 " stroke-width="0.9999999731755018"/>
      <path id="ID0.009481305256485939" fill="#F8F8F8" d="M 58.0097 36.2334 C 58.01 36.2314 58.0103 36.2294 58.0106 36.2274 L 58.0106 36.2274 C 58.0103 36.2294 58.01 36.2314 58.0097 36.2334 M 58.0101 33.4416 C 58.1483 34.3592 58.1572 35.301 58.0144 36.2159 C 58.1551 35.3016 58.1483 34.3592 58.0101 33.4416 M 53.3694 47.2343 C 54.5611 45.5772 55.7082 43.8433 56.1583 41.8622 C 56.2816 41.3157 56.3514 40.7557 56.5077 40.2185 C 56.3514 40.7557 56.2829 41.3139 56.1583 41.8622 C 55.7082 43.8433 54.5611 45.5772 53.3694 47.2343 M 49.3958 51.655 C 49.3997 51.6495 49.4033 51.646 49.4072 51.6406 L 49.4072 51.6406 C 49.4033 51.646 49.3987 51.6493 49.3958 51.655 M 49.3831 51.6712 C 49.3835 51.6692 49.3857 51.6676 49.388 51.6659 C 49.3857 51.6676 49.3835 51.6692 49.3831 51.6712 M 51.6326 14.4875 C 51.8544 14.5517 52.0979 14.6062 52.2606 14.7685 C 52.0969 14.6061 51.8563 14.5521 51.6326 14.4875 M 51.0032 14.2418 C 51.0038 14.244 51.0045 14.2461 51.0049 14.2502 C 51.193 14.3415 51.4015 14.4188 51.6307 14.4872 C 51.3985 14.4184 51.1942 14.3336 51.0032 14.2418 " stroke-width="0.9999999731755018"/>
      <path id="ID0.18136898195371032" d="M 49.3945 51.6568 C 49.3984 51.6513 49.4033 51.646 49.4072 51.6406 C 49.4033 51.646 49.3997 51.6495 49.3958 51.655 C 49.3955 51.6569 49.3955 51.6569 49.3945 51.6568 " stroke-width="0.9999999731755018" fill="undefined"/>
      <path id="ID0.2800529384985566" fill="#585857" d="M 42.8727 51.4942 C 42.9097 51.5102 42.9465 51.5271 42.9795 51.5485 C 43.1327 51.6434 43.2512 51.7845 43.3649 51.9239 C 43.7027 52.3252 44.1069 52.742 44.626 52.7881 C 44.8159 52.7269 45.003 52.6571 45.1826 52.5831 C 46.9494 51.8465 48.4817 50.6245 50.2575 49.9146 C 49.4778 50.3539 48.7536 50.8981 48.05 51.4779 C 48.1759 51.5078 48.2783 51.5968 48.3761 51.683 C 48.5784 51.8646 48.7704 52.0598 48.957 52.2571 C 49.1027 52.0644 49.2348 51.8615 49.3841 51.6713 C 49.3857 51.6676 49.3877 51.6679 49.389 51.666 C 49.3916 51.6624 49.3932 51.6586 49.3955 51.6569 C 49.4007 51.6497 49.4053 51.6463 49.4082 51.6407 L 49.4082 51.6407 C 49.8056 51.1474 50.3318 50.7817 50.8047 50.362 C 51.658 49.6023 52.3338 48.6709 53.0032 47.7477 C 53.1274 47.5759 53.2504 47.4049 53.3723 47.2348 C 54.5644 45.5757 55.7125 43.842 56.1625 41.8608 C 56.2859 41.3143 56.3547 40.7542 56.5117 40.2191 C 56.5378 40.1301 56.5646 40.0432 56.5962 39.9581 C 56.7969 39.3964 57.1204 38.8834 57.3752 38.3444 C 57.6898 37.6762 57.9009 36.9643 58.0159 36.2323 C 58.0159 36.2323 58.0162 36.2303 58.0168 36.2264 C 58.0172 36.2244 58.0181 36.2185 58.0184 36.2165 C 58.1605 35.2994 58.1536 34.358 58.0141 33.4422 C 58.0039 33.3718 57.9906 33.3018 57.9801 33.2334 C 57.7537 31.9365 57.2752 30.679 57.2247 29.3642 C 57.1962 28.6501 57.2983 27.9363 57.3267 27.221 C 57.422 24.8693 56.7342 22.521 55.5458 20.4919 C 54.5324 18.7606 53.1525 17.2156 52.5336 15.3114 C 52.4727 15.1196 52.4151 14.9193 52.2735 14.7766 C 52.2719 14.7743 52.2682 14.7717 52.2666 14.7694 C 52.1008 14.6067 51.8585 14.5514 51.6369 14.4862 L 51.6369 14.4862 L 51.6369 14.4862 C 51.4063 14.4206 51.1992 14.3405 51.0101 14.249 C 51.2557 15.5074 51.5098 16.757 52.1769 17.8326 C 52.4384 18.2553 52.7736 18.7312 52.7002 19.1984 C 52.6944 19.235 52.6867 19.2712 52.6747 19.3088 C 52.8886 19.8607 53.0758 20.4216 53.2413 20.9851 C 54.02 23.6179 54.3898 26.3596 55.1363 29.0036 C 55.736 31.1264 56.5876 33.3081 56.2479 35.4696 C 56.2307 35.5792 56.209 35.6912 56.1855 35.8019 C 55.7513 37.8179 54.2476 39.5404 53.933 41.5418 C 53.9028 41.7344 53.8839 41.9319 53.878 42.1304 C 53.7651 40.826 53.6508 39.5245 53.5381 38.2192 C 53.5047 38.4963 53.4668 38.7759 53.4235 39.0515 C 53.0057 41.7098 52.1215 44.3151 50.5813 46.5147 C 48.8805 48.9441 46.3225 50.844 43.4096 51.4015 C 43.2299 51.437 43.0511 51.4666 42.8727 51.4942 M 39.7713 52.1689 C 39.8768 52.2644 39.9871 52.3546 40.1028 52.4366 C 40.2827 52.1997 40.5031 51.9954 40.7533 51.8333 C 40.4163 51.917 40.0871 52.0211 39.7713 52.1689 " stroke-width="0.9999999731755018"/>
      <path id="ID0.2384038078598678" fill="#90908F" d="M 44.6277 52.7904 C 44.6379 52.79 44.6478 52.7916 44.6557 52.7928 C 45.1882 52.8249 45.6489 52.463 46.1054 52.1865 C 46.6055 51.8835 47.1561 51.6714 47.7179 51.5107 C 47.8161 51.4846 47.9166 51.4569 48.0174 51.4727 C 48.0283 51.4744 48.0381 51.476 48.0477 51.4795 C 48.7516 50.8978 49.4758 50.3536 50.2555 49.9143 C 48.4784 50.6261 46.9462 51.848 45.1797 52.5826 C 45.003 52.6571 44.8178 52.7272 44.6277 52.7904 M 41.4827 43.3152 C 42.4749 42.9215 43.7547 43.2674 44.5804 42.5803 C 44.8368 42.3655 45.0163 42.0738 45.2228 41.8097 C 45.267 41.7539 45.3143 41.6975 45.3627 41.6413 C 45.2507 41.5488 45.1336 41.4626 45.006 41.3919 C 43.9289 40.7874 42.3501 41.2357 41.8511 42.3689 C 41.7175 42.678 41.618 43.0085 41.4827 43.3152 M 42.0659 21.0164 C 42.1482 21.498 42.2834 21.9322 42.7128 22.105 C 43.1889 22.2962 43.71 21.9884 44.2221 21.9505 C 44.55 21.9251 44.8654 22.0242 45.1357 22.2044 C 45.0827 22.1424 45.0238 22.0856 44.9636 22.0306 C 44.5786 21.6917 44.0891 21.4953 43.5962 21.347 C 43.0965 21.1966 42.5823 21.0864 42.0659 21.0164 M 52.4101 36.9011 C 51.9265 36.165 51.9371 35.2152 52.0479 34.3428 C 52.094 33.9785 52.1565 33.6067 52.0871 33.2435 C 52.005 32.7994 51.7376 32.4335 51.4607 32.0701 C 51.335 31.9035 51.2052 31.7374 51.0915 31.5656 C 50.5137 30.7014 50.3237 29.6046 50.3273 28.5767 C 50.3279 28.4958 50.3317 28.4134 50.3444 28.3324 C 50.3587 28.2415 50.3852 28.1566 50.4289 28.0785 C 50.515 27.93 50.6894 27.8188 50.8554 27.857 C 51.0713 27.9071 51.1673 28.153 51.2256 28.3677 C 51.3798 28.9517 51.4628 29.4547 51.7364 29.9998 C 51.9785 30.4883 52.2849 30.993 52.4556 31.5107 C 52.6188 32.0112 52.5132 32.6191 52.5014 33.1447 C 52.4695 34.3979 52.4406 35.6506 52.4101 36.9011 M 50.0803 44.8072 C 48.7641 46.7413 47.5163 48.9736 44.9283 49.1064 C 46.6161 47.752 48.8043 46.614 50.0803 44.8072 C 50.1149 44.7549 50.1525 44.7021 50.188 44.65 C 50.1532 44.7043 50.1188 44.7556 50.0803 44.8072 M 34.038 52.0128 C 34.5608 52.4543 35.1456 52.8236 35.7774 53.093 C 36.0184 53.1956 36.2732 53.2873 36.5319 53.2713 C 36.8018 53.254 37.0499 53.1249 37.3064 53.0387 C 37.7202 52.8983 38.1674 52.8673 38.597 52.949 C 38.9448 53.0158 39.3281 53.153 39.6354 52.9756 C 39.824 52.8706 39.9344 52.6703 40.0609 52.4968 C 40.075 52.4778 40.0886 52.4556 40.1038 52.4367 C 39.9878 52.3568 39.8774 52.2665 39.7733 52.1692 C 40.0891 52.0214 40.4184 51.9163 40.7553 51.8336 C 41.247 51.513 41.8415 51.3504 42.4274 51.3969 C 42.5794 51.4086 42.7352 51.4352 42.8747 51.4945 C 43.0531 51.4669 43.2314 51.4403 43.4071 51.4041 C 46.3202 50.8456 48.8757 48.9484 50.5785 46.5193 C 52.1197 44.3199 53.001 41.7142 53.4188 39.0558 C 53.4624 38.7782 53.5019 38.501 53.5357 38.2218 C 53.6466 39.5259 53.7619 40.8275 53.8749 42.1309 C 53.8814 41.9345 53.9003 41.7371 53.9306 41.5444 C 54.245 39.544 55.7481 37.8184 56.1831 35.8046 C 56.2066 35.6939 56.2282 35.5819 56.2455 35.4722 C 56.5852 33.3107 55.7336 31.1291 55.1319 29.0059 C 54.3864 26.3621 54.0164 23.6214 53.2389 20.9878 C 53.0734 20.4242 52.8866 19.8604 52.6723 19.3115 C 52.6651 19.3316 52.6574 19.3547 52.6489 19.3766 C 52.5271 19.6814 52.2255 19.8739 51.9382 20.0342 C 51.1555 20.473 50.2896 20.8492 49.3941 20.7894 C 48.4985 20.7296 47.5887 20.1098 47.4649 19.2229 C 47.4388 19.0345 47.4475 18.8507 47.4767 18.6649 C 47.5173 18.4061 47.5983 18.1486 47.6794 17.89 C 47.7615 17.6316 47.8415 17.3739 47.8825 17.1131 C 47.9052 16.9689 47.9161 16.8218 47.9082 16.6728 C 47.8516 15.7508 47.0304 15.0184 46.1408 14.7662 C 45.2514 14.5121 44.3031 14.6333 43.3866 14.7585 C 42.2844 14.9052 40.9503 15.2847 40.4667 16.1723 C 41.4317 16.0669 42.4016 15.8023 43.3106 16.1111 C 44.5695 16.5388 45.1502 17.8417 45.6435 18.967 C 46.2485 20.3477 47.0793 21.4055 48.0248 22.5775 C 48.9311 23.7028 49.6141 25.0057 50.0197 26.3925 C 49.8291 26.4911 49.6255 26.3052 49.4929 26.1376 C 48.9808 25.4862 48.4662 24.8314 47.9542 24.18 C 48.2307 25.1962 48.504 26.214 48.7796 27.2301 C 48.8441 27.4639 48.9071 27.7006 48.8921 27.9442 C 48.8906 27.9794 48.8862 28.0142 48.8804 28.0507 C 48.8307 28.3668 48.6574 28.6584 48.5137 28.9476 C 48.2628 29.4558 48.0909 30.0018 48.0026 30.5639 C 47.9237 31.0657 47.912 31.5781 47.9713 32.0834 C 47.5512 31.5487 47.5351 30.8073 47.618 30.1319 C 47.6998 29.4565 47.8551 28.7712 47.7127 28.1061 C 47.577 27.4683 47.1759 26.9224 46.8787 26.3402 C 46.4693 25.5379 46.2503 24.6582 45.9604 23.8038 C 45.9586 23.8926 45.9512 23.9785 45.9375 24.0654 C 45.8592 24.5633 45.6032 25.0333 45.2509 25.4132 C 45.4258 25.8851 45.5607 26.3729 45.6778 26.858 C 46.039 28.3401 46.2394 29.8606 46.2821 31.3857 C 46.2973 32.0167 46.1414 32.5773 46.1247 33.1922 C 46.1583 33.1459 46.2164 33.1175 46.2767 33.1078 C 46.5219 33.0613 46.7371 33.2631 46.9072 33.4498 C 47.3944 33.9829 48.3419 34.8779 48.214 35.6919 C 48.2121 35.7037 48.2104 35.7146 48.2085 35.7265 C 48.1947 35.7951 48.1521 35.8796 48.0803 35.8723 L 48.0021 35.8226 C 47.7573 35.5705 47.7801 35.2836 47.7217 34.9657 C 47.6493 34.5828 47.3957 34.2321 47.0512 34.0474 C 46.8751 33.957 46.6812 33.9022 46.5047 33.8147 C 46.3416 33.7314 46.1888 33.6092 46.1219 33.4418 C 46.1126 33.9586 46.1157 34.4733 46.117 34.9868 C 46.2603 34.9445 46.4029 34.9133 46.5531 34.9105 C 47.5492 34.891 48.1584 36.084 48.0752 37.0771 C 48.0688 37.1693 48.0572 37.2626 48.0434 37.3505 C 47.9754 37.7832 47.8397 38.2022 47.7028 38.6221 C 47.5961 38.9535 47.4893 39.2849 47.415 39.6225 C 47.7625 39.2854 48.1096 38.9512 48.4569 38.6161 C 48.4532 38.6135 48.4513 38.6132 48.4473 38.6125 C 48.4431 38.5491 48.4449 38.4796 48.4549 38.4163 C 48.4737 38.2968 48.5238 38.1903 48.6365 38.1625 C 48.6954 38.1484 48.7552 38.1609 48.8148 38.1743 C 49.0985 38.2371 49.386 38.2823 49.6756 38.3075 C 49.8125 38.3189 49.957 38.3265 50.0784 38.2625 C 50.2286 38.1829 50.3075 38.0161 50.356 37.8557 C 50.3809 37.7746 50.3985 37.6944 50.4116 37.6114 C 50.4459 37.3931 50.4471 37.1726 50.4485 36.945 C 50.4498 36.7175 50.452 36.4911 50.4879 36.2629 C 50.4961 36.2105 50.5065 36.1575 50.5196 36.1059 C 50.5958 35.7757 50.6871 35.4398 50.7397 35.1049 C 50.7955 34.7503 50.8099 34.3942 50.7235 34.0486 C 50.5958 33.5345 50.2615 33.0983 50.0601 32.6081 C 49.8671 32.1486 49.7955 31.6514 49.7233 31.1572 C 49.6505 30.6478 49.5765 30.1401 49.5028 29.6295 C 50.2757 30.5537 50.1414 31.9427 50.6991 33.0122 C 50.8344 33.2724 51.012 33.5139 51.1027 33.7934 C 51.1935 34.0789 51.1824 34.3556 51.1394 34.6292 C 51.1178 34.7665 51.0862 34.9033 51.0564 35.0413 C 51.0266 35.1794 50.997 35.3164 50.9754 35.4537 C 50.9541 35.5891 50.9409 35.7247 50.9427 35.8616 C 50.9569 36.6018 50.9673 37.309 50.8502 38.0538 C 50.8483 38.0657 50.8463 38.0785 50.8445 38.0904 C 50.8037 38.3431 50.7092 38.6421 50.4631 38.7006 C 50.3297 38.7312 50.1923 38.6783 50.0563 38.6741 C 49.8729 38.6686 49.6978 38.7524 49.5163 38.7866 C 49.2615 38.8357 49.004 38.7871 48.7516 38.712 C 48.6628 39.8308 48.497 40.9435 48.3286 42.0538 C 48.3244 42.0805 48.3197 42.1101 48.3155 42.1368 C 48.2846 42.3334 48.2458 42.5287 48.1524 42.7044 C 48.128 42.7501 48.1 42.7933 48.069 42.836 C 48.1469 42.9394 48.2261 43.0409 48.3102 43.1371 C 48.0827 43.3089 47.8109 43.3573 47.5331 43.3217 C 47.4358 43.3935 47.3381 43.4672 47.2478 43.5461 C 46.764 43.958 46.6642 44.4252 46.4309 44.9756 C 46.2284 45.4459 45.7305 45.8576 45.3292 46.1761 C 44.6036 46.7545 43.7591 47.1745 43.0372 47.7554 C 42.2073 48.4237 41.6555 49.0364 40.6623 49.3855 C 39.7258 49.715 38.7059 49.9435 37.7514 50.2844 C 36.759 50.6346 35.4641 50.842 34.6263 51.503 C 34.4227 51.6583 34.2325 51.8379 34.038 52.0128 " stroke-width="0.9999999731755018"/>
      <path id="ID0.7432477637194097" fill="#ABABAA" d="M 47.3652 39.8941 C 47.3616 39.9168 47.3573 39.9445 47.3534 39.9691 C 47.2167 40.968 47.4825 42.014 48.0696 42.8321 C 48.0983 42.791 48.1274 42.748 48.1521 42.7003 C 48.2455 42.5246 48.2853 42.3294 48.3162 42.1329 C 48.3203 42.1062 48.325 42.0766 48.3282 42.0497 C 48.4956 40.9393 48.6634 39.8268 48.7522 38.708 C 48.6516 38.6781 48.5542 38.6476 48.4568 38.61 C 48.109 38.9491 47.7622 39.2813 47.4149 39.6164 C 47.3959 39.7116 47.3793 39.8042 47.3652 39.8941 M 40.3008 16.6605 C 40.2939 16.7049 40.2885 16.7517 40.2852 16.7987 C 40.1984 18.0272 41.5715 18.8615 41.897 20.0494 C 41.9795 20.3489 42.0113 20.694 42.0668 21.0175 C 42.5833 21.0866 43.097 21.1997 43.5956 21.3509 C 44.0885 21.4993 44.5779 21.6956 44.962 22.0344 C 45.0222 22.0894 45.0821 22.1464 45.1341 22.2082 C 45.5915 22.5119 45.9197 23.0453 45.9585 23.6031 C 45.9644 23.6688 45.9639 23.7366 45.9625 23.8032 C 46.2514 24.6574 46.47 25.54 46.8809 26.3395 C 47.1781 26.9217 47.5772 27.4673 47.7148 28.1054 C 47.8572 28.7706 47.7 29.4555 47.6191 30.1311 C 47.5382 30.8067 47.5533 31.5481 47.9734 32.0828 C 47.9138 31.5794 47.9258 31.065 48.0047 30.5632 C 48.0926 30.0041 48.2639 29.455 48.5158 28.947 C 48.66 28.6548 48.8329 28.3661 48.8829 28.048 C 48.8883 28.0135 48.8927 27.9787 48.8942 27.9435 C 48.9098 27.703 48.8462 27.4633 48.7817 27.2294 C 48.5065 26.2113 48.2329 25.1955 47.9563 24.1793 C 48.4684 24.8307 48.9829 25.4855 49.495 26.1369 C 49.6256 26.3042 49.8315 26.4884 50.0198 26.3915 C 49.6152 25.0049 48.9325 23.7 48.026 22.5767 C 47.0816 21.4038 46.2508 20.346 45.6457 18.9663 C 45.1524 17.8411 44.5719 16.5361 43.3131 16.1085 C 42.4047 15.8017 41.4339 16.0662 40.4678 16.1715 C 40.3861 16.3176 40.3291 16.4807 40.3008 16.6605 M 31.4613 46.0839 C 31.4264 46.3061 31.4216 46.5362 31.4318 46.7615 C 31.4653 47.6818 31.6933 48.5882 32.0773 49.423 C 32.577 49.2069 33.0714 48.9719 33.5599 48.7429 C 33.4051 49.3351 32.9634 49.7819 32.4676 50.1605 C 32.8855 50.8569 33.4193 51.4864 34.039 52.013 C 34.2325 51.8379 34.4227 51.6583 34.6274 51.4961 C 35.4678 50.8376 36.7631 50.6281 37.7535 50.2776 C 38.7072 49.9417 39.7265 49.7101 40.6631 49.3805 C 41.6561 49.0325 42.209 48.4199 43.0389 47.7506 C 43.7612 47.1677 44.6034 46.7494 45.3299 46.1712 C 45.7332 45.8529 46.2305 45.4391 46.431 44.9686 C 46.665 44.4202 46.7647 43.9531 47.2489 43.5392 C 47.3402 43.4604 47.4365 43.3885 47.5351 43.3149 C 47.1513 43.2647 46.7615 43.0526 46.4718 42.7895 C 46.0807 42.4314 45.7661 41.9791 45.3628 41.6403 C 45.3148 41.6946 45.2683 41.752 45.224 41.8088 C 45.0168 42.0708 44.8383 42.3627 44.5809 42.5773 C 43.7548 43.2664 42.4763 42.9187 41.4839 43.3144 C 41.3802 43.5552 41.2527 43.7802 41.0718 43.9714 C 40.9966 44.0507 40.9115 44.1223 40.8104 44.1601 C 40.4062 44.3162 40.0213 43.8863 39.8662 43.4823 C 39.711 43.0783 39.5949 42.5934 39.2018 42.4152 C 38.9601 42.3043 38.6751 42.3466 38.4249 42.2637 C 38.0515 42.1402 37.824 41.7715 37.5001 41.5525 C 36.9216 41.163 36.115 41.3095 35.5316 41.6916 C 34.9478 42.0766 34.5265 42.6511 34.0685 43.1754 C 33.5861 43.7262 33.0522 44.2314 32.4772 44.6826 C 32.1863 44.9102 31.8795 45.1302 31.6874 45.4442 C 31.5646 45.6395 31.4967 45.8586 31.4613 46.0839 M 24.0476 18.7483 C 24.121 18.9896 24.1464 19.2406 24.1066 19.4935 C 24.103 19.5162 24.097 19.5416 24.0931 19.5663 C 24.0487 19.5593 24.0059 19.5546 23.9611 19.5496 C 23.9481 19.8836 23.9489 20.2198 23.9116 20.5541 C 23.9031 20.6337 23.8927 20.7131 23.8799 20.7941 C 23.8465 21.0065 23.8023 21.2172 23.7589 21.429 C 23.7136 21.6395 23.6711 21.8525 23.638 22.0629 C 23.577 22.4511 23.5532 22.8341 23.6357 23.2175 C 23.6871 23.4574 23.7916 23.7006 23.9915 23.8393 C 24.1725 23.9629 24.4061 23.9834 24.6096 24.0671 C 25.3295 24.3624 25.6151 25.3852 26.3844 25.5142 C 26.89 25.6017 27.4463 25.2438 27.9006 25.4832 C 28.2018 25.6409 28.3275 26.0007 28.4247 26.3288 C 28.8025 27.5766 29.0913 28.773 29.313 30.0549 C 29.4804 31.0247 29.6985 32.1168 30.5852 32.6904 C 31.792 33.4753 33.4537 32.7758 34.8131 33.2466 C 35.8854 33.6186 36.5687 34.636 37.3521 35.4607 C 38.1316 36.2847 39.3245 36.9904 40.3554 36.5178 C 41.0646 36.1919 41.4822 35.39 42.2151 35.1256 C 43.1645 34.7849 44.2115 35.4789 45.2031 35.2885 C 45.5193 35.2279 45.8145 35.0759 46.1201 34.9862 C 46.12 34.472 46.1159 33.9571 46.1241 33.4411 C 46.1174 33.4259 46.1125 33.412 46.1093 33.3932 C 46.0963 33.3537 46.0921 33.3096 46.0985 33.2691 C 46.1017 33.2483 46.1091 33.2272 46.119 33.2095 C 46.1219 33.2039 46.1268 33.1986 46.1319 33.1913 C 46.1485 32.5774 46.3045 32.0159 46.2874 31.3845 C 46.2486 29.86 46.0463 28.3392 45.686 26.8573 C 45.5689 26.3722 45.433 25.8842 45.2581 25.4123 C 45.1081 25.575 44.9374 25.7202 44.7591 25.8441 C 44.2887 26.17 43.6831 26.4423 43.5502 26.9984 C 43.5446 27.0208 43.5406 27.0465 43.537 27.0692 C 43.4894 27.3724 43.5834 27.6889 43.5472 27.996 C 43.5451 28.0098 43.5427 28.0246 43.5406 28.0385 C 43.3983 28.9434 42.1255 29.3132 41.3142 28.8588 C 40.4906 28.3993 40.0889 27.4444 39.8446 26.5324 C 39.6184 25.6981 39.5077 24.5601 38.8705 23.9194 C 38.6657 23.7152 38.3642 23.5787 38.0841 23.648 C 37.8518 23.7026 37.6632 23.8846 37.4313 23.9372 C 37.06 24.0195 36.671 23.7185 36.601 23.3461 C 36.584 23.2544 36.5825 23.161 36.5966 23.0711 C 36.6402 22.7935 36.8195 22.5352 37.0624 22.3811 C 37.385 22.1767 37.8243 22.1192 38.039 21.8027 C 38.1023 21.7094 38.1374 21.6086 38.154 21.5029 C 38.2049 21.1789 38.0831 20.8074 38.0704 20.4633 C 38.0665 20.3524 38.0757 20.2425 38.0923 20.1368 C 38.1633 19.6853 38.3953 19.2591 38.5997 18.8408 C 38.974 18.0696 39.2601 17.2541 39.455 16.4192 C 39.4725 16.3471 39.4879 16.2746 39.5028 16.199 C 37.2205 16.0225 35.2716 14.1441 33.1376 13.3714 C 33.0857 13.3926 33.0349 13.413 32.985 13.4345 C 32.921 13.4619 32.854 13.4949 32.823 13.5568 C 32.8166 13.572 32.8123 13.5865 32.8098 13.6023 C 32.798 13.6774 32.8349 13.7581 32.8552 13.8352 C 32.8737 13.9171 32.8784 13.9968 32.8663 14.0738 C 32.8374 14.2576 32.733 14.4325 32.6283 14.6094 C 32.5232 14.7882 32.4167 14.9699 32.3864 15.1625 C 32.3832 15.1833 32.3821 15.2033 32.3809 15.2234 C 32.3634 15.4575 32.4651 15.6992 32.4292 15.9274 C 32.4247 15.9561 32.4184 15.9834 32.4092 16.0093 C 32.3192 16.2857 32.0131 16.4238 31.7394 16.5226 C 31.7263 16.5286 31.7145 16.5328 31.7006 16.5377 C 31.9442 16.5659 32.1781 16.6816 32.4364 16.7961 C 32.9785 17.0311 33.5278 17.1751 34.0362 17.496 C 34.296 17.6593 34.5534 17.8698 34.6418 18.1641 C 34.6528 18.1972 34.6589 18.2356 34.6533 18.2712 C 34.65 18.2919 34.6417 18.3129 34.6249 18.3295 L 34.5209 18.3729 C 34.0048 18.4557 33.5089 18.1521 33.1081 17.8168 C 32.9535 17.6862 32.7996 17.5446 32.6111 17.4754 C 31.9109 17.2156 31.134 17.4761 30.4528 17.6565 C 29.7306 17.8457 28.9687 17.7472 28.2283 17.647 C 27.7812 17.5869 27.3133 17.5174 26.9433 17.2568 C 27.8106 17.2706 28.6803 17.2828 29.5464 17.2985 C 29.8405 17.3012 30.1471 17.3018 30.4126 17.1714 C 30.6223 17.0677 30.7858 16.89 30.9746 16.7516 C 30.7853 16.7836 30.5952 16.7891 30.4064 16.7473 C 29.7687 16.6117 29.2967 15.9757 28.6477 15.9314 C 28.2784 15.9047 27.928 16.0794 27.5739 16.1817 C 27.1143 16.317 26.6285 16.3418 26.1693 16.4751 C 25.1182 16.7736 24.2715 17.6842 24.0476 18.7483 " stroke-width="0.9999999731755018"/>
      <path id="ID0.3595845615491271" fill="#848483" d="M 26.9375 17.2549 C 27.308 17.5125 27.7759 17.582 28.2228 17.6431 C 28.9642 17.7435 29.7272 17.8421 30.4486 17.6508 C 31.1304 17.4735 31.9064 17.2118 32.6066 17.4717 C 32.7951 17.5408 32.9482 17.6813 33.1039 17.811 C 33.5034 18.1482 33.9993 18.4518 34.5164 18.3691 L 34.6214 18.3259 C 34.6364 18.308 34.6452 18.2902 34.6488 18.2674 C 34.6539 18.2348 34.6458 18.1961 34.6363 18.1602 C 34.5479 17.8659 34.2902 17.6574 34.0317 17.4922 C 33.5223 17.1712 32.9747 17.0295 32.4319 16.7924 C 32.1741 16.681 31.9402 16.5653 31.6952 16.5338 C 31.4597 16.6213 31.2164 16.7076 30.9701 16.7478 C 30.7814 16.8862 30.6168 17.0638 30.4068 17.1695 C 30.1437 17.2982 29.8351 17.2973 29.5412 17.2926 C 28.6729 17.2786 27.8052 17.2667 26.9375 17.2549 " stroke-width="0.9999999731755018"/>
      <path id="ID0.5471847211010754" fill="#848483" d="M 49.5025 29.6254 C 49.5756 30.1329 49.6503 30.6427 49.722 31.153 C 49.7934 31.645 49.8658 32.1443 50.0578 32.6037 C 50.2601 33.0941 50.5944 33.5303 50.7212 34.0442 C 50.8082 34.3919 50.7941 34.746 50.738 35.1026 C 50.6853 35.4385 50.595 35.7746 50.5183 36.1016 C 50.5048 36.1552 50.4947 36.2062 50.4862 36.2606 C 50.4507 36.4868 50.4482 36.7152 50.4471 36.9408 C 50.4458 37.1683 50.4442 37.3908 50.4099 37.6091 C 50.3972 37.6901 50.3792 37.7723 50.3546 37.8514 C 50.3078 38.0141 50.2281 38.1798 50.0771 38.2583 C 49.9567 38.3224 49.81 38.3155 49.6742 38.3033 C 49.3846 38.278 49.097 38.2338 48.8132 38.172 C 48.7548 38.1568 48.6942 38.1432 48.6348 38.1602 C 48.5244 38.1863 48.4743 38.2928 48.4555 38.4124 C 48.4456 38.4756 48.4444 38.5473 48.4469 38.6084 C 48.4489 38.6087 48.4529 38.6094 48.4545 38.6116 C 48.5532 38.6474 48.6496 38.6777 48.7509 38.7099 C 49.0026 38.7828 49.2589 38.8332 49.5149 38.7824 C 49.6963 38.7491 49.8716 38.6643 50.0546 38.6718 C 50.193 38.6733 50.328 38.729 50.4607 38.6962 C 50.7085 38.6399 50.8011 38.3407 50.8418 38.0879 C 50.8437 38.0761 50.8457 38.0633 50.8475 38.0514 C 50.9646 37.3065 50.9553 36.5995 50.94 35.8592 C 50.9376 35.7201 50.9515 35.5866 50.9728 35.4513 C 50.9943 35.314 51.0253 35.1751 51.0558 35.0392 C 51.0859 34.8992 51.1162 34.7642 51.1378 34.6269 C 51.1811 34.3513 51.191 34.0755 51.1001 33.7909 C 51.0104 33.5116 50.834 33.2683 50.6978 33.008 C 50.1422 31.9377 50.275 30.5516 49.5025 29.6254 " stroke-width="0.9999999731755018"/>
      <path id="ID0.5583068816922605" fill="#848483" d="M 46.096 33.2656 C 46.0896 33.3061 46.0948 33.3505 46.1055 33.3916 C 46.1109 33.4087 46.1165 33.4247 46.1213 33.4397 C 46.1882 33.6061 46.3432 33.7276 46.5053 33.8108 C 46.6815 33.9002 46.8768 33.9522 47.0516 34.0444 C 47.3971 34.2293 47.6514 34.576 47.7215 34.9606 C 47.7799 35.2785 47.757 35.5654 48.0019 35.8175 L 48.0811 35.8674 C 48.1509 35.8743 48.1964 35.7904 48.2093 35.7215 C 48.2121 35.7098 48.2139 35.699 48.2157 35.6871 C 48.3437 34.8731 47.3961 33.9781 46.909 33.445 C 46.7409 33.2587 46.5246 33.0566 46.2765 33.1027 C 46.217 33.1136 46.1599 33.1421 46.1252 33.1892 C 46.1203 33.1945 46.1154 33.1998 46.1122 33.2074 C 46.1053 33.2256 46.0994 33.2439 46.096 33.2656 " stroke-width="0.9999999731755018"/>
      <path id="ID0.19084409205242991" fill="#949494" d="M 50.3441 28.3344 C 50.3314 28.4154 50.3285 28.498 50.327 28.5787 C 50.3224 29.6064 50.5134 30.7034 51.0912 31.5676 C 51.2059 31.7395 51.3345 31.9065 51.4607 32.0701 C 51.7376 32.4335 52.0016 32.8019 52.0871 33.2435 C 52.1565 33.6067 52.094 33.9785 52.0479 34.3428 C 51.9348 35.2168 51.9267 36.1641 52.4101 36.9011 C 52.4396 35.6505 52.4714 34.3982 52.5011 33.1467 C 52.5148 32.6214 52.62 32.0103 52.4553 31.5127 C 52.2847 30.994 51.9782 30.4903 51.7361 30.0017 C 51.4634 29.4568 51.3808 28.9518 51.2253 28.3696 C 51.167 28.155 51.0701 27.908 50.8551 27.859 C 50.6891 27.8207 50.515 27.93 50.4286 28.0804 C 50.3839 28.1584 50.3584 28.2435 50.3441 28.3344 " stroke-width="0.9999999731755018"/>
      <path id="ID0.9071974046528339" fill="#585857" d="M 28.4336 56.6145 C 28.6951 56.7345 28.9319 56.954 29.1332 57.1678 C 29.7057 57.7761 30.4074 58.0645 31.2452 58.1182 C 31.9143 58.1637 32.5838 57.9804 33.1917 57.7004 C 33.4743 57.5707 33.7642 57.4006 33.8946 57.1185 C 33.5646 57.1182 33.236 57.0838 32.9069 57.0523 C 31.4172 56.9083 29.926 56.761 28.4336 56.6145 M 27.3569 56.509 C 27.423 56.5589 27.4903 56.6069 27.5616 56.6556 C 27.643 56.6147 27.7279 56.5764 27.8144 56.5546 C 27.663 56.5389 27.5096 56.5229 27.3569 56.509 " stroke-width="0.9999999731755018"/>
      <path id="ID0.9793821237981319" fill="#90908F" d="M 24.5443 51.6818 C 25.2024 51.8034 25.8575 51.9378 26.5091 52.0878 C 27.0543 52.2129 27.6035 52.3509 28.1614 52.3242 C 28.7335 52.2977 29.2819 52.0994 29.8097 51.8777 C 30.331 51.659 30.8263 51.3157 31.3081 50.9744 C 31.3593 50.9389 31.4094 50.9032 31.4609 50.8658 C 31.3347 50.7923 31.1987 50.7497 31.047 50.7491 C 30.8683 50.7524 30.7009 50.8192 30.5408 50.8973 C 30.0413 51.1448 29.545 51.5203 28.9921 51.4445 C 28.6935 51.4057 28.4294 51.2376 28.1604 51.1002 C 27.5834 50.804 26.9272 50.632 26.2793 50.6901 C 25.6308 50.7522 24.9931 51.0609 24.6097 51.5878 C 24.5865 51.6196 24.5645 51.6495 24.5443 51.6818 M 23.5832 54.3833 C 23.5787 54.412 23.576 54.4419 23.5761 54.4733 C 23.5756 54.6119 23.6306 54.7451 23.6908 54.8709 C 23.938 55.3977 24.1783 55.9042 24.6734 56.2512 C 25.0657 56.5245 25.5207 56.6891 25.9713 56.849 C 26.2503 56.9485 26.5438 57.0453 26.8342 56.9947 C 27.0981 56.9451 27.3226 56.779 27.5635 56.6569 C 27.4941 56.6085 27.4268 56.5605 27.3587 56.5103 C 27.5095 56.5239 27.6648 56.5402 27.816 56.5569 C 27.8577 56.5432 27.8992 56.5366 27.9416 56.5311 C 28.1161 56.5089 28.2802 56.5468 28.434 56.6186 C 29.9255 56.7639 31.417 56.9093 32.9085 57.0546 C 33.2366 57.0859 33.5663 57.1205 33.8962 57.1207 C 33.8965 57.1188 33.8969 57.1168 33.8978 57.117 C 33.9301 57.0471 33.9485 56.9751 33.9607 56.8971 C 33.9853 56.741 33.9739 56.5752 33.9515 56.4148 C 33.8646 55.8018 33.5785 55.1424 32.9964 54.9305 C 32.8567 54.8792 32.681 54.8313 32.6443 54.6848 C 32.6366 54.6563 32.6353 54.6257 32.6398 54.5971 C 32.6507 54.5279 32.6877 54.4598 32.721 54.3962 C 32.7962 54.2461 32.8434 54.0875 32.8692 53.9235 C 32.9207 53.5955 32.882 53.2493 32.7858 52.9275 C 32.7731 52.886 32.7591 52.8464 32.7454 52.8047 C 31.8564 53.1155 30.8451 53.1286 29.9027 53.3085 C 29.3598 53.4135 28.8231 53.5761 28.2713 53.5764 C 27.6847 53.5794 27.1138 53.3925 26.5721 53.1747 C 25.8011 52.8633 25.0645 52.4812 24.3245 52.1078 C 24.0841 52.6967 24.0128 53.3697 23.7468 53.9545 C 23.6831 54.0954 23.6065 54.2351 23.5832 54.3833 " stroke-width="0.9999999731755018"/>
      <path id="ID0.35271187499165535" fill="#ABABAA" d="M 24.3255 52.108 C 25.0661 52.4835 25.8016 52.8664 26.5731 53.1749 C 27.1155 53.3948 27.6857 53.5796 28.272 53.5786 C 28.8247 53.5784 29.3638 53.4141 29.9047 53.3088 C 30.8461 53.1288 31.8574 53.1156 32.7474 52.805 C 32.5944 52.3741 32.353 51.9778 32.1104 51.5894 C 31.9385 51.3174 31.7257 51.0228 31.4587 50.8665 C 31.4076 50.9019 31.3565 50.9374 31.305 50.9749 C 30.8235 51.3143 30.3302 51.6578 29.8076 51.8784 C 29.2798 52.1001 28.7316 52.2964 28.1596 52.3229 C 27.6017 52.3496 27.0511 52.2135 26.506 52.0883 C 25.8557 51.9365 25.1996 51.802 24.5415 51.6803 C 24.4574 51.8159 24.3853 51.9595 24.3255 52.108 " stroke-width="0.9999999731755018"/>
      <path id="ID0.08570561464875937" fill="#6D6D6C" d="M 50.0803 44.8072 C 50.1168 44.7552 50.1522 44.7041 50.188 44.65 C 50.1525 44.7021 50.1168 44.7552 50.0803 44.8072 M 44.9283 49.1064 C 47.5163 48.9736 48.7641 46.7413 50.0803 44.8072 C 48.8043 46.614 46.6161 47.752 44.9283 49.1064 " stroke-width="0.9999999731755018"/>
    </g>
  </g>
</svg>