<?xml version="1.0" encoding="utf-8"?><!-- Generator: Adobe Illustrator 16.0.0, SVG Export Plug-In . SVG Version: 6.00 Build 0)  --><!DOCTYPE svg PUBLIC "-//W3C//DTD SVG 1.0//EN" "http://www.w3.org/TR/2001/REC-SVG-20010904/DTD/svg10.dtd"><svg xmlns="http://www.w3.org/2000/svg" xmlns:xlink="http://www.w3.org/1999/xlink" version="1.0" id="Calque_1" x="0px" y="0px" width="33.40509796142578" height="53.86201477050781" viewBox="5.797178268432617 5.320000171661377 33.40509796142578 53.86201477050781" enable-background="new 0 0 45 64.5" xml:space="preserve">
<g id="fille">
	<g>
		<g>
			<g>
				<g>
					<path fill="#8D5E1B" d="M37.198,20.269c-0.01,0.006-0.016,0.011-0.025,0.016C37.183,20.277,37.19,20.273,37.198,20.269z" stroke-width="1"/>
				</g>
				<g>
					<path d="M37.198,20.269h0.003 M37.198,20.269c-0.004,0.003-0.01,0.006-0.014,0.009C37.19,20.273,37.194,20.271,37.198,20.269        M37.187,20.275c-0.004,0.003-0.008,0.005-0.012,0.008C37.177,20.281,37.183,20.278,37.187,20.275 M37.197,19.338       c-0.08,0-0.162,0.011-0.242,0.032c-0.085,0.021-0.166,0.058-0.24,0.103c-0.007,0.004-0.016,0.011-0.021,0.013       c-0.438,0.262-0.582,0.827-0.323,1.27c0.173,0.294,0.483,0.459,0.802,0.459c0.158,0,0.318-0.041,0.465-0.125       c0.002-0.002,0.004-0.002,0.006-0.004c0.289-0.157,0.485-0.465,0.485-0.816c0-0.502-0.397-0.91-0.896-0.93       C37.224,19.338,37.21,19.338,37.197,19.338L37.197,19.338z" stroke-width="1" fill="undefined"/>
				</g>
			</g>
			<g>
				<g>
					<path fill="#8D5E1B" d="M28.072,58.218c-0.188,0-0.378-0.011-0.565-0.026c-0.841-0.071-1.673-0.228-2.479-0.376l0.031-0.469       l-0.086,0.457c-0.418-0.077-0.939-0.175-1.347-0.481c-0.134-0.103-0.226-0.214-0.278-0.346       C23.29,56.834,23.29,56.7,23.29,56.62c0-0.431,0.027-0.865,0.085-1.288c0.022-0.171,0.039-0.341,0.056-0.51       c0.014-0.165,0.03-0.33,0.051-0.497c0.027-0.205,0.102-0.341,0.188-0.432c0.013-0.09,0.022-0.18,0.033-0.271       c0,0,0.082-0.804,0.103-0.979c0.012-0.126,0.051-0.231,0.116-0.316c0.015-0.136,0.027-0.271,0.037-0.406       c0.015-0.206,0.031-0.418,0.017-0.571c-0.01-0.091-0.035-0.197-0.067-0.314c-0.154-0.041-0.278-0.16-0.324-0.317       c-0.104-0.354-0.2-0.645-0.301-0.901c-0.035,0.003-0.07,0.007-0.104,0.009c-0.398,0.03-0.812,0.047-1.265,0.047       c-0.104,0-0.21-0.002-0.315-0.004c-0.004,0.128-0.011,0.255-0.018,0.382c-0.014,0.234-0.202,0.423-0.438,0.438       c-0.069,0.004-0.14,0.006-0.209,0.008c-0.035,0.177-0.078,0.346-0.139,0.521c-0.13,0.378-0.302,0.689-0.455,0.964       c-0.064,0.115-0.129,0.229-0.195,0.34c0.062,0.299-0.115,0.553-0.181,0.644c-0.067,0.096-0.126,0.198-0.178,0.299       c0.134,0.312,0.034,0.615-0.067,0.836c0.03,0.097,0.039,0.201,0.019,0.306c-0.005,0.032-0.013,0.063-0.024,0.094       c0.115,0.127,0.178,0.297,0.164,0.475c0.08,0.039,0.168,0.072,0.264,0.1l0.1,0.027c0.236,0.063,0.531,0.143,0.781,0.367       c0.336,0.301,0.47,0.771,0.396,1.395c-0.01,0.076-0.027,0.236-0.129,0.388c-0.211,0.309-0.572,0.321-0.707,0.328       c-0.195,0.007-0.389,0.01-0.583,0.01c-0.562,0-1.133-0.031-1.694-0.092c-0.635-0.07-1.162-0.479-1.627-0.842       c-0.115-0.089-0.228-0.177-0.336-0.254l-0.041-0.028c-0.347-0.246-0.779-0.555-1.019-1.001       c-0.077-0.146-0.114-0.289-0.106-0.432c0.008-0.155,0.062-0.274,0.094-0.347c0.183-0.393,0.391-0.775,0.621-1.136       c0.092-0.146,0.178-0.294,0.264-0.44c0.083-0.144,0.166-0.286,0.255-0.428c0.082-0.129,0.176-0.223,0.282-0.281       c0.064-0.091,0.128-0.184,0.187-0.28c0.048-0.079,0.083-0.156,0.117-0.233c0.073-0.163,0.155-0.349,0.321-0.536       c0.044-0.049,0.127-0.144,0.266-0.197c0.004-0.002,0.008-0.003,0.012-0.005c0.09-0.146,0.176-0.298,0.26-0.448       c0.074-0.135,0.15-0.272,0.207-0.395c-0.018-0.005-0.213-0.06-0.213-0.06l-3.111-0.821c-0.217-0.058-0.516-0.138-0.754-0.361       c-0.488-0.465-0.381-1.178-0.33-1.521c0,0,0.292-1.963,0.376-2.514c-0.011-0.104-0.019-0.209-0.022-0.312       c-0.011-0.1-0.009-0.158-0.004-0.22c-0.033-0.231,0.034-0.479,0.088-0.68c0.018-0.064,0.034-0.129,0.047-0.195       c0.016-0.072,0.029-0.146,0.041-0.219l-1.095-2.771c-0.212-0.537-0.532-1.348-0.388-2.261c0.098-0.627,0.38-1.118,0.66-1.568       c0.007-0.013,0.015-0.023,0.021-0.036c-0.729,0.261-1.477,0.396-2.214,0.402h-0.056c-0.18,0-0.358-0.007-0.537-0.014       c-0.167-0.006-0.333-0.013-0.5-0.013c-0.235,0-0.426,0.014-0.596,0.043c-0.375,0.065-0.862,0.282-0.994,0.683       c-0.064,0.192-0.244,0.317-0.441,0.317c-0.027,0-0.055-0.002-0.082-0.007c-0.227-0.041-0.391-0.241-0.384-0.474       c0.043-1.388,0.165-3.01,0.743-4.511c0.625-1.626,1.754-2.905,3.099-3.507c0.25-0.113,0.506-0.201,0.753-0.287       c0.412-0.144,0.801-0.279,1.121-0.503c0.65-0.455,0.788-0.989,0.979-1.729c0.016-0.062,0.031-0.122,0.049-0.185       c-0.91-0.115-1.711-0.658-2.062-1.422c-0.306-0.668-0.363-1.387-0.172-2.051c-0.048-0.067-0.095-0.136-0.141-0.205       c-0.049-0.074-0.094-0.152-0.135-0.23c-1.807-0.1-3.096-0.278-3.838-0.53c-0.014-0.005-0.029-0.011-0.043-0.016       c-0.01-0.003-0.039-0.016-0.039-0.016c-0.072-0.026-0.151-0.06-0.222-0.094c-0.005-0.002-0.153-0.071-0.153-0.071       c-0.078-0.039-0.168-0.097-0.238-0.153c-0.106-0.084-0.332-0.263-0.451-0.605c-0.161-0.464,0.011-0.957,0.461-1.323       l3.891-3.108c0.014-0.012,0.03-0.022,0.045-0.032c0.049-0.04,0.113-0.087,0.188-0.135c0.064-0.974,0.126-1.585,0.134-1.656       c0.05-0.392,0.125-0.962,0.333-1.688c0.116-0.404,0.204-0.619,0.335-0.943c0.076-0.188,0.187-0.401,0.292-0.607       c0.206-0.399,0.557-0.903,0.773-1.159c0.297-0.348,0.604-0.709,1.309-1.254c0.107-0.084,0.7-0.531,1.671-1.057       c0.325-0.175,0.996-0.513,1.849-0.816c0.336-0.119,0.68-0.228,1.027-0.319c0.045-0.184,0.141-0.406,0.342-0.628       c0.225-0.246,0.549-0.416,0.961-0.508c0.463-0.104,1.188-0.172,1.807-0.172c0.138,0,0.27,0.004,0.389,0.011       c0.289,0.019,0.828,0.05,1.258,0.462c0.154,0.146,0.271,0.322,0.344,0.514c1.361,0.184,2.691,0.577,3.961,1.175       c0.263,0.123,1.062,0.498,1.752,1.051c0.388,0.307,0.613,0.529,0.781,0.706c0.356,0.371,0.627,0.753,0.658,0.796       c0.062,0.09,0.25,0.358,0.369,0.572c0.15,0.268,0.307,0.545,0.453,0.896c0.243,0.583,0.432,1.114,0.617,1.963l0.156,0.734       c0.033,0.167,0.074,0.378,0.109,0.559c0.088,0.042,0.168,0.085,0.245,0.133l4.251,2.594l0,0       c0.195,0.133,0.229,0.16,0.297,0.229c0.129,0.131,0.182,0.22,0.232,0.312c0.089,0.163,0.162,0.438,0.102,0.72       c-0.066,0.312-0.22,0.504-0.361,0.649c-0.104,0.105-0.24,0.208-0.416,0.312c-0.006,0.004-0.105,0.062-0.11,0.063       c0,0-0.097,0.051-0.106,0.056c-0.045,0.021-0.093,0.045-0.145,0.068c-0.727,0.326-1.958,0.649-3.662,0.963       c-0.242,1.163-0.706,2.233-1.348,3.112c-0.008,0.053-0.016,0.098-0.021,0.144c-0.032,0.288-0.026,0.586-0.021,0.902       c0.003,0.176,0.006,0.354,0.002,0.529c-0.043,2.229-1.133,4.482-2.92,6.031c-0.574,0.499-1.09,0.798-1.62,0.944       c-0.091,0.024-0.187,0.043-0.29,0.055c-0.004,0.033-0.057,0.42-0.057,0.42c0.183,0.312,0.332,0.606,0.457,0.896       c0.025,0.059,0.037,0.12,0.037,0.184c0,0.049-0.006,0.092-0.017,0.132c0.255,0.458,0.485,0.916,0.688,1.364       c0.555,1.23,0.891,2.572,1.176,3.857c0.098,0.071,0.176,0.176,0.195,0.295c0.078,0.497,0.18,1,0.299,1.491       c0.026,0.106,0.014,0.216-0.03,0.308c0.005,0.02,0.01,0.038,0.014,0.058c0.209,0.117,0.382,0.259,0.517,0.421l-0.322,0.344       l0.357-0.297c0.131,0.146,0.279,0.31,0.395,0.505c0.249,0.331,0.441,0.606,0.607,0.865c0.023,0.038,0.053,0.079,0.082,0.122       c0.195,0.281,0.521,0.75,0.301,1.252c-0.158,0.367-0.521,0.605-0.922,0.605c-0.011,0-0.058-0.002-0.068-0.003       c-0.036-0.003-0.07-0.009-0.104-0.016c-0.029,0.086-0.072,0.17-0.133,0.251c-0.188,0.252-0.49,0.403-0.805,0.403       c-0.102,0-0.201-0.015-0.299-0.045c-0.053-0.017-0.102-0.037-0.146-0.062c-0.045,0.07-0.103,0.137-0.173,0.196       c-0.182,0.153-0.413,0.239-0.652,0.239c-0.177,0-0.353-0.048-0.507-0.138c-0.364-0.213-0.416-0.649-0.446-0.911       c0,0-0.014-0.107-0.017-0.124c-0.147,0.101-0.333,0.156-0.526,0.156c-0.104,0-0.203-0.016-0.297-0.047       c-0.045-0.016-0.088-0.031-0.125-0.051c-0.012,0.191-0.029,0.367-0.05,0.532c-0.021,0.159-0.046,0.316-0.079,0.472       c-0.062,0.29-0.142,0.547-0.242,0.782c0.062,0.114,0.121,0.229,0.176,0.349c0.231,0.506,0.439,1.024,0.631,1.51       c0.086,0.22-0.006,0.47-0.215,0.58c-0.062,0.032-0.125,0.063-0.186,0.093c0.04,0.168,0.073,0.344,0.094,0.53       c0.041,0.402,0.014,0.771-0.008,1.068c-0.009,0.107-0.019,0.216-0.029,0.322c0.051,0.089,0.086,0.207,0.082,0.365       c-0.002,0.122-0.008,0.245-0.014,0.37c-0.005,0.109-0.01,0.22-0.013,0.328c0.26,0.229,0.297,0.549,0.298,0.795       c0.068,0.073,0.118,0.164,0.145,0.267c0.008,0.031,0.014,0.063,0.017,0.096c0.171,0.072,0.305,0.216,0.362,0.399       c0.099,0.06,0.184,0.132,0.25,0.216c0.189,0.069,0.383,0.133,0.576,0.197l0.233,0.075c0.356,0.119,0.616,0.286,0.795,0.511       c0.14,0.175,0.238,0.396,0.292,0.655c0.072,0.351,0.033,0.65-0.117,0.893c-0.154,0.248-0.418,0.421-0.787,0.513       C28.642,58.189,28.375,58.218,28.072,58.218z M26.815,42.918c0.043-0.051,0.09-0.1,0.14-0.146       c-0.03-0.049-0.052-0.104-0.06-0.162c-0.012-0.069-0.094-0.409-0.17-0.73l-0.004,0.602L26.815,42.918z M16.224,40.512       c0.012-0.979,0.043-1.828,0.094-2.639c0.009-0.127,0.017-0.256,0.023-0.384c-0.189,0.3-0.379,0.604-0.57,0.915       c-0.082,0.131-0.25,0.4-0.268,0.51c-0.023,0.148,0.131,0.54,0.225,0.773l0.324,0.822l0.067-0.001       C16.153,40.51,16.188,40.511,16.224,40.512z" stroke-width="1"/>
				</g>
				<g>
					<path d="M22.24,6.75c0.128,0,0.249,0.004,0.358,0.01c0.262,0.017,0.658,0.04,0.965,0.334c0.227,0.216,0.279,0.463,0.289,0.601       c0.873,0.096,2.399,0.354,4.141,1.173c0.25,0.117,1.012,0.477,1.658,0.992c0.367,0.291,0.578,0.5,0.736,0.664       c0.348,0.364,0.61,0.738,0.613,0.742c0.059,0.084,0.237,0.34,0.344,0.531c0.145,0.256,0.293,0.521,0.43,0.85       c0.234,0.558,0.414,1.066,0.593,1.883c0.028,0.126,0.054,0.253,0.081,0.381c0.025,0.114,0.049,0.231,0.072,0.349       c0.051,0.248,0.117,0.594,0.156,0.792c0.137,0.056,0.278,0.12,0.416,0.204c0-0.001-0.002-0.002-0.002-0.002       c-0.021-0.012-0.05-0.023-0.074-0.036c0.024,0.013,0.053,0.024,0.074,0.036c0.002,0.001,0.002,0.002,0.004,0.002l0.002,0.001       c0,0,0-0.001-0.002-0.001l0,0c0,0,0.002,0.001,0.004,0.002c1.414,0.863,2.828,1.727,4.242,2.59       c-0.029-0.018-0.07-0.034-0.105-0.052c0.037,0.019,0.078,0.035,0.109,0.054c0.127,0.086,0.153,0.104,0.204,0.156       c0.095,0.094,0.121,0.146,0.155,0.207c0.05,0.092,0.087,0.252,0.055,0.397c-0.039,0.188-0.125,0.306-0.24,0.425       c-0.09,0.092-0.211,0.173-0.318,0.234c0.011-0.007,0.018-0.013,0.029-0.019c-0.028,0.018-0.059,0.035-0.09,0.053       c0.01-0.006,0.021-0.011,0.03-0.016c-0.022,0.012-0.044,0.024-0.063,0.035c-0.01,0.006-0.02,0.011-0.029,0.016       c-0.016,0.01-0.034,0.019-0.049,0.025c0.011-0.006,0.019-0.011,0.029-0.016c0-0.001,0-0.001,0-0.001s0,0,0,0.001       c-0.054,0.028-0.108,0.055-0.172,0.083c-0.756,0.341-2.117,0.678-3.875,0.988c-0.014,0.081-0.025,0.162-0.041,0.244       c-0.221,1.104-0.668,2.186-1.344,3.078c-0.018,0.094-0.034,0.186-0.044,0.279c-0.054,0.489-0.013,0.984-0.021,1.479       c-0.041,2.17-1.121,4.267-2.76,5.688c-0.421,0.364-0.898,0.698-1.439,0.848c-0.157,0.043-0.324,0.056-0.494,0.056       c-0.029,0-0.059-0.001-0.088-0.001c-0.018,0.161-0.036,0.323-0.059,0.482c-0.021,0.161-0.043,0.321-0.065,0.482       c0.19,0.316,0.366,0.643,0.513,0.981c0,0.022-0.045,0.057-0.107,0.094c0.297,0.514,0.572,1.044,0.819,1.594       c0.571,1.267,0.907,2.672,1.21,4.06c0.041-0.011,0.083-0.016,0.124-0.025c0.082,0.514,0.185,1.023,0.308,1.529       c0-0.006-0.021-0.008-0.053-0.008c-0.014,0-0.031,0-0.05,0.002c0.044,0.195,0.093,0.388,0.138,0.579       c0.224,0.099,0.42,0.229,0.56,0.397c0.012,0.015,0.024,0.031,0.036,0.047c0.132,0.146,0.269,0.296,0.365,0.466       c0.211,0.279,0.416,0.564,0.604,0.857c0.16,0.253,0.488,0.621,0.35,0.938c-0.086,0.197-0.279,0.328-0.498,0.328       c-0.013,0-0.024-0.001-0.037-0.002c-0.217-0.015-0.381-0.316-0.492-0.477c-0.168-0.244-0.329-0.504-0.5-0.752       c-0.016-0.023-0.033-0.045-0.051-0.068c0.101,0.239,0.197,0.48,0.281,0.725c0.098,0.282,0.332,0.718,0.124,0.992       c-0.104,0.138-0.265,0.22-0.435,0.22c-0.053,0-0.107-0.009-0.16-0.025c-0.209-0.064-0.299-0.396-0.369-0.577       c-0.105-0.275-0.204-0.564-0.314-0.846c-0.031-0.081-0.065-0.159-0.101-0.237c0.054,0.295,0.099,0.592,0.13,0.887       c0.032,0.298,0.162,0.773-0.101,0.996c-0.101,0.085-0.226,0.129-0.353,0.129c-0.093,0-0.187-0.022-0.271-0.072       c-0.19-0.11-0.203-0.452-0.229-0.646c-0.043-0.293-0.072-0.598-0.117-0.896c-0.035-0.226-0.082-0.447-0.123-0.672       c-0.004-0.002-0.01-0.003-0.014-0.003c-0.16,0-0.25,0.765-0.279,0.865c-0.031,0.107-0.065,0.207-0.145,0.289       c-0.078,0.08-0.199,0.12-0.316,0.12c-0.053,0-0.104-0.008-0.149-0.023c-0.302-0.099-0.276-0.356-0.254-0.609       c0.024-0.278,0.034-0.559,0.088-0.831c0.04-0.203,0.043-0.461,0.138-0.659c0.09-0.386,0.344-0.656,0.674-0.829       c-0.029-0.126-0.056-0.251-0.084-0.378c-0.076,0.012-0.131,0.021-0.154,0.028c-0.018-0.111-0.334-1.412-0.325-1.413       c0.058-0.004,0.114-0.016,0.171-0.021c-0.244-1.11-0.521-2.214-0.911-3.194c-0.011,1.538-0.022,3.077-0.034,4.616       c0.146,0.679,0.291,1.355,0.437,2.033c0.034,0.164,0.062,0.359-0.056,0.48c-0.045,0.047-0.105,0.073-0.166,0.096       c-0.076,0.029-0.154,0.043-0.233,0.062c0,0.051,0,0.101-0.001,0.15c-0.001,0.146-0.003,0.293-0.008,0.441       c-0.008,0.298-0.025,0.598-0.062,0.893c-0.02,0.146-0.042,0.293-0.072,0.436c-0.062,0.283-0.146,0.558-0.269,0.808       c-0.013,0.029-0.032,0.053-0.047,0.08c0.099,0.175,0.196,0.351,0.28,0.533c0.222,0.484,0.424,0.984,0.619,1.483       c-0.168,0.091-0.345,0.164-0.522,0.233c0.081,0.271,0.155,0.546,0.187,0.849c0.037,0.36,0.012,0.693-0.01,0.986       c-0.013,0.186-0.033,0.365-0.052,0.547c0.022,0.001,0.043,0.006,0.062,0.019c0.043,0.03,0.045,0.092,0.045,0.145       c-0.008,0.326-0.035,0.662-0.031,0.992c0.058,0.01,0.111,0.027,0.15,0.06c0.194,0.155,0.146,0.462,0.145,0.715c0,0,0,0,0.001,0       c0.075,0,0.146,0.047,0.166,0.123c0.022,0.089-0.028,0.178-0.115,0.204c0.031,0.092,0.077,0.177,0.136,0.25       c0.053-0.017,0.104-0.04,0.157-0.055c0.015-0.003,0.029-0.005,0.043-0.005c0.075,0,0.146,0.052,0.164,0.128       c0.015,0.057-0.003,0.111-0.038,0.152c0.066,0.023,0.133,0.047,0.197,0.077c0.097,0.048,0.188,0.123,0.225,0.221       c0.281,0.11,0.571,0.202,0.862,0.299c0.036,0.011,0.073,0.023,0.108,0.035c0.219,0.072,0.437,0.18,0.582,0.359       c0.104,0.133,0.166,0.295,0.199,0.461c0.039,0.187,0.043,0.392-0.057,0.552c-0.107,0.172-0.309,0.258-0.505,0.307       c-0.229,0.057-0.466,0.076-0.701,0.076c-0.176,0-0.353-0.011-0.526-0.025c-0.82-0.069-1.631-0.221-2.438-0.371       c-0.397-0.073-0.868-0.153-1.199-0.404c-0.053-0.04-0.103-0.089-0.128-0.151c-0.023-0.057-0.023-0.119-0.023-0.181       c0-0.409,0.025-0.819,0.08-1.227c0.047-0.341,0.064-0.672,0.107-1.01c0.01-0.076,0.029-0.164,0.1-0.193       c0.016-0.006,0.036-0.005,0.055-0.006c0.025-0.17,0.049-0.34,0.067-0.51c0.036-0.326,0.065-0.654,0.103-0.979       c0.004-0.041,0.012-0.087,0.047-0.108c0.014-0.009,0.031-0.013,0.047-0.013c0,0,0.001,0,0.002,0       c0.021-0.205,0.044-0.412,0.061-0.622c0.018-0.236,0.033-0.459,0.014-0.65c-0.021-0.205-0.09-0.435-0.172-0.689       c-0.002-0.01-0.006-0.018-0.01-0.026c-0.009,0-0.019,0-0.029,0c-0.043,0-0.088,0.002-0.133,0.002c-0.021,0-0.043,0-0.065-0.002       c-0.13-0.443-0.271-0.867-0.451-1.271c-0.146,0.021-0.291,0.034-0.435,0.045c-0.409,0.031-0.82,0.045-1.23,0.045       c-0.255,0-0.511-0.006-0.765-0.014c-0.009,0.277-0.017,0.554-0.033,0.83c-0.065,0.004-0.132,0.006-0.198,0.006       c-0.125,0-0.25-0.006-0.373-0.014c-0.041,0.282-0.091,0.562-0.188,0.85c-0.117,0.34-0.28,0.632-0.423,0.891       c-0.104,0.188-0.215,0.371-0.323,0.556c0.024,0.019,0.054,0.033,0.067,0.062c0.051,0.106-0.024,0.227-0.092,0.322       c-0.137,0.193-0.242,0.403-0.34,0.615c0.045,0.034,0.083,0.07,0.105,0.115c0.111,0.223-0.062,0.479-0.168,0.708       c0.068,0.03,0.111,0.104,0.098,0.183c-0.014,0.082-0.086,0.14-0.167,0.14c-0.007,0-0.015-0.001-0.021-0.002       c-0.011,0.096-0.004,0.191,0.018,0.282c0.055,0.008,0.109,0.008,0.165,0.019c0.092,0.018,0.153,0.104,0.136,0.197       c-0.01,0.059-0.053,0.095-0.104,0.116c0.052,0.053,0.104,0.104,0.15,0.158c0.018,0.021,0.031,0.045,0.045,0.067       c0.151,0.094,0.324,0.167,0.508,0.22c0.246,0.07,0.504,0.118,0.701,0.295c0.264,0.236,0.285,0.642,0.244,0.994       c-0.008,0.062-0.017,0.127-0.052,0.179c-0.071,0.104-0.214,0.12-0.34,0.124c-0.188,0.008-0.378,0.012-0.566,0.012       c-0.549,0-1.097-0.03-1.642-0.091c-0.645-0.069-1.223-0.64-1.745-1.011c-0.33-0.234-0.724-0.503-0.918-0.87       c-0.031-0.06-0.056-0.124-0.054-0.19c0.004-0.062,0.029-0.118,0.054-0.176c0.172-0.371,0.368-0.731,0.589-1.078       c0.186-0.289,0.34-0.582,0.521-0.871c0.039-0.062,0.093-0.133,0.164-0.133c0.002,0,0.004,0,0.008,0       c0,0,0.002,0.002,0.005,0.002c0.1-0.142,0.202-0.284,0.295-0.436c0.151-0.248,0.194-0.482,0.391-0.707       c0.025-0.027,0.052-0.057,0.087-0.07c0.014-0.006,0.029-0.008,0.045-0.008c0.023,0,0.049,0.006,0.072,0.014       c0.133-0.219,0.264-0.439,0.389-0.667c0.116-0.208,0.225-0.404,0.287-0.585c0.039-0.11,0.064-0.239,0.088-0.379       c-0.227-0.035-0.434-0.102-0.668-0.163c-1.037-0.273-2.072-0.548-3.11-0.821c-0.198-0.053-0.405-0.11-0.554-0.251       c-0.283-0.271-0.248-0.726-0.188-1.112c0.128-0.857,0.255-1.716,0.386-2.573c-0.014-0.113-0.021-0.229-0.027-0.344       c-0.002-0.021-0.004-0.039-0.006-0.06c-0.004-0.051,0.002-0.102,0.004-0.153c-0.037-0.267,0.074-0.511,0.125-0.771       c0.024-0.119,0.045-0.237,0.065-0.356l-1.144-2.896c-0.205-0.518-0.485-1.228-0.361-2.016c0.084-0.541,0.33-0.969,0.595-1.396       c0.296-0.478,0.585-0.939,0.875-1.397c-1.047,0.646-2.239,1.044-3.465,1.054c-0.017,0-0.034,0-0.052,0       c-0.346,0-0.693-0.027-1.039-0.027c-0.227,0-0.451,0.013-0.674,0.052c-0.579,0.1-1.17,0.435-1.355,0.993       c0.047-1.479,0.18-2.979,0.713-4.358c0.53-1.382,1.504-2.646,2.854-3.25c0.646-0.289,1.369-0.428,1.949-0.834       c0.974-0.68,1.011-1.533,1.312-2.543c0.021-0.069,0.04-0.139,0.061-0.207c-0.084,0.01-0.168,0.014-0.254,0.014       c-0.817,0-1.66-0.438-1.996-1.174c-0.295-0.645-0.319-1.324-0.078-1.936c-0.092-0.123-0.184-0.249-0.27-0.382       c-0.089-0.136-0.16-0.28-0.234-0.426c-1.934-0.097-3.324-0.285-4.032-0.543l0,0l0,0c-0.073-0.025-0.138-0.053-0.196-0.08       c-0.01-0.006-0.021-0.01-0.031-0.015s-0.019-0.011-0.027-0.015c-0.029-0.015-0.061-0.027-0.086-0.039       c-0.051-0.025-0.114-0.066-0.157-0.102c-0.091-0.072-0.228-0.181-0.302-0.396c-0.057-0.161-0.09-0.481,0.314-0.812       c0.001-0.002,0.003-0.002,0.004-0.004l0,0L7.59,20.723c0,0,0-0.001,0.001-0.002l0,0c0.03-0.023,0.068-0.047,0.106-0.071       c0.008-0.005,0.016-0.011,0.024-0.016c-0.009,0.005-0.017,0.011-0.024,0.016c-0.039,0.024-0.077,0.048-0.106,0.071l0,0       c1.295-1.033,2.588-2.068,3.883-3.103c0.002-0.003,0.004-0.003,0.006-0.006c0.119-0.094,0.248-0.176,0.386-0.253       c0.071-1.154,0.146-1.877,0.147-1.882c0.049-0.388,0.119-0.918,0.317-1.605c0.108-0.376,0.188-0.572,0.319-0.897       c0.072-0.177,0.175-0.377,0.273-0.57c0.188-0.362,0.516-0.839,0.715-1.069c0.295-0.349,0.575-0.677,1.238-1.188       c0.104-0.081,0.673-0.509,1.607-1.015c0.312-0.168,0.959-0.494,1.783-0.788c0.51-0.181,0.957-0.303,1.297-0.385       c-0.002-0.139,0.002-0.403,0.261-0.688c0.157-0.174,0.399-0.297,0.717-0.367C20.972,6.812,21.671,6.75,22.24,6.75        M22.655,7.627L22.655,7.627L22.655,7.627c-0.004,0-0.008,0-0.01,0c-0.004,0-0.008,0-0.012,0c0.004,0,0.008,0,0.012,0       S22.653,7.627,22.655,7.627L22.655,7.627L22.655,7.627c0.013,0,0.025,0,0.037,0c0.011,0.001,0.023,0.001,0.035,0.001       c-0.012,0-0.023,0-0.035-0.001C22.681,7.627,22.669,7.627,22.655,7.627L22.655,7.627L22.655,7.627 M22.95,7.63       c0,0,0.001,0,0.002,0l0,0c0.018,0.001,0.036,0.001,0.054,0.001c-0.018,0-0.036,0-0.054-0.001l0,0       C22.951,7.63,22.951,7.63,22.95,7.63c-0.012-0.001-0.023-0.001-0.034-0.001C22.927,7.629,22.938,7.629,22.95,7.63        M23.245,7.641c0.001,0,0.002,0,0.004,0C23.248,7.641,23.247,7.641,23.245,7.641c-0.025-0.001-0.053-0.002-0.078-0.004       C23.194,7.639,23.22,7.64,23.245,7.641 M21.944,7.648c-0.018,0-0.033,0.002-0.051,0.002c-0.02,0.002-0.039,0.002-0.06,0.004       c0.021-0.002,0.04-0.002,0.06-0.004C21.91,7.65,21.927,7.648,21.944,7.648 M21.476,7.678c-0.01,0-0.021,0.002-0.029,0.002       C21.456,7.68,21.466,7.678,21.476,7.678c0.022-0.002,0.045-0.004,0.068-0.006C21.521,7.674,21.498,7.676,21.476,7.678        M21.038,7.715c0.016-0.001,0.029-0.002,0.046-0.004C21.069,7.713,21.054,7.714,21.038,7.715 M21.026,7.717       c0.004,0,0.007,0,0.01-0.001l0,0C21.032,7.717,21.029,7.717,21.026,7.717 M20.74,7.749c-0.017,0.002-0.032,0.004-0.05,0.006       c-0.016,0.003-0.03,0.005-0.047,0.007c0.016-0.002,0.031-0.004,0.047-0.007C20.708,7.752,20.724,7.751,20.74,7.749        M20.336,7.805c0.019-0.004,0.039-0.006,0.058-0.009C20.375,7.799,20.354,7.801,20.336,7.805 M20.06,7.854       c-0.004,0.002-0.006,0.002-0.01,0.002C20.052,7.855,20.056,7.855,20.06,7.854 M31.876,15.811       c-0.027-0.006-0.054-0.012-0.082-0.018C31.821,15.799,31.849,15.805,31.876,15.811 M33.144,18.165       c-0.037-0.002-0.076-0.003-0.112-0.005C33.067,18.162,33.106,18.163,33.144,18.165 M33.849,18.209       c-0.1-0.008-0.207-0.013-0.311-0.02C33.642,18.195,33.749,18.201,33.849,18.209 M34.499,18.262       c-0.12-0.011-0.249-0.021-0.375-0.031C34.25,18.241,34.379,18.251,34.499,18.262 M35.091,18.322       c-0.113-0.014-0.236-0.025-0.355-0.036C34.854,18.297,34.978,18.31,35.091,18.322 M35.623,18.392       c-0.083-0.013-0.177-0.021-0.265-0.033C35.446,18.369,35.54,18.379,35.623,18.392 M36.097,18.468       c-0.076-0.013-0.162-0.025-0.244-0.039C35.935,18.441,36.021,18.455,36.097,18.468 M36.506,18.553       c-0.069-0.017-0.149-0.031-0.227-0.047C36.356,18.521,36.437,18.536,36.506,18.553 M36.851,18.645       c-0.057-0.018-0.125-0.033-0.188-0.051C36.728,18.609,36.795,18.627,36.851,18.645 M36.983,18.689       c0.051,0.018,0.104,0.034,0.147,0.053C37.088,18.725,37.033,18.707,36.983,18.689L36.983,18.689L36.983,18.689 M33.22,18.938       c-0.033-0.002-0.063-0.004-0.095-0.006l0,0C33.155,18.934,33.188,18.936,33.22,18.938 M34.595,19.039       c-0.373-0.035-0.779-0.066-1.217-0.094C33.815,18.973,34.222,19.003,34.595,19.039 M35.397,19.13       c0.113,0.015,0.223,0.03,0.328,0.046C35.62,19.16,35.511,19.146,35.397,19.13c-0.209-0.028-0.435-0.054-0.672-0.078       C34.964,19.076,35.188,19.103,35.397,19.13 M36.235,19.268c0.129,0.025,0.248,0.052,0.357,0.08       C36.483,19.318,36.364,19.293,36.235,19.268c-0.127-0.025-0.264-0.052-0.41-0.073C35.972,19.216,36.108,19.241,36.235,19.268        M36.673,19.367c0.208,0.057,0.379,0.116,0.512,0.18C37.052,19.483,36.881,19.424,36.673,19.367       c-0.002,0-0.005-0.001-0.007-0.002C36.668,19.366,36.67,19.367,36.673,19.367 M37.381,19.664L37.381,19.664       c-0.042-0.033-0.095-0.064-0.153-0.096C37.287,19.6,37.341,19.631,37.381,19.664 M37.447,19.743       c-0.009-0.016-0.021-0.028-0.033-0.042C37.427,19.715,37.44,19.729,37.447,19.743 M37.474,19.758       c-0.012-0.016-0.028-0.031-0.043-0.048C37.445,19.727,37.462,19.741,37.474,19.758 M37.481,19.828       c-0.002-0.014-0.01-0.029-0.016-0.043C37.472,19.799,37.478,19.814,37.481,19.828 M37.505,19.819       c0.004,0.007,0.006,0.015,0.008,0.021C37.511,19.834,37.507,19.826,37.505,19.819c-0.004-0.01-0.008-0.018-0.012-0.025       C37.497,19.803,37.501,19.811,37.505,19.819 M37.476,19.916c0.004-0.014,0.002-0.028,0.004-0.043       C37.478,19.888,37.479,19.901,37.476,19.916 M37.517,19.9c0,0.01,0,0.018-0.002,0.026C37.517,19.918,37.517,19.91,37.517,19.9       c0-0.009,0-0.015,0-0.021C37.517,19.887,37.517,19.894,37.517,19.9 M37.453,19.964c-0.005,0.009-0.008,0.018-0.011,0.024       c-0.004,0.006-0.008,0.013-0.012,0.02c0.004-0.007,0.008-0.014,0.012-0.02C37.445,19.98,37.448,19.973,37.453,19.964        M37.502,19.968c-0.006,0.018-0.013,0.033-0.022,0.05C37.488,20.002,37.496,19.984,37.502,19.968 M37.347,20.102       c0.014-0.014,0.025-0.028,0.039-0.043C37.372,20.072,37.36,20.087,37.347,20.102 M37.404,20.109       c0.017-0.018,0.03-0.033,0.044-0.052C37.437,20.076,37.422,20.093,37.404,20.109 M37.291,20.205       c0.024-0.019,0.046-0.035,0.067-0.053C37.338,20.17,37.315,20.188,37.291,20.205 M37.222,20.197       c0.021-0.014,0.035-0.026,0.053-0.04C37.257,20.171,37.242,20.185,37.222,20.197 M37.056,20.297       c0.022-0.012,0.039-0.022,0.06-0.035C37.095,20.273,37.079,20.285,37.056,20.297 M7.772,20.6       c0.076-0.043,0.164-0.088,0.265-0.134C7.937,20.512,7.849,20.557,7.772,20.6 M7.87,21.375c0.018-0.012,0.034-0.021,0.052-0.031       C7.904,21.355,7.886,21.363,7.87,21.375 M7.795,21.426c-0.009,0.007-0.019,0.014-0.026,0.021       c-0.039,0.026-0.076,0.055-0.104,0.082c0.028-0.027,0.063-0.056,0.104-0.082C7.776,21.439,7.786,21.433,7.795,21.426        M9.711,22.488c-1.597-0.21-2.364-0.527-2.085-0.918c-0.003,0.004-0.006,0.008-0.01,0.011       C7.356,21.967,8.127,22.28,9.711,22.488 M7.571,21.634c0.004-0.007,0.01-0.013,0.015-0.021       C7.581,21.621,7.575,21.627,7.571,21.634 M7.534,21.751c0,0.005,0,0.011,0,0.015C7.534,21.761,7.534,21.756,7.534,21.751       c0-0.003,0-0.005,0-0.007C7.534,21.746,7.534,21.748,7.534,21.751 M7.563,21.874c0-0.001,0-0.003,0-0.003       S7.563,21.873,7.563,21.874 M7.683,21.996c-0.01-0.007-0.018-0.014-0.025-0.021C7.665,21.982,7.673,21.989,7.683,21.996        M10.048,22.529c-0.111-0.013-0.22-0.026-0.326-0.04C9.827,22.503,9.937,22.518,10.048,22.529 M10.407,22.567       c-0.118-0.012-0.232-0.024-0.346-0.036C10.175,22.543,10.289,22.557,10.407,22.567 M10.79,22.604       c-0.124-0.012-0.244-0.021-0.361-0.032C10.546,22.582,10.666,22.592,10.79,22.604 M11.192,22.635       c-0.129-0.01-0.254-0.02-0.375-0.03C10.938,22.615,11.063,22.625,11.192,22.635 M11.614,22.663       c-0.122-0.008-0.241-0.017-0.359-0.024C11.373,22.646,11.492,22.655,11.614,22.663 M12.062,22.689       c-0.119-0.007-0.236-0.014-0.353-0.021C11.825,22.675,11.942,22.683,12.062,22.689 M17.647,31.021       c0.207-0.16,0.431-0.293,0.679-0.377c0.028-0.022,0.056-0.047,0.085-0.069c-0.051-0.078-0.098-0.159-0.148-0.238l0,0h0.002l0,0       c-0.246-0.127-0.479-0.274-0.689-0.451c0.005,0.062,0.009,0.127,0.014,0.189C17.617,30.389,17.64,30.705,17.647,31.021        M15.745,40.998c0.104-0.014,0.208-0.021,0.312-0.021c0.021,0,0.043-0.001,0.064-0.001c0.188,0,0.376,0.012,0.562,0.028       c0.006-1.034,0.031-2.068,0.098-3.101c0.047-0.726,0.079-1.443,0.125-2.161c-0.506,0.779-1.01,1.576-1.531,2.417       c-0.164,0.264-0.302,0.497-0.331,0.683c-0.043,0.273,0.113,0.669,0.251,1.019L15.745,40.998 M37.173,20.283h0.002        M37.173,20.283c-0.001,0.001-0.003,0.002-0.005,0.004C37.17,20.285,37.172,20.284,37.173,20.283 M37.028,20.363       c-0.004,0.002-0.006,0.004-0.01,0.006C37.021,20.367,37.024,20.365,37.028,20.363 M8.063,22.187L8.063,22.187L8.063,22.187        M8.063,22.187L8.063,22.187c0.004,0.001,0.009,0.003,0.012,0.006C8.07,22.189,8.067,22.188,8.063,22.187 M8.074,22.189       c0.005,0.003,0.01,0.005,0.013,0.007C8.083,22.194,8.079,22.192,8.074,22.189 M22.24,5.82c-0.649,0-1.417,0.071-1.909,0.182       c-0.509,0.113-0.913,0.331-1.203,0.648c-0.173,0.19-0.287,0.383-0.361,0.56c-0.278,0.079-0.553,0.167-0.82,0.263       c-0.885,0.314-1.578,0.666-1.913,0.847c-1.002,0.541-1.622,1.01-1.736,1.098c-0.737,0.57-1.062,0.951-1.376,1.319       c-0.232,0.272-0.604,0.804-0.833,1.249c-0.108,0.211-0.222,0.43-0.31,0.646c-0.137,0.341-0.229,0.565-0.352,0.989       c-0.218,0.756-0.295,1.35-0.346,1.742c-0.001,0.01-0.059,0.554-0.123,1.477c-0.016,0.012-0.031,0.023-0.048,0.036       c-0.013,0.01-0.026,0.021-0.038,0.029L8.54,18.769l-1.537,1.229C7.001,20,6.999,20.002,6.997,20.003       c-0.012,0.009-0.021,0.019-0.031,0.026c-0.594,0.506-0.805,1.176-0.582,1.816c0.164,0.47,0.471,0.714,0.604,0.817       c0.096,0.076,0.214,0.151,0.322,0.205c0.026,0.014,0.058,0.026,0.09,0.042l0,0l0.018,0.009       c0.014,0.008,0.045,0.021,0.059,0.028c0.069,0.033,0.154,0.068,0.25,0.104c0.02,0.008,0.041,0.017,0.056,0.021       c0.019,0.007,0.036,0.012,0.055,0.018c0.75,0.252,1.991,0.433,3.696,0.537c0.007,0.012,0.014,0.022,0.021,0.033       c0.01,0.014,0.019,0.029,0.027,0.043c-0.152,0.707-0.068,1.455,0.252,2.153c0.348,0.76,1.062,1.334,1.911,1.582       c-0.158,0.576-0.296,0.882-0.72,1.179c-0.268,0.187-0.627,0.312-1.006,0.443c-0.258,0.09-0.522,0.183-0.793,0.303       c-1.476,0.661-2.662,1.998-3.342,3.765c-0.603,1.565-0.729,3.235-0.773,4.663c-0.016,0.462,0.312,0.864,0.766,0.945       c0.055,0.01,0.109,0.014,0.164,0.014c0.395,0,0.753-0.25,0.882-0.636c0.054-0.157,0.325-0.317,0.632-0.37       c0.145-0.025,0.309-0.037,0.516-0.037c0.16,0,0.322,0.007,0.482,0.014c0.186,0.008,0.37,0.015,0.555,0.015h0.061       c0.43-0.004,0.861-0.05,1.291-0.134c-0.098,0.241-0.177,0.507-0.223,0.8c-0.163,1.034,0.185,1.916,0.414,2.499l1.048,2.65       c-0.005,0.027-0.011,0.054-0.015,0.08c-0.012,0.057-0.027,0.11-0.041,0.164C13.586,44,13.513,44.273,13.536,44.6       c-0.004,0.062-0.006,0.135,0.001,0.219l0.006,0.052c0.004,0.082,0.011,0.164,0.017,0.247c-0.082,0.541-0.162,1.083-0.244,1.625       l-0.123,0.831c-0.059,0.389-0.193,1.297,0.469,1.926c0.324,0.31,0.719,0.412,0.956,0.476l1.114,0.295l1.643,0.434       c-0.035,0.062-0.072,0.124-0.107,0.188c-0.16,0.094-0.258,0.204-0.301,0.254c-0.21,0.239-0.316,0.479-0.395,0.651       c-0.032,0.073-0.061,0.136-0.09,0.185c-0.037,0.059-0.076,0.117-0.118,0.18c-0.119,0.084-0.239,0.203-0.345,0.373       c-0.094,0.147-0.181,0.297-0.267,0.445c-0.082,0.141-0.164,0.28-0.253,0.422c-0.242,0.381-0.46,0.779-0.648,1.188       c-0.043,0.09-0.127,0.277-0.14,0.522c-0.01,0.226,0.044,0.45,0.162,0.671c0.291,0.545,0.792,0.901,1.159,1.161l0.041,0.028       c0.104,0.073,0.21,0.156,0.32,0.241c0.488,0.379,1.098,0.853,1.862,0.937c0.578,0.062,1.165,0.095,1.743,0.095       c0.2,0,0.4-0.004,0.602-0.011c0.484-0.02,0.844-0.197,1.072-0.529c0.168-0.245,0.197-0.491,0.208-0.596       c0.115-0.978-0.235-1.517-0.549-1.796c-0.332-0.298-0.698-0.396-0.968-0.471l-0.059-0.016       c-0.023-0.083-0.057-0.162-0.098-0.237c0.01-0.085,0.007-0.17-0.004-0.253c0.086-0.225,0.152-0.512,0.085-0.826       c0.019-0.028,0.037-0.058,0.056-0.086c0.213-0.303,0.281-0.576,0.277-0.806c0.042-0.072,0.083-0.144,0.124-0.218       c0.153-0.276,0.344-0.621,0.487-1.037c0.027-0.08,0.052-0.156,0.074-0.234c0.385-0.08,0.684-0.399,0.731-0.797       c0.324-0.002,0.63-0.012,0.927-0.03c0.057,0.163,0.112,0.344,0.172,0.544c0.062,0.211,0.195,0.389,0.368,0.508       c0.003,0.015,0.005,0.029,0.007,0.043c0.01,0.111-0.004,0.302-0.017,0.486c-0.008,0.099-0.017,0.194-0.024,0.291       c-0.062,0.111-0.109,0.248-0.129,0.416c-0.02,0.179-0.037,0.357-0.056,0.537c-0.015,0.148-0.03,0.297-0.046,0.444       c-0.006,0.044-0.01,0.087-0.016,0.13c-0.096,0.139-0.174,0.322-0.203,0.562c-0.022,0.175-0.039,0.345-0.055,0.517       c-0.015,0.162-0.029,0.324-0.052,0.488c-0.06,0.446-0.09,0.901-0.09,1.352c0,0.098,0,0.305,0.094,0.533       c0.085,0.207,0.229,0.389,0.427,0.539c0.493,0.373,1.1,0.485,1.543,0.567l0.047,0.011c0.818,0.151,1.664,0.311,2.531,0.383       c0.234,0.02,0.428,0.028,0.605,0.028c0.34,0,0.643-0.032,0.925-0.104c0.49-0.121,0.853-0.363,1.071-0.719       c0.148-0.238,0.3-0.646,0.178-1.231c-0.07-0.334-0.199-0.621-0.387-0.854c-0.236-0.295-0.566-0.512-1.01-0.659l-0.115-0.037       l-0.117-0.039c-0.158-0.052-0.311-0.102-0.457-0.153c-0.044-0.044-0.092-0.086-0.143-0.124       c-0.078-0.156-0.192-0.292-0.332-0.395c-0.027-0.078-0.063-0.154-0.107-0.224c-0.018-0.245-0.08-0.545-0.286-0.809       c0.002-0.043,0.004-0.087,0.006-0.132c0.007-0.128,0.011-0.255,0.015-0.38c0.004-0.181-0.024-0.332-0.072-0.457       c0.006-0.069,0.012-0.14,0.018-0.209c0.022-0.314,0.051-0.707,0.006-1.147c-0.009-0.083-0.02-0.164-0.033-0.241       c0.332-0.248,0.467-0.69,0.311-1.087c-0.193-0.493-0.406-1.021-0.641-1.531c-0.028-0.062-0.057-0.122-0.088-0.183       c0.076-0.203,0.138-0.422,0.188-0.658c0.034-0.159,0.062-0.33,0.085-0.51c0.001-0.01,0.002-0.02,0.004-0.029       c0.003,0,0.005,0,0.007,0c0.053,0,0.106-0.002,0.158-0.009c0.079,0.288,0.24,0.616,0.6,0.824c0.223,0.13,0.479,0.2,0.738,0.2       c0.35,0,0.688-0.125,0.954-0.353c0.003-0.002,0.007-0.006,0.011-0.008c0.1,0.021,0.201,0.031,0.303,0.031       c0.462,0,0.904-0.221,1.181-0.593c0.013-0.017,0.024-0.032,0.035-0.049c0.544-0.039,1.024-0.377,1.243-0.884       c0.324-0.736-0.127-1.388-0.344-1.7c-0.027-0.037-0.053-0.072-0.072-0.105c-0.17-0.269-0.366-0.548-0.614-0.876       c-0.134-0.221-0.294-0.4-0.427-0.549l-0.024-0.031c-0.112-0.135-0.239-0.258-0.387-0.365c0.002-0.079-0.007-0.159-0.026-0.24       c-0.115-0.479-0.215-0.971-0.293-1.456c-0.029-0.185-0.111-0.353-0.236-0.486c-0.282-1.258-0.619-2.564-1.168-3.783       c-0.189-0.42-0.397-0.837-0.631-1.264c0-0.014,0.002-0.027,0.002-0.041c0-0.127-0.027-0.253-0.078-0.369       c-0.104-0.242-0.228-0.49-0.369-0.748c0.584-0.168,1.146-0.496,1.76-1.028c1.884-1.635,3.035-4.017,3.08-6.374       c0.004-0.183,0-0.364-0.003-0.549c-0.005-0.301-0.011-0.584,0.019-0.844c0-0.004,0.002-0.009,0.002-0.012       c0.59-0.834,1.03-1.823,1.29-2.894c1.587-0.302,2.751-0.617,3.47-0.939c0.045-0.021,0.088-0.041,0.129-0.062       c0.015-0.006,0.026-0.012,0.041-0.019c0.006-0.003,0.015-0.009,0.022-0.012c0.001-0.002,0.002-0.002,0.003-0.002l0.027-0.016       l0,0c0.002-0.001,0.004-0.002,0.007-0.004c0.007-0.004,0.015-0.008,0.021-0.012h0.002l0.031-0.017       c0.021-0.012,0.045-0.025,0.07-0.039c0-0.001,0-0.001,0-0.001c0.014-0.009,0.029-0.017,0.042-0.023       c0.003-0.002,0.006-0.005,0.009-0.007c0.213-0.125,0.381-0.252,0.512-0.387c0.164-0.167,0.393-0.439,0.485-0.878       c0.074-0.345,0.019-0.732-0.147-1.038c-0.062-0.115-0.139-0.242-0.312-0.416c-0.114-0.117-0.196-0.172-0.343-0.271       c-0.01-0.009-0.021-0.015-0.031-0.021c-0.003-0.002-0.007-0.005-0.01-0.007l-4.244-2.59c-0.003-0.002-0.007-0.004-0.011-0.006       c-0.024-0.016-0.048-0.029-0.071-0.042c-0.023-0.119-0.047-0.239-0.068-0.344l-0.074-0.354       c-0.026-0.129-0.053-0.258-0.082-0.387c-0.193-0.882-0.396-1.453-0.643-2.041c-0.158-0.378-0.328-0.681-0.478-0.947       c-0.116-0.207-0.28-0.445-0.392-0.607c0,0-0.301-0.432-0.705-0.854c-0.181-0.188-0.418-0.423-0.828-0.749       C29.5,8.541,28.663,8.147,28.388,8.02c-1.236-0.581-2.527-0.977-3.849-1.18c-0.089-0.154-0.201-0.298-0.333-0.424       c-0.553-0.529-1.229-0.57-1.552-0.59C22.528,5.824,22.388,5.82,22.24,5.82L22.24,5.82z" stroke-width="1" fill="undefined"/>
				</g>
			</g>
			<g>
				<g>
					<path fill="#8D5E1B" d="M11.466,18.086c-0.146,0-0.291-0.068-0.381-0.197c-0.143-0.203-0.102-0.479,0.094-0.633       c0.006-0.005,0.047-0.034,0.047-0.034c0.082-0.058,0.178-0.087,0.271-0.087c0.146,0,0.289,0.067,0.379,0.193       c0.148,0.209,0.104,0.495-0.104,0.646c0,0-0.051,0.036-0.059,0.041C11.638,18.064,11.552,18.086,11.466,18.086z" stroke-width="1"/>
				</g>
				<g>
					<path d="M11.502,17.597c-0.001,0.001-0.002,0.002-0.004,0.003C11.499,17.599,11.5,17.598,11.502,17.597 M11.498,17.6       c-0.01,0.006-0.019,0.013-0.026,0.021c-0.002,0.002-0.004,0.002-0.006,0.004C11.476,17.615,11.485,17.607,11.498,17.6        M11.492,16.67c-0.183,0-0.367,0.055-0.528,0.168l0,0c-0.001,0-0.005,0.004-0.006,0.004c0,0,0,0-0.001,0.001l0,0       c-0.024,0.018-0.049,0.034-0.071,0.052c-0.399,0.318-0.468,0.9-0.152,1.303c0.184,0.233,0.457,0.355,0.732,0.355       c0.188,0,0.377-0.057,0.539-0.174c0.008-0.005,0.016-0.01,0.021-0.016l0,0c0.419-0.298,0.521-0.881,0.225-1.299       C12.069,16.809,11.782,16.67,11.492,16.67L11.492,16.67z" stroke-width="1" fill="undefined"/>
				</g>
			</g>
		</g>
		<g>
			<g>
				<path fill="#090503" d="M13.556,29.381c-0.58,0.406-1.304,0.543-1.951,0.833c-1.35,0.604-2.323,1.868-2.854,3.249      c-0.531,1.382-0.666,2.881-0.712,4.359c0.187-0.56,0.776-0.894,1.356-0.992c0.58-0.102,1.175-0.02,1.764-0.023      c1.966-0.017,3.842-1.025,5.177-2.469c0.515-0.555,0.966-1.188,1.173-1.917c0.215-0.757,0.147-1.562,0.08-2.347      c-0.213-2.479,0.032-5.012-1.502-7.164c-0.57,1.275-0.822,2.605-1.219,3.928C14.565,27.848,14.528,28.7,13.556,29.381z" stroke-width="1"/>
			</g>
			<g>
				<g>
					<path fill="#E3A576" d="M27.63,42.866c0.788-0.386,1.984-0.213,2.484,0.392c0.012,0.017,0.023,0.031,0.037,0.048       c0.131,0.146,0.268,0.296,0.363,0.466c0.211,0.279,0.418,0.564,0.604,0.857c0.16,0.252,0.489,0.62,0.349,0.938       c-0.09,0.206-0.301,0.342-0.533,0.325c-0.219-0.016-0.383-0.316-0.494-0.478c-0.166-0.243-0.328-0.503-0.5-0.751       c-0.016-0.024-0.032-0.046-0.049-0.069c0.1,0.239,0.196,0.481,0.28,0.727c0.099,0.28,0.332,0.717,0.124,0.991       c-0.135,0.182-0.371,0.264-0.594,0.193c-0.209-0.063-0.299-0.395-0.369-0.578c-0.105-0.273-0.204-0.563-0.314-0.846       c-0.031-0.08-0.065-0.158-0.101-0.236c0.054,0.295,0.099,0.592,0.13,0.888c0.032,0.297,0.163,0.772-0.101,0.994       c-0.175,0.147-0.423,0.175-0.624,0.057c-0.189-0.11-0.203-0.451-0.229-0.646c-0.043-0.292-0.072-0.598-0.117-0.895       c-0.035-0.228-0.084-0.448-0.123-0.672c-0.168-0.05-0.264,0.759-0.293,0.861c-0.031,0.107-0.065,0.207-0.145,0.288       c-0.111,0.116-0.314,0.148-0.467,0.099c-0.301-0.101-0.277-0.357-0.254-0.61c0.025-0.278,0.033-0.558,0.088-0.831       c0.039-0.203,0.042-0.461,0.137-0.66C27.011,43.316,27.28,43.037,27.63,42.866z" stroke-width="1"/>
				</g>
				<g>
					<path fill="#E3A576" d="M28.79,44.713c-0.422,0-0.809-0.281-0.924-0.709c-0.196-0.73-0.362-1.503-0.523-2.25       c-0.316-1.469-0.644-2.989-1.209-4.244c-0.888-1.969-2.232-3.74-3.531-5.387c-0.328-0.414-0.258-1.016,0.156-1.344       c0.413-0.326,1.016-0.259,1.344,0.157c1.375,1.738,2.799,3.618,3.775,5.785c0.648,1.44,0.998,3.062,1.335,4.629       c0.163,0.758,0.317,1.472,0.5,2.156c0.138,0.511-0.166,1.035-0.676,1.172C28.955,44.703,28.872,44.713,28.79,44.713z" stroke-width="1"/>
				</g>
				<g>
					<path fill="#C0B565" d="M24.029,34.337c0.063,0.4,0.194,0.818,0.416,1.161c0.055,0.084,0.563,0.882,0.575,0.874       c0.354-0.251,0.682-0.587,1.055-0.803c0.123-0.071,1.091-0.418,1.091-0.532c-0.258-0.596-0.585-1.161-0.976-1.681       c-0.192-0.258-0.41-0.512-0.705-0.643c-0.047-0.021-0.1-0.039-0.152-0.033c-0.059,0.009-0.107,0.041-0.156,0.075       c-0.334,0.242-0.642,0.521-0.918,0.828c-0.094,0.106-0.188,0.22-0.228,0.356C23.996,34.068,24.009,34.205,24.029,34.337z" stroke-width="1"/>
				</g>
			</g>
			<g>
				<g>
					<path fill="#E3A576" d="M24.933,56.092c-0.061,0-0.121-0.005-0.183-0.016c-0.519-0.102-0.858-0.603-0.759-1.121       c0.17-0.883,0.354-1.93,0.432-3.001c0.018-0.237,0.034-0.46,0.014-0.651c-0.021-0.204-0.09-0.434-0.17-0.689       c-0.234-0.739-0.494-1.485-0.771-2.215c-0.188-0.493,0.061-1.047,0.555-1.233c0.492-0.187,1.045,0.061,1.233,0.553       c0.291,0.765,0.562,1.544,0.808,2.318c0.108,0.345,0.209,0.687,0.25,1.07c0.036,0.359,0.012,0.692-0.01,0.986       c-0.085,1.17-0.281,2.286-0.461,3.225C25.782,55.774,25.382,56.092,24.933,56.092z" stroke-width="1"/>
				</g>
				<g>
					<path fill="#AC9241" d="M22.914,48.057c-0.021,0.013-0.044,0.027-0.047,0.052c-0.003,0.021,0.01,0.038,0.022,0.055       c0.576,0.723,0.879,1.535,1.14,2.424c0.911,0.066,1.842-0.131,2.647-0.562c-0.195-0.499-0.397-0.999-0.619-1.485       c-0.146-0.314-0.332-0.606-0.49-0.914c-0.047-0.092-0.133-0.42-0.213-0.467c-0.06-0.035-0.346,0.021-0.42,0.033       C24.216,47.303,23.538,47.711,22.914,48.057z" stroke-width="1"/>
				</g>
				<g>
					<path fill="#C0B565" d="M24.166,53.676c0.036-0.326,0.065-0.654,0.103-0.979c0.004-0.04,0.012-0.087,0.047-0.108       c0.029-0.019,0.068-0.012,0.104-0.004c0.592,0.123,1.204,0.144,1.803,0.059c0.041-0.005,0.086-0.01,0.119,0.015       c0.043,0.029,0.047,0.092,0.045,0.145c-0.01,0.396-0.057,0.808-0.031,1.2c0.025,0.368,0.05,0.735,0.043,1.108       c-0.004,0.137-0.012,0.278-0.078,0.397c-0.1,0.171-0.299,0.251-0.488,0.308c-0.23,0.067-0.467,0.116-0.704,0.147       c-0.18,0.022-0.366,0.034-0.54-0.019c-0.232-0.071-0.404-0.231-0.479-0.462c-0.068-0.218-0.106-0.444-0.113-0.673       c-0.006-0.205,0.064-0.354,0.096-0.547C24.119,54.068,24.144,53.873,24.166,53.676z" stroke-width="1"/>
				</g>
				<g>
					<path fill="#704413" d="M28.446,55.962c0.035,0.012,0.072,0.023,0.109,0.036c0.219,0.072,0.437,0.179,0.58,0.359       c0.106,0.132,0.166,0.295,0.2,0.461c0.039,0.186,0.043,0.391-0.057,0.552c-0.107,0.171-0.31,0.257-0.505,0.306       c-0.399,0.1-0.818,0.086-1.229,0.051c-0.82-0.068-1.63-0.221-2.438-0.37c-0.398-0.074-0.868-0.153-1.199-0.404       c-0.053-0.041-0.104-0.09-0.129-0.151c-0.023-0.056-0.024-0.119-0.024-0.181c0-0.41,0.026-0.82,0.081-1.228       c0.047-0.34,0.064-0.67,0.107-1.01c0.01-0.074,0.029-0.164,0.1-0.191c0.096-0.038,0.309,0.033,0.409,0.05       c0.161,0.021,0.321,0.044,0.483,0.065c0.127,0.018,0.265,0.023,0.381-0.03c0.08-0.037,0.144-0.099,0.214-0.148       c0.19-0.139,0.43-0.207,0.665-0.188c0.105,0.008,0.216,0.036,0.285,0.114c0.152,0.172,0.07,0.506,0.117,0.72       c0.051,0.231,0.168,0.479,0.381,0.604C27.442,55.651,27.944,55.797,28.446,55.962z" stroke-width="1"/>
				</g>
				<g>
					<path fill="#6D3E1B" d="M26.363,56.04c0.237,0.087,0.497,0.081,0.747,0.054c0.109-0.012,0.22-0.026,0.316-0.08       c0.096-0.053,0.174-0.15,0.174-0.261c0.002-0.139-0.117-0.249-0.242-0.31c-0.125-0.062-0.264-0.091-0.381-0.164       c-0.183-0.117-0.28-0.334-0.318-0.547c-0.049-0.264,0.086-0.688-0.156-0.881c-0.25-0.198-0.928,0.038-1.072,0.289       c-0.098,0.167-0.115,0.453-0.066,0.636C25.497,55.271,25.853,55.853,26.363,56.04z" stroke-width="1"/>
				</g>
				<g>
					<path fill="#D49F65" d="M25.519,55.385c-0.057,0-0.112-0.027-0.145-0.08c-0.049-0.08-0.023-0.186,0.057-0.233       c0.364-0.227,0.762-0.396,1.176-0.502c0.092-0.022,0.185,0.03,0.209,0.122c0.022,0.091-0.031,0.185-0.123,0.207       c-0.383,0.099-0.747,0.255-1.084,0.462C25.581,55.377,25.55,55.385,25.519,55.385z" stroke-width="1"/>
				</g>
				<g>
					<path fill="#D49F65" d="M25.905,55.908c-0.057,0-0.113-0.029-0.145-0.081c-0.05-0.08-0.025-0.186,0.055-0.235       c0.367-0.225,0.763-0.395,1.179-0.502c0.091-0.021,0.183,0.031,0.208,0.123c0.023,0.091-0.031,0.184-0.123,0.207       c-0.383,0.1-0.747,0.255-1.084,0.463C25.966,55.899,25.937,55.908,25.905,55.908z" stroke-width="1"/>
				</g>
			</g>
			<g>
				<g>
					<path fill="#E3A576" d="M17.382,55.083c-0.193,0-0.388-0.06-0.558-0.181c-0.429-0.309-0.526-0.905-0.218-1.334       c0.524-0.73,1.132-1.604,1.652-2.543c0.115-0.209,0.225-0.405,0.286-0.587c0.066-0.19,0.101-0.429,0.136-0.696       c0.098-0.771,0.176-1.556,0.229-2.332c0.036-0.527,0.498-0.937,1.021-0.89c0.527,0.037,0.926,0.494,0.887,1.021       c-0.057,0.813-0.137,1.636-0.24,2.443c-0.047,0.359-0.098,0.714-0.223,1.075c-0.117,0.341-0.279,0.633-0.422,0.892       c-0.568,1.024-1.215,1.957-1.773,2.731C17.974,54.944,17.681,55.083,17.382,55.083z" stroke-width="1"/>
				</g>
				<g>
					<path fill="#AC9241" d="M18.613,47.143c0.03,0.827-0.015,1.656-0.138,2.477c0.801,0.442,1.727,0.655,2.64,0.603       c0.045-0.764,0.062-1.529,0.049-2.295c-0.004-0.217-0.015-0.446-0.14-0.623" stroke-width="1"/>
				</g>
				<g>
					<path fill="#C0B565" d="M17.274,52.463c0.152-0.248,0.195-0.482,0.392-0.707c0.024-0.027,0.052-0.057,0.086-0.07       c0.058-0.021,0.122,0,0.177,0.027c0.195,0.091,0.369,0.217,0.555,0.326c0.293,0.174,0.611,0.305,0.943,0.387       c0.098,0.023,0.209,0.053,0.25,0.145c0.051,0.105-0.025,0.226-0.093,0.321c-0.39,0.557-0.563,1.221-0.86,1.825       c-0.06,0.123-0.125,0.25-0.238,0.328c-0.161,0.115-0.377,0.104-0.571,0.074c-0.237-0.035-0.474-0.089-0.702-0.161       c-0.173-0.055-0.347-0.122-0.482-0.243c-0.182-0.162-0.271-0.38-0.239-0.619c0.051-0.398,0.2-0.785,0.433-1.112       C17.041,52.816,17.165,52.644,17.274,52.463z" stroke-width="1"/>
				</g>
				<g>
					<path fill="#704413" d="M19.05,54.498c-0.148,0.678,0.366,1.044,0.961,1.214c0.245,0.069,0.504,0.118,0.7,0.294       c0.265,0.238,0.286,0.644,0.245,0.995c-0.008,0.062-0.018,0.128-0.052,0.179c-0.071,0.104-0.214,0.119-0.341,0.125       c-0.736,0.027-1.475,0.001-2.207-0.079c-0.646-0.07-1.223-0.64-1.746-1.011c-0.329-0.233-0.721-0.504-0.918-0.871       c-0.03-0.059-0.055-0.123-0.053-0.189c0.004-0.062,0.028-0.119,0.053-0.175c0.173-0.372,0.369-0.732,0.59-1.078       c0.186-0.29,0.34-0.582,0.521-0.871c0.041-0.064,0.096-0.138,0.172-0.133c0.103,0.006,0.265,0.159,0.35,0.216       c0.136,0.089,0.275,0.176,0.41,0.263c0.109,0.07,0.23,0.133,0.361,0.133c0.086,0,0.17-0.026,0.254-0.045       c0.231-0.045,0.479-0.006,0.684,0.107c0.092,0.053,0.18,0.124,0.21,0.225C19.312,54.016,19.097,54.284,19.05,54.498z" stroke-width="1"/>
				</g>
				<g>
					<path fill="#6D3E1B" d="M18.304,55.549c0.178,0.178,0.416,0.281,0.654,0.363c0.104,0.034,0.212,0.065,0.321,0.059       c0.108-0.007,0.221-0.063,0.268-0.162c0.06-0.125-0.002-0.275-0.09-0.384c-0.088-0.105-0.203-0.191-0.276-0.309       c-0.117-0.184-0.115-0.421-0.061-0.63c0.066-0.26,0.366-0.588,0.229-0.864c-0.143-0.286-0.857-0.355-1.096-0.188       c-0.156,0.111-0.293,0.364-0.324,0.55C17.841,54.486,17.919,55.164,18.304,55.549z" stroke-width="1"/>
				</g>
				<g>
					<path fill="#D49F65" d="M19.112,54.652c-0.01,0-0.02,0-0.031-0.002c-0.389-0.07-0.786-0.082-1.178-0.037       c-0.096,0.017-0.178-0.056-0.189-0.148c-0.011-0.094,0.055-0.178,0.149-0.188c0.426-0.052,0.856-0.037,1.28,0.038       c0.092,0.019,0.153,0.105,0.136,0.199C19.265,54.596,19.194,54.652,19.112,54.652z" stroke-width="1"/>
				</g>
				<g>
					<path fill="#D49F65" d="M19.243,55.289c-0.01,0-0.02,0-0.031-0.002c-0.388-0.071-0.785-0.083-1.177-0.037       c-0.101,0.016-0.179-0.055-0.188-0.148c-0.012-0.094,0.055-0.178,0.148-0.188c0.425-0.052,0.855-0.037,1.279,0.039       c0.093,0.017,0.154,0.104,0.137,0.198C19.396,55.23,19.324,55.289,19.243,55.289z" stroke-width="1"/>
				</g>
			</g>
			<g>
				<path fill="#C0B565" d="M17.501,31.9c-0.15,0.418-0.245,0.866-0.32,1.306c-0.271,1.569-0.299,3.12-0.399,4.696      c-0.185,2.879-0.134,5.772,0.151,8.643c0.065,0.67,0.162,1.383,0.578,1.896c0.545,0.67,1.465,0.809,2.301,0.875      c1.108,0.087,2.224,0.127,3.332,0.043c0.783-0.061,1.613-0.205,2.197-0.761c0.819-0.78,0.887-2.087,0.895-3.25      c0.021-2.809,0.041-5.617,0.062-8.428c0.009-1.229-0.047-2.481,0.019-3.708c0.048-0.874,0.414-2.027-0.133-2.8      c-0.633-0.896-2.224-0.975-3.164-0.888c-0.906,0.083-1.808,0.205-2.703,0.362c-0.742,0.132-1.52,0.307-2.084,0.831      C17.892,31.039,17.663,31.451,17.501,31.9z" stroke-width="1"/>
			</g>
			<g>
				<g>
					<g>
						<g>
							<path fill="#7A6B47" d="M23.091,35.935h-2.484c-0.125,0-0.226,0.102-0.226,0.227v2.808c0,0.125,0.101,0.227,0.226,0.227         h2.484c0.125,0,0.227-0.102,0.227-0.227v-2.808C23.317,36.035,23.216,35.935,23.091,35.935z M23.2,38.849         c0,0.114-0.094,0.207-0.207,0.207h-2.288c-0.114,0-0.207-0.093-0.207-0.207V36.28c0-0.113,0.093-0.207,0.207-0.207h2.288         c0.113,0,0.207,0.094,0.207,0.207V38.849z" stroke-width="1"/>
						</g>
					</g>
					<g>
						<g>
							<rect x="21.488" y="37.085" fill="#AC9241" width="0.079" height="2.022" stroke-width="1"/>
						</g>
						<g>
							<rect x="22.13" y="37.085" fill="#AC9241" width="0.08" height="2.022" stroke-width="1"/>
						</g>
					</g>
					<g>
						<path fill="#AC9241" d="M23.267,36.947c-0.031,0.015-0.074,0.006-0.107,0.004c-0.23-0.011-0.46-0.029-0.689-0.008        c-0.17,0.015-0.397,0.081-0.531,0.19c-0.008,0.008-0.021,0.019-0.039,0.031c-0.016,0.015-0.034,0.031-0.051,0.049        c-0.017-0.018-0.035-0.033-0.052-0.049c-0.016-0.014-0.03-0.024-0.038-0.031c-0.133-0.109-0.359-0.177-0.529-0.19        c-0.229-0.021-0.461-0.004-0.689,0.008c-0.035,0.002-0.077,0.011-0.107-0.004c0.01,0.038,0.014,0.086,0.004,0.125        c0.09-0.008,0.185-0.018,0.275-0.021c0.198-0.01,0.374-0.013,0.571,0.021c0.134,0.021,0.264,0.059,0.376,0.139        c0.025,0.018,0.104,0.112,0.168,0.134c0.002,0.001,0.005,0.003,0.008,0.004c0.006,0.001,0.01-0.001,0.014,0        c0.006-0.001,0.01,0.001,0.015,0c0.002-0.001,0.005-0.003,0.008-0.004c0.063-0.021,0.144-0.116,0.168-0.134        c0.11-0.08,0.242-0.117,0.375-0.139c0.197-0.032,0.373-0.029,0.571-0.021c0.092,0.005,0.185,0.016,0.275,0.021        C23.252,37.033,23.256,36.985,23.267,36.947z" stroke-width="1"/>
					</g>
				</g>
				<g>
					<circle fill="#AC9241" cx="21.851" cy="36.768" r="0.26" stroke-width="1"/>
				</g>
			</g>
			<g>
				<g>
					<g>
						<g>
							<path fill="#7A6B47" d="M26.052,35.935h-0.929c-0.08,0-0.146,0.065-0.146,0.146v2.969c0,0.08,0.064,0.146,0.146,0.146h0.929         c0.08,0,0.146-0.064,0.146-0.146v-2.969C26.198,36,26.132,35.935,26.052,35.935z M26.149,38.922         c0,0.073-0.059,0.134-0.133,0.134h-0.855c-0.074,0-0.135-0.06-0.135-0.134v-2.716c0-0.073,0.061-0.134,0.135-0.134h0.855         c0.074,0,0.133,0.06,0.133,0.134V38.922z" stroke-width="1"/>
						</g>
					</g>
					<g>
						<g>
							<rect x="25.438" y="37.085" fill="#AC9241" width="0.033" height="2.022" stroke-width="1"/>
						</g>
						<g>
							<rect x="25.705" y="37.085" fill="#AC9241" width="0.033" height="2.022" stroke-width="1"/>
						</g>
					</g>
					<g>
						<path fill="#AC9241" d="M26.177,36.947c-0.013,0.015-0.031,0.006-0.045,0.004c-0.095-0.011-0.191-0.029-0.287-0.008        c-0.07,0.015-0.164,0.081-0.22,0.19c-0.003,0.008-0.01,0.019-0.017,0.031c-0.006,0.015-0.014,0.031-0.021,0.049        c-0.007-0.018-0.015-0.033-0.021-0.049c-0.006-0.014-0.012-0.024-0.016-0.031c-0.056-0.109-0.15-0.177-0.221-0.19        c-0.096-0.021-0.191-0.004-0.287,0.008c-0.015,0.002-0.031,0.011-0.045-0.004c0.004,0.038,0.006,0.086,0.002,0.125        c0.038-0.008,0.076-0.018,0.114-0.021c0.083-0.01,0.155-0.013,0.237,0.021c0.057,0.021,0.11,0.059,0.156,0.139        c0.012,0.018,0.043,0.112,0.071,0.134c0.001,0.001,0.002,0.003,0.003,0.004c0.002,0.001,0.004-0.001,0.006,0        c0.002-0.001,0.004,0.001,0.006,0s0.002-0.003,0.004-0.004c0.026-0.021,0.059-0.116,0.069-0.134        c0.046-0.08,0.101-0.117,0.156-0.139c0.082-0.032,0.155-0.029,0.237-0.021c0.039,0.005,0.078,0.016,0.115,0.021        C26.171,37.033,26.173,36.985,26.177,36.947z" stroke-width="1"/>
					</g>
				</g>
				<g>
					<ellipse fill="#AC9241" cx="25.588" cy="36.768" rx="0.108" ry="0.26" stroke-width="1"/>
				</g>
			</g>
			<g>
				<path fill="#AC9241" d="M18.784,33.318c-0.193,0.017-0.383,0.063-0.561,0.143c-0.26,0.111-0.457,0.327-0.664,0.518      c-0.172,0.155-0.401,0.269-0.508,0.479c-0.115,0.233-0.267,0.444-0.365,0.688c-0.01,0.024-0.02,0.056-0.006,0.079      c0.01,0.02,0.029,0.029,0.049,0.037c0.103,0.048,0.207,0.096,0.31,0.144c0.06,0.026,0.123,0.056,0.188,0.05      c0.057-0.005,0.107-0.036,0.156-0.065c0.646-0.4,1.254-0.862,1.812-1.381c0.051-0.046,0.102-0.094,0.129-0.156      c0.036-0.082,0.026-0.178,0.015-0.266c-0.006-0.055-0.013-0.111-0.044-0.158c-0.056-0.086-0.171-0.108-0.274-0.113      C18.942,33.312,18.862,33.312,18.784,33.318z" stroke-width="1"/>
			</g>
			<g>
				<path fill="#AC9241" d="M21.001,45.503c-1.395,0.053-2.835-0.22-4.209-0.688c0.038,0.577,0.083,1.153,0.141,1.729      c0.066,0.67,0.164,1.383,0.58,1.896c0.543,0.67,1.465,0.809,2.301,0.875c1.107,0.087,2.223,0.127,3.332,0.043      c0.783-0.061,1.613-0.205,2.195-0.761c0.82-0.78,0.887-2.087,0.895-3.25c0.002-0.154,0.003-0.309,0.004-0.465      C24.511,45.229,22.759,45.438,21.001,45.503z" stroke-width="1"/>
			</g>
			<g>
				<g>
					<path fill="#8D6A28" d="M20.091,45.293c0.047,0.401,0.037,0.81-0.027,1.209c-0.016,0.09-0.033,0.182-0.078,0.262       c-0.074,0.133-0.213,0.217-0.354,0.279c-0.599,0.263-1.289,0.209-1.931,0.077c0.235,0.138,0.517,0.181,0.789,0.189       c0.483,0.018,0.969-0.065,1.421-0.239c0.096-0.036,0.193-0.08,0.259-0.158c0.073-0.088,0.095-0.205,0.114-0.316       c0.062-0.387,0.105-0.776,0.123-1.17" stroke-width="1"/>
				</g>
				<g>
					<path fill="#8D6A28" d="M22.724,48.941c0.323-0.925,0.41-1.912,0.385-2.886c-0.002-0.095,0.027-0.616-0.057-0.645       c-0.186-0.064-0.104,0.403-0.1,0.457c0.036,0.492,0.057,0.985,0.033,1.479C22.962,47.879,22.901,48.438,22.724,48.941z" stroke-width="1"/>
				</g>
				<g>
					<path fill="#8D6A28" d="M23.806,47.316c-0.006,0.2-0.019,0.407-0.101,0.594c-0.115,0.257-0.351,0.438-0.592,0.585       c0.347-0.027,0.627-0.319,0.747-0.646c0.121-0.327,0.113-0.685,0.104-1.031c-0.007-0.262-0.014-0.521-0.021-0.782       c-0.004-0.185,0.041-0.462-0.03-0.629c-0.197,0.086-0.153,0.479-0.14,0.642C23.806,46.47,23.817,46.894,23.806,47.316z" stroke-width="1"/>
				</g>
			</g>
			<g>
				<path fill="#C0B565" d="M16.806,41.936c-0.16,0.665-0.318,1.33-0.478,1.995c-0.067,0.28-0.126,0.604,0.047,0.835      c0.083,0.111,0.208,0.181,0.332,0.241c1.024,0.5,2.203,0.559,3.343,0.566c1.896,0.015,3.793-0.082,5.678-0.29      c0.25-0.027,0.504-0.059,0.74-0.146c0.062-0.022,0.122-0.051,0.168-0.097c0.117-0.121,0.09-0.316,0.055-0.479      c-0.205-0.954-0.409-1.908-0.613-2.863" stroke-width="1"/>
			</g>
			<g>
				<path fill="#704413" d="M15.582,41.205c0.335-0.163,0.593-0.103,0.921-0.01c0.415,0.116,0.881,0.141,1.309,0.209      c0.875,0.139,1.752,0.276,2.629,0.416c0.215,0.032,0.438,0.07,0.611,0.2c0.453,0.341,0.219,1.187,0.156,1.642      c-0.094,0.69-0.221,1.377-0.303,2.07c-0.146,1.235-0.288,2.476-0.492,3.704c-0.046,0.279-0.168,0.404-0.441,0.491      c-0.348,0.11-0.713,0.162-1.078,0.155c-0.338-0.007-0.606-0.102-0.928-0.187c-1.037-0.273-2.072-0.549-3.111-0.822      c-0.197-0.053-0.404-0.11-0.553-0.25c-0.283-0.271-0.246-0.727-0.188-1.113c0.143-0.951,0.28-1.903,0.427-2.854      c0.135-0.877,0.382-1.742,0.496-2.637c0.033-0.261,0.066-0.533,0.219-0.748C15.339,41.355,15.453,41.268,15.582,41.205z" stroke-width="1"/>
			</g>
			<g>
				<path fill="#8C551B" d="M19.161,49.311c-0.032,0.189-0.115,0.314-0.268,0.427c-0.088,0.064-0.18,0.118-0.287,0.147      c-0.094,0.025-0.207-0.002-0.293,0.023c0.233-0.07,0.443-0.219,0.58-0.422c0.201-0.295,0.231-0.67,0.261-1.025      c0.1-1.242,0.239-2.48,0.475-3.705c0.147-0.765,0.226-1.532,0.339-2.303c0.106,0.123,0.102,0.303,0.084,0.465      c-0.091,0.9-0.291,1.789-0.397,2.688C19.507,46.842,19.365,48.08,19.161,49.311z" stroke-width="1"/>
			</g>
			<g>
				<path fill="#8C551B" d="M19.203,44.124c-0.106,0.458-0.218,0.915-0.433,1.341c-0.045,0.094-0.102,0.189-0.192,0.238      c-0.079,0.043-0.173,0.043-0.261,0.039c-0.457-0.02-0.902-0.123-1.346-0.228c-0.494-0.114-0.986-0.229-1.479-0.346      c-0.322-0.075-0.908-0.109-1.015-0.5c-0.08-0.301,0.061-0.568,0.117-0.854c0.15-0.761,0.243-1.511,0.424-2.27      c0.022-0.095,0.047-0.192,0.104-0.271s0.141-0.134,0.229-0.174c0.219-0.101,0.465-0.122,0.707-0.126      c0.727-0.01,1.445,0.134,2.157,0.274c0.966,0.192,1.951,0.302,2.898,0.59c0.052,0.018,0.106,0.034,0.146,0.073      c0.037,0.041,0.051,0.109,0.012,0.148c-0.039,0.043-0.108,0.03-0.166,0.02c-0.455-0.096-1.055-0.066-1.318,0.362      C19.466,42.965,19.338,43.545,19.203,44.124z" stroke-width="1"/>
			</g>
			<g>
				<path fill="#ACACAC" d="M21.171,43.035c-0.037,0-0.074-0.006-0.113-0.019l-1.056-0.346c-0.093-0.029-0.168-0.094-0.213-0.182      c-0.044-0.087-0.052-0.187-0.021-0.279l0.176-0.542c0.031-0.093,0.096-0.169,0.183-0.214c0.087-0.043,0.187-0.052,0.279-0.021      l1.056,0.345c0.094,0.029,0.168,0.094,0.213,0.182s0.053,0.187,0.021,0.28l-0.176,0.542      C21.468,42.938,21.324,43.035,21.171,43.035z M21.142,42.763c0.049,0.018,0.106-0.011,0.123-0.062l0.176-0.541      c0.009-0.026,0.007-0.054-0.004-0.076c-0.012-0.022-0.032-0.04-0.058-0.048l-1.057-0.345c-0.025-0.009-0.052-0.007-0.074,0.006      c-0.022,0.012-0.041,0.03-0.05,0.057l-0.176,0.542c-0.008,0.025-0.006,0.052,0.004,0.075c0.012,0.022,0.033,0.041,0.058,0.049      L21.142,42.763z" stroke-width="1"/>
			</g>
			<g>
				<path fill="#E3A576" d="M15.955,42.711c-0.831,0.28-1.562,1.244-1.491,2.025c0.002,0.02,0.006,0.039,0.008,0.059      c0.01,0.196,0.018,0.398,0.069,0.587c0.045,0.349,0.101,0.695,0.175,1.034c0.062,0.292,0.088,0.785,0.409,0.912      c0.21,0.084,0.455,0.031,0.608-0.144c0.146-0.163,0.049-0.493,0.016-0.687c-0.053-0.29-0.12-0.589-0.173-0.886      c-0.005-0.029-0.009-0.057-0.013-0.084c0.098,0.239,0.199,0.479,0.311,0.714c0.129,0.27,0.268,0.742,0.609,0.792      c0.224,0.033,0.449-0.073,0.56-0.279c0.103-0.192-0.065-0.491-0.144-0.671c-0.118-0.271-0.252-0.546-0.371-0.823      c-0.033-0.079-0.064-0.158-0.094-0.239c0.168,0.247,0.346,0.49,0.531,0.724s0.428,0.665,0.771,0.636      c0.228-0.017,0.422-0.174,0.483-0.397c0.057-0.212-0.175-0.464-0.291-0.621c-0.176-0.237-0.369-0.476-0.547-0.72      c-0.134-0.186-0.256-0.377-0.385-0.563c0.086-0.152,0.721,0.354,0.814,0.407c0.099,0.054,0.192,0.102,0.306,0.104      c0.161,0.004,0.328-0.116,0.399-0.259c0.146-0.282-0.054-0.449-0.248-0.613c-0.213-0.18-0.416-0.372-0.646-0.528      c-0.17-0.116-0.354-0.299-0.561-0.372C16.711,42.598,16.323,42.587,15.955,42.711z" stroke-width="1"/>
			</g>
			<g>
				<path fill="#E3A576" d="M15.851,44.821c-0.383,0-0.742-0.229-0.891-0.605l-1.443-3.653c-0.205-0.52-0.486-1.229-0.362-2.018      c0.092-0.584,0.383-1.052,0.594-1.395c1.339-2.159,2.567-4.1,4.033-5.955c0.327-0.415,0.93-0.484,1.344-0.156      c0.415,0.326,0.485,0.928,0.157,1.343c-1.404,1.778-2.6,3.668-3.908,5.778c-0.134,0.215-0.299,0.48-0.331,0.682      c-0.043,0.274,0.12,0.687,0.251,1.019l1.444,3.653c0.194,0.49-0.048,1.047-0.538,1.24      C16.086,44.799,15.966,44.821,15.851,44.821z" stroke-width="1"/>
			</g>
			<g>
				<path fill="#C0B565" d="M19.44,31.066c-0.088-0.162-0.197-0.322-0.358-0.412c-0.214-0.12-0.481-0.099-0.716-0.025      c-0.658,0.205-1.143,0.753-1.592,1.277c-0.295,0.344-0.639,0.682-0.883,1.062c-0.231,0.361-0.457,0.702-0.762,1.013      c0.737,0.442,1.438,0.946,2.09,1.507c0.514-0.56,1.012-1.134,1.494-1.721c0.324-0.396,0.723-0.752,0.947-1.22      C19.894,32.059,19.687,31.523,19.44,31.066z" stroke-width="1"/>
			</g>
			<g>
				<path fill="#AC9241" d="M21.914,35.473c-0.741-0.722-1.409-1.526-1.991-2.396c-0.595-0.891-1.072-1.845-1.66-2.741      c0.184,0.025,0.334-0.155,0.514-0.191c0.105-0.021,0.214,0.01,0.316,0.039c1.619,0.483,3.141,1.271,4.654,2.052      c0.02,0.012,0.041,0.021,0.05,0.043c0.013,0.028,0,0.062-0.012,0.092c-0.11,0.233-0.293,0.389-0.421,0.604      c-0.166,0.28-0.305,0.58-0.465,0.864C22.815,33.986,21.903,35.461,21.914,35.473z" stroke-width="1"/>
			</g>
			<g>
				<path fill="#AC9241" d="M25.944,35.256c-0.025-0.053,0.205-0.475,0.234-0.546c0.074-0.185,0.146-0.372,0.215-0.56      c0.142-0.396,0.267-0.798,0.375-1.204c0.109-0.412,0.19-0.83,0.281-1.248c0.08-0.382,0.178-0.729,0.129-1.128      c-0.927,0.617-1.797,1.336-2.597,2.144C25.058,33.543,25.528,34.385,25.944,35.256z" stroke-width="1"/>
			</g>
			<g>
				<path fill="#B66949" d="M23.599,31.267c0.174,2.28,0.41,4.544,0.711,6.78c0.197-2.451,0.356-4.912,0.444-7.375" stroke-width="1"/>
			</g>
			<g>
				<path fill="#704413" d="M29.521,42.287c-0.123-0.506-0.226-1.016-0.308-1.53c-0.715,0.188-1.446,0.311-2.183,0.37      c-0.01,0,0.308,1.302,0.324,1.412C27.524,42.495,29.507,42.23,29.521,42.287z" stroke-width="1"/>
			</g>
			<g>
				<path fill="#704413" d="M23.052,41.141c1.109-0.924,2.086-2.014,2.672-3.342c0.598-1.35,0.801-2.777,0.996-4.227      c0.1-0.735,0.17-1.488,0.021-2.215c-0.128,0.002-0.256,0.006-0.383,0.008c-0.184,1.223-0.252,2.463-0.506,3.674      c-0.25,1.18-0.724,2.256-1.448,3.224c-0.593,0.792-1.323,1.475-2.093,2.091c-0.573,0.462-1.188,0.871-1.744,1.355      c-0.135,0.117-0.268,0.239-0.396,0.367c-0.161,0.162-0.13,0.221,0.095,0.236c0.301,0.021,0.533,0.227,0.854,0.216      c0.015-0.001,0.03-0.001,0.044-0.007c0.02-0.009,0.032-0.024,0.045-0.04c0.229-0.271,0.547-0.41,0.837-0.61      C22.39,41.636,22.733,41.404,23.052,41.141z" stroke-width="1"/>
			</g>
			<g>
				<g>
					<path fill="#8D6A28" d="M37.388,19.668c-0.759-0.611-4.73-0.941-10.553-0.781c-7.93,0.217-16.288,1.263-18.667,2.333       c-0.136,0.062-0.248,0.12-0.339,0.18H7.83c-0.078,0.051-0.142,0.1-0.188,0.146l0,0c-0.709,0.857,3.604,1.373,10.584,1.182       c7.91-0.217,16.25-1.26,18.625-2.327C37.45,20.128,37.61,19.882,37.388,19.668z" stroke-width="1"/>
				</g>
				<g>
					<path fill="#C0B565" d="M37.405,19.683c-0.012-0.011-0.024-0.021-0.036-0.03c0.25,0.218,0.097,0.47-0.521,0.748       c-2.375,1.067-10.715,2.109-18.625,2.326c-7.021,0.193-11.348-0.328-10.572-1.195c-0.01,0.012-0.021,0.023-0.031,0.036       c-0.777,0.867,3.559,1.392,10.596,1.198c7.93-0.219,16.287-1.263,18.666-2.334C37.503,20.153,37.656,19.9,37.405,19.683z" stroke-width="1"/>
				</g>
			</g>
			<g>
				<path fill="#090503" d="M30.243,20.016c0.156-1.322,0.047-2.787,1.641-3.25c0.258-0.073,0.563-0.092,0.762,0.088      c0.131,0.12,0.187,0.304,0.228,0.478c0.334,1.428,0.384,2.887,0.095,4.334c-0.351,1.75-1.267,3.449-2.767,4.418      C30.065,24.062,30.007,22.026,30.243,20.016z" stroke-width="1"/>
			</g>
			<g>
				<path fill="#E3A576" d="M23.796,10.874c-0.371-0.021-0.738-0.015-1.102,0.009c-0.358-0.062-0.723-0.105-1.094-0.127      c-5.054-0.27-9.371,3.607-9.641,8.661c-0.059,1.1,0.082,2.212,0.46,3.247c0.3,0.818,0.72,1.859,1.586,2.188      c0.558,0.213,1.118,0.41,1.677,0.611c0.157,0.598,0.322,1.192,0.496,1.785c0.275,0.948,0.602,1.94,1.344,2.595      c0.429,0.378,0.963,0.61,1.488,0.837c1.43,0.617,2.864,1.234,4.352,1.708c0.734,0.233,1.525,0.503,2.294,0.585      c0.545,0.06,1.173,0.209,1.706,0.062c0.542-0.148,1.02-0.483,1.439-0.848c1.639-1.422,2.719-3.519,2.76-5.688      c0.009-0.493-0.033-0.988,0.021-1.479c0.06-0.529,0.229-1.042,0.37-1.558c0.432-1.588,0.609-3.4,0.382-5.03      C31.75,14.277,27.892,11.093,23.796,10.874z" stroke-width="1"/>
			</g>
			<g>
				<g>
					<path fill="#090503" d="M21.563,21.266c0.064,0.26,0.168,0.765-0.053,0.97c-0.046,0.044-0.104,0.077-0.168,0.079       c-0.109,0.003-0.203-0.092-0.238-0.196c-0.074-0.234,0.047-0.475,0.082-0.703c0.039-0.266,0.028-0.538-0.037-0.799       C21.36,20.771,21.499,21.013,21.563,21.266z" stroke-width="1"/>
				</g>
				<g>
					<path fill="#090503" d="M23.813,21.342c0.004,0.267-0.01,0.781-0.271,0.933c-0.055,0.03-0.12,0.051-0.182,0.036       c-0.108-0.021-0.178-0.135-0.188-0.243c-0.02-0.246,0.154-0.451,0.24-0.667c0.1-0.249,0.15-0.518,0.146-0.785       C23.728,20.814,23.808,21.08,23.813,21.342z" stroke-width="1"/>
				</g>
				<g>
					<path fill="#090503" d="M24.532,22.109c-0.061,0.26-0.199,0.756-0.49,0.838c-0.061,0.017-0.128,0.02-0.186-0.008       c-0.1-0.049-0.141-0.175-0.123-0.283c0.041-0.242,0.26-0.4,0.396-0.588c0.157-0.219,0.272-0.466,0.334-0.728       C24.578,21.578,24.591,21.855,24.532,22.109z" stroke-width="1"/>
				</g>
				<g>
					<g>
						<path fill="#090503" d="M20.285,23.232c-0.091,1.133,0.757,2.118,1.894,2.209c1.133,0.089,2.123-0.757,2.211-1.888        c0.09-1.131-0.758-2.119-1.891-2.21C21.365,21.256,20.374,22.102,20.285,23.232z" stroke-width="1"/>
					</g>
				</g>
				<g>
					<g>
						<g>
							<path fill="#FFFFFF" d="M20.252,23.427c-0.091,1.133,0.757,2.12,1.894,2.21c1.131,0.088,2.123-0.756,2.211-1.889         c0.09-1.13-0.758-2.119-1.891-2.209C21.332,21.45,20.341,22.296,20.252,23.427z" stroke-width="1"/>
						</g>
					</g>
					<g>
						<path fill="#090503" d="M22.914,24.102c0.024,0.037,0.058,0.07,0.093,0.096c0.637,0.437,1.321-0.006,1.323-0.606        c-0.001-0.436-0.353-0.789-0.788-0.788C22.944,22.795,22.499,23.467,22.914,24.102z" stroke-width="1"/>
					</g>
				</g>
			</g>
			<g>
				<g>
					<path fill="#090503" d="M28.265,21.266c0.064,0.26,0.168,0.765-0.053,0.97c-0.046,0.044-0.105,0.077-0.168,0.079       c-0.109,0.003-0.203-0.092-0.236-0.196c-0.076-0.234,0.045-0.475,0.08-0.703c0.041-0.266,0.029-0.538-0.035-0.799       C28.062,20.771,28.199,21.013,28.265,21.266z" stroke-width="1"/>
				</g>
				<g>
					<path fill="#090503" d="M30.513,21.342c0.006,0.267-0.01,0.781-0.271,0.933c-0.056,0.03-0.12,0.051-0.183,0.036       c-0.107-0.021-0.178-0.135-0.187-0.243c-0.021-0.246,0.153-0.451,0.239-0.667c0.099-0.249,0.15-0.518,0.146-0.785       C30.427,20.814,30.509,21.08,30.513,21.342z" stroke-width="1"/>
				</g>
				<g>
					<path fill="#090503" d="M31.233,22.109c-0.059,0.26-0.198,0.756-0.489,0.838c-0.062,0.017-0.129,0.02-0.187-0.008       c-0.099-0.049-0.14-0.175-0.121-0.283c0.041-0.242,0.259-0.4,0.395-0.588c0.156-0.219,0.271-0.466,0.333-0.728       C31.278,21.578,31.293,21.855,31.233,22.109z" stroke-width="1"/>
				</g>
				<g>
					<g>
						<path fill="#090503" d="M26.985,23.232c-0.09,1.133,0.759,2.118,1.894,2.209c1.132,0.089,2.123-0.757,2.212-1.888        c0.09-1.131-0.758-2.119-1.891-2.21C28.065,21.256,27.074,22.102,26.985,23.232z" stroke-width="1"/>
					</g>
				</g>
				<g>
					<g>
						<g>
							<path fill="#FFFFFF" d="M26.953,23.427c-0.091,1.133,0.757,2.12,1.894,2.21c1.131,0.088,2.123-0.756,2.211-1.889         c0.09-1.13-0.758-2.119-1.891-2.209C28.032,21.45,27.041,22.296,26.953,23.427z" stroke-width="1"/>
						</g>
					</g>
					<g>
						<path fill="#090503" d="M29.614,24.102c0.023,0.037,0.057,0.07,0.094,0.096c0.637,0.437,1.321-0.006,1.323-0.606        c-0.001-0.436-0.351-0.789-0.787-0.788C29.646,22.795,29.199,23.467,29.614,24.102z" stroke-width="1"/>
					</g>
				</g>
			</g>
			<g>
				<path fill="#090503" d="M22.745,21.02c0.035,0.265,0.081,0.777-0.163,0.957c-0.052,0.037-0.114,0.064-0.177,0.06      c-0.11-0.01-0.192-0.113-0.215-0.222c-0.047-0.241,0.102-0.467,0.162-0.689c0.07-0.259,0.09-0.531,0.057-0.798      C22.601,20.506,22.71,20.76,22.745,21.02z" stroke-width="1"/>
			</g>
			<g>
				<path fill="#090503" d="M12.581,18.267c0.178-0.106,0.359-0.208,0.544-0.303c0.448-0.229,0.837-0.523,1.271-0.757      c0.688-0.367,1.517-0.402,2.276-0.34c0.404,0.033,0.792,0.137,1.19,0.186c0.406,0.05,0.558,0.175,0.792,0.535      c0.153,0.234,0.298,0.477,0.401,0.736c0.188,0.472,0.232,0.987,0.232,1.496c0,0.358-0.021,0.723-0.137,1.062      c-0.231,0.677-0.803,1.177-1.389,1.588c-0.154,0.107-0.314,0.215-0.416,0.373c-0.102,0.16-0.132,0.355-0.205,0.531      c-0.16,0.38-0.522,0.644-0.912,0.779c-0.481,0.167-0.906,0.12-1.392,0.114c-0.135-0.002-1.47,0.345-1.44,0.398      c-0.299-0.557-0.725-0.986-1.067-1.514c-0.497-0.763-0.744-1.666-0.856-2.562c-0.047-0.384-0.072-0.777,0.025-1.151      C11.647,18.885,12.11,18.549,12.581,18.267z" stroke-width="1"/>
			</g>
			<g>
				<path fill="#090503" d="M28.063,14.579c-1.133-0.05-2.209,0.052-3.33,0.185c-0.495,0.059-0.973,0.013-1.475,0.14      c-0.652,0.164-1.199,0.276-1.852,0.362c-0.715,0.094-1.462,0.567-1.944,1.085c-0.573,0.614-1.204,1.903-0.587,2.653      c0.682,0.827,0.756,2.182,0.43,3.162c1.207-0.611,2.203-1.561,3.18-2.497c1.041-0.999,2.111-2.036,2.679-3.362      c-0.317,1.238-0.983,2.366-1.786,3.363c-0.802,0.996-1.74,1.871-2.677,2.744c1.765,0.029,3.545-0.234,5.185-0.887      c1.639-0.653,3.135-1.704,4.215-3.101c-0.383,0.885-1.039,1.627-1.758,2.271s-1.506,1.208-2.23,1.845      c0.164-0.146,0.5-0.219,0.703-0.302c0.25-0.104,0.5-0.2,0.75-0.303c0.494-0.2,0.986-0.409,1.451-0.673      c0.461-0.261,0.813-0.59,1.209-0.931c0.475-0.411,1.028-0.742,1.513-1.149c0.297-0.25,0.594-0.519,0.769-0.864      c0.262-0.517,0.213-1.155-0.047-1.673C31.746,15.236,29.517,14.643,28.063,14.579z" stroke-width="1"/>
			</g>
			<g>
				<path fill="#935333" d="M26.255,27.385c-0.025-0.012-0.052-0.024-0.074-0.043c-0.041-0.031-0.076-0.076-0.076-0.127      c0-0.17,0.207-0.072,0.291-0.062c0.158,0.019,0.33-0.022,0.467-0.104c0.045-0.027,0.09-0.125,0.111-0.17      c0.061-0.125,0.086-0.272,0.043-0.404c-0.043-0.131-0.168-0.239-0.308-0.235c-0.108,0.004-0.209,0.071-0.317,0.065      c-0.092-0.006-0.178-0.065-0.211-0.151s-0.013-0.188,0.051-0.255c0.027-0.026,0.074-0.049,0.103-0.022      c0.015,0.012,0.021,0.033,0.026,0.052c0.031,0.081,0.109,0.143,0.195,0.147c0.064,0.005,0.127-0.019,0.189-0.026      c0.158-0.021,0.322,0.052,0.426,0.173c0.25,0.29,0.219,0.75-0.064,1.002c-0.176,0.156-0.42,0.224-0.654,0.206      C26.382,27.423,26.315,27.411,26.255,27.385z" stroke-width="1"/>
			</g>
			<g>
				<path fill="#935333" d="M23.431,28.118c0.006-0.024,0.018-0.048,0.035-0.067c0.051-0.059,0.143-0.072,0.219-0.053      c0.076,0.021,0.145,0.066,0.211,0.107c1.113,0.706,2.674,0.881,3.963,0.78c-1.252,0.578-2.67,0.482-3.897-0.123      c-0.202-0.102-0.407-0.233-0.503-0.438C23.429,28.26,23.413,28.184,23.431,28.118z" stroke-width="1"/>
			</g>
			<g>
				<g>
					<path fill="#E3A576" d="M15.791,26.317c0.55-0.382,0.47-0.86,0.454-1.454c-0.016-0.601-0.16-1.178-0.207-1.777       c-0.012-0.132-0.021-0.267-0.072-0.388c-0.138-0.321-0.513-0.458-0.853-0.537c-0.736-0.172-1.489,0.029-2.017,0.589       c-0.718,0.764-0.849,1.781-0.418,2.721C13.177,26.562,14.796,27.006,15.791,26.317z" stroke-width="1"/>
				</g>
				<g>
					<path fill="#B66949" d="M15.487,23.39c-0.115-0.122-0.256-0.217-0.417-0.262c-0.2-0.057-0.417-0.034-0.616,0.026       c-0.566,0.173-1.021,0.671-1.141,1.25c-0.034,0.163-0.039,0.345,0.056,0.48c0.094,0.136,0.319,0.188,0.427,0.061       c0.105-0.125,0.04-0.312,0.045-0.478c0.008-0.237,0.204-0.457,0.44-0.49c0.235-0.032,0.483,0.123,0.557,0.352       c0.019,0.056,0.024,0.12-0.01,0.168c-0.024,0.033-0.065,0.051-0.104,0.067c-0.179,0.082-0.352,0.218-0.392,0.409       c-0.039,0.188,0.062,0.38,0.188,0.521c0.151,0.171,0.369,0.307,0.596,0.279c0.316-0.04,0.658-0.479,0.759-0.761       c0.14-0.392,0-0.92-0.161-1.283C15.658,23.607,15.582,23.488,15.487,23.39z" stroke-width="1"/>
				</g>
			</g>
			<g>
				<g>
					<path fill="#AC9241" d="M23.854,7.709c-0.008-0.134-0.058-0.393-0.291-0.615C23.259,6.8,22.86,6.776,22.599,6.76       c-0.602-0.035-1.529,0.031-2.067,0.151c-0.317,0.07-0.558,0.194-0.718,0.366c-0.268,0.294-0.262,0.57-0.258,0.704l0,0       l0.004,0.064c-0.002-0.022,0.027-0.051,0.09-0.079c0.343-0.152,1.541-0.303,2.678-0.335c0.926-0.024,1.525,0.036,1.531,0.144       L23.854,7.709z" stroke-width="1"/>
				</g>
				<g>
					<g>
						<path fill="#C0B565" d="M11.845,17.524c0.075-1.251,0.157-2.036,0.157-2.04c0.05-0.389,0.12-0.918,0.318-1.606        c0.108-0.376,0.188-0.572,0.319-0.896c0.071-0.178,0.174-0.378,0.274-0.57c0.187-0.363,0.517-0.84,0.714-1.07        c0.297-0.348,0.576-0.676,1.239-1.188c0.104-0.08,0.672-0.509,1.608-1.015c0.312-0.168,0.957-0.494,1.783-0.788        c0.87-0.311,1.575-0.449,1.84-0.503c0.539-0.104,1.399-0.189,2.229-0.213c0.386-0.011,0.716-0.007,0.969,0.01        c0.615,0.047,2.485,0.185,4.697,1.224c0.25,0.117,1.012,0.477,1.658,0.992c0.367,0.291,0.578,0.5,0.736,0.665        c0.348,0.363,0.61,0.737,0.613,0.74c0.059,0.084,0.237,0.341,0.344,0.531c0.145,0.258,0.293,0.523,0.43,0.852        c0.234,0.558,0.414,1.065,0.593,1.882c0.028,0.127,0.054,0.254,0.081,0.381c0.025,0.115,0.049,0.231,0.072,0.348        c0.074,0.363,0.185,0.943,0.186,0.949c-0.094-0.507-2.988-0.795-7.432-0.674c-5.517,0.151-11.33,0.879-12.985,1.623        C11.995,17.288,11.853,17.412,11.845,17.524z" stroke-width="1"/>
					</g>
				</g>
				<g>
					<g>
						<path fill="#C0B565" d="M8.088,22.196c-0.11-0.044-0.258-0.106-0.364-0.159c-0.052-0.025-0.115-0.066-0.158-0.102        c-0.09-0.072-0.228-0.181-0.301-0.396c-0.057-0.162-0.09-0.481,0.314-0.812c0.105-0.086,0.258-0.174,0.459-0.264        c2.395-1.077,10.8-2.129,18.775-2.346c5.666-0.156,9.592,0.15,10.529,0.727c0.127,0.087,0.154,0.104,0.205,0.156        c0.094,0.095,0.121,0.146,0.155,0.207c0.05,0.093,0.087,0.252,0.056,0.4c-0.041,0.186-0.125,0.303-0.24,0.423        c-0.153,0.155-0.405,0.286-0.5,0.335c2.065-1.035-2.41-1.695-10.183-1.482c-7.93,0.219-16.288,1.263-18.667,2.333        C7.319,21.602,7.345,21.936,8.088,22.196z" stroke-width="1"/>
					</g>
				</g>
				<g>
					<path fill="#AC9241" d="M33.097,16.256c-0.022-0.014-0.054-0.027-0.08-0.04C33.043,16.229,33.073,16.242,33.097,16.256       c-0.431-0.262-0.908-0.375-1.139-0.428c-1.143-0.262-3.52-0.383-6.684-0.295c-5.26,0.144-10.791,0.812-12.729,1.519       c-0.467,0.173-0.79,0.343-1.081,0.571c0.012-0.01,0.024-0.018,0.037-0.026c-0.013,0.009-0.025,0.019-0.038,0.027       c-1.294,1.034-2.589,2.069-3.884,3.104c0.105-0.085,0.257-0.172,0.457-0.262c2.395-1.077,10.8-2.129,18.775-2.346       c5.662-0.156,9.584,0.149,10.527,0.726C35.925,17.982,34.511,17.119,33.097,16.256z M11.694,17.482       c0.031-0.018,0.066-0.032,0.102-0.05C11.759,17.45,11.726,17.466,11.694,17.482z M11.528,17.577       c0.015-0.011,0.031-0.021,0.049-0.03C11.56,17.558,11.543,17.566,11.528,17.577z M11.604,17.529       c0.02-0.011,0.039-0.021,0.061-0.031C11.644,17.508,11.623,17.52,11.604,17.529z" stroke-width="1"/>
				</g>
			</g>
			<g>
				<path fill="#AC9241" d="M20.988,7.928c-0.13,0.564-0.296,1.137-0.358,1.701c-0.076,0.682-0.109,1.367-0.1,2.053      c0.018,1.345,0.193,2.691,0.553,3.988c-0.009-0.068-0.018-0.137-0.025-0.205c-0.158-1.286-0.278-2.58-0.281-3.877      c-0.002-0.646,0.027-1.292,0.098-1.934c0.07-0.648,0.102-1.304,0.165-1.959C21.024,7.773,21.007,7.851,20.988,7.928z" stroke-width="1"/>
			</g>
			<g>
				<path fill="#AC9241" d="M13.334,16.568c0.024-0.427-0.103-0.896-0.112-1.329c-0.01-0.468,0.012-0.938,0.082-1.401      c0.135-0.919,0.457-1.81,1.026-2.551c1.176-1.53,3.167-2.531,5.026-2.916c-0.662,0.137-1.162,0.521-1.76,0.801      c-0.475,0.221-0.936,0.416-1.379,0.713c-0.908,0.607-1.705,1.408-2.166,2.41C13.444,13.623,13.418,15.137,13.334,16.568z" stroke-width="1"/>
			</g>
			<g>
				<path fill="#AC9241" d="M26.419,9.403c-0.26-0.271-0.555-0.505-0.855-0.729c-0.316-0.232-0.644-0.455-1-0.621      c-0.416-0.194-0.877-0.308-1.336-0.276c0.494,0.145,0.965,0.399,1.429,0.612c0.812,0.374,1.474,1.013,2.015,1.722      c1.131,1.483,0.934,3.44,1.314,5.177C28.085,13.314,27.854,10.9,26.419,9.403z" stroke-width="1"/>
			</g>
		</g>
	</g>
</g>
</svg>