<?xml version="1.0" encoding="utf-8"?><!-- Generator: Adobe Illustrator 16.0.0, SVG Export Plug-In . SVG Version: 6.00 Build 0)  --><!DOCTYPE svg PUBLIC "-//W3C//DTD SVG 1.0//EN" "http://www.w3.org/TR/2001/REC-SVG-20010904/DTD/svg10.dtd"><svg xmlns="http://www.w3.org/2000/svg" xmlns:xlink="http://www.w3.org/1999/xlink" version="1.0" id="Calque_1" x="0px" y="0px" width="32.86009407043457" height="44.211997985839844" viewBox="1.9470345973968506 2.2680001258850098 32.86009407043457 44.211997985839844" enable-background="new 0 0 36.75 48.75" xml:space="preserve">
<g id="singe_1">
	<g>
		<g>
			<path fill="#8D5E1B" d="M21.081,45.516c-0.082,0-0.158-0.006-0.227-0.018c-0.381-0.061-0.693-0.343-0.846-0.505     c-0.121-0.128-0.262-0.272-0.402-0.342c-0.111-0.056-0.246-0.095-0.426-0.13c-0.045-0.008-0.088-0.012-0.131-0.018     c-0.129-0.014-0.289-0.033-0.469-0.111c-0.143-0.063-0.252-0.152-0.332-0.265c-0.076,0.112-0.188,0.2-0.33,0.263     c-0.178,0.08-0.34,0.099-0.469,0.113c-0.041,0.006-0.084,0.01-0.129,0.018c-0.18,0.033-0.314,0.074-0.426,0.129     c-0.141,0.07-0.281,0.214-0.402,0.343c-0.188,0.199-0.484,0.448-0.848,0.505c-0.068,0.01-0.146,0.018-0.227,0.018     c-0.172,0-0.42-0.031-0.617-0.183c-0.059-0.044-0.109-0.096-0.152-0.153c-0.076,0.032-0.16,0.058-0.254,0.07     c-0.062,0.01-0.133,0.016-0.209,0.016c-0.176,0-0.43-0.033-0.633-0.19c-0.074-0.058-0.135-0.126-0.182-0.205     c-0.027,0.006-0.057,0.013-0.086,0.017c-0.062,0.01-0.135,0.016-0.211,0.016c-0.176,0-0.43-0.033-0.633-0.189     c-0.266-0.205-0.369-0.58-0.258-0.931c0.182-0.576,0.746-0.843,0.932-0.931c0.283-0.135,0.656-0.299,1.072-0.418     c-0.039-0.338-0.064-0.694-0.078-1.096c-2.602-0.098-6.084-1.162-7.988-3.367c-1.418-1.642-1.715-3.584-0.861-5.619     c0.566-1.359,1.648-2.154,3.213-2.363c0.176-0.023,0.352-0.035,0.523-0.035c0.746,0,1.451,0.211,2.047,0.605     c0.154-0.547,0.369-1.158,0.693-1.756c0.406-0.755,1.33-1.677,2.016-2.303c-0.869-0.395-1.637-0.9-2.25-1.49l-0.006-0.002     c-0.174-0.087-0.346-0.173-0.514-0.27c-1.65-0.956-2.949-2.463-3.564-4.133c-0.439-1.192-0.406-2.201-0.242-3.061     c-0.029,0-0.059-0.001-0.088-0.003c-0.934-0.048-2.266-0.21-3.061-1.054c-0.738-0.782-1.174-1.951-1.115-2.977     c0.059-0.967,0.393-1.812,0.686-2.561c0.465-1.175,1.078-1.905,1.873-2.23c0.32-0.133,0.684-0.199,1.076-0.199     c0.354,0,0.727,0.051,1.178,0.156c0.656,0.155,1.389,0.377,2.053,0.846c0.414-0.813,0.889-1.497,1.393-1.995     c0.695-0.688,1.592-1.249,2.74-1.72c0.482-0.196,0.965-0.365,1.441-0.506c-0.018-0.179-0.006-0.356,0.035-0.527     c0.064-0.27,0.197-0.494,0.383-0.654c0.199-0.172,0.463-0.268,0.744-0.268c0.225,0,0.445,0.059,0.641,0.168     c0.031,0.017,0.061,0.035,0.09,0.055c0.02-0.04,0.039-0.078,0.064-0.115c0.301-0.471,0.699-0.73,1.119-0.73     c0.041,0,0.082,0.002,0.123,0.007c0.48,0.06,0.855,0.46,1,1.044c0.152-0.049,0.303-0.074,0.441-0.096     c0.059-0.008,0.121-0.016,0.184-0.016c0.16,0,0.301,0.043,0.42,0.128c0.137,0.101,0.207,0.233,0.246,0.324     c0.074,0.175,0.113,0.364,0.119,0.56c0.609,0.157,1.238,0.367,1.875,0.627c1.148,0.47,2.045,1.031,2.74,1.719     c0.504,0.499,0.98,1.181,1.395,1.996c0.664-0.469,1.396-0.691,2.051-0.846c0.451-0.106,0.826-0.156,1.178-0.156     c0.395,0,0.756,0.065,1.076,0.197c0.797,0.327,1.41,1.058,1.873,2.231c0.295,0.747,0.629,1.593,0.686,2.56     c0.061,1.025-0.379,2.194-1.113,2.978c-0.795,0.843-2.127,1.005-3.062,1.054c-0.029,0.001-0.057,0.003-0.086,0.003     c0.164,0.859,0.197,1.868-0.242,3.06c-0.615,1.67-1.916,3.178-3.564,4.135c-0.256,0.148-0.527,0.289-0.822,0.427     c-0.547,0.49-1.184,0.91-1.9,1.252c0.709,0.642,1.682,1.599,2.105,2.384c0.617,1.141,0.857,2.353,1.053,3.326     c0.041,0.215,0.088,0.446,0.135,0.653c0.014,0.004,0.025,0.009,0.037,0.014c0.307,0.117,0.541,0.313,0.748,0.487     c0.113,0.094,0.238,0.197,0.346,0.335l0.008,0.008c0.18,0.177,0.342,0.372,0.484,0.546l0.145,0.172     c0.102,0.114,0.24,0.271,0.305,0.491c0.104,0.354-0.041,0.731-0.377,0.986c-0.164,0.125-0.352,0.19-0.543,0.19     c-0.025,0-0.051,0-0.074-0.003c-0.029,0.329-0.258,0.615-0.615,0.761c-0.117,0.049-0.236,0.074-0.354,0.074     c-0.188,0-0.344-0.056-0.479-0.143c-0.004,0.011-0.01,0.023-0.014,0.035c-0.137,0.337-0.467,0.537-0.879,0.537     c-0.977-0.022-0.986-1.1-0.986-1.516c-0.162,0.096-0.34,0.159-0.537,0.159c-0.115,0-0.229-0.022-0.336-0.069     c-0.125,0.875-0.434,1.625-1.09,2.02c0.033,0.141,0.064,0.291,0.092,0.452c0.119,0.657,0.182,1.38,0.188,2.208     c0.006,0.691-0.025,1.318-0.096,1.908c0.42,0.117,0.791,0.283,1.074,0.418c0.186,0.086,0.75,0.354,0.932,0.932     c0.109,0.352,0.006,0.725-0.26,0.931c-0.201,0.156-0.455,0.189-0.633,0.189c-0.074,0-0.146-0.007-0.211-0.017     c-0.027-0.005-0.057-0.01-0.084-0.017c-0.047,0.078-0.107,0.147-0.182,0.205c-0.201,0.157-0.455,0.19-0.633,0.19     c-0.074,0-0.146-0.006-0.209-0.016c-0.094-0.013-0.178-0.039-0.254-0.07c-0.041,0.058-0.094,0.108-0.15,0.152     C21.499,45.485,21.255,45.516,21.081,45.516z M16.997,42.344c0.391,0.114,0.787,0.262,1.072,0.555     c0.072,0.074,0.133,0.156,0.182,0.244c0.049-0.086,0.109-0.17,0.182-0.244c0.285-0.293,0.684-0.44,1.072-0.555     c0.127-0.859,0.09-2.494-0.07-3.641c-0.531,1.134-1.375,1.902-2.512,2.294C16.923,41.537,16.95,42.008,16.997,42.344z      M7.981,32.551c-0.256,0.154-0.432,0.381-0.568,0.703c-0.502,1.197-0.346,2.242,0.479,3.195c1.359,1.577,4.174,2.466,6.291,2.556     c0.027-0.237,0.061-0.464,0.102-0.688c0.045-0.257,0.1-0.489,0.158-0.702c-0.441-0.426-0.668-1.053-0.77-1.766     c-0.105,0.045-0.221,0.067-0.334,0.067c-0.197,0-0.375-0.063-0.537-0.159c0,0.416-0.01,1.492-0.957,1.516l0,0     c-0.443,0-0.771-0.2-0.908-0.534c-0.006-0.013-0.01-0.022-0.014-0.036c-0.135,0.087-0.291,0.143-0.477,0.143     c-0.119,0-0.24-0.024-0.355-0.074c-0.121-0.049-0.229-0.115-0.318-0.196c-0.023,0-0.045,0-0.066,0     c-0.576,0-1.137-0.19-1.617-0.55c-0.621-0.465-0.945-1.252-0.848-2.055C7.31,33.398,7.575,32.9,7.981,32.551z M23.042,30.975     c0.002,0.274,0.008,0.553,0.029,0.826c0.018,0.196,0.039,0.418,0.064,0.658c0.047,0.455,0.1,0.964,0.129,1.486     c0.121-0.122,0.248-0.248,0.387-0.365c-0.072-0.285-0.131-0.585-0.193-0.898C23.349,32.135,23.231,31.537,23.042,30.975z      M13.239,33.58c0.139,0.117,0.268,0.242,0.387,0.364c0.029-0.513,0.082-1.021,0.131-1.483c0.023-0.24,0.047-0.463,0.062-0.66     c0.023-0.271,0.027-0.545,0.029-0.828c-0.189,0.563-0.307,1.162-0.416,1.709C13.368,32.995,13.31,33.296,13.239,33.58z      M10.013,32.708c0.021,0.037,0.041,0.076,0.057,0.115c0.025,0.06,0.045,0.119,0.061,0.18c0.02-0.015,0.041-0.028,0.062-0.042     c-0.01-0.021-0.023-0.044-0.037-0.064C10.112,32.829,10.065,32.766,10.013,32.708z" stroke-width="1"/>
			<path d="M18.433,3.697c0.021,0,0.045,0.001,0.066,0.004c0.391,0.048,0.592,0.494,0.641,0.885c0.031,0.229,0.033,0.46,0.01,0.689     c0,0.005,0,0.01,0,0.015c0-0.005,0-0.01,0-0.015c0.023-0.195,0.168-0.362,0.338-0.459c0.176-0.101,0.379-0.137,0.58-0.168     c0.037-0.006,0.076-0.01,0.115-0.01c0.051,0,0.102,0.008,0.145,0.039c0.045,0.032,0.07,0.082,0.094,0.131     c0.1,0.234,0.102,0.488,0.037,0.731c0.758,0.167,1.496,0.41,2.207,0.7c0.947,0.388,1.861,0.898,2.59,1.619     c0.643,0.637,1.164,1.521,1.555,2.404c0.623-0.609,1.379-0.91,2.324-1.133c0.348-0.082,0.711-0.144,1.068-0.144     c0.311,0,0.615,0.046,0.9,0.163c0.809,0.332,1.297,1.158,1.617,1.972c0.312,0.794,0.602,1.556,0.652,2.416     c0.055,0.924-0.357,1.961-0.988,2.632c-0.656,0.696-1.838,0.861-2.748,0.908c-0.033,0.002-0.066,0.002-0.102,0.002     c-0.184,0-0.371-0.023-0.559-0.057c0.293,1.096,0.383,2.164-0.082,3.421c-0.604,1.638-1.859,3.021-3.361,3.892     c-0.273,0.159-0.559,0.305-0.85,0.438c-0.672,0.615-1.521,1.133-2.5,1.51c0.861,0.729,2.1,1.893,2.557,2.738     c0.584,1.082,0.818,2.258,1.006,3.203c0.07,0.349,0.137,0.677,0.209,0.939c0.086,0.014,0.17,0.033,0.252,0.064     c0.232,0.089,0.428,0.25,0.617,0.41c0.1,0.082,0.199,0.166,0.279,0.268c0,0.001-0.004,0.002-0.004,0.003     c0.219,0.203,0.414,0.452,0.594,0.668c0.098,0.12,0.227,0.235,0.271,0.39c0.055,0.193-0.062,0.37-0.213,0.484     c-0.088,0.066-0.178,0.096-0.262,0.096c-0.379,0-0.725-0.553-0.938-0.787c-0.1-0.109-0.25-0.232-0.377-0.371l-0.002,0.002l0,0     c0.275,0.291,0.449,0.728,0.617,1.088c0.066,0.142,0.158,0.285,0.162,0.447c0.006,0.201-0.154,0.342-0.33,0.413     c-0.062,0.026-0.123,0.038-0.178,0.038c-0.432,0-0.645-0.71-0.803-1.015c-0.043-0.086-0.104-0.191-0.162-0.302     c0.07,0.332,0.066,0.701,0.074,1.024c0.002,0.156,0.029,0.325-0.031,0.474c-0.074,0.181-0.268,0.246-0.449,0.246     c-0.006,0-0.012,0-0.018,0c-0.602-0.015-0.482-0.9-0.508-1.287c-0.014-0.211-0.049-0.537-0.023-0.775     c-0.002,0.002-0.004,0.003-0.006,0.005c-0.225,0.208-0.6,0.702-0.967,0.702c-0.1,0-0.195-0.036-0.289-0.121     c-0.141-0.126-0.242-0.312-0.168-0.501c0.059-0.149,0.193-0.253,0.305-0.363c0.273-0.274,0.576-0.608,0.924-0.792l-0.158,0.045     c-0.098-0.342-0.174-0.724-0.254-1.129c-0.172-0.865-0.367-1.845-0.818-2.678c-0.098-0.178-0.287-0.418-0.525-0.682     c0.014,0.492,0.008,0.985,0.008,1.475c-0.002,0.378-0.002,0.758,0.029,1.133c0.139,1.68,0.742,5.17-1.002,5.758     c-0.01,0.004-0.021,0.006-0.031,0.008c0.08,0.264,0.141,0.533,0.188,0.795c0.127,0.703,0.174,1.418,0.18,2.132     c0.004,0.653-0.023,1.312-0.107,1.961c-0.012,0.097-0.021,0.198-0.031,0.299c0.098,0.021,0.193,0.043,0.291,0.067     c0.381,0.098,0.738,0.246,1.092,0.414c0.289,0.138,0.586,0.332,0.688,0.652c0.045,0.146,0.021,0.328-0.102,0.424     c-0.088,0.067-0.223,0.092-0.348,0.092c-0.051,0-0.1-0.004-0.143-0.01c-0.188-0.029-0.326-0.146-0.461-0.268     c-0.047-0.042-0.092-0.083-0.139-0.123c-0.055-0.044-0.109-0.087-0.17-0.139c0.1,0.117,0.203,0.238,0.25,0.386     c0.045,0.147,0.02,0.329-0.102,0.423c-0.088,0.069-0.223,0.092-0.348,0.092c-0.051,0-0.1-0.004-0.143-0.011     c-0.193-0.028-0.34-0.153-0.479-0.282c-0.096-0.086-0.199-0.16-0.309-0.229c0.062,0.076,0.111,0.164,0.141,0.262     c0.045,0.146,0.018,0.329-0.105,0.422c-0.088,0.064-0.219,0.088-0.34,0.088c-0.053,0-0.105-0.005-0.152-0.012     c-0.217-0.035-0.434-0.208-0.58-0.364c-0.154-0.166-0.328-0.339-0.535-0.44c-0.172-0.086-0.361-0.135-0.549-0.17     c-0.176-0.031-0.326-0.022-0.492-0.098c-0.096-0.042-0.154-0.094-0.182-0.201c-0.021-0.094-0.014-0.188,0.018-0.281     c0.031-0.098,0.088-0.188,0.16-0.262c0.221-0.229,0.572-0.346,0.873-0.434c0.086-0.025,0.176-0.037,0.264-0.055     c0.242-0.959,0.158-3.56-0.135-4.789c-0.182,0.014-0.361,0.029-0.543,0.035c-0.395,1.138-1.16,2.246-2.766,2.672     c-0.016,0.849,0.027,1.639,0.141,2.082c0.088,0.018,0.176,0.029,0.264,0.055c0.297,0.088,0.65,0.205,0.871,0.434     c0.072,0.073,0.129,0.166,0.162,0.262c0.029,0.092,0.037,0.188,0.014,0.281c-0.025,0.107-0.084,0.159-0.178,0.201     c-0.168,0.074-0.32,0.066-0.494,0.098c-0.188,0.035-0.375,0.084-0.547,0.17c-0.207,0.103-0.381,0.274-0.537,0.44     c-0.146,0.156-0.363,0.329-0.58,0.364c-0.047,0.007-0.098,0.012-0.154,0.012c-0.119,0-0.25-0.021-0.338-0.088     c-0.123-0.094-0.148-0.273-0.104-0.422c0.029-0.098,0.078-0.186,0.139-0.262c-0.107,0.068-0.213,0.143-0.307,0.229     c-0.141,0.129-0.285,0.254-0.48,0.282c-0.043,0.007-0.09,0.011-0.141,0.011c-0.125,0-0.26-0.022-0.348-0.092     c-0.123-0.094-0.148-0.275-0.102-0.423s0.15-0.269,0.25-0.386c-0.061,0.052-0.115,0.095-0.17,0.139     c-0.047,0.039-0.092,0.081-0.139,0.123c-0.135,0.122-0.273,0.24-0.461,0.268c-0.043,0.006-0.092,0.01-0.143,0.01     c-0.125,0-0.26-0.023-0.348-0.092c-0.121-0.096-0.146-0.276-0.102-0.424c0.102-0.32,0.4-0.515,0.688-0.652     c0.354-0.166,0.711-0.315,1.092-0.414c0.096-0.024,0.193-0.047,0.291-0.067c-0.01-0.101-0.02-0.201-0.031-0.298     c-0.068-0.534-0.094-1.073-0.1-1.611c-0.021,0-0.041,0.001-0.062,0.001c-2.77,0-6.236-1.137-8.029-3.214     c-1.293-1.499-1.564-3.275-0.785-5.137c0.508-1.212,1.439-1.895,2.848-2.082c0.156-0.021,0.311-0.031,0.463-0.031     c0.895,0,1.719,0.35,2.318,0.966c0.17-0.756,0.408-1.583,0.83-2.36c0.443-0.822,1.621-1.939,2.477-2.672     c-1.139-0.41-2.113-1.004-2.85-1.725c-0.188-0.094-0.377-0.186-0.557-0.29c-1.502-0.87-2.758-2.253-3.361-3.892     c-0.465-1.258-0.375-2.325-0.082-3.422c-0.188,0.033-0.375,0.058-0.559,0.058c-0.033,0-0.068,0-0.102-0.002     c-0.908-0.047-2.09-0.211-2.746-0.908c-0.631-0.67-1.043-1.708-0.99-2.632c0.051-0.859,0.342-1.622,0.654-2.416     c0.32-0.812,0.809-1.641,1.617-1.973c0.285-0.116,0.59-0.162,0.898-0.162c0.357,0,0.723,0.062,1.07,0.144     c0.945,0.224,1.701,0.523,2.324,1.134c0.391-0.886,0.912-1.769,1.555-2.406c0.73-0.721,1.643-1.23,2.59-1.618     c0.592-0.242,1.201-0.449,1.826-0.608c-0.1-0.238-0.135-0.496-0.074-0.746c0.039-0.156,0.115-0.308,0.236-0.412     c0.121-0.105,0.279-0.154,0.441-0.154c0.143,0,0.289,0.037,0.412,0.107c0.266,0.148,0.445,0.415,0.562,0.695     c0.055-0.273,0.061-0.674,0.211-0.911C17.872,3.952,18.132,3.697,18.433,3.697 M12.722,33.721l-0.158-0.045     c0.348,0.185,0.652,0.519,0.926,0.791c0.109,0.11,0.246,0.215,0.305,0.364c0.074,0.188-0.029,0.375-0.168,0.501     c-0.094,0.085-0.189,0.121-0.287,0.121c-0.367,0-0.742-0.495-0.969-0.702c-0.002-0.001-0.004-0.003-0.006-0.005     c0.025,0.239-0.01,0.562-0.023,0.773c-0.025,0.388,0.094,1.274-0.508,1.289c-0.006,0-0.012,0-0.018,0     c-0.182,0-0.375-0.066-0.449-0.248c-0.061-0.147-0.035-0.316-0.031-0.473c0.006-0.22,0.006-0.46,0.025-0.695     c-0.072,0.068-0.143,0.135-0.217,0.193c-0.148,0.338-0.354,0.793-0.699,0.793c-0.055,0-0.115-0.012-0.18-0.037     c-0.121-0.05-0.23-0.136-0.289-0.248c-0.09,0.01-0.18,0.017-0.271,0.017c-0.461,0-0.926-0.148-1.338-0.458     C7.88,35.287,7.624,34.665,7.7,34.027c0.078-0.635,0.459-1.157,1.021-1.395c0.088-0.039,0.182-0.057,0.271-0.057     c0.273,0,0.533,0.161,0.646,0.428c0.15,0.356-0.016,0.768-0.371,0.919c-0.139,0.06-0.17,0.224-0.176,0.273     c-0.014,0.104,0.01,0.255,0.113,0.333c0.008,0.005,0.014,0.007,0.021,0.012c0.172-0.208,0.355-0.439,0.562-0.631     c-0.002-0.001-0.004-0.002-0.006-0.003c0.082-0.101,0.182-0.185,0.281-0.269c0.189-0.158,0.385-0.32,0.615-0.41     c0.023-0.008,0.049-0.01,0.072-0.018c-0.031-0.197-0.096-0.391-0.203-0.562c-0.33-0.525-0.908-0.827-1.551-0.827     c-0.092,0-0.184,0.006-0.275,0.019c-0.908,0.121-1.43,0.49-1.74,1.234c-0.568,1.355-0.381,2.594,0.555,3.678     c1.498,1.737,4.611,2.725,6.992,2.725c0.023,0,0.049,0,0.074,0c0.027-0.36,0.072-0.721,0.135-1.076     c0.057-0.313,0.133-0.639,0.242-0.948c-1.367-0.877-0.83-4.039-0.699-5.613c0.031-0.375,0.031-0.755,0.029-1.133     c-0.002-0.487-0.008-0.981,0.008-1.474c-0.238,0.263-0.43,0.503-0.527,0.681c-0.449,0.833-0.645,1.813-0.816,2.678     C12.896,32.995,12.819,33.379,12.722,33.721 M16.548,39.139c0.531-0.242,0.896-0.631,1.154-1.156     c-0.322-0.01-0.643-0.034-0.959-0.071C16.661,38.237,16.597,38.662,16.548,39.139 M18.433,2.768     c-0.498,0-0.979,0.258-1.346,0.717c-0.184-0.062-0.375-0.094-0.568-0.094c-0.393,0-0.766,0.136-1.049,0.381     c-0.26,0.225-0.441,0.535-0.531,0.896c-0.023,0.097-0.039,0.195-0.047,0.293c-0.383,0.122-0.77,0.263-1.152,0.419     c-1.207,0.493-2.152,1.088-2.891,1.819c-0.451,0.444-0.867,1.003-1.242,1.668c-0.594-0.328-1.209-0.509-1.771-0.64     c-0.48-0.114-0.9-0.168-1.283-0.168c-0.455,0-0.875,0.078-1.252,0.232c-0.92,0.377-1.617,1.191-2.129,2.491     c-0.293,0.739-0.656,1.661-0.719,2.703c-0.066,1.146,0.42,2.452,1.24,3.323c0.789,0.836,1.986,1.084,2.951,1.17     c-0.09,0.8-0.047,1.734,0.342,2.789c0.652,1.771,2.025,3.364,3.768,4.375c0.162,0.095,0.324,0.176,0.482,0.254     c0.49,0.461,1.07,0.873,1.715,1.223c-0.629,0.611-1.277,1.329-1.621,1.962c-0.234,0.437-0.416,0.875-0.559,1.292     c-0.543-0.252-1.145-0.386-1.771-0.386c-0.193,0-0.391,0.014-0.586,0.04c-1.738,0.232-2.943,1.121-3.582,2.645     c-0.91,2.178-0.576,4.346,0.939,6.104c1.891,2.19,5.248,3.306,7.895,3.504c0.008,0.112,0.016,0.221,0.025,0.327     c-0.297,0.104-0.559,0.224-0.773,0.324c-0.23,0.109-0.932,0.442-1.176,1.211c-0.17,0.535-0.002,1.112,0.416,1.438     c0.242,0.188,0.561,0.288,0.918,0.288c0.035,0,0.068-0.001,0.104-0.002c0.027,0.027,0.059,0.053,0.09,0.078     c0.242,0.188,0.559,0.287,0.918,0.287c0.094,0,0.188-0.006,0.279-0.021c0.016-0.003,0.033-0.006,0.051-0.009     c0.002,0,0.002,0.001,0.002,0.002c0.24,0.182,0.551,0.277,0.9,0.277c0.102,0,0.201-0.008,0.301-0.023     c0.49-0.079,0.875-0.395,1.109-0.646c0.055-0.057,0.195-0.205,0.271-0.243c0.07-0.034,0.17-0.062,0.303-0.089     c0.035-0.006,0.068-0.008,0.1-0.012c0.145-0.018,0.359-0.041,0.605-0.15c0.049-0.022,0.096-0.047,0.141-0.072     c0.043,0.025,0.092,0.05,0.143,0.072c0.244,0.109,0.461,0.134,0.604,0.15c0.033,0.002,0.066,0.006,0.1,0.012     c0.135,0.024,0.232,0.055,0.303,0.089c0.076,0.038,0.217,0.188,0.27,0.243c0.238,0.252,0.621,0.567,1.113,0.646     c0.098,0.016,0.197,0.023,0.299,0.023c0.35,0,0.66-0.096,0.9-0.276c0,0,0.002-0.001,0.002-0.002     c0.018,0.003,0.035,0.006,0.053,0.009c0.09,0.014,0.184,0.021,0.277,0.021c0.357,0,0.676-0.1,0.918-0.288     c0.031-0.024,0.061-0.05,0.09-0.077c0.033,0.001,0.068,0.002,0.102,0.002c0.359,0,0.678-0.1,0.92-0.288     c0.418-0.325,0.584-0.901,0.416-1.437c-0.244-0.771-0.945-1.104-1.176-1.213c-0.213-0.101-0.475-0.219-0.771-0.323     c0.045-0.497,0.064-1.021,0.059-1.584c-0.006-0.855-0.068-1.604-0.193-2.289c-0.01-0.056-0.02-0.108-0.031-0.161     c0.502-0.409,0.791-1.008,0.947-1.691c0.025,0,0.053-0.002,0.078-0.005c0.176,1.085,0.814,1.349,1.363,1.361h0.01h0.029     c0.439,0,0.826-0.169,1.084-0.459c0.09,0.021,0.188,0.03,0.289,0.03c0.178,0,0.357-0.036,0.531-0.107     c0.381-0.156,0.662-0.427,0.803-0.756c0.189-0.043,0.371-0.129,0.535-0.253c0.492-0.374,0.699-0.944,0.541-1.486     c-0.094-0.321-0.287-0.539-0.402-0.669l-0.047-0.053l-0.088-0.107c-0.146-0.177-0.309-0.373-0.498-0.561     c-0.137-0.169-0.283-0.291-0.4-0.391c-0.182-0.151-0.4-0.334-0.68-0.475c-0.027-0.135-0.055-0.273-0.082-0.406     c-0.201-1.01-0.451-2.261-1.102-3.463c-0.359-0.666-1.053-1.42-1.715-2.055c0.496-0.284,0.951-0.605,1.359-0.967     c0.285-0.135,0.547-0.272,0.797-0.418c1.742-1.01,3.117-2.604,3.77-4.375c0.387-1.053,0.43-1.989,0.34-2.788     c0.965-0.085,2.162-0.333,2.951-1.171c0.82-0.87,1.307-2.176,1.24-3.322c-0.062-1.042-0.426-1.963-0.719-2.703     c-0.512-1.299-1.209-2.113-2.129-2.49c-0.375-0.154-0.797-0.232-1.252-0.232c-0.383,0-0.803,0.055-1.283,0.168     c-0.561,0.132-1.176,0.312-1.77,0.64c-0.377-0.665-0.791-1.224-1.242-1.668c-0.738-0.729-1.684-1.326-2.891-1.819     c-0.549-0.224-1.094-0.412-1.625-0.562c-0.027-0.129-0.066-0.255-0.117-0.376c-0.035-0.082-0.145-0.33-0.402-0.518     c-0.137-0.1-0.367-0.217-0.689-0.217c-0.104,0-0.189,0.012-0.254,0.021c-0.023,0.004-0.049,0.008-0.072,0.011     c-0.254-0.538-0.699-0.896-1.242-0.962C18.554,2.77,18.491,2.768,18.433,2.768L18.433,2.768z M11.815,37.738h0.01h0.029     c0.549-0.014,1.189-0.276,1.365-1.361c0.025,0.002,0.053,0.004,0.078,0.006c0.119,0.516,0.318,0.983,0.631,1.361     c-0.037,0.154-0.072,0.316-0.104,0.491c-0.018,0.092-0.033,0.185-0.047,0.278c-1.502-0.134-3.27-0.649-4.547-1.51     c0.125,0.02,0.252,0.031,0.379,0.035c0.092,0.064,0.193,0.119,0.301,0.164c0.176,0.072,0.355,0.107,0.533,0.107     c0.104,0,0.199-0.01,0.289-0.029C10.991,37.569,11.376,37.738,11.815,37.738L11.815,37.738z M17.39,41.317     c0.672-0.281,1.24-0.69,1.703-1.226c0.033,0.689,0.031,1.389-0.014,1.899c-0.293,0.103-0.58,0.235-0.828,0.442     c-0.248-0.207-0.533-0.34-0.824-0.441C17.409,41.807,17.396,41.581,17.39,41.317L17.39,41.317z" stroke-width="1" fill="undefined"/>
		</g>
		<g>
			<g>
				<path fill="#704413" d="M14.507,40.883c-2.771,0-6.236-1.137-8.029-3.214c-1.295-1.499-1.566-3.274-0.785-5.137      c0.506-1.213,1.439-1.894,2.846-2.082c1.305-0.174,2.529,0.384,3.201,1.456c0.637,1.02,0.568,2.395-0.166,3.271      c-0.871,1.041-2.188,1.237-3.207,0.476C7.88,35.288,7.624,34.666,7.7,34.028c0.078-0.636,0.459-1.157,1.021-1.396      c0.357-0.15,0.768,0.016,0.918,0.372s-0.016,0.769-0.371,0.919c-0.139,0.059-0.17,0.225-0.176,0.273      c-0.014,0.105,0.01,0.255,0.113,0.333c0.617,0.462,1.145-0.076,1.291-0.252c0.35-0.418,0.373-1.118,0.053-1.628      c-0.375-0.601-1.074-0.909-1.826-0.812c-0.908,0.122-1.428,0.491-1.738,1.234c-0.57,1.356-0.383,2.595,0.553,3.679      c1.855,2.148,6.186,3.154,8.533,2.555c1.535-0.392,1.969-1.65,2.201-3.693c0.045-0.385,0.391-0.659,0.775-0.617      c0.385,0.043,0.66,0.391,0.617,0.775c-0.168,1.463-0.477,4.186-3.248,4.894C15.849,40.811,15.2,40.883,14.507,40.883z" stroke-width="1"/>
			</g>
			<g>
				<path fill="#704413" d="M22.608,31.839c-0.031-0.376-0.031-0.755-0.029-1.133c0.004-1.246,0.045-2.538-0.338-3.702      c-0.633-1.923-2.391-3.195-3.795-3.195c-1.406,0-3.164,1.272-3.797,3.195c-0.383,1.164-0.342,2.457-0.338,3.702      c0.002,0.378,0.002,0.757-0.029,1.133c-0.139,1.681-0.742,5.169,1.002,5.759c1.031,0.348,2.084,0.397,3.16,0.397      s2.129-0.05,3.16-0.397C23.351,37.008,22.747,33.518,22.608,31.839z" stroke-width="1"/>
			</g>
			<g>
				<g>
					<g>
						<path fill="#704413" d="M24.741,29.023c-0.615-1.137-2.637-2.846-3.264-3.307l-1.107,1.508        c0.83,0.608,2.375,2.039,2.727,2.688c0.451,0.833,0.646,1.813,0.818,2.678c0.08,0.405,0.156,0.787,0.254,1.13l1.799-0.513        c-0.076-0.269-0.146-0.614-0.219-0.981C25.56,31.281,25.325,30.104,24.741,29.023z" stroke-width="1"/>
					</g>
					<g>
						<g>
							<path fill="#D28F5B" d="M25.556,36.088c0.002,0.156,0.029,0.325-0.031,0.475c-0.076,0.187-0.281,0.25-0.467,0.246         c-0.602-0.015-0.482-0.9-0.508-1.287c-0.02-0.281-0.074-0.769,0.025-0.978c0.078-0.167,0.332-0.185,0.5-0.11         c0.168,0.073,0.287,0.236,0.35,0.41C25.562,35.223,25.548,35.689,25.556,36.088z" stroke-width="1"/>
						</g>
						<g>
							<path fill="#D28F5B" d="M23.403,34.467c-0.111,0.11-0.248,0.215-0.305,0.364c-0.074,0.188,0.029,0.375,0.168,0.501         c0.445,0.404,0.971-0.318,1.256-0.582c0.207-0.191,0.615-0.416,0.656-0.724c0.023-0.183-0.111-0.362-0.285-0.425         c-0.174-0.063-0.371-0.027-0.537,0.055C23.995,33.836,23.683,34.186,23.403,34.467z" stroke-width="1"/>
						</g>
						<g>
							<path fill="#D28F5B" d="M26.792,35.482c0.066,0.141,0.158,0.285,0.162,0.445c0.006,0.202-0.154,0.342-0.33,0.414         c-0.555,0.229-0.801-0.632-0.98-0.977c-0.129-0.25-0.398-0.663-0.369-0.906c0.023-0.183,0.23-0.302,0.414-0.302         c0.186,0,0.359,0.101,0.486,0.235C26.45,34.686,26.626,35.12,26.792,35.482z" stroke-width="1"/>
						</g>
						<g>
							<path fill="#D28F5B" d="M27.694,34.579c0.098,0.12,0.227,0.235,0.271,0.39c0.055,0.192-0.062,0.37-0.213,0.484         c-0.479,0.364-0.939-0.404-1.199-0.691c-0.189-0.209-0.576-0.469-0.59-0.779c-0.008-0.186,0.145-0.352,0.322-0.398         c0.18-0.047,0.371,0.006,0.529,0.104C27.159,33.898,27.438,34.273,27.694,34.579z" stroke-width="1"/>
						</g>
						<g>
							<path fill="#D28F5B" d="M25.147,34.65c0.379,0.027,0.746-0.124,1.088-0.286c0.297-0.14,0.588-0.29,0.869-0.458         c-0.08-0.102-0.18-0.186-0.279-0.268c-0.189-0.16-0.385-0.321-0.617-0.41c-0.346-0.133-0.74-0.088-1.086,0.049         c-0.209,0.083-0.41,0.18-0.605,0.291c-0.258,0.146-0.531,0.289-0.668,0.568c-0.051,0.105-0.078,0.244,0,0.332         c0.039,0.043,0.096,0.063,0.152,0.08c0.189,0.061,0.389,0.092,0.588,0.1c0.088,0.003,0.156-0.017,0.24-0.027         C24.933,34.607,25.046,34.643,25.147,34.65z" stroke-width="1"/>
						</g>
					</g>
				</g>
				<g>
					<g>
						<path fill="#704413" d="M12.149,29.023c0.615-1.137,2.637-2.846,3.264-3.307l1.105,1.508        c-0.828,0.608-2.373,2.039-2.725,2.688c-0.449,0.833-0.646,1.813-0.818,2.678c-0.08,0.405-0.156,0.787-0.254,1.13        l-1.797-0.513c0.076-0.269,0.145-0.614,0.219-0.981C11.331,31.281,11.565,30.104,12.149,29.023z" stroke-width="1"/>
					</g>
					<g>
						<g>
							<path fill="#D28F5B" d="M11.335,36.088c-0.004,0.156-0.029,0.325,0.031,0.475c0.076,0.187,0.279,0.25,0.467,0.246         c0.602-0.015,0.482-0.9,0.508-1.287c0.018-0.281,0.074-0.769-0.025-0.978c-0.078-0.167-0.33-0.185-0.5-0.11         c-0.168,0.073-0.287,0.236-0.348,0.41C11.329,35.223,11.345,35.689,11.335,36.088z" stroke-width="1"/>
						</g>
						<g>
							<path fill="#D28F5B" d="M13.489,34.467c0.109,0.11,0.246,0.215,0.305,0.364c0.072,0.188-0.029,0.375-0.168,0.501         c-0.443,0.404-0.971-0.318-1.256-0.582c-0.209-0.191-0.615-0.416-0.656-0.724c-0.025-0.183,0.111-0.362,0.285-0.425         c0.174-0.063,0.371-0.027,0.535,0.055C12.896,33.836,13.208,34.186,13.489,34.467z" stroke-width="1"/>
						</g>
						<g>
							<path fill="#D28F5B" d="M10.097,35.482c-0.064,0.141-0.158,0.285-0.162,0.445c-0.004,0.202,0.156,0.342,0.33,0.414         c0.557,0.229,0.803-0.632,0.98-0.977c0.131-0.25,0.398-0.663,0.369-0.906c-0.02-0.183-0.229-0.302-0.414-0.302         c-0.184,0-0.355,0.101-0.482,0.235C10.438,34.686,10.265,35.12,10.097,35.482z" stroke-width="1"/>
						</g>
						<g>
							<path fill="#D28F5B" d="M9.198,34.579c-0.1,0.12-0.227,0.235-0.271,0.39c-0.057,0.192,0.062,0.37,0.213,0.484         c0.479,0.364,0.938-0.404,1.199-0.691c0.189-0.209,0.576-0.469,0.59-0.779c0.008-0.186-0.145-0.352-0.324-0.398         c-0.178-0.047-0.371,0.006-0.529,0.104C9.733,33.898,9.452,34.273,9.198,34.579z" stroke-width="1"/>
						</g>
						<g>
							<path fill="#D28F5B" d="M11.743,34.65c-0.379,0.027-0.746-0.124-1.088-0.286c-0.297-0.14-0.588-0.29-0.871-0.458         c0.082-0.102,0.182-0.186,0.281-0.268c0.189-0.16,0.385-0.321,0.615-0.41c0.346-0.133,0.742-0.088,1.086,0.049         c0.209,0.083,0.412,0.18,0.607,0.291c0.26,0.146,0.531,0.289,0.668,0.568c0.053,0.105,0.078,0.244-0.002,0.332         c-0.039,0.043-0.096,0.063-0.15,0.08c-0.191,0.061-0.389,0.092-0.586,0.1c-0.09,0.003-0.16-0.017-0.244-0.027         C11.958,34.607,11.847,34.643,11.743,34.65z" stroke-width="1"/>
						</g>
					</g>
				</g>
			</g>
			<g>
				<g>
					<path fill="#D28F5B" d="M17.896,43.485c-0.031-0.099-0.088-0.188-0.16-0.263c-0.221-0.229-0.574-0.346-0.873-0.434       c-0.33-0.097-0.676-0.139-1.018-0.137c-0.486,0.001-0.967,0.086-1.438,0.205c-0.381,0.099-0.738,0.246-1.092,0.414       c-0.287,0.138-0.586,0.332-0.688,0.651c-0.047,0.147-0.02,0.328,0.102,0.423c0.123,0.097,0.342,0.104,0.49,0.082       c0.188-0.027,0.326-0.146,0.461-0.267c0.047-0.042,0.092-0.083,0.139-0.123c0.053-0.044,0.109-0.087,0.17-0.137       c-0.1,0.116-0.203,0.237-0.25,0.385s-0.021,0.328,0.102,0.423c0.123,0.096,0.34,0.104,0.488,0.082       c0.195-0.029,0.34-0.154,0.48-0.281c0.094-0.088,0.199-0.162,0.307-0.229c-0.061,0.078-0.109,0.165-0.139,0.262       c-0.045,0.147-0.02,0.329,0.104,0.421c0.125,0.096,0.344,0.102,0.492,0.076c0.217-0.034,0.434-0.208,0.58-0.363       c0.156-0.166,0.33-0.34,0.537-0.44c0.172-0.085,0.359-0.136,0.547-0.169c0.176-0.032,0.328-0.024,0.494-0.098       c0.094-0.043,0.154-0.095,0.18-0.203C17.933,43.673,17.927,43.577,17.896,43.485z" stroke-width="1"/>
				</g>
				<g>
					<path fill="#704413" d="M14.706,42.855c0.004,0.041,0.01,0.082,0.016,0.123c0.02,0.129,0.064,0.287,0.209,0.33       c0.07,0.021,0.174-0.004,0.23-0.052c0.09-0.075,0.119-0.169,0.148-0.276c0.041,0.078,0.062,0.166,0.115,0.233       c0.094,0.12,0.277,0.154,0.412,0.085c0.137-0.068,0.219-0.227,0.207-0.379c0.029,0.083,0.062,0.168,0.121,0.234       c0.105,0.117,0.316,0.124,0.418-0.002c0.039-0.049,0.057-0.106,0.064-0.17c-0.008-0.053-0.01-0.104-0.029-0.163       c-0.322-1.062-0.143-4.776,0.32-5.437l-1.623-0.613c-0.332,0.473-0.475,1.071-0.576,1.631c-0.127,0.701-0.174,1.418-0.18,2.131       c-0.006,0.654,0.023,1.312,0.105,1.961C14.683,42.61,14.692,42.734,14.706,42.855z" stroke-width="1"/>
				</g>
			</g>
			<g>
				<g>
					<path fill="#D28F5B" d="M18.606,43.485c0.031-0.099,0.09-0.188,0.162-0.263c0.221-0.229,0.572-0.346,0.871-0.434       c0.33-0.097,0.676-0.139,1.02-0.137c0.484,0.001,0.965,0.086,1.436,0.205c0.381,0.099,0.736,0.246,1.092,0.414       c0.287,0.138,0.586,0.332,0.686,0.651c0.047,0.147,0.021,0.328-0.1,0.423c-0.123,0.097-0.342,0.104-0.49,0.082       c-0.188-0.027-0.326-0.146-0.461-0.267c-0.047-0.042-0.092-0.083-0.139-0.123c-0.055-0.044-0.109-0.087-0.17-0.137       c0.1,0.116,0.203,0.237,0.25,0.385c0.045,0.147,0.02,0.328-0.102,0.423c-0.123,0.096-0.342,0.104-0.488,0.082       c-0.195-0.029-0.342-0.154-0.48-0.281c-0.096-0.088-0.199-0.162-0.309-0.229c0.062,0.078,0.111,0.165,0.141,0.262       c0.045,0.147,0.016,0.329-0.105,0.421c-0.127,0.096-0.344,0.102-0.49,0.076c-0.219-0.034-0.434-0.208-0.58-0.363       c-0.156-0.166-0.33-0.34-0.537-0.44c-0.172-0.085-0.359-0.136-0.547-0.169c-0.176-0.032-0.328-0.024-0.494-0.098       c-0.094-0.043-0.154-0.095-0.18-0.203C18.569,43.673,18.575,43.577,18.606,43.485z" stroke-width="1"/>
				</g>
				<g>
					<path fill="#704413" d="M21.796,42.855c-0.006,0.041-0.01,0.082-0.016,0.123c-0.02,0.129-0.064,0.287-0.207,0.33       c-0.072,0.021-0.176-0.004-0.23-0.052c-0.092-0.075-0.119-0.169-0.15-0.276c-0.039,0.078-0.061,0.166-0.115,0.233       c-0.094,0.12-0.277,0.154-0.414,0.085c-0.135-0.068-0.217-0.227-0.203-0.379c-0.031,0.083-0.062,0.168-0.121,0.234       c-0.105,0.117-0.316,0.124-0.42-0.002c-0.039-0.049-0.057-0.106-0.064-0.17c0.008-0.053,0.012-0.104,0.029-0.163       c0.322-1.062,0.143-4.776-0.32-5.437l1.623-0.613c0.332,0.473,0.475,1.071,0.576,1.631c0.127,0.701,0.174,1.418,0.18,2.131       c0.006,0.654-0.021,1.312-0.105,1.961C21.819,42.61,21.81,42.734,21.796,42.855z" stroke-width="1"/>
				</g>
			</g>
			<g>
				<path fill="#D28F5B" d="M21.661,32.279c-0.166-0.801-0.143-1.645-0.484-2.395c-0.502-1.104-1.607-1.701-2.732-1.701      c-1.123,0-2.229,0.597-2.73,1.701c-0.342,0.75-0.32,1.594-0.486,2.395c-0.264,1.277-1.158,2.878-0.1,4.029      c0.795,0.863,2.084,1.239,3.316,1.239c1.234,0,2.523-0.376,3.318-1.239C22.821,35.158,21.929,33.557,21.661,32.279z" stroke-width="1"/>
			</g>
			<g>
				<g>
					<g>
						<path fill="#704413" d="M7.118,17.079c0.623,0.033,1.312-0.192,1.893-0.403c2.227-0.809,2.664-3.979,1.457-5.783        C9.759,9.835,8.847,9.421,7.622,9.132c-0.65-0.153-1.352-0.233-1.969,0.021c-0.809,0.332-1.297,1.157-1.617,1.971        c-0.312,0.794-0.604,1.556-0.652,2.416c-0.055,0.924,0.357,1.961,0.988,2.631C5.028,16.868,6.21,17.032,7.118,17.079z" stroke-width="1"/>
					</g>
					<g>
						<path fill="#D28F5B" d="M9.048,11.613c-0.047-0.748-0.838-1.098-1.506-1.256c-0.451-0.105-0.939-0.161-1.369,0.015        c-0.564,0.231-0.902,0.806-1.125,1.372c-0.23,0.579-0.516,1.345-0.426,1.97c0.084,0.601,0.354,1.19,0.785,1.621        c0.951,0.948,2.756,0.547,2.543-0.998c-0.084-0.596-0.508-1.108-1.037-1.397c0.426,0.13,0.896,0.132,1.303-0.047        c0.406-0.18,0.734-0.551,0.812-0.988C9.048,11.801,9.054,11.704,9.048,11.613z" stroke-width="1"/>
					</g>
				</g>
				<g>
					<g>
						<path fill="#704413" d="M29.638,17.079c-0.623,0.033-1.312-0.192-1.893-0.403c-2.227-0.809-2.664-3.979-1.457-5.783        c0.709-1.058,1.621-1.472,2.846-1.761c0.65-0.153,1.352-0.233,1.969,0.021c0.809,0.332,1.297,1.157,1.617,1.971        c0.312,0.794,0.604,1.556,0.652,2.416c0.055,0.924-0.357,1.961-0.988,2.631C31.728,16.868,30.546,17.032,29.638,17.079z" stroke-width="1"/>
					</g>
					<g>
						<path fill="#D28F5B" d="M27.708,11.613c0.045-0.748,0.836-1.098,1.506-1.256c0.451-0.105,0.939-0.161,1.369,0.015        c0.562,0.231,0.902,0.806,1.125,1.372c0.229,0.579,0.514,1.345,0.426,1.97c-0.086,0.601-0.355,1.19-0.787,1.621        c-0.949,0.948-2.756,0.547-2.541-0.998c0.082-0.596,0.508-1.108,1.035-1.397c-0.426,0.13-0.896,0.132-1.303-0.047        c-0.406-0.18-0.734-0.551-0.812-0.988C27.708,11.801,27.702,11.704,27.708,11.613z" stroke-width="1"/>
					</g>
				</g>
			</g>
			<g>
				<path fill="#704413" d="M28.347,15.098c-0.436-1.252-0.713-2.556-1.139-3.812c-0.398-1.179-1.061-2.54-1.955-3.425      c-0.729-0.721-1.641-1.231-2.59-1.619c-1.35-0.551-2.793-0.938-4.285-0.938s-2.938,0.387-4.285,0.938      c-0.949,0.387-1.861,0.898-2.59,1.619c-0.895,0.885-1.557,2.246-1.955,3.425c-0.426,1.257-0.703,2.56-1.139,3.812      c-0.648,1.877-1.275,3.379-0.549,5.349c0.604,1.639,1.859,3.021,3.361,3.893c2.104,1.22,4.732,1.688,7.158,1.688      c2.424,0,5.053-0.469,7.154-1.688c1.502-0.87,2.76-2.253,3.363-3.893C29.622,18.477,28.995,16.975,28.347,15.098z" stroke-width="1"/>
			</g>
			<g>
				<g>
					<path fill="#D28F5B" d="M18.937,18.975c0.008,0.729-0.049,1.457-0.209,2.172c-0.174,0.776-0.369,1.479-1.094,1.879       c-0.906,0.498-1.812,0.091-2.699-0.271c-1.262-0.514-2.377-1.377-3.23-2.437c-1.219-1.513-2.418-3.966-2.115-5.954       c0.15-0.992,0.615-1.956,1.387-2.596c1.094-0.908,2.553-1.353,3.955-1.021c2.227,0.529,3.264,2.465,3.605,4.581       C18.731,16.521,18.925,17.753,18.937,18.975z" stroke-width="1"/>
				</g>
				<g>
					<path fill="#D28F5B" d="M17.464,18.975c-0.01,0.729,0.049,1.457,0.209,2.172c0.174,0.776,0.367,1.479,1.094,1.879       c0.906,0.498,1.811,0.091,2.699-0.271c1.262-0.514,2.377-1.377,3.23-2.437c1.217-1.513,2.416-3.966,2.115-5.954       c-0.15-0.992-0.615-1.956-1.387-2.596c-1.094-0.908-2.553-1.353-3.955-1.021c-2.229,0.529-3.266,2.465-3.607,4.581       C17.671,16.521,17.476,17.753,17.464,18.975z" stroke-width="1"/>
				</g>
			</g>
			<g>
				<ellipse fill="#D28F5B" cx="18.312" cy="21.438" rx="8" ry="5.54" stroke-width="1"/>
			</g>
			<g>
				<g>
					<g>
						<path fill="#704413" d="M17.62,19.895c0.014-0.055,0.012-0.11,0-0.166c-0.039-0.187-0.197-0.414-0.398-0.443        c-0.154-0.021-0.309,0.122-0.324,0.271c-0.033,0.289,0.256,0.668,0.568,0.522C17.554,20.037,17.603,19.973,17.62,19.895z" stroke-width="1"/>
					</g>
					<g>
						<path fill="#704413" d="M18.388,19.895c-0.014-0.055-0.01-0.11,0.002-0.166c0.037-0.187,0.197-0.414,0.398-0.443        c0.154-0.021,0.307,0.122,0.324,0.271c0.031,0.289-0.258,0.668-0.568,0.522C18.454,20.037,18.405,19.973,18.388,19.895z" stroke-width="1"/>
					</g>
				</g>
				<g>
					<path fill="#704413" d="M18.085,18.105c-0.734,0-1.738,0.412-1.754,1.127c0,0.031,0.002,0.062,0.018,0.091       c0.014,0.028,0.045,0.051,0.082,0.052c0.061,0,0.096-0.058,0.121-0.105c0.264-0.521,0.922-0.681,1.531-0.681       c0.611,0,1.27,0.16,1.535,0.681c0.023,0.049,0.061,0.106,0.121,0.105c0.035,0,0.066-0.023,0.082-0.052       c0.014-0.028,0.018-0.06,0.016-0.091C19.823,18.518,18.819,18.105,18.085,18.105z" stroke-width="1"/>
				</g>
			</g>
			<g>
				<path fill="#090503" d="M18.312,23.913c-1.01,0-2.021-0.327-2.865-0.981c-0.145-0.112-0.172-0.321-0.059-0.467      s0.324-0.172,0.467-0.06c1.447,1.121,3.467,1.122,4.914,0c0.143-0.112,0.354-0.087,0.467,0.06s0.086,0.354-0.059,0.467      C20.333,23.587,19.323,23.913,18.312,23.913z" stroke-width="1"/>
			</g>
			<g>
				<g>
					<g>
						<path fill="#FFFFFF" d="M11.2,15.689c-0.119,1.48,0.992,2.772,2.479,2.891c1.48,0.116,2.777-0.99,2.895-2.471        c0.117-1.479-0.992-2.773-2.475-2.893C12.614,13.102,11.317,14.208,11.2,15.689z" stroke-width="1"/>
					</g>
				</g>
				<g>
					<g>
						<path fill="#FFFFFF" d="M19.591,15.689c-0.119,1.48,0.99,2.772,2.479,2.891c1.48,0.116,2.777-0.99,2.895-2.471        c0.117-1.479-0.992-2.773-2.477-2.893C21.005,13.102,19.706,14.208,19.591,15.689z" stroke-width="1"/>
					</g>
				</g>
			</g>
			<g>
				<g>
					<path fill="#090503" d="M13.894,16.537c0.029,0.045,0.07,0.087,0.115,0.119c0.791,0.542,1.639-0.008,1.643-0.754       c-0.002-0.539-0.438-0.979-0.979-0.979C13.933,14.916,13.378,15.749,13.894,16.537z" stroke-width="1"/>
				</g>
				<g>
					<path fill="#090503" d="M20.714,16.537c0.029,0.045,0.07,0.087,0.115,0.119c0.791,0.542,1.639-0.008,1.643-0.754       c-0.002-0.539-0.438-0.979-0.979-0.979C20.751,14.916,20.198,15.749,20.714,16.537z" stroke-width="1"/>
				</g>
			</g>
			<g>
				<path fill="#704413" d="M19.831,6.432c-1.018,0.715-2.537,0.604-3.477-0.199c-0.383-0.327-0.631-0.854-0.512-1.346      c0.039-0.156,0.113-0.308,0.234-0.412c0.23-0.198,0.59-0.194,0.855-0.045c0.264,0.147,0.445,0.414,0.561,0.694      c0.057-0.274,0.061-0.674,0.211-0.91c0.182-0.28,0.465-0.553,0.795-0.512c0.391,0.048,0.592,0.495,0.641,0.884      c0.031,0.233,0.033,0.471,0.008,0.705c0.018-0.201,0.164-0.374,0.34-0.473c0.176-0.1,0.379-0.139,0.578-0.168      c0.09-0.014,0.189-0.023,0.26,0.029c0.045,0.03,0.072,0.082,0.094,0.131C20.665,5.381,20.343,6.074,19.831,6.432z" stroke-width="1"/>
			</g>
		</g>
	</g>
</g>
</svg>