<svg xmlns="http://www.w3.org/2000/svg" xmlns:xlink="http://www.w3.org/1999/xlink" version="1.1" width="55.78137969139456" height="56.21595000389456" viewBox="10.760354999883772 10.03416443286717 55.78137969139456 56.21595000389456">
  <defs>
    <radialGradient id="grad_1" cx="-1241.3926" cy="458.5312" r="0.4998" gradientUnits="userSpaceOnUse">
      <stop offset="0" stop-color="#929292"/>
      <stop offset="0.7999" stop-color="#929292"/>
      <stop offset="1" stop-color="#929292"/>
    </radialGradient>
  <radialGradient id="grad_1-0.5745313618418848,-0.8184825579297197,0.8184825579297197,-0.5745313618418848,30.31583063602448,89.55542089939118" cx="1118.8346" cy="842.1731" r="0.4998" gradientUnits="userSpaceOnUse">
      <stop offset="0" stop-color="#929292"/>
      <stop offset="0.7999" stop-color="#929292"/>
      <stop offset="1" stop-color="#929292"/>
    </radialGradient></defs>
  <!-- Exported by Scratch - http://scratch.mit.edu/ -->
  <g id="pierre_ronde">
    <g id="ID0.2773045846261084">
      <path id="ID0.8582379361614585" d="M 18.0483 54.4332 C 17.3502 53.4388 16.7386 52.3934 16.2273 51.3082 C 15.9779 50.7771 15.7481 50.2322 15.4273 49.7439 C 15.3962 49.696 15.3629 49.6486 15.3313 49.6036 C 14.9641 49.0805 14.5131 48.6225 14.1321 48.1093 C 14.1 48.0671 14.069 48.0229 14.0385 47.9795 C 13.5381 47.2666 13.1809 46.4531 12.9946 45.6029 C 12.9215 45.2742 12.875 44.933 12.9532 44.6057 C 13.0157 44.3467 13.1587 44.1083 13.2173 43.8472 C 13.3391 43.2914 13.0791 42.7347 12.8997 42.1972 C 12.5861 41.2701 12.4995 40.2642 12.6493 39.2941 C 12.7015 38.9471 12.7851 38.5928 12.7058 38.2501 C 12.4633 37.2084 12.184 36.6835 12.2943 35.5823 C 12.4619 33.9203 12.8857 32.3901 13.3385 30.7881 C 13.5254 30.1267 13.7214 29.4503 14.1323 28.8992 C 14.3431 28.6181 14.6055 28.374 14.7834 28.0671 C 14.9783 27.725 15.0531 27.3268 15.1242 26.9372 C 15.2514 26.2273 15.3794 25.5167 15.5083 24.8093 C 15.558 24.5337 15.6103 24.2514 15.7465 24.0067 C 15.9145 23.7031 16.1983 23.4843 16.4711 23.2672 C 16.7439 23.0501 17.0033 22.8191 17.2608 22.5821 L 17.3577 22.4921 C 17.6157 22.2487 17.8689 22.0001 18.1165 21.742 C 20.1074 19.6908 21.8295 17.3054 24.4969 16.1344 C 25.1102 15.8663 25.7528 15.6609 26.333 15.3282 C 26.8553 15.0262 27.3196 14.6258 27.8689 14.3746 C 28.4218 14.1197 29.0474 14.0275 29.5637 13.703 C 30.3097 13.2392 30.7485 12.3484 31.555 12.0022 C 33.0227 11.3727 35.3551 11.4753 36.8919 11.8407 C 38.0558 12.1184 38.9869 12.3884 40.0811 12.0309 C 40.1574 12.0055 40.2347 11.9781 40.3127 11.9465 C 40.4418 11.8938 40.5696 11.8408 40.7032 11.7701 C 40.9106 11.66 41.1256 11.5311 41.3637 11.5362 C 41.5622 11.5423 41.7451 11.6461 41.9204 11.7392 C 43.6887 12.6813 45.7575 12.8333 47.6859 13.3734 C 49.9506 14.0098 52.0773 15.2207 53.6412 16.977 C 54.1176 17.5113 54.542 18.0967 55.0569 18.5917 C 56.0073 19.5019 57.226 20.0735 58.2897 20.8492 C 59.0973 21.4393 59.8198 22.1588 60.3944 22.9773 C 60.8195 23.5829 61.1636 24.2455 61.4035 24.9458 C 61.5927 25.5094 61.7187 26.1015 61.9641 26.6477 C 62.2321 27.2402 62.6356 27.7609 62.9738 28.3177 C 64.1357 30.234 64.476 32.5254 64.791 34.7478 C 64.9499 35.8776 65.1116 37.0164 65.0255 38.1557 C 64.9776 38.7855 64.8557 39.416 64.91 40.045 C 64.9188 40.1585 64.9379 40.271 64.9539 40.3843 C 64.9939 40.6397 65.0381 40.8958 65.0398 41.1524 C 65.0387 41.5234 64.9448 41.8874 64.853 42.2475 C 64.1414 44.9829 63.8259 47.6124 62.3387 50.0957 C 62.0935 50.5036 61.796 50.8822 61.6102 51.3205 C 61.4472 51.7098 61.3788 52.1293 61.2632 52.5354 C 61.0475 53.283 60.6596 53.9854 60.1379 54.5666 C 59.5704 55.1959 58.8595 55.6766 58.2101 56.2204 C 57.3692 56.9231 56.6313 57.7343 55.8607 58.511 C 54.4362 59.9471 52.8529 61.2979 50.9512 61.9951 C 49.9686 62.3549 48.9219 62.5313 47.9667 62.9562 C 47.5519 63.1399 47.1535 63.3694 46.7168 63.4976 C 46.1257 63.6719 45.4992 63.6461 44.8813 63.6449 C 42.562 63.6357 40.37 64.0479 38.1327 64.5994 C 36.3166 65.0459 33.9485 64.4015 32.1573 63.9471 C 30.4521 63.5142 28.7927 62.9013 27.2045 62.1408 C 26.9317 62.0097 26.656 61.8868 26.3899 61.7461 C 23.1365 60.0493 20.1922 57.4892 18.0483 54.4332 M 17.229 55.0083 L 18.0483 54.4332 L 17.229 55.0083 C 19.4317 58.1464 22.5213 60.8526 25.9274 62.6328 C 26.1342 62.743 26.3474 62.8413 26.5601 62.9425 L 26.772 63.0442 C 28.447 63.8465 30.1781 64.4763 31.9109 64.9154 L 32.1577 64.978 C 34.0469 65.4589 36.3938 66.0558 38.3699 65.5692 C 40.2492 65.1065 42.4926 64.635 44.8759 64.6432 L 45.059 64.643 C 45.6511 64.6476 46.3213 64.6537 46.994 64.4564 C 47.3739 64.3449 47.7134 64.1811 48.0129 64.0368 C 48.13 63.9791 48.2485 63.9216 48.3676 63.8685 C 48.851 63.6538 49.379 63.5043 49.9417 63.3488 C 50.3818 63.2255 50.8382 63.0994 51.2911 62.9318 C 53.5019 62.1216 55.2722 60.5185 56.5647 59.2129 C 56.753 59.0233 56.9385 58.8333 57.1266 58.6401 C 57.7028 58.0475 58.2485 57.4848 58.8458 56.985 C 59.0323 56.8296 59.223 56.6799 59.4166 56.5293 C 59.9097 56.1404 60.4208 55.7389 60.8747 55.2333 C 61.4962 54.5418 61.9624 53.7038 62.217 52.8116 C 62.2597 52.6618 62.2982 52.5114 62.3342 52.359 C 62.3931 52.1174 62.4473 51.8936 62.5244 51.7075 C 62.6137 51.497 62.7609 51.2715 62.9186 51.035 C 63.0098 50.8952 63.1021 50.7534 63.1903 50.6109 C 64.4092 48.5739 64.8954 46.4451 65.3633 44.3842 C 65.5052 43.7666 65.6511 43.1302 65.8138 42.5004 C 65.9163 42.1035 66.0337 41.6545 66.0333 41.1527 C 66.0321 40.8481 65.988 40.5712 65.9499 40.3255 L 65.9363 40.2348 C 65.9219 40.1447 65.9069 40.0502 65.9002 39.9571 C 65.8692 39.6136 65.9111 39.2311 65.9541 38.8258 C 65.979 38.6299 65.9992 38.4289 66.0146 38.2299 C 66.1094 36.9794 65.9381 35.7728 65.7733 34.6069 C 65.4617 32.4102 65.1089 29.9234 63.8211 27.7999 C 63.7038 27.6049 63.5769 27.4154 63.4511 27.2239 C 63.2265 26.8831 63.0135 26.5622 62.8653 26.2362 C 62.7376 25.9483 62.6414 25.6249 62.541 25.2799 C 62.4761 25.0604 62.4119 24.8403 62.3402 24.6267 C 62.0767 23.8526 61.6947 23.1066 61.2018 22.4044 C 60.5733 21.509 59.7896 20.7163 58.8687 20.0432 C 58.4435 19.7333 58.001 19.4562 57.5779 19.1912 C 56.9008 18.7697 56.2631 18.3694 55.7412 17.8695 C 55.4504 17.591 55.1838 17.2687 54.9012 16.927 C 54.7301 16.7197 54.5586 16.5138 54.3801 16.3117 C 52.7537 14.482 50.529 13.1334 47.9479 12.41 C 47.2809 12.2221 46.605 12.0808 45.9506 11.9439 C 44.6618 11.6744 43.4444 11.4196 42.3833 10.8548 L 42.3516 10.8391 C 42.1337 10.722 41.8063 10.5462 41.3841 10.5348 C 40.9068 10.5215 40.5354 10.7199 40.2914 10.8509 L 40.2311 10.8834 C 40.1412 10.9294 40.0489 10.9686 39.9344 11.016 C 39.8838 11.0344 39.8264 11.0588 39.7642 11.0781 C 39.0171 11.3227 38.3206 11.1555 37.359 10.9239 L 37.116 10.8648 C 35.3678 10.4474 32.8473 10.3535 31.153 11.0797 C 30.5099 11.354 30.0772 11.8202 29.6959 12.2308 C 29.4647 12.4811 29.2462 12.7163 29.0258 12.8515 C 28.8258 12.9772 28.5488 13.0666 28.2557 13.1624 C 28.0074 13.2438 27.7224 13.3339 27.442 13.4635 C 27.0375 13.6497 26.6854 13.8895 26.3734 14.1012 C 26.184 14.2317 26.0036 14.3559 25.8265 14.457 C 25.4998 14.646 25.1266 14.7931 24.7315 14.9508 C 24.5152 15.0378 24.3008 15.1223 24.0876 15.217 C 21.8037 16.2191 20.1938 17.9881 18.6392 19.7 C 18.2311 20.149 17.8122 20.6105 17.3909 21.0442 C 17.1489 21.2947 16.905 21.5356 16.6652 21.7613 L 16.619 21.8035 L 16.5737 21.8451 C 16.2985 22.1006 16.0642 22.3029 15.8384 22.4859 L 15.806 22.5111 C 15.5008 22.7534 15.1247 23.0565 14.8652 23.5172 C 14.6466 23.9089 14.5738 24.3082 14.5166 24.6306 L 14.323 25.695 L 14.1306 26.7611 C 14.0749 27.0629 14.0205 27.3735 13.9073 27.569 C 13.8469 27.6762 13.7387 27.8023 13.6222 27.9341 C 13.5286 28.0426 13.4233 28.1641 13.324 28.3011 C 12.7965 29.0048 12.5692 29.8071 12.369 30.5157 C 11.9501 31.9937 11.4741 33.6705 11.2912 35.4812 C 11.1874 36.4961 11.3635 37.1385 11.553 37.8192 C 11.6066 38.0174 11.6645 38.2322 11.7242 38.4774 C 11.7467 38.5739 11.7116 38.7867 11.6795 38.9742 L 11.6536 39.1427 C 11.4789 40.2671 11.5802 41.4349 11.9444 42.5159 C 11.976 42.6061 12.0079 42.6986 12.0417 42.7885 C 12.1552 43.112 12.2744 43.4437 12.2344 43.627 C 12.2221 43.6808 12.1866 43.7729 12.1504 43.8606 C 12.0932 43.9985 12.025 44.171 11.9751 44.3698 C 11.8414 44.912 11.9245 45.4291 12.0093 45.818 C 12.2244 46.791 12.6409 47.7376 13.2131 48.5528 C 13.2487 48.6035 13.2838 48.6535 13.3216 48.7039 C 13.5154 48.9661 13.7213 49.2089 13.9181 49.4422 C 14.133 49.6945 14.3346 49.933 14.5058 50.1769 C 14.5317 50.2137 14.5575 50.2505 14.5829 50.2902 C 14.8032 50.6267 14.9827 51.0163 15.1732 51.4287 C 15.2194 51.5294 15.2674 51.6326 15.3145 51.7327 C 15.8483 52.8534 16.4915 53.956 17.229 55.0083 " stroke-width="0.9999999916875338" fill="undefined"/>
      <path id="ID0.7327934480272233" fill="#878787" d="M 60.3479 50.7233 C 60.4945 50.4604 60.574 50.1664 60.7154 49.8997 C 61.0005 49.3746 61.512 49.0155 61.9037 48.5622 C 62.2942 48.1073 62.5629 47.4336 62.2582 46.9194 C 61.7656 47.8015 61.203 48.7511 60.2605 49.1158 C 60.0557 49.1948 59.838 49.245 59.6521 49.3596 C 59.0579 49.7193 59.0829 50.4128 58.7564 50.945 C 58.6248 51.1595 57.8233 51.5877 58.0175 51.8888 C 58.074 51.9762 58.1992 51.9787 58.3007 51.9649 C 59.0899 51.8691 59.9451 51.4374 60.3479 50.7233 Z " stroke-width="0.9999999916875338"/>
      <path id="ID0.19872760865837336" fill="#878787" d="M 39.2842 62.4924 C 38.2358 62.5148 37.2485 62.2658 36.2093 62.2769 C 36.1693 62.3905 36.2989 62.4865 36.4085 62.5329 C 37.403 62.9699 38.3431 63.1603 39.2842 62.4924 Z " stroke-width="0.9999999916875338"/>
      <path id="ID0.6473417826928198" fill="#706F6F" d="M 55.6252 54.2645 C 55.4677 54.397 55.3404 55.2634 55.1813 55.5119 C 54.9194 55.9255 54.5626 56.2737 54.1772 56.5723 C 53.3948 57.179 52.4487 57.3055 51.6389 57.8837 C 51.2672 58.1495 51.0405 58.5664 50.7018 58.8322 C 50 59.3798 48.6542 59.5756 47.8003 59.762 C 47.4995 59.8278 47.1643 59.8811 46.8951 59.7291 C 47.6809 59.3779 48.734 59.0993 49.3605 58.5019 C 49.9566 57.9307 50.373 57.2255 51.1963 56.9225 C 51.5926 56.7751 52.0254 56.7511 52.4234 56.6097 C 52.8589 56.4591 53.2344 56.176 53.5989 55.8945 C 54.2861 55.3645 54.9613 54.8209 55.6252 54.2645 " stroke-width="0.9999999916875338"/>
      <path id="ID0.39996868278831244" fill="#686867" d="M 36.8903 11.8418 C 38.2665 12.1697 39.322 12.5002 40.7014 11.7727 C 40.9095 11.662 41.1253 11.5325 41.3627 11.5382 C 41.562 11.5437 41.744 11.648 41.9202 11.7406 C 43.6876 12.6833 45.7564 12.8353 47.6856 13.3748 C 49.9483 14.0101 52.0762 15.2227 53.641 16.9784 C 54.1166 17.5132 54.5406 18.0965 55.0567 18.5931 C 56.0063 19.5039 57.2257 20.0749 58.2875 20.8495 C 59.6946 21.8777 60.8415 23.2975 61.4022 24.9491 C 61.5933 25.5138 61.7182 26.1043 61.9636 26.6505 C 62.2317 27.243 62.6359 27.7632 62.9733 28.3205 C 64.1364 30.2384 64.4755 32.5282 64.7905 34.7506 C 64.9506 35.882 65.1122 37.0209 65.0242 38.1591 C 64.978 38.7877 64.8553 39.4188 64.9095 40.0478 C 64.9423 40.4182 65.0384 40.7832 65.0382 41.1536 C 65.0391 41.5256 64.9443 41.8902 64.8514 42.2486 C 64.1406 44.9834 63.8254 47.6152 62.3384 50.0971 C 62.0913 50.5039 61.7947 50.8819 61.6091 51.3225 C 61.4458 51.7096 61.3777 52.1312 61.2621 52.5374 C 61.0465 53.285 60.6594 53.9868 60.1357 54.567 C 59.5702 55.1973 58.8585 55.6785 58.2071 56.2213 C 57.3681 56.9251 56.6302 57.7362 55.8596 58.513 C 54.4351 59.9491 52.8518 61.2999 50.9502 61.997 C 49.9684 62.3563 48.9209 62.5332 47.9656 62.9582 C 47.5497 63.1402 47.1524 63.3714 46.7158 63.4995 C 46.1254 63.6732 45.4973 63.6487 44.8802 63.6469 C 42.5618 63.6371 40.3689 64.0499 38.1325 64.6008 C 36.3155 65.0479 33.9474 64.4034 32.1562 63.949 C 30.1568 63.4417 28.2173 62.7029 26.3888 61.7481 C 22.0784 59.4958 18.3081 55.7329 16.2265 51.3088 C 15.9771 50.7777 15.7473 50.2328 15.4257 49.745 C 15.0452 49.1629 14.5437 48.6695 14.1313 48.1099 C 13.5832 47.3656 13.1897 46.5056 12.993 45.604 C 12.9199 45.2753 12.8734 44.9341 12.9515 44.6068 C 13.0149 44.3473 13.1579 44.1089 13.2157 43.8483 C 13.3383 43.2919 13.0783 42.7353 12.8981 42.1983 C 12.5845 41.2712 12.4979 40.2654 12.6471 39.2944 C 12.7004 38.9491 12.7829 38.5931 12.7047 38.2521 C 12.4622 37.2103 12.1822 36.6861 12.2925 35.5848 C 12.4597 33.9206 12.8838 32.3926 13.3374 30.7901 C 13.5243 30.1287 13.7203 29.4523 14.1305 28.9017 C 14.3412 28.6206 14.6044 28.376 14.7804 28.068 C 14.9772 27.727 15.0512 27.3293 15.1211 26.9381 C 15.2503 26.2292 15.3775 25.5193 15.5061 24.8096 C 15.555 24.5346 15.6084 24.2539 15.7434 24.0077 C 15.9126 23.7056 16.1973 23.4863 16.4681 23.2681 C 19.2627 21.0339 21.1248 17.6156 24.495 16.1369 C 25.1075 15.8695 25.7509 15.6634 26.3299 15.3291 C 26.8535 15.0288 27.3177 14.6284 27.8671 14.3771 C 28.42 14.1222 29.0456 14.0301 29.563 13.7072 C 30.3078 13.2418 30.7466 12.351 31.5531 12.0048 C 33.0236 11.3721 35.3543 11.4759 36.8903 11.8418 " stroke-width="0.9999999916875338"/>
      <path id="ID0.501052432693541" fill="url(#grad_1-0.5745313618418848,-0.8184825579297197,0.8184825579297197,-0.5745313618418848,30.31583063602448,89.55542089939118)" d="M 36.8903 11.8418 C 38.2665 12.1697 39.322 12.5002 40.7014 11.7727 C 40.9095 11.662 41.1253 11.5325 41.3627 11.5382 C 41.562 11.5437 41.744 11.648 41.9202 11.7406 C 43.6876 12.6833 45.7564 12.8353 47.6856 13.3748 C 49.9483 14.0101 52.0762 15.2227 53.641 16.9784 C 54.1166 17.5132 54.5406 18.0965 55.0567 18.5931 C 56.0063 19.5039 57.2257 20.0749 58.2875 20.8495 C 59.6946 21.8777 60.8415 23.2975 61.4022 24.9491 C 61.5933 25.5138 61.7182 26.1043 61.9636 26.6505 C 62.2317 27.243 62.6359 27.7632 62.9733 28.3205 C 64.1364 30.2384 64.4755 32.5282 64.7905 34.7506 C 64.9506 35.882 65.1122 37.0209 65.0242 38.1591 C 64.978 38.7877 64.8553 39.4188 64.9095 40.0478 C 64.9423 40.4182 65.0384 40.7832 65.0382 41.1536 C 65.0391 41.5256 64.9443 41.8902 64.8514 42.2486 C 64.1406 44.9834 63.8254 47.6152 62.3384 50.0971 C 62.0913 50.5039 61.7947 50.8819 61.6091 51.3225 C 61.4458 51.7096 61.3777 52.1312 61.2621 52.5374 C 61.0465 53.285 60.6594 53.9868 60.1357 54.567 C 59.5702 55.1973 58.8585 55.6785 58.2071 56.2213 C 57.3681 56.9251 56.6302 57.7362 55.8596 58.513 C 54.4351 59.9491 52.8518 61.2999 50.9502 61.997 C 49.9684 62.3563 48.9209 62.5332 47.9656 62.9582 C 47.5497 63.1402 47.1524 63.3714 46.7158 63.4995 C 46.1254 63.6732 45.4973 63.6487 44.8802 63.6469 C 42.5618 63.6371 40.3689 64.0499 38.1325 64.6008 C 36.3155 65.0479 33.9474 64.4034 32.1562 63.949 C 30.1568 63.4417 28.2173 62.7029 26.3888 61.7481 C 22.0784 59.4958 18.3081 55.7329 16.2265 51.3088 C 15.9771 50.7777 15.7473 50.2328 15.4257 49.745 C 15.0452 49.1629 14.5437 48.6695 14.1313 48.1099 C 13.5832 47.3656 13.1897 46.5056 12.993 45.604 C 12.9199 45.2753 12.8734 44.9341 12.9515 44.6068 C 13.0149 44.3473 13.1579 44.1089 13.2157 43.8483 C 13.3383 43.2919 13.0783 42.7353 12.8981 42.1983 C 12.5845 41.2712 12.4979 40.2654 12.6471 39.2944 C 12.7004 38.9491 12.7829 38.5931 12.7047 38.2521 C 12.4622 37.2103 12.1822 36.6861 12.2925 35.5848 C 12.4597 33.9206 12.8838 32.3926 13.3374 30.7901 C 13.5243 30.1287 13.7203 29.4523 14.1305 28.9017 C 14.3412 28.6206 14.6044 28.376 14.7804 28.068 C 14.9772 27.727 15.0512 27.3293 15.1211 26.9381 C 15.2503 26.2292 15.3775 25.5193 15.5061 24.8096 C 15.555 24.5346 15.6084 24.2539 15.7434 24.0077 C 15.9126 23.7056 16.1973 23.4863 16.4681 23.2681 C 19.2627 21.0339 21.1248 17.6156 24.495 16.1369 C 25.1075 15.8695 25.7509 15.6634 26.3299 15.3291 C 26.8535 15.0288 27.3177 14.6284 27.8671 14.3771 C 28.42 14.1222 29.0456 14.0301 29.563 13.7072 C 30.3078 13.2418 30.7466 12.351 31.5531 12.0048 C 33.0236 11.3721 35.3543 11.4759 36.8903 11.8418 " stroke-width="0.9999999916875338"/>
      <path id="ID0.7686593476682901" fill="#5A5A59" d="M 36.8903 11.8418 C 38.2665 12.1697 39.322 12.5002 40.7014 11.7727 C 40.9095 11.662 41.1253 11.5325 41.3627 11.5382 C 41.562 11.5437 41.744 11.648 41.9202 11.7406 C 43.6876 12.6833 45.7564 12.8353 47.6856 13.3748 C 49.9483 14.0101 52.0762 15.2227 53.641 16.9784 C 54.1166 17.5132 54.5406 18.0965 55.0567 18.5931 C 56.0063 19.5039 57.2257 20.0749 58.2875 20.8495 C 59.6946 21.8777 60.8415 23.2975 61.4022 24.9491 C 61.5933 25.5138 61.7182 26.1043 61.9636 26.6505 C 62.2317 27.243 62.6359 27.7632 62.9733 28.3205 C 64.1364 30.2384 64.4755 32.5282 64.7905 34.7506 C 64.9506 35.882 65.1122 37.0209 65.0242 38.1591 C 64.978 38.7877 64.8553 39.4188 64.9095 40.0478 C 64.9423 40.4182 65.0384 40.7832 65.0382 41.1536 C 65.0391 41.5256 64.9443 41.8902 64.8514 42.2486 C 64.1406 44.9834 63.8254 47.6152 62.3384 50.0971 C 62.0913 50.5039 61.7947 50.8819 61.6091 51.3225 C 61.4458 51.7096 61.3777 52.1312 61.2621 52.5374 C 61.0465 53.285 60.6594 53.9868 60.1357 54.567 C 59.5702 55.1973 58.8585 55.6785 58.2071 56.2213 C 57.3681 56.9251 56.6302 57.7362 55.8596 58.513 C 54.4351 59.9491 52.8518 61.2999 50.9502 61.997 C 49.9684 62.3563 48.9209 62.5332 47.9656 62.9582 C 47.5497 63.1402 47.1524 63.3714 46.7158 63.4995 C 46.1254 63.6732 45.4973 63.6487 44.8802 63.6469 C 42.5618 63.6371 40.3689 64.0499 38.1325 64.6008 C 36.3155 65.0479 33.9474 64.4034 32.1562 63.949 C 30.1568 63.4417 28.2173 62.7029 26.3888 61.7481 C 22.0784 59.4958 18.3081 55.7329 16.2265 51.3088 C 15.9771 50.7777 15.7473 50.2328 15.4257 49.745 C 15.0452 49.1629 14.5437 48.6695 14.1313 48.1099 C 13.5832 47.3656 13.1897 46.5056 12.993 45.604 C 12.9199 45.2753 12.8734 44.9341 12.9515 44.6068 C 13.0149 44.3473 13.1579 44.1089 13.2157 43.8483 C 13.3383 43.2919 13.0783 42.7353 12.8981 42.1983 C 12.5845 41.2712 12.4979 40.2654 12.6471 39.2944 C 12.7004 38.9491 12.7829 38.5931 12.7047 38.2521 C 12.4622 37.2103 12.1822 36.6861 12.2925 35.5848 C 12.4597 33.9206 12.8838 32.3926 13.3374 30.7901 C 13.5243 30.1287 13.7203 29.4523 14.1305 28.9017 C 14.3412 28.6206 14.6044 28.376 14.7804 28.068 C 14.9772 27.727 15.0512 27.3293 15.1211 26.9381 C 15.2503 26.2292 15.3775 25.5193 15.5061 24.8096 C 15.555 24.5346 15.6084 24.2539 15.7434 24.0077 C 15.9126 23.7056 16.1973 23.4863 16.4681 23.2681 C 19.2627 21.0339 21.1248 17.6156 24.495 16.1369 C 25.1075 15.8695 25.7509 15.6634 26.3299 15.3291 C 26.8535 15.0288 27.3177 14.6284 27.8671 14.3771 C 28.42 14.1222 29.0456 14.0301 29.563 13.7072 C 30.3078 13.2418 30.7466 12.351 31.5531 12.0048 C 33.0236 11.3721 35.3543 11.4759 36.8903 11.8418 " stroke-width="0.9999999916875338"/>
      <path id="ID0.7516578380018473" fill="#949494" d="M 20.0447 53.2115 C 20.093 53.3046 20.144 53.3947 20.1947 53.4861 C 21.0561 54.9952 22.3132 56.2325 23.5615 57.4418 C 24.0802 57.944 24.6578 58.4744 25.3736 58.556 C 25.2964 57.6437 24.6031 56.9831 23.9077 56.3179 C 23.2324 55.6728 22.5557 55.0238 22.4413 54.1401 C 22.6754 53.8854 23.0938 54.095 23.3615 54.3128 C 24.2814 55.0489 25.4147 55.7427 26.1828 56.6367 C 26.6637 57.1983 26.9914 57.8113 27.5508 58.335 C 27.8668 58.6337 28.6628 59.5728 29.1411 59.5718 C 29.4032 59.5711 30.0598 59.0723 29.5057 58.8503 C 30.629 59.2983 31.7145 59.9292 32.7993 60.4738 C 33.1346 60.6416 33.5258 60.9204 33.4439 61.2858 C 32.4414 61.2589 31.443 61.1558 30.4561 60.9823 C 31.6871 61.7578 32.9477 62.5407 34.3607 62.8879 C 35.5585 63.1809 36.806 63.1446 38.0378 63.1083 C 39.3519 63.0692 40.6618 63.0294 41.9742 62.9915 C 42.0454 62.5603 41.69 62.1549 41.2816 62.003 C 40.8732 61.8511 40.4212 61.8861 39.9872 61.9048 C 38.5948 61.9611 37.1968 61.811 35.8479 61.4628 C 36.8936 61.8577 37.9632 61.0299 39.0485 60.7555 C 39.812 60.5605 40.6178 60.6449 41.4 60.7323 C 43.5694 60.9701 45.8 61.5718 47.9786 61.5477 C 51.4972 61.5092 54.6076 59.3124 57.2415 56.9761 C 55.8224 57.9795 54.1574 58.6327 52.4348 58.8608 C 53.8908 57.708 55.3491 56.5499 56.8063 55.3988 C 57.2555 55.0432 57.7101 54.6813 58.0418 54.2139 C 58.4696 53.6155 58.6673 52.8841 59.0129 52.2347 C 59.7652 50.8122 61.163 49.8445 62.0696 48.5166 C 64.0716 45.5866 63.3147 41.612 64.3296 38.2104 C 63.5445 39.9552 63.2911 41.8986 62.5326 43.6552 C 61.773 45.4101 60.264 47.0705 58.352 47.1176 C 58.7997 45.9591 59.721 45.0594 60.4346 44.043 C 62.1421 41.6177 62.6631 38.4749 62.1998 35.5453 C 61.7366 32.6157 60.3527 29.8888 58.5641 27.5217 C 59.5513 28.3816 60.5388 29.2401 61.5254 30.0992 C 60.0085 28.4272 59.9807 25.8639 58.7911 23.9463 C 57.5677 21.9754 55.317 20.9517 53.3131 19.7853 C 50.9394 18.4019 48.7695 16.6874 46.3808 15.3329 C 43.9922 13.9771 41.2854 12.9755 38.5481 13.2096 C 40.5446 13.168 42.5254 14.2615 43.5517 15.9761 C 39.8115 14.8006 35.5687 13.6907 32.1336 15.5766 C 30.9423 16.2344 29.9537 17.207 28.7802 17.8902 C 27.7337 18.5002 26.5585 18.8694 25.5221 19.4991 C 21.1422 22.1606 20.3951 28.5789 16.1832 31.5024 C 18.4983 29.732 17.7346 25.5337 20.1757 23.9411 C 18.6821 24.7513 17.7047 26.2413 16.7905 27.6698 C 16.0017 28.8992 15.2063 30.149 14.7832 31.5444 C 14.3559 32.939 14.3411 34.5279 15.0687 35.7925 C 16.3759 34.534 17.5588 33.1453 18.5913 31.652 C 19.1163 33.0735 18.0813 34.5318 17.3626 35.8647 C 14.63 40.9374 17.1876 45.714 18.9581 50.5826 C 19.273 51.4733 19.6009 52.3721 20.0447 53.2115 " stroke-width="0.9999999916875338"/>
      <path id="ID0.06086314516142011" fill="#B0B0B0" d="M 51.4256 52.1371 C 51.3169 52.7168 51.2007 53.3066 50.9768 53.8266 C 50.7523 54.3544 50.4932 54.8747 50.1013 55.2928 C 49.7185 55.6996 49.2267 55.9824 48.7476 56.2711 C 47.689 56.9091 46.6556 57.5917 45.652 58.3133 C 46.9353 57.8352 48.2792 57.5236 49.5486 57.0101 C 50.0932 56.7903 50.6317 56.5271 51.0528 56.1191 C 51.4502 55.7351 51.7231 55.243 52.0398 54.7909 C 52.7596 53.7677 53.7636 52.8674 54.0274 51.6437 C 54.1299 51.1735 54.112 50.6851 54.1771 50.2069 C 54.3243 49.1494 55.1089 48.1002 55.5787 47.1595 C 56.0322 46.2547 56.6046 45.3801 57.0485 44.493 C 57.522 43.5523 57.4925 42.7287 57.6263 41.6696 C 57.7409 40.7486 58.0561 39.8626 58.1771 38.942 C 58.2454 38.4335 58.3168 37.792 58.1338 37.312 C 57.9212 36.7551 57.6676 36.3503 57.7292 35.7157 C 57.769 35.3042 57.9115 34.884 57.797 34.4842 C 57.7352 34.2674 57.6031 34.0791 57.471 33.8945 C 56.7414 32.8672 56.0112 31.8391 55.1928 30.8839 C 55.148 32.1725 55.1025 33.4653 55.0589 34.7556 C 55.0441 35.1313 55.0329 35.507 55.0707 35.8811 C 55.1045 36.213 55.178 36.5475 55.1427 36.8801 C 55.0162 38.0209 53.7022 38.6745 53.3458 39.7664 L 53.29 39.8801 C 53.1934 39.9809 53.0257 39.8848 52.9333 39.7774 C 52.3438 39.1099 52.1979 38.0858 52.5772 37.2808 C 52.8617 36.673 53.4088 36.1888 53.5588 35.5374 C 53.6109 35.3053 53.6102 35.0676 53.5909 34.8295 C 53.5346 34.0931 53.315 33.3713 52.9567 32.7285 C 52.5334 31.9688 51.9241 31.3323 51.322 30.7042 C 50.7969 30.1564 50.2596 29.6173 49.7449 29.0598 C 49.3236 28.6041 49.0454 28.0859 48.5911 27.6388 C 47.5025 26.5702 46.3014 25.6161 45.012 24.801 C 44.3331 24.3734 43.6156 23.9656 42.849 23.7108 C 42.3165 23.5335 41.7671 23.5967 41.2162 23.5203 C 40.5117 23.4235 39.8079 23.4618 39.1079 23.5976 C 38.7547 23.6671 38.4046 23.7602 38.0615 23.8666 C 37.8255 23.9394 37.2822 24.0252 37.1119 24.2021 C 37.8568 23.4288 38.7318 22.7816 39.6841 22.2915 C 40.1417 22.0558 40.6294 21.8576 41.1418 21.8339 C 41.7737 21.8082 42.3853 22.0546 42.9478 22.339 C 43.7992 22.7652 44.6091 23.2889 45.5119 23.5985 C 46.1309 23.8103 46.7962 23.9261 47.3384 24.2895 C 47.903 24.6691 48.2656 25.271 48.6776 25.8126 C 49.0871 26.356 49.6137 26.8782 50.2873 26.971 C 49.4561 26.2899 48.828 25.3637 48.4992 24.3385 C 48.3892 23.9954 48.3069 23.6293 48.0738 23.353 C 47.9188 23.1686 47.7065 23.0403 47.4977 22.9168 C 46.5936 22.3773 45.6892 21.8356 44.7843 21.2967 C 45.606 21.409 46.431 21.5226 47.2519 21.6355 C 47.4621 21.6651 47.7401 21.6556 47.8071 21.4535 C 46.5528 20.737 45.1565 20.2743 43.7228 20.0943 C 42.228 19.9071 40.8955 19.7233 39.5018 19.1512 C 38.3645 18.685 37.0417 18.1511 35.8398 18.7174 C 34.7859 19.214 34.2507 20.3888 33.4132 21.199 C 31.1291 23.4035 26.9324 22.6534 24.872 25.0686 C 23.6521 26.5003 23.6123 28.5845 22.7994 30.2792 C 22.1626 31.612 21.0501 32.6885 20.5039 34.0616 C 19.6975 36.0999 20.2665 38.3969 20.8448 40.5139 C 20.6276 39.0366 20.623 37.5297 20.8341 36.0498 C 20.9187 35.4516 21.0524 34.8275 21.4385 34.361 C 22.1775 33.4696 23.7983 33.5732 24.4149 34.5527 C 21.8348 36.4311 21.1985 40.0152 21.329 43.2053 C 21.359 43.9478 21.4239 44.7086 21.7293 45.3874 C 22.1405 46.29 22.9345 46.9495 23.5169 47.7478 C 24.1454 48.6066 24.5251 49.6192 25.0925 50.5197 C 25.8095 51.6561 26.8031 52.586 27.8174 53.4635 C 29.5238 54.939 31.4349 56.3526 33.6675 56.6596 C 34.973 56.838 36.5079 56.4887 37.1242 55.3267 C 37.3256 54.947 37.4437 54.4695 37.8266 54.2753 C 38.2207 54.0744 38.6903 54.275 39.0966 54.4553 C 42.2048 55.846 46.2906 56.7618 48.8639 53.939 C 50.1351 52.5457 50.8276 50.7352 51.4965 48.9694 C 51.9082 49.6969 51.7427 50.6011 51.5657 51.4194 C 51.5174 51.6499 51.473 51.8913 51.4256 52.1371 " stroke-width="0.9999999916875338"/>
      <path id="ID0.7789751910604537" fill="#878787" d="M 35.8851 63.3939 C 35.069 63.0981 34.3086 62.6031 33.4966 62.3496 C 33.4038 62.3219 33.2767 62.3061 33.238 62.3955 C 33.2074 62.4598 33.2544 62.5319 33.2998 62.588 C 34.0153 63.4419 34.8768 63.3882 35.8851 63.3939 Z " stroke-width="0.9999999916875338"/>
      <path id="ID0.08306930540129542" fill="#878787" d="M 18.365 49.5914 C 17.1525 49.5542 17.9436 51.5097 18.4165 51.9206 C 18.5636 52.0483 18.8556 52.266 19.0713 52.1989 C 19.4636 52.0738 19.0397 51.6823 18.995 51.3557 C 18.9228 50.8456 19.2193 49.6197 18.365 49.5914 " stroke-width="0.9999999916875338"/>
      <path id="ID0.06779875792562962" fill="#878787" d="M 18.8938 48.244 C 19.0257 48.397 19.2182 48.4989 19.4177 48.5152 C 19.4678 48.5204 19.5215 48.5169 19.5633 48.4876 C 19.6185 48.4513 19.633 48.3763 19.6406 48.3087 C 19.6747 47.9866 19.6201 47.6547 19.4873 47.3594 C 19.4144 47.198 19.2902 47.0299 19.1145 47.0249 C 18.9682 47.0201 18.8412 47.1386 18.7892 47.2752 C 18.7393 47.4129 18.7479 47.5645 18.7675 47.7107 C 18.8174 48.1021 18.6361 47.9447 18.8938 48.244 " stroke-width="0.9999999916875338"/>
      <path id="ID0.9455316951498389" fill="#878787" d="M 29.0903 27.134 C 29.2739 27.0527 29.4816 27.0474 29.6838 27.0326 C 30.2053 26.9976 30.7738 26.871 31.0875 26.4529 L 31.1322 26.3494 C 31.1294 26.2915 31.0795 26.2483 31.027 26.2204 C 30.759 26.0701 30.4287 26.0992 30.128 26.1599 C 29.5387 26.2828 29.0463 26.5613 28.4919 26.7671 C 28.0187 26.9441 27.5929 27.0598 27.4385 27.6214 C 27.3651 27.8928 27.3932 28.1835 27.2969 28.4466 C 27.1981 28.7236 26.9743 28.9357 26.7609 29.1381 C 26.1273 29.7306 25.4929 30.3237 24.8605 30.9179 C 25.306 30.8459 25.6909 30.5709 26.056 30.3061 C 26.6579 29.8616 27.2764 29.4042 27.6624 28.7654 C 28.0288 28.1613 28.4061 27.4334 29.0903 27.134 " stroke-width="0.9999999916875338"/>
      <path id="ID0.8967293533496559" fill="#878787" d="M 53.7297 26.0269 C 53.4703 25.8888 53.1753 25.8357 52.8948 25.7443 C 51.7517 25.3603 50.8844 24.2709 49.6861 24.1407 C 50.0912 24.455 50.4991 24.7698 50.9051 25.0871 C 51.2983 25.3915 51.6972 25.7004 52.1544 25.8974 C 52.6406 26.1096 53.1841 26.1912 53.6322 26.4728 C 54.2235 26.8434 54.5595 27.4945 54.9138 28.095 C 55.0604 28.3403 55.2551 28.5445 55.4483 28.7485 C 55.6632 28.9728 55.8743 29.1935 56.016 29.4667 C 56.0942 29.6146 56.1523 29.7914 56.099 29.9522 C 56.0569 30.0819 55.9466 30.1789 55.8393 30.2627 C 55.614 30.4465 55.3758 30.6137 55.1287 30.7664 C 55.0761 30.796 55.0231 30.8283 54.9922 30.8818 C 54.8978 31.0311 55.0399 31.2161 55.1718 31.3361 C 55.5007 31.1833 55.8483 31.0188 56.0592 30.7205 C 56.166 30.5698 56.2337 30.3878 56.3695 30.2644 C 56.4713 30.171 56.6059 30.1156 56.6797 30.0015 C 56.8177 29.7873 56.6765 29.5077 56.5302 29.2976 C 56.0919 28.6645 55.5858 28.1559 55.0527 27.6261 C 54.8565 27.4302 54.7107 27.1929 54.5638 26.9576 C 54.3437 26.5953 54.1224 26.2399 53.7297 26.0269 " stroke-width="0.9999999916875338"/>
      <path id="ID0.15125313634052873" fill="#878787" d="M 50.4753 28.6888 C 51.2072 28.7358 52.536 28.7194 52.9921 29.4231 C 53.031 29.4838 53.057 29.5731 53.0012 29.6171 L 52.9095 29.6363 C 52.5583 29.625 52.3754 29.4027 52.1126 29.2146 C 51.7954 28.9889 51.3713 28.9139 50.9944 29.0209 C 50.8037 29.0765 50.6254 29.1724 50.439 29.2323 C 50.2501 29.2904 50.0316 29.3081 49.8603 29.2085 C 49.8051 29.1751 49.7549 29.1297 49.7362 29.0683 C 49.7194 29.0044 49.743 28.9353 49.7828 28.8805 C 49.9269 28.6767 50.2236 28.6713 50.4753 28.6888 " stroke-width="0.9999999916875338"/>
      <path id="ID0.5474047465249896" fill="#878787" d="M 41.5919 40.7352 C 41.1767 40.2778 41.0247 39.506 40.2588 39.6001 L 40.1785 39.632 L 40.1584 39.7182 C 40.1772 39.9225 40.3452 40.0783 40.5144 40.1941 C 41.1715 40.6516 41.8023 41.1203 41.5102 42.0669 C 41.4905 42.1259 41.4689 42.1839 41.4767 42.2456 C 41.4932 42.3892 41.6804 42.4679 41.815 42.4089 C 41.9475 42.3488 42.0171 42.1973 42.0267 42.0526 C 42.0343 41.9067 41.9909 41.7649 41.9523 41.6246 C 41.8344 41.1991 41.9134 41.0887 41.5919 40.7352 Z " stroke-width="0.9999999916875338"/>
      <path id="ID0.8588782614096999" fill="#878787" d="M 36.1901 43.2307 C 36.2961 42.736 37.7679 43.0591 38.0207 43.1773 C 38.069 43.2008 38.1192 43.2254 38.1491 43.268 C 38.2124 43.3616 38.1515 43.496 38.0642 43.5683 C 37.8662 43.7317 37.5811 43.7119 37.3271 43.6825 C 36.9974 43.6463 36.3984 43.7137 36.2177 43.3641 C 36.1948 43.3227 36.1793 43.2762 36.1901 43.2307 Z " stroke-width="0.9999999916875338"/>
      <path id="ID0.4822370004840195" fill="#878787" d="M 36.7609 42.0213 C 36.7775 41.9424 36.6951 41.8841 36.6219 41.8512 C 35.9024 41.5328 34.4561 41.7612 34.6847 42.8336 C 34.5973 42.4184 36.4833 42.0279 36.7609 42.0213 Z " stroke-width="0.9999999916875338"/>
      <path id="ID0.22765630669891834" fill="#878787" d="M 39.8931 25.0538 C 40.1347 25.2153 40.4217 25.3108 40.7132 25.3224 C 40.7757 25.3261 40.8453 25.3225 40.8846 25.2741 L 40.9192 25.1668 C 40.9641 24.5623 40.2252 23.9239 39.6333 24.1268 C 39.4393 24.1933 39.276 24.3679 39.2631 24.5724 C 39.2342 25.0203 39.6661 24.9028 39.8931 25.0538 Z " stroke-width="0.9999999916875338"/>
      <path id="ID0.6500831982120872" fill="#999998" d="M 52.7945 24.5379 C 53.2462 24.607 53.6936 24.6875 54.0611 24.9464 C 54.3625 25.16 54.5758 25.4708 54.7965 25.7643 C 55.3215 26.4722 55.9744 27.1587 56.8333 27.3536 C 55.9875 26.4323 55.1397 25.51 54.2916 24.589 C 53.9358 24.2023 53.5878 23.689 53.1245 23.4449 C 52.6406 23.1908 52.0694 23.042 51.5559 22.8587 C 50.9812 22.6561 50.5719 22.3497 50.0548 22.0395 C 49.8636 21.9256 49.6232 21.8146 49.4345 21.9287 C 49.2877 22.0171 49.2392 22.2161 49.2815 22.3843 C 49.3227 22.5509 49.4364 22.6885 49.5554 22.8127 C 50.2668 23.5547 51.1662 24.2111 52.1821 24.4314 C 52.3808 24.4777 52.5901 24.5079 52.7945 24.5379 " stroke-width="0.9999999916875338"/>
      <path id="ID0.9915745845064521" fill="#999998" d="M 37.8458 55.9857 C 37.3634 56.2523 36.9448 56.6463 36.4636 56.9303 C 35.9331 57.238 35.3805 57.5073 34.8087 57.7266 C 35.4607 57.8896 36.1534 58.0497 36.7947 57.8476 C 37.1381 57.7397 37.4411 57.5344 37.7766 57.4015 C 38.2367 57.2214 38.7553 57.1873 39.2356 57.3059 C 39.5493 57.3838 39.8417 57.5219 40.1488 57.6166 C 41.2833 57.9639 42.5013 57.6905 43.6516 57.4181 C 42.7521 57.3812 41.8077 57.3098 41.054 56.8175 C 40.6295 56.54 40.2873 56.1412 39.8342 55.9083 C 39.2146 55.5894 38.447 55.6517 37.8458 55.9857 " stroke-width="0.9999999916875338"/>
      <path id="ID0.8026054976508021" fill="#999998" d="M 21.7288 46.9932 C 21.6691 46.8872 21.6159 46.8097 21.5013 46.7753 C 21.5574 47.4592 21.7103 48.5542 22.1287 49.1242 C 22.6431 49.8273 23.6771 50.2805 24.4585 50.5982 C 23.4321 49.4702 22.4826 48.3333 21.7288 46.9932 " stroke-width="0.9999999916875338"/>
      <path id="ID0.0178139409981668" fill="#949494" d="M 31.0223 54.1009 C 31.7769 54.2847 32.5604 54.3652 33.2817 54.6531 C 32.3391 54.3336 31.3815 53.9563 30.6825 53.246 C 30.2991 52.8565 30.0106 52.381 29.6153 52.0024 C 29.2007 51.6067 28.758 51.4826 28.2796 51.2344 C 27.6795 50.9225 27.1231 50.3405 26.5928 49.9175 C 26.7146 50.0127 26.8036 50.4475 26.8765 50.5967 C 26.9937 50.8419 27.1261 51.0776 27.2706 51.3061 C 27.5618 51.7627 27.904 52.1858 28.2897 52.5664 C 29.0853 53.3482 29.9496 53.8398 31.0223 54.1009 " stroke-width="0.9999999916875338"/>
      <path id="ID0.49640776962041855" fill="#706F6F" d="M 33.0187 17.2865 C 31.7494 17.459 30.6518 18.2173 29.5736 18.9057 C 28.955 19.302 28.3119 19.6912 27.6148 19.9374 C 26.9188 20.1852 26.2345 20.2477 25.5952 20.6684 C 25.3103 20.8561 25.0257 21.1329 25.0472 21.4733 C 25.0716 21.8545 25.4944 22.1087 25.8754 22.0893 C 26.2556 22.0705 26.5981 21.8569 26.9143 21.646 C 27.4496 21.2946 28.0341 21.0273 28.5617 20.6875 C 29.2698 20.2308 29.9932 19.6497 30.639 19.1145 C 31.419 18.4765 32.0404 17.6421 33.0187 17.2865 Z " stroke-width="0.9999999916875338"/>
      <path id="ID0.6057176026515663" fill="#706F6F" d="M 60.6168 34.472 C 61.0305 36.7131 60.2082 39.1254 59.9288 41.3313 C 61.7475 39.3864 61.0084 36.8312 60.6168 34.472 " stroke-width="0.9999999916875338"/>
      <path id="ID0.8658094857819378" fill="#F8F8F8" d="M 16.5802 23.1772 C 17.1197 22.7361 17.6266 22.252 18.1141 21.7473 C 18.115 21.7468 18.1166 21.7456 18.1171 21.7428 C 17.6263 22.2498 17.1225 22.7366 16.5802 23.1772 M 16.5579 23.1977 C 16.565 23.1903 16.5715 23.1857 16.5772 23.1817 C 16.5715 23.1857 16.565 23.1903 16.5579 23.1977 M 16.5304 23.2194 C 16.5353 23.216 16.5403 23.2125 16.5452 23.2091 C 16.5403 23.2125 16.5353 23.216 16.5304 23.2194 M 16.5013 23.2423 C 16.5046 23.24 16.5078 23.2377 16.5111 23.2354 C 16.507 23.2383 16.5046 23.24 16.5013 23.2423 M 26.2432 61.6695 C 26.2671 61.6808 26.291 61.6958 26.3149 61.7071 C 26.3399 61.7201 26.3646 61.7345 26.3877 61.7465 L 26.3877 61.7465 C 26.3408 61.7232 26.2918 61.6952 26.2432 61.6695 M 25.4851 61.2474 C 25.5101 61.2604 25.5333 61.2759 25.5574 61.2895 C 25.5327 61.2751 25.5085 61.2616 25.4851 61.2474 M 25.4682 61.2373 C 25.4733 61.241 25.4773 61.2432 25.484 61.2458 C 25.4773 61.2432 25.4733 61.241 25.4682 61.2373 M 15.3324 49.6052 C 15.3313 49.6036 15.3313 49.6036 15.3313 49.6036 L 15.3313 49.6036 C 15.3313 49.6036 15.3313 49.6036 15.3324 49.6052 M 15.4262 49.7422 C 15.4212 49.7335 15.4155 49.7253 15.4123 49.719 C 15.4172 49.7277 15.423 49.7359 15.4262 49.7422 L 15.4262 49.7422 M 14.8913 49.0376 L 14.8913 49.0376 C 14.8924 49.0393 14.8936 49.0409 14.8967 49.0436 C 14.9001 49.0485 14.9047 49.0551 14.9104 49.0596 C 15.0509 49.2286 15.1866 49.4009 15.313 49.581 C 15.1817 49.3921 15.0378 49.2133 14.8913 49.0376 M 19.9604 56.804 C 21.5371 58.5158 23.3716 59.9979 25.3431 61.1651 C 23.3716 59.9979 21.5379 58.5153 19.9604 56.804 " stroke-width="0.9999999916875338"/>
      <path id="ID0.6319888099096715" d="M 26.3885 61.7459 L 26.3885 61.7459 L 26.3885 61.7459 L 26.3885 61.7459 L 26.3885 61.7459 L 26.3885 61.7459 M 26.2064 61.6501 C 26.244 61.6689 26.2792 61.6894 26.3157 61.7066 C 26.2918 61.6952 26.2679 61.6803 26.244 61.6689 C 26.2295 61.662 26.2188 61.6573 26.2064 61.6501 M 26.1258 61.6065 C 26.1488 61.6185 26.1716 61.6318 26.1946 61.6437 C 26.1716 61.6318 26.1488 61.6185 26.1258 61.6065 M 13.015 45.7033 C 13.0079 45.6705 12.9991 45.6388 12.9918 45.6024 C 12.9199 45.2753 12.8722 44.9325 12.9515 44.6068 C 13.0141 44.3478 13.1562 44.11 13.2137 43.8473 C 13.3363 43.2909 13.0774 42.7358 12.8973 42.1989 C 12.5833 41.2696 12.4971 40.266 12.6471 39.2944 C 12.6993 38.9475 12.784 38.5948 12.7047 38.2521 C 12.4622 37.2103 12.183 36.6855 12.2933 35.5842 C 12.4597 33.9206 12.8835 32.3904 13.3374 30.7901 C 13.5224 30.1276 13.7203 29.4523 14.1313 28.9012 C 14.1594 28.8594 14.1924 28.8228 14.2236 28.7838 C 14.1924 28.8228 14.1594 28.8594 14.1313 28.9012 C 13.7203 29.4523 13.5232 30.127 13.3374 30.7901 C 12.8846 32.3921 12.4598 33.9242 12.2933 35.5842 C 12.1813 36.6867 12.4622 37.2103 12.7047 38.2521 C 12.7829 38.5931 12.7009 38.9463 12.6471 39.2944 C 12.4959 40.2643 12.5833 41.2696 12.8973 42.1989 C 13.0774 42.7358 13.3358 43.2936 13.2137 43.8473 C 13.1571 44.1094 13.0149 44.3473 12.9515 44.6068 C 12.8722 44.9325 12.9199 45.2753 12.9918 45.6024 C 13.0001 45.6368 13.0087 45.6699 13.015 45.7033 M 13.0425 45.8173 C 13.0327 45.7789 13.024 45.7423 13.015 45.7033 C 13.0257 45.7411 13.0327 45.7789 13.0425 45.8173 M 13.0756 45.9394 C 13.0727 45.9317 13.0705 45.9234 13.0701 45.9176 C 13.0711 45.9242 13.0733 45.9325 13.0756 45.9394 M 14.895 49.0412 C 14.8996 49.0477 14.9041 49.0542 14.9087 49.0572 C 14.9041 49.0542 14.8996 49.0477 14.895 49.0412 M 14.7364 48.8519 C 14.7881 48.9133 14.8398 48.9748 14.8915 49.0362 L 14.8904 49.0346 C 14.8396 48.9762 14.7881 48.9133 14.7364 48.8519 M 14.1301 48.1082 L 14.1301 48.1082 L 14.1301 48.1082 L 14.1301 48.1082 L 14.1301 48.1082 L 14.1301 48.1082 L 14.1301 48.1082 M 14.0377 47.9801 C 14.0532 48.0022 14.0682 48.0234 14.0833 48.0433 C 14.0682 48.0234 14.0532 48.0022 14.0377 47.9801 M 14.0377 47.9801 L 14.0377 47.9801 C 14.032 47.9719 14.0262 47.9637 14.0211 47.9563 C 14.0279 47.9661 14.032 47.9719 14.0377 47.9801 M 16.227 51.3096 L 16.227 51.3096 C 15.9784 50.7779 15.7487 50.233 15.4271 49.7452 L 15.4271 49.7452 L 15.4271 49.7452 L 15.4271 49.7452 C 15.7473 50.2328 15.9759 50.776 16.227 51.3096 L 16.227 51.3096 M 18.0574 54.4463 C 20.1418 57.4122 22.9822 59.9096 26.1238 61.6055 C 25.9335 61.5032 25.7459 61.3979 25.5583 61.2889 C 25.5341 61.2754 25.5101 61.2604 25.4851 61.2474 C 25.4851 61.2474 25.4851 61.2474 25.484 61.2458 C 25.4781 61.2426 25.4733 61.241 25.4682 61.2373 C 25.4272 61.2136 25.3858 61.1877 25.3439 61.1645 C 23.3716 59.9979 21.5363 58.5164 19.9604 56.804 C 19.2739 56.0592 18.6366 55.2714 18.0574 54.4463 M 18.0474 54.4338 L 18.0474 54.4338 C 18.0474 54.4338 18.0463 54.4322 18.0451 54.4305 C 18.0463 54.4322 18.0474 54.4338 18.0474 54.4338 " stroke-width="0.9999999916875338" fill="undefined"/>
      <path id="ID0.084318230394274" fill="#585857" d="M 22.4646 54.2899 C 22.6018 54.2156 22.7358 54.135 22.8534 54.0414 C 22.6991 54.0044 22.5488 54.0218 22.4396 54.1413 C 22.4453 54.1911 22.4531 54.2405 22.4646 54.2899 M 18.0474 54.4338 C 18.0509 54.4387 18.054 54.4414 18.0574 54.4463 C 18.6366 55.2714 19.2745 56.06 19.9604 56.804 C 21.5379 58.5153 23.3716 59.9979 25.3431 61.1651 C 25.3849 61.1882 25.4272 61.2136 25.4682 61.2373 C 25.4733 61.241 25.4773 61.2432 25.484 61.2458 C 25.484 61.2458 25.484 61.2458 25.4851 61.2474 C 25.5101 61.2604 25.5333 61.2759 25.5574 61.2895 C 25.7459 61.3979 25.9343 61.5027 26.123 61.6061 C 26.1238 61.6055 26.1258 61.6065 26.1258 61.6065 C 26.1488 61.6185 26.1708 61.6324 26.1946 61.6437 C 26.1986 61.6459 26.2025 61.648 26.2064 61.6501 C 26.2194 61.6581 26.2295 61.662 26.2432 61.6695 C 26.291 61.6958 26.3405 61.721 26.3885 61.7459 L 26.3885 61.7459 L 26.3885 61.7459 C 26.6562 61.8854 26.9303 62.0095 27.2042 62.1421 C 27.6969 61.7841 28.1999 61.4579 28.7942 61.3596 C 29.4597 61.2529 30.1351 61.4544 30.8082 61.4682 C 30.9354 61.4718 31.0664 61.4653 31.1953 61.447 C 30.9444 61.2932 30.6965 61.1385 30.4473 60.9836 C 30.9466 61.0718 31.4498 61.1412 31.9529 61.1913 C 32.1919 61.0479 32.3771 60.8435 32.4616 60.574 C 32.4868 60.4915 32.5026 60.4096 32.5078 60.3265 C 31.5168 59.8199 30.5245 59.2556 29.5012 58.8474 C 29.5898 58.883 29.6468 58.926 29.6807 58.9743 C 29.8514 59.2174 29.3529 59.5673 29.1357 59.5694 C 28.741 59.5692 28.1282 58.9278 27.7493 58.5377 C 27.7272 58.6803 27.6846 58.8128 27.5859 58.9176 C 27.2169 59.2987 26.3648 58.9255 26.0071 58.677 C 25.8787 58.5899 25.7768 58.4708 25.6872 58.3431 C 25.6234 58.2523 25.5642 58.1522 25.5066 58.0545 C 25.4491 57.9568 25.3901 57.8589 25.3263 57.7681 C 25.2252 57.624 25.1104 57.497 24.9598 57.4096 C 24.9388 57.3987 24.9191 57.3881 24.8986 57.378 C 24.9098 57.3922 24.9172 57.4028 24.9276 57.4176 C 25.1666 57.7581 25.3335 58.1247 25.369 58.5494 C 24.6528 58.4656 24.0772 57.9363 23.5566 57.433 C 23.3655 57.2495 23.1746 57.0646 22.9845 56.8756 C 22.609 56.6504 22.2565 56.3554 21.9233 56.0688 C 21.8018 55.9635 21.6768 55.8533 21.5843 55.7215 C 21.5268 55.6397 21.4845 55.5533 21.4632 55.4534 C 21.4514 55.386 21.4492 55.3203 21.4579 55.2543 C 21.1955 54.9449 20.944 54.6266 20.7119 54.296 C 20.5269 54.0324 20.3522 53.7592 20.1912 53.4776 C 20.1399 53.3853 20.0894 53.2961 20.0403 53.2035 C 19.6143 52.3981 19.2973 51.5393 18.984 50.6804 C 18.9834 50.9337 18.9652 51.1775 18.99 51.3469 C 19.0361 51.6702 19.4595 52.0645 19.066 52.188 C 18.8521 52.2575 18.5581 52.0387 18.4116 51.9118 C 18.3535 51.8622 18.2907 51.7866 18.228 51.6973 C 17.7747 51.0516 17.297 49.5494 18.3606 49.5835 C 18.4503 49.5877 18.5255 49.6009 18.5917 49.629 C 16.8645 45.0832 14.7931 40.6006 17.3485 35.855 C 17.755 35.0992 18.2628 34.3066 18.5315 33.5023 C 18.2903 33.4859 18.0508 33.4511 17.8176 33.3852 C 17.669 33.3441 17.5285 33.29 17.3946 33.2264 C 16.6691 34.1266 15.887 34.981 15.0521 35.7845 C 14.3246 34.52 14.3419 32.933 14.7667 31.5364 C 14.9287 31.0049 15.1442 30.4956 15.3933 29.9994 C 15.3865 29.9113 15.3821 29.8216 15.378 29.7304 C 15.3387 28.1636 15.9615 26.6646 16.582 25.2248 C 17.0825 24.0598 17.594 22.9017 18.1081 21.7405 C 17.6187 22.2442 17.1129 22.7299 16.5742 23.1704 C 16.5734 23.171 16.5717 23.1721 16.5709 23.1727 C 16.5636 23.1778 16.5582 23.1841 16.5508 23.1893 C 16.5459 23.1927 16.5429 23.1972 16.5372 23.2012 C 16.5323 23.2047 16.5274 23.2081 16.5217 23.2121 C 16.5163 23.2184 16.5089 23.2236 16.5032 23.2276 C 16.4999 23.2299 16.4966 23.2322 16.4945 23.2361 C 16.4822 23.2447 16.4744 23.2527 16.4637 23.2601 L 16.4637 23.2601 C 16.1909 23.4773 15.9079 23.6955 15.7383 24.0003 C 15.6015 24.2441 15.5492 24.5264 15.5009 24.8022 C 15.3718 25.5111 15.2454 26.2205 15.116 26.9308 L 15.116 26.9308 C 15.0459 27.3183 14.9726 27.7168 14.7752 28.0606 C 14.6248 28.3214 14.4092 28.5399 14.2173 28.7748 C 14.1852 28.8144 14.1542 28.852 14.125 28.8921 C 13.716 29.4444 13.5188 30.1191 13.3331 30.7822 C 12.8775 32.3836 12.4563 33.9157 12.287 35.5752 C 12.175 36.6776 12.4578 37.2024 12.6992 38.2425 C 12.7773 38.5835 12.6949 38.9395 12.6428 39.2865 C 12.494 40.2547 12.5795 41.2588 12.8931 42.1896 C 13.0753 42.7276 13.3334 43.2832 13.2096 43.8379 C 13.1513 44.1012 13.01 44.3385 12.9469 44.6003 C 12.8676 44.9259 12.9133 45.2677 12.9864 45.5964 C 12.9944 45.6287 13.0024 45.6609 13.0093 45.6952 L 13.0104 45.6968 C 13.0183 45.7341 13.0297 45.7712 13.0379 45.8107 C 13.0459 45.843 13.0547 45.8747 13.0644 45.9094 C 13.0665 45.9177 13.0687 45.9259 13.0702 45.9334 C 13.2684 46.6508 13.5897 47.3366 14.0159 47.949 C 14.0216 47.9571 14.0274 47.9653 14.0314 47.9711 L 14.0314 47.9711 C 14.0469 47.9931 14.0618 48.0144 14.0782 48.036 C 14.0925 48.0564 14.1086 48.0793 14.1238 48.0992 L 14.1238 48.0992 L 14.1238 48.0992 L 14.1238 48.0992 L 14.1238 48.0992 C 14.3142 48.3565 14.522 48.6004 14.7285 48.844 C 14.781 48.9049 14.8315 48.9647 14.8824 49.0268 C 15.0317 49.2029 15.1731 49.3835 15.3069 49.5706 C 15.3126 49.5788 15.3184 49.5869 15.3236 49.5943 L 15.3236 49.5943 L 15.3236 49.5943 L 15.3247 49.5959 C 15.3391 49.6164 15.3563 49.641 15.371 49.6636 L 15.371 49.6636 C 15.3817 49.6806 15.3914 49.6945 15.4029 49.7109 C 15.4087 49.7191 15.4144 49.7272 15.4176 49.7335 L 15.4176 49.7335 C 15.7379 50.2247 15.9666 50.7679 16.2168 51.2985 L 16.2168 51.2985 C 16.7281 52.3837 17.3397 53.429 18.0366 54.4219 C 18.0463 54.4322 18.0474 54.4338 18.0474 54.4338 " stroke-width="0.9999999916875338"/>
      <path id="ID0.9108041124418378" fill="#90908F" d="M 15.0581 35.7913 C 15.8914 34.9889 16.6718 34.1357 17.3989 33.2343 C 16.9031 32.9996 16.4871 32.6245 16.1659 32.167 C 15.7293 31.5449 15.466 30.7731 15.3997 30.0084 C 15.1519 30.5049 14.9356 31.0147 14.773 31.5455 C 14.3473 32.9389 14.33 34.526 15.0581 35.7913 M 30.4515 60.9843 C 30.6983 61.141 30.9478 61.2945 31.1986 61.4483 C 31.4685 61.4116 31.7373 61.328 31.9577 61.1928 C 31.4532 61.1425 30.9505 61.0739 30.4515 60.9843 M 27.7533 58.5434 C 28.1322 58.9336 28.7458 59.5744 29.1394 59.573 C 29.3586 59.5719 29.8562 59.2225 29.6844 58.9778 C 29.6517 58.9312 29.5954 58.8876 29.5041 58.8515 C 30.5293 59.2607 31.5224 59.8209 32.5107 60.3306 C 32.5398 59.9021 32.3249 59.4689 32.1001 59.0843 C 31.9641 58.8523 31.8204 58.6196 31.6652 58.3987 C 31.259 57.82 30.7687 57.3077 30.1174 57.0587 C 29.2169 56.7122 27.9726 57.1396 27.8071 58.0891 C 27.7789 58.2335 27.7761 58.3931 27.7533 58.5434 M 22.9877 56.8819 C 23.1786 57.0704 23.3692 57.2531 23.559 57.4399 C 24.0788 57.9437 24.6544 58.4731 25.3722 58.5557 C 25.3357 58.133 25.1681 57.7655 24.9291 57.425 C 24.9188 57.4103 24.9102 57.398 24.901 57.3849 C 24.6766 57.2846 24.4116 57.3057 24.1624 57.29 C 23.7405 57.2599 23.3523 57.1036 22.9877 56.8819 M 19.4059 47.2138 C 19.4375 47.2588 19.4643 47.3109 19.4865 47.36 C 19.6193 47.6553 19.6739 47.9872 19.6409 48.3109 C 19.6334 48.3785 19.6176 48.4519 19.5636 48.4898 C 19.5219 48.5191 19.4684 48.5212 19.4175 48.5166 C 19.2162 48.4978 19.0238 48.3995 18.8936 48.2454 C 18.8445 48.1894 18.8108 48.1483 18.7884 48.1164 C 18.6976 47.9871 18.8065 48.0291 18.7667 47.7113 C 18.7455 47.5662 18.7368 47.4146 18.7884 47.2758 C 18.8404 47.1392 18.9679 47.0215 19.1137 47.0255 C 19.2364 47.0298 19.3329 47.1098 19.4059 47.2138 M 20.7157 54.3031 C 20.9478 54.6338 21.1977 54.9532 21.4609 55.262 C 21.5039 54.9508 21.7769 54.6749 22.0639 54.5076 C 22.1936 54.4313 22.332 54.3622 22.4668 54.2896 C 22.4561 54.2396 22.4475 54.1907 22.4396 54.1413 C 22.5488 54.0218 22.6979 54.0027 22.8534 54.0414 C 22.9269 53.9825 22.9924 53.9157 23.048 53.8401 C 23.3063 53.4962 23.3164 53.0163 23.2096 52.5977 C 23.103 52.1814 22.891 51.7975 22.7389 51.3911 C 22.6977 51.282 22.6619 51.1544 22.7162 51.049 C 22.7788 50.9293 22.9358 50.8901 23.0311 50.7926 C 23.118 50.7059 23.1485 50.577 23.2188 50.4752 C 23.3229 50.3276 23.5041 50.2602 23.6881 50.263 C 23.0919 49.9777 22.4878 49.6113 22.1335 49.1258 C 22.1269 49.1181 22.1212 49.11 22.1171 49.1042 C 21.7133 48.5288 21.5617 47.4513 21.5041 46.7758 C 21.5854 46.7994 21.6365 46.8478 21.6802 46.91 C 21.698 46.9354 21.7133 46.9625 21.7327 46.9953 C 21.9678 47.4155 22.2246 47.8144 22.4952 48.1999 C 23.0887 49.0454 23.7577 49.8244 24.4622 50.6018 C 24.4019 50.5768 24.3423 50.5528 24.2789 50.5251 C 24.3628 50.5994 24.4411 50.6813 24.5152 50.7625 C 24.674 50.9418 24.8458 51.1413 25.0844 51.1766 C 25.2052 51.192 25.3255 51.165 25.4387 51.1209 C 25.4594 51.1138 25.48 51.1066 25.4995 51.0978 C 25.4396 51.0177 25.3822 50.9395 25.3248 50.8576 C 25.2472 50.7471 25.1721 50.6349 25.1005 50.519 C 24.5545 49.6524 24.1805 48.6809 23.5922 47.8428 C 23.5698 47.8109 23.5474 47.779 23.5249 47.747 C 23.0867 47.1506 22.532 46.6285 22.1086 46.0252 C 22.0075 45.8812 21.9141 45.7342 21.833 45.5821 C 21.7286 45.7605 21.5953 45.9188 21.3898 46.0838 C 20.9824 46.4102 20.5993 46.7817 20.0588 46.863 C 19.469 46.952 18.9218 46.6251 18.5776 46.1348 C 18.326 45.7763 18.1829 45.3306 18.2122 44.8971 C 18.2812 43.8675 19.0525 43.0048 19.9369 42.4719 C 20.4128 42.1856 20.933 41.9658 21.3409 41.5915 C 21.3956 40.4718 21.5618 39.3509 21.8884 38.3055 C 21.7154 38.3549 21.5432 38.4073 21.3651 38.3955 L 21.2377 38.3566 C 21.2264 38.3475 21.2173 38.338 21.2081 38.3249 C 21.1834 38.2897 21.1701 38.2465 21.1592 38.2065 C 21.117 38.0455 21.0974 37.8296 21.25 37.7615 C 21.2931 37.7411 21.3421 37.7396 21.389 37.7385 C 21.6201 37.7388 21.8515 37.7743 22.0813 37.7535 C 22.3592 37.0233 22.7279 36.3405 23.1984 35.7402 C 23.0854 35.3687 22.9172 35.009 22.6955 34.6931 C 22.4932 34.405 22.2472 34.1537 21.9552 33.9604 C 21.7606 34.0592 21.5871 34.1932 21.4444 34.3642 C 21.0583 34.8306 20.9263 35.4536 20.84 36.053 C 20.6305 37.5317 20.6335 39.0398 20.8523 40.516 C 20.2738 38.4003 19.704 36.1039 20.5122 34.0631 C 20.5837 33.8846 20.6657 33.7073 20.7539 33.5354 C 20.0311 33.449 19.2712 33.5622 18.537 33.5119 C 18.2675 34.3168 17.7597 35.1094 17.3548 35.864 C 14.8002 40.609 16.8716 45.0916 18.598 49.638 C 18.6941 49.6756 18.7681 49.741 18.8215 49.8171 C 18.972 50.0315 18.9912 50.3687 18.9887 50.6906 C 19.3028 51.5489 19.6189 52.4083 20.045 53.2137 C 20.0941 53.3063 20.1451 53.3963 20.1967 53.4872 C 20.3538 53.7667 20.5307 54.0396 20.7157 54.3031 " stroke-width="0.9999999916875338"/>
      <path id="ID0.449022117536515" fill="#ABABAA" d="M 22.0771 37.7527 C 22.094 37.7507 22.1084 37.7503 22.1247 37.7474 C 23.0067 37.6463 23.4497 36.7648 23.2559 35.965 C 23.2372 35.8877 23.2187 35.8127 23.1933 35.7365 C 22.722 36.3409 22.3564 37.0228 22.0771 37.7527 M 20.8498 40.5141 C 20.6318 39.0373 20.6272 37.5304 20.8374 36.0511 C 20.9229 35.4523 21.0566 34.8282 21.4438 34.3633 C 21.5856 34.1893 21.7616 34.0572 21.9526 33.9585 C 21.7935 33.8503 21.6183 33.7607 21.4316 33.6914 C 21.2102 33.611 20.984 33.5621 20.7517 33.5358 C 20.6635 33.7077 20.5819 33.8822 20.5108 34.0628 C 19.7001 36.1017 20.2715 38.3971 20.8498 40.5141 M 21.3373 41.5916 C 21.3419 41.5859 21.3468 41.5825 21.3514 41.5768 C 21.7988 41.1577 22.1532 40.5607 22.3661 39.9885 C 22.5155 39.5904 23.0398 38.8718 22.7866 38.452 C 22.7825 38.4427 22.7768 38.4345 22.7728 38.4288 C 22.6349 38.2323 22.3437 38.2022 22.1051 38.2487 C 22.0328 38.264 21.9589 38.2841 21.8864 38.3044 C 21.559 39.3504 21.392 40.4719 21.3373 41.5916 M 25.322 50.8571 C 25.3794 50.939 25.4368 51.0172 25.4975 51.0968 C 26.0486 50.8602 26.4249 50.298 26.5356 49.7071 C 26.6517 49.0929 26.5191 48.4566 26.284 47.8763 C 26.1454 47.5326 25.9684 47.1987 25.8922 46.8343 C 25.829 46.5353 25.8365 46.2222 25.7523 45.9282 C 25.7064 45.7723 25.6346 45.6248 25.5403 45.4905 C 25.3852 45.2696 25.1726 45.0902 24.9269 44.9804 C 24.6613 44.8614 24.3666 44.8227 24.1023 44.7003 C 23.67 44.5004 23.2788 44.0737 22.8103 44.1704 C 22.4617 44.2429 22.2417 44.5891 22.1154 44.9209 C 22.0179 45.1824 21.9394 45.3926 21.8291 45.58 C 21.913 45.7361 22.0056 45.8837 22.105 46.0253 C 22.5279 46.6277 23.0822 47.1476 23.5213 47.7471 C 23.5446 47.7785 23.567 47.8104 23.5894 47.8423 C 24.1771 48.6796 24.5503 49.6517 25.0969 50.5191 C 25.1699 50.6352 25.2444 50.7466 25.322 50.8571 " stroke-width="0.9999999916875338"/>
      <path id="ID0.16697180224582553" fill="#848483" d="M 18.2327 51.7075 C 18.2953 51.7967 18.3587 51.8695 18.4159 51.9198 C 18.5624 52.0466 18.8551 52.2652 19.0707 52.1981 C 19.4638 52.0724 19.038 51.6798 18.9936 51.3555 C 18.9696 51.189 18.9865 50.945 18.9895 50.69 C 18.9928 50.3675 18.9712 50.0321 18.8207 49.8177 C 18.7655 49.7391 18.6938 49.677 18.5972 49.6385 C 18.531 49.6104 18.4547 49.5956 18.365 49.5914 C 17.3016 49.5595 17.7794 51.0617 18.2327 51.7075 " stroke-width="0.9999999916875338"/>
      <path id="ID0.6733169793151319" fill="#848483" d="M 18.7886 48.115 C 18.811 48.1469 18.8448 48.188 18.8938 48.244 C 19.0257 48.397 19.2182 48.4989 19.4177 48.5152 C 19.4678 48.5204 19.5215 48.5169 19.5633 48.4876 C 19.6185 48.4513 19.633 48.3763 19.6406 48.3087 C 19.6747 47.9866 19.6201 47.6547 19.4873 47.3594 C 19.4656 47.3075 19.4383 47.2582 19.4056 47.2116 C 19.3337 47.1093 19.2369 47.027 19.1145 47.0249 C 18.9682 47.0201 18.8412 47.1386 18.7892 47.2752 C 18.7393 47.4129 18.7479 47.5645 18.7675 47.7107 C 18.8076 48.0272 18.6978 47.9857 18.7886 48.115 " stroke-width="0.9999999916875338"/>
      <path id="ID0.19748767651617527" fill="#949494" d="M 22.1149 49.1046 C 22.1207 49.1127 22.1253 49.1193 22.1304 49.1267 C 22.4861 49.6125 23.0889 49.9786 23.6842 50.2645 C 23.7608 50.2657 23.8374 50.2791 23.9079 50.303 C 24.0447 50.3499 24.1656 50.4299 24.2745 50.5258 C 24.3378 50.5534 24.3983 50.5769 24.4586 50.6018 C 23.7525 49.8256 23.0848 49.0468 22.4908 48.2005 C 22.2202 47.815 21.965 47.415 21.7271 46.9943 C 21.7103 46.9634 21.6941 46.9368 21.6746 46.909 C 21.6321 46.8484 21.581 46.8 21.5013 46.7753 C 21.5583 47.45 21.7099 48.5275 22.1149 49.1046 " stroke-width="0.9999999916875338"/>
      <path id="ID0.07347159739583731" fill="#90908F" d="M 36.7603 55.8265 C 37.0671 55.9312 37.3831 56.0124 37.7027 56.0691 C 37.7489 56.0391 37.7965 56.013 37.8458 55.9857 C 38.3238 55.7198 38.908 55.6262 39.4383 55.7585 C 39.5715 55.527 39.6299 55.2307 39.6678 54.9609 C 39.6785 54.8788 39.6911 54.7992 39.7068 54.7137 C 39.5005 54.6287 39.2973 54.5429 39.0974 54.4547 C 38.693 54.2755 38.2246 54.0729 37.8283 54.2741 C 37.4454 54.4684 37.3281 54.9453 37.1266 55.325 C 37.0271 55.5121 36.9044 55.6802 36.7603 55.8265 " stroke-width="0.9999999916875338"/>
      <path id="ID0.12021943414583802" fill="#ABABAA" d="M 33.5419 53.4747 C 34.3118 54.5714 35.4709 55.3925 36.7586 55.824 C 36.901 55.6788 37.0237 55.5108 37.1263 55.3228 C 37.3286 54.9425 37.4458 54.4656 37.8287 54.2713 C 38.2229 54.0704 38.6935 54.2728 39.0971 54.4525 C 39.2968 54.5421 39.5 54.6279 39.7072 54.7109 C 39.7774 54.3391 39.9111 53.9691 40.2386 53.8125 C 40.4245 53.7223 40.6396 53.7241 40.8447 53.7048 C 41.4874 53.6421 41.9158 53.3561 42.4066 52.9883 C 42.8223 52.6721 43.4336 52.6083 43.8394 52.9966 C 44.0592 53.2052 44.181 53.5058 44.4218 53.6923 C 45.0281 54.1574 46.0458 53.6666 46.4567 53.1449 C 46.6544 52.8888 46.7112 52.5484 46.851 52.262 C 47.0367 51.8739 47.2321 51.5082 47.1293 51.0624 C 47.0795 50.8469 46.9672 50.6557 46.8397 50.474 C 46.7937 50.4085 46.7442 50.3431 46.6966 50.2788 C 46.647 50.2134 46.5994 50.1491 46.5534 50.0836 C 46.5207 50.0369 46.4913 49.9916 46.4602 49.9438 C 46.3661 49.7923 46.2899 49.6333 46.2554 49.4571 C 46.2154 49.2469 46.2408 49.0238 46.1561 48.8231 C 46.1369 48.7766 46.1137 48.7331 46.085 48.6922 C 45.985 48.5497 45.8345 48.4379 45.6905 48.3338 C 45.2172 47.9903 44.6009 47.6361 44.088 47.9167 C 43.6003 48.1845 43.4556 48.9287 42.9167 49.059 C 42.6715 49.1188 42.4134 49.0262 42.201 48.8906 C 42.1249 48.8414 42.0477 48.7784 41.9954 48.7039 C 41.9471 48.6351 41.9195 48.5592 41.9352 48.4737 C 41.9539 48.375 42.0297 48.295 42.104 48.2269 C 42.8035 47.5611 43.5929 46.9887 44.4421 46.5258 C 44.5215 46.4823 44.6067 46.4347 44.6399 46.3515 C 44.6589 46.3003 44.6573 46.244 44.6521 46.1878 C 44.6182 45.6435 44.4664 45.2271 44.186 44.8277 C 44.0792 44.6755 43.9547 44.5295 43.812 44.3767 C 43.4965 44.063 43.1014 43.782 42.6616 43.7926 C 42.1101 43.8023 41.6471 44.2567 41.1005 44.2873 C 40.5667 44.3188 40.0917 43.9484 39.5637 43.856 C 38.6156 43.6907 37.7798 44.4215 36.9072 44.8301 C 36.3379 45.0965 35.7048 45.2354 35.1816 45.5831 C 34.5988 45.9678 34.1894 46.6046 34.0792 47.2953 C 34.0036 47.776 34.0635 48.2825 33.8843 48.7321 C 33.6726 49.2643 33.1658 49.6249 32.8966 50.1291 C 32.5354 50.8103 32.6585 51.6488 32.9417 52.3638 C 33.0978 52.7601 33.3006 53.1309 33.5419 53.4747 " stroke-width="0.9999999916875338"/>
      <path id="ID0.052685847505927086" fill="#949494" d="M 37.7027 56.0691 C 37.9699 56.1173 38.2423 56.1485 38.5131 56.1636 C 38.7059 56.1737 38.9066 56.1758 39.0822 56.0953 C 39.2403 56.0246 39.3531 55.9051 39.4361 55.7589 C 38.9072 55.6267 38.3224 55.7196 37.8436 55.9861 C 37.7982 56.0118 37.7489 56.0391 37.7027 56.0691 " stroke-width="0.9999999916875338"/>
      <path id="ID0.8072715853340924" fill="#90908F" d="M 50.9049 50.4867 C 51.1634 50.5887 51.4282 50.6753 51.6971 50.7468 C 51.7924 50.1288 51.8009 49.5022 51.4993 48.9699 C 51.3078 49.4733 51.1134 49.9848 50.9049 50.4867 M 26.616 23.8163 C 28.6878 22.8898 31.3905 22.8864 33.159 21.4287 C 33.1313 21.3859 33.1009 21.3425 33.0722 21.3016 C 32.9165 21.0797 32.7379 20.8776 32.5087 20.7355 C 32.1811 20.5317 31.7816 20.4725 31.3951 20.4702 C 29.3367 20.4514 27.4648 21.9376 26.616 23.8163 M 23.9145 34.1392 C 24.0369 34.3135 24.1745 34.4747 24.3145 34.6342 C 24.3502 34.6067 24.3843 34.5804 24.4211 34.5545 C 24.4067 34.5341 24.3942 34.511 24.381 34.4922 C 24.2351 34.2843 24.0422 34.1192 23.8201 33.9977 C 23.8224 34.001 23.8247 34.0043 23.827 34.0076 C 23.8544 34.0518 23.8841 34.0958 23.9145 34.1392 " stroke-width="0.9999999916875338"/>
      <path id="ID0.009481305256485939" fill="#F8F8F8" d="M 60.3968 22.9841 C 60.3956 22.9825 60.3945 22.9809 60.3933 22.9792 L 60.3933 22.9792 C 60.3945 22.9809 60.3956 22.9825 60.3968 22.9841 M 58.4578 20.9755 C 59.1946 21.5396 59.8552 22.2109 60.388 22.9683 C 59.8542 22.2129 59.1946 21.5396 58.4578 20.9755 M 64.7005 34.1211 C 64.4067 32.1012 64.0274 30.0571 62.975 28.3193 C 62.6841 27.8405 62.3453 27.3892 62.0846 26.8942 C 62.3453 27.3892 62.6838 27.8383 62.975 28.3193 C 64.0274 30.0571 64.4067 32.1012 64.7005 34.1211 M 64.9129 40.0613 C 64.9119 40.0547 64.912 40.0497 64.911 40.043 L 64.911 40.043 C 64.912 40.0497 64.9111 40.0552 64.9129 40.0613 M 64.915 40.0818 C 64.9139 40.0801 64.9144 40.0773 64.9148 40.0746 C 64.9144 40.0773 64.9139 40.0801 64.915 40.0818 M 40.7038 11.771 C 40.9079 11.6631 41.1209 11.5332 41.3507 11.5368 C 41.1201 11.5337 40.9095 11.662 40.7038 11.771 M 40.0803 12.0315 C 40.0823 12.0325 40.0842 12.0336 40.0874 12.0363 C 40.2861 11.9713 40.4898 11.8821 40.7022 11.7721 C 40.4874 11.8838 40.2815 11.9648 40.0803 12.0315 " stroke-width="0.9999999916875338"/>
      <path id="ID0.18136898195371032" d="M 64.9132 40.0635 C 64.9122 40.0569 64.912 40.0497 64.911 40.043 C 64.912 40.0497 64.9119 40.0547 64.9129 40.0613 C 64.914 40.0629 64.914 40.0629 64.9132 40.0635 " stroke-width="0.9999999916875338" fill="undefined"/>
      <path id="ID0.2800529384985566" fill="#585857" d="M 60.1088 44.4769 C 60.1464 44.4627 60.1847 44.4493 60.2233 44.4417 C 60.3994 44.4036 60.5827 44.4228 60.7613 44.444 C 61.2831 44.4981 61.8634 44.5171 62.2689 44.1897 C 62.3628 44.0138 62.449 43.8336 62.5268 43.6556 C 63.2861 41.8984 63.5395 39.955 64.3238 38.2108 C 64.0681 39.0684 63.9251 39.963 63.8217 40.8688 C 63.933 40.8028 64.0685 40.7957 64.1988 40.7898 C 64.4704 40.7799 64.7441 40.7869 65.0155 40.7993 C 64.9864 40.5595 64.9405 40.3217 64.9158 40.0812 C 64.9144 40.0773 64.916 40.0762 64.9157 40.074 C 64.915 40.0696 64.9135 40.0657 64.914 40.0629 C 64.9127 40.0541 64.9137 40.0485 64.9119 40.0425 L 64.9119 40.0425 C 64.8551 39.4116 64.9795 38.783 65.0282 38.1526 C 65.1143 37.0133 64.9534 35.8739 64.7937 34.7447 C 64.7637 34.5349 64.7334 34.3264 64.7029 34.1193 C 64.408 32.0979 64.0295 30.0531 62.9771 28.3154 C 62.6862 27.8366 62.3466 27.3859 62.0878 26.8919 C 62.0448 26.8097 62.0037 26.7286 61.9673 26.6454 C 61.7215 26.102 61.5979 25.5082 61.4068 24.9435 C 61.1689 24.2443 60.8262 23.5856 60.4005 22.9791 C 60.4005 22.9791 60.3994 22.9774 60.3971 22.9741 C 60.3959 22.9725 60.3925 22.9676 60.3913 22.966 C 59.8565 22.2076 59.1976 21.5351 58.4611 20.9732 C 58.4048 20.9296 58.3467 20.8886 58.2916 20.8466 C 57.2278 20.071 56.01 19.4988 55.0604 18.5881 C 54.5439 18.0942 54.1215 17.5098 53.6451 16.9755 C 52.08 15.2176 49.9541 14.0061 47.6897 13.372 C 45.758 12.8305 43.6922 12.6776 41.9243 11.7377 C 41.7472 11.6421 41.5666 11.538 41.3656 11.5337 C 41.3628 11.5332 41.3584 11.5338 41.3556 11.5334 C 41.1234 11.5314 40.9106 11.66 40.7059 11.767 L 40.7059 11.767 L 40.7059 11.767 C 40.4945 11.88 40.2899 11.9662 40.0903 12.0318 C 41.1411 12.7664 42.1919 13.4888 43.4189 13.7992 C 43.9007 13.9216 44.4724 14.0311 44.7441 14.4182 C 44.7654 14.4485 44.785 14.4799 44.8025 14.5153 C 45.3397 14.7637 45.864 15.0371 46.3745 15.3275 C 48.7635 16.6806 50.934 18.3959 53.3077 19.7793 C 55.2137 20.8898 57.3418 21.8677 58.5988 23.6585 C 58.6626 23.7494 58.7248 23.845 58.7849 23.9409 C 59.8729 25.6928 59.9877 27.9763 61.1517 29.6346 C 61.2637 29.7942 61.3873 29.9494 61.5209 30.0962 C 60.5337 29.2363 59.5474 28.3795 58.5596 27.5188 C 58.728 27.7414 58.895 27.9688 59.0553 28.1971 C 60.6013 30.3996 61.775 32.888 62.195 35.5401 C 62.659 38.4692 62.1387 41.6128 60.4305 44.0372 C 60.326 44.1876 60.2179 44.3331 60.1088 44.4769 M 58.3464 47.1166 C 58.4886 47.112 58.6307 47.1003 58.7708 47.0789 C 58.7357 46.7835 58.7523 46.4834 58.8197 46.193 C 58.6354 46.4874 58.4709 46.7909 58.3464 47.1166 " stroke-width="0.9999999916875338"/>
      <path id="ID0.2384038078598678" fill="#90908F" d="M 62.2716 44.1902 C 62.2787 44.1828 62.2869 44.1771 62.2934 44.1725 C 62.6987 43.8257 62.7788 43.2453 62.9151 42.7294 C 63.0644 42.164 63.3131 41.6289 63.6056 41.1231 C 63.6582 41.0361 63.7112 40.9463 63.7947 40.8877 C 63.8037 40.8814 63.8119 40.8757 63.8212 40.8715 C 63.9234 39.9641 64.0665 39.0696 64.3222 38.212 C 63.5382 39.9584 63.2847 41.9018 62.5243 43.6573 C 62.449 43.8336 62.3645 44.0127 62.2716 44.1902 M 53.4274 39.5589 C 53.8676 38.5864 55.0285 37.9462 55.1452 36.8784 C 55.1805 36.5457 55.107 36.2112 55.072 35.8778 C 55.0651 35.8069 55.06 35.7335 55.0557 35.6596 C 54.9109 35.6708 54.7668 35.6901 54.6259 35.7279 C 53.4311 36.0412 52.6068 37.4604 53.0351 38.6223 C 53.1536 38.9373 53.3116 39.2443 53.4274 39.5589 M 38.3572 23.1129 C 38.7509 23.4023 39.1498 23.6207 39.5787 23.4467 C 40.054 23.2536 40.215 22.6702 40.5571 22.2871 C 40.7753 22.0411 41.0711 21.8933 41.3907 21.8352 C 41.3095 21.8274 41.2277 21.8274 41.1461 21.8297 C 40.6337 21.8533 40.1453 22.0521 39.6876 22.2878 C 39.2237 22.5267 38.7773 22.8046 38.3572 23.1129 M 56.8325 27.3542 C 55.9734 27.1606 55.3212 26.47 54.7949 25.7655 C 54.575 25.4714 54.3617 25.1605 54.0594 24.9475 C 53.6919 24.685 53.2453 24.6075 52.7937 24.5385 C 52.5876 24.506 52.3788 24.4766 52.1777 24.432 C 51.1618 24.2118 50.2632 23.5548 49.5518 22.8128 C 49.496 22.7542 49.4415 22.6923 49.3944 22.6252 C 49.3415 22.5499 49.3016 22.4704 49.2787 22.3838 C 49.2376 22.2172 49.2857 22.0161 49.4317 21.9282 C 49.6218 21.8143 49.8617 21.9245 50.0528 22.0384 C 50.5694 22.3514 50.9784 22.6556 51.554 22.8576 C 52.0674 23.0409 52.6384 23.1911 53.1208 23.445 C 53.5859 23.6916 53.9322 24.2023 54.2888 24.5886 C 55.1364 25.5123 55.9858 26.4335 56.8325 27.3542 M 60.6485 34.6598 C 61.0452 36.9655 61.6983 39.438 59.9288 41.3313 C 60.2021 39.1846 60.9857 36.8459 60.6485 34.6598 C 60.637 34.5983 60.6275 34.5341 60.6168 34.472 C 60.6294 34.5352 60.6403 34.596 60.6485 34.6598 M 54.1138 50.9869 C 54.7965 50.9414 55.4737 50.8008 56.1153 50.5557 C 56.36 50.4621 56.607 50.351 56.7819 50.1599 C 56.9641 49.9599 57.0529 49.6948 57.1775 49.4546 C 57.3776 49.0661 57.6778 48.7331 58.0435 48.4935 C 58.3402 48.3 58.7112 48.1324 58.809 47.7913 C 58.8718 47.5847 58.8121 47.3639 58.7825 47.1513 C 58.7795 47.1278 58.7739 47.1024 58.7716 47.0783 C 58.6326 47.1014 58.4906 47.1131 58.3481 47.1154 C 58.4726 46.7898 58.6364 46.4854 58.8214 46.1919 C 58.9524 45.6197 59.2671 45.0897 59.7208 44.7162 C 59.8383 44.6191 59.9688 44.5299 60.1104 44.4758 C 60.2196 44.3319 60.3293 44.1889 60.4306 44.0408 C 62.1382 41.6156 62.6586 38.4756 62.1962 35.5454 C 61.7771 32.8927 60.6009 30.406 59.0549 28.2035 C 58.8934 27.9735 58.7293 27.7466 58.5596 27.5224 C 59.5452 28.3834 60.5324 29.2397 61.5191 30.0988 C 61.3874 29.953 61.2638 29.7978 61.1518 29.6382 C 59.9883 27.9808 59.871 25.6953 58.7849 23.9445 C 58.7249 23.8486 58.6627 23.753 58.5989 23.6621 C 57.3419 21.8713 55.2138 20.8934 53.3061 19.7841 C 50.9333 18.4001 48.7634 16.6856 46.3746 15.3312 C 45.8641 15.0407 45.3381 14.7649 44.8026 14.5189 C 44.8114 14.5384 44.8219 14.5603 44.831 14.582 C 44.9551 14.8859 44.8719 15.2338 44.7766 15.5488 C 44.5184 16.4081 44.1568 17.2801 43.471 17.8592 C 42.7853 18.4384 41.7003 18.6245 40.9951 18.0724 C 40.8455 17.9551 40.724 17.8168 40.616 17.6629 C 40.4655 17.4485 40.3448 17.207 40.2236 16.9646 C 40.1031 16.7217 39.9817 16.4808 39.83 16.2647 C 39.7461 16.1452 39.6518 16.0318 39.5426 15.9301 C 38.8615 15.3061 37.762 15.3498 36.9468 15.7863 C 36.1305 16.2213 35.5326 16.9672 34.9602 17.694 C 34.2693 18.5651 33.5732 19.7648 33.8418 20.7393 C 34.4628 19.9931 34.9767 19.129 35.8452 18.7197 C 37.0478 18.1529 38.3707 18.6868 39.5071 19.1536 C 40.9014 19.7265 42.2339 19.9103 43.7282 20.0966 C 45.1618 20.2766 46.5581 20.7394 47.8132 21.4552 C 47.7446 21.6586 47.469 21.6663 47.2572 21.6378 C 46.4364 21.525 45.6113 21.4113 44.7905 21.2985 C 45.6954 21.8374 46.5989 22.3797 47.503 22.9192 C 47.7118 23.0426 47.9216 23.1691 48.08 23.3548 C 48.1034 23.3811 48.1243 23.4092 48.1456 23.4395 C 48.3294 23.7014 48.4073 24.0316 48.5048 24.3394 C 48.6773 24.8793 48.9329 25.3914 49.2598 25.8571 C 49.5517 26.2729 49.8992 26.6497 50.2929 26.972 C 49.6193 26.8792 49.0926 26.3569 48.6831 25.8136 C 48.2728 25.2708 47.9085 24.67 47.344 24.2905 C 46.8034 23.9259 46.1356 23.8118 45.5174 23.5995 C 44.6656 23.3067 43.897 22.8261 43.095 22.4129 C 43.1553 22.478 43.2097 22.5449 43.2602 22.617 C 43.5498 23.0295 43.692 23.5454 43.7025 24.0634 C 44.1561 24.2814 44.592 24.5386 45.0132 24.8062 C 46.3026 25.6214 47.503 26.576 48.5931 27.6435 C 49.0424 28.0868 49.3196 28.5984 49.7347 29.0523 C 49.7267 28.9956 49.7488 28.9349 49.7854 28.886 C 49.9295 28.6822 50.2246 28.6779 50.4766 28.694 C 51.1973 28.7391 52.5006 28.7247 52.974 29.3992 C 52.9809 29.409 52.9872 29.418 52.9941 29.4278 C 53.0319 29.4868 53.0599 29.5772 53.0032 29.6218 L 52.9124 29.6403 C 52.5612 29.6291 52.3783 29.4068 52.1155 29.2187 C 51.7974 28.9935 51.3714 28.9175 50.9953 29.0239 C 50.8058 29.0812 50.6283 29.1764 50.4405 29.2362 C 50.2653 29.2895 50.0705 29.3078 49.9061 29.2338 C 50.2584 29.612 50.6182 29.9801 50.9758 30.3486 C 51.0495 30.2186 51.1304 30.0971 51.2366 29.9908 C 51.9395 29.2848 53.2065 29.7198 53.8365 30.492 C 53.8959 30.5627 53.9523 30.638 54.0035 30.7108 C 54.2551 31.0693 54.4486 31.465 54.6418 31.8621 C 54.7952 32.1746 54.9486 32.4872 55.1297 32.7817 C 55.1455 32.2977 55.1631 31.8162 55.18 31.3339 C 55.1756 31.3346 55.174 31.3357 55.1707 31.338 C 55.1236 31.2953 55.0766 31.244 55.0399 31.1917 C 54.9703 31.0926 54.9324 30.9812 54.9941 30.8829 C 55.0268 30.8319 55.0784 30.7993 55.1306 30.7675 C 55.3783 30.6156 55.6165 30.4484 55.8424 30.2654 C 55.9488 30.1785 56.058 30.0835 56.1009 29.9532 C 56.1537 29.7916 56.0945 29.6169 56.018 29.4678 C 55.9795 29.3921 55.9365 29.3221 55.8883 29.2534 C 55.7613 29.0725 55.609 28.913 55.4519 28.7484 C 55.2948 28.5838 55.1391 28.4194 55.0064 28.2303 C 54.976 28.187 54.9466 28.1416 54.9202 28.0954 C 54.7457 27.8049 54.578 27.4999 54.3832 27.2224 C 54.177 26.9286 53.94 26.6624 53.6378 26.4738 C 53.1888 26.1927 52.6453 26.1112 52.16 25.8984 C 51.7019 25.7019 51.305 25.3941 50.9098 25.0887 C 50.5036 24.7727 50.0976 24.459 49.69 24.1428 C 50.888 24.2708 51.7562 25.3632 52.9004 25.7452 C 53.1784 25.8384 53.4739 25.8888 53.7333 26.0268 C 53.997 26.1692 54.1812 26.3758 54.3403 26.6026 C 54.4202 26.7163 54.4924 26.8367 54.5669 26.9567 C 54.6413 27.0767 54.7152 27.1959 54.7951 27.3096 C 54.8738 27.4218 54.9585 27.5285 55.0549 27.6258 C 55.5793 28.1483 56.0779 28.6499 56.5111 29.267 C 56.518 29.2768 56.5255 29.2875 56.5324 29.2973 C 56.6787 29.5074 56.8183 29.7881 56.6819 30.0011 C 56.6073 30.1158 56.4716 30.1732 56.3709 30.2647 C 56.2351 30.3881 56.1674 30.57 56.0606 30.7207 C 55.9114 30.9329 55.6924 31.0769 55.4587 31.1982 C 56.1719 32.0647 56.8257 32.9803 57.4758 33.896 C 57.4913 33.9181 57.5085 33.9427 57.524 33.9648 C 57.6384 34.1277 57.7461 34.2951 57.801 34.4864 C 57.8152 34.5362 57.825 34.5868 57.8324 34.639 C 57.9602 34.6593 58.0877 34.6773 58.215 34.6881 C 58.1707 34.9696 58.0088 35.1932 57.7842 35.3607 C 57.7641 35.4799 57.7451 35.6008 57.7349 35.7203 C 57.673 36.3527 57.9257 36.758 58.1403 37.316 C 58.3213 37.795 58.2491 38.437 58.1817 38.9449 C 58.0614 39.865 57.7457 40.7537 57.6299 41.6731 C 57.4972 42.7303 57.5259 43.5544 57.0539 44.4954 C 56.6091 45.3831 56.0342 46.2558 55.5844 47.1641 C 55.1137 48.1053 54.3263 49.1541 54.1828 50.2115 C 54.1442 50.4646 54.1322 50.726 54.1138 50.9869 " stroke-width="0.9999999916875338"/>
      <path id="ID0.7432477637194097" fill="#ABABAA" d="M 55.2825 33.0116 C 55.2957 33.0304 55.3118 33.0533 55.3262 33.0738 C 55.9217 33.8873 56.8395 34.4551 57.8301 34.6357 C 57.8222 34.5863 57.8132 34.5352 57.7978 34.4837 C 57.743 34.2924 57.6361 34.1244 57.5217 33.9615 C 57.5062 33.9394 57.489 33.9149 57.4727 33.8933 C 56.8217 32.9782 56.1696 32.0614 55.4564 31.195 C 55.3632 31.2433 55.2719 31.289 55.1758 31.3296 C 55.1611 31.8152 55.1424 32.295 55.1254 32.7773 C 55.1779 32.859 55.2302 32.9371 55.2825 33.0116 M 34.0617 21.2056 C 34.0875 21.2425 34.1162 21.2798 34.1464 21.316 C 34.9373 22.2599 36.5046 21.9063 37.564 22.5347 C 37.8313 22.6928 38.094 22.919 38.3586 23.1132 C 38.7781 22.804 39.2262 22.5286 39.6899 22.2911 C 40.1476 22.0553 40.636 21.8566 41.1476 21.8335 C 41.2291 21.8313 41.3118 21.8307 41.3922 21.839 C 41.9322 21.7397 42.5388 21.8955 42.9542 22.2698 C 43.0041 22.313 43.0507 22.362 43.096 22.4109 C 43.8972 22.8247 44.6676 23.3078 45.5185 23.5975 C 46.1367 23.8099 46.8028 23.9251 47.345 24.2885 C 47.9096 24.6681 48.2722 25.27 48.6834 25.8122 C 49.0945 26.3544 49.6203 26.8772 50.2939 26.97 C 49.9014 26.6493 49.5528 26.271 49.2609 25.8552 C 48.9357 25.3919 48.6776 24.8779 48.5059 24.3375 C 48.4066 24.0272 48.3305 23.6994 48.1455 23.4359 C 48.1254 23.4072 48.1044 23.3792 48.0811 23.3528 C 47.9252 23.169 47.7129 23.0407 47.5041 22.9172 C 46.5989 22.3761 45.6964 21.8354 44.7915 21.2965 C 45.6124 21.4094 46.4374 21.523 47.2583 21.6359 C 47.4684 21.6655 47.7445 21.655 47.8127 21.4544 C 46.5584 20.738 45.1609 20.2736 43.7284 20.0952 C 42.2344 19.9075 40.9019 19.7237 39.5082 19.1516 C 38.3717 18.6848 37.0477 18.1493 35.8451 18.7161 C 34.9785 19.1265 34.4639 19.9911 33.8421 20.7379 C 33.8848 20.8997 33.9571 21.0567 34.0617 21.2056 M 48.1417 48.5118 C 48.2709 48.6959 48.4273 48.8647 48.5911 49.0198 C 49.2545 49.6586 50.0482 50.1522 50.9043 50.4859 C 51.1136 49.9834 51.3061 49.4708 51.4984 48.9668 C 51.7984 49.5003 51.791 50.1286 51.6974 50.7454 C 52.4817 50.9559 53.3029 51.038 54.1146 50.9863 C 54.1322 50.726 54.1442 50.4646 54.1788 50.2058 C 54.3259 49.1483 55.1121 48.0979 55.5812 47.1578 C 56.0338 46.2536 56.6062 45.379 57.051 44.4913 C 57.5236 43.5511 57.4957 42.7264 57.6279 41.6685 C 57.7425 40.7474 58.0578 39.8615 58.1788 38.9409 C 58.2478 38.4318 58.3181 37.7887 58.1355 37.3109 C 57.9229 36.7539 57.6701 36.3486 57.7309 35.7146 C 57.7419 35.5944 57.7612 35.4758 57.781 35.3544 C 57.47 35.5849 57.0423 35.7031 56.6511 35.715 C 56.121 35.7291 55.5805 35.6223 55.0551 35.6587 C 55.0582 35.7311 55.0647 35.8047 55.0723 35.8764 C 55.1052 36.2088 55.1796 36.5427 55.1435 36.8759 C 55.0279 37.9454 53.8667 38.5834 53.4276 39.5575 C 53.5204 39.8027 53.5849 40.0531 53.5876 40.3163 C 53.5886 40.4256 53.5771 40.5363 53.5306 40.6336 C 53.3484 41.0267 52.7728 40.9848 52.3806 40.8019 C 51.9883 40.6191 51.5679 40.3509 51.1614 40.4958 C 50.9105 40.584 50.7348 40.8124 50.4973 40.9265 C 50.143 41.0971 49.7231 40.9898 49.338 41.0573 C 48.6512 41.179 48.1729 41.8447 48.0186 42.5247 C 47.866 43.2073 47.9621 43.9133 47.9968 44.6085 C 48.0324 45.3398 47.9993 46.0741 47.8991 46.7981 C 47.8479 47.1639 47.78 47.5353 47.86 47.8946 C 47.9073 48.1204 48.0107 48.3252 48.1417 48.5118 M 23.8201 33.9977 C 24.0406 34.1203 24.2331 34.2833 24.3802 34.4928 C 24.3934 34.5116 24.4067 34.5341 24.4211 34.5545 C 24.3843 34.5804 24.3502 34.6067 24.3145 34.6342 C 24.5372 34.8835 24.7713 35.1248 24.9766 35.3912 C 25.0259 35.4544 25.0735 35.5187 25.1206 35.5858 C 25.2441 35.7618 25.3586 35.9441 25.4745 36.1266 C 25.5882 36.3095 25.7056 36.4923 25.8279 36.6666 C 26.0537 36.9883 26.3027 37.2803 26.6283 37.4988 C 26.8319 37.6357 27.076 37.738 27.3162 37.699 C 27.5322 37.6621 27.7146 37.5146 27.919 37.4334 C 28.642 37.1458 29.558 37.6831 30.201 37.2415 C 30.6255 36.9533 30.777 36.3094 31.2702 36.166 C 31.5963 36.0702 31.9367 36.2418 32.2346 36.4103 C 33.3731 37.0454 34.4119 37.7054 35.4618 38.4736 C 36.2559 39.0549 37.1714 39.689 38.2078 39.4857 C 39.6211 39.2121 40.3306 37.5546 41.6355 36.9489 C 42.6652 36.4717 43.8635 36.7289 44.9999 36.7779 C 46.1331 36.8292 47.4814 36.5083 47.8947 35.4521 C 48.1785 34.7251 47.9218 33.8582 48.2654 33.1589 C 48.7117 32.2543 49.9469 32.0262 50.5279 31.2005 C 50.7133 30.9372 50.8201 30.6228 50.9777 30.346 C 50.6203 29.9762 50.2597 29.6087 49.9072 29.2318 C 49.8918 29.2255 49.8786 29.2189 49.8633 29.2076 C 49.8265 29.1882 49.7928 29.1593 49.7692 29.1258 C 49.7572 29.1086 49.7478 29.0883 49.7426 29.0687 C 49.7408 29.0627 49.7406 29.0555 49.7393 29.0466 C 49.3248 28.5935 49.047 28.0811 48.596 27.6389 C 47.5092 26.5692 46.3072 25.6157 45.0186 24.8 C 44.5974 24.5324 44.1607 24.2757 43.7071 24.0577 C 43.7121 24.279 43.6903 24.502 43.648 24.715 C 43.5361 25.2762 43.2896 25.8927 43.5802 26.3851 C 43.5918 26.4051 43.6067 26.4264 43.6199 26.4452 C 43.7963 26.6965 44.0838 26.8588 44.2711 27.1048 C 44.2792 27.1163 44.2878 27.1285 44.2958 27.14 C 44.8221 27.8897 44.1634 29.04 43.2641 29.2766 C 42.3524 29.5182 41.4002 29.1103 40.5909 28.624 C 39.8487 28.181 38.9786 27.4392 38.0751 27.421 C 37.7859 27.4163 37.4742 27.5275 37.3209 27.772 C 37.1917 27.9727 37.1825 28.2345 37.0521 28.4335 C 36.8422 28.7507 36.3533 28.8043 36.0443 28.5851 C 35.9683 28.5309 35.9024 28.4648 35.8501 28.3903 C 35.6887 28.1603 35.6382 27.8499 35.7058 27.5703 C 35.7959 27.1992 36.072 26.8527 36.0066 26.4758 C 35.9873 26.3648 35.9425 26.2679 35.881 26.1803 C 35.6926 25.9119 35.347 25.7293 35.0988 25.4906 C 35.019 25.4134 34.9492 25.328 34.8877 25.2404 C 34.6252 24.8664 34.496 24.3987 34.3525 23.9558 C 34.086 23.141 33.7253 22.3556 33.2857 21.6196 C 33.2481 21.5556 33.2088 21.4927 33.167 21.428 C 31.4027 22.8864 28.6958 22.889 26.6241 23.8155 C 26.6014 23.8668 26.5791 23.9167 26.5581 23.9669 C 26.531 24.0311 26.5058 24.1013 26.5266 24.1674 C 26.5325 24.1828 26.5395 24.1962 26.5486 24.2093 C 26.5923 24.2715 26.6749 24.304 26.7431 24.3453 C 26.8132 24.3914 26.872 24.4454 26.9168 24.5093 C 27.0237 24.6615 27.07 24.8599 27.1176 25.0599 C 27.1662 25.2615 27.2158 25.4661 27.3279 25.6258 C 27.3399 25.6429 27.3531 25.6582 27.3662 25.6734 C 27.5162 25.854 27.7572 25.9572 27.89 26.1463 C 27.9066 26.17 27.9211 26.1941 27.9325 26.2191 C 28.0597 26.4804 27.9355 26.7924 27.8072 27.0535 C 27.802 27.067 27.7964 27.0782 27.7898 27.0914 C 27.9846 26.9425 28.2332 26.8633 28.4986 26.7662 C 29.0518 26.5587 29.547 26.2807 30.1355 26.1584 C 30.4358 26.0954 30.7673 26.068 31.0353 26.2183 C 31.0662 26.2345 31.0972 26.2579 31.1179 26.2873 C 31.13 26.3045 31.1385 26.3254 31.138 26.349 L 31.0933 26.4524 C 30.7796 26.8706 30.212 26.9966 29.6907 27.0338 C 29.4888 27.0472 29.2797 27.0523 29.0961 27.1335 C 28.4119 27.433 28.0341 28.16 27.6693 28.7631 C 27.2813 29.4008 26.6647 29.8592 26.0625 30.3015 C 25.6991 30.5688 25.3143 30.8438 24.8671 30.9133 C 25.5006 30.3208 26.1347 29.7254 26.7686 29.1351 C 26.982 28.9327 27.203 28.7202 27.3034 28.442 C 27.3822 28.2217 27.3764 27.9802 27.4161 27.7496 C 27.3022 27.9041 27.1692 28.0402 27.0044 28.1412 C 26.4514 28.4866 25.6701 28.3569 25.1725 28.7759 C 24.8883 29.0133 24.7576 29.3823 24.5738 29.7019 C 24.3372 30.1185 24.0051 30.4738 23.7673 30.8887 C 23.2185 31.8335 23.242 33.0767 23.8201 33.9977 " stroke-width="0.9999999916875338"/>
      <path id="ID0.3595845615491271" fill="#848483" d="M 24.8616 30.916 C 25.3071 30.844 25.6919 30.5689 26.0559 30.3024 C 26.6589 29.8596 27.2763 29.4006 27.6624 28.7618 C 28.0296 28.1607 28.4061 27.4334 29.0903 27.134 C 29.2739 27.0527 29.4816 27.0474 29.6838 27.0326 C 30.2053 26.9976 30.773 26.8716 31.0875 26.4529 L 31.133 26.3488 C 31.1313 26.3256 31.1253 26.3066 31.1121 26.2878 C 31.0931 26.2607 31.0604 26.2385 31.0286 26.2193 C 30.7606 26.069 30.4303 26.098 30.1297 26.1588 C 29.5403 26.2817 29.0479 26.5601 28.4927 26.7666 C 28.2299 26.8655 27.9813 26.9448 27.7831 27.0924 C 27.6746 27.3189 27.5594 27.55 27.4103 27.75 C 27.3706 27.9807 27.3756 28.2227 27.298 28.4446 C 27.198 28.72 26.9754 28.9337 26.7608 29.1344 C 26.1264 29.7276 25.494 30.3218 24.8616 30.916 " stroke-width="0.9999999916875338"/>
      <path id="ID0.5471847211010754" fill="#848483" d="M 49.6869 24.1401 C 50.092 24.4544 50.4999 24.7692 50.9059 25.0866 C 51.2991 25.3909 51.698 25.6998 52.1552 25.8969 C 52.6414 26.1091 53.1849 26.1906 53.6331 26.4723 C 53.9372 26.6619 54.173 26.9265 54.3804 27.2219 C 54.5758 27.5002 54.7443 27.8047 54.9163 28.0932 C 54.9438 28.1411 54.972 28.1848 55.0036 28.2298 C 55.1352 28.4173 55.2921 28.5833 55.448 28.7463 C 55.6051 28.9109 55.7585 29.072 55.8855 29.2529 C 55.9326 29.32 55.9768 29.3916 56.014 29.4656 C 56.0934 29.6152 56.1511 29.7897 56.097 29.9511 C 56.0549 30.0808 55.9446 30.1778 55.8385 30.2633 C 55.6126 30.4463 55.375 30.6143 55.1279 30.767 C 55.0753 30.7966 55.0223 30.8289 54.9914 30.8824 C 54.9301 30.9779 54.968 31.0893 55.0376 31.1884 C 55.0743 31.2408 55.1233 31.2931 55.1676 31.3353 C 55.1692 31.3342 55.1725 31.3319 55.1753 31.3324 C 55.2711 31.2896 55.3616 31.2444 55.4567 31.1972 C 55.6885 31.0748 55.9078 30.933 56.0566 30.7186 C 56.164 30.5687 56.2312 30.3859 56.3681 30.2642 C 56.4687 30.1691 56.6045 30.1153 56.6772 29.9996 C 56.8163 29.7871 56.6751 29.5075 56.5288 29.2974 C 56.5219 29.2875 56.5144 29.2769 56.5075 29.2671 C 56.0743 28.6499 55.5765 28.1478 55.0513 27.6258 C 54.9529 27.5275 54.8702 27.4218 54.7915 27.3097 C 54.7116 27.1959 54.6374 27.0746 54.5649 26.9556 C 54.4893 26.834 54.4174 26.7158 54.3375 26.6021 C 54.1772 26.3737 53.9928 26.1684 53.7297 26.0269 C 53.4711 25.8883 53.1753 25.8357 52.8964 25.7431 C 51.7533 25.3592 50.886 24.2697 49.6869 24.1401 " stroke-width="0.9999999916875338"/>
      <path id="ID0.5583068816922605" fill="#848483" d="M 49.7651 29.1251 C 49.7886 29.1586 49.8232 29.1869 49.8595 29.2091 C 49.8752 29.2176 49.8904 29.2253 49.9042 29.2327 C 50.0679 29.3059 50.2639 29.2856 50.4382 29.2329 C 50.6271 29.1748 50.8037 29.0765 50.9935 29.0215 C 51.3705 28.9145 51.7942 28.9872 52.1118 29.2151 C 52.3746 29.4033 52.5575 29.6256 52.9087 29.6368 L 53.0004 29.6177 C 53.0554 29.5742 53.0298 29.4822 52.9913 29.4237 C 52.9852 29.4133 52.9789 29.4043 52.972 29.3945 C 52.4986 28.7201 51.1953 28.7345 50.4745 28.6894 C 50.2241 28.6721 49.9282 28.677 49.7817 28.8825 C 49.7465 28.9316 49.7252 28.9917 49.733 29.0498 C 49.7332 29.057 49.7334 29.0642 49.7363 29.0719 C 49.744 29.0898 49.7524 29.1071 49.7651 29.1251 " stroke-width="0.9999999916875338"/>
      <path id="ID0.19084409205242991" fill="#949494" d="M 49.3955 22.6268 C 49.4427 22.6939 49.498 22.7553 49.5529 22.8145 C 50.2635 23.557 51.1629 24.2134 52.1789 24.4337 C 52.3808 24.4777 52.5893 24.5084 52.7937 24.5385 C 53.2453 24.6075 53.6912 24.6892 54.0594 24.9475 C 54.3617 25.1605 54.575 25.4714 54.7949 25.7655 C 55.3207 26.4728 55.9728 27.1598 56.8325 27.3542 C 55.985 26.434 55.138 25.5111 54.29 24.5902 C 53.935 24.2028 53.5862 23.6902 53.122 23.4467 C 52.639 23.1919 52.0686 23.0425 51.5551 22.8593 C 50.9804 22.6567 50.5702 22.3508 50.0539 22.04 C 49.8628 21.9262 49.6216 21.8157 49.4329 21.9298 C 49.2869 22.0177 49.2376 22.2172 49.2799 22.3855 C 49.302 22.4726 49.3427 22.5515 49.3955 22.6268 " stroke-width="0.9999999916875338"/>
      <path id="ID0.9071974046528339" fill="#585857" d="M 53.2787 58.1902 C 53.5502 58.0949 53.873 58.0883 54.1663 58.1023 C 55.0007 58.1422 55.7058 57.8622 56.3458 57.3189 C 56.8587 56.8868 57.213 56.2899 57.4558 55.6662 C 57.5689 55.3766 57.6594 55.0529 57.5572 54.7593 C 57.3196 54.9884 57.0593 55.1919 56.8007 55.3978 C 55.629 56.329 54.454 57.2589 53.2787 58.1902 M 52.4309 58.8623 C 52.5131 58.8522 52.5949 58.84 52.68 58.8255 C 52.7101 58.7396 52.7447 58.653 52.7917 58.5773 C 52.6719 58.6711 52.5504 58.7662 52.4309 58.8623 " stroke-width="0.9999999916875338"/>
      <path id="ID0.9793821237981319" fill="#90908F" d="M 47.0544 57.3435 C 47.6124 56.9739 48.1769 56.6155 48.7498 56.2708 C 49.229 55.9821 49.7199 55.6998 50.1027 55.293 C 50.4958 54.8766 50.7526 54.353 50.9782 53.8269 C 51.2013 53.3074 51.3191 52.7164 51.4287 52.1362 C 51.4408 52.0751 51.4521 52.0147 51.4631 51.952 C 51.3213 51.9867 51.1938 52.0506 51.0843 52.1556 C 50.958 52.2821 50.884 52.4464 50.8231 52.6138 C 50.6357 53.1387 50.5395 53.7536 50.0891 54.0832 C 49.8474 54.2627 49.5406 54.3253 49.2517 54.4132 C 48.6309 54.601 48.0394 54.9331 47.6137 55.425 C 47.1903 55.9201 46.9461 56.5852 47.0362 57.2305 C 47.0416 57.2695 47.0466 57.3063 47.0544 57.3435 M 48.2397 59.9545 C 48.2563 59.9783 48.2752 60.0017 48.2971 60.0242 C 48.393 60.1242 48.5251 60.1818 48.6558 60.2306 C 49.1996 60.4378 49.7242 60.6352 50.3215 60.5409 C 50.7935 60.4649 51.2351 60.2673 51.6704 60.0693 C 51.9401 59.9472 52.2185 59.8129 52.3923 59.5748 C 52.5477 59.3558 52.5937 59.0803 52.6822 58.8252 C 52.5988 58.8385 52.5169 58.8508 52.4331 58.8619 C 52.551 58.767 52.6741 58.6708 52.7945 58.5778 C 52.8149 58.539 52.8402 58.5054 52.8668 58.472 C 52.977 58.3348 53.1214 58.2481 53.2818 58.1929 C 54.4557 57.2614 55.6296 56.3299 56.8035 55.3983 C 57.0613 55.1929 57.3224 54.9889 57.5599 54.7598 C 57.5588 54.7582 57.5576 54.7565 57.5585 54.756 C 57.5331 54.6833 57.4964 54.6187 57.451 54.5541 C 57.3602 54.4248 57.2368 54.3134 57.1093 54.2136 C 56.621 53.833 55.9572 53.5574 55.3912 53.8093 C 55.255 53.8694 55.0954 53.9571 54.9672 53.8772 C 54.9419 53.862 54.9198 53.8409 54.9031 53.8172 C 54.8629 53.7599 54.8422 53.6852 54.822 53.6163 C 54.7718 53.456 54.6956 53.3092 54.6002 53.1733 C 54.4095 52.9016 54.1411 52.6794 53.8483 52.5147 C 53.8104 52.4937 53.7728 52.4749 53.734 52.4545 C 53.3103 53.2956 52.592 54.0075 52.039 54.7915 C 51.7214 55.2441 51.4483 55.734 51.0516 56.1175 C 50.6317 56.5271 50.0912 56.7892 49.5502 57.0089 C 48.7792 57.3204 47.984 57.5573 47.1923 57.8027 C 47.4284 58.3932 47.8446 58.927 48.0595 59.5324 C 48.1115 59.678 48.1535 59.8318 48.2397 59.9545 " stroke-width="0.9999999916875338"/>
      <path id="ID0.35271187499165535" fill="#ABABAA" d="M 47.1931 57.8021 C 47.9868 57.5578 48.7818 57.3223 49.551 57.0083 C 50.094 56.7897 50.6325 56.5265 51.0536 56.1186 C 51.4511 55.7345 51.7247 55.2418 52.0407 54.7904 C 52.5928 54.007 53.3111 53.295 53.7356 52.4533 C 53.3262 52.2496 52.8773 52.1322 52.433 52.0213 C 52.1204 51.9451 51.7627 51.881 51.462 51.954 C 51.4499 52.015 51.4378 52.0761 51.4268 52.1387 C 51.3161 52.7173 51.1999 53.3072 50.9772 53.8288 C 50.7515 54.355 50.4936 54.8769 50.1005 55.2934 C 49.7177 55.7001 49.2271 55.9846 48.748 56.2733 C 48.1747 56.6158 47.6093 56.9748 47.0514 57.3444 C 47.0851 57.5004 47.1329 57.6538 47.1931 57.8021 " stroke-width="0.9999999916875338"/>
      <path id="ID0.08570561464875937" fill="#6D6D6C" d="M 60.6485 34.6598 C 60.6387 34.5971 60.6286 34.5358 60.6168 34.472 C 60.6275 34.5341 60.6387 34.5971 60.6485 34.6598 M 59.9288 41.3313 C 61.6983 39.438 61.0452 36.9655 60.6485 34.6598 C 60.9857 36.8459 60.2021 39.1846 59.9288 41.3313 " stroke-width="0.9999999916875338"/>
    </g>
  </g>
</svg>