<?xml version="1.0" encoding="utf-8"?><!-- Generator: Adobe Illustrator 16.0.0, SVG Export Plug-In . SVG Version: 6.00 Build 0)  --><!DOCTYPE svg PUBLIC "-//W3C//DTD SVG 1.1//EN" "http://www.w3.org/Graphics/SVG/1.1/DTD/svg11.dtd"><svg xmlns="http://www.w3.org/2000/svg" xmlns:xlink="http://www.w3.org/1999/xlink" version="1.1" id="Calque_1" x="0px" y="0px" width="35.08144989013672" height="45.159002685546874" viewBox="0.9580792665481568 1.0019882202148438 35.08144989013672 45.159002685546874" enable-background="new 0 0 37 47.167" xml:space="preserve">
<g id="singe_3">
	<g>
		<g>
			<path fill="#8D5E1B" d="M20.751,44.75c-0.08,0-0.158-0.006-0.228-0.019c-0.36-0.058-0.657-0.308-0.847-0.504     c-0.096-0.104-0.211-0.22-0.336-0.306c-0.055-0.037-0.104-0.075-0.149-0.112c-0.058-0.047-0.088-0.072-0.123-0.086l-0.047-0.021     c-0.13-0.059-0.312-0.137-0.458-0.301c-0.16-0.176-0.244-0.41-0.236-0.666c0.004-0.139,0.035-0.275,0.092-0.4     c0.113-0.256,0.328-0.477,0.619-0.635c0.041-0.021,0.082-0.045,0.127-0.062c0.106-0.68,0.11-1.947,0.01-3.066     c-0.383,0.055-0.781,0.084-1.234,0.117c-0.238,0.018-0.477,0.023-0.713,0.023c-1.412,0-2.775-0.312-3.941-0.896     c-1.07-0.539-1.98-1.254-2.859-1.947c-0.273-0.215-0.535-0.422-0.799-0.621c0.125,0.391,0.176,0.816,0.137,1.27     c-0.135,1.502-1.471,2.795-3.043,2.943c-0.109,0.012-0.219,0.018-0.328,0.018c-1.236,0-2.49-0.658-3.27-1.719     c-0.619-0.84-0.869-1.857-0.707-2.867c0.176-1.092,0.826-2.104,1.785-2.783c0.727-0.516,1.525-0.773,2.381-0.773     c0.496,0,1.012,0.088,1.543,0.266c-0.021-0.031-0.039-0.062-0.057-0.096c-0.189-0.375-0.154-0.777,0.094-1.051     c0.154-0.172,0.348-0.252,0.488-0.312l0.205-0.092c0.205-0.094,0.436-0.197,0.674-0.277l0.012-0.006     c0.16-0.076,0.316-0.115,0.457-0.148c0.221-0.057,0.471-0.117,0.744-0.117c0.006,0,0.014,0,0.02,0l0.527-0.414     c0.758-0.6,1.533-1.213,2.354-1.781c0.82-0.568,1.676-1.121,2.555-1.656c-1.15-0.182-2.203-0.488-3.145-0.916     c-1.736-0.793-3.176-2.166-3.949-3.768c-0.666-1.374-0.63-2.586-0.466-3.611c-0.012-0.014-0.021-0.026-0.033-0.041     c-0.219-0.104-0.416-0.231-0.586-0.379c-0.811-0.709-1.359-1.828-1.398-2.856c-0.039-0.966,0.211-1.841,0.432-2.614     c0.348-1.214,0.887-2,1.646-2.402c0.406-0.217,0.879-0.32,1.441-0.32c0.201,0,0.414,0.013,0.648,0.041     c0.236-0.463,0.498-0.865,0.773-1.198c0.625-0.751,1.463-1.397,2.562-1.978c1.084-0.574,2.111-0.967,3.127-1.201     c0.002-0.049,0.008-0.098,0.014-0.146c0.039-0.271,0.148-0.511,0.316-0.688c0.211-0.221,0.51-0.344,0.842-0.344     c0.182,0,0.363,0.039,0.525,0.11c0.033,0.015,0.064,0.028,0.098,0.046c0.016-0.041,0.031-0.082,0.053-0.121     c0.273-0.535,0.688-0.841,1.143-0.841c0.506,0.013,0.922,0.375,1.121,0.942c0.146-0.062,0.297-0.104,0.432-0.137     c0.072-0.02,0.162-0.039,0.264-0.039c0.127,0,0.242,0.03,0.348,0.092c0.168,0.097,0.25,0.25,0.279,0.301     c0.178,0.324,0.229,0.714,0.146,1.104c0.06,0.018,0.116,0.034,0.181,0.053c1.067,0.32,2.271,0.773,3.067,1.715     c0.812,0.957,1.383,2.006,1.692,3.117C27.891,9.712,28,9.858,28.1,10.016c0.396,0.627,0.717,1.586,0.896,2.7     c0.317,1.96,0.057,4.11-0.103,5.099c0.137,0.233,0.272,0.467,0.397,0.707c0.512,0.457,0.887,0.979,1.112,1.549     c0.113-0.041,0.238-0.062,0.373-0.062c0.545,0.008,0.787,0.354,0.896,0.729c0.002,0,0.002-0.002,0.002-0.002     c0.274-0.293,0.652-0.692,1.146-0.692c0.22,0,0.425,0.082,0.599,0.235c0.312,0.281,0.429,0.668,0.297,1.013     c-0.006,0.013-0.012,0.024-0.019,0.038c0.296,0.054,0.527,0.236,0.656,0.518c0.16,0.35,0.131,0.715-0.072,0.977     c0.228,0.179,0.3,0.422,0.32,0.559c0.071,0.417-0.082,0.792-0.399,0.977c-0.195,0.117-0.404,0.137-0.558,0.15l-0.229,0.027     c-0.224,0.025-0.474,0.061-0.726,0.062l-0.01,0.002c-0.082,0.014-0.164,0.02-0.248,0.02c-0.078,0-0.156-0.004-0.234-0.012     c-0.271-0.015-0.571-0.031-0.877-0.154c-0.012-0.006-0.022-0.012-0.034-0.018c-0.162,0.107-0.347,0.238-0.541,0.379     c-0.812,0.582-1.82,1.301-3.052,1.709c-0.601,0.199-1.521,0.301-2.739,0.301c-0.144,0-0.281,0-0.42-0.006     c0.143,0.635,0.223,1.287,0.282,1.912c0.097,0.344,0.146,0.688,0.195,1.02c0.096,0.637,0.223,1.264,0.346,1.869     c0.142,0.697,0.285,1.418,0.386,2.142c0.133,1.075-0.05,1.909-0.537,2.481c-0.162,0.314-0.384,0.553-0.649,0.701     c0.108,0.641,0.168,1.342,0.174,2.139c0.006,0.691-0.024,1.316-0.097,1.908c0.42,0.117,0.793,0.281,1.074,0.418     c0.187,0.088,0.748,0.354,0.933,0.93c0.108,0.352,0.006,0.725-0.259,0.932c-0.203,0.156-0.457,0.189-0.635,0.189     c-0.074,0-0.146-0.006-0.211-0.018c-0.029-0.004-0.06-0.01-0.087-0.018c-0.049,0.078-0.106,0.146-0.182,0.203     c-0.203,0.158-0.457,0.189-0.636,0.189c-0.073,0-0.146-0.006-0.209-0.014c-0.092-0.016-0.176-0.039-0.252-0.072     c-0.043,0.059-0.094,0.109-0.151,0.154c-0.138,0.104-0.312,0.164-0.519,0.178c-0.155,0.061-0.312,0.074-0.429,0.074     c-0.069,0-0.139-0.008-0.198-0.016c-0.028-0.004-0.058-0.01-0.086-0.02c-0.048,0.078-0.106,0.146-0.181,0.205     c-0.203,0.156-0.457,0.189-0.635,0.189c-0.074,0-0.146-0.006-0.209-0.016c-0.093-0.014-0.179-0.039-0.255-0.07     c-0.043,0.059-0.094,0.109-0.149,0.152C21.171,44.72,20.923,44.75,20.751,44.75z M7.282,35.929     c0.047,0.207,0.037,0.418-0.021,0.615c0.047-0.078,0.074-0.162,0.082-0.246C7.351,36.21,7.353,36.048,7.282,35.929z      M11.427,33.57c0.168,0.129,0.336,0.258,0.502,0.389c0.824,0.646,1.598,1.258,2.449,1.688c0.83,0.418,1.814,0.641,2.85,0.641     c0.172,0,0.348-0.008,0.523-0.02c0.014,0,0.027-0.002,0.043-0.002c-0.254-0.607-0.352-1.324-0.428-1.893     c-0.021-0.156-0.041-0.305-0.062-0.432c-0.316-1.898-0.451-3.357-0.436-4.73c0.002-0.229,0.006-0.445,0.014-0.658     c-0.566,0.359-1.109,0.721-1.623,1.074c-0.75,0.521-1.492,1.107-2.211,1.68l-0.074,0.057c0.105,0.225,0.184,0.455,0.254,0.67     l0.072,0.201c0.055,0.145,0.129,0.338,0.109,0.568c-0.027,0.365-0.297,0.67-0.701,0.787c-0.092,0.027-0.184,0.041-0.271,0.041     c-0.371,0-0.617-0.207-0.787-0.467C11.587,33.287,11.515,33.429,11.427,33.57z" stroke-width="1"/>
			<path d="M20.243,2.884c0.004,0,0.01,0,0.014,0c0.394,0.01,0.638,0.436,0.724,0.817c0.056,0.226,0.078,0.454,0.078,0.687     c0,0.004-0.002,0.01,0,0.014c0-0.004,0-0.01,0-0.014c0.004-0.197,0.129-0.377,0.291-0.49c0.166-0.117,0.362-0.174,0.562-0.224     c0.049-0.012,0.101-0.024,0.147-0.024c0.039,0,0.078,0.008,0.112,0.029c0.047,0.026,0.078,0.073,0.104,0.121     c0.205,0.371,0.146,0.822-0.055,1.201c0.221,0.055,0.438,0.115,0.654,0.18c1.033,0.309,2.145,0.738,2.85,1.569     c0.758,0.894,1.326,1.905,1.627,3.042c0.123,0.135,0.24,0.289,0.354,0.469c0.385,0.605,0.674,1.545,0.832,2.526     c0.265,1.625,0.129,3.599-0.129,5.114c0.17,0.289,0.342,0.576,0.49,0.873c0.008,0.012,0.012,0.021,0.018,0.031     c0.715,0.612,1.18,1.395,1.266,2.279c0.049,0.484-0.025,0.958-0.193,1.412c0.121-0.082,0.242-0.164,0.361-0.234l0.084,0.141     c-0.127-0.371-0.119-0.822-0.132-1.209c-0.007-0.156-0.032-0.324,0.024-0.475c0.07-0.184,0.271-0.25,0.455-0.25     c0.004,0,0.008,0,0.01,0c0.604,0.008,0.49,0.896,0.52,1.283c0.002,0.002,0.002,0.005,0.002,0.008     c0.145-0.191,0.393-0.404,0.547-0.549c0.225-0.21,0.598-0.71,0.967-0.71c0.096,0,0.191,0.035,0.285,0.118     c0.139,0.125,0.244,0.312,0.172,0.5c-0.057,0.15-0.193,0.254-0.303,0.365c-0.227,0.23-0.475,0.5-0.748,0.693     c0.115-0.039,0.229-0.074,0.316-0.104c0.236-0.082,0.641-0.301,0.963-0.301c0.18,0,0.334,0.066,0.424,0.262     c0.078,0.171,0.1,0.384-0.043,0.527c-0.113,0.113-0.279,0.155-0.426,0.213c-0.367,0.148-0.795,0.347-1.195,0.371l0,0l0,0     c0,0,0,0.002,0.002,0.004c0.186-0.015,0.381-0.002,0.525-0.014c0.184-0.014,0.471-0.076,0.729-0.076     c0.299,0,0.562,0.08,0.615,0.394c0.031,0.185-0.004,0.396-0.176,0.498c-0.139,0.081-0.311,0.079-0.465,0.099     c-0.275,0.033-0.582,0.083-0.875,0.083c-0.006,0-0.01,0-0.016,0c0,0.002,0.002,0.004,0.002,0.007     c-0.061,0.008-0.119,0.01-0.18,0.01c-0.068,0-0.141-0.004-0.209-0.008c-0.246-0.015-0.5-0.029-0.729-0.123     c-0.082-0.033-0.156-0.078-0.229-0.127c-0.23,0.143-0.506,0.336-0.795,0.543c-0.785,0.562-1.762,1.258-2.926,1.646     c-0.637,0.213-1.654,0.275-2.594,0.275c-0.363,0-0.715-0.01-1.029-0.023c0.242,0.787,0.35,1.635,0.434,2.482     c0.098,0.332,0.146,0.684,0.197,1.021c0.201,1.334,0.545,2.646,0.729,3.979c0.092,0.736,0.055,1.586-0.469,2.16     c-0.115,0.248-0.277,0.445-0.506,0.564c-0.094,0.049-0.188,0.084-0.283,0.125c0.021,0.096,0.041,0.189,0.061,0.281     c0.125,0.703,0.174,1.418,0.18,2.133c0.006,0.654-0.021,1.312-0.104,1.961c-0.015,0.098-0.021,0.197-0.033,0.299     c0.099,0.021,0.194,0.043,0.291,0.066c0.381,0.098,0.737,0.246,1.092,0.414c0.287,0.137,0.587,0.332,0.688,0.65     c0.047,0.146,0.021,0.328-0.1,0.424c-0.092,0.066-0.227,0.092-0.352,0.092c-0.049,0-0.102-0.004-0.145-0.01     c-0.188-0.029-0.324-0.146-0.461-0.268c-0.047-0.043-0.092-0.084-0.139-0.123c-0.055-0.045-0.109-0.088-0.17-0.141     c0.1,0.117,0.203,0.238,0.25,0.387c0.047,0.147,0.021,0.328-0.102,0.424c-0.088,0.066-0.225,0.094-0.35,0.094     c-0.051,0-0.098-0.004-0.141-0.012c-0.195-0.027-0.344-0.154-0.479-0.281c-0.098-0.086-0.199-0.162-0.309-0.229     c0.062,0.075,0.105,0.164,0.14,0.262c0.046,0.146,0.021,0.328-0.104,0.422c-0.088,0.064-0.219,0.087-0.34,0.087     c-0.002,0-0.006,0-0.008,0c-0.091,0.051-0.209,0.069-0.317,0.069c-0.046,0-0.093-0.002-0.132-0.008     c-0.188-0.029-0.325-0.146-0.463-0.269c-0.045-0.043-0.092-0.084-0.14-0.123c-0.053-0.045-0.106-0.089-0.17-0.14     c0.103,0.117,0.205,0.238,0.25,0.386c0.049,0.146,0.022,0.329-0.101,0.424c-0.088,0.065-0.225,0.092-0.35,0.092     c-0.052,0-0.099-0.004-0.142-0.012c-0.194-0.026-0.341-0.154-0.479-0.281c-0.095-0.086-0.197-0.159-0.308-0.229     c0.062,0.076,0.108,0.164,0.14,0.264c0.045,0.146,0.021,0.328-0.104,0.422c-0.086,0.062-0.219,0.09-0.338,0.09     c-0.059,0-0.107-0.008-0.152-0.014c-0.219-0.035-0.436-0.209-0.58-0.365c-0.127-0.135-0.26-0.264-0.41-0.367     c-0.123-0.082-0.203-0.18-0.348-0.242c-0.125-0.057-0.258-0.104-0.352-0.207c-0.084-0.092-0.119-0.215-0.115-0.34     c0.002-0.078,0.02-0.156,0.051-0.227c0.082-0.186,0.242-0.32,0.418-0.418c0.104-0.057,0.203-0.096,0.309-0.125     c0.197-0.766,0.186-2.615,0.018-3.955c-0.535,0.111-1.09,0.152-1.678,0.195c-0.229,0.018-0.455,0.023-0.682,0.023     c-1.35,0-2.625-0.291-3.732-0.85c-1.027-0.518-1.92-1.219-2.781-1.896c-0.383-0.303-0.766-0.604-1.16-0.887     c-1.096-0.791-2.061-1.322-2.949-1.322c-0.438,0-0.855,0.127-1.266,0.416c-0.531,0.377-0.889,0.92-0.98,1.494     c-0.078,0.492,0.041,0.975,0.35,1.391c0.42,0.57,1.064,0.916,1.684,0.916c0.049,0,0.098-0.002,0.146-0.006     c0.639-0.061,1.221-0.594,1.27-1.162c0.037-0.418-0.117-0.938-0.678-1.021c-0.041-0.006-0.082-0.008-0.119-0.008     c-0.176,0-0.305,0.062-0.352,0.131c-0.068,0.104,0.043,0.299,0.076,0.354c0.221,0.354,0.111,0.813-0.238,1.033     c-0.121,0.077-0.262,0.112-0.396,0.112c-0.25,0-0.494-0.125-0.637-0.354c-0.414-0.662-0.436-1.396-0.062-1.971     C5.73,34.093,6.326,33.8,6.996,33.8c0.111,0,0.227,0.008,0.342,0.023c1.252,0.186,2.074,1.293,1.955,2.637     c-0.113,1.285-1.266,2.395-2.623,2.521C6.581,39,6.485,39.003,6.392,39.003c-1.086,0-2.197-0.578-2.895-1.525     c-0.545-0.738-0.766-1.633-0.623-2.52C3.03,33.99,3.61,33.087,4.47,32.48c0.705-0.5,1.424-0.689,2.111-0.689     c0.906,0,1.764,0.33,2.475,0.715c-0.092-0.133-0.141-0.293-0.061-0.443c0.072-0.145,0.219-0.23,0.34-0.33     c0.309-0.252,0.656-0.564,1.033-0.709c0,0,0,0,0.002,0c-0.002,0-0.002,0-0.006-0.002c-0.172,0.068-0.361,0.111-0.5,0.168     c-0.238,0.098-0.646,0.346-0.977,0.346c-0.166,0-0.311-0.064-0.404-0.246c-0.086-0.166-0.113-0.379,0.021-0.527     c0.107-0.119,0.271-0.168,0.414-0.23c0.258-0.115,0.541-0.256,0.826-0.342c0-0.002-0.002-0.004-0.006-0.006     c0.117-0.057,0.244-0.088,0.369-0.119c0.207-0.053,0.418-0.104,0.631-0.104c0.035,0,0.068,0,0.105,0.004     c0.02,0.002,0.037,0.01,0.057,0.012c0.227-0.176,0.453-0.352,0.678-0.529c0.748-0.592,1.521-1.203,2.33-1.766     c1.205-0.836,2.459-1.619,3.732-2.346c-1.527-0.104-3.045-0.418-4.395-1.031c-1.578-0.72-2.965-1.974-3.727-3.546     c-0.617-1.276-0.598-2.403-0.379-3.594c-0.068-0.041-0.137-0.087-0.18-0.155c-0.01-0.018-0.01-0.039-0.02-0.059     c-0.227-0.092-0.438-0.213-0.617-0.37c-0.693-0.604-1.203-1.599-1.24-2.522c-0.033-0.863,0.18-1.646,0.414-2.469     c0.24-0.84,0.646-1.711,1.418-2.12C9.289,9.269,9.711,9.2,10.139,9.2c0.246,0,0.492,0.023,0.734,0.056     c0.062,0.009,0.121,0.021,0.182,0.028c0.24-0.516,0.527-1.004,0.865-1.409c0.654-0.788,1.512-1.386,2.418-1.862     c1.068-0.564,2.215-1.019,3.42-1.242c-0.041-0.146-0.057-0.299-0.035-0.451c0.023-0.158,0.084-0.316,0.195-0.434     c0.129-0.135,0.314-0.199,0.504-0.199c0.115,0,0.234,0.024,0.34,0.071c0.279,0.122,0.484,0.369,0.628,0.638     c0.026-0.279-0.009-0.678,0.121-0.928C19.665,3.179,19.917,2.884,20.243,2.884 M12.435,33.164c-0.463,0-0.604-0.764-0.734-1.094     c0-0.002-0.002-0.004-0.002-0.006c-0.082,0.227-0.258,0.502-0.359,0.688c-0.133,0.232-0.311,0.703-0.586,0.896     c0.299,0.225,0.596,0.445,0.891,0.682c0.84,0.658,1.633,1.287,2.525,1.734c0.904,0.455,1.951,0.688,3.061,0.688     c0.184,0,0.367-0.008,0.555-0.021c0.289-0.021,0.545-0.039,0.785-0.062c-0.605-0.692-0.68-2.043-0.807-2.803     c-0.256-1.535-0.447-3.091-0.43-4.648c0.006-0.495,0.023-1.01,0.072-1.522c-0.008,0-0.014,0-0.02,0.003     c-0.812,0.495-1.613,1.012-2.393,1.551c-0.762,0.528-1.51,1.121-2.234,1.694c-0.129,0.101-0.256,0.199-0.383,0.3     c0.211,0.312,0.334,0.719,0.453,1.065c0.051,0.146,0.129,0.299,0.115,0.459c-0.016,0.2-0.189,0.325-0.369,0.379     C12.524,33.156,12.478,33.164,12.435,33.164 M10.038,33.121c0.037-0.104,0.098-0.201,0.146-0.299     c0.146-0.285,0.303-0.617,0.51-0.885c-0.1,0.072-0.197,0.139-0.273,0.195c-0.232,0.174-0.625,0.59-0.977,0.602     C9.663,32.865,9.86,32.998,10.038,33.121 M21.523,41.496c0.146-0.062,0.302-0.113,0.44-0.154     c0.088-0.023,0.177-0.035,0.265-0.055c0.207-0.812,0.179-2.805-0.017-4.146c-0.147,0.021-0.295,0.039-0.444,0.053     c-0.14,0.015-0.274,0.021-0.414,0.031c-0.002,0.002-0.004,0.002-0.006,0.004c0.03,0.136,0.057,0.271,0.082,0.401     c0.127,0.703,0.174,1.42,0.18,2.134C21.616,40.341,21.587,40.921,21.523,41.496 M20.243,1.955L20.243,1.955L20.243,1.955     c-0.558,0-1.062,0.307-1.414,0.852c-0.133-0.031-0.268-0.045-0.402-0.045c-0.461,0-0.879,0.172-1.178,0.488     c-0.201,0.21-0.342,0.479-0.41,0.779c-0.953,0.246-1.918,0.631-2.928,1.164c-1.154,0.609-2.037,1.293-2.701,2.093     c-0.24,0.288-0.469,0.625-0.682,1.003c-0.133-0.01-0.26-0.014-0.383-0.014c-0.643,0-1.186,0.123-1.66,0.375     c-0.879,0.465-1.492,1.344-1.877,2.687c-0.219,0.765-0.49,1.718-0.449,2.761c0.045,1.147,0.656,2.399,1.559,3.186     c0.127,0.113,0.268,0.215,0.42,0.306c-0.133,1.031-0.104,2.229,0.551,3.578c0.822,1.698,2.346,3.151,4.178,3.988     c0.648,0.295,1.35,0.534,2.094,0.719c-0.537,0.342-1.064,0.692-1.576,1.047c-0.832,0.578-1.615,1.197-2.373,1.795     c-0.139,0.111-0.275,0.218-0.41,0.322c-0.27,0.019-0.512,0.076-0.711,0.127c-0.148,0.037-0.334,0.082-0.531,0.174     c-0.252,0.086-0.482,0.193-0.691,0.289L8.54,29.685L8.476,29.71c-0.16,0.064-0.43,0.18-0.656,0.428     c-0.205,0.229-0.318,0.512-0.334,0.812c-0.305-0.059-0.604-0.084-0.898-0.084c-0.951,0-1.844,0.289-2.648,0.857     c-1.061,0.752-1.781,1.877-1.977,3.09c-0.184,1.137,0.098,2.275,0.791,3.221c0.867,1.176,2.264,1.904,3.645,1.904     c0.125,0,0.25-0.006,0.373-0.02c1.816-0.174,3.307-1.621,3.461-3.365c0.008-0.082,0.012-0.162,0.014-0.242     c0.865,0.684,1.768,1.379,2.836,1.916c1.23,0.621,2.668,0.947,4.15,0.947c0.246,0,0.498-0.01,0.748-0.025     c0.273-0.021,0.529-0.039,0.775-0.062c0.053,0.861,0.043,1.707-0.014,2.248c-0.344,0.207-0.6,0.486-0.742,0.812     c-0.08,0.183-0.125,0.381-0.131,0.578c-0.012,0.375,0.113,0.728,0.355,0.989c0.215,0.238,0.467,0.349,0.617,0.412l0.023,0.011     c0.012,0.01,0.025,0.021,0.037,0.03c0.057,0.047,0.115,0.095,0.184,0.14c0.086,0.06,0.179,0.151,0.258,0.235     c0.236,0.252,0.619,0.567,1.111,0.646c0.098,0.018,0.196,0.023,0.299,0.023c0.351,0,0.662-0.096,0.899-0.277     c0.002,0,0.002,0,0.005-0.002c0.018,0.004,0.032,0.006,0.051,0.01c0.092,0.014,0.187,0.021,0.278,0.021     c0.356,0,0.677-0.103,0.918-0.289c0.031-0.022,0.062-0.051,0.093-0.077c0.028,0.002,0.06,0.002,0.09,0.002     c0.144,0,0.334-0.017,0.531-0.082c0.271-0.03,0.506-0.121,0.692-0.265c0.002,0,0.002-0.002,0.004-0.002     c0.019,0.002,0.035,0.006,0.054,0.008c0.09,0.015,0.184,0.021,0.276,0.021c0.358,0,0.678-0.1,0.918-0.286     c0.03-0.025,0.062-0.054,0.092-0.078c0.033,0.002,0.066,0.002,0.103,0.002c0.356,0,0.677-0.103,0.918-0.289     c0.418-0.323,0.587-0.901,0.416-1.438c-0.241-0.771-0.944-1.104-1.176-1.211c-0.213-0.103-0.476-0.22-0.771-0.326     c0.045-0.495,0.062-1.021,0.061-1.584c-0.006-0.7-0.049-1.334-0.133-1.916c0.211-0.172,0.391-0.394,0.533-0.657     c0.551-0.677,0.758-1.613,0.609-2.793c-0.104-0.75-0.25-1.478-0.395-2.183c-0.119-0.603-0.244-1.224-0.338-1.826l-0.006-0.028     c-0.047-0.315-0.1-0.672-0.193-1.024c-0.043-0.444-0.1-0.901-0.178-1.358c1.197-0.009,2.119-0.117,2.74-0.324     c1.297-0.433,2.336-1.172,3.17-1.769c0.121-0.086,0.234-0.168,0.342-0.241c0.303,0.088,0.584,0.104,0.82,0.118     c0.088,0.005,0.174,0.009,0.262,0.009c0.107,0,0.205-0.007,0.303-0.021c0.271-0.009,0.521-0.039,0.742-0.067l0.139-0.02     l0.068-0.008c0.176-0.017,0.465-0.041,0.752-0.211c0.486-0.287,0.729-0.846,0.623-1.457c-0.029-0.187-0.102-0.376-0.219-0.548     c0.123-0.338,0.104-0.729-0.064-1.102c-0.121-0.267-0.312-0.477-0.547-0.615c0.016-0.4-0.162-0.801-0.504-1.105     c-0.262-0.232-0.572-0.355-0.906-0.355c-0.41,0-0.752,0.188-1.021,0.404c-0.279-0.33-0.652-0.431-0.992-0.436h-0.008h-0.02     c-0.035,0-0.068,0.001-0.104,0.003c-0.242-0.476-0.584-0.918-1.013-1.313c-0.094-0.176-0.188-0.345-0.287-0.51     c0.162-1.074,0.39-3.16,0.076-5.08c-0.11-0.682-0.383-1.959-0.965-2.877c-0.095-0.146-0.193-0.285-0.302-0.417     c-0.334-1.14-0.926-2.214-1.76-3.196c-0.832-0.979-2.065-1.479-3.103-1.801c0.006-0.353-0.076-0.695-0.242-0.998     c-0.043-0.078-0.174-0.313-0.45-0.476c-0.173-0.101-0.373-0.154-0.58-0.154c-0.149,0-0.279,0.028-0.379,0.052     c-0.021,0.006-0.046,0.012-0.068,0.019c-0.305-0.511-0.78-0.822-1.33-0.836h-0.01h-0.026V1.955L20.243,1.955z M13.538,31.507     c0.648-0.514,1.316-1.035,1.986-1.5c0.283-0.195,0.576-0.396,0.877-0.592c0,1.338,0.139,2.77,0.443,4.602     c0.021,0.125,0.041,0.266,0.062,0.42c0.055,0.414,0.121,0.898,0.25,1.381c-0.938-0.01-1.824-0.213-2.57-0.59     c-0.611-0.309-1.195-0.725-1.791-1.184c0.014-0.004,0.029-0.008,0.043-0.012c0.594-0.178,0.99-0.637,1.035-1.197     c0.025-0.334-0.078-0.607-0.141-0.771L13.71,32l-0.041-0.121C13.628,31.763,13.585,31.638,13.538,31.507L13.538,31.507z" stroke-width="1" fill="undefined"/>
		</g>
		<g>
			<path fill="none" stroke="#704413" stroke-width="1.5" stroke-linecap="round" stroke-miterlimit="10" d="M21.361,36.216     c-1.038,1.092-2.057,1.156-3.526,1.262c-1.391,0.098-2.797-0.141-4.004-0.748c-1.404-0.707-2.564-1.805-3.84-2.725     c-1.541-1.111-3.367-2.127-5.088-0.908c-1.305,0.924-1.777,2.617-0.803,3.939c0.576,0.779,1.539,1.303,2.504,1.211     c0.967-0.092,1.861-0.877,1.949-1.842c0.076-0.885-0.404-1.695-1.318-1.828c-0.988-0.146-1.736,0.654-1.137,1.617"/>
			<g>
				<g>
					<path fill="#D28F5B" d="M20.936,42.039c0.03-0.1,0.09-0.188,0.16-0.264c0.221-0.229,0.573-0.346,0.87-0.434       c0.33-0.098,0.677-0.139,1.021-0.137c0.484,0,0.97,0.086,1.438,0.207c0.382,0.098,0.738,0.246,1.093,0.412       c0.287,0.137,0.586,0.332,0.688,0.65c0.047,0.146,0.021,0.33-0.102,0.424c-0.125,0.098-0.344,0.104-0.49,0.082       c-0.188-0.027-0.324-0.146-0.463-0.27c-0.045-0.041-0.092-0.082-0.139-0.121c-0.053-0.045-0.107-0.088-0.17-0.139       c0.102,0.117,0.205,0.238,0.25,0.385c0.049,0.146,0.021,0.328-0.1,0.426c-0.125,0.096-0.342,0.104-0.488,0.08       c-0.195-0.027-0.342-0.154-0.48-0.281c-0.096-0.086-0.197-0.16-0.309-0.229c0.062,0.078,0.109,0.166,0.141,0.262       c0.045,0.148,0.02,0.328-0.104,0.423c-0.125,0.094-0.344,0.101-0.488,0.075c-0.219-0.034-0.436-0.207-0.58-0.364       c-0.156-0.166-0.328-0.338-0.535-0.44c-0.174-0.084-0.359-0.136-0.549-0.168c-0.178-0.033-0.326-0.022-0.492-0.099       c-0.098-0.043-0.152-0.095-0.182-0.201C20.896,42.226,20.902,42.128,20.936,42.039z" stroke-width="1"/>
				</g>
				<g>
					<path fill="#704413" d="M24.124,41.408c-0.004,0.041-0.013,0.082-0.019,0.121c-0.021,0.133-0.062,0.289-0.207,0.332       c-0.069,0.021-0.174-0.006-0.229-0.053c-0.09-0.074-0.119-0.168-0.147-0.275c-0.041,0.076-0.062,0.164-0.117,0.234       c-0.094,0.119-0.274,0.152-0.409,0.084c-0.138-0.068-0.22-0.227-0.205-0.379c-0.031,0.084-0.062,0.168-0.121,0.234       c-0.104,0.117-0.315,0.125-0.42-0.002c-0.039-0.047-0.058-0.105-0.062-0.168c0.008-0.057,0.01-0.104,0.026-0.164       c0.324-1.062,0.146-4.777-0.319-5.438l1.623-0.611c0.332,0.471,0.478,1.068,0.575,1.629c0.128,0.703,0.175,1.418,0.181,2.131       c0.006,0.652-0.021,1.312-0.104,1.961C24.146,41.164,24.139,41.287,24.124,41.408z" stroke-width="1"/>
				</g>
			</g>
			<g>
				<path fill="#704413" d="M24.573,30.734c-0.062-0.373-0.099-0.75-0.136-1.125c-0.117-1.24-0.211-2.529-0.638-3.656      c-0.704-1.865-2.266-2.99-3.413-2.877c-0.031,0.004-0.062,0.008-0.097,0.013c-1.011,0.159-1.781,1.101-2.209,1.96      c-0.627,1.26-0.736,2.783-0.752,4.166c-0.018,1.561,0.176,3.113,0.432,4.648c0.158,0.951,0.232,2.84,1.381,3.188      c0.879,0.266,1.744,0.23,2.623,0.145c0.881-0.084,1.736-0.219,2.547-0.646C25.686,35.82,24.854,32.396,24.573,30.734z" stroke-width="1"/>
			</g>
			<path fill="#4E2F06" d="M18.296,27.701c0.189,0.016,0.371-0.004,0.521-0.145c0.088-0.082,0.143-0.203,0.146-0.322     c0.029-0.795-1.031-0.277-1.328-0.104c-0.508,0.297-0.992,0.625-1.48,0.953c0.49-0.193,0.998-0.393,1.529-0.438     C17.88,27.63,18.093,27.685,18.296,27.701z" stroke-width="1"/>
			<g>
				<g>
					<path fill="#704413" d="M27.555,26.082c-1.228,0.406-3.871,0.271-4.644,0.176l0.226-1.854c1.021,0.123,3.125,0.141,3.825-0.094       c0.897-0.3,1.711-0.881,2.431-1.394c0.336-0.24,0.651-0.468,0.957-0.649l0.961,1.604c-0.24,0.144-0.524,0.347-0.832,0.565       C29.693,24.996,28.718,25.691,27.555,26.082z" stroke-width="1"/>
				</g>
				<g>
					<g>
						<path fill="#D28F5B" d="M32.98,21.488c0.106-0.112,0.244-0.217,0.304-0.366c0.069-0.188-0.033-0.375-0.175-0.5        c-0.446-0.399-0.969,0.327-1.252,0.592c-0.205,0.192-0.578,0.509-0.647,0.729c-0.06,0.176,0.115,0.361,0.289,0.422        c0.174,0.062,0.371,0.025,0.535-0.059C32.395,22.123,32.702,21.771,32.98,21.488z" stroke-width="1"/>
					</g>
					<g>
						<path fill="#D28F5B" d="M30.302,21.195c-0.006-0.155-0.032-0.324,0.027-0.475c0.071-0.188,0.276-0.253,0.465-0.25        c0.603,0.01,0.49,0.896,0.519,1.283c0.021,0.281,0.164,0.725-0.017,0.979c-0.106,0.149-0.33,0.188-0.5,0.113        c-0.17-0.072-0.289-0.232-0.354-0.406C30.305,22.062,30.312,21.592,30.302,21.195z" stroke-width="1"/>
					</g>
					<g>
						<path fill="#D28F5B" d="M33.471,22.775c0.146-0.058,0.309-0.1,0.422-0.213c0.146-0.145,0.121-0.356,0.043-0.529        c-0.248-0.545-1.019-0.088-1.383,0.041c-0.267,0.095-0.742,0.211-0.89,0.408c-0.108,0.147-0.039,0.377,0.096,0.502        c0.136,0.127,0.33,0.172,0.515,0.16C32.675,23.123,33.102,22.924,33.471,22.775z" stroke-width="1"/>
					</g>
					<g>
						<path fill="#D28F5B" d="M33.507,24.05c0.154-0.02,0.326-0.017,0.466-0.099c0.174-0.103,0.209-0.313,0.178-0.498        c-0.103-0.593-0.961-0.349-1.348-0.317c-0.281,0.022-0.74-0.052-0.964,0.166c-0.133,0.129-0.137,0.354-0.036,0.51        c0.098,0.158,0.272,0.25,0.454,0.287C32.648,24.181,33.111,24.099,33.507,24.05z" stroke-width="1"/>
					</g>
					<g>
						<path fill="#D28F5B" d="M31.7,22.255c0.295,0.239,0.459,0.602,0.598,0.954c0.119,0.306,0.229,0.614,0.32,0.929        c-0.127,0.02-0.259,0.012-0.388,0.004c-0.248-0.016-0.5-0.031-0.729-0.125c-0.342-0.14-0.601-0.443-0.758-0.779        c-0.097-0.202-0.179-0.412-0.242-0.627c-0.088-0.284-0.188-0.576-0.101-0.873c0.035-0.111,0.111-0.229,0.229-0.239        c0.061-0.004,0.115,0.021,0.166,0.044c0.182,0.087,0.348,0.197,0.496,0.33c0.062,0.059,0.104,0.12,0.158,0.186        C31.516,22.138,31.62,22.191,31.7,22.255z" stroke-width="1"/>
					</g>
				</g>
			</g>
			<g>
				<g>
					<path fill="#D28F5B" d="M18.792,42.751c0.002-0.078,0.02-0.154,0.053-0.227c0.08-0.186,0.242-0.32,0.418-0.418       c0.332-0.186,0.688-0.225,1.062-0.221c0.482,0,0.967,0.086,1.438,0.203c0.383,0.1,0.736,0.246,1.092,0.414       c0.289,0.139,0.586,0.332,0.688,0.65c0.047,0.148,0.021,0.328-0.104,0.424s-0.342,0.104-0.486,0.082       c-0.188-0.027-0.326-0.146-0.463-0.268c-0.049-0.041-0.094-0.082-0.141-0.123c-0.055-0.043-0.105-0.086-0.17-0.137       c0.104,0.115,0.203,0.238,0.25,0.385s0.021,0.328-0.1,0.424c-0.125,0.096-0.342,0.104-0.49,0.082       c-0.195-0.029-0.34-0.154-0.479-0.281c-0.096-0.088-0.199-0.162-0.31-0.229c0.062,0.076,0.108,0.166,0.14,0.262       c0.047,0.146,0.02,0.33-0.104,0.424c-0.125,0.094-0.342,0.1-0.489,0.074c-0.218-0.033-0.435-0.209-0.58-0.363       c-0.127-0.137-0.261-0.266-0.412-0.369c-0.121-0.082-0.201-0.18-0.346-0.242c-0.123-0.057-0.259-0.104-0.351-0.205       C18.825,43,18.79,42.875,18.792,42.751z" stroke-width="1"/>
				</g>
				<g>
					<path fill="#704413" d="M21.466,42.089c-0.006,0.041-0.01,0.082-0.018,0.123c-0.021,0.129-0.064,0.287-0.205,0.33       c-0.072,0.021-0.177-0.004-0.231-0.051c-0.091-0.076-0.119-0.172-0.15-0.277c-0.038,0.078-0.062,0.166-0.112,0.234       c-0.097,0.117-0.276,0.152-0.412,0.084c-0.14-0.068-0.219-0.229-0.205-0.381c-0.03,0.084-0.062,0.168-0.12,0.234       c-0.105,0.115-0.316,0.125-0.421-0.004c-0.039-0.047-0.055-0.104-0.062-0.168c0.009-0.055,0.011-0.104,0.027-0.164       c0.321-1.061,0.146-4.775-0.32-5.438l1.623-0.611c0.332,0.473,0.478,1.07,0.576,1.629c0.127,0.703,0.174,1.418,0.18,2.133       c0.007,0.652-0.022,1.312-0.104,1.961C21.488,41.845,21.479,41.968,21.466,42.089z" stroke-width="1"/>
				</g>
			</g>
			<g>
				<path fill="#D28F5B" d="M23.721,27.742c-0.375-0.32-0.859-0.512-1.357-0.463c-0.795,0.078-1.521,0.748-1.768,1.883      c-0.171,0.771-0.072,1.609-0.111,2.416c-0.062,1.291-0.541,2.945,0.322,4.02c0.646,0.805,1.596,1.09,2.469,1.004      c0.47-0.045,1.091-0.184,1.445-0.508c0.625-0.57,0.663-1.486,0.567-2.271c-0.183-1.334-0.524-2.646-0.728-3.979      C24.448,29.083,24.348,28.273,23.721,27.742z" stroke-width="1"/>
			</g>
			<g>
				<path fill="#704413" d="M27.65,13.501c0.058-1.207,0.022-2.428-0.267-3.602c-0.291-1.18-0.881-2.228-1.661-3.149      c-0.705-0.832-1.813-1.263-2.851-1.569c-1.396-0.418-2.871-0.662-4.355-0.518s-2.887,0.671-4.176,1.352      c-0.906,0.479-1.764,1.075-2.42,1.863c-0.803,0.969-1.33,2.387-1.611,3.6c-0.301,1.291-0.451,2.614-0.762,3.904      c-0.463,1.932-0.939,3.488-0.027,5.376c0.762,1.573,2.146,2.826,3.727,3.546c2.211,1.01,4.875,1.219,7.287,0.982      c2.41-0.236,4.982-0.959,6.959-2.376c1.496-1.075,2.312-2.347,1.404-4.136c-0.348-0.688-0.816-1.32-1.066-2.051      c-0.35-1.02-0.23-2.127-0.184-3.203C27.65,13.515,27.65,13.508,27.65,13.501z" stroke-width="1"/>
			</g>
			<path fill="#4E2F06" d="M12.481,17.582c0.078-0.309,0.02-0.654,0.027-0.969c0.008-0.375,0.039-0.748,0.082-1.12     c0.082-0.71,0.221-1.415,0.414-2.104c0.152-0.548,0.342-1.086,0.562-1.609c0.119-0.281,0.199-0.631,0.355-0.891     c0.131-0.217,0.49-0.312,0.492-0.603c0.002-0.246-0.287-0.374-0.525-0.438c-0.676-0.181-1.35-0.361-2.023-0.543     c-0.17-0.046-0.344-0.092-0.518-0.082c-0.238,0.016-0.459,0.133-0.646,0.279c-0.318,0.25-0.557,0.581-0.775,0.917     c-0.201,0.304-0.512,0.644-0.645,0.979c-0.287,0.734-0.268,1.676-0.289,2.453c-0.029,0.944-0.057,1.889-0.084,2.834     c-0.004,0.11-0.006,0.229,0.053,0.324c0.043,0.068,0.113,0.115,0.182,0.156c0.695,0.404,1.578,0.346,2.297,0.706     c0.176,0.086,0.35,0.2,0.541,0.188C12.229,18.043,12.421,17.82,12.481,17.582z" stroke-width="1"/>
			<g>
				<g>
					<path fill="#704413" d="M11.149,17.217c0.623-0.028,1.287-0.319,1.846-0.586c2.135-1.021,2.262-4.22,0.885-5.896       c-0.809-0.984-1.756-1.309-3.002-1.477c-0.662-0.09-1.369-0.102-1.959,0.211c-0.773,0.409-1.178,1.28-1.418,2.12       c-0.234,0.821-0.447,1.606-0.414,2.468c0.035,0.926,0.547,1.918,1.24,2.523C9.048,17.21,10.241,17.259,11.149,17.217z" stroke-width="1"/>
				</g>
				<g>
					<path fill="#D28F5B" d="M12.538,11.589c-0.117-0.738-0.939-1.01-1.621-1.102c-0.459-0.062-0.951-0.071-1.361,0.146       c-0.539,0.285-0.82,0.892-0.988,1.476c-0.17,0.599-0.379,1.388-0.229,2.002c0.145,0.588,0.469,1.148,0.938,1.535       c1.039,0.851,2.799,0.275,2.436-1.24c-0.141-0.586-0.615-1.055-1.168-1.291c0.436,0.088,0.904,0.044,1.293-0.174       c0.387-0.217,0.678-0.619,0.711-1.062C12.556,11.777,12.552,11.679,12.538,11.589z" stroke-width="1"/>
				</g>
			</g>
			<g>
				<path fill="#D28F5B" d="M25.968,17.672c0.076,0.726,0.111,1.454,0.08,2.175c-0.032,0.783-0.086,1.494-0.5,1.937      c-0.519,0.552-1.121,0.2-1.711-0.104c-0.84-0.434-1.619-1.225-2.254-2.228c-0.908-1.433-1.896-3.798-1.901-5.798      c-0.002-0.995,0.194-1.982,0.612-2.668c0.597-0.971,1.463-1.502,2.371-1.256c1.44,0.391,2.276,2.254,2.696,4.338      C25.602,15.246,25.841,16.458,25.968,17.672z" stroke-width="1"/>
			</g>
			<g>
				<path fill="#D28F5B" d="M25.083,17.759c0.067,0.727,0.164,1.448,0.301,2.153c0.148,0.765,0.3,1.456,0.64,1.823      c0.431,0.459,0.769,0.017,1.104-0.379c0.478-0.562,0.854-1.469,1.108-2.558c0.361-1.555,0.623-4.044,0.306-6.012      c-0.16-0.981-0.446-1.921-0.832-2.526c-0.545-0.859-1.196-1.242-1.75-0.854c-0.879,0.617-1.123,2.586-1.062,4.705      C24.934,15.31,24.971,16.542,25.083,17.759z" stroke-width="1"/>
			</g>
			<g>
				
					<ellipse transform="matrix(0.9952,-0.0975,0.0975,0.9952,-1.9979,2.4844)" fill="#D28F5B" cx="24.418" cy="21.682" rx="5.793" ry="4.193" stroke-width="1"/>
			</g>
			<g>
				<path fill="#090503" d="M29.557,21.306c-0.027,0.252-0.108,0.506-0.188,0.68c-0.197,0.422-0.531,0.779-0.916,1.033      c-0.595,0.39-1.318,0.59-2.019,0.487c-0.701-0.103-1.36-0.524-1.688-1.149c-0.176-0.326-0.229-0.787,0.062-1.019      c0.34-0.272,0.739-0.032,1.094,0.042c0.438,0.092,0.949,0.018,1.382-0.076c0.403-0.089,0.799-0.227,1.18-0.386      c0.205-0.086,0.752-0.495,0.94-0.289C29.555,20.792,29.583,21.048,29.557,21.306z" stroke-width="1"/>
			</g>
			<g>
				<g>
					<g>
						<path fill="#FFFFFF" d="M20.743,14.882c0.055,1.482,0.998,2.689,2.104,2.699c1.1,0.008,1.943-1.186,1.887-2.668        c-0.059-1.48-1-2.689-2.104-2.7C21.527,12.206,20.684,13.4,20.743,14.882z" stroke-width="1"/>
					</g>
				</g>
				<g>
					<path fill="#090503" d="M23.384,15.31c0.027,0.043,0.062,0.082,0.097,0.108c0.638,0.481,1.205-0.125,1.138-0.868       c-0.058-0.537-0.418-0.943-0.813-0.902C23.253,13.693,22.93,14.564,23.384,15.31z" stroke-width="1"/>
				</g>
			</g>
			<g>
				<path fill="#704413" d="M21.852,5.472c-0.942,0.812-2.47,0.848-3.479,0.141c-0.414-0.289-0.713-0.789-0.643-1.291      c0.021-0.158,0.082-0.315,0.193-0.432c0.209-0.221,0.566-0.252,0.844-0.129c0.279,0.121,0.484,0.369,0.627,0.637      c0.027-0.279-0.006-0.678,0.121-0.928c0.15-0.296,0.406-0.595,0.74-0.587c0.393,0.011,0.637,0.435,0.723,0.817      c0.055,0.229,0.078,0.465,0.078,0.701c-0.004-0.203,0.125-0.389,0.291-0.504c0.166-0.117,0.363-0.174,0.562-0.225      c0.088-0.021,0.184-0.041,0.262,0.004c0.047,0.027,0.078,0.074,0.104,0.122C22.577,4.345,22.32,5.066,21.852,5.472z" stroke-width="1"/>
			</g>
			<g>
				<g>
					<g>
						<path fill="#FFFFFF" d="M25.833,14.384c0.084,1.479,0.767,2.713,1.521,2.756s1.295-1.121,1.207-2.602        c-0.084-1.479-0.767-2.712-1.521-2.758C26.288,11.74,25.745,12.906,25.833,14.384z" stroke-width="1"/>
					</g>
				</g>
				<g>
					<path fill="#090503" d="M27.557,14.9c0.021,0.045,0.043,0.084,0.067,0.113c0.446,0.5,0.817-0.088,0.748-0.83       c-0.056-0.537-0.313-0.953-0.584-0.926C27.415,13.287,27.221,14.144,27.557,14.9z" stroke-width="1"/>
				</g>
			</g>
			<g>
				<g>
					<g>
						<path fill="#704413" d="M26.32,18.562c0.005-0.055-0.004-0.11-0.019-0.164c-0.045-0.184-0.184-0.398-0.331-0.414        c-0.113-0.012-0.209,0.143-0.207,0.291c0.004,0.291,0.25,0.648,0.461,0.48C26.286,18.709,26.314,18.64,26.32,18.562z" stroke-width="1"/>
					</g>
					<g>
						<path fill="#704413" d="M26.876,18.507c-0.017-0.053-0.021-0.109-0.017-0.164c0.011-0.188,0.104-0.427,0.244-0.47        c0.108-0.034,0.233,0.099,0.263,0.247c0.051,0.285-0.119,0.686-0.359,0.561C26.938,18.646,26.896,18.583,26.876,18.507z" stroke-width="1"/>
					</g>
				</g>
				<g>
					<path fill="#704413" d="M26.48,16.749c-0.528,0.052-1.217,0.532-1.155,1.246c0.002,0.03,0.008,0.062,0.021,0.089       c0.012,0.027,0.037,0.048,0.064,0.046c0.043-0.003,0.062-0.063,0.076-0.112c0.141-0.537,0.6-0.744,1.043-0.787       c0.441-0.043,0.934,0.069,1.176,0.568c0.021,0.047,0.053,0.102,0.098,0.096c0.025-0.002,0.047-0.029,0.055-0.058       c0.012-0.028,0.01-0.062,0.004-0.091C27.779,17.036,27.016,16.697,26.48,16.749z" stroke-width="1"/>
				</g>
			</g>
			<path fill="#704413" d="M28.262,26.511c-0.003-0.029-0.007-0.057-0.009-0.084" stroke-width="1"/>
			<path fill="none" stroke="#704413" stroke-width="1.9" stroke-miterlimit="10" d="M18.646,25.859     c-1.441,0.797-2.842,1.666-4.193,2.604c-1.199,0.834-2.316,1.775-3.469,2.656"/>
			<g>
				<g>
					<path fill="#D28F5B" d="M10.185,32.822c-0.07,0.139-0.168,0.279-0.178,0.439c-0.014,0.199,0.141,0.348,0.312,0.426       c0.547,0.25,0.826-0.6,1.018-0.938c0.141-0.246,0.402-0.658,0.404-0.893c0.002-0.186-0.219-0.311-0.402-0.314       c-0.183-0.006-0.361,0.086-0.492,0.215C10.558,32.041,10.366,32.466,10.185,32.822z" stroke-width="1"/>
				</g>
				<g>
					<path fill="#D28F5B" d="M12.831,32.304c0.051,0.145,0.127,0.299,0.113,0.459c-0.014,0.201-0.189,0.324-0.369,0.377       c-0.576,0.17-0.734-0.709-0.875-1.072c-0.104-0.262-0.373-0.643-0.275-0.938c0.059-0.176,0.26-0.277,0.443-0.258       c0.183,0.019,0.344,0.137,0.457,0.283C12.571,31.478,12.7,31.927,12.831,32.304z" stroke-width="1"/>
				</g>
				<g>
					<path fill="#D28F5B" d="M9.335,31.736c-0.119,0.1-0.266,0.188-0.34,0.33c-0.094,0.18-0.01,0.377,0.115,0.518       c0.4,0.447,0.998-0.219,1.309-0.451c0.227-0.168,0.646-0.422,0.729-0.65c0.061-0.176-0.074-0.373-0.24-0.453       c-0.166-0.082-0.365-0.064-0.537,0C9.991,31.167,9.646,31.484,9.335,31.736z" stroke-width="1"/>
				</g>
				<g>
					<path fill="#D28F5B" d="M8.921,30.531c-0.143,0.064-0.307,0.113-0.414,0.23C8.37,30.91,8.4,31.123,8.486,31.291       c0.271,0.535,1.021,0.045,1.381-0.099c0.262-0.104,0.723-0.17,0.869-0.444c0.09-0.162,0.025-0.377-0.115-0.498       c-0.139-0.121-0.336-0.156-0.52-0.14C9.7,30.152,9.284,30.367,8.921,30.531z" stroke-width="1"/>
				</g>
				<g>
					<path fill="#D28F5B" d="M11.181,31.708c-0.354-0.144-0.617-0.438-0.854-0.731c-0.205-0.256-0.402-0.519-0.582-0.793       c0.113-0.056,0.24-0.086,0.365-0.119c0.242-0.06,0.488-0.119,0.734-0.099c0.369,0.031,0.705,0.244,0.957,0.519       c0.152,0.166,0.291,0.343,0.418,0.527c0.168,0.245,0.354,0.493,0.354,0.803c0.002,0.117-0.035,0.254-0.146,0.297       c-0.053,0.021-0.115,0.017-0.172,0.009c-0.197-0.031-0.389-0.088-0.57-0.168c-0.082-0.037-0.137-0.084-0.207-0.132       C11.392,31.763,11.274,31.746,11.181,31.708z" stroke-width="1"/>
				</g>
			</g>
		</g>
	</g>
</g>
</svg>