<?xml version="1.0" encoding="utf-8"?><!-- Generator: Adobe Illustrator 16.0.0, SVG Export Plug-In . SVG Version: 6.00 Build 0)  --><!DOCTYPE svg PUBLIC "-//W3C//DTD SVG 1.0//EN" "http://www.w3.org/TR/2001/REC-SVG-20010904/DTD/svg10.dtd"><svg xmlns="http://www.w3.org/2000/svg" xmlns:xlink="http://www.w3.org/1999/xlink" version="1.0" id="Calque_1" x="0px" y="0px" width="34.80713653564453" height="27.645999908447266" viewBox="0.7115120887756348 1.3029999732971191 34.80713653564453 27.645999908447266" enable-background="new 0 0 36.625 30.25" xml:space="preserve">
<g id="serpent">
	<g>
		<g>
			<g>
				<path fill="#8D5E1B" d="M9.735,18.887c-0.111,0-0.215-0.05-0.287-0.135c-0.07-0.084-0.102-0.199-0.082-0.311      c0.004-0.018,0.018-0.07,0.021-0.078c0.055-0.146,0.197-0.242,0.352-0.242c0.012,0,0.023,0,0.037,0.002      c0.17,0.018,0.307,0.146,0.334,0.312c0.016,0.109-0.018,0.234-0.088,0.318C9.95,18.838,9.844,18.887,9.735,18.887L9.735,18.887z      " stroke-width="1"/>
				<path d="M9.739,18.496c0,0.006-0.002,0.016-0.004,0.016c0,0,0-0.002,0-0.005C9.737,18.504,9.737,18.5,9.739,18.496       M9.739,17.746c-0.297,0-0.57,0.176-0.689,0.452c-0.01,0.024-0.02,0.052-0.027,0.077C9.011,18.305,9.005,18.335,9,18.364      c-0.041,0.22,0.016,0.45,0.158,0.623c0.139,0.17,0.346,0.271,0.566,0.271c0.004,0,0.008,0,0.012,0      c0.215,0,0.42-0.093,0.562-0.254s0.211-0.393,0.186-0.604c-0.043-0.336-0.305-0.602-0.641-0.647      C9.808,17.748,9.774,17.746,9.739,17.746L9.739,17.746z" stroke-width="1" fill="undefined"/>
			</g>
			<g>
				<path fill="#8D5E1B" d="M20.049,28.074c-0.248,0-0.494-0.006-0.739-0.016l-0.185-0.011c-0.803-0.039-1.6-0.125-2.367-0.256      l-0.459-0.095c-0.76-0.146-1.508-0.327-2.223-0.533l-0.17-0.053c-0.738-0.219-1.396-0.442-2.016-0.686      c-0.719-0.283-1.373-0.602-2.002-0.97c-0.18-0.104-0.344-0.201-0.508-0.308C9.153,25,8.921,24.834,8.671,24.641      c-0.361,0.07-0.703,0.112-1.041,0.129c-0.043,0.002-0.084,0.004-0.127,0.004c0,0-0.467-0.006-0.502-0.008      c-0.264-0.015-0.496-0.039-0.713-0.08c-0.061-0.008-0.191-0.035-0.326-0.067c-0.127-0.028-0.252-0.062-0.359-0.101      c-0.178-0.053-0.377-0.129-0.617-0.231c-0.01-0.004-0.039-0.021-0.049-0.024c-0.596-0.271-1.145-0.646-1.633-1.117      c-0.15-0.149-0.271-0.271-0.383-0.397c-0.27-0.313-0.508-0.666-0.709-1.049l-0.031-0.06c-0.041-0.078-0.08-0.156-0.113-0.24      l-0.086-0.194L1.94,21.093l-0.053-0.147c-0.035-0.104-0.072-0.204-0.115-0.377c-0.055-0.188-0.1-0.396-0.133-0.61      c-0.094-0.638-0.064-1.271,0.088-1.881c0.035-0.146,0.082-0.281,0.129-0.419c0.004-0.021,0.018-0.067,0.031-0.109      c0.215-0.597,0.512-1.094,0.719-1.418c0.049-0.078,0.1-0.152,0.15-0.226l0.344,0.157L2.79,15.855l0.061-0.094      c0.092-0.129,0.182-0.254,0.271-0.375l0.225-0.311l0.191-0.28c0.24-0.364,0.482-0.769,0.713-1.194      c0.139-0.256,0.268-0.51,0.391-0.763c0.23-0.476,0.441-0.955,0.631-1.433l0.037-0.096c0.09-0.229,0.154-0.412,0.217-0.59      l0.084-0.25L5.69,10.2c0.088-0.329,0.148-0.626,0.188-0.896C5.929,8.946,5.95,8.595,5.946,8.233v-0.06      C5.928,7.454,5.794,6.954,5.685,6.662C5.598,6.426,5.499,6.211,5.389,6.017L5.254,5.788C5.172,5.644,5.142,5.529,5.137,5.401      c0-0.017,0.002-0.058,0.004-0.072c0.006-0.102,0.037-0.211,0.098-0.31c0.064-0.111,0.146-0.195,0.25-0.256      c0.109-0.064,0.234-0.1,0.363-0.1c0.154,0,0.309,0.052,0.432,0.145l0.264,0.197c0.273,0.226,0.516,0.488,0.736,0.793      C7.562,6.171,7.8,6.663,7.97,7.217c0.227,0.737,0.312,1.521,0.26,2.325c-0.014,0.226-0.043,0.476-0.092,0.763      c-0.023,0.17-0.057,0.346-0.098,0.528l-0.072,0.294c0,0-0.096,0.341-0.098,0.346c-0.064,0.221-0.125,0.422-0.195,0.627      c-0.301,0.918-0.668,1.824-1.086,2.693c-0.098,0.203-0.203,0.409-0.311,0.615c-0.143,0.271-0.293,0.546-0.457,0.822      l-0.232,0.375l-0.23,0.353c-0.137,0.204-0.268,0.408-0.383,0.61c-0.15,0.257-0.268,0.507-0.354,0.75      c-0.02,0.06-0.033,0.115-0.049,0.175L4.56,18.55c-0.023,0.089-0.039,0.175-0.053,0.261v0.002      c-0.035,0.261-0.023,0.5,0.039,0.735l0.018,0.079c0.004,0.021,0.008,0.043,0.016,0.062c0.006,0.02,0.01,0.037,0.014,0.058      l0.123,0.312l0.004-0.002l0.039,0.08c0.018,0.037,0.029,0.055,0.039,0.072C4.8,20.211,4.827,20.258,4.83,20.26      c0.102,0.17,0.221,0.33,0.352,0.467l0.092,0.084c0.064,0.062,0.135,0.121,0.207,0.181c0.082,0.063,0.15,0.112,0.221,0.161      c0,0,0.088,0.052,0.09,0.053c0.049,0.031,0.098,0.061,0.148,0.086c0.031,0.018,0.064,0.033,0.096,0.049l-0.021-0.053      c-0.197-0.489-0.332-0.936-0.408-1.361c-0.045-0.21-0.064-0.425-0.084-0.632l-0.027-0.285c-0.002-0.081-0.004-0.146-0.002-0.198      v-0.104l0.008-0.301c0.004-0.08,0.021-0.227,0.035-0.33c0.033-0.227,0.07-0.457,0.125-0.654c0.055-0.182,0.113-0.352,0.174-0.52      c0.137-0.324,0.301-0.678,0.514-0.973c0.084-0.131,0.184-0.268,0.285-0.395c0.273-0.344,0.598-0.662,0.99-0.979      c0.492-0.401,0.977-0.685,1.344-0.886c0.18-0.096,0.354-0.182,0.525-0.264c0.125-0.06,0.25-0.115,0.375-0.173      c0.51-0.225,1.051-0.428,1.703-0.639l0.586-0.184l0.668-0.188l0.15-0.037c0.383-0.095,0.774-0.189,1.182-0.263      c0.365-0.069,0.761-0.133,1.166-0.184c0.574-0.07,1.097-0.106,1.603-0.109c0.002,0,0.004,0,0.004,0      c0.268,0,0.494,0.005,0.727,0.017c0.217,0.011,0.436,0.026,0.654,0.052l0.203,0.024c0.168,0.021,0.336,0.047,0.508,0.078      c0.086,0.018,0.146,0.027,0.211,0.041c0.268,0.059,0.49,0.114,0.701,0.185c0.197,0.059,0.4,0.133,0.617,0.225      c0.897,0.369,1.688,0.892,2.295,1.513c0.162,0.185,0.307,0.355,0.449,0.528l0.106,0.125c0.146,0.209,0.258,0.397,0.369,0.59      l0.084,0.145c0.146,0.223,0.235,0.454,0.323,0.682l0.14,0.353c0.037,0.092,0.071,0.185,0.104,0.283      c0.023,0.067,0.047,0.143,0.068,0.221c0.178,0.668,0.213,1.322,0.107,2.011c-0.125,0.78-0.432,1.463-0.91,2.026      c-0.123,0.151-0.285,0.312-0.477,0.465c-0.004,0.004-0.006,0.006-0.011,0.009c-0.149,0.121-0.305,0.229-0.448,0.313      c-0.24,0.143-0.479,0.248-0.752,0.338c-0.097,0.033-0.193,0.062-0.289,0.088c-0.595,0.147-1.074,0.168-1.459,0.183l-2.345,0.084      c-0.307,0.015-0.608,0.032-0.907,0.054l-0.158,0.01l-0.109,0.013c-0.268,0.022-0.523,0.049-0.777,0.079      c-0.082,0.01-0.352,0.049-0.352,0.049c-0.148,0.021-0.297,0.043-0.443,0.066c0.072,0.021,0.416,0.104,0.416,0.104      c0.318,0.083,0.637,0.16,0.953,0.229c0.338,0.071,0.678,0.142,1.016,0.193c0.256,0.044,0.506,0.073,0.756,0.104      c0.199,0.021,0.398,0.043,0.601,0.058c0.401,0.031,0.801,0.048,1.185,0.048c0.426,0,0.844-0.02,1.237-0.059      c0.188-0.012,0.354-0.039,0.533-0.07c0.116-0.021,0.235-0.041,0.354-0.057c0.25-0.057,0.528-0.117,0.799-0.192      c0.07-0.026,0.17-0.06,0.27-0.092c0.127-0.041,0.254-0.081,0.375-0.131c0,0,0.105-0.039,0.113-0.042l0.387-0.155      c0.055-0.022,0.104-0.051,0.152-0.075c0.049-0.025,0.096-0.052,0.148-0.074c0.028-0.019,0.075-0.039,0.125-0.062      c0.047-0.022,0.096-0.045,0.161-0.086l0.638-0.414l0.059-0.045c0.086-0.063,0.174-0.136,0.256-0.207      c0.334-0.294,0.613-0.621,0.811-0.948c0.076-0.124,0.146-0.26,0.211-0.412c0-0.005,0.06-0.141,0.064-0.158      c0.004-0.011,0.02-0.057,0.023-0.065c0.004-0.011,0.01-0.022,0.02-0.06l0.033-0.121l0.037-0.158      c0.064-0.315,0.072-0.676,0.021-1.061c-0.013-0.088-0.027-0.175-0.046-0.263c-0.026-0.14-0.062-0.274-0.102-0.413      c-0.06-0.193-0.107-0.346-0.173-0.505c-0.062-0.16-0.143-0.328-0.225-0.498c-0.08-0.158-0.168-0.321-0.26-0.483l-0.096-0.175      c-0.092-0.155-0.189-0.307-0.289-0.456c-0.426-0.652-0.924-1.287-1.355-1.83c-0.205-0.259-0.408-0.526-0.611-0.804      c-0.057-0.078-0.11-0.157-0.168-0.237c-0.082-0.115-0.16-0.229-0.235-0.349c-0.045-0.067-0.088-0.137-0.132-0.206l-0.149-0.254      c-0.039-0.066-0.08-0.134-0.116-0.202c-0.109-0.198-0.211-0.407-0.308-0.621c-0.028-0.059-0.043-0.086-0.056-0.114      c-0.325-0.806-0.508-1.559-0.561-2.306c-0.004-0.076-0.006-0.152-0.01-0.229c-0.008-0.211-0.012-0.45,0.008-0.704      c0.021-0.277,0.074-0.573,0.156-0.88l0.092-0.276c0.053-0.154,0.084-0.222,0.102-0.258l0.104-0.216      c0.002-0.009,0.095-0.169,0.095-0.169c0.084-0.14,0.166-0.258,0.25-0.364c0.002-0.003,0.217-0.252,0.239-0.279      c0.004-0.004,0.062-0.06,0.062-0.06c0.061-0.06,0.104-0.101,0.149-0.142c0.045-0.04,0.088-0.077,0.131-0.112      C23.53,4.968,23.649,4.878,23.76,4.8c0.553-0.369,1.004-0.56,1.381-0.699c0.168-0.932,0.932-1.631,1.83-1.631      c0.312,0,0.619,0.088,0.893,0.25c0.344-0.348,0.801-0.547,1.277-0.547c0.824,0,1.537,0.57,1.781,1.406l0.117,0.09      c0.161,0.127,0.313,0.244,0.465,0.283c0.194,0.051,0.418,0.079,0.653,0.108c0.563,0.073,1.207,0.156,1.688,0.58      c0.279,0.244,0.496,0.619,0.646,1.117c0.094,0.314,0.348,1.151-0.188,1.523c-0.121,0.086-0.25,0.127-0.354,0.159      c-0.039,0.011-0.075,0.022-0.112,0.037c-0.051,0.021-0.103,0.054-0.156,0.091c-0.006,0.051-0.012,0.1-0.021,0.147      c-0.039,0.18-0.1,0.329-0.188,0.459c-0.029,0.047-0.102,0.119-0.15,0.148c-0.021,0.012-0.041,0.021-0.064,0.031      c0.058,0.261,0.104,0.524,0.146,0.791c0.033,0.213,0.074,0.424,0.115,0.635l0.066,0.354c0.037,0.204,0.084,0.4,0.139,0.585      c0.037,0.125,0.008,0.262-0.08,0.358c-0.072,0.08-0.174,0.124-0.279,0.124c-0.023,0-0.047-0.002-0.07-0.008      c-0.219-0.041-0.33-0.211-0.373-0.275l-0.013-0.02c-0.071,0.143-0.146,0.281-0.229,0.418c-0.067,0.119-0.192,0.187-0.321,0.187      c-0.063,0-0.129-0.017-0.188-0.051c-0.136-0.077-0.201-0.228-0.185-0.37l-0.004-0.031c-0.006-0.044-0.013-0.083-0.013-0.104      c-0.002-0.094,0.002-0.18,0.013-0.266c0.012-0.149,0.037-0.296,0.063-0.44c0.053-0.304,0.084-0.532,0.104-0.739      c0.03-0.398,0.015-0.725-0.058-1.024c-0.01-0.043-0.021-0.086-0.034-0.129c-0.035,0.043-0.089,0.092-0.128,0.114      c-0.057,0.035-0.129,0.056-0.2,0.056c-0.011,0-0.029-0.002-0.029-0.002c-0.079,0-0.163-0.026-0.229-0.075      c-0.084-0.07-0.131-0.146-0.153-0.236c0-0.004-0.002-0.008-0.002-0.011c-0.291,0.038-0.582,0.083-0.873,0.127      c-0.508,0.077-1.033,0.155-1.56,0.204c-0.203,0.019-0.405,0.027-0.61,0.027c-0.754,0-1.517-0.13-2.224-0.376      c0.033,0.315,0.156,0.769,0.354,1.142c0.119,0.229,0.306,0.506,0.574,0.848l0.096,0.118c0.207,0.258,0.414,0.502,0.646,0.766      l0.431,0.487c0.401,0.462,0.75,0.886,1.062,1.295l0.156,0.208c0.162,0.218,0.322,0.438,0.479,0.675      c0.201,0.303,0.388,0.61,0.566,0.944c0.043,0.079,0.086,0.161,0.129,0.243c0.104,0.203,0.207,0.412,0.305,0.64      c0.22,0.492,0.511,1.272,0.671,2.204c0.12,0.702,0.149,1.414,0.088,2.117l-0.007,0.054c-0.014,0.142-0.024,0.282-0.049,0.426      c-0.012,0.08-0.026,0.165-0.045,0.25l-0.018,0.087l-0.074,0.318c-0.031,0.145-0.117,0.425-0.188,0.615l-0.033,0.092      c-0.012,0.031-0.068,0.163-0.068,0.163c-0.154,0.387-0.328,0.752-0.52,1.08c-0.121,0.204-0.26,0.418-0.426,0.649      c-0.371,0.519-0.803,1-1.281,1.438c-0.004,0.004-0.086,0.072-0.086,0.072c-0.137,0.121-0.279,0.244-0.428,0.361l-0.193,0.15      l-0.15,0.105l-0.642,0.433c-0.121,0.079-0.287,0.173-0.449,0.261l-0.391,0.214l-0.24-0.297l0.179,0.33      c-0.111,0.062-0.224,0.119-0.332,0.167l-0.584,0.251c-0.281,0.131-0.576,0.224-0.863,0.312l-0.357,0.112      c-0.471,0.134-0.924,0.229-1.27,0.302c-0.146,0.021-0.271,0.043-0.396,0.062c-0.248,0.039-0.496,0.078-0.742,0.102      c-0.081,0.012-0.118,0.018-0.155,0.021C21.205,28.047,20.627,28.074,20.049,28.074z M10.098,18.744      c0.008,0.049,0.014,0.1,0.02,0.148c0.006,0.047,0.008,0.092,0.02,0.136c0.072,0.327,0.197,0.614,0.389,0.897      c0.051,0.078,0.107,0.156,0.17,0.234c0.031,0.036,0.061,0.068,0.092,0.102c0.15-0.072,0.302-0.146,0.458-0.219      c0.635-0.295,1.148-0.502,1.652-0.667c1.693-0.562,3.426-0.772,4.746-0.896l2.291-0.191c0.408-0.031,0.6-0.068,0.682-0.092      c0.004-0.018,0.018-0.102,0.02-0.113c-0.002-0.002-0.006-0.05-0.01-0.095c-0.004-0.041-0.012-0.089-0.021-0.132      c-0.004-0.01-0.013-0.051-0.015-0.061l-0.053-0.115c-0.037-0.086-0.076-0.172-0.117-0.258l-0.039-0.076      c-0.049-0.1-0.077-0.156-0.108-0.211c-0.026-0.045-0.06-0.09-0.088-0.135c0,0-0.062-0.097-0.076-0.113      c-0.063-0.082-0.121-0.145-0.18-0.191c-0.15-0.139-0.312-0.251-0.496-0.354c-0.027-0.015-0.058-0.027-0.084-0.041      c-0.228-0.107-0.408-0.177-0.599-0.229c-0.35-0.104-0.781-0.15-1.321-0.15c-0.134,0-0.271,0.004-0.404,0.008      c-0.063,0.004-0.131,0.01-0.196,0.014l-0.13,0.011c-0.547,0.045-1.09,0.133-1.657,0.265c-0.287,0.061-0.568,0.141-0.845,0.219      l-0.184,0.051l-0.484,0.152l-0.549,0.192c-0.166,0.062-0.334,0.125-0.502,0.19c-0.524,0.209-0.972,0.416-1.322,0.615      c-0.055,0.03-0.104,0.062-0.151,0.092l-0.062,0.039c-0.098,0.062-0.188,0.123-0.273,0.187c-0.092,0.069-0.154,0.12-0.211,0.17      l-0.305-0.229l0.25,0.279l-0.088,0.086l-0.061,0.062c-0.027,0.031-0.062,0.07-0.082,0.105c-0.01,0.021-0.023,0.037-0.037,0.056      c-0.008,0.022-0.016,0.043-0.023,0.062c-0.01,0.04-0.023,0.073-0.033,0.096c-0.002,0.004-0.004,0.006-0.004,0.01      c0,0.002,0,0.004,0.002,0.006H10.1v0.084H10.098z" stroke-width="1"/>
				<path d="M29.139,2.553c0.709,0,1.3,0.539,1.453,1.262c0.027,0.021,0.058,0.033,0.082,0.053c0.234,0.174,0.455,0.382,0.736,0.452      c0.695,0.18,1.611,0.103,2.189,0.608c0.271,0.236,0.432,0.604,0.533,0.942c0.082,0.275,0.256,0.899-0.041,1.107      c-0.117,0.082-0.267,0.104-0.396,0.159c-0.135,0.056-0.25,0.144-0.367,0.229c-0.002,0.02-0.004,0.036-0.006,0.055      c-0.01,0.073-0.012,0.149-0.029,0.221c-0.022,0.116-0.063,0.23-0.131,0.33c-0.008,0.013-0.016,0.025-0.029,0.033      c-0.008,0.004-0.016,0.007-0.022,0.007c-0.006,0-0.015-0.002-0.021-0.007c-0.01-0.008-0.014-0.021-0.018-0.031      c-0.023-0.092-0.023-0.188-0.029-0.285c-0.002-0.042-0.012-0.083-0.016-0.125c-0.109,0.054-0.225,0.084-0.342,0.105      c0.072,0.225,0.137,0.451,0.188,0.682l0,0c0.064,0.283,0.115,0.568,0.162,0.857c0.053,0.334,0.121,0.664,0.182,0.996      c0.039,0.211,0.088,0.42,0.148,0.626c-0.059-0.013-0.094-0.063-0.127-0.112c-0.131-0.201-0.26-0.4-0.393-0.602      c-0.135,0.351-0.297,0.688-0.486,1.012c0.018-0.029-0.014-0.154-0.014-0.191c-0.002-0.074,0.002-0.148,0.01-0.225      c0.012-0.146,0.037-0.283,0.062-0.427c0.043-0.245,0.084-0.503,0.104-0.754c0.03-0.388,0.024-0.765-0.063-1.143      c-0.033-0.137-0.08-0.269-0.125-0.398c-0.033-0.094-0.064-0.186-0.104-0.274c-0.002,0-0.007,0-0.009,0      c-0.104,0.008-0.213,0.021-0.317,0.03c-0.002,0.01,0,0.02-0.002,0.027c-0.024,0.116-0.065,0.23-0.131,0.33      c-0.011,0.014-0.021,0.025-0.031,0.033c-0.004,0.002-0.008,0.004-0.012,0.004c-0.007,0-0.013-0.002-0.019-0.004h-0.002      c-0.002,0-0.006,0.002-0.008,0.002s-0.002,0-0.004-0.001c-0.008-0.009-0.012-0.021-0.016-0.031      c-0.023-0.093-0.023-0.189-0.029-0.286c0-0.016-0.004-0.031-0.006-0.049c-0.938,0.105-1.863,0.291-2.793,0.377      c-0.193,0.019-0.387,0.026-0.578,0.026c-0.863,0-1.727-0.175-2.518-0.519c-0.019,0.018-0.039,0.034-0.054,0.052l-0.004,0.011      L25.657,7.83c-0.012,0.029-0.014,0.036-0.01,0.036c0.002,0,0.008-0.006,0.01-0.008c0.007-0.006,0.011-0.012,0.013-0.02      c0,0.051-0.011,0.113-0.004,0.2c0.004,0.337,0.139,0.94,0.405,1.446c0.142,0.271,0.353,0.572,0.61,0.902      c0.037,0.049,0.076,0.098,0.115,0.146c0.193,0.239,0.402,0.487,0.644,0.759c0.088,0.1,0.185,0.209,0.274,0.312      c0.052,0.058,0.101,0.112,0.15,0.172c0.338,0.386,0.695,0.812,1.049,1.274l0,0c0,0,0,0,0,0.001      c0.051,0.065,0.104,0.133,0.154,0.202v0.001c0.156,0.212,0.312,0.43,0.467,0.658c0.193,0.291,0.375,0.592,0.549,0.914      c0.043,0.076,0.084,0.154,0.123,0.234l0,0c0.103,0.198,0.201,0.402,0.297,0.621c0.271,0.612,0.515,1.354,0.644,2.115      c0.108,0.635,0.146,1.315,0.084,2.02l0,0c-0.017,0.152-0.026,0.305-0.054,0.457c-0.014,0.107-0.036,0.217-0.059,0.324      l-0.07,0.303c-0.026,0.123-0.108,0.394-0.176,0.574c-0.01,0.027-0.02,0.06-0.031,0.082c-0.02,0.053-0.045,0.104-0.065,0.158      c-0.142,0.356-0.306,0.703-0.496,1.03c-0.125,0.216-0.262,0.421-0.405,0.62l0,0c-0.361,0.505-0.773,0.967-1.229,1.38      c-0.019,0.017-0.035,0.03-0.054,0.047c-0.008,0.007-0.018,0.015-0.024,0.021c-0.135,0.121-0.271,0.24-0.414,0.354l-0.129,0.1      l-0.063,0.049l-0.131,0.099l-0.212,0.144l-0.426,0.286c-0.147,0.099-0.383,0.222-0.574,0.327      c-0.075,0.041-0.155,0.085-0.235,0.129c-0.021,0.012-0.041,0.021-0.062,0.031c-0.104,0.059-0.209,0.109-0.31,0.154l-0.577,0.248      c-0.33,0.154-0.675,0.248-1.017,0.356c-0.061,0.019-0.119,0.036-0.178,0.058c-0.404,0.112-0.814,0.203-1.227,0.289      c-0.361,0.053-0.73,0.123-1.096,0.157c-0.05,0.005-0.097,0.015-0.144,0.017c-0.017,0.002-0.028,0.002-0.043,0.004      c-0.562,0.054-1.125,0.078-1.688,0.078c-0.24,0-0.48-0.006-0.724-0.014l0,0c-0.062-0.003-0.119-0.009-0.181-0.012l0,0      c-0.778-0.038-1.557-0.12-2.321-0.251c-0.086-0.017-0.172-0.035-0.256-0.053c-0.065-0.013-0.132-0.025-0.195-0.039l0,0      c-0.735-0.144-1.467-0.316-2.19-0.525c-0.055-0.018-0.107-0.034-0.162-0.051c-0.67-0.198-1.332-0.42-1.988-0.677      c-0.674-0.266-1.314-0.57-1.951-0.942c-0.006-0.004-0.01-0.006-0.016-0.011l0,0c-0.16-0.092-0.318-0.188-0.477-0.288      c-0.275-0.183-0.549-0.384-0.818-0.597c-0.371,0.082-0.756,0.141-1.152,0.158c-0.035,0-0.07,0.002-0.107,0.002      c-0.086,0-0.172-0.004-0.258-0.006c-0.012,0-0.021,0-0.033,0c-0.035,0-0.07,0.002-0.107,0.002c-0.029,0-0.059-0.002-0.086-0.002      c-0.227-0.013-0.449-0.035-0.664-0.074c-0.068-0.01-0.186-0.035-0.307-0.063c-0.121-0.026-0.232-0.058-0.328-0.091      c-0.203-0.061-0.398-0.139-0.59-0.223c-0.012-0.006-0.023-0.013-0.037-0.02c-0.58-0.264-1.092-0.623-1.531-1.049      c-0.012-0.01-0.02-0.021-0.029-0.029c-0.115-0.111-0.227-0.225-0.33-0.346c-0.26-0.301-0.48-0.631-0.662-0.979      c-0.045-0.089-0.094-0.175-0.129-0.266l-0.059-0.137l-0.029-0.065l-0.041-0.103c-0.051-0.156-0.094-0.252-0.154-0.481      c-0.053-0.19-0.094-0.383-0.123-0.571l0,0c-0.088-0.595-0.059-1.184,0.08-1.734c0.033-0.137,0.076-0.264,0.119-0.391      c0.01-0.033,0.02-0.067,0.031-0.1c0.182-0.512,0.432-0.954,0.682-1.348c0.053-0.086,0.109-0.164,0.164-0.245      c0.025-0.035,0.049-0.072,0.074-0.107c0.088-0.127,0.176-0.249,0.264-0.368l0.227-0.312l0.197-0.289      c0.27-0.404,0.512-0.817,0.734-1.228c0.143-0.263,0.273-0.521,0.398-0.778c0-0.002,0.002-0.003,0.002-0.005      c0.242-0.498,0.455-0.985,0.639-1.455c0.012-0.03,0.025-0.062,0.037-0.094c0.006-0.017,0.014-0.031,0.02-0.049      c0.072-0.188,0.141-0.373,0.203-0.556c0.027-0.086,0.057-0.17,0.084-0.254c0.029-0.097,0.059-0.188,0.084-0.281      C6.13,9.984,6.202,9.658,6.248,9.35c0.057-0.408,0.074-0.784,0.07-1.13c0-0.02,0-0.038,0-0.056      c-0.016-0.685-0.133-1.24-0.285-1.645C5.919,6.207,5.802,5.974,5.714,5.82c-0.09-0.153-0.137-0.233-0.137-0.233L5.552,5.546      C5.523,5.494,5.513,5.438,5.511,5.381c0-0.009,0.002-0.018,0.002-0.026C5.515,5.3,5.531,5.249,5.561,5.199l0,0      C5.587,5.15,5.625,5.107,5.675,5.077C5.732,5.046,5.791,5.029,5.85,5.029c0.074,0,0.148,0.023,0.207,0.069      c0,0,0.09,0.067,0.264,0.197c0.166,0.138,0.406,0.363,0.656,0.712c0.238,0.319,0.465,0.768,0.633,1.311l0,0      c0.188,0.617,0.299,1.355,0.244,2.189C7.837,9.74,7.806,9.986,7.765,10.236C7.74,10.4,7.71,10.566,7.671,10.742      c-0.023,0.095-0.047,0.189-0.07,0.285c-0.02,0.065-0.039,0.136-0.059,0.203l0,0c-0.01,0.039-0.021,0.078-0.033,0.119      c-0.002,0.008-0.006,0.018-0.008,0.026c-0.059,0.194-0.119,0.396-0.186,0.595c-0.277,0.842-0.623,1.727-1.068,2.648      c-0.096,0.199-0.199,0.402-0.305,0.604l0,0c-0.141,0.267-0.287,0.533-0.449,0.805c-0.074,0.123-0.15,0.246-0.227,0.369      L5.04,16.741c-0.139,0.21-0.275,0.422-0.395,0.633c-0.164,0.274-0.289,0.546-0.383,0.812c-0.029,0.088-0.049,0.174-0.07,0.261      c-0.027,0.102-0.047,0.2-0.061,0.302c0,0.001,0,0.002,0,0.004c-0.043,0.299-0.029,0.592,0.045,0.881      c0.016,0.059,0.023,0.115,0.043,0.174c0.004,0.017,0.012,0.041,0.021,0.071c0.004,0.011,0.008,0.021,0.012,0.031      c0.008,0.024,0.02,0.05,0.029,0.077c0.027,0.063,0.055,0.135,0.078,0.191l0,0l0.008,0.021c0,0-0.004-0.01-0.012-0.034      l0.008,0.021l0.018,0.035l0.037,0.072c0.021,0.05,0.055,0.096,0.082,0.145c0.113,0.189,0.248,0.373,0.406,0.539      c0.031,0.032,0.068,0.063,0.102,0.096c0.074,0.07,0.152,0.139,0.232,0.201c0.006,0.006,0.012,0.011,0.018,0.015      c0.074,0.06,0.152,0.114,0.23,0.167c0.029,0.02,0.059,0.033,0.088,0.052c0.059,0.037,0.121,0.075,0.184,0.106      c0.098,0.052,0.197,0.097,0.299,0.137c0.109,0.04,0.219,0.077,0.332,0.104c0.061,0.02,0.107,0.026,0.148,0.033      c0.039,0.008,0.082,0.02,0.178,0.029c0.004,0.001,0.008,0,0.012,0.001c-0.133-0.235-0.248-0.483-0.354-0.735      c-0.012-0.026-0.023-0.055-0.035-0.082c-0.164-0.403-0.293-0.822-0.373-1.252c-0.057-0.274-0.07-0.553-0.102-0.83L5.86,18.966      c-0.004-0.149-0.004-0.18-0.004-0.18v0.015c0,0,0-0.006,0-0.021l0.002-0.073l0.004-0.148l0.004-0.15      c0.004-0.064,0.021-0.195,0.033-0.291c0.029-0.202,0.062-0.428,0.113-0.604c0.051-0.164,0.105-0.328,0.164-0.49      c0.133-0.309,0.281-0.625,0.467-0.879c0.088-0.137,0.18-0.263,0.273-0.381c0.291-0.365,0.613-0.664,0.932-0.921      c0.428-0.351,0.861-0.612,1.291-0.849c0.17-0.092,0.338-0.176,0.506-0.254c0.121-0.059,0.244-0.112,0.365-0.168l0,0l0,0      c0.555-0.244,1.104-0.442,1.666-0.625l0.365-0.114l0.217-0.065l0.658-0.186c0.435-0.104,0.855-0.214,1.295-0.291      c0.377-0.07,0.762-0.133,1.148-0.182l0,0c0.508-0.062,1.025-0.104,1.557-0.104c0.006,0,0.014,0,0.021,0      c0.227,0,0.457,0.004,0.688,0.015c0.211,0.011,0.422,0.026,0.637,0.051c0.062,0.006,0.13,0.016,0.193,0.022      c0.16,0.021,0.322,0.048,0.484,0.075c0.066,0.014,0.133,0.023,0.201,0.039c0.221,0.048,0.445,0.104,0.67,0.175      c0.195,0.06,0.389,0.132,0.584,0.214c0.006,0.002,0.012,0.006,0.018,0.008c0.779,0.319,1.535,0.789,2.152,1.422      c0.146,0.166,0.289,0.336,0.43,0.506c0.035,0.041,0.072,0.082,0.105,0.123c0.152,0.223,0.285,0.455,0.422,0.686      c0.146,0.229,0.234,0.469,0.328,0.705c0.037,0.098,0.072,0.188,0.107,0.275c0.034,0.086,0.067,0.172,0.1,0.266v0.001l0,0      c0.021,0.062,0.041,0.128,0.061,0.198c0.168,0.627,0.195,1.227,0.1,1.854c-0.1,0.621-0.344,1.274-0.825,1.842      c-0.119,0.147-0.271,0.291-0.427,0.416c0,0.002,0,0.002,0,0.002c-0.139,0.111-0.28,0.211-0.412,0.289      c-0.246,0.146-0.465,0.233-0.678,0.306l0,0c-0.092,0.03-0.182,0.058-0.271,0.082c-0.593,0.146-1.072,0.155-1.466,0.172      c-0.479,0.019-0.948,0.034-1.422,0.052c-0.018,0-0.035,0.002-0.053,0.002c-0.26,0.01-0.52,0.02-0.779,0.026      c-0.312,0.015-0.616,0.032-0.92,0.056c-0.055,0.004-0.106,0.006-0.16,0.01c-0.038,0.004-0.075,0.01-0.114,0.013      c0,0-0.002,0.001-0.004,0.001c-0.265,0.021-0.527,0.048-0.783,0.078c-0.121,0.015-0.239,0.033-0.358,0.051      c-0.195,0.027-0.39,0.058-0.578,0.092c-0.101,0.018-0.199,0.035-0.299,0.057c-0.287,0.058-0.57,0.119-0.847,0.196      c-0.039,0.011-0.078,0.022-0.116,0.033c0.428,0.151,0.858,0.284,1.291,0.407c0.159,0.046,0.319,0.08,0.479,0.121      c0.321,0.084,0.646,0.162,0.967,0.232c0.347,0.073,0.692,0.146,1.037,0.198c0.258,0.043,0.514,0.074,0.771,0.104      c0.205,0.021,0.409,0.043,0.612,0.059c0.41,0.031,0.813,0.049,1.211,0.049c0.437,0,0.863-0.02,1.279-0.061      c0.312-0.017,0.598-0.092,0.896-0.129c0.289-0.062,0.574-0.127,0.854-0.203c0.228-0.082,0.465-0.146,0.687-0.235      c0.036-0.015,0.075-0.024,0.112-0.041l0.383-0.155c0.125-0.052,0.212-0.107,0.32-0.158c0.108-0.062,0.188-0.08,0.328-0.168      l0.231-0.149l0.197-0.129l0.213-0.14l0.002-0.002l0.004-0.002l0.074-0.056c0.096-0.073,0.191-0.147,0.281-0.229      c0.359-0.315,0.662-0.67,0.883-1.031c0.092-0.153,0.168-0.309,0.234-0.461c0.012-0.028,0.024-0.059,0.037-0.086      c0.02-0.049,0.035-0.092,0.043-0.114c0.01-0.033,0.02-0.039,0.045-0.136l0.033-0.114l0.012-0.043l0.031-0.136      c0.073-0.368,0.082-0.774,0.022-1.191c-0.015-0.098-0.028-0.189-0.047-0.284c-0.029-0.147-0.065-0.296-0.108-0.444      c-0.005-0.017-0.011-0.03-0.015-0.049c-0.047-0.158-0.101-0.32-0.168-0.49c-0.065-0.168-0.149-0.347-0.238-0.524      c-0.084-0.168-0.176-0.338-0.271-0.504c-0.032-0.062-0.063-0.121-0.1-0.181c-0.094-0.16-0.193-0.314-0.295-0.471      c-0.414-0.634-0.881-1.234-1.379-1.859c-0.201-0.252-0.4-0.519-0.6-0.789c-0.055-0.076-0.109-0.154-0.164-0.231      c-0.078-0.11-0.154-0.223-0.23-0.338c-0.049-0.076-0.096-0.155-0.145-0.231c-0.029-0.047-0.055-0.096-0.084-0.144      c-0.051-0.088-0.105-0.173-0.154-0.265c-0.104-0.188-0.201-0.389-0.293-0.594l0,0c-0.016-0.035-0.035-0.069-0.051-0.106      c-0.301-0.746-0.48-1.452-0.531-2.186l0,0c-0.006-0.081-0.008-0.164-0.01-0.245c-0.008-0.208-0.01-0.419,0.006-0.636      c0.021-0.264,0.072-0.536,0.146-0.81l0.084-0.257c0.028-0.081,0.067-0.184,0.08-0.2l0.051-0.107l0.014-0.026l0.045-0.096      l0.016-0.028l0.064-0.11c0.072-0.119,0.148-0.227,0.223-0.323c0.012-0.013,0.021-0.021,0.031-0.035      c0.031-0.039,0.062-0.072,0.094-0.107c0.033-0.038,0.066-0.08,0.1-0.115c0,0,0.003-0.001,0.003-0.002      c0.021-0.02,0.038-0.036,0.057-0.055c0.041-0.041,0.082-0.078,0.123-0.115c0.039-0.035,0.076-0.067,0.115-0.1      c0.112-0.093,0.226-0.179,0.327-0.251c0.617-0.411,1.107-0.587,1.511-0.731c0.051-0.853,0.692-1.528,1.485-1.528      c0.367,0,0.697,0.149,0.957,0.389C28.2,2.824,28.639,2.553,29.139,2.553 M25.661,7.783c0.003,0,0.009-0.002,0.015-0.009      c0.002-0.005,0.016-0.032,0.026-0.058C25.672,7.754,25.655,7.783,25.661,7.783 M9.739,18.496c0-0.002,0-0.007,0-0.007      c-0.002-0.017-0.004-0.022-0.006-0.025c0-0.001,0-0.001,0-0.001l-0.002,0.002l0,0l0,0c0,0-0.002,0-0.002,0.004      c0,0.002-0.002,0.006-0.002,0.01c0,0.006,0,0.013-0.002,0.021c0,0.006,0,0.013,0,0.019c0,0.01,0,0.02-0.002,0.028      c0,0.011,0,0.021,0,0.031c0,0.008,0,0.016,0,0.024c0,0.011,0,0.021,0,0.033c0,0.01,0,0.019,0,0.026c0,0.017,0,0.028,0,0.044      c0,0.003,0,0.005,0,0.007c0,0.019,0,0.033,0,0.048c0,0.006,0,0.014,0,0.02l0,0c0,0.001,0,0.002,0,0.002c0,0.003,0,0.005,0,0.006      c0-0.003,0-0.003,0-0.006v-0.002c0.023,0.115,0.021,0.24,0.053,0.354c0.078,0.355,0.223,0.686,0.438,1.006      c0.061,0.088,0.121,0.176,0.191,0.262c0.01,0.013,0.021,0.022,0.031,0.035c0.084,0.099,0.174,0.192,0.271,0.287      c0.222-0.111,0.458-0.225,0.697-0.336c0.014-0.007,0.025-0.013,0.039-0.018c0.486-0.229,1.004-0.448,1.57-0.635      c1.531-0.506,3.125-0.733,4.666-0.879c0.309-0.024,0.623-0.051,0.936-0.077c0.451-0.038,0.898-0.074,1.352-0.113      c0.369-0.026,0.66-0.067,0.812-0.121c0.062-0.021,0.127-0.057,0.117-0.057c0,0-0.002,0-0.004,0.001      c0.047-0.039,0.021-0.021,0.037-0.047c0.016-0.028,0.053-0.12,0.07-0.256c0-0.008,0.004-0.012,0.004-0.021      c0.008-0.062,0.004-0.134,0-0.203c-0.008-0.065-0.019-0.135-0.033-0.194c-0.006-0.021-0.008-0.05-0.016-0.068      c-0.021-0.053-0.048-0.106-0.07-0.161c-0.039-0.091-0.08-0.181-0.123-0.271c-0.021-0.043-0.041-0.086-0.062-0.127      c-0.031-0.062-0.064-0.125-0.1-0.187s-0.074-0.119-0.113-0.177c-0.027-0.04-0.053-0.082-0.082-0.118      c-0.07-0.093-0.146-0.177-0.23-0.246c-0.166-0.151-0.352-0.281-0.559-0.396c-0.045-0.024-0.094-0.047-0.143-0.067      c-0.189-0.095-0.396-0.173-0.621-0.234c-0.42-0.123-0.908-0.163-1.42-0.163c-0.139,0-0.279,0.002-0.42,0.008      c-0.094,0.004-0.189,0.012-0.285,0.021c-0.033,0.002-0.066,0.004-0.102,0.006c-0.543,0.047-1.105,0.142-1.668,0.271      c-0.347,0.072-0.699,0.179-1.041,0.272l-0.498,0.155l-0.562,0.195c-0.172,0.062-0.347,0.129-0.519,0.197      c-0.49,0.195-0.969,0.41-1.367,0.637c-0.079,0.045-0.151,0.095-0.227,0.141c-0.105,0.064-0.203,0.135-0.295,0.2      c-0.008,0.007-0.016,0.012-0.023,0.019c-0.002,0.002-0.004,0.004-0.006,0.006l0,0c-0.076,0.055-0.145,0.111-0.207,0.166      c-0.021,0.019-0.039,0.036-0.059,0.055c-0.012,0.011-0.021,0.02-0.031,0.027c-0.027,0.025-0.051,0.051-0.076,0.076      c-0.023,0.023-0.047,0.049-0.068,0.072c-0.053,0.062-0.102,0.12-0.131,0.176c-0.055,0.064-0.061,0.123-0.092,0.178      C9.756,18.453,9.75,18.475,9.739,18.496 M9.723,18.778L9.723,18.778L9.723,18.778 M9.723,18.778h0.002 M9.723,18.778h0.002       M29.139,1.803c-0.483,0-0.95,0.17-1.336,0.471C27.539,2.162,27.256,2.1,26.969,2.1c-1.012,0-1.879,0.727-2.149,1.727      c-0.354,0.141-0.774,0.337-1.262,0.659c-0.134,0.095-0.261,0.19-0.388,0.296c-0.045,0.036-0.092,0.076-0.139,0.117      c-0.051,0.047-0.102,0.094-0.152,0.144C22.851,5.069,22.83,5.09,22.81,5.111c-0.005,0.003-0.009,0.007-0.011,0.012      c-0.024,0.026-0.057,0.062-0.088,0.1l-0.026,0.031L22.661,5.28c-0.03,0.034-0.062,0.069-0.092,0.107      c-0.008,0.006-0.021,0.023-0.039,0.045c-0.094,0.121-0.187,0.254-0.271,0.391l-0.071,0.124l-0.021,0.037      c-0.011,0.018-0.019,0.034-0.027,0.052l-0.045,0.097l-0.01,0.021l-0.041,0.085c-0.029,0.055-0.062,0.137-0.119,0.296      l-0.09,0.271c-0.004,0.014-0.011,0.027-0.013,0.04c-0.088,0.329-0.146,0.646-0.17,0.946c-0.017,0.221-0.021,0.441-0.008,0.721      l0.002,0.033c0.002,0.078,0.004,0.158,0.01,0.235c0.056,0.785,0.246,1.574,0.584,2.414c0.021,0.052,0.037,0.084,0.054,0.117      c0.114,0.252,0.219,0.463,0.328,0.664c0.041,0.071,0.082,0.142,0.123,0.211l0.045,0.074l0.024,0.043      c0.021,0.036,0.043,0.073,0.063,0.107l0.017,0.025c0.047,0.076,0.094,0.15,0.141,0.225c0.078,0.121,0.16,0.238,0.242,0.357      l0.019,0.024c0.053,0.073,0.104,0.146,0.155,0.22c0.205,0.28,0.414,0.555,0.617,0.813c0.549,0.688,0.963,1.229,1.338,1.803      c0.097,0.146,0.188,0.291,0.279,0.44c0.014,0.025,0.026,0.05,0.039,0.072c0.018,0.032,0.034,0.064,0.053,0.098      c0.088,0.154,0.174,0.312,0.252,0.47c0.06,0.119,0.146,0.302,0.209,0.463c0.056,0.138,0.104,0.276,0.147,0.431l0.734-0.164      L26.4,17.896c0.039,0.139,0.068,0.263,0.092,0.379c0.016,0.082,0.031,0.164,0.043,0.248c0.045,0.334,0.039,0.658-0.018,0.938      l-0.023,0.102l-0.008,0.026l-0.031,0.112l-0.01,0.037c-0.006,0.015-0.018,0.04-0.027,0.076      c-0.006,0.015-0.014,0.033-0.021,0.053l-0.035,0.078c-0.058,0.135-0.116,0.254-0.187,0.363      c-0.178,0.297-0.434,0.594-0.735,0.858c-0.08,0.07-0.16,0.136-0.24,0.196L25.149,21.4l-0.194,0.127l-0.199,0.128l-0.23,0.151      c-0.039,0.021-0.074,0.037-0.109,0.053c-0.049,0.022-0.096,0.046-0.149,0.074c-0.052,0.021-0.097,0.049-0.146,0.073      c-0.037,0.021-0.076,0.041-0.123,0.062l-0.377,0.152c-0.006,0.004-0.014,0.006-0.021,0.01c-0.039,0.013-0.066,0.022-0.095,0.033      c-0.11,0.045-0.229,0.082-0.348,0.12c-0.094,0.03-0.189,0.062-0.283,0.095c-0.233,0.062-0.479,0.119-0.754,0.18      c-0.113,0.017-0.225,0.033-0.336,0.056c-0.166,0.027-0.324,0.056-0.469,0.062c-0.014,0.002-0.025,0.003-0.037,0.004      c-0.383,0.037-0.789,0.059-1.203,0.059c-0.373,0-0.762-0.017-1.154-0.048c-0.194-0.015-0.391-0.032-0.588-0.056      c-0.256-0.03-0.494-0.061-0.729-0.1c-0.061-0.011-0.121-0.021-0.182-0.029c0.164-0.012,0.33-0.021,0.496-0.026l0.489-0.019      l0.283-0.01l0.054-0.003l0.604-0.021l0.815-0.029l0.098-0.004c0.402-0.016,0.902-0.036,1.521-0.189      c0.119-0.031,0.223-0.062,0.326-0.098c0.299-0.1,0.561-0.217,0.824-0.371c0.16-0.096,0.334-0.217,0.496-0.349      c0.01-0.007,0.018-0.015,0.025-0.021c0.194-0.155,0.375-0.334,0.518-0.513c0.508-0.594,0.852-1.357,0.984-2.194      c0.112-0.745,0.075-1.45-0.115-2.165c-0.023-0.09-0.049-0.169-0.074-0.246c-0.035-0.105-0.074-0.205-0.113-0.304L24.639,16      c-0.027-0.068-0.055-0.139-0.082-0.214l-0.035-0.09c-0.09-0.229-0.191-0.487-0.359-0.75l-0.078-0.132      c-0.111-0.191-0.227-0.39-0.365-0.586c-0.01-0.019-0.022-0.033-0.034-0.049c-0.021-0.029-0.048-0.057-0.07-0.084l-0.039-0.046      c-0.146-0.177-0.293-0.353-0.446-0.522c-0.008-0.01-0.017-0.019-0.023-0.025c-0.643-0.659-1.475-1.211-2.404-1.592      c-0.236-0.1-0.457-0.182-0.668-0.246c-0.217-0.066-0.451-0.129-0.732-0.188c-0.061-0.015-0.121-0.024-0.18-0.035l-0.039-0.008      c-0.178-0.033-0.354-0.062-0.529-0.084L18.5,11.343c-0.053-0.008-0.104-0.014-0.158-0.02c-0.246-0.025-0.467-0.043-0.678-0.054      c-0.242-0.011-0.482-0.016-0.721-0.016c-0.002,0-0.025,0-0.027,0c-0.52,0.002-1.057,0.039-1.646,0.111      c-0.408,0.053-0.812,0.113-1.195,0.188c-0.405,0.071-0.809,0.17-1.194,0.266l-0.138,0.033L12.06,12.04l-0.234,0.074      l-0.366,0.112c-0.67,0.219-1.222,0.427-1.747,0.656c-0.129,0.057-0.258,0.114-0.387,0.178c-0.176,0.082-0.355,0.172-0.539,0.271      c-0.385,0.211-0.891,0.505-1.406,0.928c-0.076,0.062-0.148,0.122-0.219,0.183c0.326-0.727,0.619-1.477,0.869-2.234      c0.068-0.205,0.131-0.412,0.191-0.617l0.008-0.025l0.037-0.129l0.057-0.198c0.002-0.009,0.006-0.021,0.008-0.028l0.027-0.107      l0.043-0.178c0.043-0.188,0.074-0.365,0.107-0.572c0.047-0.293,0.078-0.556,0.094-0.793c0.057-0.853-0.037-1.681-0.275-2.458      C8.144,6.505,7.886,5.975,7.58,5.563C7.35,5.242,7.083,4.956,6.798,4.72C6.791,4.712,6.782,4.704,6.771,4.699L6.509,4.502      c-0.188-0.142-0.422-0.22-0.658-0.22c-0.193,0-0.385,0.053-0.551,0.15C5.145,4.524,5.015,4.655,4.916,4.821      c-0.088,0.15-0.139,0.317-0.148,0.496C4.765,5.33,4.763,5.358,4.763,5.389c0.004,0.205,0.055,0.383,0.146,0.539L4.93,5.969      l0.139,0.234c0.094,0.166,0.184,0.361,0.26,0.574c0.145,0.382,0.229,0.878,0.24,1.405v0.049      c0.006,0.342-0.016,0.674-0.062,1.016c-0.037,0.25-0.096,0.531-0.182,0.862L5.257,10.33L5.25,10.354l-0.08,0.24      c-0.059,0.168-0.121,0.346-0.191,0.523c0,0.001-0.02,0.048-0.02,0.049l-0.027,0.068c-0.191,0.49-0.398,0.962-0.625,1.423      c-0.143,0.295-0.264,0.532-0.385,0.755c-0.232,0.427-0.459,0.811-0.699,1.17l-0.191,0.28l-0.213,0.294      c-0.09,0.119-0.182,0.247-0.273,0.379c-0.023,0.031-0.045,0.066-0.068,0.102l-0.016,0.022l-0.023,0.034      c-0.051,0.072-0.1,0.146-0.148,0.222c-0.215,0.341-0.527,0.86-0.754,1.497c-0.016,0.042-0.029,0.087-0.041,0.132      c-0.041,0.12-0.092,0.271-0.131,0.435C1.2,18.632,1.167,19.314,1.271,20c0.029,0.232,0.078,0.456,0.139,0.669      c0.045,0.175,0.086,0.289,0.123,0.394c0.012,0.037,0.025,0.072,0.039,0.117c0.006,0.014,0.01,0.027,0.016,0.043l0.039,0.101      l0.037,0.089l0.061,0.141c0.031,0.074,0.074,0.161,0.119,0.25l0.029,0.057c0.219,0.414,0.473,0.789,0.762,1.127      c0.129,0.147,0.26,0.279,0.375,0.392c0.002,0.005,0.018,0.021,0.031,0.032c0.516,0.497,1.094,0.895,1.725,1.186      c0.021,0.01,0.043,0.021,0.064,0.029c0.258,0.112,0.463,0.189,0.664,0.25c0.113,0.038,0.244,0.073,0.391,0.107      C5.96,25,6.116,25.036,6.232,25.055c0.229,0.041,0.475,0.067,0.748,0.082c0.043,0.004,0.084,0.004,0.127,0.004h0.061h0.047      l0.117,0.002c0.059,0,0.117,0.002,0.174,0.002c0.047,0,0.094,0,0.139-0.002c0.305-0.016,0.611-0.05,0.932-0.104      c0.209,0.155,0.406,0.295,0.598,0.421c0.172,0.109,0.34,0.213,0.51,0.311c0.006,0.006,0.021,0.014,0.027,0.017      c0.633,0.371,1.305,0.696,2.042,0.987c0.631,0.244,1.301,0.474,2.051,0.695l0.047,0.016c0.041,0.013,0.08,0.023,0.121,0.035      c0.721,0.209,1.479,0.392,2.256,0.543l0.074,0.017l0.125,0.024l0.102,0.021c0.055,0.013,0.107,0.022,0.164,0.033      c0.783,0.133,1.596,0.221,2.416,0.262l0.066,0.005c0.041,0.002,0.08,0.006,0.121,0.008c0.25,0.01,0.5,0.015,0.752,0.015      c0.588,0,1.18-0.026,1.758-0.082h0.002c0.006,0,0.016,0,0.027-0.002c0.043-0.003,0.088-0.009,0.131-0.015l0.026-0.004      c0.265-0.025,0.521-0.065,0.771-0.104c0.121-0.021,0.242-0.039,0.361-0.058c0.016-0.002,0.03-0.004,0.049-0.008      c0.352-0.072,0.813-0.175,1.272-0.304c0.013-0.004,0.024-0.008,0.039-0.013c0.041-0.014,0.082-0.025,0.123-0.039l0.041-0.012      l0.185-0.06c0.297-0.092,0.604-0.188,0.92-0.333l0.559-0.238c0.125-0.058,0.246-0.117,0.367-0.185l0.041-0.021l0.021-0.015      l0.063-0.033l0.166-0.092l0.166-0.093c0.164-0.09,0.334-0.182,0.47-0.271l0.433-0.289l0.211-0.145l0.145-0.102      c0.01-0.007,0.02-0.014,0.029-0.021l0.063-0.05l0.129-0.102c0.146-0.113,0.287-0.234,0.455-0.386l0.024-0.021      c0.021-0.017,0.041-0.032,0.062-0.051c0.498-0.455,0.947-0.957,1.332-1.496c0.175-0.242,0.318-0.465,0.445-0.679      c0.198-0.346,0.385-0.728,0.545-1.135L31.5,21.95c0.02-0.045,0.039-0.088,0.055-0.134c0.002-0.006,0.014-0.036,0.025-0.067      c0.077-0.222,0.168-0.517,0.204-0.678l0.07-0.304c0.002-0.012,0.006-0.021,0.008-0.03l0.017-0.087      c0.018-0.09,0.035-0.18,0.049-0.271c0.022-0.146,0.037-0.298,0.051-0.45l0.004-0.043c0.068-0.736,0.037-1.481-0.09-2.218      c-0.166-0.969-0.469-1.78-0.693-2.29c-0.094-0.209-0.193-0.418-0.316-0.66c-0.043-0.084-0.088-0.169-0.133-0.251      c-0.186-0.342-0.375-0.659-0.584-0.975c-0.178-0.265-0.354-0.509-0.49-0.688c-0.053-0.072-0.104-0.144-0.157-0.213      c-0.322-0.42-0.666-0.838-1.08-1.312l-0.104-0.119l-0.049-0.054l-0.104-0.117l-0.176-0.198      c-0.219-0.247-0.422-0.487-0.619-0.731l-0.045-0.054l-0.07-0.087c-0.248-0.316-0.424-0.574-0.529-0.781      c-0.074-0.138-0.135-0.285-0.182-0.428c0.561,0.139,1.139,0.209,1.717,0.209c0.215,0,0.434-0.011,0.646-0.029      c0.535-0.049,1.065-0.129,1.58-0.207c0.198-0.031,0.399-0.062,0.604-0.09c0.045,0.057,0.092,0.1,0.135,0.133      c0.123,0.095,0.273,0.15,0.43,0.156c0.019,0.002,0.039,0.004,0.062,0.004c0.019,0,0.033-0.002,0.051-0.003      c0.017,0.175,0.015,0.363-0.004,0.579c-0.019,0.193-0.047,0.411-0.096,0.688l-0.007,0.029c-0.022,0.139-0.053,0.295-0.065,0.461      c-0.01,0.101-0.015,0.199-0.015,0.301c0.003,0.031,0.007,0.084,0.017,0.146c-0.014,0.271,0.121,0.538,0.369,0.684      c0.119,0.07,0.25,0.103,0.379,0.103c0.259,0,0.509-0.133,0.646-0.37c0.002-0.005,0.004-0.008,0.006-0.011      c0.07,0.032,0.144,0.058,0.222,0.071c0.045,0.009,0.09,0.012,0.136,0.012c0.211,0,0.413-0.089,0.557-0.249      c0.176-0.194,0.236-0.466,0.16-0.716c-0.051-0.174-0.095-0.354-0.129-0.545c-0.021-0.116-0.043-0.23-0.064-0.348      c-0.041-0.211-0.08-0.421-0.113-0.633c-0.033-0.206-0.066-0.394-0.1-0.566c0.061-0.061,0.098-0.115,0.113-0.141      c0.106-0.163,0.186-0.354,0.233-0.57c0.015-0.004,0.024-0.008,0.041-0.012c0.113-0.036,0.285-0.092,0.457-0.209      c0.756-0.527,0.437-1.592,0.33-1.94c-0.17-0.564-0.427-1-0.759-1.291c-0.567-0.499-1.301-0.594-1.889-0.669      c-0.225-0.029-0.438-0.057-0.608-0.101c-0.074-0.021-0.209-0.124-0.328-0.217c-0.009-0.008-0.019-0.014-0.024-0.021      C30.922,2.428,30.092,1.803,29.139,1.803L29.139,1.803z M10.883,18.27c0.096-0.067,0.176-0.125,0.262-0.178l0.062-0.041      c0.043-0.027,0.084-0.053,0.129-0.078c0.342-0.193,0.771-0.394,1.281-0.597c0.164-0.065,0.33-0.129,0.496-0.188l0.553-0.191      l0.473-0.148l0.158-0.045c0.271-0.076,0.551-0.156,0.812-0.209c0.568-0.133,1.094-0.217,1.578-0.258l0.043-0.003l0.049-0.003      l0.084-0.007c0.059-0.007,0.119-0.011,0.176-0.013c0.133-0.006,0.264-0.008,0.393-0.008c0.507,0,0.9,0.043,1.21,0.135      c0.18,0.049,0.342,0.109,0.508,0.189l0.047,0.021c0.021,0.01,0.041,0.02,0.062,0.029c0.158,0.086,0.293,0.18,0.412,0.288      c0.008,0.009,0.016,0.015,0.024,0.021c0.033,0.028,0.072,0.071,0.119,0.131l0.021,0.028l0.032,0.052      c0.035,0.053,0.062,0.091,0.086,0.132c0.025,0.047,0.054,0.098,0.078,0.146l0.021,0.037c0.012,0.023,0.024,0.049,0.037,0.072      c0.037,0.08,0.073,0.162,0.108,0.244l0.022,0.054c-0.082,0.011-0.184,0.021-0.309,0.03l-1.357,0.111l-0.936,0.078      c-1.348,0.125-3.107,0.343-4.838,0.914c-0.512,0.168-1.039,0.379-1.652,0.664l-0.037,0.02c-0.065,0.029-0.133,0.062-0.198,0.094      c-0.018-0.027-0.035-0.053-0.055-0.08c-0.164-0.242-0.27-0.488-0.326-0.746c-0.004-0.014-0.006-0.027-0.01-0.041      c-0.004-0.021-0.006-0.049-0.01-0.076c-0.004-0.047-0.01-0.095-0.018-0.143v-0.002l0,0c-0.002-0.006-0.002-0.014-0.004-0.02      c0-0.004,0-0.006,0-0.01h0.004h-0.003l0,0v-0.002c0.002-0.005,0.004-0.011,0.006-0.016c0.012-0.016,0.021-0.03,0.029-0.048      c0.006-0.009,0.027-0.03,0.047-0.056c0.006-0.007,0.021-0.021,0.035-0.035c0.02-0.02,0.035-0.037,0.055-0.055l0.025-0.025      l0.021-0.021c0.068-0.06,0.123-0.104,0.182-0.147C10.875,18.277,10.88,18.271,10.883,18.27L10.883,18.27z M4.881,18.857      c0.01-0.069,0.023-0.141,0.041-0.211l0.018-0.062c0.01-0.046,0.021-0.092,0.037-0.137c0.051-0.145,0.113-0.291,0.188-0.438      c0,0.005,0,0.011-0.002,0.015c-0.016,0.121-0.033,0.279-0.039,0.357L5.121,18.55l-0.004,0.149l-0.002,0.074      c0,0.011,0,0.021,0,0.033l0,0c0,0.061,0,0.123,0.002,0.188c0,0.019,0,0.033,0.002,0.052L5.125,19.1      c0.008,0.086,0.016,0.157,0.023,0.229c0.02,0.219,0.041,0.444,0.092,0.687c0.016,0.088,0.035,0.178,0.055,0.268      c-0.051-0.066-0.1-0.141-0.145-0.217l-0.029-0.049L5.104,19.99L5.06,19.9l-0.016-0.033c-0.012-0.026-0.021-0.055-0.033-0.081      l-0.025-0.062l-0.023-0.062c0,0-0.006-0.016-0.008-0.021c-0.006-0.021-0.012-0.043-0.021-0.064l-0.002-0.02      c-0.008-0.031-0.014-0.062-0.021-0.097c-0.049-0.188-0.059-0.381-0.029-0.59C4.88,18.865,4.881,18.861,4.881,18.857      L4.881,18.857z" stroke-width="1" fill="undefined"/>
			</g>
		</g>
		<g>
			<g>
				<path fill="#91BF20" d="M25.606,22.006l-0.022,0.016l-0.033,0.025C25.526,22.062,25.688,21.949,25.606,22.006z" stroke-width="1"/>
				<path fill="#91BF20" d="M9.723,18.785c0-0.003,0-0.007,0-0.01l0,0C9.723,18.783,9.723,18.781,9.723,18.785z" stroke-width="1"/>
				<path fill="#91BF20" d="M27.219,19.77c-0.012,0.054,0.017-0.057,0.011-0.032l-0.004,0.015v0.002L27.219,19.77z" stroke-width="1"/>
				<path fill="#91BF20" d="M25.702,7.717c0.003-0.002,0.005-0.004,0.007-0.006l0.006-0.017C25.733,7.654,25.717,7.684,25.702,7.717      z" stroke-width="1"/>
				<path fill="#91BF20" d="M31.151,17.809c-0.129-0.762-0.371-1.504-0.644-2.115c-0.299-0.682-0.614-1.239-0.969-1.771      c-0.693-1.044-1.459-1.906-2.096-2.624c-0.625-0.707-1.109-1.309-1.369-1.806c-0.268-0.505-0.402-1.109-0.404-1.445      c-0.006-0.088,0.002-0.151,0.002-0.201c-0.002,0.007-0.006,0.014-0.012,0.02c-0.004,0.005-0.023,0.026,0.002-0.029l0.041-0.112      l0.004-0.012c0,0.002-0.002,0.004-0.004,0.006c-0.012,0.024-0.025,0.053-0.023,0.047v0.003l-0.006,0.009      c-0.026,0.024-0.012-0.01,0.029-0.059c0.014-0.032,0.029-0.062,0.01-0.021l-0.006,0.017c0.025-0.029,0.055-0.062,0.096-0.095      c0.23-0.194,0.574-0.389,0.855-0.52c0.283-0.134,0.529-0.229,0.682-0.287c0.174-0.062,0.265-0.095,0.265-0.095l0.021-0.009      c0.67-0.24,1.064-0.954,0.896-1.662c-0.185-0.762-0.949-1.229-1.709-1.046c0,0-0.104,0.023-0.304,0.072      C26.291,4.13,25.987,4.209,25.57,4.35c-0.416,0.148-0.934,0.322-1.592,0.762c-0.324,0.229-0.717,0.521-1.074,1.104L22.84,6.325      l-0.016,0.027l-0.045,0.097l-0.014,0.026l-0.051,0.109c-0.013,0.016-0.051,0.117-0.08,0.198l-0.084,0.256      c-0.072,0.273-0.125,0.548-0.146,0.812c-0.078,1.067,0.115,2.026,0.535,3.065c0.446,1.049,1.096,1.908,1.721,2.698      c0.621,0.777,1.197,1.518,1.677,2.33c0.233,0.396,0.457,0.826,0.604,1.207c0.179,0.447,0.278,0.843,0.34,1.271      c0.058,0.417,0.052,0.821-0.024,1.19l-0.031,0.136l0.006-0.014c0.006-0.021-0.021,0.087-0.01,0.031l0.004-0.018v-0.002      l-0.012,0.043l-0.033,0.114c-0.023,0.099-0.033,0.103-0.045,0.136c-0.006,0.023-0.021,0.066-0.043,0.114      c-0.07,0.183-0.162,0.364-0.271,0.547c-0.221,0.362-0.522,0.716-0.883,1.03c-0.093,0.08-0.187,0.156-0.281,0.229l-0.073,0.054      l-0.002,0.004l0.022-0.016c0.082-0.059-0.08,0.057-0.06,0.04l0.033-0.024l-0.002,0.002l-0.213,0.138l-0.43,0.278      c-0.139,0.088-0.219,0.108-0.328,0.168c-0.107,0.052-0.193,0.108-0.318,0.16l-0.385,0.154c-0.248,0.118-0.531,0.182-0.799,0.275      c-0.277,0.078-0.562,0.143-0.852,0.205c-0.299,0.037-0.588,0.111-0.898,0.127c-1.223,0.121-2.535,0.074-3.873-0.149      c-1.25-0.196-2.525-0.521-3.773-0.963c-1.16,0.323-2.352,0.981-3.746,1.479c-0.381,0.135-0.781,0.254-1.197,0.344      c0.27,0.213,0.541,0.414,0.818,0.595c0.801,0.519,1.593,0.907,2.443,1.243c1.562,0.609,3.164,1.056,4.793,1.345      c1.627,0.276,3.297,0.354,4.957,0.192c0.412-0.023,0.83-0.115,1.238-0.174c0.412-0.086,0.822-0.179,1.227-0.291      c0.4-0.135,0.807-0.233,1.191-0.412l0.58-0.248c0.193-0.088,0.406-0.211,0.604-0.315c0.191-0.106,0.426-0.229,0.574-0.327      l0.426-0.285l0.211-0.145l0.135-0.094l0.064-0.051l0.129-0.1c0.168-0.135,0.334-0.271,0.492-0.417      c0.635-0.58,1.193-1.246,1.635-2c0.221-0.378,0.41-0.776,0.562-1.19c0.068-0.17,0.172-0.514,0.205-0.655l0.07-0.304      c0.02-0.108,0.045-0.217,0.059-0.324C31.321,19.418,31.284,18.578,31.151,17.809z" stroke-width="1"/>
				<path fill="#91BF20" d="M9.739,18.496c-0.002,0.004-0.002,0.008-0.004,0.011C9.733,18.518,9.739,18.506,9.739,18.496z" stroke-width="1"/>
				<path fill="#91BF20" d="M7.351,22.854c-0.225-0.283-0.432-0.596-0.617-0.924c-0.004,0-0.008,0-0.012-0.002      c-0.096-0.011-0.139-0.021-0.178-0.029c-0.041-0.006-0.088-0.015-0.148-0.032c-0.113-0.025-0.223-0.063-0.332-0.104      c-0.438-0.166-0.834-0.443-1.152-0.771c-0.158-0.167-0.293-0.35-0.406-0.539c-0.027-0.048-0.059-0.096-0.08-0.145l-0.037-0.072      l-0.018-0.036L4.36,20.18c0.025,0.071,0,0.004,0.004,0.014c-0.049-0.131-0.129-0.312-0.141-0.375      c-0.27-0.773-0.076-1.578,0.426-2.43c0.119-0.211,0.256-0.422,0.396-0.632l0.227-0.345c0.076-0.124,0.15-0.247,0.227-0.369      c0.283-0.479,0.531-0.947,0.754-1.408c0.443-0.924,0.791-1.81,1.068-2.65c0.068-0.209,0.133-0.418,0.191-0.62      c0.031-0.108,0.062-0.218,0.092-0.322c0.023-0.097,0.047-0.19,0.07-0.286c0.102-0.438,0.156-0.844,0.182-1.232      c0.104-1.565-0.365-2.814-0.875-3.5c-0.25-0.348-0.49-0.573-0.656-0.712c-0.174-0.13-0.264-0.197-0.264-0.197      C5.957,5.034,5.805,5.02,5.68,5.093C5.519,5.19,5.461,5.4,5.558,5.564l0.025,0.04c0,0,0.047,0.08,0.137,0.235      c0.088,0.154,0.205,0.387,0.318,0.698c0.23,0.614,0.389,1.589,0.215,2.828C6.208,9.676,6.135,10,6.053,10.312      c-0.027,0.095-0.055,0.188-0.084,0.283c-0.027,0.082-0.057,0.168-0.086,0.252c-0.062,0.183-0.129,0.367-0.203,0.558      c-0.289,0.754-0.65,1.562-1.094,2.381c-0.223,0.407-0.467,0.819-0.734,1.226l-0.197,0.289l-0.227,0.312      c-0.166,0.228-0.336,0.463-0.502,0.722c-0.326,0.515-0.654,1.11-0.83,1.837c-0.184,0.729-0.178,1.524,0.041,2.307      c0.061,0.231,0.104,0.324,0.154,0.481l0.041,0.103l0.029,0.066l0.059,0.137c0.037,0.092,0.084,0.176,0.129,0.264      c0.182,0.349,0.404,0.679,0.662,0.979c0.518,0.6,1.168,1.104,1.928,1.44c0.191,0.083,0.385,0.161,0.588,0.223      c0.096,0.032,0.209,0.062,0.328,0.091c0.121,0.028,0.238,0.055,0.307,0.062c0.404,0.074,0.84,0.097,1.256,0.078      c0.396-0.02,0.779-0.076,1.152-0.156C8.264,23.848,7.782,23.395,7.351,22.854z" stroke-width="1"/>
				<g>
					<path fill="#91BF20" d="M13.711,22.42c-0.088-0.031-0.177-0.059-0.265-0.09c-1.045-0.389-2.06-0.951-2.738-1.609       c-0.586,0.289-1.127,0.568-1.65,0.775c-0.568,0.232-1.105,0.393-1.604,0.438c-0.248,0.022-0.479,0.025-0.721-0.006       c0.186,0.328,0.393,0.641,0.617,0.924c0.432,0.543,0.916,0.992,1.416,1.391c0.416-0.092,0.818-0.211,1.197-0.346       C11.358,23.402,12.549,22.742,13.711,22.42z" stroke-width="1"/>
					<path fill="#91BF20" d="M7.455,21.936c0.498-0.047,1.035-0.205,1.604-0.438c0.523-0.207,1.064-0.485,1.65-0.774       c-0.109-0.105-0.213-0.214-0.303-0.324c-0.324-0.399-0.529-0.812-0.629-1.267c-0.031-0.112-0.029-0.235-0.053-0.354       c0,0.002,0,0.005,0,0.007c0.002,0.035,0,0.031,0,0c0-0.004,0-0.002,0-0.007l0,0c0-0.104-0.002-0.409,0.016-0.288       c0.002,0.001,0,0.004,0,0.006c0.01-0.021,0.018-0.043,0.021-0.064c0.031-0.055,0.035-0.111,0.09-0.179       c0.15-0.266,0.578-0.633,1.122-0.937c0.539-0.305,1.222-0.592,1.888-0.834l0.562-0.196l0.496-0.154       c0.342-0.097,0.694-0.2,1.041-0.272c0.696-0.161,1.393-0.271,2.055-0.297c0.66-0.025,1.309,0,1.842,0.155       c0.539,0.147,0.973,0.38,1.32,0.696c0.354,0.297,0.588,0.818,0.781,1.286c0.045,0.127,0.065,0.325,0.049,0.467       c-0.017,0.147-0.06,0.244-0.074,0.274c-0.016,0.026,0.01,0.008-0.037,0.047c0.021-0.006-0.047,0.031-0.113,0.056       c-0.154,0.054-0.445,0.095-0.812,0.122c-0.768,0.062-1.53,0.128-2.286,0.191c-1.541,0.144-3.134,0.371-4.664,0.877       c-0.861,0.283-1.615,0.644-2.309,0.986c0.679,0.657,1.693,1.223,2.738,1.608c0.088,0.032,0.176,0.06,0.264,0.091       c0.041-0.012,0.08-0.025,0.119-0.033c1.242-0.347,2.605-0.486,4.062-0.551c0.746-0.025,1.498-0.054,2.256-0.079       c0.393-0.019,0.871-0.026,1.463-0.174c0.303-0.081,0.6-0.181,0.949-0.388c0.281-0.166,0.613-0.428,0.84-0.706       c0.48-0.566,0.727-1.222,0.824-1.841c0.098-0.629,0.068-1.229-0.098-1.854c-0.078-0.292-0.177-0.491-0.269-0.741       c-0.095-0.238-0.183-0.478-0.328-0.705c-0.139-0.229-0.271-0.464-0.422-0.688c-0.174-0.211-0.354-0.422-0.535-0.629       c-0.774-0.797-1.771-1.342-2.754-1.643c-0.992-0.313-1.961-0.377-2.896-0.375c-0.938,0.004-1.834,0.117-2.705,0.286       c-0.44,0.076-0.86,0.185-1.297,0.291l-0.655,0.185l-0.582,0.181c-0.852,0.276-1.672,0.578-2.539,1.048       c-0.428,0.232-0.861,0.498-1.289,0.848c-0.424,0.342-0.852,0.756-1.207,1.301c-0.186,0.255-0.334,0.572-0.467,0.88       c-0.059,0.161-0.113,0.325-0.164,0.491c-0.051,0.178-0.084,0.401-0.113,0.604c-0.014,0.096-0.029,0.227-0.033,0.293       l-0.004,0.146l-0.004,0.15l-0.002,0.074c0,0.078-0.006-0.123,0.002,0.186l0.006,0.053c0.029,0.275,0.043,0.555,0.102,0.828       c0.133,0.731,0.404,1.438,0.76,2.07C6.976,21.961,7.207,21.958,7.455,21.936z" stroke-width="1"/>
					<path fill="#91BF20" d="M7.455,21.936c0.498-0.047,1.035-0.205,1.604-0.438c0.523-0.207,1.064-0.485,1.65-0.774       c-0.109-0.105-0.213-0.214-0.303-0.324c-0.324-0.399-0.529-0.812-0.629-1.267c-0.031-0.112-0.029-0.235-0.053-0.354       c0,0.002,0,0.005,0,0.007c0.002,0.035,0,0.031,0,0c0-0.004,0-0.002,0-0.007l0,0c0-0.104-0.002-0.409,0.016-0.288       c0.002,0.001,0,0.004,0,0.006c0.01-0.021,0.018-0.043,0.021-0.064c0.031-0.055,0.035-0.111,0.09-0.179       c0.15-0.266,0.578-0.633,1.122-0.937c0.539-0.305,1.222-0.592,1.888-0.834l0.562-0.196l0.496-0.154       c0.342-0.097,0.694-0.2,1.041-0.272c0.696-0.161,1.393-0.271,2.055-0.297c0.66-0.025,1.309,0,1.842,0.155       c0.539,0.147,0.973,0.38,1.32,0.696c0.354,0.297,0.588,0.818,0.781,1.286c0.045,0.127,0.065,0.325,0.049,0.467       c-0.017,0.147-0.06,0.244-0.074,0.274c-0.016,0.026,0.01,0.008-0.037,0.047c0.021-0.006-0.047,0.031-0.113,0.056       c-0.154,0.054-0.445,0.095-0.812,0.122c-0.768,0.062-1.53,0.128-2.286,0.191c-1.541,0.144-3.134,0.371-4.664,0.877       c-0.861,0.283-1.615,0.644-2.309,0.986c0.679,0.657,1.693,1.223,2.738,1.608c0.088,0.032,0.176,0.06,0.264,0.091       c0.041-0.012,0.08-0.025,0.119-0.033c1.242-0.347,2.605-0.486,4.062-0.551c0.746-0.025,1.498-0.054,2.256-0.079       c0.393-0.019,0.871-0.026,1.463-0.174c0.303-0.081,0.6-0.181,0.949-0.388c0.281-0.166,0.613-0.428,0.84-0.706       c0.48-0.566,0.727-1.222,0.824-1.841c0.098-0.629,0.068-1.229-0.098-1.854c-0.078-0.292-0.177-0.491-0.269-0.741       c-0.095-0.238-0.183-0.478-0.328-0.705c-0.139-0.229-0.271-0.464-0.422-0.688c-0.174-0.211-0.354-0.422-0.535-0.629       c-0.774-0.797-1.771-1.342-2.754-1.643c-0.992-0.313-1.961-0.377-2.896-0.375c-0.938,0.004-1.834,0.117-2.705,0.286       c-0.44,0.076-0.86,0.185-1.297,0.291l-0.655,0.185l-0.582,0.181c-0.852,0.276-1.672,0.578-2.539,1.048       c-0.428,0.232-0.861,0.498-1.289,0.848c-0.424,0.342-0.852,0.756-1.207,1.301c-0.186,0.255-0.334,0.572-0.467,0.88       c-0.059,0.161-0.113,0.325-0.164,0.491c-0.051,0.178-0.084,0.401-0.113,0.604c-0.014,0.096-0.029,0.227-0.033,0.293       l-0.004,0.146l-0.004,0.15l-0.002,0.074c0,0.078-0.006-0.123,0.002,0.186l0.006,0.053c0.029,0.275,0.043,0.555,0.102,0.828       c0.133,0.731,0.404,1.438,0.76,2.07C6.976,21.961,7.207,21.958,7.455,21.936z" stroke-width="1"/>
					<path fill="#C5D560" d="M22.56,21.197c0.133-0.078,0.274-0.18,0.411-0.291c-0.393,0.164-0.811,0.273-1.229,0.345       c-1.646,0.272-3.37,0.174-5.024,0.188c-1.254,0.013-2.504,0.27-3.67,0.732c0.133,0.057,0.268,0.108,0.399,0.158       c0.088,0.031,0.177,0.059,0.265,0.09c0.041-0.011,0.08-0.025,0.119-0.033c1.241-0.346,2.604-0.486,4.062-0.551       c0.745-0.025,1.497-0.054,2.256-0.079c0.394-0.018,0.871-0.026,1.463-0.173C21.911,21.502,22.209,21.403,22.56,21.197z" stroke-width="1"/>
					<path fill="#91BF20" d="M20.354,21.496c-0.015-0.007-0.029,0.002-0.033,0.016l-0.09,0.24c0.051-0.002,0.103-0.004,0.153-0.008       l-0.014-0.227C20.371,21.51,20.364,21.5,20.354,21.496z M21.808,21.303c-0.003-0.012-0.013-0.019-0.023-0.02       c-0.014,0-0.026,0.013-0.026,0.025l-0.004,0.231c0.043-0.015,0.086-0.026,0.129-0.04L21.808,21.303z M18.631,21.469       c-0.014-0.002-0.024,0.01-0.026,0.022l-0.039,0.319c0.053-0.002,0.104-0.004,0.155-0.006l-0.065-0.315       C18.653,21.479,18.644,21.471,18.631,21.469z M16.848,21.53c-0.014-0.001-0.024,0.012-0.024,0.024l-0.01,0.346       c0.051-0.004,0.104-0.006,0.157-0.01l-0.098-0.343C16.871,21.538,16.862,21.531,16.848,21.53z M13.631,22.169       c-0.014,0.004-0.021,0.019-0.02,0.031l0.053,0.203c0.014,0.005,0.029,0.011,0.045,0.016c0.029-0.009,0.058-0.019,0.086-0.024       L13.66,22.18C13.653,22.171,13.642,22.166,13.631,22.169z M15.103,21.691c-0.015,0.002-0.025,0.016-0.022,0.029l0.038,0.389       c0.062-0.01,0.123-0.021,0.185-0.028l-0.172-0.373C15.125,21.697,15.114,21.689,15.103,21.691z" stroke-width="1"/>
					<path fill="#91BF20" d="M9.776,19.131c-0.031-0.111-0.029-0.236-0.053-0.354c0,0.002,0,0.005,0,0.008c0-0.005,0-0.003,0-0.008       l0,0c0-0.104-0.002-0.408,0.016-0.288c0.002,0.001,0,0.005,0,0.007c0.01-0.021,0.018-0.044,0.021-0.066       c0.031-0.054,0.035-0.111,0.09-0.177c0.129-0.228,0.465-0.524,0.898-0.797c-0.818-0.625-1.658-1.219-2.594-1.64       c-0.309-0.137-0.621-0.258-0.934-0.383c-0.201,0.213-0.395,0.449-0.57,0.72c-0.186,0.254-0.334,0.571-0.467,0.879       c-0.059,0.161-0.113,0.325-0.164,0.491c-0.051,0.178-0.084,0.401-0.113,0.604c-0.014,0.096-0.029,0.227-0.033,0.292       l-0.004,0.147l-0.004,0.149L5.863,18.79c0,0.079-0.004-0.122,0.002,0.187l0.006,0.052c0.029,0.276,0.043,0.556,0.102,0.829       c0.133,0.73,0.404,1.437,0.76,2.07c0.242,0.029,0.473,0.027,0.721,0.006c0.498-0.049,1.035-0.205,1.604-0.438       c0.523-0.209,1.064-0.485,1.65-0.774c-0.109-0.106-0.213-0.214-0.303-0.324C10.08,19.996,9.876,19.586,9.776,19.131z" stroke-width="1"/>
					<path fill="#91BF20" d="M31.151,17.809c-0.129-0.762-0.371-1.504-0.644-2.115c-0.299-0.682-0.614-1.239-0.969-1.771       c-0.693-1.044-1.459-1.906-2.096-2.624c-0.625-0.707-1.109-1.309-1.369-1.806c-0.268-0.505-0.402-1.109-0.404-1.445       c-0.006-0.088,0.002-0.151,0.002-0.201c-0.002,0.007-0.006,0.014-0.012,0.02c-0.004,0.005-0.023,0.026,0.002-0.029l0.041-0.112       l0.004-0.012c0,0.002-0.002,0.004-0.004,0.006c-0.012,0.024-0.025,0.053-0.023,0.047v0.003l-0.006,0.009       c-0.026,0.024-0.012-0.01,0.029-0.059c0.014-0.032,0.029-0.062,0.01-0.021l-0.006,0.017c0.025-0.029,0.055-0.062,0.096-0.095       c0.23-0.194,0.574-0.389,0.855-0.52c0.283-0.134,0.529-0.229,0.682-0.287c0.174-0.062,0.265-0.095,0.265-0.095l0.021-0.009       c0.67-0.24,1.064-0.954,0.896-1.662c-0.185-0.762-0.949-1.229-1.709-1.046c0,0-0.104,0.023-0.304,0.072       C26.291,4.13,25.987,4.209,25.57,4.35c-0.416,0.148-0.934,0.322-1.592,0.762c-0.324,0.229-0.717,0.521-1.074,1.104L22.84,6.325       l-0.016,0.027l-0.045,0.097l-0.014,0.026l-0.051,0.109c-0.013,0.016-0.051,0.117-0.08,0.198l-0.084,0.256       c-0.072,0.273-0.125,0.548-0.146,0.812c-0.078,1.067,0.115,2.026,0.535,3.065c0.446,1.049,1.096,1.908,1.721,2.698       c0.621,0.777,1.197,1.518,1.677,2.33c0.233,0.396,0.457,0.826,0.604,1.207c0.179,0.447,0.278,0.843,0.34,1.271       c0.058,0.417,0.052,0.821-0.024,1.19l-0.031,0.136l0.006-0.014c0.006-0.021-0.021,0.087-0.01,0.031l0.004-0.018v-0.002       l-0.012,0.043l-0.033,0.114c-0.023,0.099-0.033,0.103-0.045,0.136c-0.006,0.023-0.021,0.066-0.043,0.114       c-0.07,0.183-0.162,0.364-0.271,0.547c-0.221,0.362-0.522,0.716-0.883,1.03c-0.093,0.08-0.187,0.156-0.281,0.229l-0.073,0.054       l-0.002,0.004l0.022-0.016c0.082-0.059-0.08,0.057-0.06,0.04l0.033-0.024l-0.002,0.002l-0.213,0.138l-0.43,0.278       c-0.139,0.088-0.219,0.108-0.328,0.168c-0.107,0.052-0.193,0.108-0.318,0.16l-0.385,0.154       c-0.248,0.118-0.531,0.182-0.799,0.275c-0.277,0.078-0.562,0.143-0.852,0.205c-0.299,0.037-0.588,0.111-0.898,0.127       c-1.223,0.121-2.535,0.074-3.873-0.149c-1.25-0.196-2.525-0.521-3.773-0.963c-1.16,0.323-2.352,0.981-3.746,1.479       c-0.381,0.135-0.781,0.254-1.197,0.344c0.27,0.213,0.541,0.414,0.818,0.595c0.801,0.519,1.593,0.907,2.443,1.243       c1.562,0.609,3.164,1.056,4.793,1.345c1.627,0.276,3.297,0.354,4.957,0.192c0.412-0.023,0.83-0.115,1.238-0.174       c0.412-0.086,0.822-0.179,1.227-0.291c0.4-0.135,0.807-0.233,1.191-0.412l0.58-0.248c0.193-0.088,0.406-0.211,0.604-0.315       c0.191-0.106,0.426-0.229,0.574-0.327l0.426-0.285l0.211-0.145l0.135-0.094l0.064-0.051l0.129-0.1       c0.168-0.135,0.334-0.271,0.492-0.417c0.635-0.58,1.193-1.246,1.635-2c0.221-0.378,0.41-0.776,0.562-1.19       c0.068-0.17,0.172-0.514,0.205-0.655l0.07-0.304c0.02-0.108,0.045-0.217,0.059-0.324       C31.321,19.418,31.284,18.578,31.151,17.809z" stroke-width="1"/>
					<path fill="#91BF20" d="M7.351,22.854c-0.225-0.283-0.432-0.596-0.617-0.924c-0.004,0-0.008,0-0.012-0.002       c-0.096-0.011-0.139-0.021-0.178-0.029c-0.041-0.006-0.088-0.015-0.148-0.032c-0.113-0.025-0.223-0.063-0.332-0.104       c-0.438-0.166-0.834-0.443-1.152-0.771c-0.158-0.167-0.293-0.35-0.406-0.539c-0.027-0.048-0.059-0.096-0.08-0.145l-0.037-0.072       l-0.018-0.036L4.36,20.18c0.025,0.071,0,0.004,0.004,0.014c-0.049-0.131-0.129-0.312-0.141-0.375       c-0.27-0.773-0.076-1.578,0.426-2.43c0.119-0.211,0.256-0.422,0.396-0.632l0.227-0.345c0.076-0.124,0.15-0.247,0.227-0.369       c0.283-0.479,0.531-0.947,0.754-1.408c0.443-0.924,0.791-1.81,1.068-2.65c0.068-0.209,0.133-0.418,0.191-0.62       c0.031-0.108,0.062-0.218,0.092-0.322c0.023-0.097,0.047-0.19,0.07-0.286c0.102-0.438,0.156-0.844,0.182-1.232       c0.104-1.565-0.365-2.814-0.875-3.5c-0.25-0.348-0.49-0.573-0.656-0.712c-0.174-0.13-0.264-0.197-0.264-0.197       C5.957,5.034,5.805,5.02,5.68,5.093C5.519,5.19,5.461,5.4,5.558,5.564l0.025,0.04c0,0,0.047,0.08,0.137,0.235       c0.088,0.154,0.205,0.387,0.318,0.698c0.23,0.614,0.389,1.589,0.215,2.828C6.208,9.676,6.135,10,6.053,10.312       c-0.027,0.095-0.055,0.188-0.084,0.283c-0.027,0.082-0.057,0.168-0.086,0.252c-0.062,0.183-0.129,0.367-0.203,0.558       c-0.289,0.754-0.65,1.562-1.094,2.381c-0.223,0.407-0.467,0.819-0.734,1.226l-0.197,0.289l-0.227,0.312       c-0.166,0.228-0.336,0.463-0.502,0.722c-0.326,0.515-0.654,1.11-0.83,1.837c-0.184,0.729-0.178,1.524,0.041,2.307       c0.061,0.231,0.104,0.324,0.154,0.481l0.041,0.103l0.029,0.066l0.059,0.137c0.037,0.092,0.084,0.176,0.129,0.264       c0.182,0.349,0.404,0.679,0.662,0.979c0.518,0.6,1.168,1.104,1.928,1.44c0.191,0.083,0.385,0.161,0.588,0.223       c0.096,0.032,0.209,0.062,0.328,0.091c0.121,0.028,0.238,0.055,0.307,0.062c0.404,0.074,0.84,0.097,1.256,0.078       c0.396-0.02,0.779-0.076,1.152-0.156C8.264,23.848,7.782,23.395,7.351,22.854z" stroke-width="1"/>
				</g>
				<path fill="#2EA736" d="M6.735,6.947c0.098-0.016,0.188-0.062,0.273-0.114c0.113-0.068,0.215-0.156,0.307-0.252      C7.21,6.367,7.094,6.179,6.979,6.021C6.961,5.999,6.946,5.979,6.928,5.958C6.86,6.046,6.774,6.119,6.687,6.189      C6.58,6.275,6.471,6.367,6.416,6.49C6.356,6.614,6.358,6.775,6.457,6.871C6.528,6.94,6.635,6.962,6.735,6.947z M4.269,18.201      c-0.152,0-0.307-0.014-0.449,0.031c-0.154,0.047-0.281,0.154-0.396,0.271c-0.158,0.158-0.301,0.341-0.359,0.556      c-0.098,0.347,0.057,0.748,0.361,0.938c0.258,0.161,0.6,0.151,0.863,0.004c-0.031-0.078-0.057-0.147-0.062-0.183      C4.044,19.295,4.075,18.758,4.269,18.201z M4.924,16.947c0.041-0.063,0.078-0.127,0.119-0.189l0.227-0.345      c0.076-0.124,0.152-0.247,0.229-0.369c0.16-0.271,0.307-0.538,0.447-0.806c-0.154,0.091-0.314,0.169-0.48,0.218      c-0.229,0.065-0.5-0.035-0.721,0.056c-0.213,0.086-0.385,0.377-0.441,0.586c-0.049,0.184-0.029,0.389,0.072,0.549      C4.491,16.828,4.708,16.932,4.924,16.947z M6.396,21.867c-0.113-0.025-0.223-0.064-0.332-0.104      c-0.438-0.166-0.834-0.442-1.152-0.771c-0.064-0.067-0.121-0.141-0.176-0.212c-0.182,0.29-0.301,0.62-0.281,0.959      c0.027,0.479,0.359,0.94,0.818,1.079c0.461,0.139,1.016-0.086,1.215-0.521c0.055-0.122,0.082-0.255,0.086-0.389      c-0.01-0.003-0.021-0.005-0.031-0.008C6.503,21.893,6.457,21.885,6.396,21.867z M6.791,8.287      C6.75,8.371,6.733,8.468,6.733,8.561c0,0.09,0.018,0.187,0.082,0.248c0.084,0.082,0.217,0.082,0.334,0.062      c0.258-0.048,0.498-0.177,0.689-0.356C7.799,8.082,7.719,7.686,7.609,7.33c-0.113,0.216-0.25,0.417-0.438,0.575      C7.036,8.024,6.873,8.124,6.791,8.287z M6.03,12.723c-0.209,0.084-0.365,0.265-0.48,0.457c-0.09,0.15-0.16,0.323-0.131,0.496      c0.051,0.303,0.396,0.479,0.701,0.449c0.148-0.014,0.291-0.062,0.424-0.131c0.225-0.507,0.418-1,0.59-1.479      c-0.088,0.047-0.182,0.086-0.283,0.105C6.58,12.68,6.289,12.621,6.03,12.723z M6.88,10.375      c-0.193,0.104-0.342,0.297-0.369,0.516c-0.025,0.217,0.086,0.451,0.285,0.545c0.168,0.082,0.369,0.056,0.549,0.006      c0.055-0.014,0.107-0.032,0.158-0.051c0.004-0.01,0.006-0.02,0.01-0.027c0.031-0.107,0.061-0.217,0.09-0.322      c0.025-0.098,0.049-0.191,0.072-0.285c0.072-0.316,0.115-0.611,0.146-0.9c-0.146,0.149-0.312,0.273-0.508,0.354      C7.169,10.268,7.014,10.301,6.88,10.375z" stroke-width="1"/>
				<path fill="#C5D560" d="M6.351,23.395c-1.281-0.104-2.438-1.033-3.135-2.07c-1.006-1.495-0.643-3.291,0.182-4.78      c1.023-1.854,2.424-3.554,2.926-5.61c0.434-1.777,0.352-4.138-0.762-5.72C5.5,5.318,5.489,5.448,5.555,5.561l0.023,0.04      c0,0,0.047,0.08,0.137,0.235c0.088,0.153,0.207,0.387,0.32,0.697c0.23,0.615,0.389,1.59,0.215,2.83      c-0.045,0.311-0.117,0.633-0.201,0.947c-0.027,0.094-0.055,0.188-0.084,0.281c-0.027,0.083-0.055,0.168-0.084,0.254      c-0.062,0.182-0.131,0.366-0.203,0.557c-0.289,0.754-0.65,1.562-1.096,2.38c-0.223,0.409-0.465,0.821-0.732,1.227l-0.197,0.29      l-0.227,0.312c-0.168,0.228-0.338,0.463-0.502,0.722c-0.328,0.515-0.654,1.11-0.832,1.837c-0.182,0.729-0.178,1.523,0.043,2.307      c0.061,0.231,0.104,0.324,0.154,0.481l0.039,0.103l0.029,0.066l0.059,0.137c0.037,0.092,0.084,0.176,0.129,0.264      c0.184,0.349,0.404,0.678,0.662,0.979c0.52,0.6,1.168,1.104,1.928,1.441c0.191,0.082,0.387,0.16,0.59,0.222      c0.096,0.032,0.207,0.062,0.326,0.09c0.121,0.029,0.24,0.056,0.307,0.063c0.406,0.074,0.84,0.097,1.256,0.078      c0.396-0.02,0.781-0.076,1.152-0.157c-0.371-0.291-0.73-0.613-1.066-0.979C7.256,23.365,6.801,23.432,6.351,23.395z" stroke-width="1"/>
				<path fill="#C5D560" d="M31.151,17.809c-0.129-0.762-0.371-1.504-0.644-2.115c-0.299-0.682-0.614-1.239-0.969-1.771      c-0.693-1.044-1.459-1.906-2.096-2.624c-0.625-0.707-1.109-1.309-1.369-1.806c-0.268-0.505-0.402-1.109-0.404-1.445      c-0.006-0.088,0.002-0.151,0.002-0.201c-0.002,0.007-0.006,0.014-0.012,0.02c-0.004,0.005-0.023,0.026,0.002-0.029      c0,0,0.041-0.112,0.041-0.118c-0.012,0.024-0.025,0.053-0.027,0.058c-0.026,0.024-0.012-0.009,0.027-0.058      c0.016-0.033,0.031-0.062,0.012-0.021l-0.006,0.017c0.023-0.029,0.053-0.062,0.094-0.094c0.058-0.048,0.119-0.096,0.188-0.142      c0.063-0.045,0.134-0.09,0.209-0.135c-0.077-0.04-0.178-0.031-0.262,0.005c-0.386,0.16-0.515,0.635-0.539,1.048      c-0.09,1.398,0.451,2.762,1.129,3.99c0.677,1.226,1.5,2.375,2.06,3.658c0.69,1.59,0.953,3.376,0.66,5.085      c-0.236,1.376-0.953,2.493-2.035,3.363C25.221,26.098,22.655,26.895,20.1,27c-2.088,0.084-4.172-0.273-6.166-0.882      c-1.572-0.479-3.434-1.032-4.645-2.204c-0.848-0.82-1.691-1.66-2.348-2.643c-0.52-0.773-0.916-1.647-1.072-2.551l-0.002,0.073      c0,0.079-0.004-0.122,0.002,0.187l0.006,0.052c0.029,0.276,0.043,0.556,0.102,0.83c0.133,0.729,0.404,1.437,0.76,2.069      c0.186,0.328,0.393,0.64,0.617,0.922c0.432,0.543,0.916,0.994,1.418,1.39c0.268,0.213,0.541,0.414,0.818,0.596      c0.312,0.201,0.625,0.382,0.941,0.55c0.492,0.246,0.986,0.489,1.502,0.692c1.562,0.61,3.164,1.056,4.791,1.345      c1.629,0.276,3.3,0.354,4.957,0.193c0.414-0.023,0.83-0.116,1.24-0.176c0.409-0.086,0.819-0.176,1.226-0.288      c0.399-0.138,0.807-0.233,1.192-0.414l0.578-0.248c0.192-0.086,0.405-0.21,0.604-0.313c0.19-0.106,0.426-0.229,0.573-0.328      l0.427-0.287l0.211-0.143l0.135-0.095l0.063-0.05l0.129-0.1c0.168-0.135,0.334-0.271,0.492-0.418      c0.635-0.58,1.192-1.246,1.635-2c0.222-0.377,0.41-0.775,0.562-1.191c0.068-0.17,0.175-0.512,0.205-0.653l0.07-0.304      c0.021-0.107,0.045-0.219,0.059-0.325C31.321,19.418,31.284,18.578,31.151,17.809z" stroke-width="1"/>
				<path fill="#91BF20" d="M28.092,24.418c-0.01-0.008-0.022-0.011-0.032-0.002c-0.013,0.009-0.015,0.023-0.007,0.035      c0,0,0.183,0.247,0.4,0.473c0.049-0.041,0.096-0.078,0.143-0.121c-0.004-0.002-0.008-0.005-0.012-0.008      C28.327,24.626,28.092,24.418,28.092,24.418z M29.448,17.727c0,0.016,0.013,0.025,0.024,0.024c0,0,0.554-0.026,1.091-0.153      c0.183-0.041,0.358-0.086,0.519-0.127c-0.019-0.082-0.031-0.164-0.052-0.246c-0.155,0.062-0.336,0.133-0.519,0.195      c-0.508,0.188-1.043,0.28-1.043,0.28C29.459,17.703,29.446,17.715,29.448,17.727z M29.653,15.291      c0.207-0.064,0.399-0.146,0.56-0.22c-0.041-0.08-0.082-0.159-0.123-0.235c-0.138,0.092-0.312,0.195-0.502,0.283      c-0.213,0.104-0.427,0.197-0.595,0.25c-0.166,0.053-0.28,0.062-0.28,0.062c-0.015,0.002-0.023,0.015-0.023,0.027      c0,0.014,0.012,0.023,0.027,0.023c0,0,0.121,0.005,0.301-0.025C29.194,15.432,29.426,15.363,29.653,15.291z M26.553,10.423      c-0.12,0.068-0.239,0.14-0.334,0.189c-0.086,0.056-0.131,0.03-0.131,0.03c-0.012-0.009-0.026-0.006-0.037,0.006      c-0.008,0.012-0.006,0.027,0.007,0.035c-0.009,0.008,0.092,0.061,0.198,0.015c0.103-0.028,0.234-0.067,0.367-0.106      c0.062-0.018,0.119-0.033,0.176-0.051c-0.047-0.061-0.098-0.121-0.143-0.179C26.625,10.383,26.588,10.402,26.553,10.423z       M30.392,21.486c-0.478-0.016-0.949-0.112-0.949-0.112c-0.015-0.002-0.024,0.004-0.03,0.019      c-0.005,0.014,0.004,0.026,0.018,0.031c0,0,0.459,0.163,0.945,0.245c0.141,0.024,0.278,0.044,0.407,0.058      c0.021-0.053,0.048-0.104,0.065-0.158c0.013-0.021,0.021-0.055,0.031-0.082C30.731,21.492,30.563,21.494,30.392,21.486z       M26.131,25.781c-0.006-0.01-0.021-0.014-0.031-0.01c-0.014,0.006-0.02,0.021-0.014,0.033c0,0,0.094,0.25,0.217,0.492      c0.008,0.014,0.016,0.024,0.021,0.038c0.06-0.03,0.117-0.062,0.175-0.094c-0.013-0.017-0.027-0.03-0.041-0.048      C26.282,25.998,26.131,25.781,26.131,25.781z M27.719,11.613c-0.059,0.039-0.116,0.078-0.178,0.115      c-0.35,0.226-0.723,0.414-0.723,0.414c-0.012,0.006-0.018,0.021-0.014,0.03c0.006,0.013,0.02,0.021,0.033,0.017      c0,0,0.399-0.129,0.789-0.299c0.082-0.035,0.164-0.072,0.241-0.107C27.819,11.725,27.771,11.67,27.719,11.613z M24.168,26.471      c-0.004-0.012-0.015-0.021-0.027-0.021c-0.014,0-0.025,0.014-0.023,0.026c0,0,0.006,0.291,0.078,0.58      c0.008,0.035,0.018,0.066,0.027,0.101c0.008-0.002,0.016-0.003,0.021-0.007c0.06-0.02,0.119-0.036,0.179-0.057      c-0.019-0.033-0.037-0.063-0.056-0.101C24.237,26.748,24.168,26.471,24.168,26.471z M21.813,27.223      c-0.002-0.01-0.013-0.019-0.021-0.021c-0.015,0-0.029,0.01-0.031,0.022c0,0-0.025,0.192-0.025,0.394c0,0.001,0,0.001,0,0.001      c0.014-0.001,0.029-0.001,0.043-0.002c0.049-0.004,0.096-0.014,0.143-0.018c0-0.004-0.002-0.009-0.004-0.013      C21.851,27.41,21.813,27.223,21.813,27.223z M29.071,13.262c-0.051-0.068-0.103-0.136-0.151-0.203      c-0.095,0.097-0.205,0.198-0.33,0.295c-0.326,0.256-0.719,0.412-0.719,0.412c-0.013,0.006-0.021,0.019-0.017,0.03      c0.004,0.015,0.019,0.021,0.03,0.019c0,0,0.42-0.092,0.804-0.306C28.832,13.432,28.961,13.346,29.071,13.262z M10.108,24.768      c-0.012,0.012-0.027,0.026-0.045,0.045C10.026,24.85,9.979,24.9,9.928,24.95c-0.021,0.021-0.041,0.041-0.059,0.062      c0.062,0.038,0.127,0.079,0.191,0.115c0.008-0.025,0.018-0.055,0.025-0.082c0.021-0.066,0.041-0.134,0.057-0.184      c0.008-0.025,0.014-0.047,0.02-0.062c0.01-0.004-0.039,0.011-0.031,0.001h0.002l0.031-0.012c0.002,0,0.004-0.001,0.004-0.002      c0.006-0.007,0.008-0.018,0.002-0.023c0,0-0.002-0.002-0.008-0.008C10.166,24.738,10.101,24.756,10.108,24.768z M7.411,22.197      l-0.012,0.002c-0.039,0.017-0.027,0.015-0.045,0.021c-0.012,0.006-0.025,0.014-0.039,0.021c-0.059,0.03-0.137,0.073-0.213,0.114      c-0.027,0.016-0.055,0.028-0.08,0.043c0.041,0.062,0.086,0.119,0.129,0.181c0.021-0.026,0.043-0.054,0.066-0.08      c0.057-0.067,0.113-0.135,0.154-0.185c0.01-0.014,0.021-0.023,0.029-0.034c0.002-0.007,0.016-0.019,0.012-0.019      c0,0.004,0.035,0,0.035-0.027C7.444,22.227,7.463,22.209,7.411,22.197z M7.396,22.229c0.004-0.015,0.031-0.021,0.025-0.017      C7.411,22.21,7.401,22.219,7.396,22.229z M6.53,20.949l-0.219,0.084c0.021,0.056,0.045,0.107,0.068,0.162l0.188-0.191v-0.001      l0.006-0.006l0.135-0.104c-0.002-0.002-0.004-0.006-0.006-0.009L6.53,20.949z M11.914,25.699c0,0-0.099,0.122-0.195,0.244l0,0      c0.057,0.023,0.111,0.051,0.166,0.072c0.037-0.148,0.074-0.295,0.074-0.295c0.002-0.011,0-0.021-0.009-0.027      C11.938,25.686,11.922,25.688,11.914,25.699z M8.055,23.625c0.049,0.046,0.098,0.089,0.146,0.133l0.246-0.348      c0.008-0.01,0.008-0.021,0-0.029c-0.008-0.013-0.023-0.017-0.035-0.007L8.055,23.625z M19.312,27.225      c-0.015-0.006-0.029,0-0.033,0.015c0,0-0.084,0.209-0.133,0.437c0.06,0.002,0.118,0.008,0.18,0.01      c-0.018-0.217,0.002-0.434,0.002-0.434C19.33,27.239,19.321,27.227,19.312,27.225z M29.006,22.85      c-0.01-0.006-0.024-0.004-0.033,0.008c-0.01,0.011-0.008,0.027,0.007,0.035c0,0,0.342,0.283,0.767,0.438      c0.045,0.017,0.09,0.03,0.135,0.048c0.043-0.061,0.086-0.122,0.127-0.186c-0.068-0.012-0.14-0.024-0.209-0.039      C29.381,23.072,29.006,22.85,29.006,22.85z M30.649,19.67c-0.479,0.072-0.967,0.082-0.967,0.082      c-0.013,0.001-0.023,0.012-0.025,0.021c0,0.017,0.011,0.027,0.022,0.029c0,0,0.488,0.057,0.982,0.049      c0.203,0,0.404-0.012,0.572-0.023c0.008-0.091,0.018-0.184,0.021-0.271C31.088,19.596,30.871,19.639,30.649,19.67z       M16.565,26.939l-0.192,0.393c0.063,0.014,0.129,0.025,0.192,0.039l0.049-0.415c0.002-0.011-0.004-0.021-0.017-0.026      C16.588,26.922,16.571,26.928,16.565,26.939z M14.2,26.389c-0.01,0.01-0.006,0.008-0.01,0.012l-0.004,0.009l-0.009,0.016      c-0.006,0.021-0.018,0.038-0.039,0.07c-0.034,0.062-0.084,0.146-0.131,0.229c-0.006,0.01-0.01,0.018-0.014,0.024      c0.061,0.019,0.123,0.039,0.184,0.058c0-0.008,0.002-0.015,0.002-0.021c0.019-0.094,0.033-0.188,0.046-0.258      c0.008-0.03,0.016-0.069,0.014-0.09l0.002-0.013l-0.002-0.002c-0.002,0.005,0.002-0.002-0.008,0.009l0,0      c0.004-0.004,0.015-0.007,0.012-0.015c0-0.003,0.003,0.001,0-0.019C14.239,26.391,14.231,26.373,14.2,26.389z M14.194,26.421      C14.194,26.412,14.196,26.42,14.194,26.421c0.002,0.009,0.011,0.009,0.017,0.013C14.202,26.432,14.196,26.426,14.194,26.421z" stroke-width="1"/>
				<path fill="#2EA736" d="M27.055,20.242c-0.063,0.154-0.141,0.311-0.233,0.462c-0.221,0.362-0.522,0.717-0.883,1.032      c-0.091,0.078-0.185,0.154-0.281,0.229l-0.071,0.055l-0.004,0.002l0.024-0.016c0.082-0.058-0.08,0.057-0.06,0.041l0.033-0.025      l-0.002,0.002l-0.215,0.141l-0.197,0.128c0.129,0.175,0.262,0.343,0.406,0.504c0.734,0.827,2.096,1.255,2.623-0.073      c0.236-0.593,0.068-1.303-0.344-1.789C27.627,20.662,27.338,20.457,27.055,20.242z M23.795,22.965      c-0.222,0.09-0.459,0.151-0.688,0.236c-0.276,0.074-0.562,0.141-0.853,0.202c-0.299,0.036-0.588,0.11-0.897,0.127      c-0.281,0.028-0.57,0.046-0.86,0.056c-0.048,0.219-0.078,0.438-0.078,0.662c0.002,0.633,0.28,1.491,0.852,1.844      c0.637,0.393,1.816,0.256,2.375-0.215c0.389-0.326,0.615-0.854,0.545-1.355c-0.047-0.336-0.215-0.641-0.311-0.965      C23.821,23.365,23.799,23.164,23.795,22.965z M23.631,9c0.291-0.066,0.574-0.209,0.75-0.449      c0.145-0.199,0.201-0.449,0.225-0.693c0.02-0.228,0.014-0.463-0.059-0.68c-0.144-0.436-0.531-0.755-0.687-1.186      c-0.088-0.246-0.092-0.503-0.056-0.757c-0.286,0.214-0.604,0.492-0.901,0.979L22.84,6.323l-0.017,0.028l-0.045,0.097      l-0.015,0.026l-0.051,0.107c-0.012,0.018-0.051,0.119-0.08,0.2l-0.084,0.257c-0.071,0.271-0.125,0.547-0.145,0.81      c-0.023,0.302-0.018,0.593,0.002,0.88C22.723,8.987,23.129,9.113,23.631,9z M28.25,16.285c-0.191-0.428-0.47-0.699-0.957-0.729      c-0.345-0.02-0.693,0.056-1.031-0.01c-0.078-0.017-0.148-0.047-0.221-0.074c0.1,0.156,0.2,0.312,0.295,0.471      c0.233,0.396,0.457,0.828,0.606,1.209c0.138,0.348,0.229,0.66,0.291,0.984c0.188-0.003,0.379-0.031,0.562-0.101      c0.315-0.12,0.535-0.433,0.602-0.765C28.461,16.941,28.385,16.596,28.25,16.285z M15.002,22.826      c-0.267,0.484-0.392,1.048-0.297,1.589c0.125,0.708,0.653,1.354,1.352,1.524c0.232,0.059,0.475,0.063,0.711,0.043      c0.559-0.049,1.109-0.26,1.281-0.816c0.162-0.521,0.373-1.182,0.768-1.575c0.016-0.019,0.037-0.028,0.055-0.046      c-0.459-0.033-0.92-0.085-1.385-0.163C16.664,23.251,15.83,23.062,15.002,22.826z M25.614,12.572      c0.111-0.274,0.104-0.588,0.043-0.879c-0.047-0.223-0.129-0.444-0.291-0.604c-0.19-0.19-0.471-0.271-0.739-0.272      c-0.562-0.008-1.172,0.223-1.718,0.017c0.013,0.028,0.019,0.058,0.031,0.086c0.379,0.892,0.903,1.642,1.438,2.333      C24.905,13.295,25.396,13.119,25.614,12.572z" stroke-width="1"/>
				<path fill="#2EA736" d="M10.708,20.721c-0.109-0.104-0.213-0.213-0.303-0.322c-0.07-0.086-0.131-0.174-0.191-0.26      c-0.117,0.105-0.227,0.219-0.328,0.342C9.32,21.18,9.13,22.21,9.546,23.031c0.447,0.885,1.822,1.519,2.637,0.732      c0.215-0.205,0.346-0.479,0.514-0.725c0.197-0.283,0.457-0.521,0.748-0.709C12.399,21.941,11.387,21.377,10.708,20.721z       M9.796,19.196c-0.006-0.021-0.014-0.043-0.02-0.064c-0.031-0.112-0.029-0.235-0.053-0.354c0,0.002,0,0.005,0,0.007      c0-0.004,0-0.002,0-0.007l0,0c0-0.104-0.002-0.409,0.016-0.288c0.002,0.001,0,0.004,0,0.006c0.01-0.021,0.018-0.043,0.021-0.064      c0.031-0.055,0.035-0.111,0.09-0.178c0.094-0.165,0.301-0.37,0.572-0.572c-0.33-0.399-0.793-0.69-1.299-0.803      c-0.943-0.208-1.953,0.204-2.449,1.033c-0.277,0.464-0.391,1.052-0.191,1.554c0.197,0.503,0.756,0.871,1.283,0.759      c0.398-0.086,0.697-0.401,1.01-0.66C9.062,19.322,9.438,19.117,9.796,19.196z" stroke-width="1"/>
				<path fill="#2EA736" d="M15.547,14.947c0.926-0.543,0.933-1.969,0.142-2.625c-0.099-0.078-0.207-0.143-0.322-0.199      c-0.387,0.048-0.771,0.107-1.147,0.182c-0.439,0.077-0.861,0.186-1.295,0.291l-0.658,0.184l-0.217,0.066      c0.051,0.014,0.104,0.021,0.158,0.026c0.493,0.054,0.959,0.317,1.274,0.7c0.312,0.382,0.487,0.871,0.817,1.236      C14.604,15.145,15.157,15.178,15.547,14.947z M21.655,17.994c-0.215-0.113-0.446-0.188-0.688-0.227      c0.031,0.123,0.05,0.277,0.035,0.396c-0.016,0.146-0.059,0.243-0.074,0.273c-0.016,0.027,0.011,0.009-0.034,0.047      c0.021-0.006-0.048,0.031-0.115,0.057c-0.153,0.053-0.444,0.094-0.812,0.12c-0.453,0.039-0.9,0.076-1.353,0.114      c0.64,0.473,1.181,1.076,1.562,1.772c0.121,0.22,0.24,0.462,0.463,0.575c0.15,0.075,0.326,0.082,0.492,0.062      c0.58-0.074,1.104-0.49,1.308-1.039C22.705,19.434,22.34,18.357,21.655,17.994z M19.683,14.701      c0.27-0.092,0.534-0.209,0.737-0.406c0.215-0.209,0.344-0.49,0.437-0.775c0.065-0.205,0.106-0.42,0.131-0.637      c-0.383-0.199-0.774-0.369-1.17-0.49c-0.742-0.233-1.474-0.328-2.185-0.361c0.332,0.402,0.552,0.9,0.601,1.423      c0.039,0.409,0.002,0.885,0.306,1.164C18.834,14.891,19.301,14.828,19.683,14.701z M10.957,16.852      c0.383,0.197,0.883,0,1.133-0.354c0.248-0.354,0.291-0.812,0.246-1.241c-0.062-0.595-0.293-1.309-0.888-1.569      c-0.442-0.195-0.955-0.213-1.432-0.104c-0.287,0.127-0.576,0.262-0.873,0.422c-0.098,0.053-0.197,0.109-0.297,0.168      c-0.078,0.072-0.15,0.15-0.209,0.242c-0.168,0.264-0.209,0.631-0.025,0.885c0.186,0.258,0.527,0.332,0.826,0.439      c0.391,0.144,0.75,0.376,1.037,0.678C10.626,16.574,10.762,16.752,10.957,16.852z M12.194,20.041      c-0.53,0.216-1.022,0.449-1.486,0.68c0.538,0.519,1.279,0.978,2.083,1.338c0.221-0.287,0.229-0.692,0.12-1.039      C12.791,20.625,12.528,20.28,12.194,20.041z M23.858,16.055c-0.095-0.238-0.183-0.477-0.328-0.705      c-0.139-0.229-0.271-0.463-0.422-0.686c-0.033-0.042-0.069-0.082-0.104-0.123c-0.261-0.068-0.537-0.068-0.793,0.009      c-0.42,0.128-0.822,0.511-1.121,0.823c-0.316,0.33-0.48,0.729-0.336,1.182c0.141,0.437,0.543,0.758,0.983,0.879      s0.918,0.062,1.354-0.076c0.375-0.119,0.75-0.319,0.938-0.662c0.017-0.03,0.021-0.064,0.037-0.098      C24.002,16.403,23.926,16.242,23.858,16.055z M17.034,18.928c-1.106,0.121-2.229,0.307-3.332,0.611      c0.357,0.179,0.802,0.391,1.07,0.688c0.313,0.35,0.428,0.809,0.892,1.021c0.301,0.138,0.651,0.117,0.973,0.034      c0.344-0.09,0.686-0.264,0.867-0.566c0.217-0.365,0.151-0.844-0.043-1.226C17.348,19.27,17.202,19.087,17.034,18.928z" stroke-width="1"/>
				<path fill="#C5D560" d="M12.34,16.68c0.172-0.067,0.345-0.135,0.519-0.197l0.562-0.196l0.496-0.154      c0.342-0.096,0.696-0.2,1.043-0.272c0.694-0.161,1.393-0.271,2.055-0.297c0.658-0.024,1.307,0,1.84,0.156      c0.539,0.146,0.973,0.379,1.32,0.697c0.313,0.262,0.531,0.7,0.711,1.122c0.035-0.131,0.022-0.276-0.012-0.411      c-0.175-0.656-0.744-1.145-1.359-1.434c-0.912-0.43-1.951-0.518-2.955-0.436C15.065,15.381,13.608,15.88,12.34,16.68z" stroke-width="1"/>
				<path fill="#91BF20" d="M19.672,15.829c-0.008-0.013-0.023-0.017-0.037-0.008c0,0-0.08,0.053-0.16,0.13      c0.049,0.021,0.096,0.043,0.143,0.066c0.023-0.088,0.057-0.164,0.057-0.164C19.674,15.848,19.674,15.838,19.672,15.829z       M18.183,15.402c-0.029-0.006-0.052,0.025-0.056,0.037c-0.004,0.011-0.01,0.021-0.014,0.033      c-0.016,0.028-0.031,0.069-0.049,0.106c0.051,0.005,0.1,0.012,0.148,0.019c-0.004-0.037-0.006-0.078-0.011-0.108      c0-0.009-0.002-0.019-0.002-0.022C18.209,15.449,18.239,15.441,18.183,15.402z M14.838,15.646      c-0.016,0.004-0.022,0.019-0.021,0.031c0,0,0.017,0.102,0.015,0.209c0.043-0.01,0.084-0.021,0.127-0.029      c0.01-0.004,0.02-0.006,0.028-0.008c-0.058-0.107-0.123-0.192-0.123-0.192C14.858,15.65,14.848,15.645,14.838,15.646z       M16.666,15.389c-0.015-0.002-0.027,0.01-0.029,0.023l-0.023,0.176c0.039-0.004,0.076-0.005,0.113-0.008l-0.037-0.17      C16.685,15.398,16.676,15.391,16.666,15.389z" stroke-width="1"/>
				<g>
					<path fill="#91BF20" d="M27.317,3.567c-0.315,0.122-0.562,0.305-0.89,0.405c-0.59,0.184-1.004,0.648-1.146,1.244       c-0.086,0.364-0.149,0.734-0.19,1.106C25.051,6.7,25.051,7.132,25.32,7.4c0.107,0.107,0.25,0.178,0.389,0.238       c0.982,0.436,2.076,0.608,3.146,0.512c1.121-0.104,2.234-0.36,3.369-0.434c0.277-0.019,0.562-0.031,0.812-0.156       c0.234-0.116,0.419-0.324,0.66-0.425c0.134-0.056,0.281-0.077,0.396-0.159c0.3-0.208,0.125-0.832,0.041-1.107       c-0.1-0.337-0.262-0.706-0.53-0.942c-0.578-0.507-1.494-0.43-2.19-0.608c-0.281-0.071-0.503-0.279-0.734-0.452       C29.637,3.096,28.487,3.116,27.317,3.567z" stroke-width="1"/>
					<path fill="#DEDEDE" d="M33.338,7.22c-0.115,0.041-0.229,0.056-0.348,0.065c0.025,0.134,0.047,0.269,0.055,0.403       c0.004,0.097,0.004,0.194,0.029,0.287c0.004,0.012,0.008,0.023,0.016,0.031c0.015,0.009,0.031,0.007,0.043-0.001       c0.015-0.009,0.023-0.021,0.031-0.033c0.066-0.1,0.107-0.214,0.131-0.331c0.031-0.137,0.051-0.287,0.056-0.428       C33.344,7.216,33.34,7.219,33.338,7.22z" stroke-width="1"/>
					<path fill="#DEDEDE" d="M31.562,7.238c0.051,0.191,0.08,0.389,0.092,0.586c0.004,0.097,0.004,0.193,0.028,0.286       c0.003,0.012,0.009,0.023,0.017,0.03c0.013,0.01,0.031,0.008,0.043,0c0.015-0.008,0.021-0.021,0.031-0.033       c0.063-0.1,0.104-0.215,0.131-0.33c0.031-0.139,0.054-0.289,0.056-0.432c0.002-0.035,0.002-0.072,0-0.109" stroke-width="1"/>
					<path fill="#EB589A" d="M33.217,10.206c-0.061-0.332-0.129-0.663-0.182-0.996c-0.104-0.641-0.223-1.268-0.465-1.865       c-0.17,0.005-0.338-0.009-0.516-0.024c0.168,0.344,0.313,0.698,0.404,1.071c0.09,0.379,0.096,0.756,0.063,1.144       c-0.021,0.25-0.062,0.508-0.104,0.754c-0.025,0.142-0.052,0.281-0.062,0.426c-0.008,0.074-0.012,0.148-0.01,0.224       c0,0.039,0.031,0.164,0.014,0.193c0.188-0.322,0.352-0.662,0.486-1.012c0.133,0.2,0.262,0.398,0.393,0.602       c0.033,0.049,0.07,0.104,0.127,0.111C33.305,10.626,33.256,10.417,33.217,10.206z" stroke-width="1"/>
					<path fill="#F191BC" d="M33.036,9.21c-0.047-0.289-0.098-0.575-0.161-0.858c-0.195-0.094-0.379-0.217-0.541-0.359       c0.047,0.133,0.094,0.265,0.125,0.398c0.09,0.38,0.096,0.755,0.063,1.143c-0.021,0.253-0.062,0.509-0.104,0.755       c-0.024,0.143-0.053,0.282-0.063,0.427c-0.009,0.073-0.011,0.148-0.011,0.224c0.002,0.039,0.031,0.162,0.015,0.192       c0.188-0.323,0.354-0.661,0.487-1.011c0.132,0.199,0.263,0.398,0.394,0.6c0.031,0.049,0.068,0.104,0.127,0.113       c-0.062-0.205-0.11-0.414-0.149-0.625C33.157,9.874,33.088,9.543,33.036,9.21z" stroke-width="1"/>
					<ellipse fill="#687E19" cx="32.813" cy="5.851" rx="0.338" ry="0.623" stroke-width="1"/>
					<ellipse fill="#687E19" cx="32.813" cy="5.851" rx="0.338" ry="0.623" stroke-width="1"/>
					<g>
						<ellipse fill="#91BF20" cx="29.142" cy="4.192" rx="1.495" ry="1.639" stroke-width="1"/>
						<circle fill="#FFFFFF" cx="29.418" cy="4.192" r="1.221" stroke-width="1"/>
						<circle cx="29.006" cy="4.191" r="0.412" stroke-width="1"/>
					</g>
					<g>
						<ellipse fill="#91BF20" cx="26.969" cy="4.489" rx="1.498" ry="1.639" stroke-width="1"/>
						<circle fill="#FFFFFF" cx="27.381" cy="4.489" r="1.221" stroke-width="1"/>
						<circle cx="27.94" cy="4.488" r="0.412" stroke-width="1"/>
					</g>
					<g>
						<ellipse fill="#687E19" cx="32.813" cy="5.851" rx="0.338" ry="0.623" stroke-width="1"/>
						<ellipse fill="#91BF20" cx="32.813" cy="6.067" rx="0.381" ry="0.622" stroke-width="1"/>
						<ellipse cx="32.813" cy="5.978" rx="0.231" ry="0.428" stroke-width="1"/>
					</g>
					<g>
						<ellipse fill="#687E19" cx="33.705" cy="5.851" rx="0.34" ry="0.623" stroke-width="1"/>
						<ellipse fill="#91BF20" cx="33.707" cy="6.067" rx="0.381" ry="0.622" stroke-width="1"/>
						<ellipse cx="33.705" cy="5.978" rx="0.233" ry="0.428" stroke-width="1"/>
					</g>
					<path d="M31.955,7.195c-0.515-0.062-1.023-0.151-1.529-0.26c-0.795-0.167-1.609-0.372-2.412-0.229       c-0.08,0.016-0.166,0.035-0.223,0.095c-0.058,0.059-0.07,0.167-0.007,0.219c0.027,0.021,0.062,0.029,0.097,0.034       c0.26,0.043,0.526-0.001,0.791-0.023c0.854-0.07,1.703,0.099,2.533,0.271c0.352,0.072,0.729,0.096,1.09,0.111       c0.446,0.02,0.989-0.073,1.395-0.281c0.094-0.049,0.186-0.109,0.242-0.197C33.308,7.303,32.647,7.277,31.955,7.195z" stroke-width="1" fill="undefined"/>
				</g>
				<path fill="#217726" d="M5.012,21.085c-0.066,0.138-0.123,0.279-0.154,0.429c-0.041,0.187-0.051,0.385,0.025,0.56      c0.141,0.315,0.684,0.508,0.955,0.274c0.168-0.143,0.273-0.342,0.334-0.552c-0.037-0.014-0.072-0.022-0.107-0.034      C5.671,21.613,5.313,21.371,5.012,21.085z M4.153,18.471c-0.279,0.084-0.572,0.211-0.719,0.465      c-0.234,0.405,0.01,0.731,0.447,0.744c0.102,0.002,0.201-0.014,0.301-0.033c-0.1-0.387-0.09-0.78,0.016-1.186      C4.183,18.465,4.169,18.467,4.153,18.471z M7.047,10.572c-0.139,0.115-0.205,0.312-0.164,0.486      c0.01,0.043,0.025,0.084,0.055,0.116c0.033,0.037,0.084,0.058,0.135,0.07c0.152,0.041,0.316,0.022,0.473-0.002l0,0      c0.02-0.068,0.039-0.138,0.059-0.203c0.023-0.097,0.047-0.19,0.07-0.285c0.041-0.188,0.072-0.364,0.1-0.539      c-0.129,0.072-0.262,0.138-0.396,0.19C7.26,10.451,7.142,10.492,7.047,10.572z M6.791,6.736C6.83,6.733,6.866,6.715,6.901,6.695      c0.123-0.069,0.234-0.153,0.344-0.242c-0.055-0.104-0.113-0.2-0.172-0.288c-0.152,0.1-0.287,0.227-0.369,0.391      C6.684,6.598,6.664,6.65,6.687,6.691C6.707,6.725,6.75,6.74,6.791,6.736z M7.139,8.51c0.01,0.019,0.027,0.031,0.047,0.04      c0.156,0.081,0.346-0.002,0.498-0.093c0.047-0.027,0.09-0.062,0.135-0.091C7.792,8.143,7.757,7.932,7.71,7.73      C7.573,7.871,7.436,8.01,7.298,8.149C7.214,8.235,7.125,8.336,7.126,8.456C7.128,8.475,7.13,8.494,7.139,8.51z M5.082,16.701      l0.189-0.288c0.076-0.124,0.152-0.247,0.229-0.369c0.066-0.112,0.125-0.226,0.186-0.337c-0.148,0.045-0.301,0.076-0.455,0.081      c-0.143,0.003-0.295-0.015-0.41,0.065c-0.064,0.043-0.107,0.113-0.135,0.188c-0.045,0.115-0.053,0.247-0.014,0.364      c0.039,0.118,0.129,0.221,0.244,0.267C4.965,16.693,5.024,16.701,5.082,16.701z M6.208,13c-0.117,0.023-0.232,0.078-0.305,0.174      c-0.141,0.188-0.057,0.471,0.107,0.639c0.043,0.043,0.094,0.084,0.152,0.101c0.062,0.017,0.131,0.003,0.195-0.013      c0.084-0.018,0.168-0.041,0.252-0.06c0.137-0.319,0.262-0.632,0.379-0.938c-0.141,0.032-0.283,0.061-0.426,0.067      C6.444,12.977,6.323,12.977,6.208,13z" stroke-width="1"/>
				<path fill="#217726" d="M23.108,23.201c-0.276,0.076-0.563,0.142-0.854,0.203c-0.297,0.037-0.586,0.111-0.896,0.127      c-0.076,0.009-0.153,0.01-0.229,0.016c0.012,0.357,0.051,0.715,0.119,1.065c0.067,0.344,0.172,0.698,0.422,0.942      c0.244,0.239,0.612,0.34,0.946,0.269c0.334-0.072,0.627-0.312,0.771-0.622c0.314-0.666,0.097-1.395-0.021-2.086      C23.278,23.143,23.192,23.169,23.108,23.201z M27.801,21.623c-0.186-0.375-0.44-0.73-0.778-0.982      c-0.043-0.031-0.084-0.055-0.129-0.08c-0.025,0.049-0.043,0.097-0.072,0.145c-0.221,0.361-0.522,0.717-0.883,1.031      c-0.091,0.078-0.185,0.154-0.281,0.229l-0.071,0.055l-0.004,0.002l0.024-0.016c0.082-0.058-0.08,0.057-0.06,0.041l0.033-0.025      l-0.002,0.002l-0.066,0.043c0.584,0.563,1.429,1.229,2.082,0.811c0.254-0.162,0.396-0.479,0.365-0.777      C27.942,21.932,27.877,21.773,27.801,21.623z M22.664,8.287c0.247,0.153,0.575,0.168,0.834,0.033      c0.258-0.134,0.438-0.408,0.454-0.698c0.035-0.604-0.504-1.082-0.575-1.678c-0.015-0.104-0.021-0.209-0.025-0.314      c-0.148,0.156-0.301,0.345-0.447,0.585L22.84,6.324l-0.016,0.027l-0.045,0.098l-0.014,0.025l-0.051,0.108      c-0.013,0.017-0.051,0.119-0.08,0.198l-0.084,0.258c-0.072,0.271-0.125,0.547-0.146,0.81c-0.006,0.062-0.004,0.124-0.006,0.187      C22.473,8.132,22.56,8.222,22.664,8.287z M15.479,22.949c-0.172,0.467-0.187,0.988-0.017,1.457      c0.095,0.259,0.242,0.5,0.451,0.679s0.482,0.286,0.756,0.271c0.203-0.013,0.4-0.094,0.553-0.229      c0.275-0.242,0.378-0.616,0.521-0.953c0.105-0.248,0.25-0.479,0.408-0.696c-0.223-0.025-0.445-0.058-0.668-0.095      C16.821,23.275,16.151,23.123,15.479,22.949z M27.121,17.673c0.186-0.015,0.366-0.085,0.497-0.22      c0.22-0.227,0.279-0.583,0.162-0.874c-0.045-0.115-0.121-0.226-0.228-0.288c-0.088-0.054-0.192-0.073-0.295-0.091      c-0.271-0.045-0.547-0.067-0.823-0.075c0.196,0.344,0.381,0.703,0.51,1.027C27.012,17.333,27.071,17.504,27.121,17.673z       M24.928,11.451c-0.176-0.178-0.461-0.169-0.711-0.163c-0.33,0.006-0.666-0.019-0.975-0.136      c-0.088-0.033-0.172-0.078-0.252-0.129c0.301,0.678,0.686,1.274,1.09,1.828c0.131,0,0.26-0.013,0.385-0.049      c0.297-0.085,0.568-0.31,0.633-0.609c0.027-0.125,0.021-0.254-0.004-0.377C25.071,11.684,25.026,11.548,24.928,11.451z" stroke-width="1"/>
				<path fill="#217726" d="M10.708,20.721c-0.098-0.094-0.188-0.188-0.27-0.287c-0.244,0.273-0.432,0.601-0.537,0.951      c-0.229,0.743,0.109,2.08,1.067,2.129c0.322,0.018,0.625-0.16,0.857-0.387c0.229-0.227,0.406-0.5,0.619-0.742      c0.102-0.117,0.215-0.229,0.332-0.33C11.981,21.693,11.241,21.236,10.708,20.721z M10.092,17.957      c-0.143-0.234-0.436-0.354-0.707-0.439c-0.25-0.078-0.502-0.155-0.764-0.168c-0.408-0.02-0.822,0.133-1.121,0.412      c-0.367,0.344-0.75,1.146-0.291,1.56c0.129,0.116,0.318,0.174,0.486,0.127c0.086-0.024,0.162-0.072,0.234-0.121      c0.42-0.271,0.93-0.545,1.436-0.604c0.119-0.014,0.244-0.002,0.357,0.037c-0.002-0.115-0.002-0.385,0.016-0.271      c0,0,0,0.005,0,0.007c0.01-0.021,0.016-0.044,0.02-0.066c0.031-0.055,0.037-0.111,0.092-0.178      C9.899,18.162,9.985,18.062,10.092,17.957z" stroke-width="1"/>
				<path fill="#217726" d="M20.407,12.729c0-0.041-0.004-0.082-0.006-0.123c-0.192-0.082-0.39-0.154-0.584-0.215      c-0.502-0.158-0.996-0.25-1.485-0.304c0.194,0.312,0.323,0.661,0.37,1.024c0.035,0.279,0.023,0.562,0.062,0.843      c0.016,0.114,0.039,0.233,0.113,0.325c0.198,0.246,0.604,0.137,0.846,0.023C20.258,14.057,20.403,13.249,20.407,12.729z       M21.471,18.514c-0.137-0.132-0.299-0.25-0.471-0.328c-0.018,0.136-0.057,0.229-0.072,0.258      c-0.016,0.025,0.011,0.007-0.034,0.046c0.021-0.007-0.048,0.032-0.113,0.056c-0.153,0.055-0.444,0.094-0.812,0.122      c-0.193,0.017-0.385,0.031-0.578,0.049c0.447,0.392,0.82,0.867,1.09,1.396c0.061,0.118,0.117,0.243,0.207,0.344      c0.254,0.274,0.729,0.271,1.02,0.033c0.289-0.237,0.398-0.651,0.328-1.021C21.965,19.1,21.743,18.773,21.471,18.514z       M23.858,16.055c-0.095-0.238-0.183-0.477-0.328-0.705c-0.104-0.172-0.205-0.346-0.312-0.516      c-0.594-0.01-1.291,0.357-1.646,0.758c-0.23,0.258-0.396,0.633-0.248,0.945c0.123,0.258,0.42,0.384,0.701,0.434      c0.574,0.104,1.215-0.041,1.611-0.469c0.096-0.104,0.18-0.244,0.24-0.404C23.868,16.082,23.864,16.068,23.858,16.055z       M11.088,16.168c0.176,0.1,0.408,0.059,0.565-0.066c0.16-0.123,0.252-0.315,0.295-0.514c0.076-0.357-0.006-0.744-0.219-1.04      c-0.315-0.44-0.852-0.718-1.393-0.739c-0.451-0.018-1.33,0.241-1.295,0.832c0.018,0.297,0.324,0.48,0.598,0.597      c0.41,0.172,0.854,0.315,1.154,0.646C10.885,15.982,10.965,16.102,11.088,16.168z M16.646,18.975      c-0.779,0.099-1.562,0.229-2.341,0.414c0.306,0.178,0.632,0.33,0.851,0.604c0.134,0.166,0.216,0.363,0.324,0.549      c0.106,0.182,0.256,0.355,0.457,0.422c0.188,0.061,0.391,0.018,0.573-0.051c0.254-0.096,0.509-0.252,0.604-0.506      c0.082-0.213,0.037-0.449-0.037-0.664C16.983,19.463,16.827,19.207,16.646,18.975z M15.508,14.384      c0.295-0.227,0.377-0.558,0.353-0.919c-0.028-0.376-0.162-0.75-0.412-1.033c-0.098-0.113-0.213-0.197-0.336-0.27      c-0.299,0.041-0.603,0.084-0.896,0.141c-0.438,0.078-0.86,0.187-1.295,0.291l-0.203,0.057c0.033,0.072,0.091,0.137,0.156,0.18      c0.125,0.081,0.277,0.111,0.418,0.158c0.402,0.134,0.75,0.419,0.959,0.785c0.123,0.214,0.203,0.459,0.39,0.619      C14.887,14.604,15.262,14.572,15.508,14.384z M11.887,20.174c-0.414,0.178-0.811,0.363-1.181,0.547      c0.421,0.406,0.97,0.775,1.576,1.09c0.1-0.129,0.166-0.28,0.176-0.442c0.016-0.315-0.158-0.539-0.312-0.795      C12.063,20.436,11.976,20.305,11.887,20.174z" stroke-width="1"/>
			</g>
			<path opacity="0.4" fill="#567413" enable-background="new    " d="M15.651,21.732c-0.615-0.094-1.244-0.146-1.834-0.346     c-0.724-0.244-1.351-0.697-1.901-1.23c-0.425,0.185-0.826,0.376-1.208,0.564c0.682,0.657,1.693,1.223,2.74,1.608     c0.086,0.03,0.177,0.06,0.265,0.09c0.039-0.01,0.078-0.024,0.119-0.034c0.895-0.248,1.856-0.39,2.866-0.474     C16.346,21.852,16,21.785,15.651,21.732z" stroke-width="1"/>
			<path opacity="0.4" fill="#567413" enable-background="new    " d="M7.351,22.854c-0.225-0.283-0.432-0.596-0.617-0.924     c-0.004,0-0.008,0-0.012-0.002c-0.096-0.011-0.139-0.021-0.178-0.029c-0.041-0.006-0.088-0.015-0.148-0.032     c-0.113-0.025-0.223-0.063-0.332-0.104c-0.057-0.021-0.111-0.05-0.166-0.074c0.01,0.812-0.139,1.623-0.428,2.386     c0.086,0.03,0.168,0.067,0.254,0.096C5.819,24.2,5.933,24.23,6.051,24.26c0.121,0.029,0.238,0.055,0.307,0.063     c0.404,0.073,0.84,0.096,1.256,0.077c0.396-0.02,0.781-0.076,1.152-0.156C8.264,23.848,7.782,23.395,7.351,22.854z" stroke-width="1"/>
			<path fill="#FFFFFF" d="M31.713,8.141c0.01,0.002,0.021,0.006,0.028,0c0.015-0.008,0.021-0.021,0.031-0.033     c0.063-0.1,0.104-0.215,0.131-0.33c0.015-0.065,0.019-0.136,0.024-0.205c-0.03-0.044-0.096-0.067-0.145-0.041     c-0.035,0.021-0.055,0.061-0.068,0.1c-0.02,0.065-0.028,0.136-0.035,0.206c-0.002,0.072,0,0.146,0.009,0.219     C31.692,8.084,31.702,8.113,31.713,8.141z" stroke-width="1"/>
			<path fill="#FFFFFF" d="M33.323,7.422c-0.039-0.021-0.088-0.025-0.125-0.002c-0.051,0.03-0.071,0.096-0.084,0.153     c-0.032,0.144-0.051,0.298,0.002,0.434c0.007-0.001,0.013,0.003,0.019,0c0.014-0.009,0.021-0.021,0.031-0.033     c0.063-0.1,0.104-0.214,0.131-0.331C33.31,7.572,33.315,7.496,33.323,7.422z" stroke-width="1"/>
			<path fill="#91BF20" d="M3.791,22.309c0,0-0.18,0.146-0.33,0.334c-0.018,0.022-0.035,0.047-0.053,0.07     c0.053,0.055,0.104,0.11,0.158,0.165c0.016-0.046,0.033-0.094,0.053-0.142c0.082-0.205,0.209-0.396,0.209-0.396     c0.006-0.01,0.006-0.022-0.002-0.03C3.817,22.301,3.799,22.299,3.791,22.309z M6.321,8.121c0,0.035,0,0.073,0,0.11l0.127-0.035     c0.01-0.002,0.018-0.01,0.02-0.021c0.002-0.015-0.006-0.029-0.02-0.031L6.321,8.121z M6.151,9.896     c-0.012,0.058-0.027,0.112-0.041,0.168l0.275-0.021c0.012-0.001,0.02-0.007,0.023-0.017c0.006-0.014-0.002-0.029-0.014-0.034     L6.151,9.896z M2.403,21.234l0.012,0.025c0.023,0.059,0.051,0.111,0.08,0.166l0.246-0.298c0.008-0.008,0.01-0.019,0.004-0.028     c-0.006-0.013-0.021-0.019-0.035-0.013L2.403,21.234z M5.409,23.301l-0.312,0.625c0.014,0.006,0.025,0.014,0.037,0.021     c0.057,0.022,0.115,0.041,0.168,0.063l0.156-0.691c0.002-0.012-0.004-0.022-0.014-0.029C5.43,23.281,5.417,23.287,5.409,23.301z      M7.233,24.182C7.21,23.843,7.112,23.52,7.112,23.52c-0.004-0.012-0.016-0.02-0.027-0.019c-0.014,0.002-0.025,0.015-0.023,0.028     c0,0,0.031,0.324-0.014,0.648c-0.008,0.072-0.018,0.146-0.025,0.217c0.074,0.004,0.15,0,0.227,0.002     C7.246,24.326,7.239,24.254,7.233,24.182z M2.026,19.707c-0.012-0.001-0.021-0.002-0.031-0.002     c0.006,0.064,0.008,0.131,0.018,0.195c0.014-0.004,0.025-0.008,0.037-0.012c0.164-0.054,0.316-0.133,0.316-0.133     c0.01-0.006,0.016-0.017,0.014-0.027c0-0.014-0.014-0.023-0.029-0.021C2.351,19.707,2.188,19.721,2.026,19.707z M4.082,14.641     l0.145,0.051c0.01,0.005,0.021,0.002,0.027-0.006c0.012-0.011,0.012-0.026,0.002-0.037l-0.107-0.112     C4.126,14.57,4.104,14.605,4.082,14.641z M5.269,13.061c0.01-0.012,0.008-0.028-0.004-0.037L5.053,12.85     c-0.023,0.054-0.049,0.104-0.072,0.155l0.26,0.063C5.251,13.072,5.26,13.068,5.269,13.061z M5.866,11.609     c-0.049-0.039-0.117-0.09-0.184-0.142c-0.008-0.007-0.016-0.013-0.021-0.02c-0.023,0.061-0.049,0.12-0.074,0.18     c0.006,0.002,0.01,0.003,0.014,0.004c0.082,0.021,0.164,0.044,0.225,0.062c0.023,0.004,0.049,0.015,0.051,0.009     c0.002,0.008,0,0.016,0.008,0.021c0.01,0.004,0.018,0.008,0.031,0.004c0.021-0.004,0.031-0.037,0.025-0.047     C5.909,11.627,5.894,11.637,5.866,11.609z M5.917,11.709c0.006-0.008,0-0.018-0.002-0.025     C5.921,11.699,5.916,11.717,5.917,11.709z M5.896,11.674c0,0,0-0.002,0.002-0.002c0.006-0.001,0.008,0,0.01,0.002     C5.903,11.672,5.899,11.674,5.896,11.674z M2.56,17.951c0.01-0.012,0.008-0.026-0.004-0.035L2.243,17.68     c-0.021,0.06-0.037,0.123-0.057,0.185l0.346,0.1C2.542,17.965,2.551,17.961,2.56,17.951z M3.161,15.977     c-0.033,0.049-0.066,0.103-0.102,0.149L3.342,16.2c0.01,0.004,0.02,0,0.027-0.009c0.01-0.012,0.008-0.026-0.004-0.037     L3.161,15.977z" stroke-width="1"/>
		</g>
		<path d="M13.961,21.713c-0.043-0.017-0.088-0.029-0.131-0.045c-0.041-0.015-0.082-0.027-0.123-0.041    c-1.013-0.375-1.914-0.902-2.478-1.445c-0.103-0.097-0.183-0.182-0.246-0.262c-0.084-0.104-0.154-0.209-0.219-0.314H9.93    c0.113,0.273,0.266,0.535,0.473,0.793c0.092,0.109,0.193,0.218,0.303,0.322c0.682,0.657,1.693,1.223,2.74,1.609    c0.086,0.029,0.177,0.059,0.265,0.09c0.782,0.276,1.578,0.502,2.369,0.684v-0.77C15.366,22.164,14.657,21.959,13.961,21.713z" stroke-width="1" fill="undefined"/>
		<path d="M12.028,26.079c-0.849-0.335-1.643-0.728-2.443-1.242c-0.275-0.182-0.549-0.382-0.818-0.595    c-0.502-0.396-0.984-0.848-1.418-1.391c-0.225-0.283-0.432-0.594-0.615-0.924c-0.357-0.634-0.627-1.338-0.762-2.068    c-0.018-0.084-0.025-0.17-0.037-0.256H5.173c0.018,0.134,0.035,0.271,0.064,0.41c0.139,0.767,0.424,1.539,0.842,2.281    c0.207,0.368,0.436,0.713,0.682,1.021c0.428,0.535,0.932,1.029,1.539,1.512c0.314,0.247,0.6,0.454,0.875,0.635    c0.803,0.518,1.621,0.934,2.579,1.312c1.393,0.543,2.846,0.961,4.323,1.261V27.27C14.707,26.988,13.354,26.598,12.028,26.079z" stroke-width="1" fill="undefined"/>
	</g>
</g>
</svg>