<svg xmlns="http://www.w3.org/2000/svg" xmlns:xlink="http://www.w3.org/1999/xlink" version="1.1" width="28.470840835571288" height="44.86399688720703" viewBox="-0.4609999775886535 -0.05699999332427974 28.470840835571288 44.86399688720703">
  <!-- Exported by Scratch - http://scratch.mit.edu/ -->
  <g id="singe_2">
    <g id="ID0.0906146951019764">
      <g id="ID0.8508538017049432">
        <path id="ID0.7436211504973471" fill="#8D5E1B" d="M 10.205 43.391 C 10.279 43.391 10.351 43.387 10.414 43.376 C 10.715 43.332 10.947 43.155 11.092 43.016 C 11.131 42.977 11.137 42.971 11.231 42.943 C 11.585 42.839 11.96 42.781 12.245 42.743 C 12.364 42.727 12.479 42.705 12.595 42.682 C 12.677 42.666 12.759 42.651 12.843 42.639 C 13.073 42.604 13.388 42.557 13.626 42.295 C 13.784 42.118 13.868 41.881 13.86 41.629 C 13.858 41.493 13.827 41.354 13.77 41.229 C 13.661 40.987 13.463 40.776 13.196 40.618 C 13.079 39.993 13.067 38.727 13.161 37.593 C 14.759 38.424 16.565 38.862 18.431 38.862 C 18.874 38.862 19.326 38.837 19.773 38.789 C 22.343 38.506 24.578 37.184 25.75 35.25 C 27.152 32.936 26.787 29.812 24.918 28.141 C 24.438 27.709 23.648 27.182 22.627 27.116 C 22.561 27.111 22.492 27.109 22.424 27.109 C 21.082 27.109 19.764 27.987 19.143 29.293 C 18.914 29.779 18.786 30.299 18.766 30.814 C 18.743 30.802 18.69 30.778 18.69 30.778 C 18.295 27.957 17.649 26.116 15.497 24.146 C 18.966 23.31 21.392 21.448 22.38 18.839 C 22.862 17.56 23.044 16.043 22.911 14.335 C 22.792 12.752 22.431 11.249 21.839 9.869 L 21.761 9.695 C 21.64 9.426 21.511 9.166 21.374 8.909 C 21.374 8.909 21.302 8.766 21.28 8.729 C 21.06 8.243 20.783 7.812 20.466 7.484 L 20.431 7.435 C 20.376 7.361 20.322 7.286 20.263 7.212 C 18.376 4.865 15.505 3.319 12.509 3.017 C 12.503 2.978 12.495 2.939 12.486 2.901 C 12.424 2.634 12.289 2.409 12.103 2.248 C 11.906 2.076 11.64 1.98 11.359 1.98 C 11.134 1.98 10.914 2.039 10.718 2.148 C 10.689 2.165 10.657 2.183 10.628 2.203 C 10.608 2.163 10.587 2.125 10.564 2.088 C 10.263 1.617 9.865 1.359 9.445 1.359 C 9.404 1.359 9.363 1.362 9.322 1.367 C 8.843 1.427 8.468 1.826 8.322 2.411 C 8.172 2.363 8.019 2.337 7.883 2.315 C 7.822 2.307 7.76 2.298 7.697 2.298 C 7.537 2.298 7.396 2.342 7.279 2.426 C 7.14 2.529 7.072 2.659 7.033 2.75 C 6.877 3.111 6.873 3.523 7.012 3.919 C 6.996 3.926 6.985 3.93 6.971 3.936 C 5.938 4.358 4.785 4.928 4.082 5.943 C 3.508 6.774 3.092 7.651 2.846 8.549 C 2.688 8.719 2.487 9.07 2.344 9.833 C 2.278 10.189 2.217 10.656 2.162 11.221 C 1.826 11.872 1.807 13.508 1.814 14.239 C 1.822 14.986 1.875 15.664 1.959 16.154 C 1.959 16.342 1.959 16.522 1.963 16.698 C 1.897 16.872 1.858 17.057 1.848 17.252 C 1.791 17.462 1.766 17.698 1.772 17.952 C 1.778 18.205 1.825 18.46 1.913 18.698 C 1.892 18.768 1.872 18.839 1.856 18.907 C 1.27 19.596 0.96 20.387 0.96 21.201 C 0.96 23.279 2.958 25.026 5.667 25.459 C 5.435 25.722 5.224 25.993 5.038 26.271 C 4.165 27.581 3.884 29 3.608 30.375 C 3.573 30.553 3.536 30.729 3.499 30.904 C 3.239 31.047 3.034 31.248 2.868 31.413 C 2.764 31.514 2.649 31.627 2.552 31.776 L 2.544 31.787 C 2.378 31.976 2.233 32.185 2.106 32.371 L 1.977 32.553 C 1.885 32.674 1.758 32.842 1.711 33.071 C 1.639 33.43 1.813 33.795 2.168 34.02 C 2.322 34.12 2.486 34.168 2.656 34.168 L 2.656 34.168 C 2.705 34.168 2.754 34.164 2.801 34.157 C 2.858 34.482 3.108 34.748 3.477 34.864 C 3.573 34.894 3.67 34.91 3.764 34.91 C 3.983 34.91 4.157 34.837 4.299 34.724 C 4.305 34.736 4.311 34.746 4.317 34.759 C 4.465 35.05 4.774 35.224 5.139 35.224 C 5.182 35.224 5.225 35.222 5.268 35.218 C 6.209 35.116 6.129 34.042 6.096 33.627 C 6.242 33.699 6.401 33.745 6.569 33.745 C 6.801 33.745 7.014 33.657 7.186 33.489 C 7.192 33.745 7.219 34.005 7.284 34.262 C 7.397 34.721 7.622 35.113 7.94 35.415 C 7.649 35.768 7.374 36.139 7.118 36.519 C 6.774 37.033 6.485 37.517 6.237 37.996 C 6.216 37.983 6.016 37.869 6.016 37.869 C 5.828 37.758 5.616 37.633 5.373 37.557 C 5.242 37.516 5.08 37.495 4.916 37.495 C 4.697 37.495 4.295 37.536 4.033 37.811 C 3.883 37.967 3.806 38.176 3.818 38.397 C 3.82 38.436 3.824 38.475 3.832 38.514 C 3.762 38.645 3.73 38.793 3.744 38.952 C 3.764 39.188 3.89 39.388 4.012 39.522 C 3.981 39.663 3.985 39.805 4.032 39.938 C 4.151 40.29 4.497 40.481 4.639 40.549 C 4.78 40.612 4.94 40.647 5.114 40.647 C 5.214 40.647 5.311 40.637 5.403 40.618 C 5.424 40.614 5.44 40.611 5.456 40.611 C 5.47 40.611 5.491 40.613 5.561 40.633 C 5.913 40.738 6.258 40.897 6.518 41.024 C 6.623 41.076 6.733 41.121 6.84 41.165 C 6.918 41.197 6.994 41.229 7.072 41.265 C 7.25 41.349 7.445 41.439 7.685 41.439 C 7.763 41.439 7.839 41.429 7.914 41.41 C 8.144 41.351 8.348 41.2 8.478 40.982 C 8.55 40.866 8.601 40.732 8.623 40.597 C 8.666 40.336 8.617 40.052 8.48 39.773 C 8.759 39.097 9.613 37.817 10.39 36.879 C 10.318 37.419 10.279 38.003 10.273 38.652 C 10.267 39.27 10.293 39.835 10.347 40.369 C 10.322 40.37 10.093 40.384 10.093 40.384 C 9.874 40.396 9.628 40.406 9.386 40.476 C 9.101 40.558 8.591 40.853 8.437 41.3 C 8.349 41.556 8.39 41.816 8.548 42.033 C 8.571 42.063 8.597 42.093 8.624 42.121 C 8.638 42.268 8.694 42.412 8.79 42.536 C 8.938 42.724 9.151 42.818 9.327 42.866 C 9.378 43 9.462 43.117 9.573 43.203 C 9.773 43.357 10.027 43.391 10.205 43.391 Z M 24.072 33.014 C 23.988 33.354 23.855 33.686 23.67 33.992 C 22.889 35.282 21.33 36.173 19.504 36.372 C 19.147 36.412 18.785 36.433 18.432 36.433 C 17.036 36.433 15.682 36.124 14.481 35.539 C 14.864 34.935 14.952 34.072 14.985 33.31 C 15.034 33.39 15.096 33.467 15.171 33.539 C 15.345 33.71 15.56 33.801 15.792 33.801 C 15.978 33.801 16.146 33.744 16.304 33.659 C 16.29 34.074 16.261 35.15 17.208 35.206 L 17.276 35.208 C 17.672 35.208 17.991 35.02 18.133 34.702 C 18.137 34.689 18.143 34.68 18.147 34.667 C 18.286 34.766 18.45 34.826 18.651 34.826 C 18.758 34.826 18.87 34.805 18.977 34.765 C 19.34 34.63 19.577 34.351 19.618 34.025 C 19.65 34.027 19.685 34.029 19.72 34.029 C 19.906 34.029 20.079 33.97 20.241 33.857 C 20.298 33.818 20.346 33.775 20.393 33.728 C 20.784 33.915 21.219 34.011 21.68 34.011 C 21.731 34.011 21.78 34.009 21.83 34.006 C 22.712 33.969 23.533 33.59 24.072 33.014 Z M 15.925 31.477 C 15.749 31.616 15.589 31.768 15.443 31.908 L 15.277 32.061 C 15.201 32.127 15.107 32.21 15.025 32.321 C 15.125 30.602 15.123 29.253 15.023 28.005 C 15.507 28.912 15.728 29.958 15.925 31.477 Z M 7.925 27.997 C 7.872 28.339 7.857 28.682 7.841 29.014 L 7.839 29.071 C 7.839 29.737 7.693 30.403 7.536 31.106 C 7.483 31.35 7.429 31.592 7.382 31.834 C 7.357 31.966 7.329 32.101 7.306 32.237 C 7.218 32.129 7.117 32.049 7.036 31.985 L 6.872 31.846 C 6.694 31.694 6.499 31.527 6.284 31.382 C 6.315 31.233 6.346 31.081 6.378 30.93 C 6.608 29.776 6.825 28.684 7.388 27.842 C 7.544 27.608 7.728 27.382 7.937 27.164 C 7.927 27.454 7.925 27.735 7.925 27.997 Z " stroke-width="1"/>
        <path id="ID0.07315576635301113" d="M 9.441 1.822 C 9.42 1.822 9.398 1.823 9.377 1.826 C 8.986 1.874 8.785 2.32 8.734 2.711 C 8.705 2.94 8.703 3.171 8.724 3.4 C 8.726 3.405 8.726 3.41 8.726 3.415 C 8.726 3.41 8.726 3.405 8.724 3.4 C 8.701 3.205 8.558 3.038 8.386 2.941 C 8.21 2.841 8.007 2.804 7.808 2.773 C 7.771 2.767 7.732 2.763 7.693 2.763 C 7.642 2.763 7.589 2.771 7.548 2.802 C 7.503 2.834 7.476 2.884 7.454 2.933 C 7.278 3.337 7.393 3.802 7.653 4.165 C 7.481 4.227 7.309 4.295 7.139 4.365 C 6.139 4.774 5.078 5.309 4.457 6.205 C 3.902 7.007 3.482 7.878 3.248 8.816 C 3.092 8.883 2.912 9.283 2.793 9.918 C 2.721 10.306 2.66 10.806 2.609 11.37 C 2.404 11.566 2.255 12.808 2.271 14.233 C 2.281 15.001 2.335 15.665 2.416 16.113 C 2.416 16.346 2.418 16.572 2.42 16.787 C 2.352 16.938 2.307 17.118 2.301 17.326 C 2.24 17.529 2.225 17.75 2.229 17.943 C 2.233 18.196 2.291 18.448 2.399 18.676 C 2.346 18.829 2.305 18.979 2.276 19.123 C 1.735 19.725 1.419 20.435 1.419 21.201 C 1.419 23.288 3.753 24.987 6.687 25.092 C 6.191 25.534 5.763 26.012 5.419 26.529 C 4.597 27.762 4.321 29.137 4.058 30.467 C 4.005 30.725 3.953 30.984 3.898 31.239 C 3.855 31.254 3.81 31.263 3.769 31.283 C 3.546 31.39 3.365 31.568 3.189 31.742 C 3.097 31.833 3.005 31.926 2.931 32.032 C 2.933 32.033 2.937 32.033 2.939 32.034 C 2.738 32.254 2.564 32.519 2.402 32.749 C 2.312 32.877 2.197 33.002 2.164 33.16 C 2.125 33.358 2.258 33.525 2.416 33.625 C 2.498 33.678 2.576 33.7 2.654 33.7 C 3.047 33.7 3.355 33.096 3.552 32.837 C 3.642 32.721 3.782 32.584 3.898 32.438 C 3.9 32.438 3.9 32.438 3.902 32.438 C 3.902 32.438 3.902 32.44 3.9 32.44 C 3.648 32.753 3.511 33.202 3.375 33.576 C 3.32 33.722 3.24 33.873 3.25 34.034 C 3.262 34.235 3.434 34.363 3.613 34.419 C 3.664 34.437 3.715 34.443 3.759 34.443 C 4.216 34.443 4.372 33.69 4.509 33.365 C 4.546 33.276 4.597 33.166 4.646 33.052 C 4.603 33.388 4.636 33.755 4.658 34.078 C 4.668 34.234 4.654 34.404 4.728 34.547 C 4.806 34.702 4.97 34.759 5.134 34.759 C 5.159 34.759 5.187 34.757 5.214 34.754 C 5.81 34.691 5.618 33.816 5.61 33.429 C 5.606 33.218 5.614 32.89 5.569 32.655 C 5.571 32.656 5.573 32.658 5.575 32.659 C 5.809 32.841 6.206 33.28 6.563 33.28 C 6.672 33.28 6.778 33.238 6.875 33.134 C 7.002 32.996 7.09 32.8 7 32.619 C 6.93 32.475 6.785 32.384 6.666 32.282 C 6.393 32.05 6.088 31.772 5.758 31.61 C 5.813 31.352 5.867 31.094 5.918 30.837 C 6.158 29.636 6.385 28.501 6.998 27.581 C 7.361 27.035 7.855 26.534 8.471 26.084 C 8.401 26.72 8.387 27.377 8.387 28.032 C 8.332 28.371 8.317 28.725 8.301 29.068 C 8.301 30.028 8.02 30.981 7.834 31.921 C 7.689 32.657 7.547 33.422 7.727 34.15 C 7.868 34.714 8.188 35.098 8.61 35.34 C 8.206 35.792 7.837 36.276 7.497 36.778 C 7.136 37.321 6.798 37.886 6.511 38.474 C 6.48 38.539 6.445 38.605 6.407 38.669 C 6.259 38.556 6.1 38.453 5.934 38.361 C 5.707 38.234 5.477 38.077 5.227 37.998 C 5.147 37.974 5.032 37.956 4.909 37.956 C 4.608 37.956 4.263 38.058 4.276 38.372 C 4.28 38.443 4.311 38.517 4.354 38.585 C 4.34 38.599 4.333 38.614 4.321 38.629 C 4.241 38.696 4.192 38.786 4.202 38.909 C 4.216 39.065 4.356 39.229 4.473 39.325 C 4.504 39.35 4.541 39.368 4.577 39.387 C 4.565 39.408 4.554 39.428 4.544 39.45 C 4.468 39.546 4.429 39.669 4.468 39.783 C 4.519 39.931 4.697 40.056 4.833 40.121 C 4.917 40.161 5.013 40.176 5.108 40.176 C 5.176 40.176 5.243 40.168 5.307 40.155 C 5.362 40.144 5.407 40.14 5.45 40.14 C 5.526 40.14 5.595 40.155 5.688 40.183 C 6.043 40.287 6.381 40.439 6.713 40.599 C 6.897 40.687 7.082 40.752 7.262 40.835 C 7.397 40.897 7.533 40.966 7.68 40.966 C 7.717 40.966 7.754 40.961 7.793 40.951 C 7.912 40.92 8.012 40.836 8.076 40.73 C 8.117 40.664 8.146 40.59 8.158 40.514 C 8.191 40.316 8.133 40.112 8.039 39.934 C 8.018 39.891 7.984 39.858 7.959 39.819 C 7.959 39.819 7.961 39.818 7.961 39.817 C 8.199 39.006 9.522 37.078 10.473 36.069 C 10.647 36.086 10.821 36.098 10.996 36.104 C 10.965 36.243 10.937 36.381 10.912 36.516 C 10.785 37.219 10.738 37.936 10.732 38.648 C 10.728 39.301 10.755 39.96 10.839 40.609 C 10.849 40.68 10.855 40.754 10.86 40.828 C 10.772 40.822 10.684 40.819 10.594 40.819 C 10.494 40.819 10.395 40.822 10.295 40.83 C 10.035 40.849 9.756 40.845 9.504 40.915 C 9.219 40.997 8.654 41.394 8.916 41.75 C 8.957 41.808 9.023 41.853 9.098 41.886 C 9.094 41.905 9.094 41.923 9.094 41.941 C 9.065 42.041 9.073 42.142 9.149 42.24 C 9.247 42.364 9.456 42.424 9.604 42.439 C 9.614 42.44 9.625 42.44 9.635 42.44 C 9.664 42.44 9.696 42.437 9.725 42.433 C 9.727 42.457 9.727 42.483 9.731 42.507 C 9.719 42.627 9.754 42.752 9.85 42.825 C 9.938 42.893 10.073 42.917 10.198 42.917 C 10.251 42.917 10.298 42.913 10.341 42.906 C 10.499 42.884 10.648 42.783 10.759 42.673 C 10.864 42.569 10.943 42.531 11.091 42.487 C 11.445 42.382 11.812 42.32 12.179 42.27 C 12.378 42.244 12.57 42.197 12.767 42.166 C 12.949 42.139 13.142 42.116 13.275 41.971 C 13.357 41.879 13.394 41.756 13.39 41.631 C 13.388 41.553 13.369 41.475 13.339 41.405 C 13.257 41.22 13.097 41.084 12.921 40.987 C 12.88 40.965 12.833 40.953 12.79 40.935 L 12.79 40.933 C 12.567 40.202 12.583 38.211 12.767 36.829 C 14.425 37.838 16.371 38.385 18.423 38.385 C 18.849 38.385 19.278 38.362 19.712 38.313 C 22.142 38.047 24.247 36.809 25.345 34.998 C 26.636 32.869 26.308 30.003 24.601 28.476 C 24.173 28.095 23.48 27.627 22.589 27.569 C 22.53 27.564 22.474 27.562 22.417 27.562 C 21.272 27.562 20.101 28.333 19.554 29.48 C 19.173 30.285 19.118 31.167 19.384 31.921 C 19.378 31.915 19.37 31.909 19.364 31.903 C 19.366 31.902 19.368 31.902 19.37 31.901 C 19.296 31.797 19.196 31.71 19.1 31.624 C 18.914 31.458 18.727 31.29 18.498 31.193 C 18.42 31.16 18.34 31.139 18.258 31.123 C 17.854 28.025 17.24 26.116 14.467 23.871 C 17.637 23.302 20.756 21.765 21.932 18.663 C 22.448 17.302 22.547 15.809 22.436 14.359 C 22.323 12.877 21.983 11.403 21.399 10.04 C 21.376 9.983 21.348 9.929 21.323 9.872 C 21.21 9.616 21.087 9.364 20.952 9.117 C 20.923 9.059 20.895 9 20.862 8.943 C 20.673 8.52 20.427 8.105 20.105 7.78 C 20.035 7.685 19.968 7.591 19.894 7.499 C 19.892 7.497 19.89 7.495 19.888 7.493 C 17.993 5.135 15.062 3.625 12.042 3.441 C 12.063 3.296 12.063 3.15 12.028 3.005 C 11.989 2.849 11.913 2.698 11.794 2.593 C 11.671 2.489 11.513 2.439 11.353 2.439 C 11.21 2.439 11.064 2.478 10.941 2.547 C 10.675 2.694 10.494 2.962 10.379 3.242 C 10.322 2.968 10.318 2.567 10.168 2.331 C 10.004 2.077 9.744 1.822 9.441 1.822 M 15.789 33.333 C 16.152 33.333 16.537 32.862 16.768 32.665 C 16.768 32.664 16.772 32.662 16.774 32.66 C 16.741 32.896 16.764 33.224 16.77 33.435 C 16.782 33.822 16.633 34.705 17.233 34.74 C 17.247 34.74 17.262 34.741 17.276 34.741 C 17.452 34.741 17.633 34.679 17.71 34.51 C 17.774 34.364 17.755 34.194 17.757 34.037 C 17.761 33.713 17.778 33.346 17.72 33.012 C 17.775 33.123 17.829 33.233 17.87 33.319 C 18.018 33.631 18.21 34.361 18.651 34.361 C 18.702 34.361 18.758 34.35 18.817 34.329 C 18.993 34.265 19.159 34.129 19.161 33.927 C 19.163 33.767 19.075 33.619 19.016 33.476 C 18.86 33.11 18.702 32.668 18.434 32.368 C 18.434 32.368 18.434 32.368 18.432 32.368 C 18.434 32.367 18.436 32.367 18.436 32.366 C 18.557 32.508 18.706 32.637 18.801 32.75 C 19.008 32.994 19.338 33.568 19.723 33.568 C 19.805 33.568 19.889 33.542 19.975 33.48 C 20.108 33.386 20.213 33.243 20.207 33.08 C 20.613 33.383 21.123 33.549 21.684 33.549 C 21.727 33.549 21.77 33.548 21.813 33.546 C 22.84 33.499 23.762 32.932 24.11 32.137 C 24.397 31.481 24.26 30.751 23.739 30.133 C 23.419 29.754 22.925 29.53 22.427 29.53 C 22.392 29.53 22.355 29.531 22.32 29.534 C 21.826 29.568 21.39 29.825 21.129 30.239 C 20.906 30.59 21.012 31.052 21.361 31.273 C 21.484 31.353 21.623 31.39 21.761 31.39 C 22.009 31.39 22.251 31.267 22.396 31.04 C 22.406 31.034 22.419 31.031 22.439 31.031 C 22.486 31.031 22.554 31.052 22.595 31.1 C 22.814 31.358 22.757 31.485 22.738 31.534 C 22.636 31.763 22.23 32.024 21.748 32.046 C 21.725 32.047 21.701 32.048 21.678 32.048 C 21.408 32.048 21.076 31.965 20.887 31.621 C 20.664 31.216 20.678 30.647 20.922 30.136 C 21.221 29.505 21.842 29.074 22.436 29.074 C 22.457 29.074 22.479 29.074 22.5 29.075 C 22.863 29.098 23.258 29.286 23.611 29.604 C 24.779 30.647 24.986 32.725 24.072 34.231 C 23.217 35.645 21.529 36.617 19.56 36.833 C 19.183 36.875 18.806 36.895 18.435 36.895 C 16.732 36.895 15.117 36.462 13.728 35.662 C 14.589 35.122 14.505 33.343 14.558 32.416 C 14.652 30.862 14.685 29.298 14.537 27.747 C 14.492 27.283 14.435 26.804 14.357 26.327 C 15.796 27.827 16.127 29.257 16.425 31.692 C 16.148 31.873 15.894 32.128 15.661 32.342 C 15.548 32.449 15.407 32.548 15.345 32.696 C 15.265 32.881 15.361 33.072 15.495 33.203 C 15.586 33.296 15.687 33.333 15.789 33.333 M 9.441 0.893 L 9.441 0.893 L 9.441 0.893 C 9.941 0.893 10.42 1.151 10.789 1.61 C 10.973 1.548 11.162 1.516 11.357 1.516 C 11.75 1.516 12.121 1.652 12.406 1.897 C 12.615 2.079 12.775 2.317 12.877 2.594 C 15.873 2.983 18.719 4.559 20.609 6.906 L 20.617 6.916 C 20.683 6.997 20.738 7.073 20.797 7.148 L 20.82 7.184 C 21.158 7.54 21.455 7.996 21.703 8.539 C 21.72 8.571 21.736 8.604 21.752 8.637 L 21.779 8.688 C 21.922 8.954 22.056 9.229 22.179 9.502 L 22.202 9.559 C 22.223 9.602 22.241 9.643 22.261 9.684 C 22.87 11.112 23.245 12.663 23.37 14.298 C 23.507 16.075 23.315 17.658 22.808 19.002 C 21.843 21.551 19.597 23.422 16.4 24.38 C 17.738 25.777 18.41 27.182 18.818 28.901 C 19.548 27.543 20.972 26.643 22.423 26.643 C 22.499 26.643 22.577 26.645 22.655 26.651 C 23.809 26.727 24.688 27.313 25.225 27.794 C 27.254 29.61 27.659 32.992 26.145 35.492 C 24.899 37.548 22.534 38.952 19.819 39.25 C 19.356 39.302 18.887 39.327 18.428 39.327 C 16.731 39.327 15.078 38.979 13.576 38.311 C 13.541 39.117 13.56 39.877 13.619 40.344 C 13.877 40.534 14.072 40.772 14.191 41.04 C 14.273 41.221 14.318 41.42 14.322 41.618 C 14.334 41.992 14.207 42.344 13.967 42.609 C 13.617 42.994 13.17 43.06 12.93 43.095 C 12.832 43.11 12.756 43.125 12.68 43.14 C 12.555 43.163 12.432 43.187 12.305 43.203 C 12.022 43.241 11.69 43.292 11.375 43.384 C 11.105 43.634 10.799 43.789 10.48 43.836 C 10.39 43.849 10.296 43.857 10.203 43.857 C 9.844 43.857 9.525 43.757 9.283 43.57 C 9.168 43.478 9.068 43.368 8.992 43.243 C 8.795 43.161 8.586 43.031 8.422 42.823 C 8.305 42.676 8.225 42.506 8.186 42.328 C 8.18 42.321 8.174 42.314 8.17 42.308 C 8.072 42.173 8.004 42.027 7.963 41.873 C 7.871 41.892 7.777 41.902 7.682 41.902 C 7.338 41.902 7.071 41.778 6.895 41.696 C 6.803 41.654 6.733 41.625 6.661 41.594 C 6.546 41.546 6.429 41.497 6.313 41.443 C 6.053 41.319 5.751 41.178 5.436 41.084 C 5.325 41.103 5.217 41.112 5.11 41.112 C 4.87 41.112 4.643 41.063 4.442 40.969 C 4.243 40.878 3.766 40.609 3.588 40.088 C 3.539 39.947 3.52 39.801 3.524 39.654 C 3.405 39.476 3.299 39.254 3.278 38.99 C 3.262 38.801 3.29 38.616 3.352 38.445 C 3.352 38.437 3.352 38.429 3.35 38.421 C 3.332 38.071 3.455 37.741 3.694 37.491 C 3.975 37.194 4.409 37.031 4.913 37.031 C 5.063 37.031 5.288 37.046 5.511 37.116 C 5.714 37.179 5.896 37.269 6.054 37.357 C 6.253 37.002 6.478 36.64 6.73 36.263 C 6.919 35.98 7.121 35.702 7.33 35.433 C 7.098 35.13 6.93 34.774 6.83 34.374 C 6.816 34.313 6.803 34.252 6.791 34.19 C 6.719 34.203 6.643 34.21 6.568 34.21 C 6.566 34.21 6.564 34.21 6.562 34.21 C 6.476 35.306 5.861 35.621 5.316 35.679 C 5.257 35.685 5.197 35.69 5.138 35.69 C 4.753 35.69 4.408 35.554 4.158 35.318 C 4.039 35.353 3.906 35.375 3.763 35.375 C 3.618 35.375 3.476 35.354 3.335 35.309 C 2.94 35.184 2.64 34.938 2.472 34.621 C 2.279 34.595 2.091 34.522 1.919 34.413 C 1.396 34.08 1.142 33.53 1.255 32.975 C 1.321 32.647 1.497 32.413 1.601 32.276 L 1.642 32.217 L 1.722 32.104 C 1.853 31.916 1.997 31.706 2.171 31.503 C 2.294 31.323 2.429 31.191 2.536 31.081 C 2.684 30.935 2.858 30.764 3.081 30.612 C 3.102 30.503 3.126 30.394 3.147 30.284 C 3.418 28.93 3.721 27.398 4.647 26.012 C 4.704 25.926 4.762 25.842 4.823 25.758 C 2.288 25.098 0.489 23.303 0.489 21.201 C 0.489 20.312 0.809 19.452 1.419 18.7 C 1.347 18.461 1.308 18.211 1.304 17.962 C 1.298 17.682 1.324 17.42 1.382 17.18 C 1.398 16.988 1.435 16.801 1.491 16.621 C 1.489 16.482 1.489 16.34 1.489 16.192 C 1.405 15.681 1.354 14.994 1.344 14.244 C 1.323 12.376 1.518 11.512 1.703 11.09 C 1.756 10.551 1.816 10.1 1.881 9.748 C 2.02 9.014 2.217 8.585 2.42 8.327 C 2.682 7.411 3.109 6.519 3.695 5.678 C 4.39 4.672 5.498 4.063 6.463 3.643 C 6.41 3.275 6.455 2.905 6.602 2.567 C 6.635 2.486 6.745 2.238 7.002 2.049 C 7.139 1.95 7.369 1.832 7.691 1.832 C 7.795 1.832 7.88 1.844 7.945 1.853 C 7.97 1.856 7.994 1.86 8.017 1.864 C 8.271 1.326 8.716 0.968 9.259 0.902 C 9.322 0.895 9.382 0.893 9.441 0.893 L 9.441 0.893 L 9.441 0.893 Z M 7.007 31.35 C 7.03 31.236 7.058 31.121 7.083 31.005 C 7.231 30.327 7.374 29.686 7.374 29.07 L 7.374 29.049 L 7.376 29.028 L 7.376 28.997 C 7.378 28.955 7.38 28.913 7.382 28.87 C 7.136 29.508 6.987 30.249 6.833 31.019 C 6.823 31.075 6.812 31.128 6.8 31.183 C 6.873 31.24 6.941 31.296 7.007 31.35 L 7.007 31.35 Z M 15.789 34.264 C 15.646 34.264 15.51 34.243 15.377 34.2 C 15.326 34.579 15.244 34.961 15.107 35.311 C 16.136 35.742 17.267 35.965 18.429 35.965 C 18.767 35.965 19.113 35.946 19.45 35.909 C 20.858 35.755 22.089 35.165 22.864 34.294 C 22.546 34.395 22.202 34.457 21.85 34.473 C 21.791 34.475 21.735 34.477 21.676 34.477 C 21.252 34.477 20.842 34.406 20.465 34.266 C 20.309 34.37 20.139 34.438 19.963 34.473 C 19.809 34.797 19.52 35.057 19.135 35.202 C 18.975 35.263 18.809 35.292 18.645 35.292 C 18.526 35.292 18.416 35.278 18.311 35.252 C 18.055 35.519 17.686 35.673 17.272 35.673 C 17.239 35.673 17.21 35.672 17.174 35.671 C 16.627 35.64 15.998 35.355 15.858 34.265 C 15.838 34.264 15.814 34.264 15.789 34.264 L 15.789 34.264 Z M 9.841 39.934 C 9.814 39.528 9.802 39.1 9.806 38.649 C 9.806 38.573 9.808 38.498 9.81 38.422 C 9.456 38.938 9.154 39.432 8.984 39.777 C 9.023 39.881 9.052 39.989 9.072 40.095 C 9.14 40.066 9.203 40.043 9.258 40.029 C 9.461 39.971 9.662 39.946 9.841 39.934 L 9.841 39.934 Z " stroke-width="1" fill="undefined"/>
      </g>
      <g id="ID0.8442875226028264">
        <path id="ID0.2489137095399201" fill="none" stroke="#704413" stroke-width="1.9" d="M 9.322 24.462 C 8.103 25.078 6.976 25.909 6.211 27.057 C 5.315 28.401 5.145 30.04 4.797 31.587 "/>
        <g id="ID0.2839051652699709">
          <path id="ID0.5166634456254542" fill="#D28F5B" d="M 6.796 39.012 C 6.546 38.75 6.253 38.542 5.937 38.366 C 5.712 38.239 5.482 38.082 5.232 38.003 C 4.947 37.914 4.259 37.937 4.281 38.377 C 4.289 38.534 4.426 38.704 4.537 38.802 C 4.703 38.947 4.976 39 5.189 39.013 C 5.375 39.023 5.558 39.04 5.736 39.09 C 5.847 39.121 5.963 39.13 6.07 39.152 C 6.314 39.203 6.533 39.36 6.754 39.465 C 6.795 39.486 6.836 39.504 6.881 39.508 C 6.926 39.512 6.975 39.499 7 39.463 C 7.02 39.44 7.025 39.409 7.025 39.38 C 7.025 39.287 6.966 39.205 6.906 39.135 C 6.869 39.094 6.834 39.053 6.796 39.012 Z " stroke-width="1"/>
          <path id="ID0.09041636437177658" fill="#704413" d="M 4.609 38.913 C 4.505 38.934 4.398 38.956 4.293 38.952 C 4.273 38.952 4.252 38.95 4.238 38.935 C 4.222 38.92 4.22 38.896 4.222 38.873 C 4.236 38.634 4.466 38.435 4.693 38.399 C 4.839 38.376 4.992 38.402 5.131 38.453 C 5.322 38.522 5.527 38.628 5.69 38.752 C 5.696 38.757 5.702 38.763 5.704 38.769 C 5.71 38.783 5.696 38.794 5.686 38.802 C 5.655 38.823 5.614 38.83 5.577 38.835 C 5.473 38.849 5.372 38.853 5.268 38.847 C 5.166 38.843 5.063 38.821 4.961 38.84 C 4.841 38.863 4.726 38.891 4.609 38.913 Z " stroke-width="1"/>
          <path id="ID0.6626018099486828" fill="#D28F5B" d="M 6.404 39.766 C 6.445 39.78 6.494 39.795 6.539 39.789 C 6.568 39.785 6.596 39.769 6.625 39.764 C 6.697 39.749 6.762 39.731 6.818 39.684 C 6.865 39.645 6.927 39.618 6.947 39.561 C 6.961 39.524 6.951 39.485 6.931 39.452 C 6.913 39.419 6.884 39.393 6.855 39.369 C 6.709 39.248 6.535 39.167 6.361 39.097 C 6.273 39.062 6.195 39.03 6.113 38.982 C 6.031 38.933 5.947 38.89 5.863 38.847 C 5.633 38.728 5.396 38.578 5.144 38.509 C 4.857 38.429 4.169 38.476 4.206 38.914 C 4.218 39.07 4.358 39.236 4.476 39.33 C 4.648 39.468 4.919 39.515 5.134 39.518 C 5.32 39.522 5.503 39.534 5.685 39.578 C 5.796 39.604 5.91 39.609 6.021 39.629 C 6.156 39.65 6.273 39.725 6.404 39.766 Z " stroke-width="1"/>
          <path id="ID0.46523352479562163" fill="#704413" d="M 6.041 39.299 C 5.936 39.33 5.828 39.363 5.748 39.438 C 5.719 39.463 5.691 39.498 5.654 39.514 C 5.613 39.531 5.564 39.531 5.523 39.534 C 5.31 39.548 5.101 39.598 4.892 39.641 C 4.787 39.662 4.681 39.684 4.574 39.682 C 4.554 39.682 4.535 39.68 4.521 39.665 C 4.505 39.65 4.503 39.625 4.505 39.603 C 4.517 39.37 4.735 39.165 4.956 39.121 C 5.183 39.075 5.421 39.082 5.645 39.141 C 5.785 39.174 5.918 39.227 6.041 39.299 Z " stroke-width="1"/>
          <g id="ID0.31361593026667833">
            <path id="ID0.2919243364594877" fill="#D28F5B" d="M 8.043 39.941 C 7.982 39.827 7.908 39.722 7.822 39.626 C 7.789 39.586 7.738 39.514 7.689 39.495 C 7.642 39.476 7.574 39.495 7.525 39.501 C 7.353 39.522 7.179 39.496 7.009 39.461 C 6.671 39.391 6.341 39.288 6.003 39.221 C 5.665 39.155 5.312 39.124 4.978 39.202 C 4.837 39.235 4.728 39.287 4.617 39.379 C 4.498 39.477 4.42 39.641 4.469 39.787 C 4.52 39.935 4.698 40.06 4.832 40.124 C 4.978 40.192 5.156 40.189 5.311 40.159 C 5.457 40.13 5.541 40.142 5.692 40.185 C 6.046 40.291 6.385 40.442 6.717 40.603 C 6.899 40.691 7.086 40.757 7.266 40.839 C 7.434 40.916 7.608 41.004 7.797 40.955 C 7.916 40.925 8.016 40.841 8.08 40.735 C 8.121 40.669 8.15 40.594 8.162 40.518 C 8.195 40.322 8.134 40.119 8.043 39.941 Z " stroke-width="1"/>
          </g>
          <g id="ID0.5281776944175363">
            <path id="ID0.8989122305065393" fill="#704413" d="M 6.343 38.805 C 6.323 38.84 6.306 38.877 6.29 38.914 C 6.233 39.034 6.185 39.189 6.28 39.305 C 6.327 39.362 6.428 39.395 6.503 39.387 C 6.618 39.374 6.694 39.311 6.778 39.239 C 6.768 39.326 6.739 39.412 6.747 39.499 C 6.761 39.651 6.893 39.78 7.046 39.797 C 7.196 39.816 7.353 39.728 7.427 39.595 C 7.406 39.681 7.386 39.769 7.4 39.855 C 7.421 40.011 7.595 40.133 7.752 40.084 C 7.811 40.065 7.856 40.024 7.897 39.978 C 7.92 39.929 7.948 39.886 7.965 39.827 C 8.277 38.762 10.469 35.757 11.219 35.461 L 10.199 34.057 C 9.664 34.268 9.213 34.69 8.822 35.102 C 8.33 35.619 7.896 36.192 7.5 36.784 C 7.137 37.327 6.799 37.891 6.512 38.481 C 6.459 38.586 6.4 38.693 6.343 38.805 Z " stroke-width="1"/>
          </g>
        </g>
        <path id="ID0.4085379666648805" fill="none" stroke="#704413" stroke-width="1.5" stroke-linecap="round" d="M 10.56 33.861 C 12.703 36.673 16.14 37.961 19.636 37.578 C 21.652 37.357 23.656 36.353 24.708 34.62 C 25.759 32.887 25.614 30.396 24.103 29.045 C 23.669 28.655 23.124 28.365 22.542 28.327 C 21.571 28.264 20.651 28.935 20.235 29.812 C 19.913 30.491 19.86 31.325 20.221 31.982 C 21.207 33.776 24.573 32.288 23.159 30.616 C 22.804 30.195 22.077 30.13 21.755 30.638 "/>
        <g id="ID0.5733548053540289">
          <path id="ID0.07380568236112595" fill="#704413" d="M 8.371 29.964 C 8.392 29.588 8.392 29.209 8.392 28.831 C 8.388 27.585 8.359 26.293 8.634 25.129 C 9.087 23.206 10.349 21.934 11.355 21.934 C 11.384 21.934 11.412 21.936 11.439 21.938 C 12.332 21.998 13.08 22.86 13.527 23.674 C 14.177 24.864 14.402 26.372 14.533 27.747 C 14.679 29.297 14.646 30.863 14.554 32.416 C 14.497 33.379 14.595 35.266 13.622 35.723 C 12.884 36.072 12.128 36.121 11.354 36.121 C 10.584 36.121 9.829 36.071 9.088 35.723 C 7.838 35.133 8.271 31.643 8.371 29.964 Z " stroke-width="1"/>
        </g>
        <path id="ID0.5066210376098752" fill="#4E2F06" d="M 13.404 25.102 C 13.896 25.198 14.396 25.945 14.638 26.342 C 14.343 26.203 13.97 25.91 13.64 25.928 C 13.472 25.936 13.304 25.961 13.136 25.951 C 12.968 25.941 12.794 25.889 12.679 25.767 C 12.562 25.646 12.521 25.443 12.617 25.306 C 12.656 25.251 12.713 25.211 12.771 25.181 C 12.962 25.08 13.191 25.061 13.404 25.102 Z " stroke-width="1"/>
        <path id="ID0.7539048339240253" fill="none" stroke="#704413" stroke-width="1.9" d="M 17.365 31.581 C 16.943 28.167 16.418 26.396 12.963 23.92 "/>
        <g id="ID0.31828192062675953">
          <g id="ID0.3310151482000947">
            <path id="ID0.05281770881265402" fill="#D28F5B" d="M 17.755 34.037 C 17.753 34.193 17.773 34.363 17.708 34.51 C 17.624 34.694 17.419 34.75 17.231 34.739 C 16.631 34.704 16.78 33.822 16.768 33.433 C 16.758 33.152 16.719 32.663 16.827 32.457 C 16.911 32.293 17.163 32.284 17.331 32.364 C 17.497 32.444 17.61 32.61 17.667 32.785 C 17.791 33.172 17.759 33.641 17.755 34.037 Z " stroke-width="1"/>
          </g>
          <g id="ID0.5279111946001649">
            <path id="ID0.3838586527854204" fill="#D28F5B" d="M 15.658 32.344 C 15.545 32.45 15.404 32.549 15.34 32.698 C 15.26 32.884 15.358 33.074 15.49 33.205 C 15.922 33.624 16.472 32.92 16.765 32.667 C 16.98 32.483 17.396 32.272 17.447 31.966 C 17.478 31.784 17.347 31.601 17.176 31.53 C 17.006 31.462 16.807 31.49 16.639 31.567 C 16.273 31.732 15.947 32.071 15.658 32.344 Z " stroke-width="1"/>
          </g>
          <g id="ID0.9419121211394668">
            <path id="ID0.621614009141922" fill="#D28F5B" d="M 19.011 33.475 C 19.072 33.619 19.157 33.766 19.156 33.926 C 19.154 34.126 18.99 34.262 18.814 34.327 C 18.252 34.535 18.033 33.668 17.865 33.318 C 17.746 33.062 17.492 32.642 17.527 32.401 C 17.556 32.218 17.767 32.107 17.953 32.113 C 18.139 32.12 18.307 32.226 18.43 32.365 C 18.697 32.667 18.857 33.107 19.011 33.475 Z " stroke-width="1"/>
          </g>
          <g id="ID0.1902882601134479">
            <path id="ID0.9323538229800761" fill="#D28F5B" d="M 19.943 32.602 C 20.039 32.725 20.162 32.846 20.201 33 C 20.252 33.195 20.127 33.369 19.972 33.477 C 19.482 33.825 19.048 33.041 18.796 32.747 C 18.612 32.532 18.235 32.259 18.234 31.947 C 18.234 31.762 18.39 31.602 18.57 31.559 C 18.752 31.518 18.941 31.579 19.095 31.68 C 19.431 31.903 19.699 32.288 19.943 32.602 Z " stroke-width="1"/>
          </g>
          <g id="ID0.27285985089838505">
            <path id="ID0.17621691012755036" fill="#D28F5B" d="M 17.396 32.587 C 17.773 32.628 18.144 32.489 18.492 32.339 C 18.795 32.209 19.092 32.069 19.379 31.912 C 19.301 31.808 19.203 31.721 19.108 31.635 C 18.924 31.469 18.735 31.301 18.506 31.204 C 18.164 31.058 17.768 31.092 17.42 31.217 C 17.207 31.291 17.002 31.382 16.803 31.488 C 16.539 31.626 16.26 31.759 16.115 32.034 C 16.058 32.138 16.029 32.274 16.103 32.364 C 16.14 32.408 16.197 32.43 16.253 32.45 C 16.441 32.514 16.638 32.555 16.835 32.569 C 16.923 32.575 16.993 32.559 17.077 32.548 C 17.181 32.537 17.295 32.576 17.396 32.587 Z " stroke-width="1"/>
          </g>
        </g>
        <g id="ID0.46475311554968357">
          <g id="ID0.8390564834699035">
            <path id="ID0.41324836015701294" fill="#D28F5B" d="M 4.658 34.079 C 4.668 34.235 4.654 34.405 4.726 34.548 C 4.818 34.727 5.027 34.776 5.214 34.755 C 5.81 34.692 5.618 33.817 5.61 33.43 C 5.604 33.147 5.622 32.659 5.506 32.457 C 5.41 32.297 5.158 32.301 4.998 32.389 C 4.834 32.477 4.728 32.649 4.682 32.827 C 4.58 33.217 4.634 33.682 4.658 34.079 Z " stroke-width="1"/>
          </g>
          <g id="ID0.046963986940681934">
            <path id="ID0.23927341029047966" fill="#D28F5B" d="M 6.67 32.285 C 6.789 32.387 6.934 32.478 7.004 32.622 C 7.094 32.803 7.006 32.998 6.879 33.137 C 6.469 33.576 5.885 32.899 5.578 32.66 C 5.355 32.487 4.93 32.297 4.863 31.993 C 4.824 31.812 4.945 31.623 5.113 31.546 C 5.281 31.469 5.48 31.487 5.652 31.557 C 6.025 31.705 6.365 32.027 6.67 32.285 Z " stroke-width="1"/>
          </g>
          <g id="ID0.1429606839083135">
            <path id="ID0.09354597330093384" fill="#D28F5B" d="M 3.375 33.577 C 3.32 33.723 3.24 33.874 3.25 34.035 C 3.262 34.236 3.434 34.363 3.613 34.42 C 4.185 34.602 4.361 33.725 4.509 33.366 C 4.614 33.105 4.851 32.673 4.802 32.433 C 4.765 32.251 4.548 32.152 4.363 32.165 C 4.179 32.181 4.015 32.296 3.9 32.438 C 3.648 32.756 3.511 33.204 3.375 33.577 Z " stroke-width="1"/>
          </g>
          <g id="ID0.3175611551851034">
            <path id="ID0.9412224497646093" fill="#D28F5B" d="M 2.402 32.752 C 2.312 32.879 2.197 33.005 2.164 33.162 C 2.125 33.359 2.258 33.526 2.416 33.628 C 2.924 33.95 3.318 33.149 3.553 32.84 C 3.725 32.616 4.09 32.325 4.076 32.014 C 4.068 31.829 3.904 31.678 3.722 31.645 C 3.54 31.612 3.351 31.682 3.201 31.791 C 2.88 32.028 2.63 32.426 2.402 32.752 Z " stroke-width="1"/>
          </g>
          <g id="ID0.17733905278146267">
            <path id="ID0.8176612723618746" fill="#D28F5B" d="M 4.945 32.612 C 4.57 32.672 4.193 32.55 3.838 32.417 C 3.531 32.303 3.229 32.178 2.934 32.033 C 3.006 31.926 3.098 31.834 3.19 31.743 C 3.368 31.569 3.547 31.39 3.772 31.284 C 4.106 31.122 4.502 31.137 4.858 31.242 C 5.073 31.306 5.284 31.388 5.487 31.482 C 5.758 31.607 6.042 31.726 6.2 31.994 C 6.262 32.096 6.3 32.23 6.225 32.324 C 6.192 32.37 6.135 32.396 6.08 32.417 C 5.896 32.492 5.701 32.541 5.504 32.563 C 5.416 32.574 5.346 32.561 5.26 32.557 C 5.156 32.553 5.046 32.598 4.945 32.612 Z " stroke-width="1"/>
          </g>
        </g>
        <g id="ID0.20979536650702357">
          <path id="ID0.8250362225808203" fill="#D28F5B" d="M 11.373 40.907 C 11.021 40.825 10.662 40.812 10.301 40.838 C 10.043 40.858 9.764 40.852 9.512 40.923 C 9.225 41.005 8.662 41.402 8.922 41.758 C 9.016 41.885 9.223 41.952 9.369 41.973 C 9.588 42.001 9.844 41.897 10.031 41.789 C 10.189 41.696 10.353 41.61 10.529 41.555 C 10.638 41.52 10.74 41.464 10.843 41.422 C 11.072 41.331 11.343 41.342 11.585 41.311 C 11.63 41.305 11.675 41.298 11.714 41.277 C 11.753 41.256 11.786 41.217 11.79 41.173 C 11.792 41.144 11.78 41.114 11.765 41.089 C 11.714 41.011 11.619 40.976 11.531 40.948 C 11.48 40.934 11.425 40.92 11.373 40.907 Z " stroke-width="1"/>
          <path id="ID0.6084266710095108" fill="#704413" d="M 9.492 42.025 C 9.418 42.101 9.34 42.177 9.25 42.232 C 9.232 42.243 9.215 42.253 9.195 42.249 C 9.174 42.245 9.16 42.227 9.148 42.207 C 9.027 41.999 9.113 41.707 9.281 41.553 C 9.39 41.451 9.531 41.391 9.677 41.358 C 9.874 41.311 10.103 41.286 10.306 41.299 C 10.314 41.301 10.322 41.301 10.327 41.307 C 10.339 41.315 10.335 41.33 10.329 41.342 C 10.315 41.378 10.286 41.405 10.257 41.432 C 10.181 41.498 10.097 41.559 10.007 41.611 C 9.919 41.663 9.819 41.702 9.745 41.774 C 9.66 41.855 9.578 41.941 9.492 42.025 Z " stroke-width="1"/>
          <path id="ID0.38578581996262074" fill="#D28F5B" d="M 11.461 41.752 C 11.502 41.741 11.553 41.727 11.586 41.697 C 11.607 41.677 11.623 41.65 11.645 41.63 C 11.696 41.578 11.739 41.526 11.76 41.456 C 11.778 41.398 11.817 41.342 11.801 41.282 C 11.793 41.245 11.762 41.217 11.729 41.199 C 11.696 41.181 11.657 41.178 11.62 41.172 C 11.432 41.152 11.241 41.18 11.058 41.217 C 10.966 41.237 10.882 41.25 10.787 41.256 C 10.693 41.262 10.599 41.272 10.506 41.281 C 10.246 41.308 9.969 41.312 9.719 41.394 C 9.436 41.485 8.887 41.901 9.158 42.248 C 9.256 42.372 9.465 42.432 9.613 42.447 C 9.832 42.468 10.086 42.355 10.265 42.242 C 10.423 42.142 10.583 42.053 10.757 41.99 C 10.864 41.951 10.964 41.892 11.066 41.847 C 11.191 41.791 11.328 41.788 11.461 41.752 Z " stroke-width="1"/>
          <path id="ID0.9983588908798993" fill="#704413" d="M 10.9 41.562 C 10.83 41.644 10.759 41.732 10.732 41.837 C 10.72 41.875 10.716 41.918 10.695 41.951 C 10.672 41.987 10.631 42.014 10.597 42.04 C 10.427 42.168 10.281 42.326 10.13 42.478 C 10.054 42.554 9.976 42.629 9.884 42.685 C 9.866 42.696 9.851 42.706 9.829 42.702 C 9.809 42.698 9.796 42.68 9.782 42.66 C 9.667 42.458 9.735 42.166 9.895 42.008 C 10.059 41.846 10.262 41.721 10.483 41.645 C 10.619 41.598 10.759 41.569 10.9 41.562 Z " stroke-width="1"/>
          <g id="ID0.40826499555259943">
            <path id="ID0.148819659370929" fill="#D28F5B" d="M 12.925 40.998 C 12.814 40.936 12.693 40.889 12.57 40.855 C 12.519 40.84 12.439 40.808 12.386 40.819 C 12.335 40.829 12.29 40.881 12.253 40.914 C 12.12 41.026 11.96 41.102 11.798 41.164 C 11.48 41.291 11.146 41.387 10.827 41.518 C 10.509 41.647 10.198 41.817 9.96 42.065 C 9.862 42.169 9.8 42.274 9.757 42.412 C 9.71 42.559 9.736 42.74 9.857 42.835 C 9.98 42.931 10.199 42.939 10.347 42.917 C 10.505 42.894 10.652 42.794 10.765 42.685 C 10.87 42.581 10.949 42.542 11.097 42.498 C 11.451 42.392 11.818 42.331 12.183 42.282 C 12.384 42.256 12.576 42.208 12.773 42.178 C 12.957 42.151 13.148 42.126 13.279 41.983 C 13.363 41.891 13.4 41.766 13.396 41.641 C 13.394 41.565 13.376 41.487 13.345 41.416 C 13.261 41.232 13.101 41.096 12.925 40.998 Z " stroke-width="1"/>
          </g>
          <g id="ID0.4779437822289765">
            <path id="ID0.7175393612124026" fill="#704413" d="M 10.882 40.98 C 10.886 41.021 10.892 41.062 10.898 41.103 C 10.919 41.232 10.962 41.39 11.105 41.433 C 11.177 41.454 11.281 41.429 11.337 41.381 C 11.427 41.306 11.454 41.212 11.485 41.105 C 11.524 41.183 11.547 41.271 11.6 41.338 C 11.694 41.458 11.877 41.492 12.012 41.423 C 12.149 41.355 12.231 41.196 12.219 41.044 C 12.248 41.127 12.28 41.212 12.338 41.278 C 12.443 41.395 12.652 41.402 12.758 41.276 C 12.797 41.227 12.813 41.17 12.82 41.106 C 12.812 41.053 12.81 41.002 12.793 40.943 C 12.471 39.881 12.648 36.167 13.111 35.506 L 11.488 34.893 C 11.158 35.366 11.013 35.964 10.914 36.524 C 10.785 37.225 10.738 37.942 10.732 38.655 C 10.728 39.309 10.755 39.967 10.839 40.616 C 10.857 40.735 10.867 40.859 10.882 40.98 Z " stroke-width="1"/>
          </g>
        </g>
        <g id="ID0.8153377617709339">
          <path id="ID0.855984759517014" fill="#D28F5B" d="M 8.857 26.901 C 9.328 26.343 10.089 26.039 10.562 26.713 C 11.123 27.513 11.037 28.439 11.072 29.349 C 11.111 30.386 11.252 31.418 11.488 32.429 C 11.609 32.948 11.758 33.466 11.754 33.999 C 11.746 35.081 11.057 35.671 9.998 35.671 C 8.947 35.671 8.002 35.246 7.73 34.15 C 7.55 33.421 7.695 32.657 7.837 31.921 C 8.021 30.982 8.304 30.028 8.304 29.068 C 8.339 28.309 8.359 27.493 8.857 26.901 Z " stroke-width="1"/>
        </g>
        <g id="ID0.1401666891761124">
          <path id="ID0.8407000922597945" fill="#704413" d="M 3.197 13.113 C 3.025 11.917 2.939 10.698 3.113 9.504 C 3.287 8.301 3.771 7.201 4.461 6.207 C 5.082 5.311 6.143 4.775 7.143 4.367 C 8.493 3.814 9.938 3.429 11.428 3.429 C 14.885 3.429 18.313 5.201 20.293 8.033 C 21.588 9.883 22.272 12.119 22.443 14.371 C 22.554 15.823 22.453 17.312 21.939 18.676 C 20.38 22.787 15.406 24.154 11.427 24.154 C 9.003 24.154 6.372 23.684 4.271 22.466 C 2.677 21.542 1.74 20.355 2.466 18.487 C 2.745 17.766 3.154 17.092 3.329 16.341 C 3.575 15.294 3.354 14.201 3.198 13.136 C 3.199 13.126 3.199 13.12 3.197 13.113 Z " stroke-width="1"/>
        </g>
        <path id="ID0.5981453177519143" fill="#4E2F06" d="M 14.662 8.137 C 15.795 7.711 16.703 6.758 17.973 6.733 C 18.485 6.721 18.993 6.819 19.469 7.004 C 19.765 7.328 20.041 7.671 20.293 8.031 C 21.152 9.258 21.736 10.656 22.086 12.114 C 21.967 12.894 21.69 13.713 21.193 14.243 C 20.711 14.762 19.929 15.056 19.3 15.347 C 18.904 15.529 18.464 15.528 18.073 15.747 C 17.835 15.882 17.655 16.11 17.356 16.121 C 17.11 16.13 16.899 15.927 16.815 15.694 C 16.71 15.393 16.731 15.046 16.694 14.731 C 16.649 14.36 16.581 13.991 16.505 13.626 C 16.353 12.927 16.146 12.239 15.888 11.573 C 15.681 11.042 15.441 10.525 15.169 10.025 C 15.023 9.755 14.907 9.417 14.728 9.172 C 14.578 8.971 14.208 8.909 14.179 8.622 C 14.156 8.379 14.431 8.225 14.662 8.137 Z " stroke-width="1"/>
        <g id="ID0.4237910038791597">
          <g id="ID0.40271202428266406">
            <path id="ID0.6269760951399803" fill="#704413" d="M 17.91 15.204 C 17.287 15.237 16.598 15.012 16.017 14.801 C 13.792 13.992 13.355 10.822 14.562 9.018 C 15.271 7.96 16.181 7.546 17.406 7.257 C 18.056 7.104 18.76 7.024 19.377 7.278 C 20.185 7.61 20.671 8.436 20.992 9.249 C 21.306 10.043 21.596 10.805 21.646 11.665 C 21.699 12.589 21.289 13.626 20.656 14.296 C 20.002 14.993 18.82 15.157 17.91 15.204 Z " stroke-width="1"/>
          </g>
          <g id="ID0.2637528460472822">
            <path id="ID0.8682453585788608" fill="#D28F5B" d="M 15.972 9.741 C 15.978 9.003 16.622 8.692 17.175 8.564 C 17.548 8.478 17.952 8.443 18.32 8.634 C 18.8 8.886 19.107 9.47 19.318 10.039 C 19.533 10.622 19.804 11.392 19.756 12.006 C 19.711 12.597 19.512 13.168 19.17 13.576 C 18.416 14.473 16.891 14.001 17.004 12.481 C 17.049 11.895 17.381 11.406 17.809 11.141 C 17.461 11.252 17.067 11.234 16.721 11.039 C 16.373 10.846 16.082 10.463 16 10.028 C 15.98 9.928 15.97 9.83 15.972 9.741 Z " stroke-width="1"/>
          </g>
        </g>
        <g id="ID0.0038946387358009815">
          <path id="ID0.6580919581465423" fill="#D28F5B" d="M 2.869 17.1 C 2.863 17.829 2.9 18.557 3.002 19.272 C 3.111 20.048 3.232 20.751 3.688 21.151 C 4.256 21.649 4.825 21.242 5.381 20.88 C 6.174 20.366 6.871 19.503 7.406 18.443 C 8.172 16.93 8.924 14.477 8.734 12.489 C 8.64 11.497 8.347 10.533 7.863 9.893 C 7.177 8.985 6.263 8.54 5.383 8.872 C 3.987 9.401 3.336 11.337 3.121 13.453 C 3 14.646 2.877 15.878 2.869 17.1 Z " stroke-width="1"/>
        </g>
        <g id="ID0.5119771119207144">
          <path id="ID0.8378152111545205" fill="#D28F5B" d="M 3.367 17.1 C 3.367 17.83 3.359 18.557 3.342 19.272 C 3.321 20.048 3.297 20.751 3.209 21.151 C 3.098 21.649 2.988 21.242 2.881 20.88 C 2.729 20.366 2.594 19.503 2.488 18.443 C 2.342 16.93 2.422 11.921 2.797 9.919 C 2.967 9.017 3.26 8.578 3.43 8.91 C 3.7 9.438 3.278 11.339 3.319 13.453 C 3.341 14.648 3.365 15.878 3.367 17.1 Z " stroke-width="1"/>
        </g>
        <path id="ID0.05575944622978568" fill="#D28F5B" d="M 2.988 17.309 C 2.949 17.225 2.894 17.149 2.859 17.067 C 2.822 16.981 2.808 16.909 2.74 16.839 C 2.726 16.826 2.713 16.815 2.695 16.811 C 2.668 16.805 2.642 16.82 2.621 16.835 C 2.291 17.075 2.225 17.564 2.232 17.943 C 2.238 18.3 2.345 18.658 2.556 18.946 C 2.617 19.028 2.712 19.111 2.808 19.078 C 2.841 19.066 2.869 19.041 2.894 19.016 C 3.103 18.796 3.201 18.487 3.203 18.184 C 3.203 17.881 3.113 17.583 2.988 17.309 Z " stroke-width="1"/>
        <g id="ID0.4465222670696676">
          <path id="ID0.8522064122371376" fill="#D28F5B" d="M 6.972 17.303 C 5.44 17.303 4.052 17.74 3.046 18.446 C 2.041 19.152 1.419 20.127 1.419 21.203 C 1.419 22.279 2.041 23.254 3.046 23.96 C 4.052 24.666 5.44 25.103 6.972 25.103 C 8.504 25.103 9.892 24.666 10.898 23.96 C 11.903 23.254 12.525 22.279 12.525 21.203 C 12.525 20.127 11.903 19.152 10.898 18.446 C 9.892 17.74 8.504 17.303 6.972 17.303 Z " stroke-width="1"/>
        </g>
        <g id="ID0.65566835552454">
          <path id="ID0.06857744790613651" fill="#090503" d="M 2.796 22.038 C 3.622 22.038 4.448 21.711 5.14 21.057 C 5.259 20.945 5.281 20.736 5.189 20.59 C 5.095 20.444 4.923 20.418 4.806 20.53 C 4.357 20.961 3.781 21.261 3.161 21.347 C 2.864 21.388 2.563 21.377 2.268 21.319 C 2.098 21.285 1.594 21.007 1.477 21.194 C 1.454 21.232 1.446 21.277 1.444 21.321 C 1.42 21.989 2.33 22.038 2.796 22.038 Z " stroke-width="1"/>
        </g>
        <g id="ID0.12030488112941384">
          <g id="ID0.6421225573867559">
            <g id="ID0.6806609402410686">
              <path id="ID0.15522268367931247" fill="#FFFFFF" d="M 7.798 13.814 C 7.886 15.294 7.066 16.586 5.966 16.705 C 4.872 16.821 3.915 15.715 3.827 14.234 C 3.739 12.755 4.559 11.461 5.655 11.341 C 6.754 11.227 7.712 12.333 7.798 13.814 Z " stroke-width="1"/>
            </g>
          </g>
          <g id="ID0.7420879225246608">
            <path id="ID0.7316705621778965" fill="#090503" d="M 5.435 14.662 C 5.414 14.707 5.382 14.749 5.349 14.781 C 4.765 15.323 4.138 14.773 4.136 14.027 C 4.138 13.488 4.458 13.048 4.859 13.048 C 5.406 13.041 5.816 13.874 5.435 14.662 Z " stroke-width="1"/>
          </g>
        </g>
        <g id="ID0.7301977686583996">
          <path id="ID0.7855261196382344" fill="#704413" d="M 8.043 4.557 C 9.063 5.272 10.582 5.161 11.52 4.358 C 11.905 4.031 12.153 3.504 12.032 3.012 C 11.995 2.856 11.921 2.704 11.8 2.6 C 11.57 2.402 11.21 2.406 10.945 2.555 C 10.681 2.702 10.502 2.969 10.384 3.249 C 10.327 2.975 10.323 2.575 10.173 2.339 C 9.991 2.059 9.708 1.786 9.378 1.827 C 8.987 1.875 8.786 2.322 8.735 2.711 C 8.706 2.944 8.704 3.182 8.727 3.416 C 8.709 3.215 8.565 3.042 8.387 2.943 C 8.211 2.843 8.008 2.804 7.809 2.775 C 7.721 2.761 7.621 2.752 7.549 2.804 C 7.504 2.834 7.477 2.886 7.455 2.935 C 7.211 3.506 7.533 4.199 8.043 4.557 Z " stroke-width="1"/>
        </g>
        <g id="ID0.057392224203795195">
          <g id="ID0.07081744773313403">
            <g id="ID0.7980466582812369">
              <path id="ID0.5770355425775051" fill="#FFFFFF" d="M 3.056 13.814 C 3.074 15.294 2.91 16.586 2.695 16.705 C 2.48 16.821 2.293 15.715 2.275 14.234 C 2.257 12.755 2.42 11.461 2.634 11.341 C 2.851 11.227 3.039 12.333 3.056 13.814 Z " stroke-width="1"/>
            </g>
          </g>
          <g id="ID0.4377982676960528">
            <path id="ID0.31978690391406417" fill="#090503" d="M 2.591 14.662 C 2.587 14.707 2.581 14.749 2.575 14.781 C 2.46 15.323 2.337 14.773 2.337 14.027 C 2.337 13.488 2.399 13.048 2.478 13.048 C 2.588 13.041 2.668 13.874 2.591 14.662 Z " stroke-width="1"/>
          </g>
        </g>
        <g id="ID0.45831512566655874">
          <path id="ID0.5995348277501762" fill="#704413" d="M 3.259 18.02 C 3.249 17.965 3.251 17.91 3.259 17.854 C 3.284 17.667 3.404 17.44 3.55 17.411 C 3.659 17.39 3.773 17.533 3.782 17.682 C 3.805 17.971 3.596 18.35 3.372 18.204 C 3.308 18.162 3.273 18.098 3.259 18.02 Z " stroke-width="1"/>
        </g>
        <g id="ID0.46581062441691756">
          <path id="ID0.20025669923052192" fill="#704413" d="M 2.593 18.02 C 2.597 17.965 2.595 17.91 2.593 17.854 C 2.583 17.667 2.546 17.44 2.495 17.411 C 2.46 17.39 2.425 17.533 2.421 17.682 C 2.411 17.971 2.482 18.35 2.556 18.204 C 2.578 18.163 2.589 18.098 2.593 18.02 Z " stroke-width="1"/>
        </g>
        <path id="ID0.2266272255219519" fill="#704413" d="M 3.097 16.23 L 3.097 16.23 C 3.63 16.23 4.361 16.642 4.37 17.357 C 4.37 17.388 4.368 17.419 4.358 17.448 C 4.346 17.476 4.325 17.499 4.297 17.5 C 4.254 17.5 4.227 17.442 4.209 17.395 C 4.018 16.874 3.539 16.714 3.096 16.714 L 3.096 16.714 L 3.096 16.23 L 3.097 16.23 Z " stroke-width="1"/>
        <path id="ID0.809263844974339" fill="#704413" d="M 3.097 16.23 L 3.097 16.712 C 2.82 16.712 2.521 16.873 2.4 17.394 C 2.388 17.442 2.373 17.499 2.345 17.498 C 2.327 17.498 2.314 17.474 2.308 17.446 C 2.3 17.418 2.3 17.385 2.3 17.356 C 2.306 16.643 2.763 16.23 3.097 16.23 Z " stroke-width="1"/>
      </g>
    </g>
  </g>
</svg>