<?xml version="1.0" encoding="utf-8"?><!-- Generator: Adobe Illustrator 16.0.0, SVG Export Plug-In . SVG Version: 6.00 Build 0)  --><!DOCTYPE svg PUBLIC "-//W3C//DTD SVG 1.0//EN" "http://www.w3.org/TR/2001/REC-SVG-20010904/DTD/svg10.dtd"><svg xmlns="http://www.w3.org/2000/svg" xmlns:xlink="http://www.w3.org/1999/xlink" version="1.0" id="Calque_1" x="0px" y="0px" width="56.232208251953125" height="55.722999572753906" viewBox="8.887975692749023 8.63700008392334 56.232208251953125 55.722999572753906" enable-background="new 0 0 74 73" xml:space="preserve">
<g id="pierre_ronde">
	<g>
		<path d="M35.795,10.138c1.215,0,2.422,0.1,3.604,0.305c0.578,0.101,1.156,0.226,1.74,0.244c0.057,0.002,0.115,0.002,0.17,0.002    c0.639,0,1.273-0.106,1.912-0.123c0.053-0.002,0.107-0.002,0.16-0.002c0.871,0,1.742,0.175,2.545,0.511    c0.311,0.129,0.617,0.287,0.84,0.539c0.176,0.2,0.289,0.454,0.469,0.652c0.385,0.419,0.99,0.526,1.533,0.688    c0.939,0.276,1.812,0.783,2.52,1.463c0.254,0.242,0.496,0.514,0.822,0.646c0.992,0.4,1.582,0.473,2.42,1.196    c1.264,1.092,2.273,2.318,3.324,3.609c0.434,0.533,0.875,1.082,1.09,1.735c0.109,0.334,0.158,0.689,0.307,1.011    c0.168,0.356,0.451,0.646,0.729,0.928c0.508,0.512,1.016,1.025,1.521,1.537c0.197,0.199,0.398,0.404,0.52,0.656    c0.152,0.312,0.168,0.67,0.189,1.018s0.061,0.693,0.107,1.04l0.018,0.131c0.051,0.351,0.109,0.701,0.178,1.052    c0.535,2.808,1.498,5.588,0.924,8.444c-0.133,0.656-0.334,1.3-0.395,1.966c-0.053,0.601,0.008,1.211-0.102,1.805    c-0.109,0.599-0.393,1.164-0.424,1.773c-0.049,0.877,0.428,1.748,0.248,2.607c-0.328,1.563-1.752,3.413-2.934,4.461    c-0.896,0.793-1.652,1.4-1.988,2.501c-0.023,0.077-0.045,0.156-0.064,0.238c-0.031,0.136-0.061,0.271-0.08,0.421    c-0.029,0.233-0.047,0.483-0.188,0.675c-0.119,0.159-0.309,0.249-0.486,0.339c-1.787,0.906-3.1,2.512-4.65,3.78    c-1.822,1.488-4.035,2.533-6.371,2.804c-0.711,0.083-1.434,0.094-2.135,0.231c-1.291,0.255-2.459,0.924-3.705,1.349    c-0.947,0.322-1.951,0.5-2.951,0.5c-0.74,0-1.48-0.099-2.191-0.305c-0.57-0.169-1.127-0.406-1.715-0.519    c-0.639-0.121-1.297-0.09-1.947-0.133c-2.236-0.15-4.307-1.188-6.307-2.207c-1.016-0.519-2.041-1.041-2.924-1.766    c-0.488-0.401-0.934-0.863-1.48-1.18c-0.098-0.058-0.201-0.107-0.303-0.159c-0.232-0.114-0.467-0.225-0.678-0.371    c-0.303-0.214-0.547-0.5-0.789-0.782c-1.83-2.154-3.801-3.923-4.979-6.567c-0.193-0.435-0.332-0.896-0.584-1.3    c-0.225-0.357-0.529-0.654-0.795-0.982c-0.488-0.606-0.84-1.327-1.016-2.088c-0.189-0.826-0.174-1.684-0.246-2.528    c-0.092-1.092-0.332-2.162-0.525-3.239c-0.357-1.991-0.553-4.063-0.031-6.02c0.27-1.011,0.727-1.969,0.928-2.995    c0.088-0.445,0.129-0.903,0.275-1.334c0.197-0.584,0.578-1.082,0.934-1.587c1.34-1.893,2.262-3.924,3.096-6.072    c0.678-1.743,2.566-3.311,3.967-4.516c1.334-1.147,2.789-2.153,4.324-3.016c0.264-0.148,0.523-0.303,0.791-0.44    C28.275,11.076,32.062,10.137,35.795,10.138 M35.795,9.137v1.001V9.137c-3.834,0-7.824,0.974-11.238,2.739    c-0.209,0.106-0.412,0.224-0.617,0.34l-0.205,0.115c-1.619,0.91-3.129,1.965-4.484,3.131l-0.193,0.166    c-1.479,1.27-3.316,2.848-4.053,4.745c-0.701,1.804-1.604,3.911-2.98,5.857l-0.105,0.15c-0.344,0.482-0.734,1.027-0.959,1.691    c-0.127,0.375-0.188,0.747-0.242,1.075c-0.02,0.129-0.041,0.259-0.066,0.387c-0.102,0.519-0.283,1.037-0.479,1.587    c-0.152,0.431-0.311,0.877-0.434,1.344c-0.607,2.275-0.312,4.645,0.014,6.453c0.047,0.263,0.096,0.524,0.146,0.789    c0.154,0.812,0.301,1.582,0.367,2.358c0.02,0.242,0.033,0.484,0.045,0.729c0.035,0.627,0.07,1.276,0.223,1.938    c0.209,0.906,0.627,1.769,1.211,2.49c0.098,0.121,0.199,0.239,0.303,0.356c0.164,0.187,0.316,0.36,0.424,0.53    c0.121,0.194,0.221,0.444,0.324,0.709c0.062,0.155,0.125,0.312,0.191,0.466c0.967,2.168,2.43,3.789,3.848,5.356    c0.424,0.471,0.861,0.956,1.283,1.451c0.266,0.312,0.566,0.666,0.977,0.954c0.25,0.174,0.502,0.297,0.725,0.407l0.082,0.041    c0.082,0.04,0.168,0.082,0.248,0.13c0.299,0.172,0.588,0.426,0.895,0.694c0.146,0.133,0.299,0.265,0.453,0.392    c0.969,0.796,2.055,1.349,3.104,1.884c1.977,1.007,4.215,2.147,6.693,2.313c0.227,0.016,0.455,0.021,0.684,0.028    c0.408,0.012,0.793,0.022,1.145,0.088c0.309,0.061,0.629,0.168,0.969,0.284c0.217,0.073,0.434,0.147,0.65,0.211    c0.785,0.229,1.615,0.345,2.473,0.345c1.094,0,2.193-0.186,3.273-0.553c0.498-0.17,0.979-0.373,1.439-0.567    c0.734-0.312,1.428-0.604,2.137-0.744c0.395-0.078,0.812-0.111,1.254-0.146c0.268-0.021,0.535-0.043,0.803-0.073    c2.432-0.28,4.814-1.326,6.889-3.023c0.537-0.438,1.041-0.91,1.529-1.367c0.961-0.9,1.869-1.75,2.941-2.294l0.031-0.017    c0.221-0.111,0.553-0.278,0.805-0.617c0.285-0.383,0.336-0.801,0.369-1.076l0.008-0.068c0.014-0.1,0.035-0.198,0.062-0.319    c0.014-0.052,0.027-0.113,0.047-0.175c0.229-0.752,0.766-1.226,1.508-1.88l0.188-0.165c1.346-1.191,2.871-3.2,3.25-5.004    c0.145-0.684,0.012-1.306-0.105-1.854c-0.072-0.333-0.139-0.647-0.123-0.905c0.012-0.236,0.098-0.514,0.188-0.809    c0.076-0.25,0.166-0.535,0.221-0.839c0.08-0.438,0.086-0.864,0.092-1.241c0.002-0.23,0.004-0.449,0.023-0.652    c0.033-0.376,0.127-0.766,0.225-1.18c0.053-0.227,0.107-0.451,0.152-0.68c0.492-2.445-0.031-4.779-0.539-7.035    c-0.133-0.592-0.27-1.2-0.383-1.794c-0.066-0.342-0.123-0.68-0.17-1.006l-0.008-0.062l-0.008-0.061    c-0.051-0.372-0.082-0.68-0.102-0.97l-0.002-0.041c-0.023-0.389-0.055-0.871-0.283-1.348c-0.195-0.404-0.48-0.693-0.711-0.925    l-0.76-0.77l-0.762-0.77c-0.215-0.219-0.438-0.442-0.533-0.647c-0.053-0.111-0.094-0.272-0.135-0.443    c-0.035-0.139-0.074-0.295-0.129-0.455c-0.273-0.836-0.799-1.483-1.264-2.054c-0.969-1.192-2.068-2.545-3.445-3.735    c-0.771-0.668-1.398-0.893-2.064-1.129c-0.193-0.07-0.402-0.146-0.637-0.238c-0.092-0.037-0.246-0.188-0.381-0.322l-0.123-0.118    c-0.82-0.789-1.834-1.377-2.928-1.7c-0.092-0.026-0.186-0.053-0.279-0.077c-0.33-0.093-0.67-0.186-0.797-0.324    c-0.037-0.041-0.092-0.123-0.143-0.203c-0.08-0.126-0.182-0.281-0.316-0.436c-0.367-0.421-0.838-0.65-1.205-0.804    c-0.92-0.383-1.934-0.586-2.93-0.586c-0.062,0-0.123,0-0.186,0.002c-0.326,0.008-0.643,0.037-0.947,0.064    c-0.33,0.031-0.641,0.059-0.939,0.059c-0.045,0-0.09,0-0.137-0.002c-0.402-0.013-0.824-0.09-1.271-0.171    c-0.109-0.02-0.221-0.04-0.33-0.059C38.352,9.245,37.08,9.138,35.795,9.137" stroke-width="1" fill="undefined"/>
		<path fill="#878787" d="M14.529,46.891c0.131,0.271,0.326,0.505,0.463,0.774c0.266,0.535,0.266,1.16,0.412,1.741    c0.148,0.581,0.545,1.188,1.141,1.234c-0.439-0.91-0.893-1.916-0.65-2.897c0.053-0.213,0.137-0.42,0.15-0.638    c0.047-0.693-0.535-1.071-0.783-1.644c-0.1-0.231,0.01-1.133-0.348-1.147c-0.104-0.004-0.178,0.097-0.225,0.188    C14.314,45.203,14.176,46.151,14.529,46.891z" stroke-width="1"/>
		<path fill="#878787" d="M16.998,22.889c0.584-0.871,1.355-1.536,1.943-2.393c-0.07-0.098-0.223-0.047-0.324,0.016    C17.688,21.075,16.992,21.735,16.998,22.889z" stroke-width="1"/>
		<path fill="#706F6F" d="M14.344,40.991c-0.018-0.205-0.654-0.807-0.766-1.08c-0.188-0.452-0.268-0.944-0.291-1.431    c-0.047-0.989,0.393-1.836,0.385-2.831c-0.004-0.457-0.215-0.882-0.238-1.312c-0.045-0.889,0.568-2.103,0.906-2.909    c0.119-0.284,0.268-0.589,0.547-0.722c-0.164,0.845-0.541,1.867-0.412,2.723c0.125,0.816,0.463,1.562,0.238,2.41    c-0.107,0.409-0.336,0.777-0.449,1.184c-0.127,0.443-0.111,0.913-0.09,1.373C14.213,39.263,14.27,40.128,14.344,40.991" stroke-width="1"/>
		<path fill="#686867" d="M59.83,50.03c-1.059,0.938-1.936,1.612-2.133,3.159c-0.029,0.234-0.047,0.485-0.188,0.676    c-0.119,0.16-0.309,0.249-0.486,0.34c-1.787,0.905-3.1,2.511-4.65,3.78c-1.82,1.487-4.035,2.532-6.371,2.804    c-0.711,0.082-1.432,0.094-2.135,0.231c-1.291,0.254-2.459,0.924-3.703,1.348c-1.65,0.561-3.471,0.684-5.145,0.194    c-0.572-0.168-1.127-0.405-1.715-0.518c-0.639-0.121-1.297-0.089-1.947-0.133c-2.238-0.15-4.307-1.188-6.307-2.207    c-1.018-0.519-2.043-1.041-2.924-1.767c-0.488-0.399-0.934-0.862-1.48-1.179c-0.322-0.186-0.676-0.317-0.979-0.53    c-0.305-0.213-0.549-0.5-0.789-0.782c-1.83-2.153-3.803-3.923-4.98-6.566c-0.191-0.436-0.33-0.896-0.584-1.301    c-0.223-0.356-0.529-0.654-0.795-0.982c-0.488-0.606-0.84-1.326-1.014-2.088c-0.191-0.825-0.176-1.684-0.246-2.529    c-0.094-1.091-0.334-2.161-0.527-3.238c-0.357-1.991-0.553-4.063-0.031-6.02c0.27-1.01,0.727-1.969,0.928-2.995    c0.09-0.445,0.129-0.903,0.275-1.334c0.197-0.583,0.578-1.083,0.934-1.587c1.34-1.892,2.262-3.924,3.096-6.071    c0.678-1.744,2.566-3.312,3.967-4.517c1.564-1.345,3.283-2.508,5.115-3.456c4.32-2.234,9.566-3.158,14.383-2.32    c0.578,0.101,1.156,0.226,1.74,0.243c0.695,0.023,1.387-0.104,2.082-0.12c0.924-0.021,1.854,0.151,2.705,0.508    c0.311,0.129,0.617,0.287,0.84,0.539c0.176,0.201,0.289,0.455,0.469,0.652c0.385,0.42,0.99,0.527,1.533,0.688    c0.939,0.276,1.812,0.783,2.521,1.463c0.252,0.242,0.496,0.514,0.82,0.646c0.992,0.4,1.582,0.472,2.42,1.195    c1.266,1.093,2.273,2.318,3.324,3.61c0.434,0.533,0.875,1.082,1.09,1.734c0.109,0.334,0.158,0.69,0.309,1.011    c0.166,0.357,0.449,0.646,0.729,0.928c0.506,0.513,1.014,1.025,1.521,1.538c0.197,0.198,0.396,0.403,0.52,0.655    c0.15,0.312,0.166,0.671,0.189,1.018c0.223,3.571,1.951,7.059,1.225,10.667c-0.133,0.655-0.334,1.3-0.393,1.966    c-0.055,0.601,0.006,1.211-0.104,1.805c-0.109,0.599-0.393,1.164-0.426,1.773c-0.047,0.877,0.43,1.748,0.25,2.607    C62.436,47.135,61.012,48.983,59.83,50.03" stroke-width="1"/>
		
			<radialGradient id="SVGID_1_" cx="-1241.3926" cy="458.5312" r="0.4998" gradientTransform="matrix(52.9808 0 0 -52.9808 65806.9375 24329.8516)" gradientUnits="userSpaceOnUse">
			<stop offset="0" style="stop-color:#929292"/>
			<stop offset="0.7999" style="stop-color:#929292"/>
			<stop offset="1" style="stop-color:#929292"/>
		</radialGradient>
		<path fill="url(#SVGID_1_)" d="M59.83,50.03c-1.059,0.938-1.936,1.612-2.133,3.159c-0.029,0.234-0.047,0.485-0.188,0.676    c-0.119,0.16-0.309,0.249-0.486,0.34c-1.787,0.905-3.1,2.511-4.65,3.78c-1.82,1.487-4.035,2.532-6.371,2.804    c-0.711,0.082-1.432,0.094-2.135,0.231c-1.291,0.254-2.459,0.924-3.703,1.348c-1.65,0.561-3.471,0.684-5.145,0.194    c-0.572-0.168-1.127-0.405-1.715-0.518c-0.639-0.121-1.297-0.089-1.947-0.133c-2.238-0.15-4.307-1.188-6.307-2.207    c-1.018-0.519-2.043-1.041-2.924-1.767c-0.488-0.399-0.934-0.862-1.48-1.179c-0.322-0.186-0.676-0.317-0.979-0.53    c-0.305-0.213-0.549-0.5-0.789-0.782c-1.83-2.153-3.803-3.923-4.98-6.566c-0.191-0.436-0.33-0.896-0.584-1.301    c-0.223-0.356-0.529-0.654-0.795-0.982c-0.488-0.606-0.84-1.326-1.014-2.088c-0.191-0.825-0.176-1.684-0.246-2.529    c-0.094-1.091-0.334-2.161-0.527-3.238c-0.357-1.991-0.553-4.063-0.031-6.02c0.27-1.01,0.727-1.969,0.928-2.995    c0.09-0.445,0.129-0.903,0.275-1.334c0.197-0.583,0.578-1.083,0.934-1.587c1.34-1.892,2.262-3.924,3.096-6.071    c0.678-1.744,2.566-3.312,3.967-4.517c1.564-1.345,3.283-2.508,5.115-3.456c4.32-2.234,9.566-3.158,14.383-2.32    c0.578,0.101,1.156,0.226,1.74,0.243c0.695,0.023,1.387-0.104,2.082-0.12c0.924-0.021,1.854,0.151,2.705,0.508    c0.311,0.129,0.617,0.287,0.84,0.539c0.176,0.201,0.289,0.455,0.469,0.652c0.385,0.42,0.99,0.527,1.533,0.688    c0.939,0.276,1.812,0.783,2.521,1.463c0.252,0.242,0.496,0.514,0.82,0.646c0.992,0.4,1.582,0.472,2.42,1.195    c1.266,1.093,2.273,2.318,3.324,3.61c0.434,0.533,0.875,1.082,1.09,1.734c0.109,0.334,0.158,0.69,0.309,1.011    c0.166,0.357,0.449,0.646,0.729,0.928c0.506,0.513,1.014,1.025,1.521,1.538c0.197,0.198,0.396,0.403,0.52,0.655    c0.15,0.312,0.166,0.671,0.189,1.018c0.223,3.571,1.951,7.059,1.225,10.667c-0.133,0.655-0.334,1.3-0.393,1.966    c-0.055,0.601,0.006,1.211-0.104,1.805c-0.109,0.599-0.393,1.164-0.426,1.773c-0.047,0.877,0.43,1.748,0.25,2.607    C62.436,47.135,61.012,48.983,59.83,50.03" stroke-width="1"/>
		<path fill="#5A5A59" d="M59.83,50.03c-1.059,0.938-1.936,1.612-2.133,3.159c-0.029,0.234-0.047,0.485-0.188,0.676    c-0.119,0.16-0.309,0.249-0.486,0.34c-1.787,0.905-3.1,2.511-4.65,3.78c-1.82,1.487-4.035,2.532-6.371,2.804    c-0.711,0.082-1.432,0.094-2.135,0.231c-1.291,0.254-2.459,0.924-3.703,1.348c-1.65,0.561-3.471,0.684-5.145,0.194    c-0.572-0.168-1.127-0.405-1.715-0.518c-0.639-0.121-1.297-0.089-1.947-0.133c-2.238-0.15-4.307-1.188-6.307-2.207    c-1.018-0.519-2.043-1.041-2.924-1.767c-0.488-0.399-0.934-0.862-1.48-1.179c-0.322-0.186-0.676-0.317-0.979-0.53    c-0.305-0.213-0.549-0.5-0.789-0.782c-1.83-2.153-3.803-3.923-4.98-6.566c-0.191-0.436-0.33-0.896-0.584-1.301    c-0.223-0.356-0.529-0.654-0.795-0.982c-0.488-0.606-0.84-1.326-1.014-2.088c-0.191-0.825-0.176-1.684-0.246-2.529    c-0.094-1.091-0.334-2.161-0.527-3.238c-0.357-1.991-0.553-4.063-0.031-6.02c0.27-1.01,0.727-1.969,0.928-2.995    c0.09-0.445,0.129-0.903,0.275-1.334c0.197-0.583,0.578-1.083,0.934-1.587c1.34-1.892,2.262-3.924,3.096-6.071    c0.678-1.744,2.566-3.312,3.967-4.517c1.564-1.345,3.283-2.508,5.115-3.456c4.32-2.234,9.566-3.158,14.383-2.32    c0.578,0.101,1.156,0.226,1.74,0.243c0.695,0.023,1.387-0.104,2.082-0.12c0.924-0.021,1.854,0.151,2.705,0.508    c0.311,0.129,0.617,0.287,0.84,0.539c0.176,0.201,0.289,0.455,0.469,0.652c0.385,0.42,0.99,0.527,1.533,0.688    c0.939,0.276,1.812,0.783,2.521,1.463c0.252,0.242,0.496,0.514,0.82,0.646c0.992,0.4,1.582,0.472,2.42,1.195    c1.266,1.093,2.273,2.318,3.324,3.61c0.434,0.533,0.875,1.082,1.09,1.734c0.109,0.334,0.158,0.69,0.309,1.011    c0.166,0.357,0.449,0.646,0.729,0.928c0.506,0.513,1.014,1.025,1.521,1.538c0.197,0.198,0.396,0.403,0.52,0.655    c0.15,0.312,0.166,0.671,0.189,1.018c0.223,3.571,1.951,7.059,1.225,10.667c-0.133,0.655-0.334,1.3-0.393,1.966    c-0.055,0.601,0.006,1.211-0.104,1.805c-0.109,0.599-0.393,1.164-0.426,1.773c-0.047,0.877,0.43,1.748,0.25,2.607    C62.436,47.135,61.012,48.983,59.83,50.03" stroke-width="1"/>
		<path fill="#949494" d="M35.648,12.474c-0.104-0.014-0.207-0.024-0.311-0.035c-1.73-0.162-3.465,0.156-5.172,0.483    c-0.709,0.136-1.475,0.304-1.953,0.843c0.791,0.461,1.73,0.273,2.674,0.086c0.916-0.182,1.836-0.363,2.625,0.051    c0.074,0.338-0.338,0.56-0.67,0.654c-1.131,0.33-2.35,0.859-3.523,0.974c-0.736,0.071-1.426-0.013-2.176,0.144    c-0.426,0.087-1.652,0.199-1.926,0.591c-0.15,0.215-0.119,1.039,0.381,0.713c-1.012,0.662-2.152,1.188-3.221,1.763    c-0.33,0.178-0.783,0.338-1.035,0.061c0.598-0.805,1.256-1.563,1.965-2.271c-1.342,0.562-2.707,1.144-3.803,2.101    c-0.928,0.812-1.615,1.854-2.293,2.883c-0.723,1.098-1.443,2.193-2.166,3.289c0.312,0.306,0.848,0.248,1.207,0.001    s0.59-0.637,0.824-1.003c0.754-1.172,1.68-2.23,2.74-3.134c-0.924,0.629-0.861,1.98-1.26,3.026    c-0.279,0.737-0.811,1.348-1.332,1.938c-1.441,1.639-3.215,3.119-4.447,4.916c-1.99,2.902-1.979,6.71-1.58,10.208    c-0.006-1.738,0.416-3.476,1.219-5.017c0.107,1.854,0.217,3.713,0.322,5.567c0.033,0.572,0.068,1.152,0.26,1.692    c0.244,0.694,0.729,1.276,1.062,1.932c0.732,1.433,0.721,3.133,1.287,4.638c1.248,3.322,4.936,4.986,7.137,7.771    c-0.977-1.645-2.422-2.969-3.424-4.599c-1-1.63-1.492-3.819-0.432-5.411c0.691,1.032,0.898,2.303,1.32,3.471    c1.004,2.791,3.277,5.023,5.941,6.327s5.691,1.738,8.656,1.634c-1.271,0.314-2.541,0.629-3.811,0.943    c2.24-0.281,4.354,1.169,6.607,1.297c2.316,0.131,4.447-1.123,6.553-2.093c2.496-1.148,5.146-1.939,7.627-3.116    c2.482-1.176,4.857-2.816,6.238-5.191c-1.113,1.658-3.146,2.651-5.139,2.506c3.111-2.386,6.457-5.221,6.887-9.116    c0.146-1.353-0.082-2.721,0.033-4.074c0.102-1.207,0.475-2.381,0.555-3.591c0.338-5.114-4.486-9.413-4.459-14.54    c0.119,2.912,3.994,4.699,3.895,7.612c0.195-1.688-0.463-3.344-1.107-4.913c-0.553-1.352-1.119-2.721-2.018-3.869    c-0.896-1.151-2.188-2.076-3.641-2.207c0.279,1.793,0.736,3.559,1.365,5.262c-1.465-0.387-2.064-2.072-2.742-3.426    c-2.582-5.151-7.961-5.802-12.963-7.15C37.514,12.841,36.59,12.593,35.648,12.474" stroke-width="1"/>
		<path fill="#B0B0B0" d="M18.498,38.776c-0.412-0.422-0.828-0.856-1.125-1.338c-0.303-0.487-0.58-0.998-0.697-1.559    c-0.113-0.547-0.062-1.112-0.023-1.67c0.086-1.233,0.121-2.471,0.107-3.707c-0.346,1.325-0.863,2.604-1.172,3.938    c-0.133,0.572-0.227,1.164-0.135,1.743c0.086,0.546,0.332,1.052,0.52,1.571c0.424,1.177,0.584,2.516,1.434,3.435    c0.326,0.354,0.736,0.62,1.09,0.948c0.781,0.728,1.189,1.973,1.689,2.898c0.48,0.891,0.867,1.862,1.338,2.735    c0.498,0.928,1.189,1.377,1.979,2.095c0.688,0.623,1.232,1.39,1.916,2.018c0.377,0.348,0.861,0.775,1.359,0.901    c0.578,0.146,1.055,0.171,1.539,0.586c0.314,0.269,0.576,0.627,0.969,0.763c0.213,0.074,0.443,0.074,0.67,0.072    c1.26-0.007,2.521-0.014,3.773-0.135c-1.029-0.777-2.061-1.557-3.092-2.334c-0.299-0.228-0.6-0.453-0.928-0.637    c-0.291-0.163-0.607-0.295-0.859-0.515c-0.861-0.759-0.641-2.21-1.33-3.129l-0.061-0.111c-0.027-0.137,0.148-0.219,0.289-0.233    c0.885-0.099,1.807,0.37,2.248,1.143c0.334,0.582,0.416,1.308,0.863,1.805c0.16,0.176,0.355,0.312,0.561,0.433    c0.635,0.377,1.352,0.612,2.084,0.688c0.865,0.09,1.736-0.043,2.596-0.175c0.75-0.115,1.5-0.245,2.252-0.346    c0.615-0.083,1.199-0.013,1.826-0.128c1.5-0.277,2.971-0.712,4.379-1.299c0.74-0.31,1.486-0.663,2.135-1.144    c0.451-0.334,0.715-0.82,1.094-1.227c0.484-0.521,0.857-1.119,1.148-1.77c0.146-0.329,0.271-0.669,0.381-1.011    c0.076-0.235,0.318-0.729,0.271-0.97c0.205,1.054,0.232,2.142,0.086,3.203c-0.07,0.51-0.188,1.023-0.463,1.456    c-0.342,0.532-0.895,0.891-1.451,1.188c-0.838,0.452-1.732,0.814-2.504,1.375c-0.529,0.385-1.006,0.863-1.615,1.098    c-0.635,0.244-1.336,0.195-2.016,0.221c-0.68,0.023-1.41,0.154-1.873,0.652c1.035-0.289,2.154-0.271,3.182,0.049    c0.344,0.107,0.691,0.25,1.051,0.218c0.24-0.021,0.467-0.121,0.688-0.221c0.961-0.43,1.924-0.859,2.885-1.29    c-0.564,0.608-1.131,1.218-1.695,1.825c-0.145,0.155-0.297,0.388-0.17,0.559c1.307-0.615,2.488-1.492,3.459-2.562    c1.012-1.116,1.928-2.101,3.197-2.913c1.035-0.663,2.232-1.439,2.459-2.748c0.199-1.148-0.455-2.261-0.637-3.412    c-0.492-3.136,2.533-6.14,1.74-9.214c-0.471-1.821-2.154-3.051-3.074-4.69c-0.725-1.287-0.967-2.816-1.777-4.052    c-1.205-1.831-3.412-2.685-5.477-3.428c1.334,0.671,2.57,1.533,3.66,2.556c0.441,0.413,0.875,0.881,1.035,1.465    c0.305,1.117-0.711,2.384-1.867,2.326c-0.055-3.191-2.623-5.771-5.309-7.497c-0.625-0.402-1.285-0.786-2.016-0.926    c-0.975-0.182-1.971,0.089-2.959,0.107c-1.064,0.021-2.111-0.25-3.174-0.303c-1.342-0.066-2.674,0.213-3.975,0.539    c-2.188,0.549-4.443,1.301-5.977,2.952c-0.896,0.966-1.492,2.423-0.895,3.595c0.195,0.383,0.518,0.754,0.457,1.179    c-0.062,0.438-0.496,0.707-0.877,0.936c-2.924,1.745-6.021,4.563-5.189,8.291c0.41,1.841,1.494,3.448,2.555,5.01    c-0.832-0.081-1.477-0.736-2.045-1.351C18.844,39.131,18.672,38.956,18.498,38.776" stroke-width="1"/>
		<path fill="#878787" d="M18.213,19.589c0.711-0.498,1.553-0.836,2.227-1.355c0.076-0.06,0.162-0.155,0.111-0.238    c-0.035-0.062-0.121-0.065-0.193-0.06C19.248,18.031,18.797,18.767,18.213,19.589z" stroke-width="1"/>
		<path fill="#878787" d="M39.576,13.179c0.727-0.971-1.328-1.447-1.936-1.296c-0.189,0.047-0.535,0.161-0.604,0.376    c-0.123,0.393,0.441,0.271,0.734,0.422C38.229,12.915,39.062,13.862,39.576,13.179" stroke-width="1"/>
		<path fill="#878787" d="M40.375,14.386c-0.201,0.02-0.395,0.119-0.523,0.273c-0.033,0.038-0.061,0.084-0.061,0.135    c-0.002,0.066,0.051,0.121,0.102,0.166c0.244,0.213,0.547,0.359,0.865,0.42c0.174,0.033,0.383,0.028,0.488-0.113    c0.088-0.117,0.064-0.289-0.018-0.41c-0.084-0.12-0.213-0.2-0.344-0.268C40.535,14.405,40.768,14.347,40.375,14.386" stroke-width="1"/>
		<path fill="#878787" d="M51.795,34.86c-0.039,0.197-0.154,0.37-0.258,0.544c-0.271,0.447-0.494,0.985-0.332,1.482l0.059,0.096    c0.049,0.031,0.113,0.015,0.166-0.012c0.277-0.133,0.443-0.42,0.566-0.701c0.238-0.553,0.293-1.116,0.443-1.688    c0.127-0.489,0.277-0.904-0.094-1.353c-0.18-0.216-0.434-0.36-0.594-0.59c-0.17-0.24-0.215-0.545-0.258-0.836    c-0.121-0.859-0.242-1.719-0.365-2.578c-0.197,0.406-0.193,0.879-0.186,1.33c0.018,0.748,0.037,1.517,0.338,2.2    C51.564,33.401,51.943,34.128,51.795,34.86" stroke-width="1"/>
		<path fill="#878787" d="M38.545,55.663c0.262-0.133,0.475-0.344,0.711-0.521c0.971-0.715,2.361-0.799,3.156-1.705    c-0.49,0.151-0.982,0.304-1.475,0.454c-0.475,0.147-0.957,0.296-1.381,0.557c-0.453,0.276-0.832,0.674-1.32,0.879    c-0.643,0.271-1.369,0.172-2.064,0.117c-0.285-0.021-0.564,0.021-0.842,0.062c-0.307,0.047-0.609,0.093-0.914,0.052    c-0.166-0.021-0.344-0.075-0.445-0.211c-0.082-0.109-0.098-0.255-0.105-0.391c-0.021-0.29-0.021-0.581-0.004-0.871    c0.006-0.06,0.01-0.122-0.016-0.178c-0.068-0.163-0.301-0.153-0.475-0.114c-0.064,0.357-0.129,0.736-0.006,1.08    c0.062,0.174,0.172,0.334,0.195,0.516c0.018,0.137-0.014,0.279,0.037,0.405c0.096,0.236,0.406,0.281,0.662,0.282    c0.77,0.005,1.477-0.117,2.217-0.249c0.273-0.048,0.551-0.031,0.828-0.016C37.727,55.839,38.145,55.862,38.545,55.663" stroke-width="1"/>
		<path fill="#878787" d="M38.236,51.47c-0.459,0.572-1.209,1.669-2.047,1.638c-0.072-0.003-0.16-0.033-0.164-0.104l0.037-0.086    c0.211-0.281,0.498-0.303,0.803-0.41c0.367-0.13,0.672-0.434,0.801-0.804c0.064-0.188,0.088-0.389,0.146-0.576    c0.061-0.188,0.172-0.377,0.352-0.46c0.059-0.026,0.125-0.041,0.186-0.021c0.062,0.023,0.105,0.082,0.127,0.146    C38.561,51.028,38.395,51.274,38.236,51.47" stroke-width="1"/>
		<path fill="#878787" d="M33.48,37.278c0.613-0.077,1.332,0.242,1.695-0.439l0.02-0.084l-0.059-0.066    c-0.178-0.102-0.402-0.054-0.594,0.018c-0.752,0.275-1.498,0.522-2.105-0.261c-0.037-0.05-0.072-0.101-0.127-0.13    c-0.127-0.069-0.299,0.039-0.328,0.183c-0.027,0.143,0.057,0.287,0.17,0.378c0.115,0.09,0.256,0.136,0.393,0.185    C32.961,37.21,33.006,37.338,33.48,37.278z" stroke-width="1"/>
		<path fill="#878787" d="M34.541,31.423c0.344,0.371-0.766,1.39-1.008,1.529c-0.047,0.026-0.096,0.053-0.148,0.053    c-0.113-0.002-0.188-0.129-0.197-0.242c-0.02-0.256,0.16-0.478,0.33-0.669c0.219-0.249,0.508-0.778,0.898-0.725    C34.463,31.374,34.51,31.388,34.541,31.423z" stroke-width="1"/>
		<path fill="#878787" d="M35.203,32.585c0.055,0.059,0.15,0.025,0.219-0.016c0.674-0.406,1.318-1.721,0.309-2.15    C36.121,30.586,35.357,32.354,35.203,32.585z" stroke-width="1"/>
		<path fill="#878787" d="M47.291,44.897c-0.271,0.105-0.514,0.285-0.691,0.517c-0.039,0.049-0.076,0.108-0.059,0.168l0.068,0.09    c0.469,0.384,1.416,0.146,1.59-0.455c0.057-0.197,0.008-0.431-0.152-0.559C47.697,44.377,47.545,44.798,47.291,44.897z" stroke-width="1"/>
		<path fill="#999998" d="M40.301,55.753c-0.316,0.33-0.639,0.65-1.062,0.802c-0.348,0.124-0.725,0.12-1.092,0.132    c-0.881,0.023-1.818,0.163-2.471,0.754c1.24-0.163,2.482-0.327,3.723-0.492c0.521-0.069,1.141-0.059,1.607-0.298    c0.486-0.25,0.936-0.632,1.381-0.947c0.496-0.354,0.982-0.513,1.533-0.758c0.203-0.091,0.432-0.224,0.447-0.444    c0.012-0.171-0.123-0.325-0.285-0.387c-0.16-0.062-0.338-0.048-0.508-0.022c-1.016,0.156-2.07,0.515-2.834,1.22    C40.588,55.449,40.443,55.603,40.301,55.753" stroke-width="1"/>
		<path fill="#999998" d="M23.15,25.45c0.059-0.548-0.023-1.117,0.021-1.674c0.053-0.611,0.15-1.218,0.299-1.812    c-0.508,0.44-1.037,0.915-1.24,1.556c-0.109,0.343-0.115,0.709-0.199,1.06c-0.117,0.48-0.387,0.924-0.76,1.249    c-0.244,0.212-0.525,0.372-0.779,0.569c-0.936,0.729-1.412,1.883-1.85,2.981c0.547-0.715,1.148-1.447,1.984-1.781    c0.471-0.188,0.994-0.239,1.445-0.476C22.688,26.798,23.078,26.134,23.15,25.45" stroke-width="1"/>
		<path fill="#999998" d="M39.77,17.425c0.121,0.012,0.215,0.013,0.309-0.061c-0.592-0.347-1.576-0.851-2.283-0.836    c-0.871,0.017-1.836,0.603-2.545,1.06C36.764,17.396,38.24,17.272,39.77,17.425" stroke-width="1"/>
		<path fill="#949494" d="M28.613,20.948c-0.584,0.512-1.1,1.107-1.75,1.532c0.803-0.588,1.662-1.155,2.645-1.319    c0.539-0.09,1.094-0.053,1.631-0.159c0.562-0.112,0.918-0.403,1.396-0.652c0.6-0.312,1.396-0.433,2.047-0.624    c-0.148,0.045-0.555-0.132-0.719-0.158c-0.268-0.045-0.537-0.072-0.807-0.085c-0.541-0.024-1.084,0.013-1.617,0.11    C30.342,19.795,29.443,20.22,28.613,20.948" stroke-width="1"/>
		<path fill="#706F6F" d="M57.598,43.733c0.588-1.138,0.598-2.472,0.654-3.75c0.031-0.734,0.082-1.484,0.281-2.196    c0.197-0.712,0.539-1.308,0.562-2.073c0.01-0.341-0.053-0.733-0.344-0.911c-0.326-0.199-0.777,0.001-0.98,0.324    c-0.203,0.322-0.225,0.725-0.234,1.105c-0.02,0.64-0.137,1.272-0.162,1.899c-0.033,0.842,0.027,1.768,0.094,2.604    C57.543,41.74,57.869,42.728,57.598,43.733z" stroke-width="1"/>
		<path fill="#706F6F" d="M27.676,56.448c-2.072-0.949-3.574-3.008-5.219-4.504C23.004,54.55,25.52,55.413,27.676,56.448" stroke-width="1"/>
		<path fill="#F8F8F8" d="M62.221,26.894c0.051,0.695,0.156,1.388,0.289,2.077c0,0.001,0,0.003,0.002,0.005    C62.379,28.283,62.27,27.591,62.221,26.894 M62.217,26.864c0.002,0.01,0.002,0.018,0.002,0.025    C62.219,26.882,62.219,26.874,62.217,26.864 M62.215,26.829c0,0.006,0,0.012,0,0.018C62.215,26.841,62.215,26.835,62.215,26.829     M62.213,26.792c0,0.004,0,0.008,0,0.012C62.213,26.799,62.213,26.796,62.213,26.792 M25.164,12.688    c-0.023,0.013-0.049,0.024-0.072,0.037c-0.025,0.013-0.051,0.025-0.074,0.037l0,0C25.064,12.737,25.115,12.713,25.164,12.688     M25.945,12.31c-0.025,0.013-0.051,0.023-0.076,0.035C25.895,12.333,25.92,12.321,25.945,12.31 M25.963,12.302    c-0.006,0.002-0.01,0.004-0.016,0.008C25.953,12.306,25.957,12.304,25.963,12.302 M41.307,10.689c0.002,0,0.002,0,0.002,0l0,0    C41.309,10.689,41.309,10.689,41.307,10.689 M41.141,10.687c0.01,0.001,0.02,0.001,0.027,0.002    C41.158,10.688,41.148,10.688,41.141,10.687L41.141,10.687 M42.025,10.654L42.025,10.654c-0.002,0-0.004,0-0.008,0.001    c-0.006,0-0.014,0-0.021,0.002c-0.219,0.018-0.438,0.03-0.658,0.03C41.568,10.688,41.797,10.673,42.025,10.654 M32.756,10.341    c-2.307,0.307-4.574,0.957-6.662,1.9C28.182,11.298,30.449,10.649,32.756,10.341" stroke-width="1"/>
		<path d="M25.018,12.763L25.018,12.763L25.018,12.763L25.018,12.763L25.018,12.763L25.018,12.763 M25.201,12.669    c-0.037,0.02-0.074,0.037-0.109,0.057c0.023-0.013,0.049-0.024,0.072-0.037C25.178,12.681,25.188,12.675,25.201,12.669     M25.283,12.628c-0.023,0.012-0.047,0.023-0.07,0.035C25.236,12.651,25.26,12.64,25.283,12.628 M45.832,11.034    c0.031,0.013,0.062,0.024,0.096,0.039c0.309,0.129,0.617,0.287,0.838,0.539c0.176,0.2,0.289,0.453,0.471,0.651    c0.385,0.42,0.988,0.527,1.531,0.688c0.941,0.277,1.812,0.783,2.521,1.464c0.254,0.242,0.494,0.514,0.82,0.646    c0.992,0.4,1.582,0.473,2.42,1.196c1.266,1.092,2.275,2.318,3.324,3.609c0.436,0.532,0.875,1.082,1.09,1.735    c0.018,0.047,0.029,0.095,0.043,0.143c-0.014-0.048-0.025-0.096-0.043-0.143c-0.215-0.653-0.654-1.202-1.09-1.735    c-1.051-1.291-2.061-2.519-3.324-3.609c-0.838-0.725-1.428-0.796-2.42-1.196c-0.324-0.132-0.566-0.402-0.82-0.646    c-0.707-0.681-1.58-1.187-2.521-1.464c-0.543-0.161-1.148-0.27-1.531-0.688c-0.182-0.197-0.295-0.45-0.471-0.651    c-0.221-0.252-0.529-0.41-0.838-0.539C45.895,11.06,45.863,11.048,45.832,11.034 M45.723,10.991    c0.037,0.014,0.072,0.028,0.109,0.043C45.795,11.021,45.76,11.005,45.723,10.991 M45.604,10.948    c0.008,0.002,0.016,0.005,0.021,0.008C45.619,10.953,45.611,10.95,45.604,10.948 M42.02,10.655c-0.008,0-0.016,0-0.021,0.002    C42.004,10.655,42.012,10.655,42.02,10.655 M42.266,10.634c-0.08,0.007-0.16,0.014-0.24,0.021h0.002    C42.105,10.647,42.186,10.641,42.266,10.634 M43.223,10.565L43.223,10.565L43.223,10.565L43.223,10.565L43.223,10.565    L43.223,10.565L43.223,10.565 M43.381,10.563c-0.027,0-0.053,0-0.078,0.001C43.328,10.563,43.354,10.563,43.381,10.563     M43.381,10.563L43.381,10.563c0.01,0,0.02,0,0.029,0C43.398,10.563,43.391,10.563,43.381,10.563 M39.398,10.442L39.398,10.442    c0.578,0.102,1.156,0.227,1.74,0.244l0,0l0,0l0,0C40.555,10.668,39.979,10.543,39.398,10.442L39.398,10.442 M35.779,10.138    c-3.625,0.002-7.301,0.892-10.494,2.489c0.193-0.097,0.387-0.19,0.584-0.281c0.025-0.012,0.051-0.023,0.076-0.036c0,0,0,0,0.002,0    c0.006-0.003,0.01-0.006,0.016-0.008c0.043-0.02,0.088-0.039,0.131-0.06c2.088-0.944,4.355-1.595,6.662-1.901    C33.76,10.207,34.771,10.138,35.779,10.138 M35.795,10.137L35.795,10.137c0,0,0.002,0,0.004,0    C35.797,10.137,35.795,10.137,35.795,10.137" stroke-width="1" fill="undefined"/>
		<path fill="#585857" d="M33.375,13.835c-0.018,0.155-0.029,0.311-0.02,0.461c0.119-0.105,0.191-0.238,0.156-0.396    C33.467,13.876,33.422,13.854,33.375,13.835 M35.795,10.137c-0.006,0-0.01,0.001-0.016,0.001c-1.008,0-2.02,0.069-3.023,0.203    c-2.307,0.308-4.574,0.957-6.662,1.9c-0.043,0.021-0.088,0.041-0.131,0.061c-0.006,0.002-0.01,0.004-0.016,0.008c0,0,0,0-0.002,0    c-0.025,0.013-0.051,0.023-0.076,0.035c-0.197,0.092-0.391,0.186-0.584,0.281c0,0.001-0.002,0.002-0.002,0.002    c-0.023,0.012-0.047,0.022-0.07,0.035c-0.004,0.002-0.008,0.004-0.012,0.006c-0.014,0.006-0.023,0.012-0.037,0.019    c-0.049,0.024-0.098,0.05-0.146,0.075l0,0l0,0c-0.268,0.139-0.527,0.292-0.793,0.44c0.01,0.609-0.012,1.208-0.273,1.751    c-0.295,0.606-0.848,1.043-1.246,1.586c-0.076,0.102-0.146,0.213-0.205,0.329c0.27-0.117,0.539-0.231,0.809-0.346    c-0.359,0.358-0.705,0.73-1.035,1.113c-0.02,0.278,0.041,0.547,0.213,0.771c0.053,0.068,0.111,0.128,0.176,0.18    c0.984-0.52,2.016-1.008,2.938-1.611c-0.08,0.052-0.148,0.074-0.207,0.074c-0.297,0-0.297-0.609-0.174-0.788    c0.227-0.323,1.104-0.456,1.641-0.542c-0.104-0.1-0.188-0.211-0.217-0.352c-0.1-0.521,0.695-1.004,1.104-1.154    c0.145-0.055,0.301-0.07,0.457-0.07c0.111,0,0.227,0.009,0.34,0.018s0.227,0.017,0.338,0.017c0.176,0,0.346-0.021,0.504-0.094    c0.021-0.011,0.041-0.021,0.061-0.032c-0.018,0.001-0.031,0.001-0.049,0.001c-0.416,0-0.812-0.074-1.18-0.289    c0.48-0.538,1.244-0.705,1.955-0.842c0.26-0.051,0.521-0.101,0.785-0.148c0.4-0.178,0.844-0.297,1.27-0.405    c0.156-0.039,0.318-0.078,0.479-0.078c0.1,0,0.195,0.015,0.289,0.055c0.062,0.029,0.117,0.065,0.166,0.11    c0.404-0.037,0.809-0.06,1.213-0.06c0.322,0,0.646,0.014,0.969,0.044c0.105,0.011,0.207,0.021,0.311,0.034    c0.904,0.114,1.789,0.348,2.672,0.585c-0.207-0.146-0.396-0.301-0.549-0.378c-0.291-0.148-0.857-0.028-0.732-0.421    c0.066-0.215,0.414-0.33,0.602-0.377c0.074-0.019,0.172-0.027,0.281-0.027c0.789,0,2.293,0.472,1.654,1.323    c-0.055,0.071-0.109,0.125-0.17,0.163c4.713,1.198,9.572,2.078,11.988,6.896c0.385,0.767,0.742,1.638,1.246,2.32    c0.152-0.188,0.318-0.364,0.506-0.517c0.119-0.098,0.244-0.182,0.373-0.255c-0.32-1.111-0.57-2.242-0.748-3.387    c1.453,0.131,2.742,1.057,3.641,2.207c0.342,0.438,0.635,0.907,0.898,1.396c0.076,0.045,0.152,0.093,0.229,0.142    c1.305,0.868,2.174,2.239,2.996,3.574c0.666,1.079,1.32,2.163,1.975,3.251c-0.131-0.69-0.238-1.383-0.289-2.077    c0-0.001,0-0.003,0-0.004c0-0.009-0.002-0.017-0.002-0.026c0-0.006-0.002-0.011-0.002-0.018c0-0.006,0-0.012,0-0.019    c-0.002-0.008-0.002-0.017-0.002-0.024c0-0.004,0-0.008-0.002-0.012c0-0.015-0.002-0.026-0.002-0.039l0,0    c-0.021-0.348-0.037-0.705-0.189-1.019c-0.121-0.252-0.322-0.457-0.52-0.655c-0.506-0.513-1.014-1.024-1.521-1.538l0,0    c-0.277-0.28-0.561-0.569-0.729-0.928c-0.127-0.273-0.182-0.575-0.264-0.867c-0.014-0.049-0.027-0.096-0.043-0.143    c-0.217-0.652-0.656-1.201-1.092-1.734c-1.049-1.293-2.061-2.518-3.322-3.61c-0.838-0.725-1.43-0.795-2.42-1.195    c-0.324-0.132-0.568-0.404-0.822-0.646c-0.707-0.678-1.578-1.185-2.52-1.463c-0.545-0.16-1.148-0.268-1.531-0.688    c-0.182-0.199-0.295-0.451-0.473-0.653c-0.221-0.252-0.527-0.411-0.838-0.54c-0.031-0.012-0.062-0.024-0.094-0.038h-0.002    c-0.035-0.015-0.072-0.027-0.109-0.043c-0.031-0.012-0.062-0.023-0.096-0.035c-0.008-0.003-0.016-0.006-0.023-0.009    c-0.701-0.25-1.447-0.381-2.193-0.384c-0.01,0-0.02,0-0.027,0l0,0c-0.027,0-0.053,0-0.08,0.001c-0.025,0-0.053,0-0.078,0.001l0,0    l0,0l0,0l0,0c-0.32,0.008-0.639,0.038-0.957,0.067c-0.08,0.008-0.158,0.015-0.238,0.021c-0.23,0.021-0.459,0.033-0.689,0.035    c-0.01,0-0.02,0-0.029,0l0,0l0,0h-0.002c-0.025,0-0.055,0-0.082-0.001l0,0c-0.02-0.001-0.037-0.001-0.057-0.001    c-0.01,0-0.02,0-0.027-0.001l0,0c-0.586-0.02-1.162-0.145-1.74-0.245l0,0c-1.182-0.205-2.389-0.305-3.602-0.305    C35.797,10.137,35.795,10.137,35.795,10.137" stroke-width="1"/>
		<path fill="#90908F" d="M52.771,18.401c0.178,1.143,0.428,2.272,0.748,3.385c0.477-0.271,1.023-0.396,1.582-0.396    c0.76,0,1.543,0.228,2.207,0.613c-0.264-0.488-0.557-0.958-0.898-1.396C55.514,19.458,54.225,18.532,52.771,18.401 M23.307,16.526    c-0.27,0.112-0.539,0.228-0.809,0.345c-0.125,0.242-0.211,0.51-0.227,0.768C22.602,17.255,22.947,16.883,23.307,16.526     M26.855,15.72c-0.537,0.086-1.414,0.22-1.639,0.543c-0.125,0.18-0.125,0.788,0.174,0.788c0.057,0,0.125-0.021,0.207-0.075    c-0.924,0.604-1.953,1.095-2.938,1.611c0.334,0.27,0.812,0.343,1.256,0.38c0.268,0.022,0.541,0.038,0.811,0.038    c0.707,0,1.408-0.107,1.986-0.497c0.801-0.538,1.166-1.802,0.484-2.483C27.094,15.919,26.965,15.825,26.855,15.72 M30.953,12.774    c-0.264,0.048-0.523,0.099-0.785,0.147c-0.711,0.136-1.475,0.303-1.955,0.843c0.367,0.213,0.764,0.287,1.18,0.287    c0.018,0,0.033,0,0.049,0c0.211-0.126,0.346-0.355,0.502-0.55C30.211,13.173,30.562,12.945,30.953,12.774 M40.924,15.397    c-0.055,0-0.113-0.008-0.166-0.018c-0.318-0.061-0.621-0.207-0.867-0.42c-0.051-0.045-0.102-0.1-0.102-0.166    c0-0.051,0.029-0.096,0.062-0.135c0.131-0.154,0.322-0.255,0.523-0.273c0.074-0.008,0.127-0.012,0.166-0.012    c0.158,0,0.061,0.065,0.344,0.215c0.131,0.066,0.26,0.146,0.344,0.268c0.082,0.121,0.105,0.293,0.018,0.41    C41.172,15.364,41.051,15.397,40.924,15.397 M34.369,12.396c-0.404,0-0.809,0.021-1.213,0.059c0.23,0.214,0.299,0.596,0.271,0.927    c-0.012,0.15-0.035,0.303-0.053,0.455c0.047,0.02,0.092,0.041,0.137,0.063c0.035,0.158-0.035,0.291-0.156,0.396    c0.006,0.094,0.023,0.186,0.053,0.275c0.133,0.409,0.52,0.693,0.924,0.846c0.402,0.152,0.838,0.199,1.258,0.308    c0.113,0.029,0.238,0.073,0.293,0.178c0.062,0.12,0.004,0.271,0.029,0.405c0.021,0.121,0.109,0.22,0.152,0.336    c0.061,0.17,0.012,0.357-0.096,0.506c0.576-0.324,1.223-0.608,1.824-0.619c0.01-0.001,0.02-0.001,0.027-0.001    c0.703,0,1.672,0.495,2.258,0.836c-0.066,0.053-0.135,0.067-0.211,0.067c-0.031,0-0.062-0.003-0.1-0.006    c-0.479-0.049-0.953-0.068-1.424-0.068c-1.033,0-2.055,0.1-3.096,0.23c0.055-0.035,0.109-0.07,0.168-0.106    c-0.109,0.026-0.221,0.043-0.33,0.057c-0.238,0.027-0.5,0.053-0.666,0.228c-0.082,0.09-0.129,0.204-0.158,0.322    c-0.006,0.021-0.012,0.042-0.016,0.063c0.1-0.003,0.197-0.005,0.297-0.005c0.135,0,0.27,0.003,0.406,0.011    c1.023,0.051,2.033,0.303,3.057,0.303c0.039,0,0.078,0,0.117,0c0.74-0.016,1.486-0.17,2.223-0.17c0.176,0,0.35,0.008,0.521,0.029    c-0.086-0.188-0.139-0.388-0.156-0.651c-0.033-0.521-0.117-1.048,0.127-1.537c0.266-0.534,0.848-0.794,1.447-0.794    c0.438,0,0.885,0.139,1.223,0.412c0.803,0.648,1.066,1.775,0.994,2.805c-0.039,0.554-0.158,1.106-0.086,1.655    c0.885,0.688,1.707,1.468,2.375,2.336c0.059-0.17,0.115-0.341,0.227-0.48l0.105-0.082c0.014-0.004,0.027-0.006,0.043-0.006    c0.043,0,0.086,0.014,0.125,0.028c0.156,0.058,0.344,0.166,0.312,0.33c-0.008,0.047-0.035,0.088-0.061,0.127    c-0.133,0.189-0.295,0.358-0.41,0.558c0.438,0.647,0.785,1.341,1.006,2.071c0.369,0.121,0.76,0.19,1.146,0.19    c0.352,0,0.699-0.057,1.025-0.185c0.031-0.216,0.021-0.435-0.037-0.65c-0.16-0.584-0.594-1.05-1.035-1.465    c-1.09-1.021-2.326-1.885-3.66-2.554c2.064,0.742,4.271,1.595,5.477,3.429c0.105,0.161,0.203,0.33,0.293,0.501    c0.486-0.542,0.83-1.229,1.293-1.801c-0.504-0.683-0.861-1.554-1.246-2.319c-2.416-4.817-7.275-5.697-11.988-6.896    c-0.086,0.057-0.182,0.08-0.275,0.08c-0.262,0-0.549-0.178-0.811-0.365c-0.883-0.236-1.768-0.471-2.672-0.585    c-0.104-0.013-0.207-0.023-0.311-0.033C35.016,12.408,34.691,12.396,34.369,12.396" stroke-width="1"/>
		<path fill="#ABABAA" d="M47.133,23.019c-0.008,0.015-0.016,0.027-0.023,0.042c-0.424,0.78,0.043,1.649,0.809,1.95    c0.074,0.029,0.146,0.057,0.223,0.08C47.918,24.358,47.57,23.667,47.133,23.019 M45.578,20.428c1.334,0.67,2.57,1.532,3.66,2.554    c0.441,0.414,0.875,0.882,1.033,1.466c0.061,0.216,0.068,0.436,0.039,0.649c0.18-0.068,0.354-0.16,0.518-0.273    c0.193-0.135,0.363-0.292,0.518-0.467c-0.09-0.171-0.186-0.338-0.293-0.5C49.85,22.022,47.643,21.171,45.578,20.428     M44.416,20.208c0.002,0.007,0.002,0.013,0.004,0.02c0.086,0.607,0.371,1.24,0.717,1.743c0.24,0.351,0.527,1.193,1.016,1.227    c0.01,0.002,0.02,0.002,0.027,0.002c0.24,0,0.432-0.221,0.531-0.443c0.029-0.068,0.055-0.14,0.08-0.211    C46.123,21.677,45.301,20.896,44.416,20.208 M34.543,18.146c-0.1,0-0.197,0.002-0.297,0.006c-0.123,0.587,0.121,1.218,0.541,1.648    c0.436,0.448,1.033,0.705,1.643,0.846c0.361,0.084,0.736,0.131,1.078,0.278c0.281,0.12,0.533,0.306,0.822,0.406    c0.154,0.052,0.316,0.078,0.48,0.078c0.27,0,0.539-0.071,0.77-0.209c0.25-0.149,0.451-0.368,0.703-0.514    c0.412-0.239,0.986-0.314,1.176-0.753c0.141-0.327-0.016-0.706-0.215-1c-0.158-0.23-0.285-0.415-0.375-0.613    c-0.176-0.021-0.35-0.03-0.523-0.03c-0.736,0-1.48,0.155-2.223,0.17c-0.039,0.001-0.078,0.001-0.117,0.001    c-1.023,0-2.033-0.253-3.057-0.304C34.812,18.149,34.678,18.146,34.543,18.146" stroke-width="1"/>
		<path fill="#848483" d="M37.92,11.855c-0.109,0-0.205,0.01-0.279,0.028c-0.188,0.047-0.535,0.161-0.604,0.376    c-0.123,0.394,0.443,0.271,0.734,0.421c0.15,0.076,0.34,0.23,0.547,0.379c0.262,0.188,0.549,0.363,0.811,0.363    c0.096,0,0.188-0.023,0.275-0.08c0.061-0.038,0.117-0.092,0.172-0.163C40.213,12.327,38.709,11.855,37.92,11.855" stroke-width="1"/>
		<path fill="#848483" d="M40.541,14.374c-0.039,0-0.092,0.004-0.166,0.012c-0.201,0.02-0.395,0.119-0.523,0.273    c-0.033,0.038-0.061,0.084-0.061,0.135c-0.002,0.066,0.051,0.121,0.102,0.166c0.244,0.213,0.547,0.359,0.865,0.42    c0.055,0.012,0.111,0.018,0.168,0.018c0.125,0,0.248-0.032,0.32-0.131c0.088-0.117,0.064-0.289-0.018-0.41    c-0.084-0.12-0.213-0.2-0.344-0.268C40.602,14.44,40.699,14.374,40.541,14.374" stroke-width="1"/>
		<path fill="#949494" d="M37.82,16.528c-0.01,0-0.018,0-0.027,0c-0.602,0.012-1.248,0.295-1.824,0.618    c-0.045,0.062-0.1,0.117-0.16,0.161c-0.117,0.085-0.252,0.138-0.393,0.172c-0.059,0.036-0.113,0.072-0.168,0.107    c1.041-0.132,2.062-0.231,3.096-0.231c0.471,0,0.945,0.021,1.426,0.068c0.035,0.004,0.066,0.006,0.1,0.006    c0.074,0,0.143-0.014,0.209-0.065C39.494,17.023,38.525,16.528,37.82,16.528" stroke-width="1"/>
		<path fill="#90908F" d="M23.904,24.653c-0.262,0.191-0.51,0.403-0.74,0.632c-0.002,0.055-0.008,0.109-0.014,0.165    c-0.057,0.544-0.316,1.076-0.729,1.434c0.113,0.242,0.322,0.46,0.521,0.646c0.061,0.056,0.119,0.112,0.18,0.174    c0.188-0.12,0.375-0.237,0.562-0.35c0.379-0.228,0.814-0.495,0.877-0.935c0.061-0.425-0.262-0.795-0.457-1.178    C24.008,25.052,23.941,24.855,23.904,24.653" stroke-width="1"/>
		<path fill="#ABABAA" d="M27.678,23.37c-1.34,0-2.678,0.477-3.771,1.283c0.037,0.2,0.104,0.397,0.199,0.589    c0.195,0.384,0.518,0.754,0.457,1.179c-0.062,0.438-0.498,0.707-0.877,0.934c-0.188,0.112-0.375,0.229-0.562,0.351    c0.264,0.271,0.49,0.593,0.43,0.951c-0.033,0.204-0.158,0.379-0.26,0.558c-0.318,0.562-0.33,1.077-0.311,1.69    c0.02,0.522-0.279,1.059-0.83,1.168c-0.297,0.06-0.613-0.013-0.904,0.077c-0.729,0.229-0.912,1.344-0.721,1.98    c0.096,0.309,0.342,0.551,0.496,0.83c0.211,0.375,0.398,0.745,0.822,0.917c0.205,0.083,0.426,0.101,0.648,0.101    c0.08,0,0.162-0.003,0.242-0.005c0.082-0.003,0.162-0.005,0.242-0.005c0.057,0,0.111,0.002,0.168,0.004    c0.178,0.01,0.352,0.039,0.516,0.112c0.195,0.088,0.363,0.237,0.576,0.283c0.049,0.011,0.098,0.017,0.148,0.017    c0.174,0,0.352-0.059,0.52-0.117c0.553-0.19,1.197-0.491,1.262-1.072c0.061-0.553-0.465-1.099-0.262-1.615    c0.092-0.235,0.316-0.393,0.549-0.489c0.084-0.034,0.18-0.061,0.271-0.061c0.084,0,0.162,0.021,0.223,0.083    c0.07,0.072,0.092,0.18,0.105,0.28c0.143,0.955,0.158,1.93,0.049,2.891c-0.01,0.09-0.02,0.187,0.029,0.262    c0.031,0.045,0.078,0.076,0.127,0.104c0.465,0.285,0.893,0.4,1.381,0.4c0.186,0,0.377-0.018,0.584-0.047    c0.438-0.078,0.895-0.24,1.139-0.606c0.309-0.457,0.203-1.097,0.492-1.562c0.281-0.455,0.857-0.631,1.236-1.01    c0.68-0.681,0.562-1.785,0.729-2.734c0.109-0.619,0.359-1.217,0.375-1.845c0.02-0.698-0.266-1.399-0.768-1.886    c-0.35-0.338-0.799-0.58-1.064-0.985c-0.314-0.479-0.318-1.101-0.576-1.611c-0.35-0.687-1.107-1.068-1.855-1.247    C28.518,23.417,28.098,23.37,27.678,23.37" stroke-width="1"/>
		<path fill="#949494" d="M23.164,25.285c-0.193,0.191-0.375,0.396-0.543,0.609c-0.119,0.152-0.236,0.315-0.271,0.505    c-0.033,0.17,0,0.331,0.072,0.483c0.412-0.357,0.672-0.889,0.729-1.434C23.156,25.396,23.162,25.34,23.164,25.285" stroke-width="1"/>
		<path fill="#90908F" d="M20.148,39.298c-0.232,0.153-0.455,0.32-0.668,0.499c0.451,0.433,0.959,0.8,1.568,0.859    C20.746,40.21,20.439,39.757,20.148,39.298 M55.932,34.741c-0.432,2.228-1.982,4.442-1.805,6.727    c0.051,0.002,0.104,0.002,0.154,0.002c0.271,0,0.539-0.03,0.787-0.136c0.355-0.151,0.633-0.444,0.857-0.759    C57.123,38.901,56.982,36.515,55.932,34.741 M49.035,26.599c-0.213,0-0.424,0.02-0.635,0.043c0.002,0.045,0.004,0.088,0.004,0.133    c0.025,0,0.051,0.003,0.074,0.003c0.254,0,0.5-0.063,0.727-0.175c-0.004,0-0.008,0-0.012,0    C49.141,26.6,49.088,26.599,49.035,26.599" stroke-width="1"/>
		<path fill="#F8F8F8" d="M37.205,62.868c0.002,0,0.004,0,0.006,0l0,0C37.209,62.868,37.207,62.868,37.205,62.868 M39.963,62.435    c-0.885,0.279-1.814,0.434-2.74,0.435C38.148,62.867,39.078,62.714,39.963,62.435 M25.617,59.992    c1.822,0.92,3.713,1.784,5.74,1.921c0.559,0.037,1.123,0.019,1.678,0.09c-0.555-0.071-1.117-0.052-1.678-0.09    C29.33,61.776,27.439,60.912,25.617,59.992 M20.633,56.753c0.006,0.003,0.01,0.006,0.016,0.009l0,0    C20.643,56.759,20.639,56.755,20.633,56.753 M20.615,56.743c0.002,0,0.004,0.002,0.006,0.004    C20.619,56.745,20.617,56.743,20.615,56.743 M57.697,53.192c-0.029,0.229-0.045,0.478-0.18,0.664    C57.652,53.669,57.668,53.423,57.697,53.192 M57.842,52.532c-0.002,0.001-0.004,0.002-0.008,0.003    c-0.061,0.2-0.105,0.418-0.137,0.655C57.729,52.95,57.781,52.735,57.842,52.532" stroke-width="1"/>
		<path d="M20.631,56.752c0.006,0.003,0.012,0.007,0.018,0.01c-0.006-0.003-0.01-0.006-0.016-0.009    C20.631,56.753,20.631,56.753,20.631,56.752" stroke-width="1" fill="undefined"/>
		<path fill="#585857" d="M19.779,50.284c-0.01,0.039-0.021,0.078-0.037,0.114c-0.07,0.166-0.191,0.305-0.311,0.439    c-0.344,0.396-0.693,0.86-0.658,1.38c0.09,0.178,0.188,0.352,0.289,0.518c1.002,1.631,2.447,2.955,3.424,4.599    c-0.555-0.702-1.205-1.333-1.887-1.938c-0.01,0.129-0.082,0.244-0.152,0.354c-0.148,0.228-0.311,0.448-0.477,0.663    c0.213,0.114,0.434,0.213,0.645,0.331c0.004,0.001,0.004,0.003,0.006,0.004c0.004,0.002,0.008,0.003,0.01,0.005    c0.008,0.004,0.012,0.008,0.018,0.01l0,0c0.549,0.316,0.992,0.779,1.48,1.181c0.883,0.725,1.908,1.248,2.924,1.766    c0.189,0.096,0.377,0.191,0.564,0.285c1.824,0.92,3.715,1.785,5.742,1.922c0.559,0.037,1.123,0.018,1.676,0.09    c0.092,0.012,0.182,0.025,0.271,0.043c0.586,0.111,1.143,0.351,1.715,0.519c0.709,0.207,1.445,0.305,2.186,0.305    c0,0,0.002,0,0.006,0c0.002,0,0.008,0,0.01,0c0.928-0.002,1.857-0.155,2.74-0.435c0.068-0.021,0.135-0.045,0.201-0.066    c1.246-0.425,2.414-1.093,3.705-1.347c0.701-0.139,1.422-0.149,2.133-0.232c2.338-0.271,4.551-1.315,6.371-2.804    c1.553-1.27,2.865-2.873,4.65-3.78c0.18-0.09,0.369-0.178,0.488-0.34c0.002-0.002,0.004-0.006,0.006-0.008    c0.135-0.189,0.152-0.437,0.182-0.666l0,0l0,0c0.029-0.238,0.076-0.455,0.137-0.656c-1.205,0.438-2.4,0.883-3.359,1.709    c-0.377,0.324-0.795,0.729-1.268,0.729c-0.037,0-0.074-0.002-0.113-0.008c-0.512,0.297-1.037,0.569-1.568,0.82    c-2.48,1.178-5.131,1.969-7.627,3.117c-2.004,0.922-4.027,2.102-6.215,2.102c-0.111,0-0.225-0.004-0.338-0.01    c-2.059-0.116-3.994-1.334-6.02-1.334c-0.195,0-0.393,0.012-0.59,0.037c1.271-0.314,2.539-0.629,3.811-0.943    c-0.279,0.01-0.561,0.016-0.84,0.016c-2.691,0-5.402-0.469-7.814-1.649c-2.664-1.303-4.938-3.535-5.941-6.326    C19.891,50.628,19.834,50.456,19.779,50.284 M18.631,47.325c-0.078,0.119-0.15,0.242-0.213,0.369    c0.262,0.141,0.498,0.327,0.697,0.549C18.98,47.923,18.826,47.614,18.631,47.325" stroke-width="1"/>
		<path fill="#90908F" d="M18.771,52.219c0.002,0.01,0.002,0.02,0.002,0.028c0.051,0.531,0.48,0.93,0.824,1.338    c0.377,0.447,0.672,0.958,0.918,1.488c0.041,0.093,0.084,0.188,0.084,0.29c0,0.011,0,0.021-0.002,0.031    c0.684,0.605,1.334,1.236,1.889,1.938c-0.979-1.645-2.424-2.969-3.424-4.6C18.961,52.569,18.863,52.397,18.771,52.219     M27.643,47.641c0.543,0.919,0.4,2.237,1.207,2.946c0.252,0.22,0.568,0.352,0.861,0.515c0.062,0.035,0.125,0.073,0.188,0.112    c0.074-0.125,0.141-0.254,0.191-0.391c0.43-1.158-0.258-2.648-1.455-2.965C28.309,47.774,27.967,47.727,27.643,47.641     M49.762,44.755c-0.463,0.156-0.871,0.357-0.975,0.808c-0.115,0.5,0.27,0.967,0.387,1.467c0.076,0.32,0.027,0.647-0.109,0.942    c0.053-0.062,0.1-0.129,0.145-0.197c0.275-0.433,0.393-0.947,0.463-1.457C49.744,45.801,49.773,45.276,49.762,44.755     M35.676,57.44c0.652-0.592,1.592-0.729,2.471-0.755c0.367-0.011,0.744-0.007,1.092-0.132c0.426-0.15,0.746-0.471,1.062-0.801    c0.145-0.15,0.289-0.304,0.441-0.443c0.764-0.705,1.818-1.063,2.834-1.219c0.08-0.012,0.162-0.021,0.244-0.021    c0.092,0,0.18,0.013,0.264,0.044c0.16,0.062,0.297,0.217,0.285,0.387c-0.016,0.221-0.244,0.354-0.447,0.445    c-0.553,0.243-1.037,0.403-1.533,0.758c-0.445,0.315-0.896,0.696-1.381,0.945c-0.469,0.239-1.086,0.229-1.607,0.299    C38.158,57.11,36.916,57.276,35.676,57.44 M27.504,56.366c-2.115-1-4.514-1.886-5.047-4.422    C24.057,53.401,25.521,55.386,27.504,56.366c0.057,0.026,0.115,0.055,0.172,0.082C27.617,56.422,27.561,56.396,27.504,56.366     M17.895,41.637c-0.355,0.585-0.629,1.22-0.797,1.886c-0.064,0.254-0.115,0.52-0.059,0.773c0.059,0.264,0.225,0.489,0.35,0.729    c0.203,0.387,0.303,0.824,0.289,1.261c-0.012,0.354-0.088,0.754,0.135,1.03c0.133,0.17,0.348,0.248,0.539,0.346    c0.021,0.011,0.045,0.021,0.066,0.033c0.061-0.127,0.133-0.25,0.213-0.368c0.195,0.289,0.35,0.598,0.484,0.918    c0.393,0.436,0.646,0.998,0.691,1.584c0.012,0.152,0.01,0.31-0.027,0.457c0.055,0.172,0.109,0.344,0.172,0.512    c1.004,2.791,3.275,5.021,5.939,6.326c2.412,1.181,5.123,1.647,7.814,1.647c0.281,0,0.561-0.004,0.842-0.014    c-1.271,0.312-2.539,0.628-3.809,0.942c0.195-0.024,0.393-0.036,0.588-0.036c2.025,0,3.963,1.217,6.02,1.334    c0.113,0.006,0.227,0.01,0.338,0.01c2.188,0,4.211-1.18,6.215-2.104c2.496-1.147,5.146-1.938,7.627-3.115    c0.531-0.251,1.059-0.523,1.568-0.82c-0.021-0.004-0.045-0.008-0.068-0.013c-0.32-0.073-0.557-0.341-0.76-0.6    c-0.555-0.705-1.061-1.502-1.141-2.396s0.391-1.889,1.248-2.149c0.182-0.055,0.365-0.075,0.553-0.075    c0.262,0,0.529,0.04,0.797,0.08c0.268,0.041,0.535,0.08,0.799,0.08c0.146,0,0.293-0.012,0.439-0.043    c0.902-0.199,1.498-1.124,1.609-2.042c0.113-0.918-0.154-1.836-0.42-2.722c-0.316-1.066-0.898-2.325-1.85-2.665    c0.254,0.937,0.666,1.854,0.502,2.8c-0.227,1.31-1.424,2.086-2.459,2.748c-1.27,0.812-2.186,1.797-3.197,2.913    c-0.971,1.07-2.152,1.947-3.459,2.563c-0.127-0.173,0.025-0.403,0.17-0.56c0.564-0.607,1.131-1.217,1.695-1.824    c-0.961,0.431-1.924,0.859-2.885,1.289c-0.221,0.1-0.445,0.199-0.688,0.222c-0.035,0.004-0.07,0.005-0.107,0.005    c-0.32,0-0.635-0.126-0.943-0.223c-0.541-0.169-1.107-0.254-1.676-0.254c-0.508,0-1.016,0.068-1.506,0.205    c0.463-0.498,1.193-0.629,1.873-0.652c0.68-0.024,1.381,0.023,2.016-0.221c0.609-0.233,1.086-0.714,1.615-1.098    c0.729-0.529,1.564-0.882,2.363-1.301c-0.088,0.012-0.174,0.018-0.262,0.018c-0.504,0-1.008-0.18-1.438-0.469    c-0.439,0.246-0.9,0.455-1.361,0.646c-1.408,0.587-2.879,1.021-4.379,1.3c-0.621,0.113-1.199,0.046-1.809,0.125    c0.051,0.026,0.088,0.079,0.107,0.137c0.084,0.235-0.082,0.479-0.24,0.676c-0.451,0.564-1.188,1.639-2.012,1.639    c-0.012,0-0.023,0-0.035,0c-0.07-0.003-0.16-0.032-0.164-0.104l0.037-0.085c0.211-0.281,0.498-0.303,0.803-0.41    c0.367-0.131,0.674-0.436,0.803-0.805c0.062-0.188,0.086-0.388,0.145-0.576c0.057-0.174,0.154-0.344,0.309-0.436    c-0.512,0.071-1.02,0.154-1.527,0.235c0.064,0.135,0.117,0.271,0.143,0.419c0.174,0.981-0.91,1.768-1.904,1.84    c-0.092,0.008-0.186,0.011-0.275,0.011c-0.438,0-0.873-0.069-1.309-0.139c-0.344-0.054-0.688-0.108-1.033-0.129    c0.387,0.291,0.771,0.582,1.156,0.873c0.002-0.004,0.002-0.006,0.002-0.01c0.062-0.014,0.131-0.023,0.195-0.023    c0.121,0,0.234,0.033,0.279,0.14c0.023,0.056,0.02,0.117,0.016,0.178c-0.018,0.29-0.018,0.581,0.002,0.871    c0.01,0.137,0.025,0.281,0.107,0.391c0.102,0.136,0.279,0.188,0.445,0.211c0.084,0.012,0.166,0.017,0.25,0.017    c0.221,0,0.439-0.033,0.664-0.067s0.449-0.067,0.68-0.067c0.053,0,0.107,0.002,0.16,0.007c0.338,0.024,0.684,0.062,1.023,0.062    c0.359,0,0.713-0.041,1.041-0.18c0.488-0.206,0.867-0.604,1.32-0.879c0.424-0.262,0.904-0.41,1.381-0.558    c0.492-0.151,0.982-0.303,1.475-0.455c-0.793,0.907-2.186,0.99-3.156,1.707c-0.236,0.174-0.447,0.387-0.709,0.52    c-0.268,0.134-0.543,0.166-0.82,0.166c-0.139,0-0.279-0.01-0.42-0.018s-0.281-0.016-0.42-0.016c-0.137,0-0.273,0.008-0.408,0.031    c-0.729,0.129-1.426,0.249-2.18,0.249c-0.012,0-0.025,0-0.037,0c-0.256-0.001-0.566-0.048-0.662-0.282    c-0.051-0.127-0.02-0.271-0.037-0.406c-0.023-0.182-0.133-0.342-0.195-0.516c-0.088-0.244-0.08-0.506-0.045-0.767    c-1.119,0.086-2.244,0.095-3.367,0.101c-0.027,0-0.057,0-0.084,0c-0.199,0-0.398-0.008-0.586-0.073    c-0.049-0.017-0.096-0.038-0.143-0.062c-0.09,0.093-0.178,0.187-0.26,0.285c-0.205-0.198-0.295-0.459-0.303-0.739    c-0.086-0.085-0.174-0.17-0.266-0.247c-0.482-0.414-0.959-0.44-1.539-0.585c-0.496-0.127-0.98-0.555-1.357-0.902    c-0.684-0.627-1.23-1.396-1.916-2.019c-0.789-0.716-1.48-1.166-1.979-2.093c-0.471-0.874-0.855-1.846-1.34-2.736    c-0.5-0.926-0.906-2.173-1.689-2.898C18.305,41.962,18.098,41.802,17.895,41.637" stroke-width="1"/>
		<path fill="#ABABAA" d="M31.936,52.921c-0.023,0-0.051,0-0.076,0c-1.008,0.02-2,0.445-2.717,1.152    c0.045,0.022,0.092,0.044,0.143,0.061c0.188,0.065,0.387,0.074,0.586,0.074c0.027,0,0.057,0,0.084-0.001    c1.123-0.007,2.248-0.014,3.367-0.1c0.014-0.104,0.029-0.205,0.051-0.307c-0.389-0.291-0.771-0.582-1.156-0.873    C32.121,52.923,32.027,52.921,31.936,52.921 M53.791,42.335c-0.045,0-0.092,0.002-0.139,0.006    c-1.227,0.105-1.838,1.591-2.961,2.097c-0.283,0.128-0.619,0.213-0.93,0.318c0.012,0.521-0.02,1.046-0.092,1.562    c-0.07,0.51-0.188,1.024-0.463,1.456c-0.045,0.068-0.092,0.136-0.145,0.197c-0.229,0.499-0.705,0.906-1.25,1.031    c-0.064,0.016-0.131,0.026-0.197,0.035c-0.799,0.418-1.637,0.771-2.363,1.301c-0.529,0.384-1.006,0.863-1.615,1.098    c-0.635,0.244-1.336,0.195-2.016,0.22s-1.41,0.155-1.873,0.653c0.488-0.137,0.998-0.205,1.506-0.205    c0.566,0,1.135,0.084,1.676,0.254c0.311,0.097,0.623,0.223,0.945,0.223c0.035,0,0.07-0.001,0.105-0.005    c0.24-0.022,0.467-0.122,0.688-0.222c0.963-0.43,1.924-0.858,2.885-1.289c-0.564,0.607-1.131,1.217-1.695,1.824    c-0.145,0.155-0.295,0.387-0.17,0.558c1.307-0.615,2.49-1.492,3.459-2.562c1.012-1.115,1.928-2.1,3.197-2.912    c1.035-0.662,2.234-1.438,2.461-2.748c0.162-0.945-0.25-1.863-0.504-2.801C54.143,42.366,53.973,42.335,53.791,42.335     M23.352,38.171c-0.225,0-0.453,0.031-0.674,0.076c-0.904,0.176-1.764,0.542-2.529,1.051c0.291,0.46,0.6,0.912,0.902,1.359    c-0.609-0.061-1.119-0.428-1.57-0.859c-0.623,0.521-1.162,1.146-1.586,1.84c0.203,0.164,0.41,0.324,0.602,0.501    c0.781,0.728,1.189,1.975,1.689,2.899c0.48,0.89,0.867,1.861,1.338,2.735c0.498,0.927,1.189,1.378,1.979,2.094    c0.688,0.623,1.232,1.39,1.916,2.018c0.377,0.349,0.863,0.776,1.359,0.901c0.578,0.146,1.055,0.172,1.539,0.586    c0.092,0.078,0.178,0.162,0.266,0.248c-0.01-0.387,0.139-0.805,0.354-1.132c0.293-0.442,0.691-0.823,0.963-1.274    c-0.061-0.039-0.125-0.076-0.188-0.111c-0.291-0.164-0.607-0.295-0.859-0.516c-0.809-0.709-0.664-2.026-1.209-2.945    c-0.254-0.065-0.496-0.156-0.713-0.305c-0.09-0.062-0.174-0.135-0.227-0.229c-0.217-0.375,0.148-0.822,0.523-1.038    s0.836-0.406,0.951-0.822c0.072-0.256-0.014-0.531,0.029-0.791c0.064-0.388,0.393-0.67,0.559-1.024    c0.295-0.632,0.025-1.406-0.443-1.923c-0.471-0.517-1.104-0.844-1.693-1.215c-0.619-0.391-1.201-0.84-1.736-1.338    c-0.27-0.252-0.535-0.521-0.875-0.662C23.807,38.204,23.58,38.171,23.352,38.171 M49.205,26.603    c-0.227,0.11-0.471,0.174-0.727,0.174c-0.023,0-0.049-0.002-0.074-0.002c0-0.045-0.002-0.088-0.004-0.133    c-0.332,0.039-0.664,0.092-1,0.107c-0.08,0.004-0.16,0.006-0.242,0.006c-0.215,0-0.43-0.011-0.646-0.021    c-0.215-0.012-0.432-0.021-0.645-0.021c-0.393,0-0.775,0.036-1.141,0.177c-0.229,0.088-0.453,0.229-0.559,0.448    c-0.094,0.198-0.078,0.432-0.129,0.646c-0.18,0.757-1.146,1.198-1.154,1.978c-0.008,0.513,0.432,1.007,0.266,1.493    c-0.109,0.322-0.445,0.502-0.754,0.649c-1.174,0.567-2.311,1.038-3.543,1.456c-0.932,0.316-1.977,0.701-2.406,1.666    c-0.588,1.314,0.361,2.847,0.107,4.263c-0.201,1.117-1.1,1.95-1.793,2.852c-0.693,0.898-1.205,2.186-0.578,3.131    c0.432,0.65,1.289,0.938,1.664,1.621c0.484,0.885-0.039,2.027,0.303,2.977c0.109,0.303,0.305,0.571,0.441,0.859    c0.508-0.08,1.016-0.164,1.527-0.236c0.014-0.009,0.027-0.016,0.045-0.022c0.037-0.019,0.08-0.03,0.121-0.03    c0.021,0,0.043,0.004,0.062,0.011c0.006,0.002,0.012,0.006,0.02,0.01c0.609-0.079,1.188-0.012,1.809-0.127    c1.5-0.275,2.971-0.711,4.379-1.297c0.461-0.191,0.922-0.401,1.361-0.647c-0.184-0.123-0.354-0.269-0.504-0.426    c-0.395-0.414-0.758-0.97-1.328-1.015c-0.023-0.002-0.049-0.002-0.072-0.002c-0.307,0-0.605,0.142-0.914,0.154    c-0.014,0-0.029,0-0.043,0c-0.916,0-1.479-1.2-1.156-2.072c0.326-0.885,1.207-1.43,2.07-1.813c0.789-0.353,1.896-0.639,2.43-1.368    c0.17-0.234,0.258-0.553,0.146-0.819c-0.09-0.221-0.299-0.379-0.387-0.6c-0.139-0.354,0.098-0.785,0.455-0.912    c0.088-0.031,0.18-0.047,0.271-0.047c0.281,0,0.564,0.137,0.754,0.353c0.252,0.287,0.377,0.712,0.723,0.875    c0.102,0.048,0.207,0.067,0.314,0.067c0.328,0,0.676-0.178,1.014-0.244c0.109-0.021,0.219-0.029,0.326-0.029    c0.457,0,0.914,0.163,1.359,0.3c0.82,0.25,1.67,0.406,2.525,0.469c0.074,0.006,0.148,0.01,0.225,0.013    c-0.18-2.282,1.373-4.499,1.805-6.727c-0.029-0.048-0.057-0.095-0.086-0.141c-0.037-0.059-0.08-0.12-0.146-0.141    c-0.016-0.004-0.031-0.006-0.047-0.006c-0.076,0-0.15,0.049-0.223,0.081c-0.078,0.031-0.156,0.048-0.234,0.048    c-0.186,0-0.375-0.076-0.566-0.152c-0.193-0.076-0.389-0.153-0.584-0.153c-0.021,0-0.041,0.002-0.061,0.004    c-0.234,0.019-0.457,0.157-0.688,0.157c-0.029,0-0.057-0.002-0.084-0.007c-0.287-0.046-0.471-0.327-0.611-0.582    c-0.008-0.012-0.014-0.023-0.021-0.036c0.01,0.245-0.068,0.494-0.141,0.767c-0.148,0.572-0.205,1.137-0.443,1.689    c-0.121,0.282-0.289,0.569-0.566,0.702c-0.031,0.016-0.068,0.028-0.104,0.028c-0.021,0-0.043-0.005-0.062-0.019l-0.059-0.096    c-0.162-0.497,0.061-1.034,0.33-1.482c0.105-0.173,0.221-0.347,0.26-0.544c0.148-0.732-0.23-1.459-0.514-2.104    c-0.299-0.684-0.32-1.452-0.336-2.199c-0.01-0.451-0.014-0.924,0.186-1.33c0.121,0.859,0.244,1.72,0.363,2.578    c0.043,0.291,0.09,0.594,0.26,0.836c0.135,0.191,0.336,0.325,0.502,0.49c-0.061-0.182-0.096-0.369-0.084-0.562    c0.035-0.651,0.59-1.216,0.533-1.864c-0.031-0.369-0.258-0.688-0.414-1.022c-0.205-0.433-0.305-0.909-0.508-1.342    C51.322,27.354,50.291,26.659,49.205,26.603" stroke-width="1"/>
		<path fill="#848483" d="M51.129,29.226c-0.197,0.406-0.193,0.879-0.184,1.33c0.016,0.748,0.037,1.517,0.338,2.2    c0.281,0.646,0.66,1.372,0.512,2.104c-0.039,0.197-0.154,0.37-0.258,0.544c-0.271,0.447-0.494,0.984-0.332,1.482l0.059,0.097    c0.02,0.012,0.039,0.018,0.062,0.018c0.033,0,0.07-0.014,0.104-0.029c0.277-0.133,0.443-0.42,0.566-0.701    c0.238-0.553,0.293-1.116,0.443-1.689c0.07-0.272,0.148-0.521,0.141-0.768c-0.123-0.219-0.246-0.446-0.324-0.683    c-0.166-0.165-0.367-0.3-0.504-0.491c-0.168-0.24-0.215-0.545-0.256-0.836C51.375,30.944,51.252,30.085,51.129,29.226" stroke-width="1"/>
		<path fill="#848483" d="M42.412,53.438c-0.49,0.151-0.982,0.304-1.475,0.454c-0.475,0.147-0.957,0.296-1.381,0.557    c-0.453,0.276-0.832,0.674-1.32,0.879c-0.33,0.14-0.682,0.181-1.043,0.181c-0.34,0-0.686-0.037-1.021-0.062    c-0.055-0.005-0.107-0.007-0.162-0.007c-0.229,0-0.455,0.033-0.678,0.067c-0.225,0.034-0.445,0.067-0.666,0.067    c-0.082,0-0.166-0.005-0.248-0.017c-0.168-0.021-0.344-0.074-0.445-0.211c-0.082-0.109-0.098-0.255-0.107-0.391    c-0.02-0.29-0.021-0.581-0.004-0.871c0.006-0.06,0.01-0.122-0.016-0.178c-0.043-0.105-0.156-0.138-0.277-0.138    c-0.064,0-0.135,0.01-0.195,0.022c0,0.002,0,0.006-0.002,0.008c-0.02,0.103-0.035,0.203-0.051,0.308    c-0.033,0.26-0.043,0.521,0.047,0.766c0.061,0.174,0.172,0.334,0.193,0.516c0.02,0.137-0.014,0.279,0.039,0.405    c0.094,0.236,0.404,0.281,0.66,0.282c0.012,0,0.025,0,0.037,0c0.754,0,1.451-0.119,2.18-0.249    c0.137-0.024,0.271-0.031,0.408-0.031c0.139,0,0.281,0.009,0.42,0.018c0.143,0.008,0.281,0.017,0.42,0.017    c0.279,0,0.553-0.033,0.82-0.167c0.262-0.132,0.475-0.344,0.711-0.519C40.227,54.429,41.617,54.345,42.412,53.438" stroke-width="1"/>
		<path fill="#848483" d="M38.287,50.638c-0.041,0-0.084,0.012-0.123,0.029c-0.016,0.008-0.031,0.016-0.045,0.023    c-0.154,0.092-0.25,0.264-0.307,0.437c-0.061,0.188-0.082,0.389-0.146,0.576c-0.129,0.37-0.432,0.675-0.801,0.804    c-0.305,0.107-0.592,0.129-0.803,0.41l-0.037,0.086c0.004,0.07,0.094,0.102,0.164,0.104c0.012,0.001,0.023,0.001,0.035,0.001    c0.824,0,1.561-1.075,2.012-1.639c0.158-0.195,0.324-0.44,0.24-0.678c-0.02-0.057-0.057-0.109-0.109-0.136    c-0.006-0.004-0.012-0.008-0.02-0.01C38.328,50.641,38.309,50.638,38.287,50.638" stroke-width="1"/>
		<path fill="#949494" d="M43.818,54.069c-0.082,0-0.164,0.01-0.244,0.021c-1.016,0.155-2.07,0.514-2.834,1.219    c-0.152,0.14-0.297,0.293-0.439,0.443c-0.316,0.33-0.639,0.648-1.062,0.801c-0.348,0.125-0.725,0.121-1.092,0.132    c-0.881,0.024-1.818,0.163-2.471,0.755c1.24-0.165,2.482-0.328,3.723-0.493c0.521-0.068,1.141-0.059,1.607-0.299    c0.486-0.249,0.936-0.63,1.381-0.945c0.496-0.354,0.982-0.514,1.533-0.758c0.203-0.091,0.432-0.225,0.447-0.445    c0.012-0.17-0.123-0.325-0.285-0.387C43.998,54.081,43.91,54.069,43.818,54.069" stroke-width="1"/>
		<path fill="#585857" d="M12.479,36.815c-0.078,0.277-0.258,0.545-0.438,0.777c-0.512,0.66-0.688,1.398-0.611,2.234    c0.059,0.668,0.344,1.301,0.715,1.858c0.172,0.259,0.385,0.519,0.684,0.604c-0.051-0.326-0.068-0.656-0.088-0.986    C12.652,39.808,12.566,38.312,12.479,36.815 M12.416,35.735c-0.039,0.073-0.076,0.147-0.113,0.225    c0.053,0.074,0.104,0.152,0.139,0.234C12.434,36.042,12.426,35.888,12.416,35.735" stroke-width="1"/>
		<path fill="#90908F" d="M16.748,32.207c-0.018,0.669-0.049,1.337-0.096,2.004c-0.039,0.558-0.09,1.122,0.023,1.669    c0.115,0.561,0.396,1.072,0.697,1.559c0.297,0.481,0.713,0.917,1.125,1.34c0.043,0.045,0.086,0.089,0.131,0.134    c0.053-0.136,0.074-0.277,0.051-0.427c-0.031-0.176-0.123-0.331-0.225-0.477c-0.322-0.455-0.77-0.887-0.781-1.445    c-0.008-0.301,0.117-0.588,0.211-0.875c0.203-0.616,0.271-1.291,0.113-1.922c-0.162-0.631-0.566-1.213-1.146-1.51    C16.816,32.239,16.783,32.222,16.748,32.207 M13.93,31.677c-0.029,0-0.059,0.002-0.09,0.007c-0.137,0.021-0.26,0.096-0.375,0.175    c-0.482,0.326-0.945,0.642-1.211,1.185c-0.209,0.43-0.301,0.905-0.389,1.375c-0.055,0.291-0.105,0.596-0.01,0.875    c0.09,0.253,0.289,0.449,0.447,0.668c0.037-0.076,0.074-0.15,0.113-0.225c0.01,0.151,0.018,0.307,0.025,0.459    c0.02,0.039,0.033,0.079,0.045,0.12c0.049,0.169,0.037,0.337-0.01,0.5c0.088,1.496,0.176,2.992,0.264,4.488    c0.02,0.329,0.037,0.66,0.088,0.986c0.002,0,0.004,0,0.004,0.001c0.074,0.021,0.148,0.028,0.227,0.028    c0.158,0,0.32-0.037,0.475-0.084c0.592-0.181,1.199-0.566,1.318-1.174c0.029-0.146,0.049-0.327,0.188-0.386    c0.027-0.012,0.057-0.018,0.086-0.018c0.07,0,0.143,0.026,0.211,0.049c0.16,0.051,0.324,0.073,0.49,0.073    c0.332,0,0.668-0.092,0.971-0.237c0.039-0.019,0.076-0.039,0.115-0.059c-0.445-0.83-0.615-1.827-0.939-2.73    c-0.188-0.52-0.432-1.025-0.518-1.57c-0.094-0.579,0.002-1.172,0.133-1.741c0.188-0.81,0.451-1.597,0.705-2.386    c-0.619-0.146-1.295-0.112-1.914-0.284C14.23,31.731,14.08,31.677,13.93,31.677" stroke-width="1"/>
		<path fill="#ABABAA" d="M16.293,32.057c-0.256,0.79-0.52,1.576-0.705,2.386c-0.133,0.57-0.227,1.162-0.135,1.741    c0.086,0.546,0.332,1.053,0.52,1.571c0.324,0.902,0.494,1.899,0.939,2.73c0.402-0.218,0.756-0.518,1.102-0.818    c0.242-0.212,0.5-0.468,0.613-0.756c-0.043-0.045-0.086-0.09-0.131-0.135c-0.41-0.423-0.826-0.857-1.125-1.339    c-0.301-0.487-0.58-0.998-0.695-1.559c-0.113-0.547-0.064-1.112-0.025-1.67c0.049-0.666,0.08-1.335,0.098-2.004    C16.602,32.142,16.449,32.093,16.293,32.057" stroke-width="1"/>
		<path fill="#6D6D6C" d="M27.504,56.366c0.057,0.028,0.113,0.055,0.172,0.082C27.619,56.421,27.561,56.394,27.504,56.366     M22.457,51.944c0.533,2.536,2.932,3.422,5.047,4.422C25.521,55.386,24.057,53.401,22.457,51.944" stroke-width="1"/>
	</g>
</g>
</svg>