<svg xmlns="http://www.w3.org/2000/svg" xmlns:xlink="http://www.w3.org/1999/xlink" version="1.1" width="56.28357697224926" height="55.67746353841137" viewBox="10.119911190389043 10.39787673604334 56.28357697224926 55.67746353841137">
  <defs>
    <radialGradient id="grad_1" cx="-1241.3926" cy="458.5312" r="0.4998" gradientUnits="userSpaceOnUse">
      <stop offset="0" stop-color="#929292"/>
      <stop offset="0.7999" stop-color="#929292"/>
      <stop offset="1" stop-color="#929292"/>
    </radialGradient>
  <radialGradient id="grad_1-.8436398694178902,-0.5369094752032417,0.5369094752032417,0.8436398694178902,-12.8613187789917,27.51866235733032" cx="-813.9599" cy="1080.8693" r="0.4998" gradientUnits="userSpaceOnUse">
      <stop offset="0" stop-color="#929292"/>
      <stop offset="0.7999" stop-color="#929292"/>
      <stop offset="1" stop-color="#929292"/>
    </radialGradient></defs>
  <!-- Exported by Scratch - http://scratch.mit.edu/ -->
  <g id="pierre_ronde">
    <g id="ID0.2773045846261084">
      <path id="ID0.8582379361614585" d="M 22.78 16.8528 C 23.805 16.2005 24.8769 15.6368 25.9842 15.1751 C 26.526 14.95 27.0808 14.7451 27.5831 14.4467 C 27.6323 14.4178 27.6812 14.3867 27.7276 14.3571 C 28.2667 14.0141 28.7447 13.5842 29.2746 13.2268 C 29.3183 13.1967 29.3638 13.1677 29.4085 13.1392 C 30.1433 12.6716 30.9721 12.3515 31.83 12.2039 C 32.1616 12.1457 32.5046 12.1147 32.828 12.2076 C 33.0839 12.2818 33.3156 12.4354 33.5737 12.5058 C 34.1235 12.6526 34.6914 12.418 35.2364 12.2632 C 36.1768 11.9919 37.1855 11.9509 38.1479 12.1444 C 38.4921 12.2122 38.8423 12.3117 39.1882 12.2481 C 40.2399 12.0529 40.7768 11.7977 41.872 11.9577 C 43.5246 12.2003 45.0341 12.6929 46.6139 13.2177 C 47.2663 13.4344 47.9331 13.6608 48.465 14.0962 C 48.7363 14.3195 48.9683 14.5927 49.2669 14.7843 C 49.5997 14.9944 49.9942 15.0872 50.3801 15.1758 C 51.0836 15.335 51.7876 15.495 52.4885 15.6558 C 52.7616 15.718 53.0412 15.783 53.2794 15.9301 C 53.5752 16.1117 53.7809 16.4051 53.9855 16.6874 C 54.19 16.9697 54.409 17.2393 54.6341 17.5074 L 54.7196 17.6082 C 54.9511 17.8769 55.188 18.1411 55.4346 18.4001 C 57.3936 20.4818 59.6987 22.3101 60.7478 25.0277 C 60.9878 25.6526 61.164 26.3038 61.4701 26.8984 C 61.7481 27.4339 62.1271 27.9158 62.3532 28.4759 C 62.5829 29.0398 62.6466 29.669 62.9474 30.1994 C 63.377 30.9656 64.247 31.4443 64.5564 32.2656 C 65.1189 33.7603 64.9108 36.0856 64.4763 37.6044 C 64.1462 38.7544 63.8343 39.6724 64.142 40.7817 C 64.1639 40.859 64.1878 40.9374 64.2158 41.0168 C 64.2626 41.1482 64.3098 41.2782 64.3743 41.415 C 64.4749 41.6271 64.594 41.8477 64.5781 42.0853 C 64.5631 42.2834 64.4511 42.4613 64.3501 42.6323 C 63.329 44.3561 63.0835 46.4159 62.4567 48.3179 C 61.7185 50.5515 60.4126 52.6212 58.5874 54.1041 C 58.0321 54.5558 57.4281 54.9533 56.9102 55.4453 C 55.958 56.3535 55.3318 57.545 54.5088 58.5726 C 53.8828 59.3527 53.1313 60.0419 52.2877 60.5788 C 51.6634 60.9761 50.986 61.2899 50.2755 61.4979 C 49.7039 61.6613 49.1068 61.7605 48.55 61.9808 C 47.946 62.2218 47.4075 62.6013 46.8361 62.914 C 44.8691 63.988 42.5647 64.2242 40.3303 64.4384 C 39.1945 64.546 38.0495 64.656 36.9153 64.5184 C 36.2883 64.4421 35.664 64.2918 35.0331 64.3176 C 34.9193 64.3212 34.8061 64.3352 34.6921 64.3461 C 34.4352 64.3745 34.1774 64.407 33.921 64.3971 C 33.5504 64.3793 33.191 64.269 32.8355 64.161 C 30.1351 63.3264 27.5225 62.8922 25.1091 61.2941 C 24.7127 61.0308 24.3479 60.7165 23.9184 60.5109 C 23.5369 60.3306 23.121 60.2432 22.7205 60.1093 C 21.9834 59.8601 21.2994 59.4408 20.7423 58.8933 C 20.1394 58.2979 19.6913 57.566 19.1774 56.8927 C 18.5135 56.0208 17.7366 55.247 16.9955 54.442 C 15.6253 52.954 14.3475 51.3112 13.7371 49.3799 C 13.4221 48.382 13.2933 47.3285 12.912 46.355 C 12.7473 45.9323 12.536 45.5239 12.4278 45.0819 C 12.2804 44.4835 12.3344 43.8588 12.3636 43.2416 C 12.4778 40.9251 12.1651 38.7166 11.7154 36.4567 C 11.3516 34.6222 12.1025 32.2857 12.6375 30.5169 C 13.1471 28.833 13.8344 27.2031 14.6661 25.6509 C 14.8093 25.3843 14.9446 25.1145 15.0971 24.855 C 16.9394 21.6817 19.6301 18.8562 22.78 16.8528 M 22.2425 16.0083 L 22.78 16.8528 L 22.2425 16.0083 C 19.008 18.0668 16.1648 21.0308 14.2323 24.3528 C 14.1129 24.5545 14.005 24.763 13.8943 24.971 L 13.7831 25.178 C 12.9058 26.815 12.1984 28.5158 11.6813 30.227 L 11.6076 30.4706 C 11.0417 32.3362 10.3392 34.6537 10.736 36.6498 C 11.1131 38.5481 11.4826 40.8105 11.3666 43.191 L 11.3585 43.3739 C 11.3271 43.9653 11.2907 44.6344 11.4574 45.3154 C 11.5516 45.7 11.6999 46.0466 11.8304 46.3523 C 11.8828 46.4718 11.9349 46.5928 11.9825 46.7142 C 12.1751 47.2068 12.3005 47.741 12.4305 48.3102 C 12.5337 48.7554 12.639 49.2171 12.786 49.6771 C 13.4953 51.9223 15.0167 53.7633 16.2625 55.1136 C 16.4433 55.3102 16.6248 55.5041 16.8092 55.7008 C 17.3751 56.3032 17.9126 56.8739 18.3849 57.4931 C 18.5317 57.6865 18.6726 57.8837 18.8143 58.0839 C 19.1804 58.5941 19.5584 59.1228 20.0429 59.5992 C 20.7057 60.2513 21.5217 60.7549 22.4015 61.0496 C 22.5491 61.0991 22.6977 61.1444 22.8482 61.1873 C 23.087 61.257 23.3081 61.3213 23.4905 61.4068 C 23.6967 61.5055 23.9153 61.6627 24.1445 61.831 C 24.28 61.9284 24.4175 62.0271 24.5558 62.1215 C 26.5357 63.4314 28.6402 64.0134 30.6779 64.574 C 31.2884 64.7438 31.9175 64.9183 32.5393 65.1093 C 32.9312 65.2297 33.3744 65.3673 33.8758 65.3896 C 34.1801 65.4022 34.4587 65.3706 34.7059 65.3437 L 34.7971 65.3343 C 34.8878 65.324 34.9829 65.3132 35.0761 65.3108 C 35.4207 65.2953 35.8009 65.3545 36.2038 65.4157 C 36.3984 65.4495 36.5983 65.4788 36.7964 65.5032 C 38.0413 65.6545 39.2544 65.5379 40.4266 65.4261 C 42.6352 65.2141 45.1353 64.9743 47.315 63.7839 C 47.5151 63.6755 47.7101 63.5573 47.9071 63.4402 C 48.2577 63.2313 48.5879 63.033 48.9203 62.8997 C 49.2137 62.7853 49.5411 62.7037 49.8903 62.619 C 50.1125 62.5641 50.3353 62.51 50.5519 62.4481 C 51.3371 62.2198 52.0996 61.872 52.8235 61.4113 C 53.7464 60.824 54.5737 60.077 55.2878 59.1875 C 55.6166 58.7767 55.9134 58.3472 56.1974 57.9366 C 56.6491 57.2792 57.0778 56.6603 57.6008 56.1615 C 57.8921 55.8836 58.2262 55.6319 58.5803 55.3651 C 58.7951 55.2034 59.0086 55.0415 59.2185 54.8723 C 61.1199 53.3303 62.5679 51.169 63.4073 48.6232 C 63.6252 47.9654 63.7969 47.2966 63.9633 46.649 C 64.2908 45.3738 64.6004 44.1692 65.2127 43.1347 L 65.2298 43.1037 C 65.3566 42.8914 65.547 42.5723 65.5776 42.151 C 65.6124 41.6748 65.431 41.2948 65.3112 41.0451 L 65.2815 40.9834 C 65.2396 40.8915 65.2047 40.7976 65.1625 40.681 C 65.1464 40.6296 65.1246 40.5712 65.1082 40.5081 C 64.8976 39.7508 65.0962 39.0626 65.371 38.1124 L 65.441 37.8723 C 65.9371 36.1448 66.145 33.6312 65.4961 31.9058 C 65.2512 31.2509 64.8051 30.7975 64.4121 30.398 C 64.1726 30.1558 63.9475 29.9268 63.8225 29.7006 C 63.7059 29.495 63.6292 29.2143 63.5467 28.9171 C 63.4766 28.6654 63.3995 28.3767 63.2827 28.0907 C 63.115 27.6782 62.8913 27.3156 62.694 26.9943 C 62.5722 26.7992 62.4563 26.6134 62.3633 26.4319 C 62.1893 26.097 62.0592 25.7175 61.9196 25.3156 C 61.8424 25.0956 61.7677 24.8777 61.6827 24.6603 C 60.7851 22.3335 59.0907 20.6452 57.4509 19.0147 C 57.0208 18.5867 56.5788 18.1473 56.1645 17.7069 C 55.9252 17.4538 55.6957 17.1992 55.481 16.9494 L 55.4409 16.9014 L 55.4014 16.8543 C 55.1587 16.5678 54.9672 16.3246 54.7946 16.0907 L 54.7709 16.0572 C 54.5426 15.7413 54.2568 15.3519 53.8084 15.0719 C 53.427 14.8358 53.0314 14.745 52.7119 14.6733 L 51.6573 14.4317 L 50.601 14.1912 C 50.3021 14.1219 49.9942 14.0535 49.804 13.9316 C 49.6997 13.8664 49.5787 13.7526 49.4523 13.6303 C 49.3481 13.5319 49.2314 13.4212 49.0991 13.3157 C 48.42 12.757 47.6288 12.4936 46.93 12.2616 C 45.4725 11.7762 43.8189 11.2248 42.0183 10.9602 C 41.0092 10.8106 40.3594 10.9574 39.6708 11.1159 C 39.4704 11.1605 39.2533 11.2086 39.0056 11.2571 C 38.9082 11.2753 38.6972 11.2306 38.5113 11.1901 L 38.3442 11.1565 C 37.2288 10.9312 36.0577 10.9795 34.9613 11.2944 C 34.8697 11.3219 34.7759 11.3496 34.6846 11.3793 C 34.3562 11.478 34.0195 11.5821 33.8382 11.5338 C 33.785 11.5191 33.6946 11.4795 33.6086 11.4394 C 33.4735 11.376 33.3042 11.3 33.1079 11.2412 C 32.5723 11.0831 32.052 11.1428 31.6597 11.2099 C 30.6779 11.3807 29.7134 11.7539 28.8732 12.2887 C 28.8209 12.3219 28.7694 12.3547 28.7173 12.3902 C 28.4466 12.572 28.1947 12.7667 27.9528 12.9527 C 27.691 13.156 27.4437 13.3466 27.1923 13.5066 C 27.1543 13.5308 27.1163 13.5549 27.0756 13.5785 C 26.7295 13.7833 26.3321 13.9449 25.9115 14.1166 C 25.8088 14.1583 25.7036 14.2015 25.6014 14.244 C 24.4577 14.7266 23.3271 15.3192 22.2425 16.0083 " stroke-width="1.0000000069172275" fill="undefined"/>
      <path id="ID0.7327934480272233" fill="#878787" d="M 24.5721 59.277 C 24.8282 59.4353 25.1183 59.528 25.3783 59.6814 C 25.89 59.9899 26.2255 60.5172 26.6607 60.929 C 27.0975 61.3397 27.7583 61.6386 28.2858 61.3574 C 27.4269 60.8254 26.5037 60.2205 26.182 59.2624 C 26.1124 59.0542 26.0721 58.8345 25.966 58.6436 C 25.6336 58.0337 24.9396 58.0273 24.4228 57.6771 C 24.2144 57.5359 23.8229 56.7158 23.5133 56.8963 C 23.4234 56.9487 23.4152 57.0737 23.4245 57.1757 C 23.4845 57.9684 23.877 58.8423 24.5721 59.277 Z " stroke-width="1.0000000069172275"/>
      <path id="ID0.19872760865837336" fill="#878787" d="M 13.7682 37.7023 C 13.7932 36.654 14.0866 35.679 14.1226 34.6403 C 14.0109 34.5952 13.9092 34.7204 13.8578 34.8278 C 13.3764 35.8015 13.1435 36.732 13.7682 37.7023 Z " stroke-width="1.0000000069172275"/>
      <path id="ID0.6473417826928198" fill="#706F6F" d="M 21.2483 54.3989 C 21.1231 54.2356 20.2633 54.0692 20.0222 53.899 C 19.6209 53.6186 19.2893 53.2465 19.0084 52.848 C 18.4377 52.0389 18.3542 51.0881 17.8132 50.253 C 17.5645 49.8696 17.1583 49.6243 16.908 49.2739 C 16.3927 48.548 16.2581 47.1947 16.1105 46.3333 C 16.0584 46.0298 16.0203 45.6925 16.1843 45.4305 C 16.4996 46.2314 16.7303 47.296 17.2987 47.9489 C 17.8423 48.5702 18.528 49.0181 18.7935 49.8543 C 18.9228 50.2568 18.9272 50.6902 19.0504 51.0943 C 19.1811 51.5362 19.4469 51.9241 19.7116 52.3009 C 20.21 53.0114 20.7225 53.7105 21.2483 54.3989 " stroke-width="1.0000000069172275"/>
      <path id="ID0.39996868278831244" fill="#686867" d="M 64.4752 37.6027 C 64.0854 38.9626 63.7074 40.0021 64.3718 41.413 C 64.473 41.6259 64.5926 41.8474 64.5762 42.0842 C 64.5617 42.2831 64.4492 42.4602 64.3487 42.632 C 63.3271 44.3549 63.0816 46.4148 62.4553 48.3176 C 61.7183 50.5492 60.4107 52.6201 58.586 54.1038 C 58.0302 54.5547 57.4284 54.9519 56.9088 55.445 C 55.9561 56.3524 55.3304 57.5447 54.5086 58.5704 C 53.4178 59.9295 51.9476 61.011 50.2722 61.4964 C 49.6995 61.6618 49.104 61.7598 48.5473 61.9802 C 47.9432 62.2212 47.4053 62.6015 46.8333 62.9134 C 44.8647 63.9884 42.5619 64.2236 40.3275 64.4378 C 39.19 64.5465 38.045 64.6564 36.912 64.517 C 36.2861 64.4424 35.6612 64.2912 35.0304 64.3169 C 34.6589 64.3329 34.2899 64.4125 33.9199 64.3954 C 33.5482 64.3795 33.1883 64.2684 32.8344 64.1593 C 30.1346 63.3255 27.5197 62.8916 25.1077 61.2938 C 24.7125 61.0285 24.3483 60.7151 23.9165 60.5098 C 23.5372 60.3292 23.1191 60.2421 22.7186 60.1082 C 21.9815 59.8589 21.298 59.4405 20.7421 58.8911 C 20.138 58.2976 19.6894 57.5649 19.1767 56.8896 C 18.5116 56.0197 17.7346 55.2458 16.9936 54.4408 C 15.6234 52.9528 14.3456 51.31 13.7352 49.3788 C 13.4207 48.3817 13.2914 47.3273 12.9101 46.3538 C 12.7471 45.9301 12.5341 45.5228 12.4258 45.0808 C 12.279 44.4831 12.332 43.8568 12.3617 43.2404 C 12.4764 40.9248 12.1632 38.7155 11.7141 36.4564 C 11.3497 34.6211 12.1006 32.2846 12.6356 30.5158 C 13.2329 28.5414 14.0587 26.6373 15.0952 24.8539 C 17.5403 20.6497 21.4699 17.0536 25.9837 15.1743 C 26.5255 14.9491 27.0802 14.7442 27.5821 14.445 C 28.1807 14.0913 28.6963 13.6126 29.2741 13.226 C 30.0423 12.7121 30.9193 12.3579 31.8289 12.2022 C 32.1605 12.144 32.5035 12.113 32.8269 12.2059 C 33.0833 12.281 33.315 12.4346 33.5727 12.5041 C 34.123 12.6518 34.6908 12.4172 35.2354 12.2615 C 36.1757 11.9902 37.1844 11.9492 38.1477 12.1422 C 38.4902 12.211 38.8421 12.3095 39.1863 12.2469 C 40.238 12.0517 40.7744 11.7957 41.8695 11.9557 C 43.5244 12.1981 45.0317 12.6909 46.612 13.2166 C 47.2643 13.4332 47.9311 13.6596 48.4626 14.0942 C 48.7339 14.3175 48.9664 14.5915 49.2661 14.7812 C 49.5978 14.9933 49.9917 15.0852 50.3794 15.1727 C 51.0817 15.3338 51.7851 15.493 52.4883 15.6536 C 52.7608 15.7149 53.0388 15.781 53.2787 15.927 C 53.5727 16.1097 53.779 16.404 53.9847 16.6844 C 56.0901 19.5773 59.4207 21.5921 60.7454 25.0257 C 60.9848 25.6497 61.1616 26.3018 61.4694 26.8953 C 61.7457 27.4319 62.1246 27.9138 62.3508 28.474 C 62.5804 29.0378 62.6442 29.667 62.9433 30.1985 C 63.3745 30.9636 64.2446 31.4423 64.5539 32.2636 C 65.1194 33.7611 64.9103 36.0848 64.4752 37.6027 " stroke-width="1.0000000069172275"/>
      <path id="ID0.501052432693541" fill="url(#grad_1-.8436398694178902,-0.5369094752032417,0.5369094752032417,0.8436398694178902,-12.8613187789917,27.51866235733032)" d="M 64.4752 37.6027 C 64.0854 38.9626 63.7074 40.0021 64.3718 41.413 C 64.473 41.6259 64.5926 41.8474 64.5762 42.0842 C 64.5617 42.2831 64.4492 42.4602 64.3487 42.632 C 63.3271 44.3549 63.0816 46.4148 62.4553 48.3176 C 61.7183 50.5492 60.4107 52.6201 58.586 54.1038 C 58.0302 54.5547 57.4284 54.9519 56.9088 55.445 C 55.9561 56.3524 55.3304 57.5447 54.5086 58.5704 C 53.4178 59.9295 51.9476 61.011 50.2722 61.4964 C 49.6995 61.6618 49.104 61.7598 48.5473 61.9802 C 47.9432 62.2212 47.4053 62.6015 46.8333 62.9134 C 44.8647 63.9884 42.5619 64.2236 40.3275 64.4378 C 39.19 64.5465 38.045 64.6564 36.912 64.517 C 36.2861 64.4424 35.6612 64.2912 35.0304 64.3169 C 34.6589 64.3329 34.2899 64.4125 33.9199 64.3954 C 33.5482 64.3795 33.1883 64.2684 32.8344 64.1593 C 30.1346 63.3255 27.5197 62.8916 25.1077 61.2938 C 24.7125 61.0285 24.3483 60.7151 23.9165 60.5098 C 23.5372 60.3292 23.1191 60.2421 22.7186 60.1082 C 21.9815 59.8589 21.298 59.4405 20.7421 58.8911 C 20.138 58.2976 19.6894 57.5649 19.1767 56.8896 C 18.5116 56.0197 17.7346 55.2458 16.9936 54.4408 C 15.6234 52.9528 14.3456 51.31 13.7352 49.3788 C 13.4207 48.3817 13.2914 47.3273 12.9101 46.3538 C 12.7471 45.9301 12.5341 45.5228 12.4258 45.0808 C 12.279 44.4831 12.332 43.8568 12.3617 43.2404 C 12.4764 40.9248 12.1632 38.7155 11.7141 36.4564 C 11.3497 34.6211 12.1006 32.2846 12.6356 30.5158 C 13.2329 28.5414 14.0587 26.6373 15.0952 24.8539 C 17.5403 20.6497 21.4699 17.0536 25.9837 15.1743 C 26.5255 14.9491 27.0802 14.7442 27.5821 14.445 C 28.1807 14.0913 28.6963 13.6126 29.2741 13.226 C 30.0423 12.7121 30.9193 12.3579 31.8289 12.2022 C 32.1605 12.144 32.5035 12.113 32.8269 12.2059 C 33.0833 12.281 33.315 12.4346 33.5727 12.5041 C 34.123 12.6518 34.6908 12.4172 35.2354 12.2615 C 36.1757 11.9902 37.1844 11.9492 38.1477 12.1422 C 38.4902 12.211 38.8421 12.3095 39.1863 12.2469 C 40.238 12.0517 40.7744 11.7957 41.8695 11.9557 C 43.5244 12.1981 45.0317 12.6909 46.612 13.2166 C 47.2643 13.4332 47.9311 13.6596 48.4626 14.0942 C 48.7339 14.3175 48.9664 14.5915 49.2661 14.7812 C 49.5978 14.9933 49.9917 15.0852 50.3794 15.1727 C 51.0817 15.3338 51.7851 15.493 52.4883 15.6536 C 52.7608 15.7149 53.0388 15.781 53.2787 15.927 C 53.5727 16.1097 53.779 16.404 53.9847 16.6844 C 56.0901 19.5773 59.4207 21.5921 60.7454 25.0257 C 60.9848 25.6497 61.1616 26.3018 61.4694 26.8953 C 61.7457 27.4319 62.1246 27.9138 62.3508 28.474 C 62.5804 29.0378 62.6442 29.667 62.9433 30.1985 C 63.3745 30.9636 64.2446 31.4423 64.5539 32.2636 C 65.1194 33.7611 64.9103 36.0848 64.4752 37.6027 " stroke-width="1.0000000069172275"/>
      <path id="ID0.7686593476682901" fill="#5A5A59" d="M 64.4752 37.6027 C 64.0854 38.9626 63.7074 40.0021 64.3718 41.413 C 64.473 41.6259 64.5926 41.8474 64.5762 42.0842 C 64.5617 42.2831 64.4492 42.4602 64.3487 42.632 C 63.3271 44.3549 63.0816 46.4148 62.4553 48.3176 C 61.7183 50.5492 60.4107 52.6201 58.586 54.1038 C 58.0302 54.5547 57.4284 54.9519 56.9088 55.445 C 55.9561 56.3524 55.3304 57.5447 54.5086 58.5704 C 53.4178 59.9295 51.9476 61.011 50.2722 61.4964 C 49.6995 61.6618 49.104 61.7598 48.5473 61.9802 C 47.9432 62.2212 47.4053 62.6015 46.8333 62.9134 C 44.8647 63.9884 42.5619 64.2236 40.3275 64.4378 C 39.19 64.5465 38.045 64.6564 36.912 64.517 C 36.2861 64.4424 35.6612 64.2912 35.0304 64.3169 C 34.6589 64.3329 34.2899 64.4125 33.9199 64.3954 C 33.5482 64.3795 33.1883 64.2684 32.8344 64.1593 C 30.1346 63.3255 27.5197 62.8916 25.1077 61.2938 C 24.7125 61.0285 24.3483 60.7151 23.9165 60.5098 C 23.5372 60.3292 23.1191 60.2421 22.7186 60.1082 C 21.9815 59.8589 21.298 59.4405 20.7421 58.8911 C 20.138 58.2976 19.6894 57.5649 19.1767 56.8896 C 18.5116 56.0197 17.7346 55.2458 16.9936 54.4408 C 15.6234 52.9528 14.3456 51.31 13.7352 49.3788 C 13.4207 48.3817 13.2914 47.3273 12.9101 46.3538 C 12.7471 45.9301 12.5341 45.5228 12.4258 45.0808 C 12.279 44.4831 12.332 43.8568 12.3617 43.2404 C 12.4764 40.9248 12.1632 38.7155 11.7141 36.4564 C 11.3497 34.6211 12.1006 32.2846 12.6356 30.5158 C 13.2329 28.5414 14.0587 26.6373 15.0952 24.8539 C 17.5403 20.6497 21.4699 17.0536 25.9837 15.1743 C 26.5255 14.9491 27.0802 14.7442 27.5821 14.445 C 28.1807 14.0913 28.6963 13.6126 29.2741 13.226 C 30.0423 12.7121 30.9193 12.3579 31.8289 12.2022 C 32.1605 12.144 32.5035 12.113 32.8269 12.2059 C 33.0833 12.281 33.315 12.4346 33.5727 12.5041 C 34.123 12.6518 34.6908 12.4172 35.2354 12.2615 C 36.1757 11.9902 37.1844 11.9492 38.1477 12.1422 C 38.4902 12.211 38.8421 12.3095 39.1863 12.2469 C 40.238 12.0517 40.7744 11.7957 41.8695 11.9557 C 43.5244 12.1981 45.0317 12.6909 46.612 13.2166 C 47.2643 13.4332 47.9311 13.6596 48.4626 14.0942 C 48.7339 14.3175 48.9664 14.5915 49.2661 14.7812 C 49.5978 14.9933 49.9917 15.0852 50.3794 15.1727 C 51.0817 15.3338 51.7851 15.493 52.4883 15.6536 C 52.7608 15.7149 53.0388 15.781 53.2787 15.927 C 53.5727 16.1097 53.779 16.404 53.9847 16.6844 C 56.0901 19.5773 59.4207 21.5921 60.7454 25.0257 C 60.9848 25.6497 61.1616 26.3018 61.4694 26.8953 C 61.7457 27.4319 62.1246 27.9138 62.3508 28.474 C 62.5804 29.0378 62.6442 29.667 62.9433 30.1985 C 63.3745 30.9636 64.2446 31.4423 64.5539 32.2636 C 65.1194 33.7611 64.9103 36.0848 64.4752 37.6027 " stroke-width="1.0000000069172275"/>
      <path id="ID0.7516578380018473" fill="#949494" d="M 23.9102 18.9025 C 23.8149 18.9465 23.7226 18.9934 23.629 19.0399 C 22.0825 19.8321 20.7895 21.0319 19.525 22.2243 C 18.9999 22.7197 18.4439 23.2727 18.33 23.9841 C 19.2448 23.9483 19.9361 23.2855 20.6321 22.6209 C 21.3071 21.9756 21.9861 21.3289 22.874 21.2546 C 23.1179 21.5 22.8895 21.9085 22.6599 22.166 C 21.8829 23.0517 21.1386 24.1525 20.2107 24.8793 C 19.6279 25.3343 19.0007 25.6339 18.4523 26.1691 C 18.1396 26.4712 17.1654 27.2239 17.1447 27.7018 C 17.1336 27.9637 17.6022 28.6422 17.849 28.0987 C 17.3507 29.2006 16.6713 30.2564 16.0782 31.3154 C 15.8954 31.6428 15.5991 32.021 15.2378 31.9226 C 15.3101 30.9224 15.4582 29.9296 15.6762 28.9517 C 14.8458 30.1463 14.0067 31.3702 13.5959 32.766 C 13.249 33.9493 13.2288 35.1972 13.2093 36.4294 C 13.1889 37.7439 13.1694 39.0542 13.1479 40.367 C 13.5754 40.4577 13.9965 40.121 14.1667 39.7198 C 14.337 39.3187 14.3224 38.8657 14.3234 38.4312 C 14.3302 37.0377 14.5434 35.6479 14.9523 34.3161 C 14.5104 35.3429 15.289 36.4488 15.514 37.5455 C 15.6743 38.3171 15.5535 39.1182 15.4308 39.8956 C 15.0951 42.0521 14.3931 44.2531 14.3185 46.4306 C 14.1978 49.9473 16.2516 53.154 18.4664 55.8908 C 17.5281 54.4278 16.951 52.735 16.8011 51.0038 C 17.8868 52.5104 18.9777 54.0197 20.0617 55.5274 C 20.3967 55.9923 20.7376 56.4628 21.1895 56.8153 C 21.768 57.2698 22.4896 57.5004 23.1228 57.875 C 24.5097 58.6909 25.4132 60.131 26.6987 61.0968 C 29.5352 63.2293 33.5399 62.653 36.8921 63.8208 C 35.1846 62.9576 33.2547 62.6164 31.5342 61.7793 C 29.8154 60.941 28.2251 59.3585 28.2645 57.4463 C 29.4016 57.9459 30.2586 58.907 31.2418 59.6658 C 33.5873 61.4814 36.7033 62.144 39.6509 61.8138 C 42.5984 61.4835 45.3852 60.2245 47.8307 58.5448 C 46.927 59.4921 46.0247 60.4397 45.1219 61.3865 C 46.8608 59.9468 49.4228 60.035 51.3922 58.9333 C 53.4164 57.8004 54.5409 55.5983 55.7968 53.6492 C 57.2862 51.3406 59.0971 49.2505 60.5583 46.9254 C 62.0208 44.6007 63.1439 41.942 63.0338 39.1969 C 62.985 41.1932 61.803 43.1225 60.0438 44.0702 C 61.3873 40.387 62.688 36.1987 60.9595 32.6819 C 60.3562 31.4621 59.4294 30.4304 58.8 29.2272 C 58.238 28.1541 57.9223 26.9634 57.3401 25.8997 C 54.8795 21.4038 48.5017 20.3671 45.7717 16.0272 C 47.4356 18.42 51.6641 17.8471 53.1446 20.3578 C 52.4028 18.829 50.9586 17.7852 49.5729 16.8073 C 48.3804 15.9636 47.1679 15.1126 45.7931 14.6268 C 44.4192 14.1368 42.8326 14.0501 41.5365 14.7197 C 42.7345 16.0826 44.0682 17.3271 45.5132 18.4261 C 44.0695 18.8862 42.6595 17.7862 41.3605 17.008 C 36.4166 14.0487 31.5292 16.3875 26.5855 17.9359 C 25.6814 18.2102 24.7688 18.4971 23.9102 18.9025 " stroke-width="1.0000000069172275"/>
      <path id="ID0.06086314516142011" fill="#B0B0B0" d="M 23.5635 50.2999 C 22.9894 50.1651 22.4054 50.0223 21.8961 49.7751 C 21.379 49.527 20.8709 49.2446 20.471 48.8341 C 20.082 48.4333 19.8216 47.9293 19.555 47.4376 C 18.9655 46.3512 18.3303 45.288 17.6549 44.2528 C 18.0744 45.5564 18.3249 46.913 18.7805 48.2043 C 18.9754 48.7582 19.214 49.3081 19.6024 49.7472 C 19.9681 50.1617 20.4474 50.4565 20.8846 50.7934 C 21.8743 51.5587 22.7282 52.6024 23.9387 52.9214 C 24.4038 53.045 24.8925 53.0493 25.3672 53.1359 C 26.417 53.3307 27.4297 54.162 28.3481 54.6739 C 29.2314 55.1679 30.0793 55.7793 30.9454 56.2629 C 31.8637 56.7784 32.6878 56.7862 33.7397 56.9678 C 34.6547 57.124 35.5254 57.479 36.4396 57.6415 C 36.9445 57.7327 37.5821 57.8331 38.0699 57.672 C 38.6359 57.4848 39.0518 57.2498 39.6829 57.3401 C 40.0922 57.3984 40.5055 57.5598 40.91 57.4635 C 41.1295 57.4116 41.3235 57.2881 41.5139 57.1645 C 42.5732 56.4821 43.6332 55.7991 44.6245 55.0249 C 43.3392 54.9218 42.0498 54.8179 40.7628 54.7159 C 40.3882 54.6841 40.0134 54.6559 39.6379 54.6768 C 39.3049 54.6955 38.9674 54.7538 38.6367 54.7035 C 37.5028 54.5255 36.9094 53.1832 35.8347 52.7778 L 35.7236 52.717 C 35.6273 52.6159 35.7309 52.4527 35.8423 52.3652 C 36.5358 51.8065 37.5655 51.7072 38.3525 52.1225 C 38.9468 52.4342 39.4058 53.0027 40.0497 53.1819 C 40.2792 53.2445 40.5167 53.2546 40.7555 53.246 C 41.4936 53.2231 42.2247 53.0364 42.883 52.7075 C 43.6611 52.319 44.3245 51.7392 44.9791 51.1661 C 45.5501 50.6664 46.1131 50.154 46.6933 49.6651 C 47.1675 49.2648 47.6978 49.0103 48.165 48.5767 C 49.2818 47.5376 50.2892 46.3809 51.1619 45.1297 C 51.6197 44.4708 52.0595 43.7725 52.3488 43.0182 C 52.55 42.4943 52.5118 41.9426 52.613 41.3957 C 52.7416 40.6963 52.7352 39.9915 52.6311 39.2861 C 52.5777 38.9302 52.5006 38.5762 52.4098 38.2286 C 52.3477 37.9896 52.2866 37.4429 52.1176 37.2648 C 52.8564 38.0439 53.4634 38.9473 53.9098 39.9208 C 54.1246 40.3886 54.3005 40.8848 54.301 41.3977 C 54.2981 42.0302 54.0243 42.6299 53.7147 43.179 C 53.2504 44.0103 52.6906 44.7957 52.3405 45.6834 C 52.1009 46.2923 51.9551 46.9516 51.5675 47.4769 C 51.1628 48.0237 50.5451 48.3587 49.9854 48.7457 C 49.4241 49.1302 48.8786 49.6327 48.7553 50.3014 C 49.4733 49.5019 50.427 48.9163 51.4661 48.6343 C 51.8138 48.5399 52.1833 48.4742 52.4698 48.2539 C 52.661 48.1073 52.7988 47.9011 52.9316 47.6981 C 53.5115 46.8193 54.0935 45.9404 54.6729 45.0608 C 54.5235 45.8766 54.3727 46.6956 54.2228 47.5105 C 54.1837 47.7191 54.1805 47.9973 54.3795 48.0734 C 55.1519 46.8528 55.6774 45.4788 55.9221 44.0548 C 56.1766 42.5699 56.4206 41.2472 57.0552 39.8808 C 57.5724 38.7657 58.1656 37.4684 57.6543 36.2422 C 57.2058 35.1669 56.0564 34.579 55.2849 33.7057 C 53.1861 31.3242 54.1252 27.1658 51.8058 24.9982 C 50.4307 23.7148 48.3505 23.5807 46.6943 22.692 C 45.3917 21.9955 44.3666 20.8355 43.0196 20.2276 C 41.0199 19.3299 38.6995 19.7944 36.5585 20.2763 C 38.0442 20.1261 39.5497 20.1897 41.0185 20.4675 C 41.6123 20.5792 42.2297 20.741 42.6783 21.1478 C 43.5353 21.9264 43.3584 23.5408 42.352 24.1125 C 40.5924 21.45 37.0407 20.6522 33.848 20.6382 C 33.1048 20.6346 32.3419 20.665 31.65 20.9394 C 30.7297 21.3093 30.035 22.0727 29.2111 22.6184 C 28.3248 23.2074 27.296 23.5409 26.3707 24.0669 C 25.2031 24.7317 24.2292 25.6823 23.3066 26.6558 C 21.7555 28.2937 20.2569 30.1389 19.8492 32.3554 C 19.6119 33.6514 19.8914 35.2006 21.0243 35.8688 C 21.3944 36.0872 21.8661 36.2268 22.0429 36.6181 C 22.2257 37.0209 22.004 37.4808 21.8055 37.8786 C 20.2756 40.9207 19.1759 44.9608 21.8794 47.6592 C 23.2137 48.9922 24.9911 49.7659 26.7248 50.5141 C 25.9794 50.8924 25.0836 50.6861 24.2742 50.4723 C 24.046 50.4136 23.807 50.3583 23.5635 50.2999 " stroke-width="1.0000000069172275"/>
      <path id="ID0.7789751910604537" fill="#878787" d="M 13.0214 34.266 C 13.3539 33.4641 13.8827 32.7269 14.1727 31.9272 C 14.2046 31.8357 14.2261 31.7094 14.1385 31.6668 C 14.0757 31.6333 14.0016 31.6769 13.9435 31.7198 C 13.0581 32.3959 13.0728 33.259 13.0214 34.266 Z " stroke-width="1.0000000069172275"/>
      <path id="ID0.08306930540129542" fill="#878787" d="M 27.6025 17.3883 C 27.6945 16.1788 25.7052 16.8805 25.2734 17.3344 C 25.1392 17.4755 24.9085 17.7574 24.9657 17.9759 C 25.0729 18.3735 25.4832 17.9677 25.8115 17.9378 C 26.3244 17.8888 27.5356 18.2404 27.6025 17.3883 " stroke-width="1.0000000069172275"/>
      <path id="ID0.06779875792562962" fill="#878787" d="M 28.9246 17.9775 C 28.7658 18.1023 28.6553 18.29 28.63 18.4887 C 28.6225 18.5384 28.6236 18.5923 28.651 18.6353 C 28.6847 18.6921 28.759 18.71 28.8262 18.7206 C 29.1464 18.7693 29.4804 18.7298 29.7814 18.6105 C 29.9459 18.5449 30.1196 18.4285 30.1324 18.2531 C 30.1439 18.1072 30.0313 17.975 29.8971 17.9169 C 29.7618 17.8608 29.6101 17.8625 29.463 17.8755 C 29.0698 17.9077 29.2352 17.7336 28.9246 17.9775 " stroke-width="1.0000000069172275"/>
      <path id="ID0.9455316951498389" fill="#878787" d="M 49.5517 29.1187 C 49.6245 29.3059 49.6204 29.5136 49.6261 29.7162 C 49.6375 30.2388 49.7382 30.8124 50.1417 31.1447 L 50.243 31.194 C 50.301 31.1939 50.3464 31.146 50.3766 31.0948 C 50.5389 30.8338 50.5249 30.5026 50.4777 30.1995 C 50.3816 29.6052 50.1257 29.1007 49.9452 28.5376 C 49.7898 28.0568 49.6935 27.6262 49.1394 27.4466 C 48.8716 27.361 48.58 27.3759 48.3215 27.2678 C 48.0493 27.1566 47.8475 26.9234 47.655 26.701 C 47.0917 26.0413 46.5279 25.3807 45.9629 24.7221 C 46.0147 25.1704 46.2721 25.5673 46.5201 25.944 C 46.9369 26.5654 47.3658 27.2039 47.9865 27.6185 C 48.5734 28.0119 49.2835 28.4217 49.5517 29.1187 " stroke-width="1.0000000069172275"/>
      <path id="ID0.8967293533496559" fill="#878787" d="M 49.5428 53.783 C 49.6924 53.5301 49.7588 53.2378 49.8629 52.9617 C 50.2982 51.8372 51.4257 51.02 51.61 49.8288 C 51.2777 50.2193 50.9447 50.6126 50.6094 51.0038 C 50.2876 51.3828 49.9609 51.7673 49.7433 52.2152 C 49.5094 52.6912 49.4033 53.2305 49.1017 53.6655 C 48.7047 54.2393 48.0391 54.5456 47.4232 54.8723 C 47.1715 55.0076 46.9587 55.1929 46.7462 55.3767 C 46.5124 55.5812 46.2823 55.7822 46.003 55.9113 C 45.8517 55.9827 45.6725 56.0328 45.5143 55.9722 C 45.3866 55.9243 45.2947 55.8097 45.2158 55.6988 C 45.0424 55.4654 44.8861 55.2199 44.7448 54.9661 C 44.7176 54.9123 44.6877 54.8578 44.6357 54.8245 C 44.4908 54.7235 44.2996 54.8571 44.1738 54.9834 C 44.3114 55.3189 44.4601 55.6736 44.7486 55.8977 C 44.8943 56.0112 45.073 56.0872 45.1901 56.2283 C 45.2789 56.3343 45.3281 56.4712 45.4388 56.5502 C 45.6465 56.6977 45.9322 56.5692 46.1487 56.4326 C 46.801 56.0234 47.3319 55.5409 47.8853 55.0322 C 48.0899 54.8452 48.3335 54.7102 48.5753 54.5742 C 48.9472 54.3707 49.3122 54.1657 49.5428 53.783 " stroke-width="1.0000000069172275"/>
      <path id="ID0.15125313634052873" fill="#878787" d="M 47.0308 50.4115 C 46.9507 51.1405 46.907 52.4687 46.1834 52.8925 C 46.121 52.9286 46.0307 52.9505 45.9892 52.8928 L 45.9742 52.8004 C 46.0013 52.45 46.2316 52.2774 46.4315 52.0233 C 46.6713 51.7166 46.7654 51.2964 46.6756 50.915 C 46.6286 50.722 46.541 50.5396 46.4895 50.3507 C 46.44 50.1593 46.4322 49.9403 46.5395 49.7736 C 46.5753 49.72 46.6229 49.6719 46.6851 49.656 C 46.7498 49.6421 46.8177 49.6688 46.8707 49.711 C 47.0677 49.8642 47.0597 50.1608 47.0308 50.4115 " stroke-width="1.0000000069172275"/>
      <path id="ID0.5474047465249896" fill="#878787" d="M 35.3987 40.9921 C 35.8745 40.5981 36.6523 40.4811 36.5929 39.7117 L 36.5647 39.6301 L 36.4795 39.6061 C 36.2746 39.6156 36.1113 39.7764 35.988 39.9402 C 35.5013 40.576 35.0045 41.1849 34.072 40.8502 C 34.014 40.8279 33.9571 40.8037 33.8951 40.8087 C 33.7509 40.8187 33.6638 41.0022 33.7166 41.1392 C 33.7706 41.2744 33.9188 41.3508 34.063 41.3669 C 34.2083 41.381 34.352 41.3441 34.4939 41.3119 C 34.9243 41.2134 35.031 41.2973 35.3987 40.9921 Z " stroke-width="1.0000000069172275"/>
      <path id="ID0.8588782614096999" fill="#878787" d="M 33.1502 35.483 C 33.6396 35.6113 33.2502 37.0669 33.1207 37.3141 C 33.095 37.3613 33.0682 37.4104 33.0243 37.4383 C 32.9279 37.4973 32.7964 37.4304 32.7282 37.3399 C 32.5738 37.1347 32.6065 36.8507 32.6474 36.5983 C 32.6984 36.2707 32.6582 35.6692 33.0157 35.5045 C 33.058 35.4835 33.1052 35.4701 33.1502 35.483 Z " stroke-width="1.0000000069172275"/>
      <path id="ID0.4822370004840195" fill="#878787" d="M 34.3325 36.1078 C 34.4106 36.1281 34.4725 36.0484 34.5087 35.9768 C 34.8593 35.2724 34.6966 33.8172 33.615 33.997 C 34.0337 33.9285 34.3384 35.8303 34.3325 36.1078 Z " stroke-width="1.0000000069172275"/>
      <path id="ID0.22765630669891834" fill="#878787" d="M 51.1409 40.0046 C 50.9686 40.2387 50.8603 40.521 50.8355 40.8117 C 50.8289 40.874 50.8294 40.9437 50.8759 40.9852 L 50.9816 41.0246 C 51.5835 41.0967 52.2546 40.3875 52.0787 39.787 C 52.021 39.5902 51.8541 39.4191 51.6503 39.397 C 51.2042 39.3479 51.302 39.7847 51.1409 40.0046 Z " stroke-width="1.0000000069172275"/>
      <path id="ID0.6500831982120872" fill="#999998" d="M 51.0725 52.9161 C 50.9831 53.3642 50.8824 53.8076 50.6072 54.1629 C 50.3802 54.4544 50.06 54.6534 49.7568 54.8606 C 49.0259 55.353 48.3106 55.9742 48.077 56.8234 C 49.0356 56.0201 49.9953 55.2149 50.9537 54.4094 C 51.3562 54.0715 51.8846 53.747 52.1494 53.2952 C 52.4252 52.8233 52.5998 52.2595 52.806 51.7548 C 53.0344 51.1898 53.3591 50.7948 53.6924 50.2922 C 53.8148 50.1065 53.9366 49.8713 53.8311 49.6777 C 53.7494 49.527 53.5528 49.4695 53.3829 49.5042 C 53.2146 49.5378 53.0719 49.6452 52.9425 49.7584 C 52.1691 50.4355 51.4727 51.3043 51.2066 52.3092 C 51.1514 52.5056 51.1118 52.7133 51.0725 52.9161 " stroke-width="1.0000000069172275"/>
      <path id="ID0.9915745845064521" fill="#999998" d="M 20.3333 36.5598 C 20.0888 36.0659 19.7142 35.6298 19.4522 35.1363 C 19.1689 34.5924 18.9248 34.0282 18.7316 33.4471 C 18.5393 34.0911 18.348 34.7758 18.5209 35.4256 C 18.6131 35.7735 18.8046 36.0855 18.9221 36.4267 C 19.0812 36.8944 19.0918 37.414 18.9516 37.8884 C 18.8596 38.1983 18.7084 38.4841 18.5999 38.7867 C 18.2016 39.9043 18.4197 41.1334 18.6397 42.2949 C 18.7173 41.398 18.8313 40.4578 19.3572 39.7271 C 19.6536 39.3157 20.0675 38.9918 20.3207 38.5497 C 20.6673 37.9451 20.6398 37.1755 20.3333 36.5598 " stroke-width="1.0000000069172275"/>
      <path id="ID0.8026054976508021" fill="#999998" d="M 30.0459 20.8662 C 30.1544 20.8114 30.2342 20.7617 30.2738 20.6488 C 29.5881 20.6739 28.4873 20.7771 27.8989 21.1693 C 27.1733 21.6513 26.6738 22.6638 26.321 23.43 C 27.4943 22.4557 28.673 21.5586 30.0459 20.8662 " stroke-width="1.0000000069172275"/>
      <path id="ID0.0178139409981668" fill="#949494" d="M 22.5249 29.8286 C 22.3071 30.5741 22.1913 31.3531 21.8711 32.0607 C 22.2328 31.1335 22.6531 30.1939 23.3943 29.5278 C 23.8007 29.1625 24.2888 28.8957 24.685 28.518 C 25.0989 28.1217 25.243 27.6851 25.5126 27.2184 C 25.8513 26.633 26.4579 26.1036 26.9045 25.5929 C 26.8038 25.7103 26.3654 25.7795 26.2131 25.8456 C 25.9628 25.9516 25.7214 26.0732 25.4866 26.2072 C 25.0174 26.4774 24.5791 26.8002 24.1815 27.1682 C 23.3645 27.9276 22.8343 28.7688 22.5249 29.8286 " stroke-width="1.0000000069172275"/>
      <path id="ID0.49640776962041855" fill="#706F6F" d="M 59.2113 33.4887 C 59.0964 32.2129 58.3886 31.0821 57.7496 29.9739 C 57.3817 29.338 57.022 28.6779 56.8077 27.9704 C 56.5916 27.2639 56.5601 26.5775 56.1688 25.9198 C 55.9941 25.6267 55.7305 25.3298 55.3894 25.3359 C 55.0076 25.343 54.7345 25.7539 54.7366 26.1354 C 54.7382 26.516 54.9361 26.8678 55.1325 27.1933 C 55.4592 27.7439 55.6999 28.3399 56.0154 28.8823 C 56.4397 29.6104 56.9874 30.3594 57.4928 31.0287 C 58.0949 31.8368 58.9003 32.4953 59.2113 33.4887 Z " stroke-width="1.0000000069172275"/>
      <path id="ID0.6057176026515663" fill="#706F6F" d="M 40.7947 60.2809 C 38.5372 60.5928 36.1645 59.6622 33.9735 59.2833 C 35.8342 61.1882 38.4201 60.5653 40.7947 60.2809 " stroke-width="1.0000000069172275"/>
      <path id="ID0.8658094857819378" fill="#F8F8F8" d="M 54.0704 16.8005 C 54.4866 17.3594 54.9473 17.8877 55.4294 18.3975 C 55.43 18.3984 55.431 18.4001 55.4338 18.4007 C 54.9495 17.8875 54.486 17.3622 54.0704 16.8005 M 54.051 16.7773 C 54.058 16.7847 54.0623 16.7914 54.0661 16.7973 C 54.0623 16.7914 54.058 16.7847 54.051 16.7773 M 54.0305 16.7489 C 54.0337 16.7539 54.0369 16.759 54.0401 16.764 C 54.0369 16.759 54.0337 16.7539 54.0305 16.7489 M 54.0089 16.7187 C 54.0111 16.7221 54.0132 16.7255 54.0154 16.7288 C 54.0127 16.7246 54.0111 16.7221 54.0089 16.7187 M 15.1803 24.712 C 15.1679 24.7353 15.1519 24.7585 15.1395 24.7818 C 15.1254 24.8062 15.1099 24.8303 15.0969 24.8528 L 15.0969 24.8528 C 15.1223 24.807 15.1524 24.7594 15.1803 24.712 M 15.6363 23.9738 C 15.6222 23.9981 15.6056 24.0205 15.5909 24.0441 C 15.6064 24.02 15.6211 23.9965 15.6363 23.9738 M 15.6472 23.9573 C 15.6432 23.9622 15.6409 23.9661 15.638 23.9727 C 15.6409 23.9661 15.6432 23.9622 15.6472 23.9573 M 27.7259 14.3582 C 27.7276 14.3571 27.7276 14.3571 27.7276 14.3571 L 27.7276 14.3571 C 27.7276 14.3571 27.7276 14.3571 27.7259 14.3582 M 27.5848 14.4456 C 27.5938 14.4411 27.6022 14.4358 27.6087 14.4328 C 27.5997 14.4374 27.5913 14.4427 27.5848 14.4456 L 27.5848 14.4456 M 28.3129 13.9432 L 28.3129 13.9432 C 28.3112 13.9443 28.3095 13.9453 28.3067 13.9483 C 28.3016 13.9515 28.2949 13.9558 28.29 13.9613 C 28.1149 14.0941 27.9366 14.2218 27.751 14.3399 C 27.9456 14.2172 28.1307 14.0816 28.3129 13.9432 M 20.3251 18.6557 C 18.5437 20.1534 16.9801 21.9189 15.7249 23.8355 C 16.9801 21.9189 18.5442 20.1542 20.3251 18.6557 " stroke-width="1.0000000069172275"/>
      <path id="ID0.6319888099096715" d="M 15.0974 24.8536 L 15.0974 24.8536 L 15.0974 24.8536 L 15.0974 24.8536 L 15.0974 24.8536 L 15.0974 24.8536 M 15.2014 24.6761 C 15.1809 24.7128 15.1588 24.747 15.14 24.7827 C 15.1524 24.7594 15.1685 24.7361 15.1809 24.7128 C 15.1884 24.6986 15.1936 24.6881 15.2014 24.6761 M 15.2485 24.5975 C 15.2356 24.6199 15.2212 24.6421 15.2083 24.6646 C 15.2212 24.6421 15.2356 24.6199 15.2485 24.5975 M 31.7286 12.2197 C 31.7618 12.2141 31.7938 12.2067 31.8306 12.2011 C 32.1605 12.144 32.5052 12.112 32.8269 12.2059 C 33.0828 12.2801 33.314 12.4329 33.5738 12.5022 C 34.1241 12.6498 34.6903 12.4164 35.2348 12.2606 C 36.1774 11.9891 37.1839 11.9483 38.1477 12.1422 C 38.4919 12.21 38.8404 12.3106 39.1863 12.2469 C 40.238 12.0517 40.7749 11.7966 41.8701 11.9566 C 43.5244 12.1981 45.0339 12.6907 46.612 13.2166 C 47.2655 13.4313 47.9311 13.6596 48.4631 14.0951 C 48.5035 14.1251 48.5386 14.1596 48.5762 14.1926 C 48.5386 14.1596 48.5035 14.1251 48.4631 14.0951 C 47.9311 13.6596 47.266 13.4322 46.612 13.2166 C 45.0322 12.6917 43.5208 12.198 41.8701 11.9566 C 40.7738 11.7949 40.238 12.0517 39.1863 12.2469 C 38.8421 12.3095 38.493 12.2117 38.1477 12.1422 C 37.1856 11.9473 36.1774 11.9891 35.2348 12.2606 C 34.6903 12.4164 34.1214 12.6492 33.5738 12.5022 C 33.3145 12.4337 33.0833 12.281 32.8269 12.2059 C 32.5052 12.112 32.1605 12.144 31.8306 12.2011 C 31.7958 12.2079 31.7623 12.2149 31.7286 12.2197 M 31.6136 12.242 C 31.6523 12.2339 31.6894 12.227 31.7286 12.2197 C 31.6904 12.2286 31.6523 12.2339 31.6136 12.242 M 31.4901 12.2696 C 31.4979 12.267 31.5063 12.2652 31.5121 12.2651 C 31.5055 12.2658 31.4971 12.2675 31.4901 12.2696 M 28.3092 13.9467 C 28.3024 13.951 28.2957 13.9553 28.2926 13.9597 C 28.2957 13.9553 28.3024 13.951 28.3092 13.9467 M 28.5055 13.7969 C 28.4417 13.8458 28.378 13.8946 28.3143 13.9435 L 28.3159 13.9424 C 28.3766 13.8943 28.4417 13.8458 28.5055 13.7969 M 29.2758 13.2249 L 29.2758 13.2249 L 29.2758 13.2249 L 29.2758 13.2249 L 29.2758 13.2249 L 29.2758 13.2249 L 29.2758 13.2249 M 29.408 13.1384 C 29.3852 13.1529 29.3633 13.1668 29.3427 13.1811 C 29.3633 13.1668 29.3852 13.1529 29.408 13.1384 M 29.408 13.1384 L 29.408 13.1384 C 29.4164 13.133 29.4249 13.1276 29.4325 13.1228 C 29.4223 13.1292 29.4164 13.133 29.408 13.1384 M 25.9828 15.1748 L 25.9828 15.1748 C 26.5252 14.9505 27.0799 14.7456 27.5818 14.4464 L 27.5818 14.4464 L 27.5818 14.4464 L 27.5818 14.4464 C 27.0802 14.7442 26.5272 14.9481 25.9828 15.1748 L 25.9828 15.1748 M 22.7665 16.8614 C 19.7093 18.8094 17.086 21.5339 15.2497 24.5955 C 15.3604 24.4101 15.4741 24.2275 15.5915 24.0449 C 15.6061 24.0214 15.6222 23.9981 15.6363 23.9738 C 15.6363 23.9738 15.6363 23.9738 15.638 23.9727 C 15.6414 23.9669 15.6432 23.9622 15.6472 23.9573 C 15.6727 23.9174 15.7005 23.8772 15.7255 23.8364 C 16.9801 21.9189 18.5431 20.1525 20.3251 18.6557 C 21.1002 18.0036 21.9161 17.4026 22.7665 16.8614 M 22.7794 16.852 L 22.7794 16.852 C 22.7794 16.852 22.7811 16.8509 22.7828 16.8498 C 22.7811 16.8509 22.7794 16.852 22.7794 16.852 " stroke-width="1.0000000069172275" fill="undefined"/>
      <path id="ID0.084318230394274" fill="#585857" d="M 22.7233 21.2711 C 22.7913 21.4115 22.8658 21.549 22.9539 21.6707 C 22.998 21.5182 22.9873 21.3674 22.8729 21.2529 C 22.8229 21.2563 22.7732 21.2619 22.7233 21.2711 M 22.7794 16.852 C 22.7744 16.8552 22.7715 16.8582 22.7665 16.8614 C 21.9161 17.4026 21.0994 18.0042 20.3251 18.6557 C 18.5442 20.1542 16.9801 21.9189 15.7249 23.8355 C 15.6999 23.8763 15.6727 23.9174 15.6472 23.9573 C 15.6432 23.9622 15.6409 23.9661 15.638 23.9727 C 15.638 23.9727 15.638 23.9727 15.6363 23.9738 C 15.6222 23.9981 15.6056 24.0205 15.5909 24.0441 C 15.4741 24.2275 15.361 24.4109 15.2491 24.5947 C 15.2497 24.5955 15.2485 24.5975 15.2485 24.5975 C 15.2356 24.6199 15.2207 24.6413 15.2083 24.6646 C 15.206 24.6684 15.2037 24.6722 15.2014 24.6761 C 15.1928 24.6887 15.1884 24.6986 15.1803 24.712 C 15.1519 24.7585 15.1245 24.8068 15.0974 24.8536 L 15.0974 24.8536 L 15.0974 24.8536 C 14.946 25.1148 14.8096 25.3829 14.6647 25.6506 C 15.0001 26.159 15.3031 26.6762 15.3745 27.2744 C 15.451 27.944 15.2191 28.6096 15.1749 29.2814 C 15.1655 29.4083 15.166 29.5395 15.1785 29.669 C 15.3435 29.4254 15.5092 29.1847 15.6753 28.9428 C 15.5646 29.4375 15.4725 29.9371 15.3997 30.4374 C 15.5321 30.6827 15.728 30.8769 15.9933 30.9735 C 16.0746 31.0024 16.1557 31.0219 16.2385 31.0309 C 16.7894 30.0639 17.398 29.0981 17.8521 28.0943 C 17.8126 28.1812 17.767 28.2362 17.7172 28.2679 C 17.4667 28.4274 17.1397 27.9136 17.1473 27.6965 C 17.1654 27.3022 17.8339 26.7191 18.2408 26.3582 C 18.0993 26.3297 17.9689 26.2811 17.8687 26.1778 C 17.5046 25.7919 17.916 24.9576 18.1805 24.6115 C 18.2733 24.4872 18.3968 24.3908 18.5284 24.307 C 18.6221 24.2474 18.7248 24.1928 18.8249 24.1397 C 18.9251 24.0866 19.0256 24.0321 19.1192 23.9725 C 19.2677 23.878 19.3998 23.7691 19.4939 23.6226 C 19.5058 23.6021 19.5173 23.5829 19.5282 23.5629 C 19.5136 23.5734 19.5026 23.5804 19.4874 23.59 C 19.1365 23.8134 18.7627 23.9636 18.3368 23.9798 C 18.4528 23.2682 19.0077 22.7171 19.534 22.2198 C 19.726 22.0372 19.9193 21.8548 20.1168 21.6734 C 20.3587 21.3085 20.6694 20.9697 20.9708 20.6499 C 21.0814 20.5332 21.1972 20.4134 21.333 20.3269 C 21.4174 20.2732 21.5056 20.2349 21.6063 20.2181 C 21.6742 20.2093 21.7399 20.2102 21.8054 20.2218 C 22.1264 19.9737 22.4557 19.7368 22.7966 19.5199 C 23.0682 19.347 23.3491 19.1849 23.6377 19.0368 C 23.7322 18.9897 23.8236 18.9434 23.9183 18.8985 C 24.7422 18.5093 25.6144 18.2315 26.4866 17.9574 C 26.2336 17.9454 25.9909 17.9161 25.8205 17.9333 C 25.4955 17.9646 25.0824 18.3698 24.9769 17.9711 C 24.9171 17.7543 25.149 17.4704 25.2824 17.3298 C 25.3346 17.2741 25.413 17.2147 25.5049 17.1562 C 26.1706 16.7326 27.6928 16.3233 27.6106 17.3843 C 27.6024 17.4737 27.5858 17.5483 27.5547 17.6131 C 32.174 16.0933 36.7457 14.2268 41.3708 16.9943 C 42.1074 17.4347 42.8763 17.9778 43.6676 18.2826 C 43.6949 18.0424 43.7405 17.8048 43.8169 17.5747 C 43.8647 17.4282 43.925 17.2902 43.9947 17.1594 C 43.1282 16.3939 42.3101 15.574 41.5451 14.7036 C 42.8413 14.0339 44.4259 14.1231 45.8018 14.6106 C 46.3255 14.7965 46.8245 15.0348 47.3089 15.3062 C 47.3972 15.3033 47.4871 15.303 47.5783 15.303 C 49.1453 15.3346 50.6145 16.0247 52.0248 16.7096 C 53.166 17.2623 54.2997 17.8257 55.4365 18.3919 C 54.9555 17.8801 54.4931 17.3529 54.0775 16.7948 C 54.077 16.7939 54.0759 16.7923 54.0753 16.7914 C 54.0705 16.7838 54.0645 16.7782 54.0597 16.7706 C 54.0565 16.7655 54.0521 16.7624 54.0484 16.7564 C 54.0451 16.7514 54.0419 16.7463 54.0381 16.7404 C 54.0322 16.7347 54.0273 16.7271 54.0236 16.7212 C 54.0214 16.7179 54.0193 16.7145 54.0154 16.7122 C 54.0074 16.6995 53.9998 16.6913 53.9928 16.6804 L 53.9928 16.6804 C 53.7883 16.3981 53.5831 16.1055 53.2863 15.9222 C 53.0489 15.7745 52.7692 15.7095 52.4959 15.6488 C 51.7936 15.4877 51.0906 15.3293 50.3869 15.1679 L 50.3869 15.1679 C 50.0029 15.0804 49.6082 14.9891 49.2737 14.7764 C 49.02 14.6143 48.8114 14.389 48.5855 14.1867 C 48.5473 14.1529 48.5111 14.1202 48.4724 14.0892 C 47.9393 13.6556 47.2742 13.4282 46.6202 13.2126 C 45.0409 12.685 43.5295 12.1949 41.8793 11.9507 C 40.7831 11.789 40.2461 12.0478 39.1961 12.2418 C 38.8519 12.3044 38.5 12.206 38.1558 12.1382 C 37.1953 11.9458 36.1883 11.9857 35.2443 12.257 C 34.6986 12.4146 34.1319 12.6472 33.5833 12.4985 C 33.3229 12.4284 33.0923 12.2765 32.8337 12.2016 C 32.5119 12.1077 32.1684 12.1378 31.8368 12.196 C 31.8042 12.2025 31.7716 12.209 31.7371 12.2144 L 31.7354 12.2155 C 31.6978 12.2216 31.6602 12.2313 31.6203 12.2377 C 31.5878 12.2442 31.5557 12.2516 31.5206 12.2597 C 31.5122 12.2615 31.5038 12.2632 31.4963 12.2645 C 30.7707 12.4299 30.071 12.72 29.4401 13.118 C 29.4316 13.1233 29.4232 13.1287 29.4173 13.1325 L 29.4173 13.1325 C 29.3945 13.147 29.3726 13.1609 29.3503 13.1763 C 29.3292 13.1897 29.3056 13.2047 29.2851 13.219 L 29.2851 13.219 L 29.2851 13.219 L 29.2851 13.219 L 29.2851 13.219 C 29.0194 13.3975 28.7664 13.5941 28.5137 13.7893 C 28.4505 13.839 28.3884 13.8868 28.3242 13.9348 C 28.1414 14.076 27.9546 14.2091 27.7617 14.3343 C 27.7532 14.3396 27.7448 14.345 27.7372 14.3498 L 27.7372 14.3498 L 27.7372 14.3498 L 27.7355 14.3509 C 27.7144 14.3643 27.6891 14.3805 27.6658 14.3941 L 27.6658 14.3941 C 27.6484 14.404 27.6341 14.4131 27.6172 14.4239 C 27.6087 14.4292 27.6003 14.4346 27.5939 14.4375 L 27.5939 14.4375 C 27.0888 14.7353 26.5357 14.9391 25.9944 15.165 L 25.9944 15.165 C 24.8871 15.6267 23.8152 16.1904 22.7918 16.8417 C 22.7811 16.8509 22.7794 16.852 22.7794 16.852 " stroke-width="1.0000000069172275"/>
      <path id="ID0.9108041124418378" fill="#90908F" d="M 41.5381 14.7092 C 42.3019 15.5779 43.119 16.3962 43.9866 17.1633 C 44.2435 16.6786 44.637 16.28 45.1086 15.9799 C 45.7497 15.5718 46.5327 15.3438 47.2996 15.3121 C 46.8149 15.0421 46.3153 14.8029 45.7925 14.6165 C 44.4197 14.1282 42.8351 14.0391 41.5381 14.7092 M 15.6744 28.9469 C 15.5067 29.1864 15.3421 29.4286 15.1771 29.6723 C 15.2016 29.9436 15.2729 30.2159 15.3979 30.4421 C 15.471 29.9404 15.5623 29.4414 15.6744 28.9469 M 18.2348 26.362 C 17.828 26.7229 17.1601 27.3068 17.1437 27.7001 C 17.1349 27.919 17.4613 28.432 17.7135 28.2714 C 17.7616 28.2408 17.8077 28.1866 17.8479 28.097 C 17.3927 29.1027 16.7882 30.0694 16.2343 31.0336 C 16.661 31.082 17.1034 30.887 17.4979 30.6798 C 17.7358 30.5545 17.9747 30.4214 18.2025 30.2764 C 18.7989 29.8968 19.3329 29.4302 19.6111 28.7908 C 19.998 27.9069 19.6273 26.6445 18.6863 26.4362 C 18.5433 26.4015 18.384 26.3915 18.2348 26.362 M 20.1103 21.6764 C 19.9134 21.8586 19.7223 22.0407 19.527 22.2218 C 19.0002 22.7183 18.4453 23.2694 18.3303 23.9827 C 18.7543 23.9653 19.1289 23.8146 19.4799 23.5913 C 19.4951 23.5816 19.5077 23.5735 19.5212 23.565 C 19.6316 23.3454 19.6225 23.0797 19.6494 22.8314 C 19.6986 22.4114 19.8723 22.0306 20.1103 21.6764 M 29.9306 18.5357 C 29.8842 18.5652 29.831 18.5896 29.7809 18.6096 C 29.4799 18.7289 29.1458 18.7684 28.8239 18.7208 C 28.7568 18.7102 28.6842 18.6912 28.6488 18.6355 C 28.6214 18.5925 28.6217 18.539 28.6286 18.4884 C 28.6564 18.2881 28.7633 18.1003 28.9232 17.9772 C 28.9814 17.9308 29.0239 17.8989 29.0568 17.878 C 29.1901 17.7932 29.1432 17.9001 29.4625 17.8747 C 29.6084 17.86 29.7602 17.8582 29.8966 17.9161 C 30.0307 17.9741 30.1425 18.1069 30.1319 18.2523 C 30.1221 18.3747 30.0377 18.4675 29.9306 18.5357 M 22.7893 19.5234 C 22.4484 19.7403 22.118 19.9755 21.7976 20.2244 C 22.1065 20.2815 22.3699 20.5667 22.524 20.861 C 22.5944 20.994 22.6571 21.1354 22.7235 21.2733 C 22.7739 21.2649 22.8232 21.2585 22.8729 21.2529 C 22.9873 21.3674 22.9997 21.5172 22.9539 21.6707 C 23.0095 21.7468 23.0732 21.8153 23.1463 21.8743 C 23.4781 22.1479 23.9571 22.1797 24.3801 22.0919 C 24.8008 22.0043 25.1939 21.8098 25.6067 21.6763 C 25.7176 21.6401 25.8467 21.6101 25.9495 21.6691 C 26.0662 21.7371 26.0984 21.8956 26.1914 21.9952 C 26.2741 22.0861 26.4015 22.1223 26.5 22.1971 C 26.6428 22.3078 26.7018 22.4918 26.6907 22.6755 C 27.0027 22.0929 27.396 21.506 27.8972 21.174 C 27.9051 21.1678 27.9135 21.1624 27.9194 21.1586 C 28.5125 20.7812 29.5957 20.6785 30.2732 20.6516 C 30.246 20.7317 30.1953 20.7806 30.1312 20.8214 C 30.105 20.838 30.0773 20.8522 30.0436 20.87 C 29.6132 21.0859 29.2031 21.3243 28.8057 21.5772 C 27.9343 22.1319 27.1257 22.7649 26.3173 23.4335 C 26.3449 23.3745 26.3717 23.316 26.4021 23.2539 C 26.3241 23.3344 26.2388 23.4088 26.1543 23.4792 C 25.968 23.6297 25.761 23.7923 25.7149 24.0291 C 25.694 24.1491 25.7156 24.2705 25.7545 24.3856 C 25.7607 24.4065 25.7669 24.4275 25.7748 24.4473 C 25.8576 24.3911 25.9383 24.3373 26.0227 24.2836 C 26.1366 24.2112 26.2521 24.1412 26.3711 24.0749 C 27.2615 23.5687 28.2489 23.239 29.1128 22.6892 C 29.1457 22.6683 29.1786 22.6474 29.2115 22.6264 C 29.8272 22.2156 30.3739 21.6851 30.9956 21.2894 C 31.1441 21.195 31.2952 21.1083 31.4507 21.0342 C 31.2773 20.9218 31.1252 20.7815 30.9696 20.5687 C 30.662 20.1469 30.3082 19.7474 30.2515 19.2039 C 30.1892 18.6105 30.5406 18.0787 31.046 17.7571 C 31.4155 17.5219 31.8672 17.3992 32.2989 17.4481 C 33.3243 17.5636 34.1513 18.3732 34.6435 19.2808 C 34.9081 19.7691 35.1041 20.2987 35.4596 20.7232 C 36.5756 20.8284 37.6879 21.0451 38.7174 21.4188 C 38.6759 21.2437 38.6314 21.0693 38.6512 20.8919 L 38.6958 20.7664 C 38.7055 20.7555 38.7153 20.7468 38.7288 20.7382 C 38.7651 20.7151 38.8089 20.7039 38.8493 20.6947 C 39.0121 20.6599 39.2287 20.6501 39.2897 20.8056 C 39.3082 20.8496 39.3075 20.8987 39.3065 20.9455 C 39.2957 21.1764 39.2498 21.4059 39.2602 21.6364 C 39.9771 21.9471 40.6424 22.3462 41.2208 22.8434 C 41.5971 22.7474 41.964 22.5957 42.2896 22.3884 C 42.5866 22.1994 42.8487 21.965 43.055 21.682 C 42.9652 21.4832 42.8392 21.3038 42.6748 21.1535 C 42.2263 20.7468 41.6099 20.5866 41.0151 20.4733 C 39.5473 20.1972 38.0407 20.1319 36.5561 20.2837 C 38.6958 19.8015 41.0156 19.3362 43.0178 20.2359 C 43.1928 20.3154 43.3662 20.4053 43.5339 20.5013 C 43.653 19.7831 43.5743 19.0188 43.6578 18.2876 C 42.8659 17.982 42.0971 17.4389 41.3615 17.0002 C 36.737 14.2336 32.1653 16.1 27.5454 17.619 C 27.5035 17.7132 27.4349 17.7842 27.3564 17.8341 C 27.1354 17.9748 26.7977 17.9787 26.4762 17.9616 C 25.6046 18.2366 24.7318 18.5135 23.9079 18.9027 C 23.8132 18.9476 23.721 18.9944 23.6278 19.0418 C 23.3415 19.1861 23.0609 19.3505 22.7893 19.5234 " stroke-width="1.0000000069172275"/>
      <path id="ID0.449022117536515" fill="#ABABAA" d="M 39.2611 21.6323 C 39.2624 21.6492 39.2621 21.6636 39.2642 21.68 C 39.3253 22.5657 40.1859 23.0481 40.9937 22.8908 C 41.0717 22.8755 41.1475 22.8605 41.2248 22.8385 C 40.6423 22.3404 39.9777 21.9443 39.2611 21.6323 M 36.5581 20.2813 C 38.0432 20.1303 39.5488 20.1939 41.0171 20.4708 C 41.6114 20.5833 42.2288 20.7451 42.6757 21.153 C 42.8431 21.3025 42.9671 21.4843 43.057 21.6796 C 43.1724 21.5256 43.2698 21.3545 43.3474 21.1711 C 43.4378 20.9536 43.4969 20.7299 43.5337 20.499 C 43.366 20.4031 43.1953 20.3138 43.0181 20.2345 C 41.0179 19.3324 38.6991 19.7994 36.5581 20.2813 M 35.4597 20.7196 C 35.4651 20.7244 35.4683 20.7295 35.4738 20.7343 C 35.8722 21.2002 36.4525 21.5812 37.0145 21.8198 C 37.4054 21.9871 38.0996 22.5433 38.5304 22.3094 C 38.5399 22.3058 38.5484 22.3004 38.5543 22.2966 C 38.7567 22.1678 38.8001 21.8782 38.7644 21.6378 C 38.7523 21.5649 38.7356 21.4902 38.7186 21.4168 C 37.6885 21.0424 36.5757 20.8248 35.4597 20.7196 M 26.0233 24.2809 C 25.9389 24.3346 25.8582 24.3883 25.776 24.4454 C 25.9874 25.0067 26.532 25.408 27.1172 25.5453 C 27.7256 25.6891 28.3672 25.5854 28.9575 25.3768 C 29.3072 25.2539 29.6488 25.0922 30.0162 25.0326 C 30.3177 24.9829 30.6302 25.0046 30.9277 24.9338 C 31.0855 24.8949 31.2361 24.8299 31.3745 24.7418 C 31.6023 24.5969 31.7911 24.3926 31.9119 24.1521 C 32.0428 23.8922 32.0948 23.5995 32.229 23.341 C 32.4483 22.9182 32.8922 22.5467 32.8168 22.0744 C 32.7602 21.7228 32.4243 21.4873 32.0985 21.3462 C 31.8417 21.237 31.6353 21.1491 31.453 21.0303 C 31.2933 21.1071 31.1417 21.193 30.9957 21.2858 C 30.3748 21.681 29.8303 22.2112 29.2116 22.6228 C 29.1792 22.6446 29.1463 22.6655 29.1134 22.6865 C 28.2504 23.2357 27.2624 23.5646 26.3712 24.0713 C 26.2518 24.139 26.1372 24.2084 26.0233 24.2809 " stroke-width="1.0000000069172275"/>
      <path id="ID0.16697180224582553" fill="#848483" d="M 25.4946 17.1604 C 25.4026 17.2189 25.327 17.2789 25.2742 17.3338 C 25.1409 17.4744 24.9093 17.7569 24.9665 17.9753 C 25.0743 18.3738 25.4858 17.9661 25.8118 17.9364 C 25.9792 17.92 26.2221 17.9479 26.4768 17.9625 C 26.7987 17.9804 27.1348 17.9739 27.3559 17.8333 C 27.4369 17.7817 27.5021 17.7129 27.5449 17.6181 C 27.576 17.5533 27.5942 17.4777 27.6025 17.3883 C 27.6825 16.3275 26.1602 16.7368 25.4946 17.1604 " stroke-width="1.0000000069172275"/>
      <path id="ID0.6733169793151319" fill="#848483" d="M 29.0582 17.8783 C 29.0253 17.8992 28.9828 17.9311 28.9246 17.9775 C 28.7658 18.1023 28.6553 18.29 28.63 18.4887 C 28.6225 18.5384 28.6236 18.5923 28.651 18.6353 C 28.6847 18.6921 28.759 18.71 28.8262 18.7206 C 29.1464 18.7693 29.4804 18.7298 29.7814 18.6105 C 29.8343 18.5911 29.8847 18.5661 29.9328 18.5355 C 30.0383 18.4684 30.1249 18.3753 30.1324 18.2531 C 30.1439 18.1072 30.0313 17.975 29.8971 17.9169 C 29.7618 17.8608 29.6101 17.8625 29.463 17.8755 C 29.1451 17.9012 29.1915 17.7935 29.0582 17.8783 " stroke-width="1.0000000069172275"/>
      <path id="ID0.19748767651617527" fill="#949494" d="M 27.9192 21.1564 C 27.9107 21.1618 27.904 21.1661 27.8964 21.1709 C 27.395 21.5043 27.0019 22.0899 26.6894 22.6716 C 26.6847 22.7481 26.6679 22.824 26.6409 22.8933 C 26.5878 23.0279 26.5024 23.1451 26.4017 23.2495 C 26.3712 23.3115 26.345 23.3709 26.3174 23.4299 C 27.1247 22.7596 27.9329 22.1279 28.8053 21.5728 C 29.2026 21.3199 29.6138 21.0831 30.0448 20.8645 C 30.0765 20.8491 30.1037 20.8341 30.1324 20.8159 C 30.1948 20.7761 30.2455 20.7273 30.2738 20.6488 C 29.5972 20.6752 28.5139 20.7779 27.9192 21.1564 " stroke-width="1.0000000069172275"/>
      <path id="ID0.07347159739583731" fill="#90908F" d="M 20.5415 35.4826 C 20.423 35.7844 20.3276 36.0964 20.2565 36.4131 C 20.2844 36.4606 20.3083 36.5094 20.3333 36.5598 C 20.5773 37.0494 20.6444 37.6373 20.4882 38.161 C 20.7135 38.3045 21.0068 38.3762 21.2746 38.4263 C 21.3561 38.4408 21.4351 38.4569 21.5199 38.4764 C 21.614 38.2743 21.709 38.0752 21.8061 37.8794 C 22.0034 37.4836 22.227 37.0248 22.0439 36.6198 C 21.8672 36.2285 21.3961 36.0897 21.0259 35.8713 C 20.8434 35.7634 20.6811 35.6332 20.5415 35.4826 " stroke-width="1.0000000069172275"/>
      <path id="ID0.12021943414583802" fill="#ABABAA" d="M 23.0365 32.3739 C 21.906 33.0934 21.0334 34.2142 20.544 35.481 C 20.6826 35.6299 20.8449 35.7601 21.0281 35.8711 C 21.3988 36.0903 21.87 36.2291 22.0467 36.6204 C 22.2296 37.0232 22.0062 37.4842 21.8083 37.8792 C 21.7098 38.0746 21.6149 38.2737 21.5226 38.4771 C 21.8908 38.5639 22.2544 38.7142 22.396 39.0485 C 22.4777 39.2383 22.4662 39.4531 22.4762 39.6588 C 22.5097 40.3037 22.7761 40.7446 23.1212 41.2516 C 23.4184 41.6812 23.4545 42.2948 23.0481 42.6826 C 22.8298 42.8926 22.524 43.0007 22.3268 43.2329 C 21.8348 43.8175 22.279 44.8564 22.7816 45.2904 C 23.0285 45.4996 23.366 45.5716 23.6457 45.7243 C 24.0251 45.9274 24.3815 46.1391 24.8315 46.0566 C 25.049 46.0166 25.2452 45.9131 25.4324 45.7939 C 25.4999 45.7509 25.5675 45.7044 25.6339 45.6597 C 25.7015 45.6132 25.7679 45.5685 25.8354 45.5256 C 25.8835 45.495 25.9301 45.4677 25.9793 45.4388 C 26.1348 45.3516 26.2972 45.2827 26.4747 45.2562 C 26.6865 45.2258 26.9082 45.2613 27.1126 45.1857 C 27.1599 45.1687 27.2044 45.1474 27.2466 45.1206 C 27.3934 45.0272 27.5119 44.8818 27.6225 44.7427 C 27.987 44.2855 28.3687 43.6858 28.1116 43.1607 C 27.8661 42.6614 27.1292 42.4832 27.0234 41.9389 C 26.9749 41.6913 27.079 41.4377 27.224 41.2316 C 27.2767 41.1578 27.3431 41.0835 27.4199 41.0346 C 27.4908 40.9895 27.5679 40.9654 27.6526 40.9849 C 27.7503 41.0081 27.8269 41.0874 27.8915 41.1648 C 28.5249 41.8937 29.0611 42.7082 29.4851 43.5774 C 29.525 43.6587 29.5686 43.7459 29.6502 43.7829 C 29.7005 43.8042 29.7568 43.8051 29.8132 43.8024 C 30.3585 43.7932 30.7813 43.6604 31.193 43.3984 C 31.3499 43.2986 31.5014 43.1808 31.6605 43.0452 C 31.9881 42.7443 32.2867 42.3622 32.296 41.9224 C 32.3113 41.371 31.8783 40.888 31.8724 40.3405 C 31.8652 39.8058 32.2566 39.348 32.3729 38.8248 C 32.5809 37.8852 31.8886 37.0172 31.52 36.1269 C 31.2796 35.5462 31.1694 34.9074 30.8458 34.369 C 30.4879 33.7694 29.8702 33.3316 29.1852 33.1903 C 28.7085 33.0931 28.1998 33.13 27.7587 32.9306 C 27.2367 32.6951 26.8993 32.1725 26.4078 31.8807 C 25.7437 31.4891 24.9005 31.5741 24.1734 31.8247 C 23.7704 31.9626 23.3908 32.1484 23.0365 32.3739 " stroke-width="1.0000000069172275"/>
      <path id="ID0.052685847505927086" fill="#949494" d="M 20.2565 36.4131 C 20.1962 36.6779 20.1528 36.9485 20.1254 37.2184 C 20.1066 37.4106 20.0954 37.6109 20.1679 37.79 C 20.2313 37.9511 20.3456 38.0692 20.488 38.1588 C 20.6439 37.6364 20.5776 37.048 20.3331 36.5576 C 20.3094 36.5111 20.2844 36.4606 20.2565 36.4131 " stroke-width="1.0000000069172275"/>
      <path id="ID0.8072715853340924" fill="#90908F" d="M 25.2358 49.8544 C 25.1222 50.108 25.0238 50.3686 24.9402 50.634 C 25.5531 50.7572 26.1788 50.794 26.7242 50.5168 C 26.23 50.3027 25.7277 50.0854 25.2358 49.8544 M 52.9779 26.7971 C 53.8097 28.9087 53.6908 31.6087 55.0669 33.4414 C 55.111 33.4157 55.1558 33.3873 55.1979 33.3604 C 55.4266 33.2149 55.6365 33.0457 55.7889 32.8231 C 56.0073 32.5051 56.0845 32.1087 56.1043 31.7227 C 56.2162 29.6672 54.8162 27.73 52.9779 26.7971 M 42.7878 23.6313 C 42.6081 23.7456 42.4409 23.8758 42.2752 24.0085 C 42.301 24.0454 42.3258 24.0806 42.35 24.1186 C 42.3711 24.1051 42.3946 24.0937 42.414 24.0814 C 42.6283 23.945 42.802 23.7597 42.9334 23.5434 C 42.93 23.5455 42.9266 23.5477 42.9233 23.5498 C 42.8778 23.5752 42.8325 23.6028 42.7878 23.6313 " stroke-width="1.0000000069172275"/>
      <path id="ID0.009481305256485939" fill="#F8F8F8" d="M 52.2807 60.5809 C 52.2824 60.5798 52.2841 60.5787 52.2858 60.5777 L 52.2858 60.5777 C 52.2841 60.5787 52.2824 60.5798 52.2807 60.5809 M 54.375 58.7348 C 53.7782 59.4453 53.0777 60.0749 52.297 60.5729 C 53.0757 60.0737 53.7782 59.4453 54.375 58.7348 M 40.9605 64.3763 C 42.9915 64.1742 45.0508 63.8878 46.8344 62.9151 C 47.3258 62.6461 47.792 62.3281 48.2983 62.0901 C 47.792 62.3281 47.3281 62.6459 46.8344 62.9151 C 45.0508 63.8878 42.9915 64.1742 40.9605 64.3763 M 35.0167 64.3197 C 35.0234 64.319 35.0284 64.3194 35.0351 64.3187 L 35.0351 64.3187 C 35.0284 64.3194 35.0229 64.3182 35.0167 64.3197 M 34.9962 64.3209 C 34.9979 64.3199 35.0006 64.3205 35.0034 64.3211 C 35.0006 64.3205 34.9979 64.3199 34.9962 64.3209 M 64.3735 41.4155 C 64.4719 41.6243 64.5921 41.8429 64.5781 42.0723 C 64.5916 41.8421 64.473 41.6259 64.3735 41.4155 M 64.1414 40.7808 C 64.1403 40.7828 64.1391 40.7847 64.1363 40.7877 C 64.1922 40.9891 64.2721 41.1967 64.3724 41.4138 C 64.2705 41.1941 64.199 40.9848 64.1414 40.7808 " stroke-width="1.0000000069172275"/>
      <path id="ID0.18136898195371032" d="M 35.0145 64.3199 C 35.0212 64.3192 35.0284 64.3194 35.0351 64.3187 C 35.0284 64.3194 35.0234 64.319 35.0167 64.3197 C 35.015 64.3208 35.015 64.3208 35.0145 64.3199 " stroke-width="1.0000000069172275" fill="undefined"/>
      <path id="ID0.2800529384985566" fill="#585857" d="M 30.823 59.3207 C 30.8355 59.359 30.8472 59.3978 30.853 59.4368 C 30.8831 59.6144 30.8556 59.7966 30.8263 59.9741 C 30.7487 60.4929 30.7034 61.0717 31.0121 61.4916 C 31.1836 61.5934 31.3597 61.6876 31.5341 61.7734 C 33.2551 62.6114 35.185 62.9526 36.8919 63.815 C 36.0468 63.5207 35.1596 63.3374 34.2595 63.1931 C 34.3203 63.3073 34.3213 63.443 34.3213 63.5734 C 34.3188 63.8452 34.2995 64.1183 34.2748 64.3888 C 34.5157 64.3706 34.7553 64.3355 34.9967 64.3218 C 35.0006 64.3205 35.0017 64.3222 35.0039 64.3219 C 35.0084 64.3215 35.0123 64.3202 35.015 64.3208 C 35.0239 64.3199 35.0295 64.3211 35.0356 64.3195 L 35.0356 64.3195 C 35.6684 64.2914 36.2907 64.4441 36.9183 64.5213 C 38.0525 64.6588 39.198 64.5497 40.3333 64.4412 C 40.5442 64.4207 40.7539 64.3999 40.9621 64.3788 C 42.9948 64.1757 45.0546 63.8901 46.8382 62.9174 C 47.3297 62.6485 47.7953 62.3296 48.3005 62.0934 C 48.3845 62.0542 48.4674 62.0168 48.5522 61.9842 C 49.1062 61.7632 49.7049 61.6666 50.2777 61.5013 C 50.987 61.2952 51.6605 60.9827 52.2856 60.5849 C 52.2856 60.5849 52.2873 60.5838 52.2907 60.5817 C 52.2924 60.5806 52.2974 60.5774 52.2991 60.5763 C 53.081 60.0764 53.7826 59.4485 54.3772 58.7382 C 54.4232 58.684 54.4669 58.6277 54.5113 58.5746 C 55.3343 57.547 55.961 56.3564 56.9138 55.4489 C 57.4305 54.9553 58.0334 54.5598 58.5887 54.108 C 60.4156 52.6241 61.722 50.5551 62.458 48.3218 C 63.0863 46.4165 63.3325 44.3598 64.3514 42.6362 C 64.455 42.4636 64.5672 42.2879 64.5806 42.0873 C 64.5812 42.0846 64.5807 42.0801 64.5813 42.0774 C 64.5937 41.8454 64.4749 41.6271 64.3773 41.4178 L 64.3773 41.4178 L 64.3773 41.4178 C 64.274 41.2014 64.1971 40.9931 64.1407 40.7908 C 63.3592 41.8073 62.59 42.8243 62.2245 44.0361 C 62.0804 44.5118 61.9452 45.0779 61.5461 45.3319 C 61.5149 45.3517 61.4826 45.3699 61.4465 45.3858 C 61.174 45.9113 60.8771 46.4226 60.5639 46.9195 C 59.1042 49.2448 57.2924 51.3355 55.803 53.6441 C 54.6074 55.4979 53.5343 57.5796 51.6884 58.7543 C 51.5948 58.8139 51.4964 58.8717 51.3979 58.9274 C 49.5985 59.935 47.3121 59.9464 45.6029 61.0341 C 45.4384 61.1388 45.2778 61.2553 45.1251 61.3821 C 46.0287 60.4348 46.9293 59.4883 47.8339 58.5404 C 47.6039 58.6986 47.3692 58.8551 47.1338 59.0049 C 44.8636 60.4497 42.3246 61.5096 39.6562 61.8092 C 36.7092 62.1402 33.5924 61.4782 31.2477 59.6621 C 31.1022 59.5508 30.9617 59.4363 30.823 59.3207 M 28.2658 57.4408 C 28.2639 57.583 28.2692 57.7255 28.2842 57.8664 C 28.5809 57.8447 28.8799 57.8749 29.167 57.9554 C 28.8813 57.7579 28.5855 57.5799 28.2658 57.4408 " stroke-width="1.0000000069172275"/>
      <path id="ID0.2384038078598678" fill="#90908F" d="M 31.0115 61.4944 C 31.0186 61.5017 31.0239 61.5102 31.0282 61.5169 C 31.3564 61.9375 31.9325 62.0438 32.4418 62.2033 C 32.9998 62.378 33.5231 62.6507 34.0152 62.9657 C 34.0997 63.0222 34.187 63.0792 34.2417 63.1653 C 34.2476 63.1746 34.253 63.183 34.2567 63.1925 C 35.1586 63.3357 36.0457 63.519 36.8909 63.8133 C 35.1817 62.9511 33.2518 62.61 31.5325 61.7709 C 31.3597 61.6876 31.1847 61.5951 31.0115 61.4944 M 36.0383 52.8687 C 36.9898 53.3525 37.5768 54.5412 38.6383 54.706 C 38.969 54.7563 39.3065 54.698 39.6412 54.6782 C 39.7123 54.6745 39.7859 54.6727 39.86 54.6718 C 39.8553 54.5266 39.8425 54.3818 39.8112 54.2394 C 39.5522 53.0316 38.1718 52.1439 36.9917 52.5192 C 36.6716 52.6233 36.3578 52.7673 36.0383 52.8687 M 53.1493 38.5581 C 52.8424 38.9383 52.6061 39.3269 52.7605 39.7632 C 52.932 40.2468 53.5075 40.4341 53.8747 40.7931 C 54.1106 41.0222 54.2448 41.3244 54.2885 41.6463 C 54.2999 41.5655 54.3036 41.4838 54.305 41.4022 C 54.3046 40.8893 54.1281 40.3923 53.9134 39.9245 C 53.6957 39.4502 53.4383 38.9917 53.1493 38.5581 M 48.0765 56.8226 C 48.3087 55.9731 49.0281 55.3528 49.7557 54.8589 C 50.0594 54.6526 50.3796 54.4535 50.6061 54.1612 C 50.885 53.806 50.9826 53.3633 51.072 52.9153 C 51.1138 52.7109 51.1526 52.5037 51.2062 52.3048 C 51.4722 51.2998 52.1692 50.4319 52.9426 49.7548 C 53.0036 49.7017 53.068 49.6501 53.1371 49.6061 C 53.2148 49.5567 53.296 49.5204 53.3835 49.5014 C 53.5518 49.4678 53.7506 49.525 53.8317 49.6749 C 53.9369 49.8699 53.8159 50.1046 53.6935 50.2903 C 53.3575 50.7922 53.035 51.1871 52.8072 51.7529 C 52.6009 52.2575 52.425 52.8211 52.1495 53.2916 C 51.8822 53.745 51.3563 54.0679 50.9543 54.4067 C 49.9932 55.2115 49.0345 56.0184 48.0765 56.8226 M 40.6056 60.3041 C 38.2844 60.596 35.7848 61.1366 33.9735 59.2833 C 36.1056 59.6534 38.4065 60.542 40.6056 60.3041 C 40.6676 60.2954 40.7321 60.2888 40.7947 60.2809 C 40.731 60.2907 40.6698 60.2988 40.6056 60.3041 M 24.5909 53.0373 C 24.6055 53.7214 24.7153 54.4043 24.9311 55.0563 C 25.0135 55.305 25.1133 55.5568 25.2964 55.7401 C 25.4879 55.9312 25.7488 56.0319 25.9831 56.1672 C 26.3621 56.3847 26.6811 56.6997 26.9039 57.0759 C 27.0839 57.381 27.2345 57.7592 27.5708 57.8724 C 27.7743 57.9444 27.9976 57.8947 28.2113 57.8749 C 28.235 57.8729 28.2606 57.8684 28.2847 57.8673 C 28.268 57.7274 28.2627 57.5849 28.2669 57.4424 C 28.5865 57.5816 28.8832 57.759 29.1681 57.957 C 29.7337 58.1139 30.2489 58.4522 30.6015 58.9224 C 30.6932 59.0442 30.7764 59.1785 30.8241 59.3224 C 30.9628 59.438 31.1007 59.5541 31.2441 59.662 C 33.5896 61.4775 36.7028 62.1395 39.6509 61.8102 C 42.3199 61.5115 44.8572 60.449 47.1274 59.0042 C 47.3645 58.8534 47.5986 58.6996 47.8303 58.5403 C 46.9255 59.486 46.0254 60.4334 45.1226 61.3801 C 45.2742 61.2552 45.4348 61.1388 45.5993 61.0341 C 47.3077 59.9468 49.5961 59.933 51.3943 58.9273 C 51.4928 58.8717 51.5912 58.8138 51.6848 58.7542 C 53.5307 57.5795 54.6038 55.4978 55.7984 53.6423 C 57.2883 51.3345 59.0992 49.2444 60.5603 46.9194 C 60.8735 46.4225 61.1729 45.9096 61.4429 45.3857 C 61.423 45.3936 61.4006 45.4031 61.3785 45.4113 C 61.0694 45.5215 60.7256 45.4226 60.4152 45.3131 C 59.5685 45.0164 58.7137 44.6156 58.1662 43.9044 C 57.6187 43.1931 57.4818 42.1008 58.0652 41.4213 C 58.1893 41.2772 58.3329 41.1621 58.4915 41.0612 C 58.7125 40.9205 58.9593 40.8109 59.2068 40.7007 C 59.455 40.5914 59.7011 40.481 59.9239 40.3392 C 60.047 40.2608 60.1646 40.1718 60.2711 40.0673 C 60.9253 39.4151 60.9314 38.3147 60.5322 37.4807 C 60.1346 36.6455 59.4165 36.0144 58.7164 35.4098 C 57.8775 34.6801 56.7105 33.9304 55.7248 34.1547 C 56.4422 34.8089 57.2821 35.3613 57.6516 36.2474 C 58.1635 37.4745 57.5703 38.7718 57.0526 39.886 C 56.4171 41.2529 56.1732 42.5757 55.9195 44.06 C 55.6748 45.4841 55.1493 46.858 54.3774 48.0794 C 54.1774 48.0017 54.1821 47.726 54.2202 47.5157 C 54.3701 46.7008 54.5209 45.8818 54.6708 45.0669 C 54.0915 45.9464 53.5089 46.8246 52.929 47.7033 C 52.7962 47.9063 52.6604 48.1101 52.4678 48.26 C 52.4404 48.2821 52.4114 48.3018 52.3802 48.3216 C 52.1102 48.4935 51.7768 48.5563 51.4649 48.6398 C 50.9177 48.7877 50.3946 49.0199 49.9146 49.3254 C 49.486 49.5981 49.0939 49.9283 48.7541 50.3069 C 48.8773 49.6382 49.4229 49.1357 49.9842 48.7512 C 50.545 48.3659 51.1616 48.0292 51.5663 47.4824 C 51.955 46.9588 52.0991 46.2969 52.3393 45.689 C 52.6702 44.8513 53.1852 44.1051 53.6343 43.3227 C 53.5665 43.38 53.4971 43.4313 53.4229 43.4785 C 52.9977 43.7491 52.4759 43.8679 51.9579 43.8549 C 51.7197 44.2982 51.4429 44.722 51.1566 45.1307 C 50.2839 46.3818 49.2759 47.5378 48.1603 48.5785 C 47.697 49.0073 47.1734 49.2611 46.7012 49.6552 C 46.7582 49.6498 46.8179 49.6746 46.8651 49.7134 C 47.0621 49.8665 47.0531 50.1615 47.0255 50.4125 C 46.9479 51.1305 46.9033 52.4331 46.2081 52.8755 C 46.198 52.882 46.1887 52.8879 46.1786 52.8943 C 46.1179 52.9294 46.0264 52.9532 45.9844 52.8946 L 45.97 52.8031 C 45.9971 52.4527 46.2274 52.28 46.4273 52.026 C 46.6666 51.7185 46.7618 51.2963 46.6725 50.9158 C 46.6239 50.7239 46.5368 50.5422 46.4856 50.352 C 46.4403 50.1746 46.4308 49.9791 46.5122 49.8182 C 46.1184 50.153 45.7344 50.4958 45.3501 50.8363 C 45.4766 50.9159 45.5943 51.0022 45.6957 51.1131 C 46.3692 51.8472 45.8773 53.0932 45.0773 53.6876 C 45.004 53.7438 44.9263 53.7968 44.8512 53.8446 C 44.4817 54.0797 44.0777 54.2551 43.6723 54.4301 C 43.3531 54.5692 43.0339 54.7084 42.7316 54.8759 C 43.2143 54.9136 43.6945 54.9529 44.1755 54.9917 C 44.1751 54.9873 44.174 54.9856 44.1718 54.9822 C 44.2166 54.9371 44.27 54.8925 44.324 54.8581 C 44.4261 54.7932 44.5391 54.7603 44.6345 54.8264 C 44.684 54.8613 44.7142 54.9144 44.7436 54.968 C 44.8841 55.2223 45.0404 55.4678 45.2129 55.7018 C 45.2949 55.812 45.3849 55.9254 45.5131 55.9742 C 45.6722 56.0341 45.8495 55.983 46.0019 55.9132 C 46.0792 55.8783 46.151 55.8385 46.2219 55.7934 C 46.4083 55.6747 46.5745 55.5298 46.7461 55.3803 C 46.9177 55.2308 47.0889 55.0827 47.2838 54.9587 C 47.3285 54.9303 47.3751 54.9029 47.4225 54.8787 C 47.7206 54.7175 48.0329 54.5638 48.3189 54.3818 C 48.6217 54.189 48.8984 53.9643 49.1005 53.671 C 49.4016 53.2352 49.5076 52.6959 49.7421 52.2207 C 49.9592 51.772 50.2846 51.3894 50.6076 51.0085 C 50.9416 50.6169 51.2734 50.2256 51.6077 49.8327 C 51.4256 51.0236 50.295 51.8416 49.8616 52.9673 C 49.756 53.2408 49.6923 53.5337 49.5427 53.7866 C 49.3885 54.0436 49.1737 54.2182 48.94 54.3669 C 48.8228 54.4416 48.6993 54.5083 48.576 54.5772 C 48.4528 54.6462 48.3304 54.7146 48.2131 54.7892 C 48.0975 54.8628 47.9871 54.9426 47.8856 55.0345 C 47.3398 55.5347 46.8162 56.0102 46.1801 56.415 C 46.17 56.4214 46.159 56.4284 46.1489 56.4349 C 45.9324 56.5715 45.6456 56.6983 45.439 56.5524 C 45.3278 56.4726 45.2766 56.3345 45.1898 56.2297 C 45.0727 56.0885 44.894 56.0126 44.7483 55.8991 C 44.543 55.7405 44.4091 55.5152 44.2985 55.2762 C 43.4006 55.9496 42.4564 56.5612 41.5122 57.1692 C 41.4894 57.1837 41.4641 57.1998 41.4413 57.2143 C 41.2734 57.3211 41.1012 57.4212 40.9077 57.4673 C 40.8573 57.4793 40.8063 57.4868 40.7538 57.4918 C 40.7278 57.6186 40.704 57.7451 40.6875 57.8718 C 40.4082 57.8149 40.1922 57.643 40.0351 57.4111 C 39.9169 57.3855 39.797 57.3611 39.6781 57.3455 C 39.0491 57.255 38.6328 57.4892 38.0656 57.6783 C 37.579 57.8374 36.9409 57.7362 36.4365 57.6459 C 35.5228 57.4842 34.6493 57.1286 33.7361 56.9713 C 32.686 56.7909 31.8614 56.7823 30.9427 56.2681 C 30.0761 55.7837 29.2303 55.1698 28.3433 54.6794 C 27.4243 54.1666 26.4122 53.3326 25.3624 53.1413 C 25.1113 53.0914 24.8508 53.0675 24.5909 53.0373 " stroke-width="1.0000000069172275"/>
      <path id="ID0.7432477637194097" fill="#ABABAA" d="M 42.495 55.0182 C 42.4755 55.0305 42.4519 55.0456 42.4308 55.059 C 41.5912 55.6171 40.9825 56.5082 40.7572 57.4896 C 40.807 57.484 40.8584 57.4774 40.9106 57.4643 C 41.1041 57.4182 41.2768 57.319 41.4447 57.2121 C 41.4675 57.1976 41.4928 57.1815 41.515 57.1662 C 42.4587 56.5573 43.404 55.9474 44.3019 55.2741 C 44.2578 55.1788 44.2163 55.0855 44.18 54.9877 C 43.6956 54.951 43.2171 54.9106 42.7361 54.8718 C 42.6521 54.9205 42.5717 54.9693 42.495 55.0182 M 55.249 34.3533 C 55.211 34.3774 55.1724 34.4043 55.1349 34.433 C 54.1562 35.1803 54.4385 36.762 53.7628 37.7919 C 53.5928 38.0518 53.355 38.3039 53.149 38.5595 C 53.4388 38.9925 53.6937 39.4526 53.91 39.9266 C 54.1248 40.3945 54.3012 40.8914 54.3011 41.4035 C 54.2997 41.4851 54.2965 41.5677 54.2846 41.6476 C 54.3593 42.1915 54.1763 42.7905 53.7836 43.1885 C 53.7382 43.2364 53.687 43.2808 53.6362 43.3238 C 53.1865 44.1055 52.6691 44.8532 52.3412 45.6901 C 52.1011 46.2981 51.9558 46.9583 51.5682 47.4835 C 51.1635 48.0303 50.5458 48.3654 49.9856 48.7516 C 49.4253 49.1377 48.8793 49.6394 48.756 50.3081 C 49.0942 49.9305 49.4879 49.5993 49.9165 49.3265 C 50.394 49.0227 50.9191 48.788 51.4668 48.641 C 51.7813 48.5558 52.1121 48.4946 52.3838 48.3217 C 52.4133 48.3029 52.4423 48.2833 52.4697 48.2611 C 52.6603 48.1137 52.7981 47.9075 52.9309 47.7044 C 53.5125 46.8246 54.0934 45.9476 54.6727 45.068 C 54.5228 45.8829 54.372 46.702 54.2221 47.5169 C 54.183 47.7255 54.181 48.0018 54.3783 48.0789 C 55.1507 46.8583 55.6779 45.4833 55.9208 44.0603 C 56.176 42.5763 56.4199 41.2535 57.0545 39.8871 C 57.5722 38.773 58.1671 37.4745 57.6553 36.2475 C 57.2845 35.3633 56.4441 34.81 55.7262 34.1551 C 55.5626 34.1904 55.4025 34.2555 55.249 34.3533 M 27.3337 47.1833 C 27.1439 47.3041 26.9682 47.4527 26.8059 47.6093 C 26.1378 48.2432 25.6087 49.0137 25.2366 49.8538 C 25.7291 50.0857 26.2325 50.3011 26.7273 50.516 C 26.1807 50.7916 25.5534 50.7558 24.9416 50.6343 C 24.6957 51.4083 24.5765 52.225 24.5915 53.0381 C 24.8508 53.0675 25.1113 53.0914 25.3683 53.1376 C 26.4181 53.3324 27.4318 54.1654 28.3497 54.6765 C 29.2325 55.1696 30.0803 55.781 30.947 56.2654 C 31.8648 56.7801 32.6899 56.7896 33.7408 56.9695 C 34.6557 57.1257 35.5265 57.4807 36.4407 57.6432 C 36.9461 57.7352 37.5854 57.8345 38.071 57.6737 C 38.637 57.4865 39.0534 57.2523 39.684 57.3417 C 39.8035 57.3582 39.9211 57.3828 40.0415 57.4081 C 39.8253 57.087 39.7266 56.6544 39.7324 56.2631 C 39.7423 55.7329 39.8735 55.1978 39.8608 54.6712 C 39.7884 54.6711 39.7145 54.6742 39.6426 54.6785 C 39.309 54.6964 38.9721 54.7556 38.6409 54.7044 C 37.5777 54.5406 36.9929 53.3517 36.0397 52.869 C 35.7905 52.9506 35.5375 53.0037 35.2744 52.9945 C 35.1652 52.9905 35.0552 52.9741 34.96 52.9232 C 34.5756 52.7234 34.6435 52.1503 34.8439 51.7667 C 35.0443 51.3831 35.3312 50.9753 35.2048 50.5626 C 35.1281 50.308 34.9079 50.1222 34.8046 49.8798 C 34.6503 49.5181 34.7764 49.1035 34.7264 48.7157 C 34.636 48.0242 33.9926 47.5162 33.3202 47.3313 C 32.6453 47.148 31.9357 47.212 31.2396 47.2152 C 30.5074 47.2177 29.7754 47.1514 29.0566 47.0185 C 28.6936 46.9509 28.3256 46.8662 27.963 46.9298 C 27.7353 46.9669 27.5261 47.0609 27.3337 47.1833 M 42.9334 23.5434 C 42.8009 23.7581 42.6295 23.9431 42.4135 24.0805 C 42.3941 24.0929 42.3711 24.1051 42.35 24.1186 C 42.3258 24.0806 42.301 24.0454 42.2752 24.0085 C 42.016 24.2197 41.7644 24.4426 41.489 24.6357 C 41.4237 24.682 41.3572 24.7266 41.2881 24.7707 C 41.1067 24.8861 40.9194 24.9923 40.7318 25.0998 C 40.544 25.2051 40.3561 25.314 40.1764 25.4284 C 39.8448 25.6394 39.5419 25.8749 39.3088 26.1903 C 39.1629 26.3875 39.0496 26.6267 39.0778 26.8684 C 39.1048 27.0859 39.2439 27.2747 39.3158 27.4827 C 39.5704 28.2179 38.9922 29.1086 39.4042 29.771 C 39.6729 30.2081 40.3093 30.3886 40.4302 30.8877 C 40.5112 31.2179 40.3243 31.5501 40.1426 31.8401 C 39.4566 32.9487 38.7502 33.9566 37.9353 34.9707 C 37.3187 35.7377 36.6438 36.6235 36.8 37.668 C 37.0094 39.0922 38.6331 39.876 39.1791 41.207 C 39.6093 42.2572 39.2981 43.4427 39.1977 44.5757 C 39.0952 45.7054 39.3548 47.0669 40.3912 47.5275 C 41.1046 47.8439 41.9822 47.6267 42.6653 48.0016 C 43.5488 48.4884 43.7207 49.7326 44.5193 50.3504 C 44.774 50.5475 45.0832 50.6684 45.3526 50.8383 C 45.7382 50.4981 46.1217 50.1545 46.5141 49.8194 C 46.5211 49.8043 46.5283 49.7914 46.5402 49.7767 C 46.5613 49.7408 46.5916 49.7084 46.6262 49.6864 C 46.6439 49.6751 46.6646 49.6667 46.6844 49.6624 C 46.6906 49.6608 46.6978 49.661 46.7067 49.6601 C 47.178 49.2665 47.7025 49.0121 48.1646 48.5817 C 49.2824 47.5443 50.2893 46.3867 51.1626 45.1363 C 51.4489 44.7277 51.7251 44.303 51.9634 43.8598 C 51.7421 43.8548 51.5203 43.8229 51.3095 43.771 C 50.7539 43.6338 50.1492 43.3596 49.6441 43.6277 C 49.6237 43.6384 49.6017 43.6523 49.5823 43.6647 C 49.3233 43.8295 49.1482 44.1093 48.8939 44.2853 C 48.8821 44.2928 48.8695 44.3009 48.8576 44.3084 C 48.0849 44.8002 46.9656 44.0901 46.7699 43.1811 C 46.5698 42.2594 47.0204 41.3266 47.5428 40.5401 C 48.0189 39.8187 48.7993 38.9831 48.8584 38.0813 C 48.8762 37.7927 48.7791 37.4763 48.5418 37.312 C 48.3472 37.1739 48.0861 37.1528 47.8932 37.0136 C 47.5859 36.7896 47.5544 36.2987 47.7874 35.9999 C 47.845 35.9265 47.914 35.8636 47.9908 35.8148 C 48.2278 35.6639 48.5402 35.6275 48.8164 35.7077 C 49.1831 35.8146 49.5168 36.106 49.8962 36.0577 C 50.008 36.0435 50.1068 36.0031 50.197 35.9457 C 50.4738 35.7696 50.6718 35.4326 50.9215 35.1954 C 51.0022 35.1192 51.0907 35.0534 51.1809 34.9959 C 51.5665 34.7505 52.0395 34.6427 52.4885 34.5193 C 53.3145 34.29 54.1154 33.9652 54.8705 33.5593 C 54.9362 33.5246 55.0008 33.4883 55.0673 33.4495 C 53.6902 31.6209 53.8101 28.9168 52.9783 26.8052 C 52.9281 26.7803 52.8792 26.7556 52.83 26.7324 C 52.7672 26.7025 52.6981 26.6741 52.6312 26.6918 C 52.6155 26.6971 52.6018 26.7034 52.5883 26.712 C 52.5242 26.7528 52.4881 26.8339 52.4437 26.9001 C 52.3945 26.9681 52.3378 27.0243 52.272 27.0662 C 52.1151 27.1661 51.9148 27.2034 51.7129 27.2419 C 51.5093 27.2814 51.3026 27.3217 51.1381 27.4263 C 51.1204 27.4376 51.1046 27.4501 51.0888 27.4625 C 50.9015 27.6041 50.7875 27.8403 50.5926 27.9643 C 50.5682 27.9799 50.5435 27.9932 50.518 28.0035 C 50.2512 28.1188 49.9451 27.9805 49.6901 27.8406 C 49.6769 27.8347 49.6659 27.8287 49.653 27.8215 C 49.793 28.0228 49.8609 28.2747 49.9459 28.5442 C 50.1281 29.1063 50.3834 29.6135 50.479 30.207 C 50.5283 30.5099 50.5407 30.8422 50.3784 31.1031 C 50.3608 31.1333 50.3361 31.1633 50.3057 31.1826 C 50.288 31.1939 50.2667 31.2015 50.2432 31.1999 L 50.1419 31.1505 C 49.7383 30.8182 49.6382 30.2455 49.6246 29.7231 C 49.6203 29.5208 49.6247 29.3117 49.5518 29.1246 C 49.2837 28.4275 48.5744 28.0172 47.9885 27.6255 C 47.369 27.209 46.939 26.5723 46.5244 25.9507 C 46.2738 25.5756 46.0165 25.1787 45.9672 24.7288 C 46.5305 25.3886 47.0966 26.0489 47.6576 26.7088 C 47.8501 26.9313 48.0525 27.1616 48.3258 27.2745 C 48.5423 27.3632 48.7838 27.3683 49.0124 27.4184 C 48.8632 27.2976 48.7333 27.1586 48.6398 26.9894 C 48.3198 26.4214 48.4847 25.6467 48.0887 25.1306 C 47.8644 24.836 47.5016 24.6887 47.1907 24.4907 C 46.7853 24.2355 46.4453 23.8876 46.0416 23.6313 C 45.1226 23.0403 43.8796 23.0075 42.9334 23.5434 " stroke-width="1.0000000069172275"/>
      <path id="ID0.3595845615491271" fill="#848483" d="M 45.9649 24.7232 C 46.0166 25.1715 46.274 25.5684 46.5237 25.9441 C 46.9388 26.5665 47.3694 27.204 47.9901 27.6186 C 48.574 28.0127 49.2835 28.4217 49.5517 29.1187 C 49.6245 29.3059 49.6204 29.5136 49.6261 29.7162 C 49.6375 30.2388 49.7377 30.8116 50.1417 31.1447 L 50.2436 31.1949 C 50.2669 31.1943 50.2861 31.1891 50.3055 31.1768 C 50.3334 31.159 50.3571 31.1274 50.3777 31.0965 C 50.54 30.8355 50.5259 30.5043 50.4788 30.2012 C 50.3827 29.6069 50.1268 29.1024 49.9457 28.5384 C 49.8587 28.2714 49.7908 28.0194 49.6523 27.8148 C 49.431 27.6961 49.2053 27.5706 49.0123 27.4126 C 48.7836 27.3625 48.5416 27.3565 48.3235 27.2689 C 48.0529 27.1567 47.8495 26.9246 47.6586 26.7011 C 47.0948 26.0405 46.5298 25.3819 45.9649 24.7232 " stroke-width="1.0000000069172275"/>
      <path id="ID0.5471847211010754" fill="#848483" d="M 51.6105 49.8297 C 51.2782 50.2202 50.9453 50.6134 50.6099 51.0046 C 50.2881 51.3837 49.9615 51.7682 49.7439 52.216 C 49.5099 52.6921 49.4039 53.2313 49.1022 53.6663 C 48.899 53.9616 48.624 54.1852 48.3195 54.379 C 48.0326 54.5615 47.7209 54.7161 47.4248 54.8749 C 47.3758 54.9002 47.3308 54.9264 47.2844 54.9559 C 47.0912 55.0789 46.9183 55.2281 46.7484 55.3765 C 46.5768 55.526 46.409 55.6719 46.2225 55.7906 C 46.1533 55.8346 46.0798 55.8755 46.0042 55.9094 C 45.8512 55.9819 45.6742 56.0317 45.5155 55.9703 C 45.3877 55.9224 45.2959 55.8078 45.2152 55.6979 C 45.0427 55.464 44.8856 55.219 44.7442 54.9653 C 44.7171 54.9114 44.6872 54.857 44.6352 54.8237 C 44.5425 54.7582 44.4295 54.791 44.3274 54.856 C 44.2734 54.8903 44.2189 54.9369 44.1747 54.9792 C 44.1758 54.9809 44.1779 54.9843 44.1773 54.9871 C 44.2157 55.0847 44.2568 55.1771 44.2996 55.2743 C 44.4114 55.5113 44.5431 55.7369 44.7506 55.8953 C 44.8954 56.0093 45.075 56.0847 45.1904 56.227 C 45.2809 56.3318 45.3284 56.4699 45.4408 56.5477 C 45.6468 56.6963 45.9325 56.5679 46.149 56.4312 C 46.1591 56.4248 46.1701 56.4178 46.1802 56.4114 C 46.8163 56.0066 47.3404 55.5319 47.8856 55.0309 C 47.9883 54.9371 48.0976 54.8592 48.2132 54.7856 C 48.3305 54.711 48.4551 54.6424 48.5772 54.5753 C 48.7021 54.5053 48.8234 54.4388 48.9407 54.3642 C 49.176 54.2144 49.3895 54.0394 49.5428 53.783 C 49.6929 53.531 49.7588 53.2378 49.8639 52.9634 C 50.2992 51.8389 51.4268 51.0217 51.6105 49.8297 " stroke-width="1.0000000069172275"/>
      <path id="ID0.5583068816922605" fill="#848483" d="M 46.6271 49.6822 C 46.5926 49.7043 46.5627 49.7375 46.5389 49.7728 C 46.5297 49.7881 46.5214 49.8029 46.5133 49.8163 C 46.4328 49.9766 46.4442 50.1733 46.489 50.3498 C 46.5384 50.5412 46.6286 50.722 46.6751 50.9141 C 46.7649 51.2956 46.673 51.7155 46.431 52.0225 C 46.2311 52.2765 46.0008 52.4492 45.9737 52.7995 L 45.9886 52.8919 C 46.0296 52.9488 46.1227 52.9275 46.1828 52.8916 C 46.1935 52.886 46.2028 52.8801 46.2129 52.8737 C 46.908 52.4313 46.9526 51.1287 47.0303 50.4107 C 47.0589 50.1614 47.0674 49.8655 46.8687 49.7098 C 46.8213 49.6725 46.7621 49.6485 46.7038 49.6536 C 46.6966 49.6535 46.6893 49.6533 46.6815 49.6559 C 46.6633 49.6628 46.6457 49.6704 46.6271 49.6822 " stroke-width="1.0000000069172275"/>
      <path id="ID0.19084409205242991" fill="#949494" d="M 53.1355 49.6071 C 53.0663 49.6512 53.0025 49.7036 52.9409 49.7558 C 52.167 50.4321 51.4705 51.3009 51.2045 52.3058 C 51.1514 52.5056 51.1112 52.7125 51.072 52.9153 C 50.9826 53.3633 50.8808 53.805 50.6061 54.1612 C 50.3796 54.4535 50.0594 54.6526 49.7557 54.8589 C 49.0254 55.3522 48.3095 55.9725 48.0765 56.8226 C 49.034 56.0176 49.9943 55.2132 50.9526 54.4077 C 51.3557 54.0706 51.8835 53.7453 52.1478 53.2927 C 52.4241 52.8217 52.5992 52.2586 52.8055 51.754 C 53.0339 51.189 53.358 50.7931 53.6918 50.2914 C 53.8142 50.1056 53.9355 49.8696 53.83 49.676 C 53.7489 49.5261 53.5518 49.4678 53.3818 49.5025 C 53.2937 49.5206 53.2131 49.5577 53.1355 49.6071 " stroke-width="1.0000000069172275"/>
      <path id="ID0.9071974046528339" fill="#585857" d="M 17.4328 51.8772 C 17.5157 52.1527 17.5077 52.4755 17.4804 52.7678 C 17.4029 53.5995 17.6506 54.3166 18.1644 54.9806 C 18.5729 55.5125 19.1532 55.8935 19.7652 56.1642 C 20.0494 56.2903 20.3687 56.3953 20.6666 56.3065 C 20.4485 56.0588 20.257 55.7896 20.0629 55.5219 C 19.1857 54.3093 18.3099 53.0934 17.4328 51.8772 M 16.7998 50.9999 C 16.8061 51.0824 16.8146 51.1647 16.8252 51.2504 C 16.9097 51.2843 16.9946 51.3227 17.0682 51.3731 C 16.9798 51.2492 16.8904 51.1236 16.7998 50.9999 " stroke-width="1.0000000069172275"/>
      <path id="ID0.9793821237981319" fill="#90908F" d="M 18.5602 45.6976 C 18.9042 46.2717 19.2367 46.8519 19.5552 47.4398 C 19.8219 47.9315 20.0817 48.4347 20.4707 48.8355 C 20.8689 49.247 21.3803 49.5273 21.8957 49.7765 C 22.4046 50.0228 22.9896 50.1673 23.5643 50.303 C 23.6247 50.3178 23.6846 50.3319 23.7468 50.3457 C 23.7185 50.2025 23.6605 50.0723 23.5605 49.9581 C 23.4399 49.8262 23.279 49.7448 23.1146 49.6764 C 22.5987 49.4655 21.9888 49.3416 21.6799 48.8767 C 21.5115 48.6271 21.4629 48.3178 21.3881 48.0252 C 21.2286 47.3966 20.9236 46.7906 20.4515 46.3431 C 19.976 45.8977 19.3227 45.6236 18.6739 45.6845 C 18.6348 45.6881 18.5978 45.6915 18.5602 45.6976 M 15.8983 46.7635 C 15.8738 46.7791 15.8496 46.7969 15.8261 46.8177 C 15.7218 46.909 15.6583 47.0383 15.6037 47.1667 C 15.3721 47.7005 15.1511 48.2157 15.2183 48.8166 C 15.2728 49.2916 15.4502 49.7417 15.6284 50.1855 C 15.7382 50.4605 15.8598 50.7447 16.0897 50.929 C 16.3015 51.0941 16.5746 51.1527 16.8255 51.2526 C 16.8159 51.1686 16.8074 51.0863 16.8 51.0021 C 16.8895 51.1241 16.98 51.2514 17.0675 51.3759 C 17.1053 51.3981 17.1378 51.4248 17.1699 51.453 C 17.302 51.5692 17.3821 51.7174 17.4299 51.8802 C 18.3074 53.095 19.1849 54.3098 20.0623 55.5247 C 20.2558 55.7915 20.4479 56.0616 20.666 56.3093 C 20.6676 56.3082 20.6693 56.3071 20.6699 56.308 C 20.7436 56.2859 20.8098 56.2521 20.8764 56.2097 C 21.0097 56.1249 21.1265 56.0067 21.232 55.8838 C 21.6343 55.4132 21.9397 54.7625 21.7136 54.1857 C 21.6597 54.047 21.5794 53.8835 21.665 53.7591 C 21.6813 53.7345 21.7034 53.7133 21.7279 53.6978 C 21.7869 53.6602 21.8625 53.6429 21.9322 53.6258 C 22.0945 53.5829 22.2447 53.5135 22.3848 53.4243 C 22.6648 53.2461 22.8989 52.9881 23.0767 52.703 C 23.0994 52.6661 23.1199 52.6293 23.142 52.5915 C 22.321 52.1302 21.6423 51.3804 20.8841 50.7925 C 20.4463 50.4548 19.9693 50.1598 19.6041 49.7461 C 19.214 49.3081 18.9766 48.7563 18.7816 48.206 C 18.5053 47.4217 18.3046 46.6165 18.0953 45.8145 C 17.4947 46.0237 16.9426 46.4153 16.3281 46.6026 C 16.1804 46.648 16.0248 46.683 15.8983 46.7635 " stroke-width="1.0000000069172275"/>
      <path id="ID0.35271187499165535" fill="#ABABAA" d="M 18.0958 45.8154 C 18.304 46.6193 18.5033 47.4241 18.7821 48.2068 C 18.9759 48.7591 19.2145 49.309 19.603 49.7481 C 19.9687 50.1625 20.4484 50.4582 20.8852 50.7942 C 21.6428 51.3812 22.3215 52.1311 23.1431 52.5932 C 23.3652 52.1935 23.5028 51.7503 23.6336 51.3114 C 23.7239 51.0027 23.8041 50.6482 23.7448 50.3445 C 23.6844 50.3296 23.624 50.3148 23.5618 50.301 C 22.9888 50.1642 22.4049 50.0215 21.8938 49.7754 C 21.3784 49.5261 20.8687 49.2448 20.4705 48.8333 C 20.0814 48.4325 19.8194 47.9295 19.5527 47.4378 C 19.2365 46.8496 18.9034 46.2686 18.5594 45.6945 C 18.4021 45.7212 18.2467 45.762 18.0958 45.8154 " stroke-width="1.0000000069172275"/>
      <path id="ID0.08570561464875937" fill="#6D6D6C" d="M 40.6056 60.3041 C 40.6687 60.2971 40.7305 60.2898 40.7947 60.2809 C 40.7321 60.2888 40.6687 60.2971 40.6056 60.3041 M 33.9735 59.2833 C 35.7848 61.1366 38.2844 60.596 40.6056 60.3041 C 38.4065 60.542 36.1056 59.6534 33.9735 59.2833 " stroke-width="1.0000000069172275"/>
    </g>
  </g>
</svg>