<svg xmlns="http://www.w3.org/2000/svg" xmlns:xlink="http://www.w3.org/1999/xlink" version="1.1" width="33.24087142944336" height="54.78499984741211" viewBox="-0.39318402856588364 0.2759999632835388 33.24087142944336 54.78499984741211">
  <!-- Exported by Scratch - http://scratch.mit.edu/ -->
  <g id="garçon">
    <g id="ID0.819162031635642">
      <g id="ID0.5173941948451102">
        <g id="ID0.07201066799461842">
          <g id="ID0.142329225782305">
            <path id="ID0.7123791719786823" fill="#8D5E1B" d="M 1.586 14.736 C 1.736 14.736 1.884 14.667 1.973 14.538 C 2.117 14.326 2.074 14.046 1.862 13.901 C 1.858 13.899 1.832 13.88 1.828 13.878 C 1.75 13.828 1.662 13.805 1.576 13.805 C 1.426 13.805 1.276 13.878 1.186 14.015 C 1.045 14.228 1.104 14.515 1.317 14.658 C 1.398 14.71 1.492 14.736 1.586 14.736 Z " stroke-width="1"/>
          </g>
          <g id="ID0.11845636693760753">
            <path id="ID0.507813683245331" d="M 1.574 14.269 L 1.572 14.269 M 1.574 14.269 C 1.578 14.273 1.584 14.276 1.588 14.28 C 1.584 14.274 1.578 14.272 1.574 14.269 M 1.588 14.277 C 1.592 14.28 1.596 14.282 1.6 14.284 C 1.596 14.282 1.592 14.28 1.588 14.277 M 1.576 13.339 C 1.664 13.339 1.752 13.351 1.838 13.376 C 1.934 13.404 2.024 13.447 2.104 13.503 L 2.104 13.503 C 2.11 13.507 2.119 13.513 2.123 13.515 C 2.545 13.802 2.655 14.376 2.373 14.8 C 2.192 15.07 1.897 15.214 1.599 15.214 C 1.424 15.214 1.246 15.165 1.09 15.062 C 1.086 15.06 1.084 15.058 1.08 15.055 C 0.819 14.891 0.643 14.6 0.643 14.269 C 0.643 13.761 1.047 13.351 1.55 13.339 C 1.559 13.339 1.566 13.339 1.576 13.339 L 1.576 13.339 Z " stroke-width="1" fill="undefined"/>
          </g>
        </g>
        <g id="ID0.8785282182507217">
          <g id="ID0.6878317780792713">
            <path id="ID0.9615640449337661" fill="#8D5E1B" d="M 14.785 54.094 C 14.973 54.094 15.164 54.083 15.349 54.068 C 16.191 53.998 17.026 53.839 17.83 53.689 L 17.797 53.222 L 17.882 53.679 C 18.3 53.603 18.82 53.505 19.228 53.2 C 19.362 53.096 19.454 52.985 19.506 52.852 C 19.564 52.71 19.565 52.58 19.565 52.498 C 19.565 52.066 19.536 51.633 19.48 51.206 C 19.456 51.035 19.441 50.865 19.425 50.696 C 19.408 50.531 19.394 50.366 19.373 50.199 C 19.352 50.029 19.298 49.907 19.23 49.818 C 19.225 49.789 19.223 49.758 19.223 49.736 C 19.23 49.625 19.232 49.564 19.227 49.504 C 19.225 49.483 19.216 49.422 19.212 49.4 C 19.187 49.273 19.124 49.161 19.036 49.074 C 18.97 48.613 18.924 48.193 18.895 47.794 C 18.879 47.578 18.864 47.374 18.88 47.225 C 18.89 47.131 18.914 47.028 18.947 46.911 C 19.1 46.87 19.224 46.751 19.271 46.593 C 19.375 46.241 19.507 45.866 19.675 45.451 C 19.702 45.44 19.729 45.432 19.756 45.427 C 20.152 45.302 20.474 45.128 20.741 44.898 C 20.751 44.89 20.76 44.882 20.768 44.875 C 20.864 44.789 20.944 44.706 21.019 44.614 C 21.062 44.558 21.099 44.506 21.136 44.45 C 21.315 44.179 21.44 43.888 21.53 43.549 C 21.626 43.179 21.668 42.798 21.7 42.471 C 21.712 42.367 21.721 42.258 21.728 42.151 C 21.852 42.153 21.976 42.153 22.1 42.153 C 22.3 42.153 22.501 42.153 22.702 42.149 C 22.799 42.262 22.929 42.348 23.087 42.401 C 23.179 42.432 23.278 42.449 23.382 42.449 C 23.575 42.449 23.761 42.391 23.909 42.292 C 23.911 42.312 23.925 42.415 23.925 42.415 C 23.956 42.677 24.006 43.112 24.372 43.327 C 24.526 43.417 24.7 43.464 24.878 43.464 C 25.116 43.464 25.348 43.379 25.53 43.226 C 25.601 43.165 25.657 43.101 25.702 43.031 C 25.75 43.049 25.8 43.071 25.851 43.087 C 25.95 43.117 26.049 43.133 26.151 43.133 C 26.466 43.133 26.767 42.982 26.958 42.728 C 27.019 42.648 27.061 42.564 27.089 42.48 C 27.122 42.486 27.157 42.493 27.193 42.495 C 27.203 42.497 27.25 42.498 27.26 42.498 C 27.661 42.498 28.026 42.259 28.185 41.891 C 28.406 41.393 28.08 40.921 27.883 40.641 C 27.853 40.598 27.825 40.557 27.801 40.52 C 27.667 40.311 27.517 40.091 27.331 39.841 C 27.393 39.522 27.427 39.206 27.448 38.954 C 27.624 36.954 27.696 35.027 26.677 33.465 C 26.596 33.341 26.51 33.221 26.422 33.102 C 26.287 32.918 26.162 32.747 26.068 32.565 C 25.767 31.987 25.771 31.288 25.775 30.546 C 25.779 30.022 25.781 29.481 25.676 28.942 C 25.386 27.463 24.161 26.185 22.628 25.758 C 22.352 25.682 21.921 25.604 21.444 25.542 C 21.941 24.875 22.21 24.055 22.442 23.258 C 22.485 23.112 22.525 22.967 22.566 22.82 C 22.847 22.934 23.153 22.995 23.469 22.995 C 24.012 22.995 24.567 22.818 25.031 22.503 C 25.529 22.163 25.867 21.751 26.127 21.167 C 26.42 20.505 26.484 19.8 26.313 19.159 C 26.384 19.042 26.452 18.915 26.518 18.775 C 26.694 18.777 26.862 18.778 27.028 18.778 C 28.689 18.778 29.891 18.679 30.601 18.485 C 30.609 18.484 30.655 18.47 30.668 18.466 C 30.759 18.439 30.836 18.412 30.904 18.384 C 30.91 18.381 30.99 18.348 30.99 18.348 L 31.062 18.321 C 31.139 18.289 31.24 18.233 31.307 18.185 C 31.422 18.105 31.658 17.94 31.798 17.606 C 31.987 17.157 31.848 16.651 31.422 16.256 C 31.422 16.256 27.73 12.902 27.726 12.901 C 27.66 12.842 27.59 12.787 27.513 12.728 C 27.511 11.737 27.488 11.08 27.482 11.039 C 27.457 10.649 27.42 10.098 27.258 9.361 C 27.167 8.957 27.094 8.733 26.983 8.398 C 26.92 8.209 26.826 7.989 26.733 7.78 C 26.551 7.362 26.233 6.838 26.031 6.567 C 25.757 6.201 25.471 5.819 24.804 5.232 C 24.7 5.141 24.138 4.659 23.202 4.075 C 22.89 3.881 22.243 3.501 21.409 3.141 C 21.085 3.002 20.747 2.873 20.405 2.758 C 20.372 2.571 20.29 2.344 20.102 2.11 C 19.894 1.851 19.582 1.662 19.175 1.544 C 18.601 1.378 17.643 1.247 16.992 1.246 C 16.988 1.246 16.982 1.246 16.977 1.246 C 16.671 1.246 16.152 1.252 15.708 1.627 C 15.546 1.763 15.419 1.932 15.333 2.118 C 15.204 2.127 15.073 2.139 14.943 2.15 C 14.884 2.126 14.82 2.111 14.756 2.111 C 14.7 2.111 14.644 2.123 14.589 2.142 L 14.401 2.215 C 13.341 2.367 12.3 2.643 11.303 3.037 C 11.034 3.142 10.215 3.466 9.489 3.975 C 9.083 4.258 8.844 4.466 8.667 4.631 C 8.304 4.964 8.017 5.314 7.963 5.38 C 7.838 5.537 7.667 5.756 7.556 5.932 C 7.388 6.192 7.215 6.457 7.046 6.799 C 6.767 7.362 6.546 7.881 6.308 8.717 L 6.107 9.442 C 6.062 9.606 6.007 9.813 5.961 9.994 C 5.87 10.029 5.786 10.067 5.706 10.109 C 5.702 10.11 1.302 12.43 1.302 12.43 C 1.103 12.547 1.066 12.573 0.991 12.638 C 0.854 12.76 0.796 12.844 0.739 12.934 C 0.639 13.09 0.55 13.36 0.592 13.646 C 0.64 13.965 0.78 14.166 0.913 14.319 C 1.011 14.432 1.136 14.54 1.308 14.655 C 1.314 14.66 1.411 14.723 1.415 14.726 C 1.426 14.733 1.476 14.762 1.477 14.765 L 1.477 14.764 C 1.532 14.797 1.587 14.83 1.653 14.866 C 2.225 15.168 3.139 15.492 4.37 15.828 C 4.366 15.851 4.362 15.877 4.358 15.899 C 4.329 16.096 4.426 16.292 4.604 16.382 C 4.671 16.416 4.745 16.434 4.819 16.434 C 4.936 16.434 5.053 16.389 5.141 16.302 C 5.188 16.258 5.239 16.217 5.294 16.181 C 5.333 17.059 5.469 17.973 5.691 18.854 C 5.751 19.082 5.814 19.307 5.879 19.535 C 6.067 20.2 6.245 20.828 6.26 21.467 C 6.284 22.778 6.366 24.285 7.026 25.582 C 7.639 26.788 8.635 27.748 9.516 28.595 C 9.657 28.732 9.803 28.847 9.958 28.947 C 9.928 29.122 9.913 29.29 9.9 29.443 C 9.827 30.421 9.802 31.447 9.827 32.499 C 9.181 33.968 8.834 35.577 8.499 37.134 C 8.402 37.583 8.309 38.008 8.21 38.424 C 8.001 38.542 7.827 38.684 7.693 38.845 C 7.689 38.852 7.665 38.882 7.661 38.889 C 7.527 39.034 7.38 39.2 7.264 39.397 C 7.016 39.729 6.823 40.003 6.657 40.261 C 6.634 40.3 6.604 40.341 6.575 40.386 C 6.381 40.665 6.055 41.134 6.276 41.636 C 6.434 42.002 6.797 42.24 7.198 42.24 C 7.21 42.24 7.257 42.238 7.266 42.236 C 7.3 42.234 7.335 42.23 7.37 42.222 C 7.399 42.308 7.44 42.392 7.501 42.472 C 7.69 42.726 7.991 42.876 8.308 42.876 C 8.411 42.876 8.509 42.858 8.607 42.831 C 8.661 42.813 8.71 42.793 8.753 42.769 C 8.799 42.838 8.856 42.904 8.926 42.964 C 9.108 43.118 9.339 43.204 9.577 43.204 C 9.755 43.204 9.931 43.153 10.085 43.063 C 10.448 42.852 10.501 42.417 10.529 42.156 C 10.529 42.156 10.546 42.048 10.548 42.028 C 10.695 42.132 10.881 42.186 11.075 42.186 C 11.178 42.186 11.277 42.169 11.372 42.139 C 11.417 42.123 11.458 42.106 11.497 42.087 C 11.508 42.277 11.523 42.455 11.546 42.619 C 11.591 42.971 11.657 43.275 11.749 43.557 C 11.749 43.559 11.728 43.588 11.719 43.602 C 11.571 43.811 11.237 44.281 11.122 44.414 C 11.064 44.458 11.018 44.516 10.982 44.585 C 10.888 44.782 10.945 45.012 11.107 45.145 C 10.732 45.701 10.325 46.317 9.921 46.968 C 9.819 46.987 9.7 47.032 9.585 47.143 C 9.575 47.141 9.564 47.141 9.554 47.141 C 9.363 47.141 9.185 47.212 9.04 47.348 C 8.978 47.409 8.922 47.471 8.872 47.534 C 8.706 47.554 8.558 47.638 8.454 47.764 C 8.35 47.77 8.255 47.8 8.169 47.852 L 8.133 47.822 C 7.861 47.602 7.54 47.436 7.206 47.34 C 6.997 47.278 6.786 47.247 6.581 47.247 C 6.237 47.247 5.921 47.337 5.663 47.507 C 5.456 47.646 5.317 47.833 5.265 48.036 C 5.244 48.072 5.226 48.113 5.214 48.156 C 5.172 48.307 5.198 48.471 5.288 48.623 C 5.702 49.308 6.257 49.871 6.794 50.415 C 6.935 50.558 7.073 50.699 7.21 50.842 C 7.36 50.998 7.528 51.176 7.722 51.335 C 7.868 51.457 8.017 51.533 8.146 51.603 C 8.193 51.627 8.243 51.654 8.292 51.681 C 8.688 51.91 9.137 52.049 9.591 52.082 C 9.602 52.082 9.612 52.083 9.624 52.083 C 9.671 52.083 9.718 52.076 9.762 52.062 C 9.772 52.062 9.792 52.062 9.792 52.062 C 9.962 52.062 10.102 52.029 10.219 51.96 C 10.356 51.882 10.438 51.774 10.487 51.714 C 10.753 51.371 10.995 51.011 11.208 50.642 C 11.294 50.496 11.385 50.353 11.474 50.21 C 11.564 50.065 11.654 49.927 11.74 49.778 C 11.825 49.637 11.857 49.512 11.859 49.403 C 11.88 49.368 11.898 49.335 11.919 49.3 C 11.977 49.215 12.023 49.143 12.057 49.071 C 12.1 48.983 12.122 48.895 12.13 48.809 C 12.585 48.049 13.075 47.311 13.552 46.612 C 13.557 46.612 13.569 46.612 13.571 46.612 C 13.702 46.612 13.827 46.557 13.915 46.462 C 14.147 46.207 14.354 45.942 14.565 45.66 C 14.702 45.678 14.845 45.69 14.997 45.704 C 15.235 45.722 15.483 45.733 15.747 45.74 C 15.665 45.96 15.759 46.206 15.966 46.313 C 16.028 46.346 16.091 46.376 16.152 46.406 C 16.112 46.574 16.078 46.753 16.059 46.938 C 16.018 47.334 16.044 47.688 16.067 48 C 16.091 48.348 16.129 48.709 16.182 49.12 C 16.136 49.18 16.095 49.259 16.075 49.359 C 16.072 49.362 16.07 49.365 16.067 49.368 C 15.782 49.596 15.744 49.93 15.744 50.183 C 15.676 50.256 15.625 50.347 15.598 50.451 C 15.588 50.48 15.582 50.513 15.58 50.547 C 15.41 50.618 15.275 50.762 15.219 50.943 C 15.119 51.004 15.033 51.078 14.967 51.162 C 14.778 51.23 14.586 51.295 14.393 51.355 L 14.16 51.433 C 13.806 51.552 13.545 51.718 13.364 51.941 C 13.223 52.12 13.129 52.334 13.073 52.597 C 13 52.951 13.041 53.249 13.19 53.492 C 13.342 53.74 13.61 53.913 13.977 54.004 C 14.218 54.065 14.484 54.094 14.785 54.094 Z M 11.359 38.794 C 11.285 38.706 11.201 38.625 11.105 38.552 C 11.167 38.279 11.388 37.25 11.443 37.009 L 11.453 38.357 L 11.359 38.794 Z " stroke-width="1"/>
          </g>
          <g id="ID0.130800717510283">
            <path id="ID0.8620875305496156" d="M 16.953 1.707 C 16.691 1.707 16.318 1.72 16.012 1.978 C 15.773 2.179 15.705 2.422 15.685 2.559 C 15.382 2.574 14.999 2.602 14.554 2.663 C 14.622 2.634 14.691 2.601 14.763 2.573 C 14.683 2.603 14.605 2.635 14.525 2.667 C 13.689 2.783 12.636 3.013 11.482 3.47 C 11.224 3.574 10.441 3.88 9.763 4.355 C 9.378 4.626 9.157 4.819 8.988 4.973 C 8.618 5.314 8.333 5.671 8.329 5.674 C 8.266 5.754 8.07 5.998 7.952 6.183 C 7.792 6.431 7.628 6.687 7.471 7.005 C 7.202 7.546 6.992 8.042 6.762 8.846 C 6.725 8.97 6.69 9.095 6.657 9.22 C 6.626 9.335 6.595 9.449 6.563 9.564 C 6.497 9.808 6.409 10.151 6.358 10.345 C 6.214 10.393 6.071 10.449 5.925 10.523 C 5.948 10.511 5.979 10.502 6.007 10.491 C 5.979 10.503 5.945 10.512 5.924 10.525 C 4.456 11.296 2.991 12.07 1.526 12.841 C 1.553 12.827 1.589 12.816 1.622 12.801 C 1.626 12.8 1.628 12.798 1.632 12.798 C 1.63 12.798 1.626 12.8 1.622 12.801 C 1.589 12.817 1.552 12.829 1.522 12.843 C 1.391 12.921 1.364 12.937 1.309 12.987 C 1.208 13.076 1.18 13.124 1.141 13.183 C 1.085 13.273 1.038 13.429 1.061 13.579 C 1.089 13.767 1.165 13.891 1.276 14.017 C 1.36 14.115 1.475 14.204 1.579 14.272 C 1.567 14.265 1.561 14.258 1.554 14.251 C 1.554 14.25 1.554 14.25 1.554 14.25 C 1.554 14.25 1.554 14.25 1.554 14.251 C 1.579 14.27 1.607 14.289 1.638 14.309 C 1.628 14.303 1.618 14.297 1.609 14.291 C 1.63 14.305 1.652 14.32 1.671 14.332 C 1.682 14.337 1.692 14.342 1.7 14.349 C 1.716 14.36 1.732 14.37 1.747 14.377 C 1.736 14.371 1.728 14.365 1.72 14.359 L 1.718 14.359 C 1.718 14.359 1.718 14.359 1.72 14.359 C 1.772 14.389 1.824 14.421 1.886 14.455 C 2.503 14.781 3.555 15.133 4.907 15.486 C 4.881 15.646 4.856 15.807 4.832 15.967 C 5.002 15.803 5.198 15.693 5.412 15.613 C 5.526 15.641 5.643 15.671 5.765 15.7 C 5.769 16.724 5.914 17.767 6.161 18.737 C 6.39 19.637 6.723 20.526 6.74 21.456 C 6.765 22.773 6.849 24.175 7.456 25.37 C 8.027 26.495 8.954 27.391 9.853 28.257 C 10.068 28.464 10.288 28.609 10.512 28.708 C 10.425 28.95 10.398 29.215 10.378 29.474 C 10.302 30.509 10.282 31.55 10.308 32.588 C 10.306 32.593 10.304 32.597 10.302 32.601 C 9.652 34.041 9.304 35.663 8.966 37.234 C 8.855 37.755 8.743 38.254 8.626 38.74 C 8.401 38.838 8.206 38.969 8.065 39.136 C 8.052 39.152 8.042 39.167 8.028 39.183 C 7.897 39.329 7.759 39.48 7.665 39.65 C 7.454 39.928 7.249 40.212 7.061 40.506 C 6.901 40.759 6.573 41.126 6.71 41.444 C 6.794 41.639 6.988 41.77 7.208 41.77 C 7.22 41.77 7.23 41.77 7.243 41.768 C 7.462 41.753 7.624 41.453 7.736 41.29 C 7.902 41.047 8.064 40.786 8.236 40.538 C 8.253 40.516 8.269 40.493 8.286 40.471 C 8.185 40.71 8.091 40.951 8.005 41.197 C 7.906 41.479 7.673 41.914 7.882 42.188 C 7.986 42.328 8.147 42.408 8.317 42.408 C 8.37 42.408 8.423 42.399 8.477 42.384 C 8.686 42.32 8.776 41.988 8.845 41.808 C 8.949 41.534 9.048 41.244 9.159 40.961 C 9.189 40.88 9.224 40.802 9.261 40.724 C 9.206 41.019 9.161 41.316 9.13 41.613 C 9.1 41.911 8.969 42.384 9.233 42.607 C 9.335 42.693 9.46 42.738 9.585 42.738 C 9.68 42.738 9.773 42.714 9.856 42.665 C 10.044 42.554 10.059 42.213 10.085 42.019 C 10.128 41.726 10.156 41.42 10.202 41.123 C 10.236 40.895 10.284 40.674 10.324 40.45 C 10.329 40.449 10.335 40.448 10.339 40.448 C 10.499 40.448 10.589 41.212 10.618 41.311 C 10.648 41.417 10.683 41.518 10.764 41.6 C 10.841 41.68 10.962 41.721 11.079 41.721 C 11.132 41.721 11.183 41.712 11.228 41.699 C 11.529 41.598 11.503 41.342 11.482 41.088 C 11.458 40.812 11.449 40.531 11.394 40.258 C 11.353 40.056 11.351 39.797 11.256 39.599 C 11.167 39.213 10.913 38.943 10.583 38.771 C 10.669 38.392 10.751 38.01 10.831 37.638 C 10.95 37.084 11.075 36.527 11.21 35.976 C 11.349 36.043 11.493 36.099 11.644 36.14 C 11.728 36.162 11.818 36.175 11.904 36.198 C 11.911 36.933 11.915 37.672 11.921 38.409 C 11.775 39.087 11.632 39.763 11.486 40.441 C 11.452 40.605 11.424 40.8 11.542 40.92 C 11.587 40.967 11.646 40.994 11.708 41.019 C 11.784 41.045 11.863 41.062 11.941 41.081 C 11.941 41.132 11.941 41.182 11.941 41.23 C 11.943 41.376 11.945 41.523 11.949 41.671 C 11.958 41.969 11.976 42.271 12.013 42.564 C 12.05 42.859 12.107 43.146 12.195 43.418 C 12.219 43.491 12.253 43.559 12.281 43.63 C 12.165 43.785 11.467 44.788 11.411 44.788 L 11.411 44.788 C 11.54 44.85 11.669 44.911 11.796 44.973 C 11.243 45.783 10.692 46.612 10.167 47.473 C 10.118 47.446 10.074 47.428 10.034 47.428 C 9.982 47.428 9.937 47.452 9.89 47.505 C 9.844 47.559 9.797 47.609 9.749 47.66 C 9.687 47.63 9.622 47.609 9.56 47.609 C 9.495 47.609 9.427 47.63 9.368 47.687 C 9.257 47.791 9.176 47.918 9.083 48.04 C 9.059 48.027 9.034 48.012 9.01 48.005 C 8.99 47.998 8.975 47.995 8.956 47.995 C 8.886 47.995 8.818 48.042 8.794 48.111 C 8.773 48.171 8.792 48.23 8.829 48.275 C 8.8 48.294 8.767 48.31 8.736 48.327 C 8.675 48.289 8.615 48.258 8.556 48.238 C 8.536 48.23 8.519 48.228 8.501 48.228 C 8.431 48.228 8.364 48.275 8.34 48.344 C 8.335 48.359 8.335 48.37 8.335 48.383 C 8.273 48.368 8.192 48.349 8.124 48.349 C 8.103 48.349 8.079 48.351 8.062 48.357 C 7.988 48.304 7.919 48.244 7.849 48.183 C 7.622 48.002 7.361 47.868 7.081 47.786 C 6.923 47.739 6.753 47.713 6.587 47.713 C 6.353 47.713 6.122 47.768 5.928 47.897 C 5.81 47.975 5.7 48.1 5.715 48.242 C 5.715 48.246 5.717 48.248 5.717 48.252 C 5.717 48.252 5.717 48.252 5.716 48.252 C 5.712 48.252 5.708 48.251 5.704 48.251 C 5.7 48.251 5.696 48.252 5.692 48.254 C 5.647 48.278 5.669 48.346 5.694 48.39 C 6.182 49.199 6.905 49.845 7.552 50.527 C 7.702 50.683 7.854 50.842 8.022 50.982 C 8.184 51.116 8.358 51.181 8.53 51.285 C 8.864 51.478 9.243 51.597 9.629 51.625 C 9.618 51.609 9.608 51.595 9.597 51.579 C 9.663 51.591 9.732 51.603 9.798 51.603 C 9.8 51.603 9.803 51.603 9.806 51.603 C 9.87 51.603 9.937 51.594 9.993 51.564 C 10.046 51.534 10.085 51.484 10.124 51.435 C 10.374 51.111 10.603 50.769 10.811 50.414 C 10.983 50.117 11.169 49.845 11.343 49.55 C 11.381 49.486 11.419 49.404 11.381 49.337 C 11.381 49.335 11.378 49.335 11.378 49.333 C 11.427 49.239 11.473 49.145 11.529 49.056 C 11.56 49.009 11.607 48.947 11.636 48.88 C 11.659 48.829 11.674 48.778 11.663 48.734 C 11.661 48.724 11.653 48.718 11.651 48.712 C 12.194 47.795 12.79 46.908 13.413 45.997 C 13.465 46.05 13.52 46.098 13.569 46.152 C 13.852 45.84 14.106 45.504 14.356 45.165 C 14.581 45.203 14.805 45.228 15.03 45.245 C 15.446 45.275 15.86 45.288 16.276 45.288 C 16.331 45.288 16.385 45.288 16.439 45.288 C 16.352 45.495 16.263 45.701 16.181 45.91 C 16.349 46 16.526 46.072 16.703 46.142 C 16.621 46.413 16.549 46.689 16.516 46.993 C 16.48 47.347 16.504 47.681 16.525 47.976 C 16.56 48.459 16.617 48.933 16.681 49.392 C 16.665 49.392 16.65 49.39 16.635 49.387 C 16.626 49.387 16.616 49.385 16.607 49.385 C 16.59 49.385 16.574 49.388 16.561 49.398 C 16.531 49.417 16.525 49.458 16.52 49.493 C 16.514 49.555 16.512 49.616 16.507 49.677 C 16.448 49.69 16.393 49.706 16.352 49.739 C 16.156 49.893 16.206 50.202 16.206 50.454 L 16.206 50.454 C 16.132 50.454 16.06 50.501 16.04 50.578 C 16.019 50.665 16.069 50.754 16.155 50.78 C 16.124 50.873 16.077 50.958 16.018 51.03 C 15.965 51.013 15.914 50.992 15.862 50.975 C 15.846 50.972 15.833 50.97 15.819 50.97 C 15.743 50.97 15.673 51.024 15.655 51.098 C 15.639 51.157 15.657 51.209 15.694 51.25 C 15.628 51.273 15.559 51.297 15.495 51.328 C 15.399 51.375 15.307 51.451 15.27 51.549 C 14.989 51.659 14.698 51.75 14.407 51.847 C 14.372 51.86 14.336 51.87 14.3 51.883 C 14.081 51.955 13.862 52.063 13.719 52.242 C 13.613 52.374 13.554 52.537 13.519 52.703 C 13.482 52.889 13.476 53.094 13.577 53.254 C 13.683 53.426 13.887 53.512 14.083 53.561 C 14.312 53.62 14.548 53.637 14.784 53.637 C 14.96 53.637 15.136 53.626 15.308 53.614 C 16.129 53.544 16.939 53.391 17.747 53.243 C 18.144 53.169 18.614 53.089 18.946 52.838 C 18.999 52.798 19.049 52.749 19.073 52.687 C 19.096 52.63 19.097 52.57 19.097 52.506 C 19.097 52.097 19.071 51.687 19.015 51.28 C 18.969 50.938 18.952 50.606 18.909 50.268 C 18.899 50.194 18.88 50.104 18.808 50.077 C 18.806 50.077 18.802 50.077 18.799 50.077 C 18.776 49.964 18.753 49.848 18.755 49.735 C 18.756 49.673 18.765 49.614 18.76 49.551 C 18.759 49.537 18.757 49.526 18.755 49.512 C 18.736 49.42 18.678 49.381 18.606 49.366 C 18.53 48.871 18.467 48.355 18.429 47.836 C 18.412 47.6 18.397 47.375 18.416 47.186 C 18.437 46.981 18.506 46.752 18.587 46.498 C 18.59 46.488 18.593 46.478 18.596 46.471 C 18.606 46.471 18.616 46.471 18.625 46.471 C 18.669 46.471 18.713 46.473 18.757 46.473 C 18.779 46.473 18.801 46.473 18.822 46.471 C 18.964 45.992 19.138 45.528 19.332 45.067 C 19.428 45.046 19.523 45.02 19.615 44.993 C 19.918 44.897 20.199 44.761 20.435 44.555 C 20.437 44.552 20.439 44.55 20.443 44.548 C 20.519 44.482 20.59 44.407 20.656 44.327 C 20.693 44.28 20.724 44.231 20.757 44.184 C 20.906 43.957 21.008 43.705 21.078 43.436 C 21.162 43.11 21.203 42.764 21.236 42.428 C 21.26 42.18 21.275 41.932 21.297 41.684 C 21.565 41.69 21.833 41.692 22.1 41.692 C 22.392 41.692 22.686 41.688 22.977 41.682 C 23 41.805 23.067 41.91 23.231 41.961 C 23.278 41.977 23.329 41.982 23.38 41.982 C 23.498 41.982 23.619 41.943 23.697 41.863 C 23.756 41.801 23.787 41.728 23.814 41.65 C 23.971 41.644 24.13 41.638 24.29 41.63 C 24.318 41.847 24.343 42.066 24.375 42.276 C 24.402 42.469 24.414 42.811 24.604 42.922 C 24.69 42.972 24.782 42.995 24.875 42.995 C 25.001 42.995 25.127 42.95 25.227 42.865 C 25.491 42.641 25.362 42.167 25.329 41.87 C 25.317 41.758 25.296 41.643 25.28 41.533 C 25.321 41.522 25.364 41.512 25.405 41.504 C 25.473 41.692 25.543 41.884 25.614 42.066 C 25.684 42.251 25.774 42.58 25.983 42.644 C 26.036 42.662 26.09 42.667 26.143 42.667 C 26.313 42.667 26.473 42.587 26.577 42.448 C 26.786 42.173 26.552 41.739 26.454 41.456 C 26.403 41.311 26.345 41.173 26.288 41.03 C 26.306 41.009 26.321 40.993 26.339 40.971 C 26.468 41.165 26.595 41.364 26.723 41.549 C 26.835 41.709 26.997 42.012 27.216 42.028 C 27.228 42.03 27.239 42.03 27.253 42.03 C 27.471 42.03 27.665 41.897 27.751 41.702 C 27.89 41.386 27.562 41.016 27.401 40.764 C 27.222 40.483 27.026 40.211 26.825 39.946 C 26.907 39.606 26.948 39.251 26.979 38.91 C 27.133 37.136 27.253 35.209 26.282 33.716 C 26.075 33.4 25.825 33.112 25.651 32.777 C 25.067 31.652 25.46 30.273 25.215 29.031 C 24.949 27.677 23.815 26.571 22.5 26.207 C 22.107 26.098 21.258 25.966 20.408 25.906 C 20.49 25.846 20.572 25.79 20.648 25.722 C 21.388 25.069 21.714 24.076 21.99 23.127 C 22.09 22.789 22.179 22.449 22.273 22.108 C 22.306 22.137 22.337 22.168 22.377 22.197 C 22.706 22.424 23.084 22.527 23.463 22.527 C 23.921 22.527 24.381 22.377 24.764 22.117 C 25.202 21.816 25.478 21.469 25.697 20.975 C 25.955 20.394 26.021 19.727 25.812 19.126 C 25.806 19.113 25.799 19.104 25.794 19.091 C 25.807 19.07 25.823 19.053 25.836 19.032 C 25.985 18.802 26.107 18.554 26.214 18.303 C 26.493 18.308 26.76 18.311 27.019 18.311 C 28.668 18.311 29.873 18.21 30.525 18.019 C 30.519 18.021 30.515 18.022 30.512 18.023 C 30.517 18.022 30.521 18.021 30.525 18.019 C 30.598 17.998 30.667 17.974 30.726 17.952 C 30.736 17.948 30.747 17.943 30.757 17.939 C 30.767 17.934 30.777 17.93 30.784 17.926 C 30.815 17.914 30.846 17.904 30.874 17.892 C 30.925 17.871 30.991 17.833 31.036 17.802 C 31.132 17.736 31.276 17.635 31.364 17.426 C 31.429 17.269 31.483 16.951 31.1 16.597 C 31.065 16.565 31.018 16.532 30.97 16.497 C 31.016 16.53 31.063 16.562 31.097 16.595 C 29.87 15.48 28.645 14.366 27.417 13.251 C 27.416 13.25 27.413 13.249 27.412 13.247 C 27.298 13.144 27.176 13.056 27.043 12.97 C 27.044 11.813 27.015 11.087 27.014 11.082 C 26.989 10.691 26.953 10.158 26.798 9.46 C 26.714 9.077 26.647 8.876 26.535 8.544 C 26.48 8.36 26.39 8.155 26.303 7.956 C 26.139 7.581 25.84 7.085 25.656 6.842 C 25.384 6.477 25.125 6.132 24.494 5.578 C 24.396 5.491 23.857 5.028 22.953 4.464 C 22.654 4.276 22.029 3.911 21.224 3.565 C 20.729 3.352 20.287 3.204 19.953 3.099 C 19.964 2.962 19.978 2.698 19.738 2.398 C 19.592 2.215 19.357 2.077 19.046 1.987 C 18.516 1.835 17.595 1.708 16.992 1.707 C 16.982 1.707 16.968 1.707 16.953 1.707 M 16.273 2.546 C 16.385 2.546 16.511 2.549 16.649 2.556 C 16.511 2.549 16.386 2.546 16.273 2.546 M 16.734 2.562 C 16.882 2.571 17.039 2.582 17.213 2.595 C 17.039 2.58 16.883 2.569 16.734 2.562 C 16.733 2.562 16.732 2.561 16.731 2.561 C 16.732 2.561 16.734 2.562 16.734 2.562 M 17.593 2.634 C 17.61 2.636 17.627 2.639 17.643 2.641 C 17.663 2.644 17.684 2.646 17.704 2.648 C 17.684 2.646 17.663 2.644 17.643 2.641 C 17.627 2.639 17.609 2.636 17.593 2.634 M 18.088 2.696 C 18.058 2.692 18.026 2.687 17.994 2.683 C 18.025 2.688 18.057 2.692 18.088 2.696 M 18.506 2.761 C 18.486 2.758 18.468 2.755 18.447 2.751 C 18.468 2.755 18.486 2.758 18.506 2.761 M 18.787 2.812 C 18.82 2.819 18.852 2.825 18.885 2.831 C 18.853 2.823 18.82 2.816 18.787 2.812 M 19.465 2.96 C 19.467 2.96 19.47 2.96 19.472 2.961 C 19.469 2.96 19.466 2.96 19.465 2.96 M 7.543 10.109 C 7.553 10.108 7.561 10.106 7.568 10.106 C 7.559 10.106 7.552 10.108 7.543 10.109 M 7.168 10.154 C 7.195 10.15 7.223 10.145 7.252 10.142 C 7.223 10.147 7.195 10.15 7.168 10.154 M 25.684 12.353 C 25.72 12.366 25.756 12.376 25.789 12.388 C 25.83 12.403 25.869 12.415 25.906 12.428 C 25.869 12.415 25.83 12.403 25.789 12.388 C 25.756 12.376 25.72 12.364 25.684 12.353 M 5.166 12.423 L 5.166 12.423 L 5.166 12.423 C 5.207 12.423 5.248 12.423 5.289 12.424 C 5.332 12.424 5.377 12.424 5.42 12.425 C 5.377 12.424 5.332 12.424 5.289 12.424 C 5.248 12.423 5.207 12.423 5.166 12.423 L 5.166 12.423 L 5.166 12.423 C 5.134 12.423 5.1 12.423 5.066 12.424 C 5.06 12.424 5.054 12.424 5.045 12.424 C 5.052 12.424 5.06 12.424 5.066 12.424 C 5.1 12.423 5.133 12.423 5.166 12.423 L 5.166 12.423 L 5.166 12.423 M 5.957 12.428 C 5.891 12.427 5.82 12.425 5.756 12.425 C 5.82 12.425 5.891 12.427 5.957 12.428 M 4.396 12.437 C 4.536 12.433 4.685 12.43 4.833 12.428 C 4.686 12.43 4.535 12.433 4.396 12.437 M 3.802 12.46 C 3.916 12.454 4.041 12.449 4.162 12.445 C 4.041 12.449 3.916 12.454 3.802 12.46 M 3.264 12.495 C 3.362 12.486 3.471 12.48 3.576 12.474 C 3.471 12.481 3.361 12.486 3.264 12.495 M 2.789 12.542 C 2.871 12.531 2.965 12.524 3.055 12.516 C 2.965 12.522 2.871 12.531 2.789 12.542 M 26.264 12.565 C 26.285 12.574 26.306 12.582 26.326 12.59 C 26.306 12.581 26.285 12.573 26.264 12.565 C 26.224 12.548 26.182 12.534 26.141 12.516 C 26.182 12.532 26.224 12.548 26.264 12.565 M 2.375 12.6 C 2.437 12.589 2.512 12.581 2.578 12.573 C 2.51 12.581 2.438 12.589 2.375 12.6 M 2.023 12.669 C 2.08 12.655 2.148 12.644 2.211 12.632 C 2.148 12.645 2.08 12.655 2.023 12.669 M 1.738 12.749 C 1.781 12.735 1.836 12.722 1.884 12.708 C 1.838 12.722 1.783 12.734 1.738 12.749 M 5.338 13.19 L 5.338 13.19 C 5.34 13.19 5.341 13.19 5.343 13.19 C 5.382 13.19 5.42 13.19 5.461 13.191 C 5.465 13.191 5.469 13.191 5.473 13.191 C 5.469 13.191 5.465 13.191 5.461 13.191 C 5.42 13.19 5.382 13.19 5.343 13.19 C 5.341 13.19 5.34 13.19 5.338 13.19 C 5.324 13.19 5.309 13.19 5.291 13.19 C 5.146 13.191 5.006 13.191 4.867 13.193 C 4.654 13.195 4.451 13.201 4.254 13.207 C 4.254 13.207 4.252 13.207 4.25 13.207 C 4.252 13.207 4.252 13.207 4.254 13.207 C 4.451 13.2 4.654 13.195 4.867 13.193 C 5.006 13.19 5.146 13.19 5.291 13.19 C 5.309 13.19 5.322 13.19 5.338 13.19 L 5.338 13.19 M 3.123 13.271 C 3.119 13.271 3.115 13.272 3.113 13.272 C 3.115 13.272 3.119 13.271 3.123 13.271 C 3.422 13.246 3.756 13.223 4.121 13.21 C 3.756 13.224 3.422 13.245 3.123 13.271 M 2.242 13.386 C 2.24 13.386 2.238 13.387 2.236 13.387 C 2.238 13.387 2.24 13.386 2.242 13.386 C 2.463 13.345 2.721 13.31 3.013 13.282 C 2.723 13.31 2.463 13.345 2.242 13.386 M 1.634 13.55 C 1.772 13.494 1.949 13.446 2.164 13.403 C 1.949 13.444 1.771 13.494 1.634 13.55 M 1.432 13.653 L 1.432 13.653 C 1.475 13.622 1.53 13.593 1.591 13.567 C 1.529 13.596 1.475 13.624 1.432 13.653 M 1.359 13.729 C 1.369 13.715 1.381 13.704 1.394 13.691 C 1.382 13.702 1.367 13.714 1.359 13.729 M 1.332 13.741 C 1.346 13.725 1.361 13.712 1.377 13.696 C 1.361 13.712 1.346 13.727 1.332 13.741 M 1.32 13.812 C 1.324 13.798 1.33 13.785 1.338 13.771 C 1.332 13.784 1.324 13.797 1.32 13.812 M 1.289 13.822 C 1.293 13.806 1.303 13.792 1.31 13.776 C 1.302 13.792 1.293 13.808 1.289 13.822 M 1.32 13.856 C 1.32 13.864 1.32 13.872 1.32 13.877 C 1.32 13.882 1.32 13.891 1.322 13.898 C 1.32 13.89 1.32 13.883 1.32 13.877 C 1.32 13.871 1.32 13.864 1.32 13.856 L 1.32 13.856 L 1.32 13.856 M 1.279 13.894 C 1.279 13.9 1.279 13.905 1.281 13.911 C 1.279 13.903 1.279 13.897 1.279 13.894 C 1.279 13.882 1.281 13.873 1.281 13.862 C 1.281 13.872 1.279 13.882 1.279 13.894 M 1.359 13.994 C 1.349 13.977 1.345 13.964 1.338 13.948 C 1.348 13.964 1.352 13.979 1.359 13.994 M 1.311 14.001 C 1.303 13.983 1.297 13.967 1.291 13.95 C 1.297 13.966 1.302 13.983 1.311 14.001 M 1.338 14.044 C 1.346 14.054 1.352 14.064 1.359 14.073 C 1.365 14.082 1.371 14.089 1.379 14.096 C 1.373 14.087 1.365 14.08 1.359 14.073 C 1.352 14.063 1.344 14.054 1.338 14.044 M 1.402 14.048 C 1.412 14.064 1.422 14.077 1.435 14.093 C 1.422 14.078 1.414 14.063 1.402 14.048 L 1.402 14.048 L 1.402 14.048 M 1.422 14.144 C 1.442 14.164 1.463 14.181 1.486 14.201 C 1.463 14.181 1.441 14.162 1.422 14.144 M 1.557 14.196 C 1.537 14.181 1.524 14.168 1.506 14.153 C 1.523 14.169 1.537 14.183 1.557 14.196 M 1.715 14.307 C 1.694 14.294 1.678 14.282 1.656 14.267 C 1.677 14.28 1.693 14.294 1.715 14.307 M 27.266 15.962 C 27.095 15.918 26.918 15.874 26.739 15.831 C 26.918 15.875 27.095 15.919 27.266 15.962 M 30.488 17.048 C 30.488 17.048 30.488 17.047 30.488 17.048 C 30.199 16.895 29.817 16.737 29.354 16.576 C 28.891 16.415 28.347 16.251 27.736 16.086 C 28.348 16.251 28.891 16.415 29.354 16.576 C 29.817 16.736 30.199 16.896 30.488 17.048 C 30.488 17.047 30.488 17.048 30.488 17.048 M 30.922 16.454 C 30.861 16.413 30.785 16.37 30.707 16.327 C 30.785 16.37 30.859 16.413 30.922 16.454 M 30.777 17.221 C 30.759 17.21 30.742 17.2 30.724 17.187 C 30.742 17.198 30.759 17.21 30.777 17.221 M 30.847 17.276 C 30.864 17.288 30.879 17.3 30.893 17.312 C 30.922 17.337 30.95 17.362 30.971 17.384 C 30.95 17.362 30.923 17.337 30.893 17.312 C 30.879 17.302 30.863 17.289 30.847 17.276 M 28.527 18.235 C 30.361 18.142 31.279 17.867 31.006 17.431 C 31.008 17.434 31.012 17.438 31.014 17.442 C 31.267 17.872 30.349 18.145 28.527 18.235 M 31.057 17.499 C 31.053 17.491 31.047 17.484 31.043 17.478 C 31.047 17.483 31.053 17.491 31.057 17.499 M 31.088 17.609 C 31.088 17.61 31.088 17.61 31.088 17.612 C 31.088 17.614 31.088 17.618 31.088 17.621 C 31.088 17.625 31.086 17.629 31.086 17.632 C 31.086 17.628 31.088 17.624 31.088 17.621 C 31.088 17.618 31.088 17.614 31.088 17.612 C 31.088 17.61 31.088 17.61 31.088 17.609 M 31.05 17.737 C 31.05 17.737 31.051 17.735 31.051 17.734 C 31.051 17.735 31.05 17.737 31.05 17.737 M 30.922 17.853 C 30.933 17.847 30.942 17.841 30.949 17.833 C 30.941 17.84 30.933 17.847 30.922 17.853 M 28.168 18.251 C 28.289 18.247 28.408 18.242 28.523 18.236 C 28.408 18.242 28.289 18.247 28.168 18.251 M 27.791 18.262 C 27.789 18.262 27.785 18.262 27.783 18.263 C 27.785 18.262 27.789 18.262 27.791 18.262 C 27.912 18.259 28.031 18.255 28.146 18.251 C 28.031 18.256 27.912 18.259 27.791 18.262 M 27.631 18.265 C 27.547 18.267 27.463 18.269 27.379 18.269 C 27.465 18.269 27.547 18.267 27.631 18.265 C 27.675 18.265 27.719 18.264 27.763 18.263 C 27.72 18.264 27.676 18.265 27.631 18.265 M 26.412 18.267 C 26.353 18.265 26.295 18.265 26.236 18.263 L 26.236 18.263 C 26.295 18.265 26.354 18.265 26.412 18.267 M 26.896 18.271 C 26.77 18.271 26.642 18.269 26.51 18.268 C 26.641 18.269 26.769 18.271 26.896 18.271 M 27.009 18.271 C 26.99 18.271 26.972 18.271 26.953 18.271 C 26.971 18.271 26.988 18.271 27.006 18.271 C 27.121 18.271 27.235 18.271 27.347 18.269 C 27.236 18.271 27.125 18.271 27.009 18.271 M 1.598 14.284 C 1.6 14.286 1.602 14.287 1.604 14.288 C 1.602 14.287 1.6 14.286 1.598 14.284 M 1.74 14.375 C 1.742 14.376 1.746 14.378 1.748 14.38 C 1.746 14.378 1.742 14.377 1.74 14.375 M 30.519 18.022 C 30.515 18.025 30.51 18.027 30.506 18.028 C 30.511 18.025 30.515 18.022 30.519 18.022 M 16.953 0.776 L 16.992 0.776 C 17.684 0.778 18.699 0.917 19.306 1.091 C 19.806 1.237 20.197 1.481 20.466 1.816 C 20.626 2.016 20.729 2.214 20.792 2.396 C 21.063 2.494 21.331 2.597 21.593 2.709 C 22.456 3.079 23.126 3.474 23.448 3.675 C 24.416 4.279 25.004 4.785 25.113 4.88 C 25.813 5.496 26.113 5.897 26.404 6.284 C 26.619 6.572 26.955 7.125 27.156 7.583 C 27.252 7.803 27.35 8.027 27.425 8.249 C 27.541 8.599 27.617 8.829 27.713 9.258 C 27.882 10.026 27.922 10.622 27.949 11.018 C 27.951 11.067 27.972 11.633 27.977 12.5 C 27.994 12.514 28.009 12.527 28.024 12.541 C 28.035 12.551 28.045 12.559 28.054 12.568 L 31.728 15.904 L 31.728 15.904 C 31.73 15.906 31.732 15.908 31.733 15.91 C 32.312 16.444 32.496 17.143 32.225 17.785 C 32.033 18.242 31.71 18.467 31.574 18.562 C 31.472 18.632 31.35 18.7 31.24 18.748 C 31.213 18.758 31.181 18.77 31.149 18.783 L 31.149 18.782 C 31.143 18.785 31.138 18.787 31.136 18.789 C 31.122 18.795 31.081 18.81 31.067 18.816 C 30.998 18.843 30.91 18.875 30.811 18.904 C 30.79 18.912 30.77 18.918 30.755 18.922 C 30.735 18.928 30.718 18.933 30.7 18.936 C 29.944 19.138 28.708 19.241 27.022 19.241 C 26.95 19.241 26.879 19.241 26.807 19.24 C 26.944 19.928 26.856 20.662 26.55 21.351 C 26.254 22.02 25.865 22.493 25.291 22.882 C 24.75 23.251 24.103 23.455 23.467 23.455 C 23.269 23.455 23.072 23.434 22.884 23.395 C 22.707 24 22.509 24.619 22.211 25.186 C 22.421 25.224 22.607 25.264 22.752 25.305 C 24.449 25.777 25.807 27.201 26.131 28.848 C 26.244 29.43 26.242 29.994 26.238 30.542 C 26.234 31.252 26.23 31.866 26.477 32.343 C 26.554 32.491 26.67 32.653 26.792 32.822 C 26.885 32.949 26.977 33.076 27.062 33.207 C 28.251 35.035 28.051 37.321 27.906 38.99 C 27.887 39.201 27.863 39.456 27.82 39.721 C 27.959 39.915 28.08 40.093 28.188 40.264 C 28.209 40.296 28.234 40.331 28.259 40.368 C 28.477 40.68 28.929 41.333 28.604 42.073 C 28.385 42.575 27.904 42.913 27.361 42.952 C 27.349 42.971 27.336 42.986 27.324 43.005 C 27.05 43.372 26.609 43.594 26.147 43.594 C 26.044 43.594 25.943 43.583 25.842 43.563 C 25.838 43.567 25.833 43.572 25.829 43.575 C 25.567 43.799 25.227 43.923 24.879 43.923 C 24.618 43.923 24.362 43.855 24.138 43.724 C 23.781 43.517 23.62 43.189 23.54 42.902 C 23.489 42.908 23.436 42.911 23.383 42.911 C 23.229 42.911 23.079 42.889 22.938 42.84 C 22.781 42.788 22.64 42.712 22.519 42.615 C 22.397 42.616 22.275 42.617 22.154 42.618 C 22.121 42.937 22.074 43.302 21.98 43.665 C 21.88 44.051 21.73 44.396 21.535 44.693 C 21.479 44.775 21.433 44.841 21.383 44.907 C 21.293 45.017 21.192 45.124 21.08 45.219 C 21.065 45.236 21.05 45.25 21.033 45.263 C 20.763 45.495 20.423 45.689 20.027 45.827 C 19.902 46.147 19.8 46.444 19.718 46.725 C 19.656 46.936 19.523 47.113 19.349 47.231 C 19.347 47.247 19.345 47.259 19.343 47.274 C 19.331 47.382 19.345 47.578 19.359 47.762 C 19.384 48.113 19.423 48.481 19.478 48.88 C 19.57 49.007 19.635 49.154 19.667 49.318 C 19.678 49.365 19.685 49.414 19.688 49.463 C 19.696 49.551 19.694 49.625 19.69 49.684 C 19.756 49.807 19.808 49.955 19.833 50.143 C 19.854 50.317 19.87 50.487 19.887 50.659 C 19.902 50.821 19.917 50.983 19.939 51.147 C 20 51.592 20.029 52.047 20.029 52.499 C 20.029 52.599 20.029 52.806 19.934 53.032 C 19.849 53.239 19.705 53.421 19.507 53.571 C 19.013 53.944 18.407 54.057 17.965 54.137 L 17.917 54.149 C 17.098 54.299 16.253 54.46 15.387 54.533 C 15.153 54.553 14.96 54.561 14.782 54.561 C 14.442 54.561 14.139 54.528 13.856 54.457 C 13.366 54.336 13.003 54.094 12.784 53.738 C 12.638 53.5 12.487 53.092 12.606 52.507 C 12.675 52.173 12.805 51.886 12.993 51.653 C 13.229 51.356 13.559 51.141 14.003 50.994 L 14.118 50.957 L 14.233 50.918 C 14.391 50.867 14.544 50.815 14.69 50.765 C 14.735 50.722 14.784 50.679 14.835 50.642 C 14.913 50.486 15.028 50.351 15.165 50.248 C 15.194 50.168 15.229 50.093 15.272 50.022 C 15.292 49.742 15.372 49.389 15.657 49.104 C 15.667 49.076 15.678 49.046 15.69 49.02 C 15.647 48.666 15.616 48.343 15.592 48.036 C 15.571 47.718 15.542 47.326 15.585 46.89 C 15.596 46.808 15.606 46.726 15.618 46.648 C 15.46 46.531 15.347 46.368 15.288 46.187 C 15.174 46.179 15.062 46.172 14.952 46.166 C 14.89 46.161 14.829 46.154 14.767 46.15 C 14.601 46.363 14.433 46.57 14.247 46.773 C 14.128 46.902 13.976 46.995 13.811 47.042 C 13.391 47.661 12.964 48.309 12.565 48.97 C 12.546 49.065 12.516 49.163 12.465 49.272 C 12.413 49.382 12.352 49.473 12.315 49.533 L 12.303 49.55 C 12.282 49.693 12.231 49.849 12.13 50.019 C 12.042 50.168 11.95 50.314 11.859 50.458 C 11.771 50.595 11.683 50.731 11.599 50.877 C 11.373 51.269 11.12 51.646 10.843 52 C 10.783 52.078 10.656 52.24 10.445 52.365 C 10.257 52.47 10.044 52.526 9.806 52.528 C 9.744 52.543 9.681 52.549 9.617 52.549 C 9.596 52.549 9.572 52.549 9.55 52.547 C 9.026 52.51 8.506 52.349 8.051 52.084 C 8.01 52.06 7.966 52.037 7.924 52.015 C 7.781 51.943 7.606 51.849 7.42 51.697 C 7.207 51.521 7.027 51.333 6.867 51.167 C 6.732 51.025 6.596 50.886 6.457 50.746 C 5.902 50.184 5.326 49.6 4.887 48.87 C 4.731 48.611 4.684 48.316 4.758 48.044 C 4.774 47.982 4.797 47.924 4.824 47.868 C 4.914 47.575 5.113 47.314 5.4 47.124 C 5.734 46.902 6.138 46.786 6.574 46.786 C 6.824 46.786 7.078 46.822 7.33 46.896 C 7.648 46.991 7.957 47.135 8.232 47.327 C 8.343 47.232 8.472 47.162 8.613 47.118 C 8.644 47.083 8.681 47.048 8.718 47.013 C 8.91 46.832 9.154 46.72 9.408 46.692 C 9.471 46.649 9.539 46.612 9.608 46.584 C 10.096 45.802 10.587 45.073 11.012 44.451 L 11.393 44.713 L 11.393 43.963 L 11.381 43.935 C 11.371 43.913 11.361 43.887 11.352 43.865 C 11.051 43.88 10.831 44.04 10.748 44.136 C 10.82 44.052 11.063 43.716 11.227 43.487 C 11.162 43.244 11.11 42.979 11.074 42.692 C 11.074 42.681 11.072 42.671 11.07 42.664 C 11.067 42.664 11.065 42.664 11.063 42.664 C 11.01 42.664 10.958 42.661 10.906 42.655 C 10.826 42.944 10.666 43.27 10.305 43.479 C 10.082 43.608 9.826 43.677 9.565 43.677 C 9.217 43.677 8.877 43.552 8.613 43.324 C 8.608 43.322 8.604 43.318 8.602 43.316 C 8.501 43.337 8.399 43.346 8.297 43.346 C 7.836 43.346 7.395 43.125 7.117 42.754 C 7.105 42.737 7.094 42.721 7.082 42.704 C 6.537 42.665 6.057 42.327 5.837 41.819 C 5.514 41.084 5.967 40.432 6.184 40.121 C 6.209 40.083 6.235 40.048 6.254 40.017 C 6.426 39.746 6.619 39.467 6.869 39.139 C 7.002 38.918 7.162 38.74 7.295 38.591 L 7.318 38.562 C 7.453 38.4 7.611 38.256 7.792 38.133 C 7.871 37.795 7.951 37.437 8.035 37.043 C 8.369 35.489 8.713 33.888 9.351 32.408 C 9.33 31.378 9.357 30.371 9.427 29.411 C 9.435 29.332 9.441 29.25 9.448 29.166 C 9.358 29.095 9.27 29.019 9.182 28.937 C 8.276 28.063 7.245 27.074 6.6 25.797 C 5.897 24.412 5.809 22.843 5.784 21.482 C 5.772 20.904 5.602 20.303 5.423 19.669 C 5.357 19.439 5.291 19.207 5.232 18.978 C 5.06 18.295 4.937 17.595 4.87 16.906 C 4.849 16.908 4.829 16.908 4.808 16.908 C 4.662 16.908 4.517 16.875 4.382 16.804 C 4.134 16.677 3.963 16.45 3.903 16.192 C 2.804 15.88 1.974 15.576 1.427 15.287 C 1.382 15.263 1.339 15.239 1.3 15.217 C 1.286 15.21 1.275 15.204 1.263 15.196 C 1.257 15.192 1.248 15.186 1.241 15.181 C 1.241 15.181 1.239 15.181 1.239 15.18 L 1.209 15.161 L 1.188 15.147 L 1.149 15.122 C 1.135 15.115 1.112 15.1 1.087 15.083 C 1.085 15.081 1.082 15.079 1.08 15.078 C 1.074 15.073 1.061 15.067 1.059 15.062 C 1.057 15.062 1.057 15.06 1.055 15.06 C 1.049 15.056 1.043 15.052 1.036 15.048 C 0.833 14.909 0.674 14.774 0.551 14.63 C 0.399 14.452 0.19 14.165 0.122 13.723 C 0.071 13.374 0.15 12.991 0.336 12.698 C 0.405 12.586 0.489 12.464 0.672 12.302 C 0.795 12.194 0.879 12.143 1.032 12.052 C 1.043 12.045 1.054 12.038 1.066 12.032 L 1.066 12.032 C 1.069 12.03 1.071 12.03 1.073 12.028 L 3.771 10.606 L 5.464 9.712 C 5.468 9.711 5.47 9.709 5.474 9.707 C 5.5 9.693 5.528 9.679 5.554 9.666 C 5.585 9.549 5.616 9.431 5.644 9.329 L 5.741 8.979 C 5.775 8.851 5.812 8.723 5.847 8.596 C 6.097 7.729 6.334 7.17 6.618 6.599 C 6.801 6.235 6.987 5.944 7.153 5.685 C 7.299 5.461 7.513 5.192 7.584 5.102 C 7.643 5.03 7.944 4.661 8.342 4.295 C 8.532 4.118 8.784 3.899 9.213 3.6 C 9.983 3.063 10.842 2.723 11.124 2.613 C 12.139 2.212 13.198 1.927 14.27 1.769 L 14.414 1.713 L 14.436 1.74 C 14.641 1.713 14.844 1.689 15.047 1.671 C 15.147 1.523 15.266 1.385 15.406 1.269 C 15.994 0.776 16.666 0.776 16.953 0.776 L 16.953 0.776 Z " stroke-width="1" fill="undefined"/>
          </g>
        </g>
        <g id="ID0.6571171078830957">
          <g id="ID0.22194609697908163">
            <path id="ID0.3118744008243084" fill="#8D5E1B" d="M 27.422 13.714 C 27.545 13.714 27.664 13.667 27.757 13.573 C 27.934 13.39 27.932 13.099 27.752 12.921 C 27.748 12.918 27.676 12.857 27.668 12.851 C 27.584 12.788 27.486 12.756 27.388 12.756 C 27.248 12.756 27.11 12.818 27.018 12.939 C 26.862 13.142 26.901 13.433 27.103 13.589 C 27.106 13.591 27.108 13.593 27.112 13.595 C 27.201 13.675 27.312 13.714 27.422 13.714 Z " stroke-width="1"/>
          </g>
          <g id="ID0.6355661093257368">
            <path id="ID0.2095760782249272" d="M 27.389 13.221 C 27.39 13.222 27.39 13.222 27.391 13.223 C 27.39 13.222 27.39 13.222 27.389 13.221 M 27.391 13.223 C 27.4 13.23 27.41 13.238 27.42 13.246 C 27.42 13.247 27.422 13.249 27.424 13.25 C 27.414 13.24 27.402 13.231 27.391 13.223 M 27.396 12.294 C 27.6 12.294 27.804 12.36 27.976 12.499 L 27.976 12.499 L 27.976 12.499 L 27.976 12.5 C 27.977 12.501 27.979 12.503 27.981 12.503 L 27.981 12.503 C 28.004 12.524 28.03 12.544 28.051 12.564 L 28.049 12.567 C 28.381 12.898 28.414 13.435 28.113 13.808 C 27.928 14.036 27.66 14.153 27.388 14.153 C 27.202 14.153 27.016 14.097 26.855 13.985 L 26.854 13.987 C 26.84 13.975 26.826 13.964 26.812 13.952 L 26.812 13.952 C 26.811 13.952 26.809 13.95 26.808 13.95 C 26.807 13.948 26.806 13.948 26.805 13.946 L 26.805 13.946 C 26.411 13.622 26.35 13.038 26.672 12.64 C 26.857 12.413 27.125 12.294 27.396 12.294 L 27.396 12.294 Z " stroke-width="1" fill="undefined"/>
          </g>
        </g>
      </g>
      <g id="ID0.21970798633992672">
        <g id="ID0.13987742876634002">
          <g id="ID0.1688368320465088">
            <path id="ID0.648662366438657" fill="#F6C7A0" d="M 10.545 38.742 C 9.758 38.356 8.561 38.528 8.061 39.134 C 8.049 39.152 8.039 39.165 8.026 39.183 C 7.893 39.329 7.756 39.478 7.662 39.648 C 7.451 39.927 7.246 40.212 7.058 40.505 C 6.898 40.757 6.57 41.125 6.708 41.443 C 6.798 41.65 7.01 41.786 7.241 41.769 C 7.46 41.752 7.622 41.453 7.733 41.29 C 7.901 41.047 8.061 40.787 8.233 40.539 C 8.251 40.515 8.266 40.493 8.284 40.47 C 8.182 40.709 8.089 40.951 8.003 41.198 C 7.905 41.478 7.671 41.915 7.88 42.189 C 8.015 42.371 8.251 42.453 8.474 42.381 C 8.683 42.318 8.773 41.985 8.843 41.803 C 8.948 41.531 9.046 41.241 9.157 40.957 C 9.188 40.877 9.223 40.799 9.259 40.722 C 9.204 41.017 9.159 41.314 9.128 41.609 C 9.097 41.907 8.967 42.381 9.23 42.603 C 9.404 42.75 9.654 42.779 9.855 42.661 C 10.044 42.551 10.058 42.21 10.084 42.015 C 10.127 41.722 10.156 41.416 10.201 41.119 C 10.234 40.891 10.283 40.671 10.324 40.447 C 10.492 40.397 10.588 41.206 10.617 41.307 C 10.646 41.414 10.681 41.514 10.761 41.596 C 10.873 41.711 11.076 41.743 11.227 41.694 C 11.53 41.593 11.504 41.338 11.481 41.085 C 11.457 40.808 11.448 40.526 11.393 40.254 C 11.354 40.051 11.352 39.793 11.256 39.594 C 11.162 39.192 10.895 38.913 10.545 38.742 Z " stroke-width="1"/>
          </g>
          <g id="ID0.13075723592191935">
            <path id="ID0.2887775870040059" fill="#F6C7A0" d="M 9.385 40.589 C 9.807 40.589 10.194 40.308 10.309 39.88 C 10.504 39.151 10.67 38.379 10.83 37.634 C 11.146 36.163 11.475 34.642 12.039 33.386 C 12.928 31.417 14.271 29.646 15.572 27.999 C 15.898 27.585 15.828 26.983 15.414 26.655 C 15.002 26.329 14.398 26.397 14.07 26.812 C 12.695 28.55 11.271 30.431 10.295 32.597 C 9.647 34.038 9.297 35.66 8.959 37.232 C 8.798 37.988 8.645 38.701 8.461 39.382 C 8.324 39.894 8.627 40.417 9.137 40.554 C 9.221 40.579 9.303 40.589 9.385 40.589 Z " stroke-width="1"/>
          </g>
        </g>
        <g id="ID0.6685051345266402">
          <path id="ID0.10518813040107489" fill="#704413" d="M 25.22 29.026 C 25.463 30.268 25.071 31.647 25.655 32.772 C 25.829 33.108 26.081 33.395 26.286 33.711 C 27.259 35.204 27.139 37.131 26.983 38.905 C 26.909 39.756 26.775 40.715 26.083 41.213 C 25.644 41.527 25.073 41.58 24.532 41.611 C 22.774 41.715 21.01 41.709 19.251 41.593 C 18.651 41.554 17.954 41.446 17.663 40.917 C 17.546 40.703 17.517 40.452 17.493 40.21 C 17.081 36.042 17.538 31.958 17.616 27.798 C 17.628 27.166 17.696 26.435 18.22 26.081 C 18.882 25.637 21.685 25.969 22.504 26.196 C 23.818 26.566 24.955 27.672 25.22 29.026 Z " stroke-width="1"/>
        </g>
        <g id="ID0.9058573953807354">
          <path id="ID0.696013345848769" fill="#704413" d="M 10.588 28.515 C 11.283 27.245 12.863 27.469 14.026 27.42 C 14.287 27.409 14.35 27.335 14.588 27.486 C 14.69 27.548 15.067 27.964 14.781 27.997 C 13.992 28.092 13.226 28.12 12.513 28.503 C 12.347 28.591 12.183 28.699 12.089 28.862 C 12.009 29.003 11.99 29.169 11.978 29.329 C 11.836 30.88 11.855 32.444 12.037 33.991 C 12.078 34.345 12.134 34.716 12.343 35.007 C 12.802 35.642 13.739 35.612 14.518 35.521 C 14.569 35.767 14.582 36.023 14.557 36.273 C 13.591 36.447 12.586 36.398 11.643 36.135 C 11.401 36.068 11.158 35.984 10.961 35.826 C 10.522 35.472 10.43 34.848 10.385 34.288 C 10.258 32.684 10.254 31.074 10.373 29.472 C 10.396 29.144 10.43 28.804 10.588 28.515 Z " stroke-width="1"/>
        </g>
        <g id="ID0.6035253652371466">
          <g id="ID0.9513064790517092">
            <path id="ID0.9501059823669493" fill="#F6C7A0" d="M 17.926 51.968 C 17.987 51.968 18.047 51.963 18.107 51.952 C 18.626 51.85 18.966 51.348 18.866 50.832 C 18.696 49.944 18.512 48.894 18.434 47.83 C 18.416 47.593 18.401 47.367 18.42 47.179 C 18.441 46.974 18.511 46.745 18.592 46.491 C 18.826 45.752 19.084 45.006 19.363 44.275 C 19.551 43.783 19.301 43.228 18.808 43.043 C 18.315 42.855 17.762 43.104 17.574 43.596 C 17.283 44.362 17.012 45.141 16.767 45.914 C 16.658 46.26 16.557 46.602 16.517 46.986 C 16.481 47.34 16.505 47.674 16.527 47.967 C 16.611 49.132 16.806 50.251 16.988 51.195 C 17.074 51.649 17.476 51.968 17.926 51.968 Z " stroke-width="1"/>
          </g>
          <g id="ID0.32774084340780973">
            <path id="ID0.29406153224408627" fill="#DDA949" d="M 19.742 44.157 C 19.367 44.893 19.061 45.668 18.828 46.462 C 17.916 46.528 16.986 46.331 16.181 45.9 C 16.461 45.189 16.768 44.488 17.101 43.796 C 17.196 43.603 17.301 43.398 17.489 43.29 " stroke-width="1"/>
          </g>
          <g id="ID0.2069536023773253">
            <path id="ID0.6058612680062652" fill="#FBD271" d="M 18.766 49.544 C 18.765 49.53 18.763 49.517 18.76 49.504 C 18.715 49.278 18.427 49.362 18.262 49.384 C 18.053 49.411 17.844 49.452 17.632 49.452 C 17.297 49.454 16.968 49.412 16.636 49.38 C 16.612 49.378 16.584 49.376 16.562 49.39 C 16.532 49.411 16.525 49.452 16.521 49.486 C 16.47 49.986 16.452 50.488 16.461 50.988 C 16.465 51.125 16.472 51.267 16.539 51.384 C 16.638 51.556 16.838 51.636 17.027 51.693 C 17.257 51.759 17.494 51.81 17.732 51.839 C 17.912 51.862 18.098 51.874 18.272 51.821 C 18.505 51.751 18.677 51.591 18.75 51.36 C 18.873 50.975 18.898 50.561 18.826 50.169 C 18.799 50.023 18.759 49.876 18.762 49.726 C 18.762 49.665 18.771 49.604 18.766 49.544 Z " stroke-width="1"/>
          </g>
          <g id="ID0.9710430125705898">
            <path id="ID0.8292132159695029" fill="#704413" d="M 14.41 51.838 C 14.375 51.851 14.338 51.86 14.303 51.874 C 14.084 51.946 13.865 52.053 13.723 52.233 C 13.617 52.365 13.557 52.528 13.522 52.694 C 13.485 52.88 13.479 53.085 13.58 53.246 C 13.686 53.417 13.89 53.503 14.086 53.552 C 14.485 53.652 14.903 53.638 15.314 53.603 C 16.134 53.536 16.946 53.382 17.752 53.234 C 18.15 53.16 18.619 53.081 18.951 52.83 C 19.004 52.789 19.055 52.74 19.08 52.679 C 19.102 52.623 19.103 52.561 19.103 52.498 C 19.103 52.088 19.076 51.678 19.021 51.269 C 18.975 50.929 18.957 50.599 18.914 50.259 C 18.906 50.185 18.886 50.095 18.815 50.068 C 18.719 50.031 18.507 50.101 18.408 50.119 C 18.246 50.14 18.084 50.163 17.924 50.183 C 17.795 50.202 17.658 50.206 17.541 50.154 C 17.463 50.117 17.397 50.054 17.328 50.006 C 17.138 49.867 16.897 49.799 16.662 49.818 C 16.558 49.826 16.447 49.853 16.377 49.931 C 16.225 50.103 16.307 50.437 16.26 50.652 C 16.207 50.882 16.092 51.131 15.879 51.256 C 15.416 51.526 14.914 51.673 14.41 51.838 Z " stroke-width="1"/>
          </g>
          <g id="ID0.2656330307945609">
            <path id="ID0.3587497705593705" fill="#6D3E1B" d="M 16.494 51.916 C 16.258 52.003 15.998 51.997 15.746 51.97 C 15.639 51.958 15.527 51.945 15.432 51.89 C 15.334 51.837 15.257 51.741 15.256 51.629 C 15.254 51.49 15.373 51.38 15.498 51.319 C 15.623 51.257 15.764 51.227 15.879 51.155 C 16.061 51.038 16.16 50.821 16.199 50.608 C 16.246 50.343 16.113 49.92 16.353 49.727 C 16.603 49.528 17.281 49.764 17.426 50.016 C 17.523 50.182 17.538 50.468 17.491 50.651 C 17.361 51.147 17.006 51.729 16.494 51.916 Z " stroke-width="1"/>
          </g>
          <g id="ID0.2842148318886757">
            <path id="ID0.9017592840828001" fill="#D49F65" d="M 17.34 51.261 C 17.397 51.261 17.453 51.234 17.485 51.181 C 17.534 51.101 17.509 50.995 17.429 50.949 C 17.064 50.722 16.666 50.553 16.252 50.447 C 16.162 50.425 16.067 50.476 16.043 50.568 C 16.02 50.66 16.074 50.754 16.166 50.775 C 16.549 50.876 16.914 51.031 17.25 51.238 C 17.277 51.253 17.309 51.261 17.34 51.261 Z " stroke-width="1"/>
          </g>
          <g id="ID0.5665643415413797">
            <path id="ID0.11307639721781015" fill="#D49F65" d="M 16.953 51.784 C 17.01 51.784 17.065 51.755 17.098 51.703 C 17.148 51.623 17.121 51.516 17.043 51.468 C 16.677 51.243 16.281 51.074 15.865 50.966 C 15.773 50.945 15.679 50.997 15.656 51.089 C 15.634 51.181 15.687 51.273 15.779 51.296 C 16.162 51.396 16.527 51.551 16.862 51.759 C 16.892 51.774 16.922 51.784 16.953 51.784 Z " stroke-width="1"/>
          </g>
        </g>
        <g id="ID0.7619138639420271">
          <path id="ID0.5616997480392456" fill="#F6C7A0" d="M 10.098 50.487 C 10.449 50.487 10.785 50.296 10.952 49.964 C 11.702 48.482 12.618 47.144 13.589 45.73 L 14.1 44.981 C 14.397 44.543 14.284 43.95 13.846 43.653 C 13.409 43.356 12.815 43.468 12.518 43.907 L 12.01 44.647 C 11.048 46.051 10.053 47.503 9.245 49.1 C 9.008 49.573 9.195 50.147 9.667 50.384 C 9.805 50.456 9.953 50.487 10.098 50.487 Z " stroke-width="1"/>
        </g>
        <g id="ID0.8526567970402539">
          <path id="ID0.108659986872226" fill="#DDA949" d="M 13.568 46.144 C 13.343 45.884 13.082 45.66 12.791 45.478 C 12.572 45.339 12.336 45.226 12.102 45.117 C 11.871 45.006 11.639 44.894 11.408 44.784 C 11.451 44.805 12.213 43.709 12.293 43.605 C 12.58 43.243 12.884 42.87 13.209 42.536 C 13.271 42.473 13.347 42.404 13.437 42.408 C 13.49 42.411 13.539 42.437 13.583 42.469 C 13.969 42.711 14.318 43.004 14.654 43.309 C 14.865 43.498 15.331 43.788 15.163 44.119 C 15.098 44.249 14.954 44.368 14.863 44.481 C 14.717 44.669 14.577 44.864 14.435 45.055 C 14.158 45.425 13.883 45.8 13.568 46.144 Z " stroke-width="1"/>
        </g>
        <g id="ID0.3471198775805533">
          <path id="ID0.9888900280930102" fill="#FBD271" d="M 11.635 48.872 C 11.658 48.821 11.672 48.768 11.662 48.726 C 11.654 48.695 11.635 48.664 11.615 48.636 C 11.472 48.443 11.281 48.288 11.091 48.138 C 10.795 47.908 10.5 47.673 10.182 47.476 C 10.061 47.404 9.979 47.4 9.889 47.499 C 9.78 47.622 9.666 47.739 9.559 47.864 C 9.348 48.106 9.147 48.356 8.955 48.616 C 8.873 48.723 8.793 48.843 8.773 48.979 C 8.746 49.172 8.855 49.36 8.97 49.52 C 9.113 49.713 9.267 49.897 9.437 50.067 C 9.566 50.196 9.707 50.319 9.875 50.381 C 10.103 50.469 10.336 50.446 10.535 50.309 C 10.865 50.08 11.139 49.772 11.322 49.413 C 11.387 49.288 11.449 49.165 11.524 49.046 C 11.559 49 11.604 48.937 11.635 48.872 Z " stroke-width="1"/>
        </g>
        <g id="ID0.2244265521876514">
          <path id="ID0.2959433691576123" fill="#704413" d="M 10.166 48.185 C 10.096 48.037 9.967 47.904 9.83 47.812 C 9.742 47.753 9.637 47.708 9.533 47.728 C 9.306 47.771 9.168 48.085 9 48.226 C 8.816 48.377 8.574 48.501 8.328 48.472 C 8.129 48.448 7.996 48.303 7.846 48.181 C 7.619 47.999 7.358 47.865 7.078 47.784 C 6.695 47.672 6.257 47.672 5.925 47.89 C 5.807 47.969 5.697 48.093 5.711 48.236 C 5.719 48.302 5.752 48.366 5.791 48.422 C 5.853 48.512 5.932 48.592 6.008 48.671 C 6.444 49.125 6.879 49.579 7.317 50.034 C 7.537 50.261 7.754 50.488 7.971 50.715 C 8.055 50.803 8.134 50.915 8.229 50.99 C 8.332 51.072 8.485 51.123 8.602 51.181 C 8.963 51.368 9.382 51.589 9.798 51.594 C 9.865 51.595 9.934 51.586 9.992 51.554 C 10.045 51.525 10.084 51.474 10.121 51.425 C 10.373 51.101 10.601 50.76 10.809 50.405 C 10.981 50.106 11.168 49.835 11.341 49.54 C 11.379 49.476 11.418 49.394 11.379 49.327 C 11.326 49.235 11.168 49.194 11.08 49.143 C 10.964 49.078 10.851 49.001 10.742 48.92 C 10.611 48.822 10.486 48.713 10.385 48.583 C 10.332 48.518 10.287 48.448 10.244 48.378 C 10.203 48.315 10.197 48.253 10.166 48.185 Z " stroke-width="1"/>
        </g>
        <g id="ID0.7167312554083765">
          <path id="ID0.7041333969682455" fill="#6D3E1B" d="M 8.586 49.147 C 8.369 48.979 8.182 48.774 8.033 48.543 C 8.002 48.496 7.972 48.438 8 48.389 C 8.061 48.284 8.305 48.382 8.393 48.391 C 8.61 48.412 8.819 48.298 8.979 48.156 C 9.131 48.018 9.215 47.823 9.367 47.682 C 9.549 47.509 9.772 47.641 9.946 47.77 C 10.09 47.876 10.227 47.998 10.307 48.158 C 10.33 48.207 10.35 48.259 10.35 48.313 C 10.35 48.43 10.264 48.559 10.223 48.667 C 10.176 48.788 10.08 48.898 9.977 48.979 C 9.641 49.239 9.143 49.522 8.744 49.257 C 8.688 49.226 8.637 49.188 8.586 49.147 Z " stroke-width="1"/>
        </g>
        <g id="ID0.04417878435924649">
          <path id="ID0.0037913434207439423" fill="#D49F65" d="M 9.744 49.36 C 9.748 49.36 9.754 49.36 9.759 49.358 C 9.854 49.348 9.922 49.266 9.914 49.172 C 9.887 48.873 9.768 48.704 9.629 48.509 C 9.492 48.317 9.238 48.071 9.007 47.996 C 8.918 47.969 8.82 48.016 8.791 48.103 C 8.762 48.193 8.811 48.29 8.898 48.32 C 9.041 48.367 9.244 48.554 9.349 48.707 C 9.486 48.895 9.554 49.004 9.574 49.202 C 9.582 49.294 9.656 49.36 9.744 49.36 Z " stroke-width="1"/>
        </g>
        <g id="ID0.9263018439523876">
          <path id="ID0.7084522363729775" fill="#D49F65" d="M 9.291 49.594 C 9.295 49.594 9.302 49.593 9.307 49.593 C 9.401 49.585 9.471 49.501 9.461 49.407 C 9.434 49.108 9.309 48.93 9.176 48.746 C 9.037 48.552 8.783 48.308 8.553 48.233 C 8.461 48.203 8.367 48.252 8.338 48.338 C 8.309 48.428 8.358 48.526 8.445 48.555 C 8.588 48.602 8.791 48.791 8.896 48.942 C 9.031 49.13 9.101 49.241 9.121 49.438 C 9.129 49.526 9.203 49.594 9.291 49.594 Z " stroke-width="1"/>
        </g>
        <g id="ID0.687765465117991">
          <path id="ID0.7898260490037501" fill="#381E02" d="M 9.486 51.408 C 9.535 51.473 9.582 51.543 9.627 51.612 C 9.242 51.585 8.863 51.466 8.529 51.272 C 8.355 51.17 8.183 51.102 8.021 50.969 C 7.853 50.83 7.703 50.671 7.55 50.514 C 6.904 49.833 6.179 49.186 5.691 48.377 C 5.666 48.334 5.646 48.268 5.689 48.242 C 5.717 48.224 5.751 48.242 5.779 48.258 C 6.101 48.444 6.388 48.682 6.673 48.92 C 7.315 49.456 7.975 49.973 8.602 50.522 C 8.912 50.796 9.234 51.078 9.486 51.408 Z " stroke-width="1"/>
        </g>
        <g id="ID0.7510161735117435">
          <path id="ID0.7709353705868125" fill="#FBD271" d="M 20.672 27.776 C 20.822 28.194 20.916 28.642 20.992 29.082 C 21.263 30.651 21.291 32.202 21.391 33.778 C 21.576 36.657 21.527 39.549 21.24 42.421 C 21.175 43.091 21.078 43.804 20.662 44.317 C 20.117 44.987 19.197 45.126 18.361 45.192 C 17.252 45.278 16.137 45.319 15.029 45.235 C 14.246 45.173 13.416 45.03 12.834 44.473 C 12.014 43.694 11.947 42.386 11.938 41.223 C 11.917 38.414 11.897 35.606 11.876 32.795 C 11.866 31.566 11.923 30.315 11.857 29.087 C 11.81 28.213 11.443 27.06 11.991 26.287 C 12.624 25.391 14.215 25.312 15.154 25.399 C 16.06 25.482 16.962 25.604 17.858 25.761 C 18.6 25.893 19.378 26.068 19.941 26.592 C 20.283 26.915 20.511 27.327 20.672 27.776 Z " stroke-width="1"/>
        </g>
        <g id="ID0.8113679164089262">
          <g id="ID0.18337309826165438">
            <g id="ID0.18544228980317712">
              <g id="ID0.8663554317317903">
                <path id="ID0.08107163477689028" fill="#A47D50" d="M 15.082 31.812 L 17.567 31.812 C 17.692 31.812 17.793 31.914 17.793 32.039 L 17.793 34.848 C 17.793 34.973 17.692 35.075 17.567 35.075 L 15.082 35.075 C 14.957 35.075 14.857 34.973 14.857 34.848 L 14.857 32.039 C 14.857 31.911 14.957 31.812 15.082 31.812 Z M 14.975 34.726 C 14.975 34.839 15.067 34.933 15.182 34.933 L 17.47 34.933 C 17.583 34.933 17.677 34.839 17.677 34.726 L 17.677 32.158 C 17.677 32.045 17.583 31.951 17.47 31.951 L 15.182 31.951 C 15.069 31.951 14.975 32.045 14.975 32.158 L 14.975 34.726 Z " stroke-width="1"/>
              </g>
            </g>
            <g id="ID0.11700703948736191">
              <g id="ID0.6534342053346336">
                <path id="ID0.5773357190191746" fill="#DDA949" d="M 16.685 32.961 L 16.605 32.961 L 16.605 34.983 L 16.685 34.983 L 16.685 32.961 Z " stroke-width="1"/>
              </g>
              <g id="ID0.42823688546195626">
                <path id="ID0.21244059735909104" fill="#DDA949" d="M 16.045 32.961 L 15.965 32.961 L 15.965 34.983 L 16.045 34.983 L 16.045 32.961 Z " stroke-width="1"/>
              </g>
            </g>
            <g id="ID0.47108534537255764">
              <path id="ID0.7447577896527946" fill="#DDA949" d="M 14.908 32.823 C 14.939 32.838 14.98 32.829 15.015 32.827 C 15.244 32.815 15.474 32.798 15.703 32.819 C 15.873 32.834 16.099 32.899 16.232 33.008 C 16.24 33.016 16.254 33.028 16.271 33.039 C 16.287 33.055 16.305 33.07 16.322 33.088 C 16.34 33.07 16.357 33.055 16.375 33.039 C 16.391 33.025 16.404 33.016 16.412 33.008 C 16.545 32.899 16.772 32.831 16.943 32.819 C 17.172 32.798 17.402 32.815 17.631 32.827 C 17.665 32.829 17.708 32.838 17.739 32.823 C 17.728 32.86 17.724 32.909 17.733 32.948 C 17.643 32.94 17.549 32.93 17.458 32.927 C 17.261 32.917 17.083 32.914 16.888 32.948 C 16.755 32.969 16.624 33.007 16.512 33.087 C 16.488 33.105 16.408 33.199 16.344 33.222 C 16.342 33.222 16.339 33.224 16.337 33.226 C 16.331 33.226 16.327 33.224 16.323 33.226 C 16.317 33.224 16.313 33.226 16.308 33.226 C 16.306 33.224 16.303 33.222 16.301 33.222 C 16.237 33.201 16.156 33.105 16.132 33.087 C 16.021 33.007 15.89 32.97 15.757 32.948 C 15.56 32.916 15.384 32.919 15.187 32.927 C 15.095 32.933 15 32.943 14.912 32.948 C 14.922 32.909 14.918 32.86 14.908 32.823 Z " stroke-width="1"/>
            </g>
          </g>
          <g id="ID0.008456718642264605">
            <path id="ID0.33992608124390244" fill="#DDA949" d="M 16.324 32.384 C 16.252 32.384 16.187 32.413 16.14 32.46 C 16.093 32.507 16.064 32.572 16.064 32.644 C 16.064 32.716 16.093 32.781 16.14 32.828 C 16.187 32.875 16.252 32.904 16.324 32.904 C 16.396 32.904 16.461 32.875 16.508 32.828 C 16.555 32.781 16.584 32.716 16.584 32.644 C 16.584 32.572 16.555 32.507 16.508 32.46 C 16.461 32.413 16.396 32.384 16.324 32.384 Z " stroke-width="1"/>
          </g>
        </g>
        <g id="ID0.5292155011557043">
          <g id="ID0.9101162785664201">
            <g id="ID0.5624540667049587">
              <g id="ID0.5960446931421757">
                <path id="ID0.7811994906514883" fill="#A47D50" d="M 12.121 31.812 L 13.051 31.812 C 13.132 31.812 13.197 31.876 13.197 31.958 L 13.197 34.927 C 13.197 35.007 13.132 35.073 13.051 35.073 L 12.121 35.073 C 12.041 35.073 11.975 35.009 11.975 34.927 L 11.975 31.958 C 11.977 31.876 12.041 31.812 12.121 31.812 Z M 12.023 34.798 C 12.023 34.871 12.084 34.933 12.158 34.933 L 13.013 34.933 C 13.086 34.933 13.148 34.872 13.148 34.798 L 13.148 32.082 C 13.148 32.009 13.086 31.948 13.013 31.948 L 12.158 31.948 C 12.084 31.948 12.023 32.008 12.023 32.082 L 12.023 34.798 Z " stroke-width="1"/>
              </g>
            </g>
            <g id="ID0.8857494699768722">
              <g id="ID0.26390262227505445">
                <path id="ID0.013770315796136856" fill="#DDA949" d="M 12.736 32.961 L 12.703 32.961 L 12.703 34.983 L 12.736 34.983 L 12.736 32.961 Z " stroke-width="1"/>
              </g>
              <g id="ID0.32376202661544085">
                <path id="ID0.09991898434236646" fill="#DDA949" d="M 12.471 32.961 L 12.436 32.961 L 12.436 34.983 L 12.471 34.983 L 12.471 32.961 Z " stroke-width="1"/>
              </g>
            </g>
            <g id="ID0.34367029182612896">
              <path id="ID0.8128748056478798" fill="#DDA949" d="M 11.996 32.823 C 12.01 32.838 12.027 32.829 12.041 32.827 C 12.137 32.815 12.232 32.798 12.328 32.819 C 12.398 32.834 12.494 32.899 12.549 33.008 C 12.553 33.016 12.559 33.028 12.565 33.039 C 12.574 33.055 12.58 33.07 12.586 33.088 C 12.593 33.07 12.6 33.055 12.607 33.039 C 12.613 33.025 12.62 33.016 12.622 33.008 C 12.68 32.899 12.771 32.831 12.844 32.819 C 12.94 32.798 13.034 32.815 13.13 32.827 C 13.145 32.829 13.161 32.838 13.176 32.823 C 13.171 32.86 13.169 32.909 13.173 32.948 C 13.137 32.94 13.098 32.93 13.059 32.927 C 12.977 32.917 12.905 32.914 12.823 32.948 C 12.766 32.969 12.714 33.007 12.667 33.087 C 12.657 33.105 12.624 33.199 12.599 33.222 C 12.597 33.222 12.597 33.224 12.595 33.226 C 12.593 33.226 12.591 33.224 12.589 33.226 C 12.587 33.224 12.585 33.226 12.583 33.226 C 12.581 33.224 12.581 33.222 12.579 33.222 C 12.553 33.201 12.518 33.105 12.509 33.087 C 12.464 33.007 12.409 32.97 12.355 32.948 C 12.273 32.916 12.199 32.919 12.118 32.927 C 12.079 32.933 12.04 32.943 12.003 32.948 C 12.004 32.909 12.002 32.86 11.996 32.823 Z " stroke-width="1"/>
            </g>
          </g>
          <g id="ID0.14329090807586908">
            <path id="ID0.9608155940659344" fill="#DDA949" d="M 12.586 32.384 C 12.556 32.384 12.53 32.413 12.51 32.46 C 12.491 32.507 12.479 32.572 12.479 32.644 C 12.479 32.716 12.491 32.781 12.51 32.828 C 12.53 32.875 12.556 32.904 12.586 32.904 C 12.616 32.904 12.642 32.875 12.662 32.828 C 12.681 32.781 12.693 32.716 12.693 32.644 C 12.693 32.572 12.681 32.507 12.662 32.46 C 12.642 32.413 12.616 32.384 12.586 32.384 Z " stroke-width="1"/>
          </g>
        </g>
        <g id="ID0.8825476886704564">
          <path id="ID0.770533979870379" fill="#DDA949" d="M 19.39 29.194 C 19.582 29.211 19.772 29.256 19.95 29.337 C 20.21 29.448 20.407 29.664 20.614 29.855 C 20.786 30.01 21.016 30.125 21.122 30.334 C 21.237 30.567 21.389 30.778 21.487 31.022 C 21.497 31.045 21.507 31.078 21.493 31.1 C 21.483 31.121 21.464 31.129 21.444 31.137 C 21.341 31.186 21.237 31.233 21.134 31.282 C 21.074 31.307 21.011 31.338 20.946 31.332 C 20.889 31.327 20.839 31.296 20.79 31.267 C 20.144 30.868 19.536 30.406 18.978 29.886 C 18.928 29.84 18.877 29.792 18.849 29.73 C 18.814 29.648 18.825 29.552 18.834 29.464 C 18.841 29.409 18.848 29.353 18.877 29.306 C 18.934 29.22 19.049 29.199 19.152 29.193 C 19.232 29.188 19.312 29.188 19.39 29.194 Z " stroke-width="1"/>
        </g>
        <g id="ID0.8671836955472827">
          <path id="ID0.6503129070624709" fill="#DDA949" d="M 17.172 41.379 C 18.568 41.433 20.008 41.159 21.382 40.691 C 21.343 41.269 21.299 41.844 21.24 42.42 C 21.175 43.09 21.078 43.803 20.662 44.316 C 20.117 44.986 19.197 45.126 18.361 45.191 C 17.252 45.279 16.137 45.318 15.029 45.234 C 14.246 45.173 13.416 45.029 12.834 44.474 C 12.014 43.693 11.947 42.386 11.938 41.224 C 11.938 41.07 11.936 40.914 11.934 40.758 C 13.664 41.104 15.416 41.313 17.172 41.379 Z " stroke-width="1"/>
        </g>
        <g id="ID0.7949431138113141">
          <g id="ID0.9183351527899504">
            <path id="ID0.22788043087348342" fill="#B37A2C" d="M 18.084 41.169 C 18.037 41.569 18.047 41.98 18.111 42.378 C 18.127 42.468 18.143 42.56 18.189 42.64 C 18.263 42.773 18.402 42.857 18.543 42.919 C 19.143 43.183 19.832 43.128 20.474 42.996 C 20.239 43.134 19.957 43.177 19.684 43.184 C 19.202 43.203 18.715 43.12 18.264 42.946 C 18.168 42.91 18.071 42.866 18.004 42.788 C 17.932 42.7 17.91 42.583 17.891 42.472 C 17.829 42.085 17.787 41.697 17.767 41.302 " stroke-width="1"/>
          </g>
          <g id="ID0.11479673720896244">
            <path id="ID0.457944814581424" fill="#B37A2C" d="M 15.451 44.817 C 15.127 43.891 15.039 42.905 15.064 41.93 C 15.066 41.835 15.039 41.315 15.121 41.285 C 15.309 41.221 15.225 41.687 15.223 41.742 C 15.186 42.234 15.164 42.726 15.188 43.221 C 15.213 43.755 15.273 44.313 15.451 44.817 Z " stroke-width="1"/>
          </g>
          <g id="ID0.6555244359187782">
            <path id="ID0.7071917494758964" fill="#B37A2C" d="M 14.369 43.192 C 14.373 43.391 14.387 43.598 14.469 43.786 C 14.582 44.043 14.821 44.224 15.061 44.371 C 14.713 44.344 14.434 44.052 14.313 43.725 C 14.194 43.399 14.201 43.039 14.209 42.694 C 14.217 42.432 14.225 42.173 14.23 41.912 C 14.236 41.727 14.189 41.45 14.261 41.283 C 14.457 41.369 14.414 41.762 14.402 41.925 C 14.367 42.347 14.357 42.771 14.369 43.192 Z " stroke-width="1"/>
          </g>
        </g>
        <g id="ID0.38144300831481814">
          <path id="ID0.07338536530733109" fill="#FBD271" d="M 21.369 37.812 C 21.527 38.478 21.686 39.142 21.846 39.808 C 21.912 40.087 21.972 40.412 21.799 40.642 C 21.716 40.753 21.591 40.824 21.467 40.883 C 20.443 41.383 19.265 41.443 18.123 41.449 C 16.227 41.464 14.33 41.367 12.447 41.159 C 12.195 41.132 11.941 41.1 11.705 41.013 C 11.643 40.992 11.582 40.962 11.537 40.916 C 11.42 40.795 11.447 40.601 11.482 40.437 C 11.685 39.484 11.89 38.529 12.095 37.575 " stroke-width="1"/>
        </g>
        <g id="ID0.8703979402780533">
          <g id="ID0.4699549423530698">
            <path id="ID0.43145778495818377" fill="#F6C7A0" d="M 23.918 39.001 C 24.705 38.616 25.902 38.788 26.402 39.394 C 26.414 39.412 26.426 39.425 26.438 39.441 C 26.57 39.587 26.707 39.738 26.802 39.909 C 27.013 40.187 27.219 40.472 27.406 40.765 C 27.566 41.017 27.895 41.384 27.757 41.703 C 27.666 41.91 27.455 42.044 27.223 42.028 C 27.004 42.012 26.842 41.711 26.73 41.549 C 26.563 41.308 26.401 41.045 26.23 40.797 C 26.213 40.775 26.198 40.752 26.18 40.73 C 26.282 40.969 26.377 41.211 26.461 41.457 C 26.559 41.738 26.791 42.174 26.584 42.448 C 26.449 42.63 26.213 42.712 25.99 42.642 C 25.781 42.578 25.691 42.246 25.621 42.064 C 25.515 41.79 25.416 41.501 25.307 41.217 C 25.275 41.138 25.241 41.06 25.205 40.98 C 25.26 41.277 25.305 41.575 25.336 41.87 C 25.369 42.167 25.498 42.642 25.236 42.863 C 25.061 43.01 24.812 43.038 24.611 42.921 C 24.422 42.811 24.408 42.469 24.382 42.275 C 24.339 41.982 24.309 41.675 24.265 41.379 C 24.23 41.152 24.182 40.93 24.142 40.707 C 23.974 40.658 23.878 41.465 23.849 41.568 C 23.818 41.673 23.785 41.773 23.704 41.855 C 23.593 41.972 23.39 42.003 23.239 41.955 C 22.936 41.853 22.962 41.598 22.985 41.344 C 23.009 41.069 23.017 40.786 23.073 40.514 C 23.112 40.311 23.114 40.053 23.21 39.854 C 23.3 39.452 23.568 39.172 23.918 39.001 Z " stroke-width="1"/>
          </g>
          <g id="ID0.42793869506567717">
            <path id="ID0.8185866461135447" fill="#F6C7A0" d="M 25.078 40.849 C 25.16 40.849 25.242 40.838 25.326 40.816 C 25.836 40.679 26.138 40.157 26.002 39.644 C 25.82 38.96 25.666 38.248 25.502 37.492 C 25.164 35.924 24.816 34.302 24.166 32.861 C 23.19 30.695 21.767 28.812 20.392 27.074 C 20.065 26.659 19.461 26.59 19.049 26.918 C 18.634 27.244 18.563 27.846 18.891 28.261 C 20.192 29.908 21.536 31.682 22.422 33.651 C 22.988 34.905 23.316 36.424 23.632 37.895 C 23.791 38.641 23.957 39.414 24.154 40.143 C 24.269 40.565 24.654 40.849 25.078 40.849 Z " stroke-width="1"/>
          </g>
        </g>
        <g id="ID0.40269186440855265">
          <path id="ID0.5059802499599755" fill="#FBD271" d="M 18.734 26.942 C 18.822 26.78 18.931 26.62 19.092 26.53 C 19.306 26.41 19.571 26.431 19.807 26.505 C 20.466 26.71 20.951 27.258 21.399 27.782 C 21.695 28.126 22.037 28.464 22.281 28.844 C 22.513 29.205 22.74 29.546 23.043 29.859 C 22.307 30.299 21.606 30.803 20.955 31.365 C 20.439 30.804 19.941 30.23 19.459 29.644 C 19.136 29.248 18.736 28.892 18.513 28.423 C 18.279 27.935 18.488 27.399 18.734 26.942 Z " stroke-width="1"/>
        </g>
        <g id="ID0.5883217020891607">
          <path id="ID0.9102903841994703" fill="#DDA949" d="M 16.261 31.349 C 17 30.627 17.668 29.824 18.25 28.953 C 18.847 28.062 19.324 27.108 19.91 26.212 C 19.727 26.237 19.578 26.057 19.396 26.021 C 19.291 26 19.182 26.031 19.08 26.06 C 17.461 26.543 15.937 27.331 14.427 28.112 C 14.406 28.124 14.387 28.133 14.375 28.155 C 14.363 28.183 14.375 28.217 14.389 28.247 C 14.5 28.479 14.682 28.635 14.811 28.851 C 14.977 29.13 15.117 29.431 15.276 29.714 C 15.357 29.862 16.271 31.337 16.261 31.349 Z " stroke-width="1"/>
        </g>
        <g id="ID0.279533120803535">
          <path id="ID0.9858683552592993" fill="#DDA949" d="M 12.229 31.132 C 12.253 31.079 12.024 30.657 11.995 30.586 C 11.921 30.401 11.849 30.214 11.782 30.026 C 11.639 29.63 11.514 29.227 11.407 28.822 C 11.296 28.41 11.216 27.992 11.126 27.574 C 11.044 27.192 10.948 26.845 10.997 26.446 C 11.923 27.063 12.794 27.782 13.594 28.59 C 13.115 29.419 12.646 30.261 12.229 31.132 Z " stroke-width="1"/>
        </g>
        <g id="ID0.8664807132445276">
          <path id="ID0.503301044460386" fill="#C7886C" d="M 14.574 27.143 C 14.402 29.423 14.164 31.686 13.865 33.923 C 13.666 31.472 13.508 29.011 13.42 26.548 " stroke-width="1"/>
        </g>
        <g id="ID0.11756279319524765">
          <path id="ID0.5555410454981029" fill="#704413" d="M 17.662 28.515 C 18.356 27.245 19.935 27.469 21.098 27.42 C 21.359 27.409 21.422 27.335 21.66 27.486 C 21.762 27.548 22.139 27.964 21.854 27.997 C 21.064 28.092 20.301 28.12 19.587 28.503 C 19.421 28.591 19.256 28.699 19.161 28.862 C 19.083 29.003 19.064 29.169 19.05 29.329 C 18.909 30.88 18.928 32.444 19.109 33.991 C 19.15 34.345 19.207 34.716 19.416 35.007 C 19.873 35.642 20.812 35.612 21.59 35.521 C 21.642 35.767 21.654 36.023 21.629 36.273 C 20.662 36.447 19.66 36.398 18.715 36.135 C 18.473 36.068 18.23 35.984 18.033 35.826 C 17.595 35.472 17.502 34.848 17.459 34.288 C 17.332 32.684 17.326 31.074 17.447 29.472 C 17.472 29.144 17.504 28.804 17.662 28.515 Z " stroke-width="1"/>
        </g>
        <g id="ID0.9033877225592732">
          <g id="ID0.6023680549114943">
            <g id="ID0.786423219833523">
              <path id="ID0.15024419920518994" fill="#B37A2C" d="M 1.422 13.658 C 2.218 13.096 6.203 13.015 12.004 13.542 C 19.904 14.259 28.18 15.828 30.488 17.048 C 30.619 17.117 30.726 17.183 30.814 17.247 L 30.813 17.247 C 30.887 17.302 30.949 17.353 30.992 17.405 L 30.992 17.405 C 31.646 18.305 27.309 18.548 20.355 17.917 C 12.473 17.202 4.216 15.636 1.914 14.421 C 1.332 14.112 1.188 13.856 1.422 13.658 Z " stroke-width="1"/>
            </g>
            <g id="ID0.647830265108496">
              <path id="ID0.013680507894605398" fill="#FBD271" d="M 1.404 13.671 C 1.416 13.661 1.429 13.651 1.441 13.642 C 1.177 13.843 1.316 14.105 1.914 14.421 C 4.218 15.637 12.475 17.202 20.356 17.917 C 27.352 18.552 31.701 18.303 30.982 17.39 C 30.992 17.403 31.002 17.415 31.011 17.427 C 31.731 18.343 27.372 18.592 20.361 17.956 C 12.461 17.239 4.186 15.671 1.879 14.452 C 1.277 14.134 1.141 13.873 1.404 13.671 Z " stroke-width="1"/>
            </g>
          </g>
          <g id="ID0.33670565113425255">
            <path id="ID0.5032529938034713" fill="#F6C7A0" d="M 14.379 6.75 C 14.75 6.729 15.117 6.735 15.481 6.759 C 15.838 6.697 16.205 6.654 16.576 6.632 C 21.631 6.362 25.947 10.239 26.217 15.293 C 26.276 16.393 26.135 17.505 25.756 18.54 C 25.457 19.358 25.035 20.399 24.17 20.728 C 23.611 20.942 23.052 21.138 22.494 21.339 C 22.336 21.937 22.17 22.531 21.998 23.124 C 21.722 24.072 21.395 25.065 20.654 25.719 C 20.225 26.097 19.691 26.329 19.166 26.556 C 17.735 27.173 16.301 27.79 14.813 28.264 C 14.08 28.497 13.289 28.766 12.518 28.848 C 11.502 28.957 10.645 29.028 9.844 28.255 C 8.946 27.391 8.018 26.493 7.446 25.367 C 6.842 24.172 6.758 22.77 6.731 21.453 C 6.713 20.525 6.379 19.636 6.151 18.735 C 5.793 17.322 5.639 15.756 5.841 14.307 C 6.424 10.153 10.283 6.969 14.379 6.75 Z " stroke-width="1"/>
          </g>
          <g id="ID0.8385917143896222">
            <path id="ID0.9609372108243406" fill="#DF6736" d="M 25.593 14.143 C 25.414 14.037 25.234 13.935 25.049 13.84 C 24.601 13.611 24.211 13.317 23.778 13.083 C 22.728 12.521 21.167 12.711 20.066 12.989 C 19.902 13.03 19.728 13.087 19.626 13.219 C 19.542 13.326 19.519 13.469 19.497 13.605 C 19.317 14.732 18.911 15.748 18.864 16.887 C 18.858 17.043 18.856 17.206 18.93 17.343 C 19.073 17.608 19.405 17.671 19.65 17.795 C 19.995 17.969 20.308 18.182 20.665 18.334 C 20.606 18.938 20.585 19.547 20.604 20.153 C 22.012 20.043 23.495 19.944 24.775 20.541 C 25.075 19.984 25.499 19.555 25.842 19.027 C 26.338 18.263 26.586 17.361 26.697 16.465 C 26.746 16.082 26.77 15.688 26.672 15.316 C 26.527 14.761 26.062 14.425 25.593 14.143 Z " stroke-width="1"/>
          </g>
          <g id="ID0.7398319011554122">
            <path id="ID0.009936769027262926" fill="#DF6736" d="M 10.111 10.455 C 11.244 10.405 12.318 10.507 13.439 10.64 C 13.933 10.699 14.414 10.653 14.914 10.78 C 15.426 10.909 15.914 11.11 16.414 11.269 C 17.345 11.567 18.261 11.937 19.078 12.479 C 19.557 12.796 20.015 13.192 20.238 13.719 C 19.312 14.05 18.42 14.472 17.576 14.976 C 18.045 14.335 18.545 13.716 19.067 13.122 C 18.586 13.215 18.143 13.443 17.707 13.665 C 16.603 14.227 15.478 14.767 14.281 15.087 C 13.086 15.409 11.804 15.505 10.609 15.178 C 11.73 14.839 12.66 13.925 13.015 12.81 C 12.209 13.462 11.343 14.086 10.502 14.679 C 9.681 15.26 8.293 15.403 7.315 15.421 C 6.44 15.441 5.449 15.359 4.819 15.968 C 5.008 14.734 5.217 13.447 5.949 12.434 C 6.884 11.144 8.525 10.522 10.111 10.455 Z " stroke-width="1"/>
          </g>
          <g id="ID0.5477157006971538">
            <path id="ID0.17977990908548236" fill="#9F6B4F" d="M 11.6 22.823 C 11.739 22.844 11.881 22.841 12.016 22.823 C 12.092 22.812 12.17 22.794 12.225 22.739 C 12.28 22.685 12.297 22.589 12.246 22.534 C 12.203 22.487 12.131 22.485 12.067 22.485 C 11.987 22.487 11.908 22.487 11.826 22.489 C 11.705 22.49 11.58 22.491 11.465 22.454 C 11.109 22.338 11.069 21.827 11.441 21.695 C 11.58 21.645 11.775 21.598 11.847 21.469 C 11.879 21.411 11.892 21.344 11.894 21.278 C 11.894 21.204 11.883 21.123 11.832 21.059 C 11.817 21.041 11.8 21.026 11.776 21.017 C 11.755 21.007 11.727 21.009 11.713 21.024 C 11.692 21.04 11.692 21.067 11.692 21.091 C 11.69 21.196 11.688 21.392 11.579 21.446 C 11.452 21.509 11.286 21.489 11.163 21.574 C 11.044 21.655 10.956 21.733 10.911 21.868 C 10.809 22.169 10.975 22.544 11.286 22.718 C 11.381 22.772 11.488 22.808 11.6 22.823 Z " stroke-width="1"/>
          </g>
          <g id="ID0.46135677862912416">
            <path id="ID0.805304916575551" fill="#090503" d="M 11.141 25.503 C 11.5 25.86 11.983 26.098 12.483 26.166 C 13.125 26.254 13.78 26.084 14.334 25.755 C 14.949 25.391 15.188 24.839 15.375 24.167 C 15.476 23.815 15.479 23.433 15.351 23.092 C 15.332 23.046 15.312 22.999 15.273 22.971 C 15.205 22.919 15.105 22.944 15.025 22.972 C 14.675 23.098 14.361 23.298 14.023 23.447 C 13.701 23.589 13.367 23.681 13.021 23.757 C 12.232 23.926 11.379 23.957 10.578 23.864 C 10.572 23.864 10.617 24.321 10.621 24.377 C 10.652 24.693 10.697 24.923 10.886 25.195 C 10.957 25.305 11.045 25.408 11.141 25.503 Z " stroke-width="1"/>
          </g>
          <g id="ID0.14766826247796416">
            <g id="ID0.3434047340415418">
              <g id="ID0.5189697085879743">
                <path id="ID0.15722584910690784" fill="#FFFFFF" d="M 17.922 19.303 C 18.014 20.436 17.166 21.423 16.029 21.513 C 14.897 21.601 13.908 20.757 13.819 19.624 C 13.727 18.494 14.577 17.505 15.71 17.415 C 16.842 17.326 17.834 18.172 17.922 19.303 Z " stroke-width="1"/>
              </g>
            </g>
            <g id="ID0.18936519138514996">
              <path id="ID0.8659559339284897" fill="#090503" d="M 17.285 19.978 C 17.262 20.015 17.228 20.048 17.192 20.074 C 16.555 20.511 15.871 20.068 15.869 19.468 C 15.871 19.032 16.222 18.679 16.658 18.68 C 17.256 18.671 17.701 19.343 17.285 19.978 Z " stroke-width="1"/>
            </g>
          </g>
          <g id="ID0.6782365092076361">
            <g id="ID0.48834855714812875">
              <g id="ID0.562134884763509">
                <path id="ID0.8898205417208374" fill="#FFFFFF" d="M 11.221 19.303 C 11.313 20.436 10.463 21.423 9.328 21.513 C 8.195 21.601 7.205 20.757 7.117 19.624 C 7.025 18.494 7.873 17.505 9.008 17.415 C 10.143 17.326 11.133 18.172 11.221 19.303 Z " stroke-width="1"/>
              </g>
            </g>
            <g id="ID0.1144957048818469">
              <path id="ID0.048945795744657516" fill="#090503" d="M 10.586 19.978 C 10.561 20.015 10.529 20.048 10.492 20.074 C 9.855 20.511 9.17 20.068 9.168 19.468 C 9.17 19.032 9.522 18.679 9.957 18.68 C 10.555 18.671 11.002 19.343 10.586 19.978 Z " stroke-width="1"/>
            </g>
          </g>
          <g id="ID0.19675916526466608">
            <g id="ID0.8760922197252512">
              <path id="ID0.21369384601712227" fill="#F6C7A0" d="M 25.703 20.974 C 25.484 21.465 25.209 21.817 24.77 22.115 C 24.07 22.594 23.108 22.697 22.383 22.195 C 21.831 21.813 21.913 21.335 21.928 20.741 C 21.945 20.137 22.068 19.552 22.137 18.95 C 22.163 18.721 22.156 18.476 22.266 18.269 C 22.495 17.844 23.051 17.835 23.471 17.835 C 24.374 17.837 25.488 18.179 25.817 19.125 C 26.027 19.726 25.961 20.393 25.703 20.974 Z " stroke-width="1"/>
            </g>
            <g id="ID0.9666497623547912">
              <path id="ID0.4646323309279978" fill="#C7886C" d="M 22.591 19.178 C 22.947 18.761 23.514 18.586 24.101 18.725 C 24.414 18.798 24.732 18.961 24.941 19.212 C 25.264 19.6 25.292 20.167 25.12 20.626 C 25.06 20.784 24.937 21.161 24.696 21.099 C 24.378 21.017 24.648 20.542 24.665 20.349 C 24.687 20.05 24.442 19.454 24.052 19.621 C 23.868 19.699 23.722 20.003 23.734 20.192 C 23.746 20.375 23.923 20.501 23.998 20.656 C 24.254 21.186 23.853 21.665 23.32 21.694 C 22.957 21.715 22.644 21.544 22.455 21.238 C 22.183 20.8 22.148 20.249 22.287 19.759 C 22.348 19.533 22.453 19.337 22.591 19.178 Z " stroke-width="1"/>
            </g>
          </g>
          <g id="ID0.33916148403659463">
            <g id="ID0.6154134324751794">
              <path id="ID0.6017563357017934" fill="#DDA949" d="M 15.684 2.575 C 15.701 2.441 15.766 2.185 16.014 1.977 C 16.337 1.705 16.735 1.706 16.997 1.706 C 17.601 1.707 18.521 1.834 19.052 1.986 C 19.364 2.077 19.597 2.215 19.743 2.398 C 19.993 2.708 19.97 2.984 19.958 3.117 L 19.958 3.117 L 19.95 3.181 C 19.954 3.158 19.926 3.128 19.864 3.096 C 19.534 2.92 18.347 2.697 17.214 2.594 C 16.292 2.509 15.691 2.533 15.677 2.639 L 15.684 2.575 Z " stroke-width="1"/>
            </g>
            <g id="ID0.8394719497300684">
              <g id="ID0.6806668392382562">
                <path id="ID0.9180525010451674" fill="#FBD271" d="M 27.05 13.128 C 27.055 11.875 27.022 11.086 27.022 11.081 C 26.997 10.69 26.96 10.157 26.806 9.458 C 26.722 9.077 26.655 8.876 26.543 8.542 C 26.483 8.361 26.393 8.155 26.306 7.956 C 26.142 7.581 25.843 7.087 25.66 6.843 C 25.387 6.478 25.127 6.132 24.498 5.579 C 24.399 5.491 23.859 5.028 22.957 4.465 C 22.656 4.277 22.033 3.911 21.227 3.567 C 20.377 3.203 19.683 3.017 19.422 2.949 C 18.891 2.81 18.037 2.671 17.211 2.595 C 16.826 2.56 16.498 2.544 16.244 2.544 C 15.627 2.55 13.752 2.57 11.478 3.468 C 11.22 3.571 10.437 3.88 9.759 4.355 C 9.375 4.624 9.154 4.819 8.986 4.972 C 8.615 5.314 8.33 5.669 8.326 5.673 C 8.264 5.753 8.068 5.997 7.949 6.183 C 7.789 6.429 7.625 6.685 7.467 7.004 C 7.199 7.545 6.988 8.042 6.758 8.845 C 6.723 8.969 6.688 9.094 6.653 9.219 C 6.623 9.333 6.591 9.448 6.559 9.564 C 6.463 9.92 6.317 10.495 6.315 10.499 C 6.442 10 9.348 9.895 13.774 10.296 C 19.27 10.794 25.026 11.886 26.631 12.734 C 26.916 12.882 27.051 13.015 27.05 13.128 Z " stroke-width="1"/>
              </g>
            </g>
            <g id="ID0.9336166931316257">
              <g id="ID0.947258725296706">
                <path id="ID0.9690087051130831" fill="#FBD271" d="M 30.506 18.026 C 30.619 17.99 30.77 17.936 30.881 17.89 C 30.932 17.869 30.998 17.831 31.043 17.799 C 31.139 17.734 31.283 17.633 31.369 17.424 C 31.435 17.266 31.49 16.949 31.106 16.595 C 31.006 16.502 30.859 16.407 30.664 16.303 C 28.344 15.076 20.019 13.498 12.074 12.779 C 6.428 12.266 2.492 12.326 1.517 12.841 C 1.386 12.919 1.359 12.936 1.304 12.986 C 1.203 13.075 1.174 13.122 1.136 13.182 C 1.08 13.271 1.033 13.427 1.056 13.578 C 1.084 13.766 1.16 13.889 1.271 14.016 C 1.414 14.18 1.656 14.328 1.748 14.381 C -0.248 13.218 4.262 12.84 12.004 13.543 C 19.904 14.26 28.18 15.828 30.488 17.048 C 31.311 17.481 31.264 17.813 30.506 18.026 Z " stroke-width="1"/>
              </g>
            </g>
            <g id="ID0.9370603300631046">
              <path id="ID0.16963000455871224" fill="#DDA949" d="M 5.922 10.522 C 5.945 10.51 5.977 10.5 6.004 10.488 C 5.977 10.499 5.945 10.51 5.922 10.522 C 6.367 10.289 6.852 10.207 7.086 10.168 C 8.24 9.98 10.621 10.009 13.774 10.295 C 19.015 10.771 24.494 11.784 26.382 12.613 C 26.836 12.813 27.149 13.005 27.424 13.251 C 27.412 13.24 27.401 13.231 27.389 13.223 C 27.403 13.234 27.414 13.244 27.425 13.252 C 28.653 14.366 29.879 15.481 31.106 16.594 C 31.006 16.504 30.86 16.406 30.667 16.305 C 28.346 15.079 20.021 13.501 12.077 12.781 C 6.435 12.269 2.503 12.328 1.523 12.843 C 2.988 12.067 4.455 11.295 5.922 10.522 Z M 27.203 13.095 C 27.174 13.077 27.141 13.06 27.105 13.04 C 27.141 13.06 27.174 13.077 27.203 13.095 Z M 27.363 13.2 C 27.349 13.188 27.332 13.178 27.316 13.167 C 27.332 13.178 27.35 13.19 27.363 13.2 Z M 27.291 13.147 C 27.272 13.135 27.252 13.125 27.233 13.113 C 27.252 13.125 27.272 13.136 27.291 13.147 Z " stroke-width="1"/>
            </g>
          </g>
          <g id="ID0.3493240880779922">
            <path id="ID0.533204953186214" fill="#DDA949" d="M 22.131 11.452 C 22.904 9.574 22.817 7.261 21.834 5.476 C 21.18 4.288 20.141 3.315 18.912 2.739 C 19.785 3.322 20.582 4.026 21.211 4.865 C 22.199 6.181 22.479 7.763 22.416 9.39 C 22.389 10.082 22.398 10.802 22.131 11.452 Z " stroke-width="1"/>
          </g>
          <g id="ID0.4686772474087775">
            <path id="ID0.20261703012511134" fill="#DDA949" d="M 17.382 2.667 C 16.963 3.731 16.547 4.82 16.27 5.933 C 15.926 7.324 15.654 8.732 15.459 10.151 C 15.459 8.941 15.627 7.769 15.855 6.587 C 16.063 5.508 16.356 4.457 16.882 3.483 C 17.027 3.214 17.273 2.944 17.382 2.667 Z " stroke-width="1"/>
          </g>
          <g id="ID0.3909393036738038">
            <path id="ID0.7651870469562709" fill="#DDA949" d="M 9.273 9.907 C 9.285 8.212 9.711 6.626 10.674 5.235 C 11.653 3.826 13.207 3.17 14.763 2.573 C 11.549 3.808 9.893 6.632 9.273 9.907 Z " stroke-width="1"/>
          </g>
        </g>
      </g>
    </g>
  </g>
</svg>