<svg xmlns="http://www.w3.org/2000/svg" xmlns:xlink="http://www.w3.org/1999/xlink" version="1.1" width="56.62781142489254" height="56.03107833163082" viewBox="6.012478831926287 5.066722396532 56.62781142489254 56.03107833163082">
  <defs>
    <radialGradient id="grad_1" cx="-1241.3926" cy="458.5312" r="0.4998" gradientUnits="userSpaceOnUse">
      <stop offset="0" stop-color="#929292"/>
      <stop offset="0.7999" stop-color="#929292"/>
      <stop offset="1" stop-color="#929292"/>
    </radialGradient>
  <radialGradient id="grad_1-.9734171628952026,-0.22903932631015778,0.22903932631015778,0.9734171628952026,-10.4,6.4" cx="-1113.7712" cy="737.0699" r="0.4998" gradientUnits="userSpaceOnUse">
      <stop offset="0" stop-color="#929292"/>
      <stop offset="0.7999" stop-color="#929292"/>
      <stop offset="1" stop-color="#929292"/>
    </radialGradient></defs>
  <!-- Exported by Scratch - http://scratch.mit.edu/ -->
  <g id="pierre_ronde">
    <g id="ID0.2773045846261084">
      <path id="ID0.8582379361614585" d="M 26.7655 8.07 C 27.9482 7.7918 29.146 7.6126 30.3435 7.5415 C 30.9293 7.5074 31.5206 7.4967 32.0932 7.3805 C 32.1491 7.3694 32.2056 7.3561 32.2591 7.3435 C 32.8811 7.1971 33.474 6.9487 34.0921 6.7858 C 34.1432 6.7717 34.1958 6.7594 34.2474 6.7472 C 35.0952 6.5477 35.9832 6.5186 36.8418 6.6617 C 37.174 6.7161 37.5081 6.7998 37.7829 6.994 C 38 7.1484 38.1682 7.3698 38.3888 7.5213 C 38.8595 7.8409 39.4729 7.8065 40.0386 7.8399 C 41.0158 7.8935 41.9818 8.187 42.8267 8.6868 C 43.1294 8.8642 43.4272 9.0735 43.7748 9.1273 C 44.832 9.2895 45.4231 9.2254 46.4044 9.7373 C 47.8849 10.5107 49.1479 11.473 50.4666 12.489 C 51.0112 12.9084 51.5662 13.3418 51.925 13.9282 C 52.1076 14.2284 52.2366 14.5627 52.4554 14.842 C 52.7005 15.1501 53.0424 15.3676 53.3776 15.5784 C 53.9894 15.9604 54.6014 16.3435 55.2102 16.7262 C 55.4475 16.8748 55.6902 17.0283 55.8666 17.2456 C 56.0861 17.5145 56.1836 17.8594 56.2838 18.1933 C 56.3839 18.5272 56.5019 18.8539 56.6261 19.1811 L 56.6737 19.3045 C 56.8037 19.6345 56.9403 19.9619 57.0879 20.2878 C 58.2518 22.8986 59.8259 25.3842 59.9213 28.2957 C 59.9421 28.9647 59.8939 29.6376 59.9871 30.2999 C 60.0732 30.8971 60.2723 31.4769 60.3012 32.0803 C 60.3323 32.6883 60.1853 33.3034 60.2946 33.9033 C 60.4478 34.7682 61.1116 35.5068 61.1331 36.3842 C 61.1718 37.9807 60.2094 40.1077 59.2988 41.3986 C 58.6083 42.3757 58.0114 43.1397 57.9365 44.2884 C 57.9318 44.3687 57.9284 44.4506 57.9287 44.5348 C 57.9297 44.6742 57.9314 44.8125 57.9473 44.9629 C 57.9724 45.1963 58.0122 45.4438 57.9189 45.663 C 57.8395 45.845 57.6751 45.9762 57.5234 46.1043 C 55.9915 47.3955 55.0812 49.2596 53.8628 50.8489 C 52.4301 52.7146 50.5152 54.2387 48.3034 55.0375 C 47.6303 55.2812 46.9291 55.4575 46.2781 55.7514 C 45.0798 56.2953 44.0961 57.214 42.9805 57.9131 C 42.1325 58.4435 41.1959 58.8467 40.2225 59.0757 C 39.5022 59.2452 38.7592 59.3183 38.0199 59.2807 C 37.4263 59.2467 36.8299 59.1436 36.2316 59.1683 C 35.5819 59.1968 34.9485 59.3777 34.3059 59.4847 C 32.095 59.8509 29.8413 59.3148 27.6611 58.781 C 26.5532 58.5085 25.4359 58.2351 24.4103 57.7316 C 23.8434 57.453 23.3035 57.1055 22.6994 56.922 C 22.5907 56.8879 22.4792 56.8638 22.368 56.8366 C 22.1161 56.7787 21.8619 56.7245 21.6231 56.6307 C 21.2791 56.4918 20.9761 56.2693 20.6759 56.0502 C 18.4012 54.3726 16.0775 53.1021 14.3252 50.7982 C 14.0377 50.419 13.7968 50.002 13.459 49.6665 C 13.1582 49.3705 12.7942 49.1511 12.4602 48.8927 C 11.8464 48.4146 11.3386 47.7934 10.993 47.0929 C 10.6198 46.3321 10.4379 45.4935 10.1745 44.6884 C 9.8348 43.6465 9.3561 42.66 8.9216 41.6558 C 8.1181 39.7995 7.4527 37.8275 7.5126 35.8029 C 7.5439 34.757 7.7693 33.7198 7.73 32.675 C 7.7137 32.2217 7.6487 31.7664 7.6921 31.3135 C 7.7501 30.6999 8.0069 30.1278 8.2378 29.5547 C 9.1086 27.4051 9.5409 25.217 9.8608 22.935 C 10.1215 21.0831 11.6002 19.1243 12.688 17.6305 C 13.7238 16.2084 14.9097 14.8959 16.2062 13.7043 C 16.4293 13.4998 16.6459 13.2896 16.8754 13.0948 C 19.6602 10.7055 23.1315 8.9241 26.7655 8.07 M 26.5362 7.0956 L 26.7655 8.07 L 26.5362 7.0956 C 22.8041 7.9738 19.1433 9.8358 16.2243 12.3358 C 16.0451 12.4868 15.8745 12.6482 15.7016 12.8081 L 15.5283 12.967 C 14.1608 14.2236 12.9326 15.5964 11.8807 17.0417 L 11.7308 17.2475 C 10.582 18.8225 9.1553 20.7793 8.8723 22.7947 C 8.6032 24.7113 8.2068 26.9691 7.313 29.1785 L 7.2452 29.3486 C 7.0207 29.8966 6.7659 30.5164 6.699 31.2143 C 6.6613 31.6084 6.6871 31.9845 6.7096 32.3161 C 6.7197 32.4463 6.729 32.5776 6.734 32.708 C 6.7536 33.2365 6.6961 33.7822 6.6313 34.3625 C 6.582 34.8169 6.5294 35.2874 6.5166 35.7702 C 6.4468 38.1237 7.2768 40.3632 8.0082 42.0484 C 8.1142 42.2937 8.2217 42.5365 8.3311 42.783 C 8.667 43.5382 8.9864 44.254 9.2284 44.9943 C 9.3033 45.2253 9.3714 45.4578 9.4392 45.6936 C 9.6168 46.2959 9.7996 46.9196 10.1001 47.529 C 10.5111 48.363 11.1156 49.1074 11.8492 49.6754 C 11.9723 49.7708 12.0977 49.8625 12.2257 49.9526 C 12.4282 50.097 12.6158 50.2306 12.7598 50.3714 C 12.922 50.5325 13.0766 50.753 13.2376 50.9873 C 13.3335 51.124 13.4307 51.2624 13.5303 51.3972 C 14.9681 53.2861 16.7635 54.5289 18.5027 55.7295 C 19.0233 56.0908 19.5598 56.4628 20.0839 56.848 C 20.4143 57.0908 20.7874 57.3667 21.2535 57.5529 C 21.5367 57.665 21.8101 57.727 22.0524 57.783 L 22.1416 57.8042 C 22.2306 57.8243 22.3239 57.8455 22.4128 57.8739 C 22.7433 57.9728 23.0827 58.1539 23.443 58.3445 C 23.6155 58.4405 23.7947 58.5339 23.9737 58.6223 C 25.0993 59.1752 26.2831 59.4647 27.4267 59.7453 C 29.5818 60.2727 32.0214 60.8698 34.4716 60.4638 C 34.6962 60.4274 34.9193 60.38 35.1438 60.3344 C 35.5437 60.2526 35.9207 60.1742 36.2785 60.1578 C 36.5933 60.1464 36.9293 60.1773 37.2868 60.2123 C 37.5147 60.2337 37.7429 60.256 37.9678 60.2688 C 38.7844 60.312 39.6189 60.2348 40.4541 60.0383 C 41.519 59.7877 42.5462 59.3549 43.5135 58.7503 C 43.9593 58.4708 44.381 58.163 44.7843 57.8688 C 45.4274 57.397 46.036 56.9538 46.6941 56.6551 C 47.0608 56.4887 47.4591 56.3611 47.8813 56.2258 C 48.1374 56.144 48.3923 56.0614 48.6463 55.9708 C 50.9495 55.1412 53.0286 53.5775 54.6598 51.4503 C 55.0822 50.901 55.4647 50.3261 55.835 49.7695 C 56.5643 48.6733 57.2535 47.6379 58.1724 46.8628 L 58.1987 46.8392 C 58.3884 46.6805 58.6733 46.4419 58.841 46.0542 C 59.0307 45.6161 58.9846 45.1975 58.9537 44.9223 L 58.946 44.8543 C 58.9367 44.7537 58.9347 44.6535 58.9332 44.5296 C 58.935 44.4757 58.9336 44.4134 58.9389 44.3484 C 58.9896 43.564 59.4037 42.9796 59.9762 42.173 L 60.1214 41.9694 C 61.1589 40.5017 62.1832 38.1968 62.1389 36.354 C 62.1234 35.655 61.8515 35.08 61.6121 34.5733 C 61.4657 34.2657 61.3286 33.9754 61.2851 33.7206 C 61.2427 33.4881 61.2627 33.1978 61.2828 32.89 C 61.2995 32.6292 61.3218 32.3312 61.3057 32.0227 C 61.2833 31.578 61.1916 31.162 61.1111 30.7936 C 61.0603 30.5693 61.0121 30.3556 60.9841 30.1537 C 60.9301 29.7801 60.9323 29.3789 60.9329 28.9535 C 60.9325 28.7204 60.9337 28.49 60.9251 28.2568 C 60.844 25.7641 59.8003 23.6119 58.7891 21.5322 C 58.5241 20.9864 58.2514 20.426 58.0054 19.8736 C 57.8628 19.5558 57.7299 19.2399 57.6095 18.9333 L 57.5875 18.8748 L 57.5658 18.8173 C 57.4309 18.4668 57.3302 18.1741 57.2443 17.8964 L 57.233 17.8569 C 57.1215 17.4836 56.9799 17.0217 56.6487 16.6096 C 56.3664 16.261 56.0228 16.045 55.7448 15.872 L 54.8286 15.2966 L 53.9105 14.7216 C 53.6511 14.5576 53.3829 14.3916 53.2435 14.2138 C 53.1665 14.1179 53.0897 13.9706 53.0106 13.8135 C 52.9447 13.6863 52.871 13.5433 52.7808 13.4002 C 52.3236 12.6489 51.6634 12.1396 51.08 11.6903 C 49.8637 10.7519 48.4841 9.6866 46.8711 8.8436 C 45.9676 8.37 45.3057 8.2946 44.6034 8.2174 C 44.3995 8.1934 44.1786 8.1673 43.9288 8.1316 C 43.8308 8.1167 43.6463 8.0049 43.4842 7.9054 L 43.3374 7.8187 C 42.3585 7.2385 41.2368 6.8984 40.0979 6.8345 C 40.0024 6.8303 39.9047 6.8256 39.8087 6.8235 C 39.4662 6.8085 39.1139 6.7959 38.9587 6.6907 C 38.9133 6.6592 38.8409 6.592 38.773 6.5258 C 38.6662 6.4215 38.5314 6.294 38.3655 6.1738 C 37.9118 5.848 37.4009 5.733 37.0084 5.6671 C 36.0251 5.505 34.9916 5.5397 34.0221 5.7678 C 33.9617 5.782 33.9023 5.796 33.8415 5.8123 C 33.526 5.8948 33.224 5.9956 32.9343 6.0915 C 32.6202 6.1973 32.3239 6.2958 32.0338 6.364 C 31.99 6.3743 31.9462 6.3847 31.9 6.3935 C 31.5057 6.4729 31.0772 6.4946 30.6236 6.5181 C 30.5129 6.5236 30.3993 6.5298 30.2888 6.5363 C 29.05 6.6151 27.7873 6.8023 26.5362 7.0956 " stroke-width="0.9999999930077782" fill="undefined"/>
      <path id="ID0.7327934480272233" fill="#878787" d="M 14.4827 48.7168 C 14.6722 48.9506 14.9157 49.1337 15.1106 49.3642 C 15.4921 49.824 15.6352 50.4324 15.9104 50.9645 C 16.1876 51.4962 16.713 51.9961 17.3037 51.9044 C 16.668 51.1191 15.9956 50.2439 16.0075 49.2333 C 16.0103 49.0138 16.0447 48.7931 16.0074 48.5779 C 15.8944 47.8925 15.2413 47.6579 14.8686 47.1569 C 14.7184 46.955 14.6189 46.0517 14.2672 46.1201 C 14.165 46.14 14.1161 46.2553 14.0912 46.3547 C 13.8868 47.1229 13.9696 48.0773 14.4827 48.7168 Z " stroke-width="0.9999999930077782"/>
      <path id="ID0.19872760865837336" fill="#878787" d="M 11.3886 24.7873 C 11.7576 23.8057 12.3558 22.9818 12.7319 22.0129 C 12.6413 21.9336 12.504 22.0182 12.4202 22.1027 C 11.6448 22.8635 11.1185 23.6654 11.3886 24.7873 Z " stroke-width="0.9999999930077782"/>
      <path id="ID0.6473417826928198" fill="#706F6F" d="M 12.9512 43.016 C 12.8868 42.8206 12.1298 42.3802 11.9582 42.1402 C 11.6717 41.7432 11.4812 41.2826 11.3472 40.8138 C 11.075 39.8619 11.3093 38.9366 11.0736 37.9699 C 10.965 37.526 10.6623 37.1606 10.5414 36.7473 C 10.294 35.8922 10.6126 34.5701 10.7571 33.7081 C 10.8078 33.4044 10.883 33.0734 11.1241 32.88 C 11.158 33.7401 11.0251 34.8213 11.3468 35.625 C 11.6553 36.3907 12.1552 37.0395 12.1304 37.9164 C 12.1199 38.3391 11.9813 38.7497 11.9645 39.1718 C 11.9424 39.6321 12.0656 40.086 12.1914 40.5289 C 12.4279 41.3639 12.6816 42.1929 12.9512 43.016 " stroke-width="0.9999999930077782"/>
      <path id="ID0.39996868278831244" fill="#686867" d="M 59.2984 41.3966 C 58.4824 42.5523 57.7831 43.4092 57.9456 44.9602 C 57.971 45.1946 58.011 45.4431 57.9175 45.6613 C 57.8383 45.8443 57.6737 45.9744 57.5222 46.1036 C 55.99 47.3938 55.0798 49.2578 53.8616 50.8481 C 52.4306 52.7124 50.5138 54.237 48.3022 55.0368 C 47.6289 55.2795 46.9298 55.4563 46.2769 55.7506 C 45.0784 56.2936 44.0949 57.2133 42.9811 57.9109 C 41.5034 58.8349 39.759 59.3718 38.0173 59.2782 C 37.422 59.2457 36.8275 59.1421 36.2292 59.1668 C 35.5795 59.1953 34.9463 59.3772 34.3035 59.4832 C 32.0906 59.8498 29.8389 59.3133 27.6587 58.7795 C 26.5489 58.5074 25.4315 58.2341 24.4077 57.7291 C 23.8413 57.4525 23.3011 57.104 22.697 56.9205 C 22.3409 56.8132 21.9663 56.7667 21.6226 56.6288 C 21.2769 56.4913 20.9737 56.2678 20.6755 56.0483 C 18.401 54.3717 16.0751 53.1006 14.324 50.7974 C 14.0382 50.4168 13.7975 50.0008 13.4575 49.6648 C 13.1589 49.3693 12.7928 49.1493 12.4588 48.891 C 11.8449 48.4129 11.3374 47.7926 10.9935 47.0907 C 10.6186 46.3314 10.4365 45.4918 10.1748 44.6853 C 9.8334 43.6448 9.3547 42.6582 8.9202 41.6541 C 8.1166 39.7978 7.4513 37.8257 7.5112 35.8012 C 7.5427 34.7562 7.7679 33.718 7.7285 32.6733 C 7.7142 32.2195 7.6473 31.7647 7.6907 31.3117 C 7.7489 30.6991 8.0053 30.1252 8.2364 29.553 C 9.1074 27.4044 9.5395 25.2152 9.8596 22.9343 C 10.1201 21.0814 11.5988 19.1226 12.6865 17.6288 C 13.9009 15.9613 15.3078 14.4355 16.874 13.0931 C 20.5675 9.929 25.4624 7.8281 30.3433 7.5405 C 30.9291 7.5064 31.5203 7.4957 32.0927 7.3785 C 32.7745 7.2417 33.419 6.9596 34.0919 6.7848 C 34.9865 6.5528 35.9312 6.5072 36.8413 6.6598 C 37.1736 6.7141 37.5076 6.7978 37.7824 6.9921 C 37.9998 7.1474 38.168 7.3688 38.3883 7.5193 C 38.8593 7.84 39.4727 7.8056 40.0381 7.8379 C 41.0154 7.8915 41.9813 8.1851 42.8272 8.6846 C 43.1279 8.8625 43.4277 9.0713 43.7734 9.1256 C 44.8306 9.2878 45.4214 9.2227 46.4027 9.7346 C 47.8854 10.5086 49.1462 11.4704 50.4652 12.4873 C 51.0097 12.9067 51.5648 13.3401 51.9234 13.9255 C 52.106 14.2257 52.2352 14.561 52.4557 14.8389 C 52.6991 15.1484 53.0407 15.3649 53.3779 15.5753 C 53.9879 15.9587 54.5997 16.3408 55.2107 16.724 C 55.4478 16.8716 55.6885 17.0256 55.8669 17.2425 C 56.0844 17.5118 56.1822 17.8576 56.2841 18.1901 C 57.319 21.6151 59.8 24.6146 59.9197 28.293 C 59.9402 28.9611 59.8923 29.635 59.9874 30.2968 C 60.0715 30.8944 60.2706 31.4742 60.2996 32.0776 C 60.3307 32.6856 60.1836 33.3007 60.291 33.901 C 60.4461 34.7655 61.1099 35.5041 61.1314 36.3815 C 61.172 37.9817 60.2092 40.1067 59.2984 41.3966 " stroke-width="0.9999999930077782"/>
      <path id="ID0.501052432693541" fill="url(#grad_1-.9734171628952026,-0.22903932631015778,0.22903932631015778,0.9734171628952026,-10.4,6.4)" d="M 59.2984 41.3966 C 58.4824 42.5523 57.7831 43.4092 57.9456 44.9602 C 57.971 45.1946 58.011 45.4431 57.9175 45.6613 C 57.8383 45.8443 57.6737 45.9744 57.5222 46.1036 C 55.99 47.3938 55.0798 49.2578 53.8616 50.8481 C 52.4306 52.7124 50.5138 54.237 48.3022 55.0368 C 47.6289 55.2795 46.9298 55.4563 46.2769 55.7506 C 45.0784 56.2936 44.0949 57.2133 42.9811 57.9109 C 41.5034 58.8349 39.759 59.3718 38.0173 59.2782 C 37.422 59.2457 36.8275 59.1421 36.2292 59.1668 C 35.5795 59.1953 34.9463 59.3772 34.3035 59.4832 C 32.0906 59.8498 29.8389 59.3133 27.6587 58.7795 C 26.5489 58.5074 25.4315 58.2341 24.4077 57.7291 C 23.8413 57.4525 23.3011 57.104 22.697 56.9205 C 22.3409 56.8132 21.9663 56.7667 21.6226 56.6288 C 21.2769 56.4913 20.9737 56.2678 20.6755 56.0483 C 18.401 54.3717 16.0751 53.1006 14.324 50.7974 C 14.0382 50.4168 13.7975 50.0008 13.4575 49.6648 C 13.1589 49.3693 12.7928 49.1493 12.4588 48.891 C 11.8449 48.4129 11.3374 47.7926 10.9935 47.0907 C 10.6186 46.3314 10.4365 45.4918 10.1748 44.6853 C 9.8334 43.6448 9.3547 42.6582 8.9202 41.6541 C 8.1166 39.7978 7.4513 37.8257 7.5112 35.8012 C 7.5427 34.7562 7.7679 33.718 7.7285 32.6733 C 7.7142 32.2195 7.6473 31.7647 7.6907 31.3117 C 7.7489 30.6991 8.0053 30.1252 8.2364 29.553 C 9.1074 27.4044 9.5395 25.2152 9.8596 22.9343 C 10.1201 21.0814 11.5988 19.1226 12.6865 17.6288 C 13.9009 15.9613 15.3078 14.4355 16.874 13.0931 C 20.5675 9.929 25.4624 7.8281 30.3433 7.5405 C 30.9291 7.5064 31.5203 7.4957 32.0927 7.3785 C 32.7745 7.2417 33.419 6.9596 34.0919 6.7848 C 34.9865 6.5528 35.9312 6.5072 36.8413 6.6598 C 37.1736 6.7141 37.5076 6.7978 37.7824 6.9921 C 37.9998 7.1474 38.168 7.3688 38.3883 7.5193 C 38.8593 7.84 39.4727 7.8056 40.0381 7.8379 C 41.0154 7.8915 41.9813 8.1851 42.8272 8.6846 C 43.1279 8.8625 43.4277 9.0713 43.7734 9.1256 C 44.8306 9.2878 45.4214 9.2227 46.4027 9.7346 C 47.8854 10.5086 49.1462 11.4704 50.4652 12.4873 C 51.0097 12.9067 51.5648 13.3401 51.9234 13.9255 C 52.106 14.2257 52.2352 14.561 52.4557 14.8389 C 52.6991 15.1484 53.0407 15.3649 53.3779 15.5753 C 53.9879 15.9587 54.5997 16.3408 55.2107 16.724 C 55.4478 16.8716 55.6885 17.0256 55.8669 17.2425 C 56.0844 17.5118 56.1822 17.8576 56.2841 18.1901 C 57.319 21.6151 59.8 24.6146 59.9197 28.293 C 59.9402 28.9611 59.8923 29.635 59.9874 30.2968 C 60.0715 30.8944 60.2706 31.4742 60.2996 32.0776 C 60.3307 32.6856 60.1836 33.3007 60.291 33.901 C 60.4461 34.7655 61.1099 35.5041 61.1314 36.3815 C 61.172 37.9817 60.2092 40.1067 59.2984 41.3966 " stroke-width="0.9999999930077782"/>
      <path id="ID0.7686593476682901" fill="#5A5A59" d="M 59.2984 41.3966 C 58.4824 42.5523 57.7831 43.4092 57.9456 44.9602 C 57.971 45.1946 58.011 45.4431 57.9175 45.6613 C 57.8383 45.8443 57.6737 45.9744 57.5222 46.1036 C 55.99 47.3938 55.0798 49.2578 53.8616 50.8481 C 52.4306 52.7124 50.5138 54.237 48.3022 55.0368 C 47.6289 55.2795 46.9298 55.4563 46.2769 55.7506 C 45.0784 56.2936 44.0949 57.2133 42.9811 57.9109 C 41.5034 58.8349 39.759 59.3718 38.0173 59.2782 C 37.422 59.2457 36.8275 59.1421 36.2292 59.1668 C 35.5795 59.1953 34.9463 59.3772 34.3035 59.4832 C 32.0906 59.8498 29.8389 59.3133 27.6587 58.7795 C 26.5489 58.5074 25.4315 58.2341 24.4077 57.7291 C 23.8413 57.4525 23.3011 57.104 22.697 56.9205 C 22.3409 56.8132 21.9663 56.7667 21.6226 56.6288 C 21.2769 56.4913 20.9737 56.2678 20.6755 56.0483 C 18.401 54.3717 16.0751 53.1006 14.324 50.7974 C 14.0382 50.4168 13.7975 50.0008 13.4575 49.6648 C 13.1589 49.3693 12.7928 49.1493 12.4588 48.891 C 11.8449 48.4129 11.3374 47.7926 10.9935 47.0907 C 10.6186 46.3314 10.4365 45.4918 10.1748 44.6853 C 9.8334 43.6448 9.3547 42.6582 8.9202 41.6541 C 8.1166 39.7978 7.4513 37.8257 7.5112 35.8012 C 7.5427 34.7562 7.7679 33.718 7.7285 32.6733 C 7.7142 32.2195 7.6473 31.7647 7.6907 31.3117 C 7.7489 30.6991 8.0053 30.1252 8.2364 29.553 C 9.1074 27.4044 9.5395 25.2152 9.8596 22.9343 C 10.1201 21.0814 11.5988 19.1226 12.6865 17.6288 C 13.9009 15.9613 15.3078 14.4355 16.874 13.0931 C 20.5675 9.929 25.4624 7.8281 30.3433 7.5405 C 30.9291 7.5064 31.5203 7.4957 32.0927 7.3785 C 32.7745 7.2417 33.419 6.9596 34.0919 6.7848 C 34.9865 6.5528 35.9312 6.5072 36.8413 6.6598 C 37.1736 6.7141 37.5076 6.7978 37.7824 6.9921 C 37.9998 7.1474 38.168 7.3688 38.3883 7.5193 C 38.8593 7.84 39.4727 7.8056 40.0381 7.8379 C 41.0154 7.8915 41.9813 8.1851 42.8272 8.6846 C 43.1279 8.8625 43.4277 9.0713 43.7734 9.1256 C 44.8306 9.2878 45.4214 9.2227 46.4027 9.7346 C 47.8854 10.5086 49.1462 11.4704 50.4652 12.4873 C 51.0097 12.9067 51.5648 13.3401 51.9234 13.9255 C 52.106 14.2257 52.2352 14.561 52.4557 14.8389 C 52.6991 15.1484 53.0407 15.3649 53.3779 15.5753 C 53.9879 15.9587 54.5997 16.3408 55.2107 16.724 C 55.4478 16.8716 55.6885 17.0256 55.8669 17.2425 C 56.0844 17.5118 56.1822 17.8576 56.2841 18.1901 C 57.319 21.6151 59.8 24.6146 59.9197 28.293 C 59.9402 28.9611 59.8923 29.635 59.9874 30.2968 C 60.0715 30.8944 60.2706 31.4742 60.2996 32.0776 C 60.3307 32.6856 60.1836 33.3007 60.291 33.901 C 60.4461 34.7655 61.1099 35.5041 61.1314 36.3815 C 61.172 37.9817 60.2092 40.1067 59.2984 41.3966 " stroke-width="0.9999999930077782"/>
      <path id="ID0.7516578380018473" fill="#949494" d="M 27.1574 10.3776 C 27.053 10.3878 26.9504 10.4017 26.8467 10.4148 C 25.1255 10.6533 23.5095 11.3602 21.9228 12.0695 C 21.2638 12.3643 20.5566 12.7033 20.2148 13.3374 C 21.0903 13.605 21.9613 13.2069 22.8374 12.8087 C 23.6874 12.4217 24.5414 12.0348 25.4043 12.2571 C 25.5537 12.5692 25.2035 12.8796 24.9019 13.0472 C 23.8765 13.6275 22.8111 14.4216 21.6956 14.8022 C 20.9955 15.0399 20.3046 15.1161 19.6105 15.4408 C 19.2157 15.623 18.0479 16.0128 17.871 16.4572 C 17.7742 16.7008 17.9931 17.4958 18.4052 17.064 C 17.5717 17.9401 16.5825 18.7133 15.6736 19.5178 C 15.3931 19.7667 14.9888 20.0262 14.6801 19.8143 C 15.0778 18.8937 15.5447 18.0051 16.0727 17.1536 C 14.8951 18.008 13.6997 18.8872 12.852 20.0698 C 12.1347 21.0727 11.7046 22.2444 11.2803 23.4013 C 10.828 24.6357 10.3779 25.8665 9.9252 27.099 C 10.299 27.3254 10.8074 27.1462 11.1003 26.8235 C 11.3932 26.5008 11.5287 26.0683 11.6727 25.6584 C 12.1382 24.3449 12.7973 23.1029 13.622 21.9802 C 12.8667 22.8041 13.2374 24.1047 13.0886 25.2143 C 12.9858 25.9956 12.6079 26.7122 12.2359 27.4059 C 11.2086 29.3314 9.8207 31.1783 9.0331 33.2097 C 7.7606 36.4904 8.6435 40.1946 9.8331 43.5083 C 9.4292 41.8178 9.4419 40.0294 9.8706 38.3454 C 10.3994 40.1256 10.9323 41.91 11.4591 43.6907 C 11.6222 44.2399 11.7892 44.7965 12.0997 45.2782 C 12.4962 45.8978 13.1016 46.3533 13.576 46.9156 C 14.6168 48.1428 14.9954 49.8001 15.8911 51.1355 C 17.8668 54.0834 21.8379 54.8584 24.6182 57.0653 C 23.2904 55.6878 21.5806 54.7299 20.2319 53.3728 C 18.8851 52.0151 17.9049 49.997 18.572 48.2045 C 19.481 49.0508 19.9736 50.2406 20.6519 51.2809 C 22.2685 53.7678 24.9923 55.4199 27.8842 56.079 C 30.776 56.7382 33.8219 56.4674 36.6843 55.687 C 35.519 56.2838 34.3549 56.8813 33.1906 57.4778 C 35.3067 56.6913 37.6966 57.6185 39.919 57.2271 C 42.2035 56.8242 43.9906 55.1154 45.8184 53.6888 C 47.9852 51.9997 50.3835 50.6227 52.529 48.9088 C 54.6757 47.1956 56.6119 45.0552 57.4122 42.427 C 56.7086 44.2959 54.9571 45.7281 52.9838 46.0434 C 55.4656 43.0083 58.0734 39.4823 57.5998 35.5924 C 57.4321 34.2419 56.8968 32.9625 56.6988 31.6191 C 56.5217 30.4208 56.6159 29.1926 56.4166 27.9965 C 55.5743 22.941 49.8939 19.8612 48.7459 14.8643 C 49.5287 17.6716 53.71 18.5236 54.2808 21.3818 C 54.084 19.694 53.0642 18.2327 52.078 16.853 C 51.23 15.6636 50.3655 14.4606 49.2275 13.549 C 48.0917 12.6338 46.6221 12.0293 45.1778 12.2346 C 45.86 13.916 46.7094 15.5304 47.7117 17.0441 C 46.197 17.0029 45.228 15.4999 44.2579 14.3372 C 40.5647 9.9145 35.1796 10.5128 30.0019 10.3463 C 29.0579 10.3075 28.1016 10.2777 27.1574 10.3776 " stroke-width="0.9999999930077782"/>
      <path id="ID0.06086314516142011" fill="#B0B0B0" d="M 16.4875 39.9085 C 15.9898 39.592 15.4855 39.2649 15.086 38.8637 C 14.6795 38.459 14.2928 38.0251 14.0504 37.5058 C 13.8151 36.9992 13.7354 36.4375 13.6455 35.8854 C 13.4468 34.6655 13.1973 33.4524 12.9006 32.2525 C 12.8673 33.6215 12.657 34.9849 12.6617 36.3542 C 12.6633 36.9415 12.7074 37.5393 12.9295 38.0818 C 13.1383 38.5936 13.4937 39.0298 13.7955 39.4919 C 14.4779 40.5405 14.9403 41.8073 15.9782 42.5072 C 16.3766 42.7771 16.8366 42.9421 17.2563 43.1803 C 18.1833 43.7101 18.8656 44.8286 19.5642 45.6145 C 20.2355 46.3718 20.8346 47.2284 21.493 47.9703 C 22.1903 48.7596 22.9658 49.0384 23.8993 49.5563 C 24.7117 50.0052 25.4169 50.6272 26.2265 51.0819 C 26.6732 51.3343 27.2422 51.639 27.7558 51.6476 C 28.3519 51.6574 28.8219 51.5725 29.3881 51.8656 C 29.7553 52.0555 30.0924 52.344 30.5061 52.3863 C 30.7304 52.4096 30.9543 52.3569 31.1748 52.303 C 32.3997 52.0076 33.6255 51.7119 34.8165 51.3074 C 33.6369 50.7867 32.4537 50.2638 31.2722 49.7436 C 30.9289 49.5902 30.5844 49.4401 30.2229 49.3361 C 29.9023 49.2441 29.5645 49.188 29.2688 49.0315 C 28.2569 48.4899 28.1387 47.0271 27.2575 46.2903 L 27.1727 46.1963 C 27.115 46.0691 27.2666 45.9492 27.4007 45.9033 C 28.2395 45.6042 29.2444 45.8496 29.8507 46.501 C 30.3091 46.991 30.5552 47.679 31.1042 48.0604 C 31.3002 48.195 31.5212 48.2828 31.7494 48.3534 C 32.4539 48.5749 33.2057 48.6394 33.9356 48.5458 C 34.7982 48.4352 35.6156 48.1063 36.4225 47.7808 C 37.1262 47.4971 37.8265 47.1988 38.5354 46.9282 C 39.115 46.7066 39.6995 46.641 40.2835 46.3854 C 41.6802 45.7722 43.0125 45.0119 44.2486 44.118 C 44.8979 43.6467 45.5433 43.1322 46.0648 42.5154 C 46.4273 42.087 46.573 41.5534 46.8487 41.0704 C 47.2005 40.4524 47.4266 39.7849 47.5608 39.0845 C 47.6276 38.7308 47.6714 38.3713 47.7001 38.0132 C 47.7203 37.767 47.8427 37.2307 47.7417 37.0069 C 48.1827 37.9859 48.4582 39.0388 48.5591 40.105 C 48.6077 40.6175 48.6104 41.1439 48.4419 41.6284 C 48.2308 42.2246 47.7747 42.7007 47.3015 43.1171 C 46.5893 43.749 45.802 44.3062 45.179 45.0291 C 44.7523 45.525 44.3974 46.0996 43.8584 46.4678 C 43.2962 46.8508 42.6026 46.9636 41.9467 47.1447 C 41.29 47.3228 40.6094 47.6175 40.2728 48.2083 C 41.2141 47.69 42.3074 47.4512 43.3814 47.5272 C 43.7408 47.5526 44.1113 47.6123 44.4544 47.4987 C 44.6832 47.4233 44.8813 47.274 45.0735 47.126 C 45.9105 46.4873 46.7496 45.8492 47.5863 45.2095 C 47.1766 45.9305 46.7644 46.6542 46.3544 47.3742 C 46.2488 47.5583 46.1542 47.8199 46.317 47.9573 C 47.4483 47.0593 48.3971 45.9351 49.0972 44.6712 C 49.8267 43.353 50.4927 42.1844 51.542 41.1034 C 52.3977 40.2209 53.3851 39.1914 53.3063 37.8652 C 53.237 36.7021 52.3455 35.7685 51.9047 34.6898 C 50.7075 31.7498 52.9641 28.1329 51.4881 25.3222 C 50.6125 23.6575 48.6925 22.8457 47.4216 21.4609 C 46.4211 20.3742 45.8353 18.9413 44.7638 17.9237 C 43.1714 16.4173 40.8275 16.0915 38.6472 15.8412 C 40.0995 16.1889 41.5 16.7448 42.7954 17.491 C 43.3192 17.792 43.8489 18.1482 44.1384 18.68 C 44.6911 19.6975 43.9923 21.1635 42.8538 21.3718 C 42.0694 18.2782 38.9787 16.355 35.9688 15.29 C 35.2683 15.0419 34.5379 14.8193 33.7943 14.8504 C 32.8035 14.8966 31.8961 15.3885 30.9385 15.6323 C 29.9075 15.8964 28.8263 15.8724 27.7794 16.0643 C 26.458 16.3074 25.2253 16.8841 24.0335 17.4994 C 22.0294 18.535 20.0066 19.7835 18.8916 21.7419 C 18.2406 22.8875 17.9942 24.4422 18.8437 25.4463 C 19.1213 25.7745 19.5207 26.0617 19.5586 26.4893 C 19.5986 26.9299 19.2377 27.2911 18.9193 27.6013 C 16.4727 29.9696 14.1035 33.4221 15.7672 36.8604 C 16.588 38.5586 18.0112 39.8746 19.4018 41.152 C 18.5734 41.2637 17.7955 40.7739 17.1017 40.3053 C 16.9056 40.1748 16.6981 40.0438 16.4875 39.9085 " stroke-width="0.9999999930077782"/>
      <path id="ID0.7789751910604537" fill="#878787" d="M 11.8155 21.2968 C 12.3935 20.6492 13.1357 20.1273 13.6729 19.4677 C 13.7332 19.3919 13.7951 19.2797 13.7265 19.2106 C 13.6782 19.1583 13.5938 19.1751 13.5249 19.1964 C 12.4661 19.5431 12.1957 20.3629 11.8155 21.2968 Z " stroke-width="0.9999999930077782"/>
      <path id="ID0.08306930540129542" fill="#878787" d="M 31.1425 10.1642 C 31.6277 9.0525 29.5183 9.0598 28.9611 9.3461 C 28.7879 9.4351 28.4772 9.6253 28.4593 9.8504 C 28.4296 10.2611 28.9506 10.0132 29.2704 10.0931 C 29.7708 10.2157 30.7986 10.9468 31.1425 10.1642 " stroke-width="0.9999999930077782"/>
      <path id="ID0.06779875792562962" fill="#878787" d="M 32.1967 11.1561 C 32.0056 11.2216 31.8394 11.3624 31.7501 11.5416 C 31.7267 11.5862 31.71 11.6374 31.7217 11.687 C 31.7348 11.7517 31.799 11.7931 31.859 11.8253 C 32.1453 11.9767 32.4736 12.0494 32.7972 12.036 C 32.9741 12.0282 33.1764 11.9755 33.2463 11.8142 C 33.3052 11.6802 33.2424 11.5182 33.1349 11.4192 C 33.0256 11.3217 32.8817 11.2733 32.7386 11.2371 C 32.3568 11.138 32.5703 11.0281 32.1967 11.1561 " stroke-width="0.9999999930077782"/>
      <path id="ID0.9455316951498389" fill="#878787" d="M 48.0025 28.4702 C 48.0096 28.6709 47.9373 28.8657 47.8759 29.0589 C 47.7145 29.556 47.6206 30.1308 47.8922 30.5775 L 47.9716 30.6574 C 48.0264 30.6764 48.085 30.6462 48.1304 30.6077 C 48.3696 30.4148 48.4655 30.0974 48.5208 29.7957 C 48.6258 29.2029 48.5504 28.6423 48.5654 28.0511 C 48.5771 27.5461 48.628 27.1077 48.164 26.7556 C 47.9394 26.5866 47.6591 26.5046 47.4507 26.3174 C 47.2302 26.1227 47.1166 25.8361 47.0081 25.5627 C 46.6936 24.7542 46.3788 23.9448 46.0623 23.1368 C 45.9635 23.5771 46.0758 24.0367 46.1859 24.4741 C 46.3747 25.1981 46.5694 25.9423 47.0188 26.5382 C 47.4434 27.1029 47.9789 27.7238 48.0025 28.4702 " stroke-width="0.9999999930077782"/>
      <path id="ID0.8967293533496559" fill="#878787" d="M 39.8694 51.755 C 40.094 51.5655 40.253 51.3113 40.4422 51.085 C 41.2236 50.1666 42.5574 49.7665 43.1237 48.7025 C 42.6814 48.9617 42.2375 49.2233 41.7919 49.4822 C 41.3632 49.7341 40.9282 49.9896 40.5752 50.3407 C 40.1975 50.7132 39.9197 51.1874 39.4916 51.4987 C 38.9278 51.9098 38.1984 51.9797 37.5093 52.0853 C 37.2271 52.1302 36.9651 52.235 36.7039 52.3385 C 36.4158 52.4546 36.1324 52.5685 35.8261 52.5985 C 35.6597 52.6161 35.4741 52.6043 35.3446 52.495 C 35.2398 52.4077 35.1908 52.2692 35.1528 52.1385 C 35.066 51.861 34.9993 51.5777 34.9494 51.2915 C 34.9415 51.2318 34.9312 51.1705 34.8931 51.1219 C 34.7896 50.9788 34.5651 51.0419 34.4046 51.1198 C 34.4241 51.4819 34.4476 51.8657 34.6461 52.1724 C 34.7463 52.3276 34.8901 52.4581 34.9541 52.63 C 35.003 52.7593 35.0044 52.9048 35.0829 53.0158 C 35.2304 53.2235 35.5425 53.1963 35.7919 53.1387 C 36.5426 52.9672 37.2028 52.6865 37.8929 52.3885 C 38.1477 52.2793 38.4222 52.2321 38.6953 52.1833 C 39.1134 52.1137 39.5256 52.0403 39.8694 51.755 " stroke-width="0.9999999930077782"/>
      <path id="ID0.15125313634052873" fill="#878787" d="M 38.6082 47.7442 C 38.2924 48.4062 37.8136 49.6458 36.9908 49.8075 C 36.92 49.8211 36.8275 49.8121 36.8074 49.7439 L 36.8237 49.6517 C 36.9647 49.3298 37.239 49.2427 37.5114 49.0687 C 37.8389 48.8581 38.0662 48.4923 38.107 48.1026 C 38.1262 47.9049 38.1035 47.7038 38.1172 47.5084 C 38.1335 47.3115 38.1983 47.1021 38.3545 46.98 C 38.4059 46.9412 38.4667 46.9115 38.5307 46.917 C 38.5963 46.9252 38.6517 46.9728 38.6878 47.03 C 38.8234 47.2395 38.7181 47.517 38.6082 47.7442 " stroke-width="0.9999999930077782"/>
      <path id="ID0.5474047465249896" fill="#878787" d="M 30.7281 35.0188 C 31.3072 34.8035 32.0802 34.9493 32.2775 34.2033 L 32.2778 34.1169 L 32.2052 34.0662 C 32.0086 34.0077 31.8015 34.1057 31.6311 34.2197 C 30.9621 34.6597 30.2925 35.071 29.5223 34.4478 C 29.4748 34.4076 29.4291 34.366 29.3689 34.3504 C 29.2295 34.3123 29.0868 34.4568 29.0915 34.6036 C 29.098 34.749 29.2128 34.8699 29.3436 34.9326 C 29.4761 34.9939 29.6239 35.0064 29.7685 35.0227 C 30.2074 35.0715 30.2805 35.1858 30.7281 35.0188 Z " stroke-width="0.9999999930077782"/>
      <path id="ID0.8588782614096999" fill="#878787" d="M 30.4199 29.0764 C 30.8397 29.3588 29.9926 30.6049 29.7889 30.7957 C 29.7491 30.8317 29.7076 30.8692 29.657 30.8812 C 29.5465 30.9051 29.4444 30.7986 29.4098 30.6907 C 29.3317 30.4461 29.4561 30.1888 29.5778 29.9639 C 29.7339 29.6714 29.8941 29.0902 30.2859 29.0525 C 30.3328 29.0466 30.3817 29.0495 30.4199 29.0764 Z " stroke-width="0.9999999930077782"/>
      <path id="ID0.4822370004840195" fill="#878787" d="M 31.3305 30.0559 C 31.3975 30.1008 31.4822 30.0459 31.54 29.9902 C 32.1031 29.4406 32.4288 28.0131 31.3483 27.8266 C 31.7662 27.8998 31.4274 29.7958 31.3305 30.0559 Z " stroke-width="0.9999999930077782"/>
      <path id="ID0.22765630669891834" fill="#878787" d="M 45.917 39.272 C 45.6773 39.4363 45.482 39.6672 45.3628 39.9335 C 45.3361 39.9902 45.3136 40.0561 45.3439 40.1106 L 45.4307 40.1826 C 45.9752 40.449 46.8425 40.0004 46.8742 39.3755 C 46.8846 39.1707 46.7833 38.9542 46.5982 38.8662 C 46.1932 38.6728 46.1416 39.1175 45.917 39.272 Z " stroke-width="0.9999999930077782"/>
      <path id="ID0.6500831982120872" fill="#999998" d="M 41.5993 51.4404 C 41.3673 51.834 41.1262 52.2195 40.7492 52.4643 C 40.4389 52.6647 40.071 52.7472 39.7165 52.8429 C 38.8642 53.0671 37.9842 53.418 37.4839 54.1428 C 38.6536 53.7002 39.825 53.2561 40.9952 52.8112 C 41.4866 52.6247 42.0924 52.4924 42.4913 52.1531 C 42.9071 51.7984 43.2576 51.3235 43.6186 50.9149 C 44.0204 50.4567 44.457 50.1907 44.9373 49.826 C 45.114 49.6909 45.3065 49.509 45.2707 49.2914 C 45.2432 49.1222 45.0765 49.0032 44.9046 48.98 C 44.7347 48.9563 44.5646 49.0106 44.4051 49.0749 C 43.4518 49.4595 42.5081 50.0503 41.9259 50.9116 C 41.8091 51.0788 41.7032 51.2619 41.5993 51.4404 " stroke-width="0.9999999930077782"/>
      <path id="ID0.9915745845064521" fill="#999998" d="M 17.9637 25.8712 C 17.8956 25.3243 17.6854 24.7892 17.6007 24.2369 C 17.5123 23.63 17.4677 23.0169 17.4767 22.4046 C 17.083 22.9492 16.6769 23.5328 16.6261 24.2032 C 16.5985 24.5621 16.6765 24.9197 16.6751 25.2806 C 16.6712 25.7747 16.5101 26.2687 16.2214 26.6705 C 16.0325 26.9327 15.7956 27.1529 15.5934 27.4028 C 14.8493 28.3268 14.6503 29.5591 14.4754 30.7283 C 14.8441 29.907 15.2615 29.0568 15.9987 28.5402 C 16.4141 28.2493 16.9116 28.0799 17.2963 27.7459 C 17.8227 27.2892 18.0502 26.5535 17.9637 25.8712 " stroke-width="0.9999999930077782"/>
      <path id="ID0.8026054976508021" fill="#999998" d="M 32.3038 14.2529 C 32.4243 14.2369 32.5161 14.2163 32.5906 14.1227 C 31.9349 13.9206 30.8616 13.6553 30.1768 13.8319 C 29.3329 14.0479 28.5278 14.8394 27.9423 15.4466 C 29.3711 14.9132 30.7794 14.4544 32.3038 14.2529 " stroke-width="0.9999999930077782"/>
      <path id="ID0.0178139409981668" fill="#949494" d="M 22.2503 20.2376 C 21.7991 20.8698 21.4331 21.5672 20.8977 22.1297 C 21.5447 21.3734 22.251 20.6248 23.1703 20.24 C 23.6744 20.0289 24.2231 19.9378 24.7215 19.7117 C 25.2429 19.4739 25.5228 19.1091 25.9311 18.7572 C 26.4437 18.3161 27.1908 18.016 27.7807 17.681 C 27.647 17.7587 27.2103 17.6796 27.0447 17.6919 C 26.7735 17.7094 26.5055 17.7448 26.2397 17.794 C 25.7075 17.8945 25.1874 18.0549 24.6908 18.2714 C 23.6693 18.7193 22.8915 19.3389 22.2503 20.2376 " stroke-width="0.9999999930077782"/>
      <path id="ID0.49640776962041855" fill="#706F6F" d="M 55.6835 35.7782 C 55.9952 34.5358 55.6994 33.235 55.4612 31.9781 C 55.3232 31.2566 55.2011 30.5148 55.2317 29.7762 C 55.2604 29.038 55.4568 28.3795 55.304 27.6295 C 55.2356 27.2953 55.0845 26.9282 54.7605 26.8215 C 54.3976 26.7025 54.0044 27.0005 53.8807 27.3614 C 53.7569 27.7213 53.8278 28.1187 53.9061 28.4906 C 54.0332 29.1182 54.064 29.7602 54.1833 30.3762 C 54.344 31.2034 54.6145 32.0911 54.8712 32.8895 C 55.1734 33.8508 55.7171 34.7379 55.6835 35.7782 Z " stroke-width="0.9999999930077782"/>
      <path id="ID0.6057176026515663" fill="#706F6F" d="M 29.4691 55.0086 C 27.2348 54.5594 25.3012 52.8991 23.3572 51.8196 C 24.4866 54.2311 27.1334 54.4949 29.4691 55.0086 " stroke-width="0.9999999930077782"/>
      <path id="ID0.8658094857819378" fill="#F8F8F8" d="M 56.3268 18.328 C 56.5356 18.9929 56.7965 19.6434 57.0838 20.2836 C 57.084 20.2846 57.0845 20.2865 57.0869 20.288 C 56.7987 19.6439 56.5341 18.9953 56.3268 18.328 M 56.316 18.2997 C 56.3202 18.309 56.3221 18.3168 56.3237 18.3236 C 56.3221 18.3168 56.3202 18.309 56.316 18.2997 M 56.306 18.2661 C 56.3074 18.272 56.3088 18.2778 56.3102 18.2836 C 56.3088 18.2778 56.3074 18.272 56.306 18.2661 M 56.2956 18.2306 C 56.2965 18.2345 56.2975 18.2384 56.2984 18.2423 C 56.2972 18.2374 56.2965 18.2345 56.2956 18.2306 M 17.0011 12.9872 C 16.9817 13.0051 16.9589 13.0218 16.9395 13.0397 C 16.9182 13.0581 16.8956 13.0757 16.876 13.0926 L 16.876 13.0926 C 16.915 13.0578 16.9591 13.0227 17.0011 12.9872 M 17.6748 12.4403 C 17.6534 12.4587 17.6304 12.4744 17.6088 12.4918 C 17.6314 12.4742 17.653 12.4568 17.6748 12.4403 M 17.6905 12.4284 C 17.6851 12.4318 17.6817 12.4346 17.6767 12.4399 C 17.6817 12.4346 17.6851 12.4318 17.6905 12.4284 M 32.2571 7.3439 C 32.2591 7.3435 32.2591 7.3435 32.2591 7.3435 L 32.2591 7.3435 C 32.2591 7.3435 32.2591 7.3435 32.2571 7.3439 M 32.0951 7.38 C 32.1051 7.3787 32.1148 7.3764 32.1218 7.3758 C 32.1119 7.3771 32.1021 7.3794 32.0951 7.38 L 32.0951 7.38 M 32.948 7.1454 L 32.948 7.1454 C 32.9461 7.1459 32.9441 7.1463 32.9405 7.1482 C 32.9346 7.1496 32.9269 7.1514 32.9205 7.155 C 32.7114 7.2227 32.501 7.2845 32.2869 7.3349 C 32.511 7.2832 32.7305 7.2161 32.948 7.1454 M 23.8537 8.9637 C 21.6784 9.7909 19.6205 10.9429 17.804 12.339 C 19.6205 10.9429 21.6786 9.7919 23.8537 8.9637 " stroke-width="0.9999999930077782"/>
      <path id="ID0.6319888099096715" d="M 16.8762 13.0936 L 16.8762 13.0936 L 16.8762 13.0936 L 16.8762 13.0936 L 16.8762 13.0936 L 16.8762 13.0936 M 17.0328 12.9602 C 17.0013 12.9881 16.9692 13.0132 16.9397 13.0407 C 16.9591 13.0227 16.9819 13.0061 17.0013 12.9881 C 17.0131 12.9772 17.0215 12.969 17.0328 12.9602 M 17.1032 12.9015 C 17.0836 12.9185 17.0627 12.9347 17.0431 12.9516 C 17.0627 12.9347 17.0836 12.9185 17.1032 12.9015 M 36.7409 6.6434 C 36.774 6.6489 36.8067 6.6525 36.8433 6.6593 C 37.1736 6.7141 37.5096 6.7974 37.7824 6.9921 C 37.9996 7.1464 38.1675 7.3668 38.39 7.5179 C 38.861 7.8385 39.4725 7.8046 40.0379 7.8369 C 41.0173 7.891 41.9811 8.1841 42.8272 8.6846 C 43.1299 8.862 43.4258 9.0718 43.7734 9.1256 C 44.8306 9.2878 45.4216 9.2237 46.403 9.7356 C 47.8854 10.5086 49.1484 11.4709 50.4652 12.4873 C 51.0115 12.9053 51.5648 13.3401 51.9236 13.9265 C 51.9519 13.9681 51.9736 14.0124 51.9982 14.0559 C 51.9736 14.0124 51.9519 13.9681 51.9236 13.9265 C 51.5648 13.3401 51.0117 12.9063 50.4652 12.4873 C 49.1464 11.4713 47.882 10.5073 46.403 9.7356 C 45.4212 9.2218 44.8306 9.2878 43.7734 9.1256 C 43.4277 9.0713 43.1303 8.8639 42.8272 8.6846 C 41.983 8.1836 41.0173 7.891 40.0379 7.8369 C 39.4725 7.8046 38.8586 7.8371 38.39 7.5179 C 38.1677 7.3678 37.9998 7.1474 37.7824 6.9921 C 37.5096 6.7974 37.1736 6.7141 36.8433 6.6593 C 36.8082 6.6542 36.7743 6.6499 36.7409 6.6434 M 36.6249 6.6265 C 36.6641 6.6316 36.7014 6.6372 36.7409 6.6434 C 36.7019 6.6392 36.6641 6.6316 36.6249 6.6265 M 36.4992 6.6119 C 36.5075 6.612 36.516 6.6131 36.5215 6.6148 C 36.515 6.6133 36.5065 6.6122 36.4992 6.6119 M 32.9434 7.1475 C 32.9356 7.1494 32.9278 7.1512 32.9234 7.1543 C 32.9278 7.1512 32.9356 7.1494 32.9434 7.1475 M 33.1781 7.0707 C 33.1018 7.0959 33.0255 7.121 32.9492 7.1462 L 32.9512 7.1457 C 33.0243 7.1203 33.1018 7.0959 33.1781 7.0707 M 34.0938 6.7844 L 34.0938 6.7844 L 34.0938 6.7844 L 34.0938 6.7844 L 34.0938 6.7844 L 34.0938 6.7844 L 34.0938 6.7844 M 34.2472 6.7463 C 34.2209 6.7524 34.1956 6.7584 34.1715 6.7651 C 34.1956 6.7584 34.2209 6.7524 34.2472 6.7463 M 34.2472 6.7463 L 34.2472 6.7463 C 34.2569 6.744 34.2666 6.7417 34.2754 6.7396 C 34.2637 6.7424 34.2569 6.744 34.2472 6.7463 M 30.3423 7.5407 L 30.3423 7.5407 C 30.9283 7.5076 31.5196 7.4969 32.0919 7.3797 L 32.0919 7.3797 L 32.0919 7.3797 L 32.0919 7.3797 C 31.5203 7.4957 30.931 7.506 30.3423 7.5407 L 30.3423 7.5407 M 26.7499 8.0737 C 23.2217 8.9059 19.8473 10.6142 17.1049 12.9001 C 17.2706 12.7615 17.4381 12.6265 17.609 12.4928 C 17.6306 12.4754 17.6534 12.4587 17.6748 12.4403 C 17.6748 12.4403 17.6748 12.4403 17.6767 12.4399 C 17.6819 12.4356 17.6851 12.4318 17.6905 12.4284 C 17.7277 12.3991 17.7672 12.3703 17.8042 12.34 C 19.6205 10.9429 21.6782 9.79 23.8537 8.9637 C 24.8004 8.6033 25.7687 8.3046 26.7499 8.0737 M 26.7652 8.0691 L 26.7652 8.0691 C 26.7652 8.0691 26.7672 8.0686 26.7691 8.0682 C 26.7672 8.0686 26.7652 8.0691 26.7652 8.0691 " stroke-width="0.9999999930077782" fill="undefined"/>
      <path id="ID0.084318230394274" fill="#585857" d="M 25.2566 12.223 C 25.2745 12.378 25.2996 12.5324 25.3427 12.6764 C 25.4345 12.5469 25.4741 12.4009 25.4038 12.2552 C 25.3555 12.2419 25.3067 12.2308 25.2566 12.223 M 26.7652 8.0691 C 26.7594 8.0704 26.7557 8.0723 26.7499 8.0737 C 25.7687 8.3046 24.7994 8.6035 23.8537 8.9637 C 21.6786 9.7919 19.6205 10.9429 17.804 12.339 C 17.767 12.3693 17.7277 12.3991 17.6905 12.4284 C 17.6851 12.4318 17.6817 12.4346 17.6767 12.4399 C 17.6767 12.4399 17.6767 12.4399 17.6748 12.4403 C 17.6534 12.4587 17.6304 12.4744 17.6088 12.4918 C 17.4381 12.6265 17.2708 12.7624 17.1047 12.8991 C 17.1049 12.9001 17.1032 12.9015 17.1032 12.9015 C 17.0836 12.9185 17.0625 12.9337 17.0431 12.9516 C 17.0397 12.9545 17.0362 12.9573 17.0328 12.9602 C 17.0205 12.9692 17.0131 12.9772 17.0011 12.9872 C 16.9589 13.0218 16.9172 13.0583 16.8762 13.0936 L 16.8762 13.0936 L 16.8762 13.0936 C 16.6471 13.2903 16.4301 13.4986 16.205 13.7035 C 16.3543 14.2941 16.47 14.8822 16.3403 15.4705 C 16.192 16.128 15.7538 16.68 15.4907 17.2998 C 15.4401 17.4164 15.3974 17.5405 15.3665 17.667 C 15.6025 17.4912 15.8383 17.3186 16.0748 17.1449 C 15.8073 17.5756 15.5557 18.0169 15.3222 18.4653 C 15.3664 18.7405 15.4874 18.9884 15.7061 19.1671 C 15.7733 19.2211 15.8435 19.2662 15.9187 19.302 C 16.7574 18.5704 17.6502 17.859 18.4096 17.0609 C 18.3436 17.1298 18.2825 17.1668 18.225 17.1803 C 17.9359 17.2483 17.7965 16.6555 17.8752 16.4531 C 18.0222 16.0867 18.8454 15.7564 19.3484 15.5497 C 19.2243 15.4761 19.1171 15.3873 19.0566 15.2567 C 18.8399 14.7725 19.5031 14.1202 19.8669 13.8805 C 19.9955 13.7938 20.1439 13.7435 20.2957 13.7077 C 20.4038 13.6823 20.5188 13.6645 20.6308 13.6474 C 20.7429 13.6303 20.8557 13.6119 20.9637 13.5865 C 21.1351 13.5462 21.2957 13.4868 21.4328 13.3796 C 21.4507 13.3641 21.4679 13.3497 21.4849 13.3345 C 21.4676 13.3395 21.4549 13.3425 21.4374 13.3466 C 21.0324 13.4419 20.63 13.4606 20.2226 13.3356 C 20.5666 12.702 21.272 12.3644 21.9327 12.0682 C 22.1741 11.959 22.4168 11.8506 22.663 11.7443 C 23.0116 11.4795 23.4165 11.2619 23.8065 11.0592 C 23.9494 10.9855 24.0981 10.9105 24.2549 10.8736 C 24.3522 10.8507 24.4481 10.8435 24.5488 10.8609 C 24.6158 10.875 24.6775 10.8974 24.7355 10.93 C 25.1203 10.8014 25.5093 10.6863 25.9026 10.5938 C 26.216 10.52 26.5346 10.4594 26.8559 10.4147 C 26.9606 10.4013 27.0622 10.3877 27.1664 10.3765 C 28.0725 10.2804 28.9876 10.3055 29.9014 10.334 C 29.6664 10.2393 29.4469 10.1317 29.2804 10.0918 C 28.9632 10.0144 28.4397 10.2608 28.4714 9.8496 C 28.4864 9.6252 28.7988 9.4336 28.9711 9.3448 C 29.0387 9.3093 29.1323 9.2791 29.2384 9.2541 C 30.0064 9.0734 31.5786 9.1884 31.1515 10.1631 C 31.1142 10.2448 31.074 10.3098 31.0233 10.3607 C 35.8854 10.4474 40.8168 10.1911 44.2721 14.3277 C 44.8225 14.9861 45.3695 15.7522 46.0163 16.3006 C 46.1212 16.0828 46.2425 15.8735 46.3905 15.6815 C 46.4839 15.5588 46.5863 15.4484 46.6952 15.3478 C 46.1292 14.3396 45.6268 13.296 45.1913 12.2222 C 46.6357 12.0169 48.1025 12.6231 49.241 13.5366 C 49.6742 13.8846 50.0668 14.274 50.4349 14.6898 C 50.5191 14.7162 50.6041 14.7455 50.6903 14.7756 C 52.1594 15.3216 53.3193 16.4571 54.4252 17.5684 C 55.3207 18.4661 56.2056 19.3715 57.0923 20.2806 C 56.8068 19.6389 56.5439 18.9889 56.3353 18.325 C 56.3351 18.324 56.3346 18.3221 56.3344 18.3211 C 56.3323 18.3123 56.3285 18.305 56.3265 18.2962 C 56.3251 18.2904 56.322 18.286 56.3204 18.2792 C 56.319 18.2733 56.3177 18.2675 56.3161 18.2607 C 56.3123 18.2534 56.3102 18.2446 56.3086 18.2378 C 56.3077 18.2339 56.3068 18.23 56.3039 18.2266 C 56.3005 18.212 56.296 18.2017 56.293 18.1891 L 56.293 18.1891 C 56.1929 17.8551 56.0956 17.5113 55.8757 17.2404 C 55.7002 17.0228 55.4576 16.8693 55.2195 16.7219 C 54.6094 16.3385 53.9979 15.9574 53.3867 15.5732 L 53.3867 15.5732 C 53.0529 15.3641 52.7102 15.1478 52.4645 14.8368 C 52.2783 14.6002 52.1556 14.3188 52.0089 14.0533 C 51.9841 14.0089 51.9607 13.9661 51.9343 13.924 C 51.5737 13.339 51.0207 12.9052 50.4742 12.4862 C 49.1569 11.4678 47.8913 10.5072 46.4137 9.733 C 45.4319 9.2192 44.8396 9.2867 43.7843 9.1241 C 43.4387 9.0698 43.1389 8.8609 42.8362 8.6835 C 41.9927 8.1855 41.0287 7.8914 40.0481 7.8366 C 39.4809 7.8057 38.8692 7.8387 38.4002 7.5175 C 38.1775 7.3655 38.0098 7.1461 37.7902 6.9902 C 37.5174 6.7956 37.1831 6.7109 36.8508 6.6565 C 36.8179 6.6519 36.785 6.6474 36.7506 6.6411 L 36.7487 6.6415 C 36.7112 6.6349 36.6724 6.6317 36.6327 6.6246 C 36.5998 6.62 36.5671 6.6164 36.5312 6.6125 C 36.5228 6.6115 36.5143 6.6104 36.5068 6.6091 C 35.7672 6.5263 35.011 6.5696 34.2841 6.7375 C 34.2744 6.7398 34.2647 6.7421 34.2579 6.7437 L 34.2579 6.7437 C 34.2316 6.7499 34.2063 6.7559 34.1802 6.763 C 34.1559 6.7688 34.1286 6.7752 34.1045 6.7819 L 34.1045 6.7819 L 34.1045 6.7819 L 34.1045 6.7819 L 34.1045 6.7819 C 33.7949 6.8629 33.4912 6.9652 33.1883 7.0663 C 33.1123 7.0924 33.0379 7.1171 32.9614 7.1412 C 32.7424 7.2143 32.5222 7.2785 32.2988 7.3331 C 32.289 7.3354 32.2793 7.3377 32.2705 7.3397 L 32.2705 7.3397 L 32.2705 7.3397 L 32.2686 7.3402 C 32.2443 7.3459 32.2151 7.3528 32.1885 7.358 L 32.1885 7.358 C 32.1688 7.3616 32.1523 7.3655 32.1328 7.3701 C 32.1231 7.3724 32.1134 7.3747 32.1063 7.3753 L 32.1063 7.3753 C 31.5313 7.4901 30.942 7.5003 30.3565 7.5353 L 30.3565 7.5353 C 29.1589 7.6065 27.9611 7.7856 26.7804 8.0635 C 26.7672 8.0686 26.7652 8.0691 26.7652 8.0691 " stroke-width="0.9999999930077782"/>
      <path id="ID0.9108041124418378" fill="#90908F" d="M 45.1827 12.2252 C 45.6178 13.2971 46.1197 14.3388 46.6862 15.3489 C 47.0884 14.9759 47.5913 14.7291 48.1354 14.6011 C 48.8752 14.427 49.6896 14.4696 50.4241 14.6923 C 50.0554 14.2778 49.6625 13.8874 49.2303 13.5391 C 48.0949 12.6259 46.6281 12.0197 45.1827 12.2252 M 16.0725 17.1485 C 15.8354 17.3193 15.6001 17.4939 15.3641 17.6696 C 15.2978 17.9338 15.2755 18.2144 15.319 18.4692 C 15.5532 18.0196 15.8039 17.5784 16.0725 17.1485 M 19.3416 15.5513 C 18.8386 15.758 18.0156 16.0893 17.8706 16.4552 C 17.7901 16.6591 17.9294 17.2509 18.2204 17.1824 C 18.2759 17.1694 18.3373 17.1334 18.4047 17.062 C 17.6436 17.8616 16.7544 18.5752 15.9138 19.3031 C 16.3008 19.4894 16.7828 19.451 17.2235 19.3853 C 17.4894 19.3454 17.7588 19.2984 18.0216 19.2366 C 18.7098 19.0746 19.3677 18.8099 19.841 18.2979 C 20.4975 17.5907 20.5633 16.2767 19.7434 15.7701 C 19.6198 15.6902 19.4727 15.6283 19.3416 15.5513 M 22.6559 11.745 C 22.4099 11.8522 22.1695 11.9611 21.9255 12.0679 C 21.2645 12.3631 20.5591 12.7006 20.2155 13.3362 C 20.6215 13.4595 21.0249 13.4406 21.4299 13.3453 C 21.4474 13.3412 21.462 13.3378 21.4776 13.3341 C 21.6541 13.1631 21.7331 12.9093 21.8403 12.6838 C 22.025 12.3033 22.3145 12.001 22.6559 11.745 M 32.9626 12.0145 C 32.9091 12.0271 32.8508 12.0326 32.7969 12.035 C 32.4734 12.0485 32.145 11.9757 31.8568 11.8247 C 31.7968 11.7926 31.7346 11.7508 31.7195 11.6865 C 31.7078 11.6369 31.7257 11.5864 31.7489 11.5409 C 31.8412 11.361 32.0039 11.2189 32.1955 11.1554 C 32.2657 11.1306 32.3164 11.1146 32.3543 11.1057 C 32.5081 11.0695 32.4286 11.155 32.7384 11.2362 C 32.881 11.2704 33.0249 11.3187 33.1347 11.4183 C 33.2422 11.5173 33.304 11.6794 33.2461 11.8132 C 33.1965 11.9256 33.0863 11.9854 32.9626 12.0145 M 25.8945 10.5946 C 25.5013 10.6872 25.1119 10.8004 24.7273 10.9299 C 25.0002 11.0855 25.1549 11.4416 25.2034 11.7702 C 25.2261 11.9189 25.2387 12.0731 25.256 12.2252 C 25.3064 12.2339 25.355 12.2441 25.4038 12.2552 C 25.4741 12.4009 25.4364 12.5464 25.3427 12.6764 C 25.37 12.7665 25.4077 12.8522 25.4573 12.9319 C 25.6804 13.2996 26.1222 13.4874 26.5505 13.5438 C 26.9766 13.5997 27.4118 13.5456 27.8456 13.5555 C 27.9622 13.5578 28.094 13.572 28.1715 13.6616 C 28.2594 13.7642 28.2375 13.9245 28.2925 14.0492 C 28.3407 14.1622 28.449 14.2384 28.5174 14.3415 C 28.6158 14.493 28.6109 14.6862 28.5399 14.856 C 29.0264 14.4087 29.5911 13.9841 30.1736 13.8357 C 30.1831 13.8324 30.1929 13.8302 30.1997 13.8285 C 30.884 13.6675 31.9406 13.9274 32.5891 14.1252 C 32.537 14.1919 32.4731 14.2213 32.3991 14.2387 C 32.3689 14.2458 32.3381 14.25 32.3004 14.2558 C 31.8229 14.3178 31.3571 14.4078 30.8987 14.5157 C 29.8931 14.7523 28.9212 15.0837 27.9376 15.4487 C 27.9832 15.402 28.0277 15.3556 28.0769 15.3071 C 27.9767 15.3573 27.8716 15.3995 27.7687 15.4381 C 27.5432 15.5189 27.2941 15.6042 27.1726 15.8126 C 27.1134 15.919 27.0938 16.0407 27.0926 16.1622 C 27.0916 16.184 27.0905 16.2059 27.0914 16.2272 C 27.1881 16.2014 27.2821 16.1772 27.3794 16.1543 C 27.5108 16.1234 27.6429 16.0954 27.7771 16.072 C 28.7846 15.8874 29.8255 15.9014 30.8223 15.6668 C 30.8602 15.6579 30.8982 15.649 30.9362 15.64 C 31.6528 15.455 32.3437 15.1342 33.0611 14.9654 C 33.2325 14.9251 33.4037 14.893 33.5749 14.8743 C 33.4481 14.711 33.3507 14.5284 33.274 14.2763 C 33.1225 13.7767 32.92 13.283 33.0456 12.7511 C 33.1822 12.1704 33.6892 11.784 34.2722 11.6468 C 34.6986 11.5465 35.1655 11.5794 35.5571 11.7677 C 36.4872 12.2146 37.0013 13.2514 37.1671 14.2705 C 37.256 14.8187 37.2666 15.3833 37.4625 15.9012 C 38.4815 16.3682 39.4603 16.9392 40.3094 17.6311 C 40.3279 17.4521 40.3432 17.2728 40.4204 17.1119 L 40.5038 17.008 C 40.5165 17.0009 40.5287 16.996 40.5443 16.9923 C 40.5862 16.9825 40.6312 16.9863 40.6724 16.991 C 40.8375 17.0117 41.0453 17.0737 41.0517 17.2407 C 41.0547 17.2883 41.0378 17.3344 41.0214 17.3783 C 40.9352 17.5928 40.8162 17.7944 40.7501 18.0154 C 41.3246 18.5449 41.8214 19.1409 42.2037 19.8009 C 42.5906 19.8342 42.987 19.8118 43.3627 19.7234 C 43.7054 19.6428 44.0301 19.5078 44.3181 19.3085 C 44.2988 19.0912 44.2389 18.8803 44.1332 18.6843 C 43.8437 18.1525 43.3145 17.7983 42.7902 17.4953 C 41.4953 16.7511 40.0943 16.1931 38.6425 15.8475 C 40.8216 16.097 43.1653 16.4218 44.7593 17.9309 C 44.8984 18.0635 45.0325 18.2056 45.1593 18.3514 C 45.5082 17.7125 45.6857 16.965 46.0054 16.3022 C 45.3584 15.7528 44.8114 14.9867 44.2614 14.3302 C 40.8063 10.1946 35.8749 10.4509 31.0126 10.3632 C 30.9419 10.4384 30.8538 10.4828 30.7632 10.5041 C 30.5082 10.5641 30.1881 10.4566 29.8902 10.3346 C 28.9766 10.3071 28.0613 10.281 27.1552 10.3771 C 27.051 10.3883 26.9485 10.4021 26.8449 10.4162 C 26.5271 10.4581 26.208 10.5209 25.8945 10.5946 " stroke-width="0.9999999930077782"/>
      <path id="ID0.449022117536515" fill="#ABABAA" d="M 40.7523 18.0118 C 40.748 18.0282 40.7429 18.0417 40.7396 18.0579 C 40.5055 18.9143 41.1591 19.6532 41.9737 19.7708 C 42.0524 19.7821 42.1289 19.7928 42.2091 19.7976 C 41.8231 19.1354 41.3261 18.5425 40.7523 18.0118 M 38.6452 15.8458 C 40.0972 16.1925 41.4978 16.7485 42.7929 17.4936 C 43.317 17.7956 43.8466 18.1518 44.1342 18.6841 C 44.2431 18.8804 44.3003 19.0929 44.3208 19.3069 C 44.4805 19.1995 44.6288 19.0701 44.7625 18.9225 C 44.9195 18.7469 45.049 18.5551 45.1598 18.3493 C 45.033 18.2034 44.9013 18.0629 44.7601 17.9297 C 43.1687 16.419 40.8255 16.0961 38.6452 15.8458 M 37.4637 15.8978 C 37.4673 15.9042 37.4686 15.91 37.4722 15.9164 C 37.6949 16.4875 38.1173 17.0384 38.5694 17.4488 C 38.8834 17.7355 39.3556 18.4894 39.8394 18.4105 C 39.8496 18.4101 39.8593 18.4078 39.8661 18.4062 C 40.0997 18.3513 40.236 18.0922 40.2815 17.8534 C 40.2942 17.7806 40.303 17.7045 40.3111 17.6297 C 39.4618 16.9368 38.4828 16.3648 37.4637 15.8978 M 27.3809 16.1519 C 27.2836 16.1748 27.1896 16.199 27.0932 16.2258 C 27.1079 16.8254 27.4899 17.3837 27.9972 17.7061 C 28.5243 18.0423 29.1643 18.1557 29.7903 18.1533 C 30.161 18.1524 30.5368 18.1122 30.9033 18.177 C 31.2044 18.2294 31.4923 18.3528 31.7965 18.3839 C 31.9583 18.3993 32.122 18.3875 32.2816 18.3499 C 32.5444 18.2881 32.79 18.1573 32.9833 17.9701 C 33.1925 17.7678 33.338 17.5086 33.5498 17.3087 C 33.8961 16.9817 34.4377 16.7773 34.5221 16.3064 C 34.5845 15.9558 34.3448 15.6228 34.0838 15.3822 C 33.8773 15.1945 33.7113 15.0435 33.5784 14.8714 C 33.4022 14.8913 33.2308 14.9224 33.0624 14.962 C 32.346 15.1306 31.6572 15.4519 30.9374 15.6366 C 30.8997 15.6465 30.8617 15.6555 30.8238 15.6644 C 29.828 15.8987 28.7869 15.8838 27.7784 16.0687 C 27.6434 16.0932 27.5123 16.121 27.3809 16.1519 " stroke-width="0.9999999930077782"/>
      <path id="ID0.16697180224582553" fill="#848483" d="M 29.2272 9.2547 C 29.1211 9.2797 29.03 9.3114 28.9621 9.3458 C 28.7898 9.4347 28.4782 9.6251 28.4602 9.8502 C 28.4308 10.2619 28.9535 10.0125 29.2712 10.0919 C 29.4346 10.1315 29.6548 10.2379 29.8904 10.3355 C 30.1885 10.4585 30.508 10.5631 30.763 10.5031 C 30.8565 10.4811 30.9407 10.4377 31.0124 10.3623 C 31.063 10.3113 31.1052 10.2459 31.1425 10.1642 C 31.5674 9.189 29.9953 9.074 29.2272 9.2547 " stroke-width="0.9999999930077782"/>
      <path id="ID0.6733169793151319" fill="#848483" d="M 32.3555 11.1064 C 32.3176 11.1153 32.2669 11.1314 32.1967 11.1561 C 32.0056 11.2216 31.8394 11.3624 31.7501 11.5416 C 31.7267 11.5862 31.71 11.6374 31.7217 11.687 C 31.7348 11.7517 31.799 11.7931 31.859 11.8253 C 32.1453 11.9767 32.4736 12.0494 32.7972 12.036 C 32.8534 12.0351 32.9093 12.0281 32.9648 12.015 C 33.0865 11.9864 33.1989 11.9271 33.2463 11.8142 C 33.3052 11.6802 33.2424 11.5182 33.1349 11.4192 C 33.0256 11.3217 32.8817 11.2733 32.7386 11.2371 C 32.43 11.1567 32.5093 11.0702 32.3555 11.1064 " stroke-width="0.9999999930077782"/>
      <path id="ID0.19748767651617527" fill="#949494" d="M 30.2002 13.8264 C 30.1905 13.8287 30.1827 13.8305 30.1739 13.8326 C 29.5907 13.9821 29.0267 14.4056 28.54 14.8519 C 28.5103 14.9226 28.4694 14.9887 28.4211 15.0453 C 28.3267 15.1548 28.2074 15.2373 28.0779 15.3027 C 28.0287 15.3513 27.9844 15.3987 27.9389 15.4453 C 28.922 15.0784 29.8932 14.7482 30.8997 14.5114 C 31.3582 14.4035 31.8244 14.3154 32.3034 14.251 C 32.3383 14.2468 32.369 14.2417 32.4021 14.2339 C 32.4741 14.2169 32.5381 14.1875 32.5906 14.1227 C 31.9431 13.9248 30.8865 13.6649 30.2002 13.8264 " stroke-width="0.9999999930077782"/>
      <path id="ID0.07347159739583731" fill="#90908F" d="M 18.5151 24.9227 C 18.3038 25.1686 18.1109 25.4318 17.9395 25.7074 C 17.9501 25.7614 17.9567 25.8153 17.9637 25.8712 C 18.0328 26.4138 17.9025 26.991 17.5825 27.4341 C 17.7479 27.6437 18.0013 27.8081 18.2376 27.9436 C 18.3098 27.9841 18.3791 28.0253 18.4527 28.0717 C 18.6082 27.9118 18.7634 27.7551 18.9196 27.6023 C 19.2363 27.2935 19.5985 26.934 19.5591 26.4913 C 19.5211 26.0636 19.122 25.7774 18.8444 25.4493 C 18.7077 25.2873 18.5974 25.1109 18.5151 24.9227 " stroke-width="0.9999999930077782"/>
      <path id="ID0.12021943414583802" fill="#ABABAA" d="M 21.8949 22.8094 C 20.5905 23.1163 19.3973 23.8871 18.518 24.922 C 18.5998 25.1082 18.7102 25.2846 18.8466 25.4498 C 19.1244 25.7789 19.5235 26.0651 19.5615 26.4928 C 19.6015 26.9333 19.2387 27.295 18.9217 27.6028 C 18.7644 27.7549 18.6091 27.9116 18.4551 28.0732 C 18.7741 28.2765 19.0679 28.5382 19.0914 28.9004 C 19.106 29.1066 19.0245 29.3055 18.9662 29.5031 C 18.7853 30.123 18.8916 30.6271 19.0505 31.2194 C 19.1895 31.723 19.0215 32.3142 18.5101 32.5465 C 18.2347 32.6729 17.9104 32.6742 17.6478 32.8285 C 16.9906 33.2184 17.0678 34.3457 17.3994 34.921 C 17.5636 35.1998 17.8585 35.379 18.0723 35.6153 C 18.3636 35.932 18.6304 36.2494 19.0825 36.3197 C 19.3011 36.3535 19.5203 36.3204 19.7364 36.2696 C 19.8143 36.2513 19.8934 36.2296 19.9708 36.2093 C 20.05 36.1876 20.1274 36.1673 20.2053 36.149 C 20.2608 36.1359 20.3138 36.1255 20.3697 36.1144 C 20.5453 36.0834 20.7213 36.0718 20.8977 36.1053 C 21.1076 36.1463 21.3053 36.2528 21.5232 36.2488 C 21.5734 36.2483 21.6224 36.2429 21.6711 36.2315 C 21.8405 36.1916 22.0002 36.0934 22.1505 35.9985 C 22.6453 35.6869 23.2032 35.2464 23.1334 34.6659 C 23.0661 34.1136 22.4291 33.7026 22.5085 33.1539 C 22.5442 32.904 22.7261 32.6989 22.9309 32.5521 C 23.0049 32.4998 23.0921 32.4515 23.1807 32.4307 C 23.2625 32.4114 23.3432 32.414 23.4168 32.4604 C 23.5014 32.5144 23.5476 32.6145 23.5831 32.7089 C 23.9411 33.6058 24.179 34.5514 24.293 35.5118 C 24.3039 35.6017 24.3164 35.6984 24.3812 35.7602 C 24.4217 35.7969 24.4746 35.8163 24.5287 35.8324 C 25.0466 36.0033 25.4895 36.0172 25.9646 35.9054 C 26.1456 35.8628 26.3274 35.8016 26.5223 35.7259 C 26.9308 35.5497 27.3385 35.2873 27.4922 34.8751 C 27.6883 34.3595 27.4386 33.7608 27.6134 33.242 C 27.7827 32.7347 28.3031 32.4315 28.5852 31.9757 C 29.0911 31.1571 28.7234 30.1095 28.6686 29.1474 C 28.6329 28.5199 28.7393 27.8806 28.6111 27.2656 C 28.4707 26.5816 28.0317 25.9647 27.4315 25.6056 C 27.0134 25.3568 26.5209 25.2241 26.1702 24.8905 C 25.7548 24.4962 25.6085 23.8916 25.2405 23.4543 C 24.7425 22.8657 23.9183 22.6682 23.1492 22.6653 C 22.7233 22.6628 22.3037 22.7132 21.8949 22.8094 " stroke-width="0.9999999930077782"/>
      <path id="ID0.052685847505927086" fill="#949494" d="M 17.9395 25.7074 C 17.7954 25.9375 17.6652 26.1787 17.5504 26.4246 C 17.4694 26.5998 17.3928 26.7852 17.4023 26.9782 C 17.4091 27.1512 17.4781 27.3004 17.583 27.4319 C 17.9023 26.99 18.0335 26.4126 17.9642 25.869 C 17.9571 25.8173 17.9501 25.7614 17.9395 25.7074 " stroke-width="0.9999999930077782"/>
      <path id="ID0.8072715853340924" fill="#90908F" d="M 18.2132 40.0387 C 18.0224 40.2407 17.8436 40.4544 17.6772 40.6774 C 18.2154 40.9956 18.794 41.2365 19.4003 41.1544 C 19.0042 40.7895 18.6016 40.4188 18.2132 40.0387 M 52.0022 27.4069 C 52.092 29.6746 51.0903 32.1847 51.786 34.3685 C 51.8361 34.3587 51.8876 34.3466 51.9363 34.3351 C 52.2001 34.2731 52.4541 34.1825 52.6712 34.0225 C 52.9822 33.7942 53.1857 33.4453 53.3316 33.0874 C 54.1144 31.1835 53.4306 28.8932 52.0022 27.4069 M 43.4237 21.061 C 43.2164 21.1098 43.0156 21.1776 42.8155 21.2483 C 42.8277 21.2916 42.8395 21.333 42.8498 21.3768 C 42.8741 21.3711 42.9001 21.3681 42.9225 21.3628 C 43.1698 21.3046 43.3948 21.187 43.5901 21.0259 C 43.5862 21.0269 43.5823 21.0278 43.5784 21.0287 C 43.5271 21.0377 43.4753 21.0488 43.4237 21.061 " stroke-width="0.9999999930077782"/>
      <path id="ID0.009481305256485939" fill="#F8F8F8" d="M 40.2152 59.0754 C 40.2172 59.0749 40.2191 59.0745 40.2211 59.074 L 40.2211 59.074 C 40.2191 59.0745 40.2172 59.0749 40.2152 59.0754 M 42.8007 58.0222 C 42.0032 58.4965 41.1344 58.8601 40.2332 59.0732 C 41.1329 58.8584 42.0032 58.4965 42.8007 58.0222 M 28.2766 58.9299 C 30.2608 59.4082 32.2995 59.8161 34.304 59.4852 C 34.8566 59.3932 35.4015 59.2465 35.958 59.1885 C 35.4015 59.2465 34.8587 59.3937 34.304 59.4852 C 32.2995 59.8161 30.2608 59.4082 28.2766 58.9299 M 22.6832 56.9186 C 22.6897 56.9201 22.6943 56.9221 22.7008 56.9237 L 22.7008 56.9237 C 22.6943 56.9221 22.6895 56.9191 22.6832 56.9186 M 22.6634 56.913 C 22.6653 56.9125 22.6677 56.914 22.6701 56.9155 C 22.6677 56.914 22.6653 56.9125 22.6634 56.913 M 57.9463 44.9631 C 57.9705 45.1927 58.012 45.4387 57.9232 45.6507 C 58.0118 45.4378 57.971 45.1946 57.9463 44.9631 M 57.9363 44.2875 C 57.9346 44.2889 57.9329 44.2903 57.9292 44.2922 C 57.9156 44.5009 57.9227 44.7231 57.9459 44.9612 C 57.922 44.7202 57.9234 44.499 57.9363 44.2875 " stroke-width="0.9999999930077782"/>
      <path id="ID0.18136898195371032" d="M 22.681 56.9181 C 22.6875 56.9196 22.6943 56.9221 22.7008 56.9237 C 22.6943 56.9221 22.6897 56.9201 22.6832 56.9186 C 22.6812 56.919 22.6812 56.919 22.681 56.9181 " stroke-width="0.9999999930077782" fill="undefined"/>
      <path id="ID0.2800529384985566" fill="#585857" d="M 20.3702 50.8171 C 20.3694 50.8574 20.3677 50.8979 20.3603 50.9366 C 20.3302 51.1142 20.2443 51.2772 20.1581 51.4351 C 19.914 51.8994 19.6805 52.431 19.8337 52.9292 C 19.9621 53.0818 20.0973 53.2288 20.2337 53.3672 C 21.5826 54.7254 23.2924 55.6832 24.62 57.0597 C 23.919 56.5035 23.1417 56.0381 22.3393 55.6054 C 22.3591 55.7333 22.3153 55.8617 22.2724 55.9848 C 22.1806 56.2407 22.0723 56.4922 21.9599 56.7395 C 22.1934 56.8017 22.4312 56.8474 22.6636 56.9139 C 22.6677 56.914 22.6682 56.9159 22.6704 56.9165 C 22.6747 56.9175 22.6788 56.9175 22.6812 56.919 C 22.6899 56.9211 22.6948 56.9241 22.7011 56.9246 L 22.7011 56.9246 C 23.3078 57.1065 23.8451 57.4557 24.4122 57.7353 C 25.4378 58.2388 26.5553 58.5131 27.663 58.7846 C 27.8689 58.8348 28.0737 58.8842 28.2772 58.9329 C 30.2635 59.4106 32.3023 59.8195 34.3068 59.4886 C 34.8594 59.3966 35.4041 59.2489 35.9589 59.1924 C 36.0512 59.183 36.1418 59.175 36.2325 59.1722 C 36.8284 59.146 37.4255 59.252 38.0208 59.2846 C 38.7584 59.3237 39.4972 59.2505 40.2186 59.0808 C 40.2186 59.0808 40.2205 59.0803 40.2244 59.0794 C 40.2263 59.0789 40.2322 59.0776 40.2341 59.0771 C 41.137 58.8626 42.0063 58.5009 42.8017 58.0261 C 42.863 57.9901 42.9228 57.9514 42.9822 57.9158 C 44.0977 57.2167 45.0817 56.299 46.2802 55.756 C 46.9307 55.4602 47.6303 55.2853 48.3034 55.0417 C 50.5171 54.2424 52.4322 52.7193 53.8628 50.853 C 55.0836 49.261 55.9936 47.4002 57.5234 46.1084 C 57.678 45.9796 57.8418 45.8507 57.9205 45.6657 C 57.922 45.6633 57.9231 45.6589 57.9246 45.6565 C 58.0127 45.4416 57.9724 45.1963 57.9492 44.9666 L 57.9492 44.9666 L 57.9492 44.9666 C 57.9229 44.7282 57.9189 44.5062 57.9323 44.2966 C 56.8596 44.999 55.7983 45.7058 55.054 46.7295 C 54.7612 47.1313 54.4471 47.6212 53.9867 47.7296 C 53.9507 47.738 53.9142 47.7446 53.8748 47.7477 C 53.4445 48.154 52.9957 48.5391 52.5363 48.905 C 50.3921 50.6197 47.9927 51.9969 45.826 53.686 C 44.0865 55.0425 42.3875 56.6545 40.2577 57.1556 C 40.1496 57.1811 40.0377 57.2033 39.9264 57.2233 C 37.8955 57.582 35.733 56.8396 33.7608 57.3036 C 33.571 57.3483 33.381 57.4053 33.195 57.4747 C 34.3603 56.878 35.5224 56.2809 36.6887 55.6839 C 36.4194 55.7576 36.1463 55.828 35.8747 55.8919 C 33.2552 56.5083 30.5089 56.6726 27.8907 56.0765 C 24.9991 55.4183 22.2744 53.7664 20.6588 51.2793 C 20.558 51.1263 20.4632 50.972 20.3702 50.8171 M 18.575 48.1997 C 18.5264 48.3334 18.4844 48.4697 18.4522 48.6077 C 18.7395 48.685 19.0119 48.812 19.2564 48.9825 C 19.0517 48.7019 18.831 48.4364 18.575 48.1997 " stroke-width="0.9999999930077782"/>
      <path id="ID0.2384038078598678" fill="#90908F" d="M 19.8322 52.9316 C 19.8365 52.9408 19.8387 52.9506 19.8406 52.9584 C 20.0118 53.4636 20.5208 53.7537 20.9491 54.0721 C 21.4185 54.4208 21.8227 54.8507 22.1835 55.3103 C 22.2447 55.3914 22.3084 55.474 22.3317 55.5733 C 22.3342 55.584 22.3365 55.5938 22.3369 55.6039 C 23.1413 56.0362 23.9185 56.5016 24.6195 57.0578 C 23.2898 55.6807 21.58 54.7229 20.233 53.3643 C 20.0973 53.2288 19.9625 53.0838 19.8322 52.9316 M 27.4198 46.4432 C 28.1589 47.2134 28.3216 48.5292 29.2695 49.0345 C 29.5652 49.1909 29.903 49.247 30.2256 49.3386 C 30.2939 49.3584 30.364 49.381 30.4342 49.4045 C 30.4776 49.2659 30.5133 49.125 30.5306 48.9802 C 30.6839 47.7545 29.673 46.4617 28.4352 46.4273 C 28.0986 46.4202 27.7549 46.4527 27.4198 46.4432 M 48.2898 38.5678 C 47.8749 38.8257 47.5238 39.1148 47.5258 39.5777 C 47.5284 40.0907 48.0101 40.4571 48.2385 40.917 C 48.3858 41.2111 48.413 41.5406 48.3482 41.859 C 48.3856 41.7865 48.416 41.7105 48.4442 41.634 C 48.6127 41.1495 48.6099 40.6221 48.5612 40.1097 C 48.5119 39.5901 48.4199 39.0725 48.2898 38.5678 M 37.4836 54.1419 C 37.9827 53.4163 38.8664 53.0676 39.716 52.841 C 40.0708 52.7462 40.4387 52.6638 40.7488 52.4624 C 41.1291 52.2188 41.3671 51.833 41.5991 51.4394 C 41.7059 51.2602 41.8108 51.0773 41.9269 50.9072 C 42.5091 50.046 43.4531 49.4561 44.4064 49.0715 C 44.4815 49.0415 44.5592 49.014 44.6391 48.9952 C 44.7286 48.9741 44.8173 48.9666 44.9061 48.9776 C 45.0761 49.0013 45.2449 49.1208 45.2722 49.289 C 45.3072 49.5078 45.1158 49.6895 44.939 49.8245 C 44.4564 50.1877 44.0219 50.4543 43.6204 50.9135 C 43.2593 51.3221 42.9076 51.7962 42.4925 52.1497 C 42.0907 52.4898 41.4878 52.6213 40.9967 52.8088 C 39.8241 53.2522 38.6531 53.6982 37.4836 54.1419 M 29.2829 54.9681 C 26.9951 54.4791 24.4569 54.1662 23.3572 51.8196 C 25.2484 52.8715 27.1282 54.4684 29.2829 54.9681 C 29.3443 54.9804 29.4074 54.9953 29.4691 55.0086 C 29.4057 54.9968 29.3453 54.9843 29.2829 54.9681 M 16.5558 42.8315 C 16.3442 43.4823 16.223 44.1631 16.212 44.8499 C 16.2078 45.1118 16.2191 45.3824 16.3316 45.6159 C 16.4495 45.8594 16.6626 46.0404 16.8392 46.2453 C 17.1255 46.5756 17.3229 46.978 17.4094 47.4066 C 17.4788 47.754 17.4964 48.1607 17.7767 48.3783 C 17.9451 48.5133 18.1723 48.54 18.3806 48.5917 C 18.4036 48.5976 18.4292 48.6018 18.4524 48.6087 C 18.4827 48.4711 18.5246 48.3349 18.5755 48.2017 C 18.8315 48.4383 19.0531 48.7036 19.2569 48.9844 C 19.7393 49.3188 20.1143 49.8079 20.2923 50.3681 C 20.3388 50.5133 20.373 50.6675 20.3707 50.8191 C 20.4636 50.9739 20.5556 51.129 20.6554 51.2781 C 22.2719 53.7649 24.9933 55.4155 27.8854 56.0757 C 30.5038 56.6728 33.2495 56.5055 35.8689 55.8892 C 36.1425 55.8248 36.4141 55.7568 36.6853 55.6827 C 35.5196 56.2775 34.3577 56.8755 33.1933 57.472 C 33.3777 57.404 33.5676 57.347 33.7575 57.3023 C 35.7286 56.8385 37.8939 57.5793 39.923 57.2221 C 40.0343 57.202 40.1462 57.1798 40.2543 57.1544 C 42.3841 56.6532 44.0831 55.0413 45.8222 53.6828 C 47.9891 51.9946 50.3875 50.6177 52.533 48.9037 C 52.9924 48.5378 53.444 48.1521 53.8715 47.7464 C 53.8501 47.7473 53.8258 47.7489 53.8023 47.7493 C 53.4741 47.7516 53.182 47.545 52.9251 47.3393 C 52.2234 46.7802 51.5483 46.1203 51.2656 45.2684 C 50.983 44.4165 51.2136 43.34 51.9883 42.8907 C 52.1528 42.7954 52.3264 42.7341 52.5094 42.691 C 52.7644 42.631 53.0335 42.6088 53.3035 42.5863 C 53.5738 42.5649 53.8426 42.5417 54.0996 42.4812 C 54.2417 42.4478 54.3821 42.4024 54.5171 42.3388 C 55.3495 41.9385 55.7178 40.9016 55.6156 39.9825 C 55.5153 39.0631 55.0452 38.2306 54.5833 37.4291 C 54.0316 36.4638 53.1767 35.3716 52.1721 35.2587 C 52.634 36.1126 53.245 36.9108 53.3021 37.8693 C 53.3812 39.1964 52.3937 40.226 51.5378 41.1074 C 50.4876 42.1887 49.8215 43.3573 49.093 44.6752 C 48.3929 45.9392 47.4442 47.0634 46.313 47.9623 C 46.1498 47.823 46.245 47.5643 46.3502 47.3783 C 46.7602 46.6582 47.1724 45.9346 47.5824 45.2146 C 46.7457 45.8542 45.9063 46.4914 45.0693 47.1301 C 44.8771 47.278 44.6817 47.4257 44.4505 47.5037 C 44.4173 47.5157 44.3835 47.5246 44.3474 47.5331 C 44.0359 47.6064 43.7005 47.5559 43.3784 47.532 C 42.8131 47.4914 42.2427 47.5383 41.6888 47.6687 C 41.1943 47.785 40.7154 47.9675 40.2698 48.2131 C 40.6064 47.6223 41.287 47.3276 41.9437 47.1495 C 42.6001 46.9704 43.2932 46.8556 43.8555 46.4726 C 44.3949 46.1063 44.7491 45.5289 45.1761 45.0339 C 45.7645 44.352 46.4965 43.8171 47.1783 43.2263 C 47.0953 43.2581 47.013 43.2836 46.9273 43.3038 C 46.4367 43.4192 45.9049 43.3594 45.4201 43.1766 C 45.0492 43.5166 44.6483 43.8257 44.2433 44.1172 C 43.0072 45.0111 41.6747 45.7704 40.2784 46.3856 C 39.6998 46.6378 39.1219 46.705 38.5462 46.9216 C 38.6018 46.9352 38.6499 46.9783 38.6817 47.0304 C 38.8173 47.2399 38.7116 47.5155 38.6029 47.7434 C 38.2931 48.3957 37.8219 49.611 37.0198 49.7997 C 37.0081 49.8024 36.9974 49.805 36.9857 49.8077 C 36.9169 49.8208 36.8226 49.8132 36.8023 49.744 L 36.8188 49.6528 C 36.9598 49.331 37.2342 49.2438 37.5066 49.0698 C 37.8338 48.8582 38.0628 48.491 38.1038 48.1023 C 38.1211 47.9051 38.0987 47.7049 38.113 47.5084 C 38.1287 47.326 38.1842 47.1383 38.314 47.0132 C 37.8318 47.1996 37.3564 47.3967 36.8814 47.5917 C 36.9746 47.7084 37.0574 47.8287 37.1166 47.9668 C 37.5106 48.8819 36.6357 49.8962 35.6846 50.194 C 35.5969 50.2228 35.5061 50.2473 35.4194 50.2677 C 34.9931 50.368 34.5538 50.4005 34.1134 50.4322 C 33.7662 50.4584 33.4189 50.4846 33.0783 50.5432 C 33.5217 50.7378 33.9621 50.9331 34.4035 51.1282 C 34.4046 51.1239 34.4041 51.1219 34.4032 51.118 C 34.4603 51.0902 34.5254 51.0656 34.5877 51.051 C 34.7055 51.0233 34.8231 51.0295 34.8914 51.1234 C 34.9266 51.1726 34.9376 51.2327 34.9477 51.293 C 34.9966 51.5794 35.0633 51.8626 35.1492 52.1404 C 35.1903 52.2714 35.2379 52.4082 35.3429 52.4965 C 35.4733 52.6055 35.6575 52.6156 35.8244 52.5999 C 35.9089 52.5924 35.9899 52.5785 36.0716 52.5592 C 36.2867 52.5086 36.4914 52.4265 36.7026 52.3419 C 36.9139 52.2573 37.1243 52.1739 37.3492 52.1209 C 37.4008 52.1088 37.4538 52.0984 37.5066 52.0911 C 37.8411 52.0371 38.1866 51.9948 38.5166 51.9172 C 38.866 51.8349 39.2012 51.7139 39.4887 51.5035 C 39.9165 51.1912 40.1943 50.717 40.5722 50.3455 C 40.925 49.9934 41.3583 49.7394 41.7887 49.4861 C 42.2331 49.2264 42.6752 48.9662 43.1203 48.7053 C 42.5561 49.7699 41.2192 50.1697 40.4392 51.0898 C 40.2493 51.3132 40.0927 51.5689 39.8681 51.7584 C 39.6379 51.9502 39.3776 52.0443 39.1079 52.1078 C 38.9726 52.1396 38.8341 52.1619 38.695 52.1865 C 38.5559 52.211 38.4178 52.2352 38.2825 52.2671 C 38.1491 52.2985 38.0186 52.3374 37.8924 52.3907 C 37.2124 52.6832 36.5614 52.9597 35.8274 53.1324 C 35.8157 53.1351 35.8031 53.1381 35.7914 53.1409 C 35.542 53.1985 35.2294 53.2238 35.0824 53.018 C 35.0037 52.906 35.0009 52.7588 34.9534 52.6312 C 34.8893 52.4594 34.7456 52.3288 34.6454 52.1736 C 34.5038 51.9563 34.4516 51.6994 34.4259 51.4373 C 33.3564 51.7773 32.2633 52.0438 31.1716 52.3068 C 31.1453 52.313 31.1161 52.3199 31.0898 52.3261 C 30.8961 52.3716 30.7005 52.4094 30.5026 52.3892 C 30.4511 52.3839 30.4005 52.3742 30.3492 52.3616 C 30.2829 52.4728 30.2188 52.5844 30.1614 52.6986 C 29.9165 52.5528 29.7691 52.3194 29.6972 52.0486 C 29.594 51.9856 29.4889 51.923 29.3817 51.8691 C 28.8177 51.5765 28.3474 51.6605 27.7496 51.6522 C 27.2377 51.6421 26.6686 51.3364 26.2221 51.0849 C 25.4127 50.6313 24.7051 50.0078 23.8946 49.5585 C 22.9626 49.0422 22.1869 48.7624 21.4889 47.9744 C 20.8302 47.2315 20.2338 46.3733 19.5578 45.618 C 18.859 44.8311 18.1782 43.7103 17.25 43.1839 C 17.0293 43.054 16.7912 42.9456 16.5558 42.8315 " stroke-width="0.9999999930077782"/>
      <path id="ID0.7432477637194097" fill="#ABABAA" d="M 32.808 50.5996 C 32.7857 50.6049 32.7584 50.6113 32.7341 50.617 C 31.7574 50.8674 30.8891 51.5083 30.3531 52.3607 C 30.402 52.3718 30.4528 52.3825 30.5063 52.3873 C 30.7042 52.4075 30.9 52.3707 31.0937 52.3251 C 31.12 52.319 31.1492 52.3121 31.1752 52.3049 C 32.2668 52.0409 33.3603 51.7764 34.4298 51.4364 C 34.4196 51.332 34.4111 51.2302 34.4091 51.1259 C 33.9638 50.9317 33.5253 50.7359 33.0839 50.5409 C 32.9886 50.5592 32.8966 50.5788 32.808 50.5996 M 51.6575 35.2894 C 51.6137 35.2997 51.5684 35.3124 51.5235 35.327 C 50.3532 35.7103 50.0988 37.2967 49.1215 38.0465 C 48.8754 38.2359 48.5678 38.3956 48.2891 38.569 C 48.4201 39.0734 48.5092 39.5918 48.5573 40.1106 C 48.606 40.6231 48.6088 41.1504 48.4401 41.6339 C 48.4119 41.7104 48.3817 41.7874 48.3441 41.8589 C 48.2354 42.3971 47.8653 42.9023 47.3634 43.1488 C 47.3048 43.179 47.2419 43.2041 47.1797 43.228 C 46.4977 43.8179 45.7628 44.3534 45.1775 45.0356 C 44.7505 45.5306 44.3959 46.1061 43.8569 46.4743 C 43.2947 46.8573 42.6011 46.9701 41.9449 47.1502 C 41.2887 47.3303 40.6079 47.624 40.2712 48.2149 C 40.7149 47.9697 41.1957 47.7867 41.6902 47.6704 C 42.2412 47.5407 42.8143 47.4922 43.3799 47.5337 C 43.7048 47.5569 44.0374 47.6081 44.3508 47.5344 C 44.3849 47.5264 44.4187 47.5174 44.4519 47.5055 C 44.6805 47.4291 44.8785 47.2797 45.0707 47.1318 C 45.9097 46.4926 46.7471 45.8559 47.5838 45.2163 C 47.1738 45.9363 46.7616 46.66 46.3517 47.38 C 46.246 47.5641 46.1531 47.8243 46.314 47.9621 C 47.4454 47.0641 48.3961 45.9395 49.0942 44.676 C 49.8239 43.3588 50.49 42.1902 51.5393 41.1091 C 52.3951 40.2277 53.3845 39.1977 53.3055 37.8705 C 53.2467 36.9135 52.6354 36.1143 52.1733 35.2594 C 52.0072 35.2389 51.8346 35.2477 51.6575 35.2894 M 21.0739 38.2078 C 20.8549 38.2593 20.64 38.3417 20.4352 38.4361 C 19.5956 38.8145 18.8423 39.3677 18.2142 40.0384 C 18.6028 40.4196 19.0071 40.7888 19.4035 41.1547 C 18.7967 41.2348 18.2162 40.9944 17.6784 40.6781 C 17.1913 41.328 16.8098 42.0598 16.556 42.8325 C 16.7912 42.9456 17.0293 43.054 17.2568 43.1823 C 18.1838 43.7121 18.8665 44.8325 19.5649 45.6174 C 20.236 46.3738 20.8351 47.2303 21.4937 47.9732 C 22.1908 48.7615 22.9667 49.0423 23.8997 49.5583 C 24.7121 50.0071 25.4173 50.6292 26.227 51.0838 C 26.6739 51.3372 27.2448 51.6415 27.7562 51.6496 C 28.3523 51.6593 28.8226 51.5754 29.3885 51.8675 C 29.496 51.9224 29.5989 51.9844 29.7043 52.048 C 29.6059 51.6736 29.6552 51.2326 29.7896 50.865 C 29.9736 50.3677 30.2737 49.9056 30.4352 49.4043 C 30.3669 49.3803 30.2961 49.359 30.2268 49.3393 C 29.9059 49.2463 29.5683 49.1912 29.2724 49.0338 C 28.3225 48.5289 28.162 47.2137 27.421 46.444 C 27.1589 46.4389 26.9025 46.4057 26.6571 46.3104 C 26.5553 46.2707 26.4568 46.2188 26.3837 46.1395 C 26.0866 45.8241 26.3395 45.3054 26.6551 45.0093 C 26.9706 44.7131 27.3759 44.4226 27.3925 43.9913 C 27.404 43.7256 27.2573 43.4776 27.2396 43.2147 C 27.213 42.8224 27.4687 42.4725 27.5492 42.0899 C 27.6916 41.4071 27.2515 40.7155 26.6775 40.3195 C 26.1006 39.9241 25.4096 39.7508 24.7512 39.5245 C 24.0591 39.2857 23.3898 38.9819 22.7549 38.6197 C 22.4344 38.4362 22.1148 38.2351 21.7516 38.1757 C 21.5244 38.1357 21.2958 38.1556 21.0739 38.2078 M 43.5901 21.0259 C 43.3944 21.185 43.1715 21.3032 42.9223 21.3618 C 42.8999 21.3671 42.8741 21.3711 42.8498 21.3768 C 42.8395 21.333 42.8277 21.2916 42.8155 21.2483 C 42.5012 21.3623 42.1902 21.4899 41.8665 21.5815 C 41.7896 21.6037 41.7122 21.624 41.6324 21.6427 C 41.4231 21.692 41.2113 21.7305 40.9987 21.7703 C 40.7867 21.8078 40.5734 21.8488 40.3661 21.8975 C 39.9835 21.9876 39.6199 22.1101 39.2959 22.3312 C 39.0932 22.4693 38.9074 22.6578 38.8544 22.8953 C 38.8082 23.1096 38.8774 23.3337 38.8768 23.5537 C 38.8749 24.3318 38.0356 24.9823 38.2065 25.7434 C 38.3162 26.2446 38.8577 26.6247 38.8074 27.1358 C 38.775 27.4742 38.4892 27.7264 38.2221 27.9402 C 37.2091 28.7611 36.2102 29.48 35.1067 30.169 C 34.2719 30.6901 33.3428 31.3042 33.1463 32.3418 C 32.8749 33.7555 34.1498 35.0304 34.2268 36.467 C 34.287 37.6003 33.6027 38.6171 33.1347 39.6538 C 32.6658 40.6867 32.4624 42.0577 33.2892 42.834 C 33.8586 43.3678 34.7588 43.4518 35.2802 44.0308 C 35.9541 44.7814 35.7065 46.0128 36.257 46.8592 C 36.4325 47.1292 36.6847 47.3452 36.8831 47.5944 C 37.3592 47.4002 37.8345 47.202 38.3154 47.0149 C 38.327 47.0029 38.338 46.9932 38.3542 46.9832 C 38.3858 46.9562 38.4252 46.9357 38.4651 46.9263 C 38.4855 46.9215 38.5079 46.9203 38.528 46.9228 C 38.5343 46.9234 38.541 46.9259 38.5497 46.9279 C 39.1244 46.7116 39.7034 46.6442 40.2815 46.39 C 41.6787 45.7787 43.0107 45.0174 44.2471 44.1245 C 44.6521 43.833 45.0527 43.523 45.4237 43.183 C 45.2164 43.1054 45.0175 43.0022 44.8355 42.8837 C 44.3562 42.5712 43.8755 42.1131 43.3104 42.1999 C 43.2875 42.2032 43.2622 42.2092 43.2398 42.2144 C 42.941 42.2847 42.6834 42.4912 42.3854 42.5737 C 42.3717 42.5769 42.3571 42.5803 42.3435 42.5835 C 41.4519 42.7933 40.629 41.7542 40.7437 40.8314 C 40.8583 39.8952 41.5911 39.1629 42.3434 38.5925 C 43.0306 38.0681 44.0426 37.5362 44.3955 36.7043 C 44.5074 36.4375 44.52 36.1069 44.35 35.8736 C 44.2118 35.6791 43.9722 35.5731 43.8359 35.3782 C 43.6195 35.0654 43.7515 34.5916 44.0699 34.3862 C 44.1485 34.3359 44.2344 34.2992 44.3229 34.2784 C 44.5965 34.214 44.9033 34.2826 45.1377 34.4493 C 45.4488 34.671 45.6678 35.056 46.0419 35.1354 C 46.1522 35.1588 46.2588 35.1533 46.3629 35.1287 C 46.6822 35.0536 46.9802 34.8006 47.2941 34.659 C 47.3954 34.6136 47.5006 34.5806 47.6048 34.5561 C 48.0496 34.4514 48.5318 34.5054 48.9964 34.5369 C 49.8518 34.5924 50.715 34.5496 51.5617 34.4151 C 51.6351 34.404 51.708 34.3909 51.7837 34.3762 C 51.0858 32.1961 52.0897 29.6823 51.9999 27.4146 C 51.9607 27.3745 51.9227 27.3352 51.8839 27.297 C 51.8344 27.2481 51.7786 27.1985 51.7095 27.1932 C 51.693 27.193 51.678 27.1945 51.6624 27.1981 C 51.5884 27.2156 51.5276 27.2802 51.4639 27.3281 C 51.395 27.3761 51.323 27.4105 51.2471 27.4284 C 51.066 27.471 50.8646 27.4403 50.6613 27.4101 C 50.456 27.3803 50.2476 27.3502 50.0578 27.3949 C 50.0374 27.3997 50.0183 27.4062 49.9993 27.4128 C 49.7759 27.4848 49.5904 27.6703 49.3656 27.7232 C 49.3374 27.7298 49.3096 27.7343 49.2822 27.7356 C 48.9923 27.7565 48.7488 27.5252 48.5542 27.309 C 48.5436 27.2992 48.5353 27.2898 48.5255 27.2788 C 48.5913 27.515 48.5724 27.7752 48.5639 28.0577 C 48.5508 28.6484 48.6248 29.2114 48.5195 29.8032 C 48.4663 30.1055 48.3685 30.4233 48.1293 30.6162 C 48.1028 30.6389 48.0696 30.659 48.0345 30.6673 C 48.0141 30.6721 47.9915 30.6723 47.9698 30.663 L 47.8904 30.5831 C 47.6189 30.1364 47.7129 29.5626 47.8722 29.0649 C 47.9348 28.8724 48.0078 28.6765 48.0007 28.4758 C 47.9771 27.7293 47.4426 27.1082 47.0184 26.5454 C 46.5707 25.9481 46.3744 25.2053 46.1877 24.4819 C 46.0747 24.0451 45.9625 23.5856 46.0642 23.1446 C 46.3787 23.9531 46.6956 24.763 47.008 25.5709 C 47.1165 25.8444 47.2316 26.1285 47.4525 26.3252 C 47.6277 26.4802 47.854 26.5646 48.0534 26.6872 C 47.9524 26.524 47.8755 26.35 47.8429 26.1593 C 47.7279 25.5176 48.1387 24.8405 47.9348 24.2228 C 47.8201 23.8707 47.5261 23.6122 47.2978 23.3228 C 46.999 22.9483 46.7927 22.5078 46.4959 22.1328 C 45.8229 21.2721 44.6601 20.8317 43.5901 21.0259 " stroke-width="0.9999999930077782"/>
      <path id="ID0.3595845615491271" fill="#848483" d="M 46.0637 23.1385 C 45.965 23.5789 46.0772 24.0384 46.1893 24.4753 C 46.3762 25.1998 46.5727 25.9435 47.0222 26.5394 C 47.4437 27.1039 47.9789 27.7238 48.0025 28.4702 C 48.0096 28.6709 47.9373 28.8657 47.8759 29.0589 C 47.7145 29.556 47.6204 30.1298 47.8922 30.5775 L 47.9718 30.6584 C 47.994 30.6655 48.0139 30.667 48.0363 30.6617 C 48.0684 30.6542 48.1012 30.6321 48.1309 30.6097 C 48.3701 30.4168 48.4659 30.0994 48.5213 29.7977 C 48.6263 29.2049 48.5509 28.6442 48.5657 28.0521 C 48.5715 27.7713 48.5904 27.5111 48.527 27.2722 C 48.3571 27.0872 48.1854 26.8944 48.0552 26.6816 C 47.8558 26.559 47.6292 26.4736 47.4521 26.3191 C 47.2336 26.124 47.118 25.8378 47.0115 25.564 C 46.6967 24.7545 46.3802 23.9465 46.0637 23.1385 " stroke-width="0.9999999930077782"/>
      <path id="ID0.5471847211010754" fill="#848483" d="M 43.124 48.7035 C 42.6816 48.9627 42.2377 49.2243 41.7922 49.4832 C 41.3635 49.7351 40.9284 49.9905 40.5755 50.3417 C 40.1977 50.7141 39.9199 51.1884 39.4919 51.4997 C 39.2027 51.7115 38.8695 51.8321 38.518 51.9148 C 38.1871 51.9926 37.8418 52.0359 37.51 52.0883 C 37.4553 52.096 37.4042 52.1059 37.3507 52.1185 C 37.1278 52.171 36.9153 52.2549 36.7061 52.339 C 36.4948 52.4237 36.2882 52.5062 36.0731 52.5568 C 35.9933 52.5756 35.9104 52.59 35.8278 52.5971 C 35.6595 52.6151 35.476 52.6038 35.3463 52.4936 C 35.2415 52.4063 35.1925 52.2678 35.1526 52.1375 C 35.0667 51.8598 34.9991 51.5767 34.9492 51.2906 C 34.9413 51.2308 34.931 51.1695 34.8929 51.121 C 34.827 51.0286 34.7094 51.0224 34.5916 51.0501 C 34.5293 51.0647 34.4625 51.0907 34.4068 51.1162 C 34.4073 51.1181 34.4082 51.122 34.4067 51.1244 C 34.4109 51.2292 34.4192 51.33 34.4276 51.4359 C 34.4551 51.6965 34.5051 51.9529 34.6488 52.1708 C 34.7481 52.3262 34.8928 52.4565 34.9549 52.6288 C 35.0057 52.7576 35.0052 52.9036 35.0856 53.0141 C 35.2312 53.2223 35.5432 53.1951 35.7927 53.1375 C 35.8043 53.1347 35.817 53.1318 35.8287 53.129 C 36.5626 52.9563 37.2138 52.6808 37.8937 52.3873 C 38.0215 52.3326 38.1504 52.2951 38.2837 52.2637 C 38.419 52.2319 38.5593 52.2081 38.6967 52.185 C 38.8377 52.1601 38.9741 52.1372 39.1094 52.1054 C 39.381 52.0415 39.6402 51.9466 39.8694 51.755 C 40.0942 51.5665 40.253 51.3113 40.4426 51.0869 C 41.224 50.1686 42.5578 49.7684 43.124 48.7035 " stroke-width="0.9999999930077782"/>
      <path id="ID0.5583068816922605" fill="#848483" d="M 38.4673 46.9227 C 38.4274 46.9321 38.3883 46.9536 38.3542 46.9791 C 38.3405 46.9905 38.3277 47.0017 38.3157 47.0118 C 38.1869 47.1366 38.1328 47.326 38.1169 47.5075 C 38.1006 47.7044 38.1262 47.9049 38.1068 48.1016 C 38.0659 48.4913 37.8408 48.8576 37.5112 49.0677 C 37.2388 49.2417 36.9645 49.3288 36.8234 49.6507 L 36.8071 49.7429 C 36.8271 49.8101 36.922 49.8206 36.9906 49.8066 C 37.0025 49.8048 37.0132 49.8023 37.0249 49.7995 C 37.827 49.6108 38.2982 48.3956 38.608 47.7433 C 38.7171 47.5173 38.8226 47.2407 38.6863 47.0283 C 38.6538 46.9774 38.6059 46.9353 38.5491 46.9209 C 38.5423 46.9184 38.5356 46.9159 38.5273 46.9157 C 38.5079 46.9162 38.4887 46.9176 38.4673 46.9227 " stroke-width="0.9999999930077782"/>
      <path id="ID0.19084409205242991" fill="#949494" d="M 44.6371 48.9956 C 44.5573 49.0144 44.4798 49.0429 44.4044 49.072 C 43.4509 49.4556 42.5072 50.0464 41.925 50.9077 C 41.8091 51.0788 41.703 51.2609 41.5991 51.4394 C 41.3671 51.833 41.1255 52.2166 40.7488 52.4624 C 40.4387 52.6638 40.0708 52.7462 39.716 52.841 C 38.864 53.0661 37.9837 53.416 37.4836 54.1419 C 38.6529 53.6973 39.8245 53.2541 40.9948 52.8093 C 41.4863 52.6237 42.0919 52.4905 42.4906 52.1501 C 42.9066 51.7965 43.2574 51.3225 43.6184 50.914 C 44.0201 50.4558 44.4566 50.1887 44.937 49.825 C 45.1138 49.6899 45.306 49.507 45.2702 49.2894 C 45.243 49.1212 45.0761 49.0013 44.9042 48.978 C 44.8151 48.9661 44.7267 48.9746 44.6371 48.9956 " stroke-width="0.9999999930077782"/>
      <path id="ID0.9071974046528339" fill="#585857" d="M 10.1794 39.3782 C 10.1669 39.6657 10.053 39.9678 9.931 40.2348 C 9.5837 40.9946 9.5814 41.7533 9.8479 42.5494 C 10.0583 43.1861 10.4807 43.737 10.9694 44.1942 C 11.1962 44.407 11.4631 44.6113 11.7736 44.6255 C 11.6493 44.3199 11.5571 44.0025 11.4621 43.6859 C 11.0333 42.252 10.6069 40.8155 10.1794 39.3782 M 9.8707 38.3413 C 9.8494 38.4213 9.8304 38.5018 9.8122 38.5862 C 9.8807 38.6461 9.9483 38.7103 10.0011 38.7822 C 9.9585 38.636 9.9154 38.488 9.8707 38.3413 " stroke-width="0.9999999930077782"/>
      <path id="ID0.9793821237981319" fill="#90908F" d="M 13.2795 33.9149 C 13.4152 34.5702 13.538 35.2276 13.645 35.8876 C 13.7348 36.4397 13.8144 37.0004 14.0497 37.507 C 14.2901 38.0267 14.6807 38.4598 15.0852 38.8649 C 15.4845 39.2651 15.9893 39.5942 16.4872 39.9116 C 16.5394 39.9456 16.5913 39.9785 16.6454 40.012 C 16.6659 39.8675 16.654 39.7255 16.5973 39.5847 C 16.5268 39.4205 16.4017 39.2907 16.269 39.1719 C 15.8513 38.8028 15.3163 38.4849 15.1778 37.9442 C 15.1011 37.653 15.157 37.345 15.1828 37.0441 C 15.2393 36.398 15.1509 35.7254 14.8526 35.1474 C 14.5503 34.5702 14.0238 34.0962 13.3912 33.94 C 13.353 33.9305 13.317 33.9215 13.2795 33.9149 M 10.415 34.0444 C 10.3868 34.0511 10.358 34.0599 10.329 34.0718 C 10.2004 34.1237 10.0979 34.2248 10.004 34.3281 C 9.6095 34.7558 9.2312 35.1695 9.0966 35.7589 C 8.9917 36.2254 9.0109 36.7088 9.0329 37.1865 C 9.046 37.4824 9.0672 37.7907 9.2236 38.0405 C 9.3691 38.2662 9.6077 38.4114 9.8117 38.5884 C 9.8303 38.5059 9.8494 38.4254 9.8702 38.3435 C 9.9145 38.4882 9.958 38.6382 9.9996 38.7846 C 10.028 38.8179 10.0498 38.8539 10.0709 38.8911 C 10.1573 39.0443 10.1841 39.2106 10.1757 39.3801 C 10.604 40.8161 11.0323 42.2522 11.4606 43.6883 C 11.5554 44.004 11.6478 44.3223 11.7721 44.6279 C 11.774 44.6275 11.776 44.627 11.7762 44.628 C 11.8531 44.6315 11.9267 44.6213 12.0036 44.6032 C 12.1574 44.5671 12.3066 44.4939 12.4467 44.4127 C 12.9815 44.1009 13.4842 43.5871 13.4608 42.968 C 13.4556 42.8193 13.4336 42.6385 13.5554 42.5492 C 13.5789 42.5314 13.6068 42.5186 13.635 42.512 C 13.7031 42.496 13.7801 42.5046 13.8516 42.5114 C 14.019 42.5244 14.1837 42.5082 14.3453 42.4702 C 14.6685 42.3942 14.9745 42.2276 15.2362 42.0171 C 15.2698 41.9897 15.3012 41.9617 15.3346 41.9333 C 14.7114 41.2273 14.3175 40.2958 13.7953 39.491 C 13.4932 39.0279 13.14 38.5922 12.9315 38.0814 C 12.7074 37.5393 12.665 36.94 12.6622 36.3562 C 12.6597 35.5246 12.7354 34.6983 12.802 33.8721 C 12.166 33.8718 11.5157 34.0597 10.8738 34.0341 C 10.7194 34.0283 10.561 34.0101 10.415 34.0444 " stroke-width="0.9999999930077782"/>
      <path id="ID0.35271187499165535" fill="#ABABAA" d="M 12.8022 33.8731 C 12.7339 34.7007 12.657 35.5263 12.6624 36.3571 C 12.6635 36.9425 12.7076 37.5402 12.9298 38.0828 C 13.1385 38.5946 13.4941 39.0317 13.7958 39.4929 C 14.3178 40.2967 14.7116 41.2283 15.3351 41.9353 C 15.6765 41.631 15.9523 41.2579 16.2204 40.8866 C 16.4075 40.6248 16.6 40.3165 16.644 40.0103 C 16.5918 39.9764 16.5397 39.9424 16.4856 39.9089 C 15.9896 39.5911 15.4852 39.2639 15.0838 38.8632 C 14.6792 38.4581 14.2906 38.0245 14.0502 37.5048 C 13.8149 36.9982 13.7332 36.437 13.6433 35.8849 C 13.5385 35.2254 13.4155 34.5671 13.2797 33.9117 C 13.1225 33.8851 12.9623 33.8724 12.8022 33.8731 " stroke-width="0.9999999930077782"/>
      <path id="ID0.08570561464875937" fill="#6D6D6C" d="M 29.2829 54.9681 C 29.3448 54.9823 29.4055 54.9958 29.4691 55.0086 C 29.4074 54.9953 29.3448 54.9823 29.2829 54.9681 M 23.3572 51.8196 C 24.4569 54.1662 26.9951 54.4791 29.2829 54.9681 C 27.1282 54.4684 25.2484 52.8715 23.3572 51.8196 " stroke-width="0.9999999930077782"/>
    </g>
  </g>
</svg>