<?xml version="1.0" encoding="utf-8"?><!-- Generator: Adobe Illustrator 16.0.0, SVG Export Plug-In . SVG Version: 6.00 Build 0)  --><!DOCTYPE svg PUBLIC "-//W3C//DTD SVG 1.0//EN" "http://www.w3.org/TR/2001/REC-SVG-20010904/DTD/svg10.dtd"><svg xmlns="http://www.w3.org/2000/svg" xmlns:xlink="http://www.w3.org/1999/xlink" version="1.0" id="Calque_1" x="0px" y="0px" width="28.470846557617186" height="44.86399688720703" viewBox="1.6401589393615723 0.9430000066757203 28.470846557617186 44.86399688720703" enable-background="new 0 0 31.75 46.75" xml:space="preserve">
<g id="singe_2">
	<g>
		<g>
			<path fill="#8D5E1B" d="M19.445,44.391c-0.074,0-0.146-0.004-0.209-0.015c-0.301-0.044-0.533-0.221-0.678-0.36     c-0.039-0.039-0.045-0.045-0.139-0.073c-0.354-0.104-0.729-0.162-1.014-0.2c-0.119-0.016-0.234-0.038-0.35-0.061     c-0.082-0.016-0.164-0.031-0.248-0.043c-0.23-0.035-0.545-0.082-0.783-0.344c-0.158-0.177-0.242-0.414-0.234-0.666     c0.002-0.136,0.033-0.275,0.09-0.4c0.109-0.242,0.307-0.453,0.574-0.611c0.117-0.625,0.129-1.891,0.035-3.025     c-1.598,0.831-3.404,1.269-5.27,1.269c-0.443,0-0.895-0.025-1.342-0.073C7.307,39.506,5.072,38.184,3.9,36.25     c-1.402-2.314-1.037-5.438,0.832-7.109c0.48-0.432,1.27-0.959,2.291-1.025c0.066-0.005,0.135-0.007,0.203-0.007     c1.342,0,2.66,0.878,3.281,2.184c0.229,0.486,0.357,1.006,0.377,1.521c0.023-0.012,0.076-0.036,0.076-0.036     c0.395-2.821,1.041-4.662,3.193-6.632c-3.469-0.836-5.895-2.698-6.883-5.307c-0.482-1.279-0.664-2.796-0.531-4.504     c0.119-1.583,0.48-3.086,1.072-4.466l0.078-0.174c0.121-0.269,0.25-0.529,0.387-0.786c0,0,0.072-0.143,0.094-0.18     C8.59,9.243,8.867,8.812,9.184,8.484l0.035-0.049c0.055-0.074,0.109-0.149,0.168-0.223c1.887-2.347,4.758-3.893,7.754-4.195     c0.006-0.039,0.014-0.078,0.023-0.116c0.062-0.267,0.197-0.492,0.383-0.653c0.197-0.172,0.463-0.268,0.744-0.268     c0.225,0,0.445,0.059,0.641,0.168c0.029,0.017,0.061,0.035,0.09,0.055c0.02-0.04,0.041-0.078,0.064-0.115     c0.301-0.471,0.699-0.729,1.119-0.729c0.041,0,0.082,0.003,0.123,0.008c0.479,0.06,0.854,0.459,1,1.044     c0.15-0.048,0.303-0.074,0.439-0.096c0.061-0.008,0.123-0.017,0.186-0.017c0.16,0,0.301,0.044,0.418,0.128     c0.139,0.103,0.207,0.233,0.246,0.324c0.156,0.361,0.16,0.773,0.021,1.169c0.016,0.007,0.027,0.011,0.041,0.017     c1.033,0.422,2.186,0.992,2.889,2.007c0.574,0.831,0.99,1.708,1.236,2.606c0.158,0.17,0.359,0.521,0.502,1.284     c0.066,0.356,0.127,0.823,0.182,1.388c0.336,0.651,0.355,2.287,0.348,3.018c-0.008,0.747-0.061,1.425-0.145,1.915     c0,0.188,0,0.368-0.004,0.544c0.066,0.174,0.105,0.359,0.115,0.554c0.057,0.21,0.082,0.446,0.076,0.7     c-0.006,0.253-0.053,0.508-0.141,0.746c0.021,0.07,0.041,0.141,0.057,0.209c0.586,0.689,0.896,1.48,0.896,2.294     c0,2.078-1.998,3.825-4.707,4.258c0.232,0.263,0.443,0.534,0.629,0.812c0.873,1.31,1.154,2.729,1.43,4.104     c0.035,0.178,0.072,0.354,0.109,0.529c0.26,0.143,0.465,0.344,0.631,0.509c0.104,0.101,0.219,0.214,0.316,0.363l0.008,0.011     c0.166,0.189,0.311,0.398,0.438,0.584l0.129,0.182c0.092,0.121,0.219,0.289,0.266,0.518c0.072,0.359-0.102,0.724-0.457,0.949     c-0.154,0.1-0.318,0.148-0.488,0.148l0,0c-0.049,0-0.098-0.004-0.145-0.011c-0.057,0.325-0.307,0.591-0.676,0.707     c-0.096,0.03-0.193,0.046-0.287,0.046c-0.219,0-0.393-0.073-0.535-0.186c-0.006,0.012-0.012,0.022-0.018,0.035     c-0.148,0.291-0.457,0.465-0.822,0.465c-0.043,0-0.086-0.002-0.129-0.006c-0.941-0.102-0.861-1.176-0.828-1.591     c-0.146,0.072-0.305,0.118-0.473,0.118c-0.232,0-0.445-0.088-0.617-0.256c-0.006,0.256-0.033,0.516-0.098,0.773     c-0.113,0.459-0.338,0.851-0.656,1.153c0.291,0.353,0.566,0.724,0.822,1.104c0.344,0.514,0.633,0.998,0.881,1.477     c0.021-0.013,0.221-0.127,0.221-0.127c0.188-0.111,0.4-0.236,0.643-0.312c0.131-0.041,0.293-0.062,0.457-0.062     c0.219,0,0.621,0.041,0.883,0.316c0.15,0.156,0.227,0.365,0.215,0.586c-0.002,0.039-0.006,0.078-0.014,0.117     c0.07,0.131,0.102,0.279,0.088,0.438c-0.02,0.236-0.146,0.436-0.268,0.57c0.031,0.141,0.027,0.283-0.02,0.416     c-0.119,0.352-0.465,0.543-0.607,0.611c-0.141,0.063-0.301,0.098-0.475,0.098c-0.1,0-0.197-0.01-0.289-0.029     c-0.021-0.004-0.037-0.007-0.053-0.007c-0.014,0-0.035,0.002-0.105,0.022c-0.352,0.105-0.697,0.264-0.957,0.391     c-0.105,0.052-0.215,0.097-0.322,0.141c-0.078,0.032-0.154,0.064-0.232,0.1c-0.178,0.084-0.373,0.174-0.613,0.174     c-0.078,0-0.154-0.01-0.229-0.029c-0.23-0.059-0.434-0.21-0.564-0.428c-0.072-0.116-0.123-0.25-0.145-0.385     c-0.043-0.261,0.006-0.545,0.143-0.824c-0.279-0.676-1.133-1.956-1.91-2.894c0.072,0.54,0.111,1.124,0.117,1.773     c0.006,0.618-0.02,1.183-0.074,1.717c0.025,0.001,0.254,0.015,0.254,0.015c0.219,0.012,0.465,0.022,0.707,0.092     c0.285,0.082,0.795,0.377,0.949,0.824c0.088,0.256,0.047,0.516-0.111,0.733c-0.023,0.03-0.049,0.06-0.076,0.088     c-0.014,0.147-0.07,0.291-0.166,0.415c-0.148,0.188-0.361,0.282-0.537,0.33c-0.051,0.134-0.135,0.251-0.246,0.337     C19.877,44.357,19.623,44.391,19.445,44.391z M5.578,34.014c0.084,0.34,0.217,0.672,0.402,0.978     c0.781,1.29,2.34,2.181,4.166,2.38c0.357,0.04,0.719,0.061,1.072,0.061c1.396,0,2.75-0.309,3.951-0.894     c-0.383-0.604-0.471-1.467-0.504-2.229c-0.049,0.08-0.111,0.157-0.186,0.229c-0.174,0.171-0.389,0.262-0.621,0.262     c-0.186,0-0.354-0.057-0.512-0.142c0.014,0.415,0.043,1.491-0.904,1.547l-0.068,0.002c-0.396,0-0.715-0.188-0.857-0.506     c-0.004-0.013-0.01-0.022-0.014-0.035c-0.139,0.099-0.303,0.159-0.504,0.159c-0.107,0-0.219-0.021-0.326-0.061     c-0.363-0.135-0.6-0.414-0.641-0.74C10,35.027,9.965,35.029,9.93,35.029c-0.186,0-0.359-0.059-0.521-0.172     c-0.057-0.039-0.105-0.082-0.152-0.129c-0.391,0.187-0.826,0.283-1.287,0.283c-0.051,0-0.1-0.002-0.15-0.005     C6.938,34.969,6.117,34.59,5.578,34.014z M13.725,32.477c0.176,0.139,0.336,0.291,0.482,0.431l0.166,0.153     c0.076,0.066,0.17,0.149,0.252,0.26c-0.1-1.719-0.098-3.068,0.002-4.316C14.143,29.912,13.922,30.958,13.725,32.477z      M21.725,28.997c0.053,0.342,0.068,0.685,0.084,1.017l0.002,0.057c0,0.666,0.146,1.332,0.303,2.035     c0.053,0.244,0.107,0.486,0.154,0.728c0.025,0.132,0.053,0.267,0.076,0.403c0.088-0.108,0.189-0.188,0.27-0.252l0.164-0.139     c0.178-0.152,0.373-0.319,0.588-0.464c-0.031-0.149-0.062-0.301-0.094-0.452c-0.23-1.154-0.447-2.246-1.01-3.088     c-0.156-0.234-0.34-0.46-0.549-0.678C21.723,28.454,21.725,28.735,21.725,28.997z" stroke-width="1"/>
			<path d="M20.209,2.822c0.021,0,0.043,0.001,0.064,0.004c0.391,0.048,0.592,0.494,0.643,0.885c0.029,0.229,0.031,0.46,0.01,0.689     c-0.002,0.005-0.002,0.01-0.002,0.015c0-0.005,0-0.01,0.002-0.015c0.023-0.195,0.166-0.362,0.338-0.459     c0.176-0.1,0.379-0.137,0.578-0.168c0.037-0.006,0.076-0.01,0.115-0.01c0.051,0,0.104,0.008,0.145,0.039     c0.045,0.032,0.072,0.082,0.094,0.131c0.176,0.404,0.061,0.869-0.199,1.232c0.172,0.062,0.344,0.13,0.514,0.2     c1,0.409,2.061,0.944,2.682,1.84c0.555,0.802,0.975,1.673,1.209,2.611c0.156,0.067,0.336,0.467,0.455,1.102     c0.072,0.388,0.133,0.888,0.184,1.452c0.205,0.196,0.354,1.438,0.338,2.863c-0.01,0.768-0.064,1.432-0.145,1.88     c0,0.233-0.002,0.459-0.004,0.674c0.068,0.151,0.113,0.331,0.119,0.539c0.061,0.203,0.076,0.424,0.072,0.617     c-0.004,0.253-0.062,0.505-0.17,0.733c0.053,0.153,0.094,0.303,0.123,0.447c0.541,0.602,0.857,1.312,0.857,2.078     c0,2.087-2.334,3.786-5.268,3.891c0.496,0.442,0.924,0.92,1.268,1.437c0.822,1.233,1.098,2.608,1.361,3.938     c0.053,0.258,0.105,0.517,0.16,0.772c0.043,0.015,0.088,0.024,0.129,0.044c0.223,0.107,0.404,0.285,0.58,0.459     c0.092,0.091,0.184,0.184,0.258,0.29c-0.002,0.001-0.006,0.001-0.008,0.002c0.201,0.22,0.375,0.485,0.537,0.715     c0.09,0.128,0.205,0.253,0.238,0.411c0.039,0.198-0.094,0.365-0.252,0.465c-0.082,0.053-0.16,0.075-0.238,0.075     c-0.393,0-0.701-0.604-0.898-0.863c-0.09-0.116-0.23-0.253-0.346-0.399c-0.002,0-0.002,0-0.004,0c0,0,0,0.002,0.002,0.002     c0.252,0.313,0.389,0.762,0.525,1.136c0.055,0.146,0.135,0.297,0.125,0.458c-0.012,0.201-0.184,0.329-0.363,0.385     c-0.051,0.018-0.102,0.024-0.146,0.024c-0.457,0-0.613-0.753-0.75-1.078c-0.037-0.089-0.088-0.199-0.137-0.313     c0.043,0.336,0.01,0.703-0.012,1.026c-0.01,0.156,0.004,0.326-0.07,0.469c-0.078,0.155-0.242,0.212-0.406,0.212     c-0.025,0-0.053-0.002-0.08-0.005c-0.596-0.063-0.404-0.938-0.396-1.325c0.004-0.211-0.004-0.539,0.041-0.774     c-0.002,0.001-0.004,0.003-0.006,0.004c-0.234,0.182-0.631,0.621-0.988,0.621c-0.109,0-0.215-0.042-0.312-0.146     c-0.127-0.138-0.215-0.334-0.125-0.515c0.07-0.144,0.215-0.235,0.334-0.337c0.273-0.232,0.578-0.51,0.908-0.672     c-0.055-0.258-0.109-0.516-0.16-0.773c-0.24-1.201-0.467-2.336-1.08-3.256c-0.363-0.546-0.857-1.047-1.473-1.497     c0.07,0.636,0.084,1.293,0.084,1.948c0.055,0.339,0.07,0.693,0.086,1.036c0,0.96,0.281,1.913,0.467,2.853     c0.145,0.736,0.287,1.501,0.107,2.229c-0.141,0.564-0.461,0.948-0.883,1.19c0.404,0.452,0.773,0.936,1.113,1.438     c0.361,0.543,0.699,1.108,0.986,1.696c0.031,0.065,0.066,0.131,0.104,0.195c0.148-0.113,0.307-0.216,0.473-0.308     c0.227-0.127,0.457-0.284,0.707-0.363c0.08-0.024,0.195-0.042,0.318-0.042c0.301,0,0.646,0.102,0.633,0.416     c-0.004,0.071-0.035,0.145-0.078,0.213c0.014,0.014,0.021,0.029,0.033,0.044c0.08,0.067,0.129,0.157,0.119,0.28     c-0.014,0.156-0.154,0.32-0.271,0.416c-0.031,0.025-0.068,0.043-0.104,0.062c0.012,0.021,0.023,0.041,0.033,0.063     c0.076,0.096,0.115,0.219,0.076,0.333c-0.051,0.148-0.229,0.273-0.365,0.338c-0.084,0.04-0.18,0.055-0.275,0.055     c-0.068,0-0.135-0.008-0.199-0.021c-0.055-0.011-0.1-0.015-0.143-0.015c-0.076,0-0.145,0.015-0.238,0.043     c-0.355,0.104-0.693,0.256-1.025,0.416c-0.184,0.088-0.369,0.153-0.549,0.236c-0.135,0.062-0.271,0.131-0.418,0.131     c-0.037,0-0.074-0.005-0.113-0.015c-0.119-0.031-0.219-0.115-0.283-0.221c-0.041-0.066-0.07-0.14-0.082-0.216     c-0.033-0.198,0.025-0.402,0.119-0.58c0.021-0.043,0.055-0.076,0.08-0.115c0,0-0.002-0.001-0.002-0.002     c-0.238-0.811-1.561-2.739-2.512-3.748c-0.174,0.017-0.348,0.029-0.523,0.035c0.031,0.139,0.059,0.277,0.084,0.412     c0.127,0.703,0.174,1.42,0.18,2.132c0.004,0.653-0.023,1.312-0.107,1.961c-0.01,0.071-0.016,0.145-0.021,0.219     c0.088-0.006,0.176-0.009,0.266-0.009c0.1,0,0.199,0.003,0.299,0.011c0.26,0.019,0.539,0.015,0.791,0.085     c0.285,0.082,0.85,0.479,0.588,0.835c-0.041,0.058-0.107,0.103-0.182,0.136c0.004,0.019,0.004,0.037,0.004,0.055     c0.029,0.1,0.021,0.201-0.055,0.299c-0.098,0.124-0.307,0.184-0.455,0.199c-0.01,0.001-0.021,0.001-0.031,0.001     c-0.029,0-0.061-0.003-0.09-0.007c-0.002,0.024-0.002,0.05-0.006,0.074c0.012,0.12-0.023,0.245-0.119,0.318     c-0.088,0.068-0.223,0.092-0.348,0.092c-0.053,0-0.1-0.004-0.143-0.011c-0.158-0.022-0.307-0.123-0.418-0.233     c-0.105-0.104-0.184-0.142-0.332-0.186c-0.354-0.105-0.721-0.167-1.088-0.217c-0.199-0.026-0.391-0.073-0.588-0.104     c-0.182-0.027-0.375-0.05-0.508-0.195c-0.082-0.092-0.119-0.215-0.115-0.34c0.002-0.078,0.021-0.156,0.051-0.226     c0.082-0.185,0.242-0.321,0.418-0.418c0.041-0.022,0.088-0.034,0.131-0.052v-0.002c0.223-0.731,0.207-2.722,0.023-4.104     c-1.658,1.009-3.604,1.556-5.656,1.556c-0.426,0-0.855-0.023-1.289-0.072c-2.43-0.266-4.535-1.504-5.633-3.315     c-1.291-2.129-0.963-4.995,0.744-6.522c0.428-0.381,1.121-0.849,2.012-0.907c0.059-0.005,0.115-0.007,0.172-0.007     c1.145,0,2.316,0.771,2.863,1.918c0.381,0.805,0.436,1.687,0.17,2.441c0.006-0.006,0.014-0.012,0.02-0.018     c-0.002-0.001-0.004-0.001-0.006-0.002c0.074-0.104,0.174-0.191,0.27-0.277c0.186-0.166,0.373-0.334,0.602-0.431     c0.078-0.033,0.158-0.054,0.24-0.07c0.404-3.098,1.018-5.007,3.791-7.252c-3.17-0.569-6.289-2.106-7.465-5.208     c-0.516-1.361-0.615-2.854-0.504-4.304c0.113-1.482,0.453-2.956,1.037-4.319c0.023-0.057,0.051-0.111,0.076-0.168     c0.113-0.256,0.236-0.508,0.371-0.755c0.029-0.058,0.057-0.117,0.09-0.174C8.977,9.52,9.223,9.105,9.545,8.78     c0.07-0.095,0.137-0.189,0.211-0.281C9.758,8.497,9.76,8.495,9.762,8.493c1.895-2.358,4.826-3.868,7.846-4.052     c-0.021-0.145-0.021-0.291,0.014-0.436c0.039-0.156,0.115-0.307,0.234-0.412c0.123-0.104,0.281-0.154,0.441-0.154     c0.143,0,0.289,0.039,0.412,0.108c0.266,0.147,0.447,0.415,0.562,0.695c0.057-0.274,0.061-0.675,0.211-0.911     C19.646,3.077,19.906,2.822,20.209,2.822 M13.861,34.333c-0.363,0-0.748-0.471-0.979-0.668c0-0.001-0.004-0.003-0.006-0.005     c0.033,0.236,0.01,0.564,0.004,0.775c-0.012,0.387,0.137,1.27-0.463,1.305c-0.014,0-0.029,0.001-0.043,0.001     c-0.176,0-0.357-0.062-0.434-0.231c-0.064-0.146-0.045-0.316-0.047-0.473c-0.004-0.324-0.021-0.691,0.037-1.025     c-0.055,0.111-0.109,0.221-0.15,0.307c-0.148,0.312-0.34,1.042-0.781,1.042c-0.051,0-0.107-0.011-0.166-0.032     c-0.176-0.064-0.342-0.2-0.344-0.402c-0.002-0.16,0.086-0.308,0.145-0.451c0.156-0.366,0.314-0.808,0.582-1.108c0,0,0,0,0.002,0     c-0.002-0.001-0.004-0.001-0.004-0.002c-0.121,0.142-0.27,0.271-0.365,0.384c-0.207,0.244-0.537,0.818-0.922,0.818     c-0.082,0-0.166-0.026-0.252-0.088c-0.133-0.094-0.238-0.237-0.232-0.4c-0.406,0.303-0.916,0.469-1.477,0.469     c-0.043,0-0.086-0.001-0.129-0.003c-1.027-0.047-1.949-0.614-2.297-1.409c-0.287-0.656-0.15-1.386,0.371-2.004     c0.32-0.379,0.814-0.603,1.312-0.603c0.035,0,0.072,0.001,0.107,0.004c0.494,0.034,0.93,0.291,1.191,0.705     c0.223,0.351,0.117,0.813-0.232,1.034c-0.123,0.08-0.262,0.117-0.4,0.117c-0.248,0-0.49-0.123-0.635-0.35     c-0.01-0.006-0.023-0.009-0.043-0.009c-0.047,0-0.115,0.021-0.156,0.069c-0.219,0.258-0.162,0.385-0.143,0.434     c0.102,0.229,0.508,0.49,0.99,0.512c0.023,0.001,0.047,0.002,0.07,0.002c0.27,0,0.602-0.083,0.791-0.427     c0.223-0.405,0.209-0.974-0.035-1.485c-0.299-0.631-0.92-1.062-1.514-1.062c-0.021,0-0.043,0-0.064,0.001     c-0.363,0.023-0.758,0.211-1.111,0.529c-1.168,1.043-1.375,3.121-0.461,4.627c0.855,1.414,2.543,2.386,4.512,2.602     c0.377,0.042,0.754,0.062,1.125,0.062c1.703,0,3.318-0.433,4.707-1.233c-0.861-0.54-0.777-2.319-0.83-3.246     c-0.094-1.554-0.127-3.118,0.021-4.669c0.045-0.464,0.102-0.943,0.18-1.42c-1.439,1.5-1.77,2.93-2.068,5.365     c0.277,0.181,0.531,0.436,0.764,0.65c0.113,0.107,0.254,0.206,0.316,0.354c0.08,0.185-0.016,0.376-0.15,0.507     C14.064,34.296,13.963,34.333,13.861,34.333 M20.209,1.893L20.209,1.893L20.209,1.893c-0.5,0-0.979,0.258-1.348,0.717     c-0.184-0.062-0.373-0.094-0.568-0.094c-0.393,0-0.764,0.136-1.049,0.381c-0.209,0.182-0.369,0.42-0.471,0.697     c-2.996,0.389-5.842,1.965-7.732,4.312L9.033,7.916c-0.066,0.081-0.121,0.157-0.18,0.232L8.83,8.184     C8.492,8.54,8.195,8.996,7.947,9.539C7.93,9.571,7.914,9.604,7.898,9.637L7.871,9.688c-0.143,0.266-0.277,0.541-0.4,0.814     l-0.023,0.057c-0.021,0.043-0.039,0.084-0.059,0.125c-0.609,1.428-0.984,2.979-1.109,4.614c-0.137,1.777,0.055,3.36,0.562,4.704     c0.965,2.549,3.211,4.42,6.408,5.378c-1.338,1.397-2.01,2.802-2.418,4.521c-0.73-1.358-2.154-2.258-3.605-2.258     c-0.076,0-0.154,0.002-0.232,0.008c-1.154,0.076-2.033,0.662-2.57,1.143c-2.029,1.816-2.434,5.198-0.92,7.698     c1.246,2.056,3.611,3.46,6.326,3.758c0.463,0.052,0.932,0.077,1.391,0.077c1.697,0,3.35-0.348,4.852-1.016     c0.035,0.806,0.016,1.566-0.043,2.033c-0.258,0.19-0.453,0.428-0.572,0.696c-0.082,0.181-0.127,0.38-0.131,0.578     c-0.012,0.374,0.115,0.726,0.355,0.991c0.35,0.385,0.797,0.451,1.037,0.486c0.098,0.015,0.174,0.03,0.25,0.045     c0.125,0.023,0.248,0.047,0.375,0.063c0.283,0.038,0.615,0.089,0.93,0.181c0.27,0.25,0.576,0.405,0.895,0.452     c0.09,0.013,0.184,0.021,0.277,0.021c0.359,0,0.678-0.1,0.92-0.287c0.115-0.092,0.215-0.202,0.291-0.327     c0.197-0.082,0.406-0.212,0.57-0.42c0.117-0.147,0.197-0.317,0.236-0.495c0.006-0.007,0.012-0.014,0.016-0.02     c0.098-0.135,0.166-0.281,0.207-0.435c0.092,0.019,0.186,0.029,0.281,0.029c0.344,0,0.611-0.124,0.787-0.206     c0.092-0.042,0.162-0.071,0.234-0.102c0.115-0.048,0.232-0.097,0.348-0.151c0.26-0.124,0.562-0.265,0.877-0.359     c0.111,0.019,0.219,0.028,0.326,0.028c0.24,0,0.467-0.049,0.668-0.143c0.199-0.091,0.676-0.36,0.854-0.881     c0.049-0.141,0.068-0.287,0.064-0.434c0.119-0.178,0.225-0.4,0.246-0.664c0.016-0.189-0.012-0.374-0.074-0.545     c0-0.008,0-0.016,0.002-0.024c0.018-0.35-0.105-0.68-0.344-0.93c-0.281-0.297-0.715-0.46-1.219-0.46     c-0.15,0-0.375,0.015-0.598,0.085c-0.203,0.063-0.385,0.153-0.543,0.241c-0.199-0.355-0.424-0.717-0.676-1.094     c-0.189-0.283-0.391-0.561-0.6-0.83c0.232-0.303,0.4-0.659,0.5-1.059c0.014-0.061,0.027-0.122,0.039-0.184     c0.072,0.013,0.148,0.02,0.223,0.02c0.002,0,0.004,0,0.006,0c0.086,1.096,0.701,1.411,1.246,1.469     c0.059,0.006,0.119,0.011,0.178,0.011c0.385,0,0.73-0.136,0.98-0.372c0.119,0.035,0.252,0.057,0.395,0.057     c0.145,0,0.287-0.021,0.428-0.066c0.395-0.125,0.695-0.371,0.863-0.688c0.193-0.026,0.381-0.099,0.553-0.208     c0.523-0.333,0.777-0.883,0.664-1.438c-0.066-0.328-0.242-0.562-0.346-0.699l-0.041-0.059l-0.08-0.113     c-0.131-0.188-0.275-0.398-0.449-0.601c-0.123-0.18-0.258-0.312-0.365-0.422c-0.148-0.146-0.322-0.317-0.545-0.469     c-0.021-0.109-0.045-0.218-0.066-0.328c-0.271-1.354-0.574-2.886-1.5-4.272c-0.057-0.086-0.115-0.17-0.176-0.254     c2.535-0.66,4.334-2.455,4.334-4.557c0-0.889-0.32-1.749-0.93-2.501c0.072-0.239,0.111-0.489,0.115-0.738     c0.006-0.28-0.02-0.542-0.078-0.782c-0.016-0.192-0.053-0.379-0.109-0.559c0.002-0.139,0.002-0.281,0.002-0.429     c0.084-0.511,0.135-1.198,0.145-1.948c0.021-1.868-0.174-2.732-0.359-3.154c-0.053-0.539-0.113-0.99-0.178-1.342     c-0.139-0.734-0.336-1.163-0.539-1.421c-0.262-0.916-0.689-1.808-1.275-2.649c-0.695-1.006-1.803-1.615-2.768-2.035     c0.053-0.368,0.008-0.738-0.139-1.076c-0.033-0.081-0.143-0.329-0.4-0.518c-0.137-0.099-0.367-0.217-0.689-0.217     c-0.104,0-0.189,0.012-0.254,0.021c-0.025,0.003-0.049,0.007-0.072,0.011c-0.254-0.538-0.699-0.896-1.242-0.962     C20.328,1.895,20.268,1.893,20.209,1.893L20.209,1.893L20.209,1.893z M22.643,32.35c-0.023-0.114-0.051-0.229-0.076-0.345     c-0.148-0.678-0.291-1.319-0.291-1.935v-0.021l-0.002-0.021v-0.031c-0.002-0.042-0.004-0.084-0.006-0.127     c0.246,0.638,0.395,1.379,0.549,2.149c0.01,0.056,0.021,0.109,0.033,0.164C22.777,32.24,22.709,32.296,22.643,32.35L22.643,32.35     z M13.861,35.264c0.143,0,0.279-0.021,0.412-0.064c0.051,0.379,0.133,0.761,0.27,1.111c-1.029,0.431-2.16,0.654-3.322,0.654     c-0.338,0-0.684-0.019-1.021-0.056c-1.408-0.154-2.639-0.744-3.414-1.615c0.318,0.101,0.662,0.163,1.014,0.179     c0.059,0.002,0.115,0.004,0.174,0.004c0.424,0,0.834-0.071,1.211-0.211c0.156,0.104,0.326,0.172,0.502,0.207     c0.154,0.324,0.443,0.584,0.828,0.729c0.16,0.061,0.326,0.09,0.49,0.09c0.119,0,0.229-0.014,0.334-0.04     c0.256,0.267,0.625,0.421,1.039,0.421c0.033,0,0.062-0.001,0.098-0.002c0.547-0.031,1.176-0.316,1.316-1.406     C13.812,35.264,13.836,35.264,13.861,35.264L13.861,35.264z M19.809,40.934c0.027-0.406,0.039-0.834,0.035-1.285     c0-0.076-0.002-0.151-0.004-0.227c0.354,0.516,0.656,1.01,0.826,1.355c-0.039,0.104-0.068,0.212-0.088,0.318     c-0.068-0.029-0.131-0.052-0.186-0.066C20.189,40.971,19.988,40.946,19.809,40.934L19.809,40.934z" stroke-width="1" fill="undefined"/>
		</g>
		<g>
			<path fill="none" stroke="#704413" stroke-width="1.9" stroke-miterlimit="10" d="M20.328,25.462     c1.219,0.616,2.346,1.447,3.111,2.595c0.896,1.344,1.066,2.983,1.414,4.53"/>
			<g>
				<path fill="#D28F5B" d="M22.854,40.012c0.25-0.262,0.543-0.47,0.859-0.646c0.225-0.127,0.455-0.284,0.705-0.363      c0.285-0.089,0.973-0.066,0.951,0.374c-0.008,0.157-0.145,0.327-0.256,0.425c-0.166,0.145-0.439,0.198-0.652,0.211      c-0.186,0.01-0.369,0.027-0.547,0.077c-0.111,0.031-0.227,0.04-0.334,0.062c-0.244,0.051-0.463,0.208-0.684,0.313      c-0.041,0.021-0.082,0.039-0.127,0.043s-0.094-0.009-0.119-0.045c-0.02-0.023-0.025-0.054-0.025-0.083      c0-0.093,0.059-0.175,0.119-0.245C22.781,40.094,22.816,40.053,22.854,40.012z" stroke-width="1"/>
				<path fill="#704413" d="M25.041,39.913c0.104,0.021,0.211,0.043,0.316,0.039c0.02,0,0.041-0.002,0.055-0.017      c0.016-0.015,0.018-0.039,0.016-0.062c-0.014-0.239-0.244-0.438-0.471-0.474c-0.146-0.023-0.299,0.003-0.438,0.054      c-0.191,0.069-0.396,0.175-0.559,0.299c-0.006,0.005-0.012,0.011-0.014,0.017c-0.006,0.014,0.008,0.025,0.018,0.033      c0.031,0.021,0.072,0.028,0.109,0.033c0.104,0.014,0.205,0.018,0.309,0.012c0.102-0.004,0.205-0.026,0.307-0.007      C24.809,39.863,24.924,39.891,25.041,39.913z" stroke-width="1"/>
				<path fill="#D28F5B" d="M23.246,40.766c-0.041,0.014-0.09,0.029-0.135,0.023c-0.029-0.004-0.057-0.02-0.086-0.025      c-0.072-0.015-0.137-0.033-0.193-0.08c-0.047-0.039-0.109-0.066-0.129-0.123c-0.014-0.037-0.004-0.076,0.016-0.109      c0.018-0.033,0.047-0.059,0.076-0.083c0.146-0.121,0.32-0.202,0.494-0.272c0.088-0.035,0.166-0.067,0.248-0.115      c0.082-0.049,0.166-0.092,0.25-0.135c0.23-0.119,0.467-0.269,0.719-0.338c0.287-0.08,0.975-0.033,0.938,0.405      c-0.012,0.156-0.152,0.322-0.27,0.416c-0.172,0.138-0.443,0.185-0.658,0.188c-0.186,0.004-0.369,0.016-0.551,0.06      c-0.111,0.026-0.225,0.031-0.336,0.051C23.494,40.65,23.377,40.725,23.246,40.766z" stroke-width="1"/>
				<path fill="#704413" d="M23.609,40.299c0.105,0.031,0.213,0.064,0.293,0.139c0.029,0.025,0.057,0.06,0.094,0.076      c0.041,0.017,0.09,0.017,0.131,0.02c0.213,0.014,0.422,0.064,0.631,0.107c0.105,0.021,0.211,0.043,0.318,0.041      c0.02,0,0.039-0.002,0.053-0.017c0.016-0.015,0.018-0.04,0.016-0.062c-0.012-0.233-0.23-0.438-0.451-0.482      c-0.227-0.046-0.465-0.039-0.689,0.02C23.865,40.174,23.732,40.227,23.609,40.299z" stroke-width="1"/>
				<g>
					<path fill="#D28F5B" d="M21.607,40.941c0.061-0.114,0.135-0.219,0.221-0.315c0.033-0.04,0.084-0.112,0.133-0.131       c0.047-0.019,0.115,0,0.164,0.006c0.172,0.021,0.346-0.005,0.516-0.04c0.338-0.07,0.668-0.173,1.006-0.24       c0.338-0.066,0.691-0.097,1.025-0.019c0.141,0.033,0.25,0.085,0.361,0.177c0.119,0.098,0.197,0.262,0.148,0.408       c-0.051,0.148-0.229,0.273-0.363,0.337c-0.146,0.068-0.324,0.065-0.479,0.035c-0.146-0.029-0.23-0.017-0.381,0.026       c-0.354,0.106-0.693,0.257-1.025,0.418c-0.182,0.088-0.369,0.154-0.549,0.236c-0.168,0.077-0.342,0.165-0.531,0.116       c-0.119-0.03-0.219-0.114-0.283-0.22c-0.041-0.066-0.07-0.141-0.082-0.217C21.455,41.322,21.516,41.119,21.607,40.941z" stroke-width="1"/>
				</g>
				<g>
					<path fill="#704413" d="M23.307,39.805c0.02,0.035,0.037,0.072,0.053,0.109c0.057,0.12,0.105,0.275,0.01,0.391       c-0.047,0.057-0.148,0.09-0.223,0.082c-0.115-0.013-0.191-0.076-0.275-0.148c0.01,0.087,0.039,0.173,0.031,0.26       c-0.014,0.152-0.146,0.281-0.299,0.298c-0.15,0.019-0.307-0.069-0.381-0.202c0.021,0.086,0.041,0.174,0.027,0.26       c-0.021,0.156-0.195,0.278-0.352,0.229c-0.059-0.019-0.104-0.06-0.145-0.106c-0.023-0.049-0.051-0.092-0.068-0.151       c-0.312-1.065-2.504-4.07-3.254-4.366l1.02-1.404c0.535,0.211,0.986,0.633,1.377,1.045c0.492,0.517,0.926,1.09,1.322,1.682       c0.363,0.543,0.701,1.107,0.988,1.697C23.191,39.586,23.25,39.693,23.307,39.805z" stroke-width="1"/>
				</g>
			</g>
			<path fill="none" stroke="#704413" stroke-width="1.5" stroke-linecap="round" stroke-miterlimit="10" d="M19.09,34.861     c-2.143,2.812-5.58,4.1-9.076,3.717c-2.016-0.221-4.02-1.225-5.072-2.958c-1.051-1.733-0.906-4.224,0.605-5.575     c0.434-0.39,0.979-0.68,1.561-0.718c0.971-0.063,1.891,0.608,2.307,1.485c0.322,0.679,0.375,1.513,0.014,2.17     c-0.986,1.794-4.352,0.306-2.938-1.366c0.355-0.421,1.082-0.486,1.404,0.022"/>
			<g>
				<path fill="#704413" d="M21.279,30.964c-0.021-0.376-0.021-0.755-0.021-1.133c0.004-1.246,0.033-2.538-0.242-3.702      c-0.453-1.923-1.715-3.195-2.721-3.195c-0.029,0-0.057,0.002-0.084,0.004c-0.893,0.06-1.641,0.922-2.088,1.736      c-0.65,1.19-0.875,2.698-1.006,4.073c-0.146,1.55-0.113,3.116-0.021,4.669c0.057,0.963-0.041,2.85,0.932,3.307      c0.738,0.349,1.494,0.398,2.268,0.398c0.77,0,1.525-0.05,2.266-0.398C21.812,36.133,21.379,32.643,21.279,30.964z" stroke-width="1"/>
			</g>
			<path fill="#4E2F06" d="M16.246,26.102c-0.492,0.096-0.992,0.843-1.234,1.24c0.295-0.139,0.668-0.432,0.998-0.414     c0.168,0.008,0.336,0.033,0.504,0.023s0.342-0.062,0.457-0.184c0.117-0.121,0.158-0.324,0.062-0.461     c-0.039-0.055-0.096-0.095-0.154-0.125C16.688,26.08,16.459,26.061,16.246,26.102z" stroke-width="1"/>
			<path fill="none" stroke="#704413" stroke-width="1.9" stroke-miterlimit="10" d="M12.285,32.581     c0.422-3.414,0.947-5.185,4.402-7.661"/>
			<g>
				<g>
					<path fill="#D28F5B" d="M11.895,35.037c0.002,0.156-0.018,0.326,0.047,0.473c0.084,0.184,0.289,0.24,0.477,0.229       c0.6-0.035,0.451-0.917,0.463-1.306c0.01-0.281,0.049-0.77-0.059-0.976c-0.084-0.164-0.336-0.173-0.504-0.093       c-0.166,0.08-0.279,0.246-0.336,0.421C11.859,34.172,11.891,34.641,11.895,35.037z" stroke-width="1"/>
				</g>
				<g>
					<path fill="#D28F5B" d="M13.992,33.344c0.113,0.106,0.254,0.205,0.318,0.354c0.08,0.186-0.018,0.376-0.15,0.507       c-0.432,0.419-0.982-0.285-1.275-0.538c-0.215-0.184-0.631-0.395-0.682-0.701c-0.031-0.182,0.1-0.365,0.271-0.436       c0.17-0.068,0.369-0.04,0.537,0.037C13.377,32.732,13.703,33.071,13.992,33.344z" stroke-width="1"/>
				</g>
				<g>
					<path fill="#D28F5B" d="M10.639,34.475c-0.061,0.144-0.146,0.291-0.145,0.451c0.002,0.2,0.166,0.336,0.342,0.401       c0.562,0.208,0.781-0.659,0.949-1.009c0.119-0.256,0.373-0.676,0.338-0.917c-0.029-0.183-0.24-0.294-0.426-0.288       c-0.186,0.007-0.354,0.113-0.477,0.252C10.953,33.667,10.793,34.107,10.639,34.475z" stroke-width="1"/>
				</g>
				<g>
					<path fill="#D28F5B" d="M9.707,33.602C9.611,33.725,9.488,33.846,9.449,34c-0.051,0.195,0.074,0.369,0.229,0.477       c0.49,0.348,0.924-0.436,1.176-0.73c0.184-0.215,0.561-0.488,0.562-0.8c0-0.185-0.156-0.345-0.336-0.388       c-0.182-0.041-0.371,0.02-0.525,0.121C10.219,32.903,9.951,33.288,9.707,33.602z" stroke-width="1"/>
				</g>
				<g>
					<path fill="#D28F5B" d="M12.254,33.587c-0.377,0.041-0.748-0.098-1.096-0.248c-0.303-0.13-0.6-0.27-0.887-0.427       c0.078-0.104,0.176-0.191,0.271-0.277c0.184-0.166,0.373-0.334,0.602-0.431c0.342-0.146,0.738-0.112,1.086,0.013       c0.213,0.074,0.418,0.165,0.617,0.271c0.264,0.138,0.543,0.271,0.688,0.546c0.057,0.104,0.086,0.24,0.012,0.33       c-0.037,0.044-0.094,0.066-0.15,0.086c-0.188,0.064-0.385,0.105-0.582,0.119c-0.088,0.006-0.158-0.01-0.242-0.021       C12.469,33.537,12.355,33.576,12.254,33.587z" stroke-width="1"/>
				</g>
			</g>
			<g>
				<g>
					<path fill="#D28F5B" d="M24.992,35.079c-0.01,0.156,0.004,0.326-0.068,0.469c-0.092,0.179-0.301,0.228-0.488,0.207       c-0.596-0.063-0.404-0.938-0.396-1.325c0.006-0.283-0.012-0.771,0.104-0.973c0.096-0.16,0.348-0.156,0.508-0.068       c0.164,0.088,0.27,0.26,0.316,0.438C25.07,34.217,25.016,34.682,24.992,35.079z" stroke-width="1"/>
				</g>
				<g>
					<path fill="#D28F5B" d="M22.98,33.285c-0.119,0.102-0.264,0.193-0.334,0.337c-0.09,0.181-0.002,0.376,0.125,0.515       c0.41,0.439,0.994-0.238,1.301-0.477c0.223-0.173,0.648-0.363,0.715-0.667c0.039-0.181-0.082-0.37-0.25-0.447       s-0.367-0.059-0.539,0.011C23.625,32.705,23.285,33.027,22.98,33.285z" stroke-width="1"/>
				</g>
				<g>
					<path fill="#D28F5B" d="M26.275,34.577c0.055,0.146,0.135,0.297,0.125,0.458c-0.012,0.201-0.184,0.328-0.363,0.385       c-0.572,0.182-0.748-0.695-0.896-1.054c-0.105-0.261-0.342-0.693-0.293-0.933c0.037-0.182,0.254-0.281,0.439-0.268       c0.184,0.016,0.348,0.131,0.463,0.273C26.002,33.756,26.139,34.204,26.275,34.577z" stroke-width="1"/>
				</g>
				<g>
					<path fill="#D28F5B" d="M27.248,33.752c0.09,0.127,0.205,0.253,0.238,0.41c0.039,0.197-0.094,0.364-0.252,0.466       c-0.508,0.322-0.902-0.479-1.137-0.788c-0.172-0.224-0.537-0.515-0.523-0.826c0.008-0.185,0.172-0.336,0.354-0.369       s0.371,0.037,0.521,0.146C26.77,33.028,27.02,33.426,27.248,33.752z" stroke-width="1"/>
				</g>
				<g>
					<path fill="#D28F5B" d="M24.705,33.612c0.375,0.06,0.752-0.062,1.107-0.195c0.307-0.114,0.609-0.239,0.904-0.384       c-0.072-0.107-0.164-0.199-0.256-0.29c-0.178-0.174-0.357-0.353-0.582-0.459c-0.334-0.162-0.73-0.147-1.086-0.042       c-0.215,0.064-0.426,0.146-0.629,0.24c-0.271,0.125-0.555,0.244-0.713,0.512c-0.062,0.102-0.1,0.236-0.025,0.33       c0.033,0.046,0.09,0.072,0.145,0.093c0.184,0.075,0.379,0.124,0.576,0.146c0.088,0.011,0.158-0.002,0.244-0.006       C24.494,33.553,24.604,33.598,24.705,33.612z" stroke-width="1"/>
				</g>
			</g>
			<g>
				<path fill="#D28F5B" d="M18.277,41.907c0.352-0.082,0.711-0.095,1.072-0.069c0.258,0.02,0.537,0.014,0.789,0.085      c0.287,0.082,0.85,0.479,0.59,0.835c-0.094,0.127-0.301,0.194-0.447,0.215c-0.219,0.028-0.475-0.076-0.662-0.184      c-0.158-0.093-0.322-0.179-0.498-0.234c-0.109-0.035-0.211-0.091-0.314-0.133c-0.229-0.091-0.5-0.08-0.742-0.111      c-0.045-0.006-0.09-0.013-0.129-0.034s-0.072-0.06-0.076-0.104c-0.002-0.029,0.01-0.059,0.025-0.084      c0.051-0.078,0.146-0.113,0.234-0.141C18.17,41.934,18.225,41.92,18.277,41.907z" stroke-width="1"/>
				<path fill="#704413" d="M20.158,43.025c0.074,0.076,0.152,0.152,0.242,0.207c0.018,0.011,0.035,0.021,0.055,0.017      c0.021-0.004,0.035-0.022,0.047-0.042c0.121-0.208,0.035-0.5-0.133-0.654c-0.109-0.102-0.25-0.162-0.396-0.195      c-0.197-0.047-0.426-0.072-0.629-0.059c-0.008,0.002-0.016,0.002-0.021,0.008c-0.012,0.008-0.008,0.023-0.002,0.035      c0.014,0.036,0.043,0.063,0.072,0.09c0.076,0.066,0.16,0.127,0.25,0.179c0.088,0.052,0.188,0.091,0.262,0.163      C19.99,42.855,20.072,42.941,20.158,43.025z" stroke-width="1"/>
				<path fill="#D28F5B" d="M18.189,42.752c-0.041-0.011-0.092-0.025-0.125-0.055c-0.021-0.02-0.037-0.047-0.059-0.067      c-0.051-0.052-0.094-0.104-0.115-0.174c-0.018-0.058-0.057-0.114-0.041-0.174c0.008-0.037,0.039-0.065,0.072-0.083      s0.072-0.021,0.109-0.027c0.188-0.02,0.379,0.008,0.562,0.045c0.092,0.02,0.176,0.033,0.271,0.039      c0.094,0.006,0.188,0.016,0.281,0.025c0.26,0.027,0.537,0.031,0.787,0.113c0.283,0.091,0.832,0.507,0.561,0.854      c-0.098,0.124-0.307,0.184-0.455,0.199c-0.219,0.021-0.473-0.092-0.652-0.205c-0.158-0.1-0.318-0.189-0.492-0.252      c-0.107-0.039-0.207-0.098-0.309-0.143C18.459,42.791,18.322,42.788,18.189,42.752z" stroke-width="1"/>
				<path fill="#704413" d="M18.75,42.562c0.07,0.082,0.141,0.17,0.168,0.275c0.012,0.038,0.016,0.081,0.037,0.114      c0.023,0.036,0.064,0.063,0.098,0.089c0.17,0.128,0.316,0.286,0.467,0.438c0.076,0.076,0.154,0.151,0.246,0.207      c0.018,0.011,0.033,0.021,0.055,0.017c0.02-0.004,0.033-0.022,0.047-0.042c0.115-0.202,0.047-0.494-0.113-0.652      c-0.164-0.162-0.367-0.287-0.588-0.363C19.031,42.598,18.891,42.569,18.75,42.562z" stroke-width="1"/>
				<g>
					<path fill="#D28F5B" d="M16.725,41.998c0.111-0.062,0.232-0.109,0.355-0.143c0.051-0.015,0.131-0.047,0.184-0.036       c0.051,0.01,0.096,0.062,0.133,0.095c0.133,0.112,0.293,0.188,0.455,0.25c0.318,0.127,0.652,0.223,0.971,0.354       c0.318,0.129,0.629,0.299,0.867,0.547c0.098,0.104,0.16,0.209,0.203,0.347c0.047,0.147,0.021,0.328-0.1,0.423       c-0.123,0.096-0.342,0.104-0.49,0.082c-0.158-0.023-0.305-0.123-0.418-0.232c-0.105-0.104-0.184-0.143-0.332-0.187       c-0.354-0.106-0.721-0.167-1.086-0.216c-0.201-0.026-0.393-0.074-0.59-0.104c-0.184-0.027-0.375-0.052-0.506-0.195       c-0.084-0.092-0.121-0.217-0.117-0.342c0.002-0.076,0.02-0.154,0.051-0.225C16.389,42.232,16.549,42.096,16.725,41.998z" stroke-width="1"/>
				</g>
				<g>
					<path fill="#704413" d="M18.768,41.98c-0.004,0.041-0.01,0.082-0.016,0.123c-0.021,0.129-0.064,0.287-0.207,0.33       c-0.072,0.021-0.176-0.004-0.232-0.052c-0.09-0.075-0.117-0.169-0.148-0.276c-0.039,0.078-0.062,0.166-0.115,0.233       c-0.094,0.12-0.277,0.154-0.412,0.085c-0.137-0.068-0.219-0.227-0.207-0.379c-0.029,0.083-0.061,0.168-0.119,0.234       c-0.105,0.117-0.314,0.124-0.42-0.002c-0.039-0.049-0.055-0.106-0.062-0.17c0.008-0.053,0.01-0.104,0.027-0.163       c0.322-1.062,0.145-4.776-0.318-5.437l1.623-0.613c0.33,0.473,0.475,1.071,0.574,1.631c0.129,0.701,0.176,1.418,0.182,2.131       c0.004,0.654-0.023,1.312-0.107,1.961C18.793,41.735,18.783,41.859,18.768,41.98z" stroke-width="1"/>
				</g>
			</g>
			<g>
				<path fill="#D28F5B" d="M20.793,27.901c-0.471-0.558-1.232-0.862-1.705-0.188c-0.561,0.8-0.475,1.726-0.51,2.636      c-0.039,1.037-0.18,2.069-0.416,3.08c-0.121,0.519-0.27,1.037-0.266,1.57c0.008,1.082,0.697,1.672,1.756,1.672      c1.051,0,1.996-0.425,2.268-1.521c0.18-0.729,0.035-1.493-0.107-2.229c-0.184-0.939-0.467-1.893-0.467-2.853      C21.311,29.309,21.291,28.493,20.793,27.901z" stroke-width="1"/>
			</g>
			<g>
				<path fill="#704413" d="M26.453,14.113c0.172-1.196,0.258-2.415,0.084-3.609c-0.174-1.203-0.658-2.303-1.348-3.297      c-0.621-0.896-1.682-1.432-2.682-1.84c-1.35-0.553-2.795-0.938-4.285-0.938c-3.457,0-6.885,1.772-8.865,4.604      c-1.295,1.85-1.979,4.086-2.15,6.338c-0.111,1.452-0.01,2.941,0.504,4.305c1.559,4.111,6.533,5.478,10.512,5.478      c2.424,0,5.055-0.47,7.156-1.688c1.594-0.924,2.531-2.111,1.805-3.979c-0.279-0.721-0.688-1.395-0.863-2.146      c-0.246-1.047-0.025-2.14,0.131-3.205C26.451,14.126,26.451,14.12,26.453,14.113z" stroke-width="1"/>
			</g>
			<path fill="#4E2F06" d="M14.988,9.137c-1.133-0.426-2.041-1.379-3.311-1.404c-0.512-0.012-1.02,0.086-1.496,0.271     C9.885,8.328,9.609,8.671,9.357,9.031c-0.859,1.227-1.443,2.625-1.793,4.083c0.119,0.78,0.396,1.599,0.893,2.129     c0.482,0.519,1.264,0.813,1.893,1.104c0.396,0.182,0.836,0.181,1.227,0.4c0.238,0.135,0.418,0.363,0.717,0.374     c0.246,0.009,0.457-0.194,0.541-0.427c0.105-0.301,0.084-0.648,0.121-0.963c0.045-0.371,0.113-0.74,0.189-1.105     c0.152-0.699,0.359-1.387,0.617-2.053c0.207-0.531,0.447-1.048,0.719-1.548c0.146-0.27,0.262-0.608,0.441-0.853     c0.15-0.201,0.52-0.263,0.549-0.55C15.494,9.379,15.219,9.225,14.988,9.137z" stroke-width="1"/>
			<g>
				<g>
					<path fill="#704413" d="M11.74,16.204c0.623,0.033,1.312-0.192,1.893-0.403c2.225-0.809,2.662-3.979,1.455-5.783       c-0.709-1.058-1.619-1.472-2.844-1.761c-0.65-0.153-1.354-0.233-1.971,0.021C9.465,8.61,8.979,9.436,8.658,10.249       c-0.314,0.794-0.604,1.556-0.654,2.416c-0.053,0.924,0.357,1.961,0.99,2.631C9.648,15.993,10.83,16.157,11.74,16.204z" stroke-width="1"/>
				</g>
				<g>
					<path fill="#D28F5B" d="M13.678,10.741c-0.006-0.738-0.65-1.049-1.203-1.177c-0.373-0.086-0.777-0.121-1.145,0.07       c-0.48,0.252-0.787,0.836-0.998,1.405c-0.215,0.583-0.486,1.353-0.438,1.967c0.045,0.591,0.244,1.162,0.586,1.57       c0.754,0.897,2.279,0.425,2.166-1.095c-0.045-0.586-0.377-1.075-0.805-1.34c0.348,0.111,0.742,0.093,1.088-0.102       c0.348-0.193,0.639-0.576,0.721-1.011C13.67,10.928,13.68,10.83,13.678,10.741z" stroke-width="1"/>
				</g>
			</g>
			<g>
				<path fill="#D28F5B" d="M26.781,18.1c0.006,0.729-0.031,1.457-0.133,2.172c-0.109,0.776-0.23,1.479-0.686,1.879      c-0.568,0.498-1.137,0.091-1.693-0.271c-0.793-0.514-1.49-1.377-2.025-2.437c-0.766-1.513-1.518-3.966-1.328-5.954      c0.094-0.992,0.387-1.956,0.871-2.596c0.686-0.908,1.6-1.353,2.48-1.021c1.396,0.529,2.047,2.465,2.262,4.581      C26.65,15.646,26.773,16.878,26.781,18.1z" stroke-width="1"/>
			</g>
			<g>
				<path fill="#D28F5B" d="M26.283,18.1c0,0.73,0.008,1.457,0.025,2.172c0.021,0.776,0.045,1.479,0.133,1.879      c0.111,0.498,0.221,0.091,0.328-0.271c0.152-0.514,0.287-1.377,0.393-2.437c0.146-1.513,0.066-6.522-0.309-8.524      c-0.17-0.902-0.463-1.341-0.633-1.009c-0.27,0.528,0.152,2.429,0.111,4.543C26.309,15.648,26.285,16.878,26.283,18.1z" stroke-width="1"/>
			</g>
			<path fill="#D28F5B" d="M26.662,18.309c0.039-0.084,0.094-0.16,0.129-0.242c0.037-0.086,0.051-0.158,0.119-0.228     c0.014-0.013,0.027-0.024,0.045-0.028c0.027-0.006,0.053,0.009,0.074,0.024c0.33,0.24,0.396,0.729,0.389,1.108     c-0.006,0.357-0.113,0.715-0.324,1.003c-0.061,0.082-0.156,0.165-0.252,0.132c-0.033-0.012-0.061-0.037-0.086-0.062     c-0.209-0.22-0.307-0.529-0.309-0.832C26.447,18.881,26.537,18.583,26.662,18.309z" stroke-width="1"/>
			<g>
				<ellipse fill="#D28F5B" cx="22.678" cy="22.203" rx="5.553" ry="3.9" stroke-width="1"/>
			</g>
			<g>
				<path fill="#090503" d="M26.854,23.038c-0.826,0-1.652-0.327-2.344-0.981c-0.119-0.112-0.141-0.321-0.049-0.467      c0.094-0.146,0.266-0.172,0.383-0.06c0.449,0.431,1.025,0.731,1.645,0.817c0.297,0.041,0.598,0.03,0.893-0.028      c0.17-0.034,0.674-0.312,0.791-0.125c0.023,0.038,0.031,0.083,0.033,0.127C28.23,22.989,27.32,23.038,26.854,23.038z" stroke-width="1"/>
			</g>
			<g>
				<g>
					<g>
						<path fill="#FFFFFF" d="M21.852,14.814c-0.088,1.48,0.732,2.772,1.832,2.891c1.094,0.116,2.051-0.99,2.139-2.471        c0.088-1.479-0.732-2.773-1.828-2.893C22.896,12.227,21.938,13.333,21.852,14.814z" stroke-width="1"/>
					</g>
				</g>
				<g>
					<path fill="#090503" d="M24.215,15.662c0.021,0.045,0.053,0.087,0.086,0.119c0.584,0.542,1.211-0.008,1.213-0.754       c-0.002-0.539-0.322-0.979-0.723-0.979C24.244,14.041,23.834,14.874,24.215,15.662z" stroke-width="1"/>
				</g>
			</g>
			<g>
				<path fill="#704413" d="M21.607,5.557c-1.02,0.715-2.539,0.604-3.477-0.199c-0.385-0.327-0.633-0.854-0.512-1.346      c0.037-0.156,0.111-0.308,0.232-0.412c0.23-0.198,0.59-0.194,0.855-0.045c0.264,0.147,0.443,0.414,0.561,0.694      c0.057-0.274,0.061-0.674,0.211-0.91c0.182-0.28,0.465-0.553,0.795-0.512c0.391,0.048,0.592,0.495,0.643,0.884      c0.029,0.233,0.031,0.471,0.008,0.705c0.018-0.201,0.162-0.374,0.34-0.473c0.176-0.1,0.379-0.139,0.578-0.168      c0.088-0.014,0.188-0.023,0.26,0.029c0.045,0.03,0.072,0.082,0.094,0.131C22.439,4.506,22.117,5.199,21.607,5.557z" stroke-width="1"/>
			</g>
			<g>
				<g>
					<g>
						<path fill="#FFFFFF" d="M26.594,14.814c-0.018,1.48,0.146,2.772,0.361,2.891c0.215,0.116,0.402-0.99,0.42-2.471        c0.018-1.479-0.145-2.773-0.359-2.893C26.799,12.227,26.611,13.333,26.594,14.814z" stroke-width="1"/>
					</g>
				</g>
				<g>
					<path fill="#090503" d="M27.059,15.662c0.004,0.045,0.01,0.087,0.016,0.119c0.115,0.542,0.238-0.008,0.238-0.754       c0-0.539-0.062-0.979-0.141-0.979C27.062,14.041,26.982,14.874,27.059,15.662z" stroke-width="1"/>
				</g>
			</g>
			<g>
				<path fill="#704413" d="M26.391,19.02c0.01-0.055,0.008-0.11,0-0.166c-0.025-0.187-0.145-0.414-0.291-0.443      c-0.109-0.021-0.223,0.122-0.232,0.271c-0.023,0.289,0.186,0.668,0.41,0.522C26.342,19.162,26.377,19.098,26.391,19.02z" stroke-width="1"/>
			</g>
			<g>
				<path fill="#704413" d="M27.057,19.02c-0.004-0.055-0.002-0.11,0-0.166c0.01-0.187,0.047-0.414,0.098-0.443      c0.035-0.021,0.07,0.122,0.074,0.271c0.01,0.289-0.061,0.668-0.135,0.522C27.072,19.163,27.061,19.098,27.057,19.02z" stroke-width="1"/>
			</g>
			<path fill="#704413" d="M26.553,17.23L26.553,17.23c-0.533,0-1.264,0.412-1.273,1.127c0,0.031,0.002,0.062,0.012,0.091     c0.012,0.028,0.033,0.051,0.061,0.052c0.043,0,0.07-0.058,0.088-0.105c0.191-0.521,0.67-0.681,1.113-0.681l0,0V17.23     L26.553,17.23z" stroke-width="1"/>
			<path fill="#704413" d="M26.553,17.23v0.482c0.277,0,0.576,0.161,0.697,0.682c0.012,0.048,0.027,0.105,0.055,0.104     c0.018,0,0.031-0.024,0.037-0.052c0.008-0.028,0.008-0.061,0.008-0.09C27.344,17.643,26.887,17.23,26.553,17.23z" stroke-width="1"/>
		</g>
	</g>
</g>
</svg>