<?xml version="1.0" encoding="utf-8"?><!-- Generator: Adobe Illustrator 16.0.0, SVG Export Plug-In . SVG Version: 6.00 Build 0)  --><!DOCTYPE svg PUBLIC "-//W3C//DTD SVG 1.0//EN" "http://www.w3.org/TR/2001/REC-SVG-20010904/DTD/svg10.dtd"><svg xmlns="http://www.w3.org/2000/svg" xmlns:xlink="http://www.w3.org/1999/xlink" version="1.0" id="Calque_1" x="0px" y="0px" width="26.903766632080078" height="25.959999084472656" viewBox="2.5480241775512695 2.185999870300293 26.903766632080078 25.959999084472656" enable-background="new 0 0 32 30.333" xml:space="preserve">
<g id="bananes">
	<g>
		<g>
			<g>
				<path fill="#8D5E1B" d="M17.159,27.179c-0.287,0-0.572-0.014-0.85-0.041c-0.137-0.014-0.275-0.029-0.412-0.051      c-0.281-0.041-0.555-0.099-0.82-0.168c-0.135-0.035-0.271-0.074-0.404-0.117c-0.213-0.069-0.432-0.159-0.605-0.344h-0.002      c-0.271-0.104-0.523-0.338-0.637-0.595c-0.062-0.138-0.084-0.28-0.098-0.396l-0.01-0.062C13.3,25.27,13.286,25.134,13.28,25      c0-0.016,0-0.031,0-0.048c-0.875-0.016-1.707-0.12-2.475-0.312c-0.996-0.248-1.891-0.639-2.662-1.166      c-0.186-0.125-0.371-0.273-0.486-0.5c-0.232-0.178-0.406-0.473-0.445-0.75c-0.012-0.077-0.01-0.154-0.004-0.227      c-1.197-0.459-2.209-1.097-3.012-1.9c-0.117-0.118-0.238-0.252-0.322-0.426c-0.023-0.051-0.045-0.104-0.061-0.156      c-0.197-0.223-0.312-0.543-0.299-0.82c0.008-0.152,0.057-0.289,0.094-0.398l0.021-0.058c0.041-0.129,0.092-0.256,0.148-0.38      c0.062-0.133,0.131-0.278,0.236-0.409c0.092-0.114,0.203-0.187,0.285-0.239l0.055-0.037c0.043-0.031,0.127-0.092,0.244-0.127      l0.018-0.004c0.891-0.959,2.537-1.014,3.76-1.054c0.176-0.006,0.342-0.011,0.492-0.021l0.1-0.004      c1.195-0.062,2.553-0.135,3.543-0.738c1.174-0.717,2.066-1.643,2.787-2.453c0.354-0.401,0.709-0.877,1.082-1.381      c0.904-1.219,1.93-2.598,3.295-3.256c0.25-0.121,0.508-0.203,0.768-0.246c0.08-0.012,0.164-0.016,0.248-0.019      c0.035-0.001,0.082-0.002,0.113-0.006c0.018-0.035,0.023-0.05,0.027-0.063c0.021-0.062,0.029-0.1,0.037-0.135l0.117-0.531      l0.049-0.244c0.023-0.117,0.047-0.237,0.068-0.356c0.014-0.079,0.027-0.153,0.039-0.229c0.02-0.127,0.037-0.254,0.053-0.381      l0.023-0.195c0.02-0.188,0.031-0.377,0.037-0.565c0.002-0.065,0.002-0.131,0.006-0.196c-0.045-0.113-0.057-0.254-0.01-0.418      c0.115-0.406,0.318-0.748,0.588-0.994c0.303-0.277,0.652-0.407,1.105-0.407c0.064,0,0.129,0.002,0.195,0.007      c0.199,0.014,0.377,0.066,0.535,0.115c0.125,0.037,0.242,0.074,0.33,0.076c0.002,0,0.004,0,0.004,0      c0.117,0,0.213-0.01,0.309-0.021c0.125-0.013,0.248-0.022,0.373-0.022c0.146,0,0.279,0.016,0.406,0.045      c0.078,0.02,0.316,0.078,0.471,0.299c0.107,0.152,0.127,0.314,0.137,0.402l0.08,0.68c0.008,0.068,0.027,0.232-0.051,0.398      c0.039,0.225,0.082,0.449,0.127,0.674l0.01,0.049c0.057,0.281,0.115,0.57,0.184,0.856c0.074,0.323,0.15,0.646,0.242,0.966      c0.027,0.098,0.076,0.198,0.15,0.307c0.037,0.057,0.078,0.111,0.121,0.164c0.039,0.047,0.15,0.175,0.15,0.175      c0.07,0.079,0.146,0.155,0.223,0.231c0.117,0.119,0.234,0.238,0.342,0.362c0.045,0.052,0.07,0.082,0.096,0.112      c0.182,0.23,0.336,0.49,0.467,0.796c0.041,0.091,0.076,0.185,0.109,0.278c0.146,0.408,0.24,0.826,0.299,1.105      c0.305,1.49,0.307,3.139,0.01,4.768c-0.016,0.078-0.029,0.16-0.047,0.24c-0.367,2.182-1.152,4.311-2.271,6.133      c-0.289,0.475-0.602,0.916-0.928,1.312c-1.051,1.273-2.305,2.171-3.836,2.738c-0.256,0.095-0.516,0.183-0.779,0.263      C19.284,27.005,18.192,27.179,17.159,27.179L17.159,27.179z" stroke-width="1"/>
				<path d="M22.948,3.615c0.053,0,0.107,0.002,0.162,0.006c0.305,0.021,0.594,0.186,0.889,0.191c0.012,0,0.021,0,0.031,0      c0.225,0,0.443-0.042,0.662-0.042c0.1,0,0.197,0.009,0.297,0.032c0.076,0.02,0.156,0.05,0.201,0.113      c0.037,0.055,0.047,0.123,0.055,0.187c0.027,0.228,0.055,0.454,0.08,0.683c0.008,0.059,0.014,0.122-0.023,0.17      c-0.018,0.021-0.037,0.032-0.061,0.039c0,0.004,0,0.006,0.002,0.01c0.053,0.297,0.105,0.594,0.164,0.889      c0.002,0.014,0.006,0.027,0.008,0.042c0.059,0.293,0.119,0.586,0.188,0.878c0.076,0.331,0.156,0.66,0.248,0.988      c0.047,0.162,0.121,0.307,0.215,0.441c0.045,0.068,0.094,0.133,0.146,0.197c0.053,0.062,0.107,0.126,0.16,0.188      c0,0,0.002,0,0.002,0.002c0.076,0.084,0.156,0.166,0.238,0.25c0.111,0.111,0.223,0.225,0.322,0.34      c0.027,0.031,0.055,0.062,0.08,0.095c0.166,0.21,0.299,0.446,0.406,0.694c0.035,0.082,0.068,0.166,0.1,0.25      c0.123,0.342,0.209,0.697,0.279,1.041c0.305,1.492,0.279,3.095,0.008,4.59c-0.014,0.076-0.027,0.154-0.045,0.229      c-0.354,2.104-1.1,4.171-2.211,5.987c-0.275,0.449-0.572,0.87-0.893,1.258c-0.959,1.165-2.137,2.042-3.637,2.6      c-0.248,0.092-0.5,0.176-0.754,0.254c-1.01,0.31-2.066,0.496-3.111,0.496c-0.268,0-0.537-0.012-0.803-0.037      c-0.131-0.014-0.26-0.028-0.389-0.049c-0.26-0.039-0.518-0.092-0.771-0.158c-0.127-0.032-0.252-0.069-0.379-0.11      c-0.16-0.052-0.326-0.114-0.434-0.245c-0.016-0.02-0.027-0.038-0.039-0.059c-0.002-0.002-0.002-0.004-0.004-0.006      c-0.033,0-0.068-0.012-0.105-0.024c-0.15-0.06-0.312-0.2-0.381-0.351c-0.045-0.101-0.055-0.233-0.074-0.342      c-0.018-0.115-0.029-0.23-0.033-0.349c-0.004-0.116-0.01-0.246,0.014-0.36c0.01-0.048,0.033-0.094,0.055-0.138      c-0.045,0.001-0.09,0.003-0.137,0.003c-0.049,0.001-0.1,0.001-0.148,0.001c-0.881,0-1.766-0.091-2.611-0.301      c-0.896-0.222-1.748-0.576-2.512-1.099c-0.141-0.094-0.281-0.203-0.348-0.357c-0.01-0.023-0.016-0.047-0.023-0.072      c-0.031-0.01-0.062-0.029-0.094-0.053c-0.131-0.1-0.246-0.281-0.268-0.443c-0.016-0.109,0.012-0.24,0.025-0.349      c0.004-0.042,0.018-0.084,0.023-0.126c-0.068-0.023-0.135-0.045-0.203-0.07c-1.119-0.408-2.154-1.008-2.992-1.85      c-0.09-0.09-0.18-0.188-0.232-0.301c-0.02-0.036-0.033-0.075-0.043-0.117c-0.006-0.023-0.008-0.051-0.01-0.075      c-0.027-0.017-0.055-0.041-0.082-0.069c-0.107-0.123-0.188-0.322-0.18-0.486c0.006-0.109,0.057-0.233,0.092-0.338      c0.035-0.11,0.078-0.219,0.127-0.324c0.051-0.105,0.104-0.225,0.178-0.314c0.064-0.08,0.17-0.133,0.252-0.191      c0.031-0.023,0.064-0.047,0.104-0.059c0.012-0.004,0.025-0.006,0.039-0.006c0.023,0,0.045,0.006,0.064,0.02      c0.812-1.102,2.863-1.01,4.059-1.072c1.27-0.066,2.742-0.128,3.859-0.811c1.129-0.688,2.018-1.555,2.893-2.541      c1.248-1.408,2.441-3.664,4.232-4.527c0.203-0.098,0.42-0.168,0.643-0.204c0.158-0.026,0.338,0.006,0.488-0.06      c0.051-0.021,0.094-0.053,0.129-0.09c0.002-0.002,0.004-0.005,0.006-0.007c0.029-0.032,0.055-0.069,0.074-0.11      c0.008-0.013,0.014-0.027,0.021-0.041c0.016-0.031,0.025-0.064,0.037-0.099c0.004-0.014,0.012-0.026,0.014-0.041      c0.014-0.045,0.023-0.09,0.033-0.134c0.039-0.178,0.078-0.355,0.117-0.535c0.018-0.082,0.033-0.165,0.051-0.247      c0.023-0.122,0.049-0.247,0.07-0.37c0.014-0.078,0.027-0.158,0.041-0.236c0.021-0.133,0.039-0.266,0.055-0.399      c0.01-0.067,0.02-0.136,0.025-0.205c0.02-0.2,0.035-0.401,0.037-0.604c0.002-0.109,0.004-0.223,0.021-0.332      c-0.006-0.002-0.012-0.002-0.018-0.004c-0.049-0.031-0.039-0.103-0.025-0.158c0.086-0.291,0.23-0.572,0.455-0.778      C22.394,3.681,22.653,3.615,22.948,3.615 M24.235,8.64c0.004-0.004,0.01-0.008,0.016-0.014c0.033-0.043,0.059-0.09,0.072-0.139      c0.01-0.033,0.016-0.068,0.018-0.104c0.002-0.008,0.002-0.018,0.002-0.023c0.002-0.07-0.008-0.145-0.021-0.215      c-0.002-0.01-0.002-0.018-0.004-0.025c-0.008-0.033-0.016-0.066-0.023-0.102c-0.021-0.078-0.043-0.155-0.062-0.234      c-0.008,0.2-0.016,0.4-0.018,0.604c0,0.084,0.008,0.166,0.021,0.246C24.235,8.636,24.235,8.638,24.235,8.64 M22.948,2.686      c-0.568,0-1.033,0.173-1.422,0.53c-0.33,0.303-0.578,0.72-0.721,1.207c-0.061,0.211-0.062,0.42-0.012,0.61      c-0.002,0.04-0.002,0.078-0.002,0.113c-0.004,0.166-0.014,0.333-0.035,0.539c-0.004,0.04-0.01,0.081-0.016,0.122l-0.008,0.062      c-0.014,0.121-0.031,0.242-0.051,0.363c-0.012,0.074-0.023,0.146-0.037,0.221c-0.021,0.116-0.043,0.233-0.068,0.35l-0.016,0.084      L20.53,7.042c-0.027,0.127-0.055,0.254-0.084,0.381c-0.025,0.004-0.051,0.008-0.08,0.012c-0.305,0.05-0.605,0.146-0.895,0.285      c-1.467,0.709-2.529,2.137-3.465,3.398c-0.369,0.494-0.717,0.963-1.059,1.35c-0.695,0.785-1.561,1.68-2.682,2.365      c-0.887,0.541-2.182,0.609-3.326,0.668l-0.096,0.006c-0.15,0.008-0.312,0.013-0.484,0.02c-1.271,0.042-2.977,0.098-4.004,1.116      c-0.135,0.055-0.229,0.125-0.273,0.157l-0.037,0.024c-0.096,0.062-0.254,0.165-0.393,0.337      c-0.141,0.174-0.227,0.355-0.289,0.488c-0.07,0.15-0.129,0.296-0.178,0.445l-0.016,0.05c-0.043,0.123-0.109,0.31-0.119,0.528      c-0.02,0.369,0.113,0.771,0.348,1.074c0.018,0.043,0.035,0.086,0.057,0.129c0.113,0.234,0.271,0.41,0.41,0.551      c0.783,0.787,1.754,1.422,2.889,1.895c0.057,0.354,0.26,0.713,0.539,0.959c0.16,0.266,0.383,0.441,0.586,0.581      c0.816,0.558,1.762,0.972,2.812,1.231c0.678,0.168,1.4,0.271,2.156,0.312c0.004,0.024,0.008,0.052,0.012,0.075l0.006,0.052      c0.02,0.13,0.047,0.324,0.137,0.525c0.15,0.336,0.453,0.633,0.799,0.796c0.229,0.21,0.492,0.314,0.727,0.393      c0.143,0.047,0.285,0.088,0.43,0.127c0.281,0.072,0.574,0.133,0.869,0.176c0.145,0.021,0.291,0.041,0.438,0.055      c0.291,0.027,0.592,0.043,0.893,0.043c1.078,0,2.217-0.182,3.385-0.537c0.266-0.082,0.537-0.174,0.803-0.271      c1.609-0.598,2.928-1.539,4.031-2.879c0.34-0.412,0.666-0.873,0.967-1.365c1.145-1.867,1.951-4.047,2.334-6.299      c0.016-0.078,0.031-0.156,0.045-0.234c0.309-1.686,0.305-3.395-0.012-4.943c-0.098-0.476-0.195-0.837-0.314-1.171      c-0.039-0.103-0.078-0.204-0.121-0.306C28.128,9.302,27.95,9,27.747,8.742c-0.029-0.037-0.061-0.072-0.092-0.107l-0.02-0.02      c-0.123-0.144-0.252-0.275-0.363-0.387c-0.068-0.07-0.141-0.143-0.205-0.215L27.056,8l0,0c-0.043-0.047-0.084-0.094-0.125-0.144      c-0.033-0.042-0.066-0.085-0.096-0.13c-0.047-0.066-0.076-0.124-0.09-0.174c-0.076-0.27-0.152-0.569-0.236-0.942      c-0.066-0.282-0.125-0.567-0.182-0.853V5.755L26.321,5.73c-0.037-0.188-0.072-0.373-0.105-0.557      c0.043-0.149,0.055-0.314,0.033-0.493L26.21,4.348l-0.043-0.351c-0.014-0.109-0.043-0.367-0.219-0.613      c-0.17-0.24-0.42-0.401-0.738-0.479c-0.164-0.041-0.334-0.061-0.52-0.061c-0.152,0-0.293,0.013-0.418,0.025      c-0.08,0.008-0.162,0.016-0.244,0.016c-0.045-0.002-0.145-0.032-0.219-0.055c-0.172-0.051-0.387-0.117-0.639-0.133      C23.097,2.689,23.021,2.686,22.948,2.686L22.948,2.686z" stroke-width="1" fill="undefined"/>
			</g>
			<g>
				<path fill="#FFE449" d="M22.948,12.292c0.189-0.678,0.348-1.424,0.209-2.125c-0.059-0.301-0.18-0.604-0.26-0.906      c-0.082-0.317-0.152-0.645-0.088-0.973c0.189-0.938,0.451-1.853,0.736-2.766c0.051-0.169,0.102-0.34,0.146-0.51      c0.025-0.094,0.051-0.192,0.031-0.289c-0.021-0.1-0.086-0.186-0.158-0.256c-0.248-0.242-0.613-0.35-0.953-0.31      c-0.285,0.034-0.705,0.214-0.824,0.494c-0.066,0.162-0.064,0.345-0.066,0.521c-0.018,0.877-0.207,1.74-0.398,2.598      c-0.045,0.201-0.107,0.432-0.314,0.521c-0.15,0.064-0.33,0.032-0.488,0.059c-0.223,0.037-0.439,0.107-0.641,0.205      c-1.791,0.863-2.986,3.119-4.232,4.527c-0.875,0.987-1.766,1.854-2.893,2.541c-1.117,0.682-2.592,0.743-3.859,0.811      c-1.197,0.062-3.25-0.029-4.061,1.072c-0.305,0.414-0.436,0.928-0.551,1.431c-0.031,0.137-0.062,0.278-0.031,0.415      c0.035,0.164,0.154,0.298,0.273,0.416c1.49,1.498,3.605,2.229,5.703,2.479c2.121,0.253,3.988-0.266,5.791-1.366      c1.82-1.109,3.424-2.607,4.699-4.318c0.049-0.061,0.096-0.122,0.143-0.184C21.786,15.173,22.538,13.757,22.948,12.292z" stroke-width="1"/>
				<path fill="#FFE449" d="M22.948,12.292c0.189-0.678,0.348-1.424,0.209-2.125c-0.059-0.301-0.18-0.604-0.26-0.906      c-0.082-0.317-0.152-0.645-0.088-0.973c0.189-0.938,0.451-1.853,0.736-2.766c0.051-0.169,0.102-0.34,0.146-0.51      c0.025-0.094,0.051-0.192,0.031-0.289c-0.021-0.1-0.086-0.186-0.158-0.256c-0.248-0.242-0.613-0.35-0.953-0.31      c-0.285,0.034-0.705,0.214-0.824,0.494c-0.066,0.162-0.064,0.345-0.066,0.521c-0.018,0.877-0.207,1.74-0.398,2.598      c-0.045,0.201-0.107,0.432-0.314,0.521c-0.15,0.064-0.33,0.032-0.488,0.059c-0.223,0.037-0.439,0.107-0.641,0.205      c-1.791,0.863-2.986,3.119-4.232,4.527c-0.875,0.987-1.766,1.854-2.893,2.541c-1.117,0.682-2.592,0.743-3.859,0.811      c-1.197,0.062-3.25-0.029-4.061,1.072c-0.305,0.414-0.436,0.928-0.551,1.431c-0.031,0.137-0.062,0.278-0.031,0.415      c0.035,0.164,0.154,0.298,0.273,0.416c1.49,1.498,3.605,2.229,5.703,2.479c2.121,0.253,3.988-0.266,5.791-1.366      c1.82-1.109,3.424-2.607,4.699-4.318c0.049-0.061,0.096-0.122,0.143-0.184C21.786,15.173,22.538,13.757,22.948,12.292z" stroke-width="1"/>
				<path fill="#E0D74F" d="M22.899,9.261c-0.084-0.317-0.154-0.645-0.088-0.973c0.188-0.938,0.451-1.853,0.734-2.766      c0.051-0.169,0.102-0.34,0.146-0.51c0.025-0.094,0.051-0.192,0.031-0.289c-0.021-0.1-0.084-0.186-0.156-0.256      c-0.25-0.242-0.613-0.35-0.953-0.31c-0.285,0.034-0.705,0.214-0.824,0.494c-0.068,0.162-0.064,0.345-0.068,0.521      c-0.018,0.877-0.207,1.74-0.396,2.598c-0.033,0.152-0.08,0.318-0.188,0.432c0.008,0.02,0.02,0.034,0.039,0.042      c0.045,0.019,0.094-0.021,0.127-0.056c0.072-0.079,0.143-0.164,0.205-0.251c-0.027,0.22,0.016,0.448,0.123,0.646      c0.078-0.121,0.178-0.23,0.289-0.322c0.059,0.295,0.152,0.582,0.281,0.854c0.129-0.212,0.232-0.438,0.309-0.677      c0.078,0.376,0.158,0.758,0.336,1.098c0.021,0.039,0.051,0.083,0.094,0.084c0.023,0.002,0.041-0.009,0.057-0.023      C22.962,9.485,22.929,9.373,22.899,9.261z" stroke-width="1"/>
				<path fill="#D5D351" d="M22.511,6.815c-0.006,0.351,0.07,0.7,0.219,1.019c0.123-0.168,0.229-0.349,0.312-0.537      c0.15-0.597,0.32-1.186,0.504-1.773c0.053-0.169,0.104-0.34,0.148-0.51c0.025-0.094,0.051-0.192,0.031-0.289      c-0.021-0.1-0.086-0.186-0.158-0.256c-0.248-0.242-0.611-0.35-0.953-0.31c-0.283,0.034-0.705,0.214-0.822,0.494      c-0.068,0.162-0.066,0.345-0.068,0.521c-0.014,0.707-0.141,1.403-0.287,2.096c0.02,0.058,0.041,0.115,0.068,0.17      c0.184-0.245,0.328-0.52,0.424-0.812c-0.016,0.314,0.053,0.633,0.195,0.914C22.251,7.3,22.38,7.056,22.511,6.815z" stroke-width="1"/>
				<path opacity="0.4" fill="#F9BA0F" enable-background="new    " d="M20.862,16.38c0.926-1.207,1.678-2.623,2.086-4.088      c0.189-0.678,0.348-1.424,0.209-2.125c-0.059-0.301-0.18-0.604-0.26-0.906c-0.082-0.317-0.152-0.645-0.088-0.973      c0.189-0.938,0.451-1.853,0.736-2.766c0.051-0.169,0.102-0.34,0.146-0.51c0.025-0.094,0.051-0.192,0.031-0.289      c-0.021-0.1-0.086-0.186-0.158-0.256c-0.096-0.094-0.209-0.166-0.33-0.219c-0.531,1.846-1.561,3.524-2.604,5.147      c-1.342,2.089-2.752,4.167-4.582,5.847c-1.828,1.68-4.135,2.947-6.611,3.111c-1.586,0.105-3.158-0.241-4.678-0.738      c-0.252,0.395-0.373,0.862-0.479,1.32c-0.031,0.137-0.062,0.279-0.031,0.416c0.035,0.164,0.154,0.297,0.273,0.416      c1.49,1.498,3.605,2.229,5.703,2.479c2.121,0.252,3.988-0.266,5.791-1.367c1.82-1.108,3.424-2.606,4.699-4.317      C20.767,16.503,20.815,16.442,20.862,16.38z" stroke-width="1"/>
				<path d="M4.161,19.208c-0.109-0.123-0.188-0.322-0.18-0.486c0.006-0.108,0.059-0.233,0.092-0.336      c0.035-0.111,0.078-0.221,0.127-0.325c0.051-0.104,0.104-0.226,0.178-0.313c0.064-0.08,0.168-0.134,0.252-0.193      c0.031-0.022,0.064-0.047,0.102-0.059c0.037-0.011,0.082-0.009,0.113,0.018c0.031,0.022,0.043,0.063,0.051,0.103      c0.041,0.202,0.018,0.414-0.037,0.613c-0.055,0.198-0.141,0.389-0.221,0.577c-0.07,0.164-0.141,0.336-0.273,0.455      C4.284,19.333,4.22,19.273,4.161,19.208z" stroke-width="1" fill="undefined"/>
			</g>
			<g>
				<path fill="#FFE449" d="M25.099,12.292c0.059-0.701,0.072-1.463-0.193-2.127c-0.113-0.283-0.291-0.559-0.424-0.84      c-0.141-0.298-0.271-0.604-0.268-0.939c0.008-0.957,0.094-1.904,0.201-2.854c0.02-0.176,0.037-0.354,0.051-0.527      c0.008-0.099,0.014-0.201-0.023-0.291c-0.037-0.094-0.119-0.166-0.203-0.222c-0.289-0.19-0.666-0.229-0.994-0.125      c-0.271,0.087-0.65,0.341-0.715,0.64c-0.037,0.172,0,0.351,0.029,0.523c0.148,0.865,0.123,1.749,0.096,2.626      c-0.006,0.207-0.023,0.444-0.211,0.571c-0.137,0.093-0.318,0.095-0.469,0.15c-0.213,0.078-0.412,0.188-0.592,0.321      c-1.598,1.185-2.348,3.624-3.309,5.24c-0.676,1.134-1.387,2.151-2.365,3.04c-0.969,0.879-2.404,1.215-3.639,1.52      c-1.162,0.285-3.195,0.58-3.787,1.813c-0.221,0.465-0.252,0.993-0.271,1.509c-0.004,0.141-0.008,0.285,0.047,0.414      C8.126,22.89,8.267,23,8.407,23.093c1.744,1.19,3.959,1.513,6.066,1.365c2.129-0.15,3.865-1.01,5.43-2.43      c1.58-1.432,2.875-3.203,3.807-5.123c0.035-0.068,0.072-0.137,0.107-0.207C24.499,15.341,24.972,13.81,25.099,12.292z" stroke-width="1"/>
				<path fill="#FFE449" d="M25.099,12.292c0.059-0.701,0.072-1.463-0.193-2.127c-0.113-0.283-0.291-0.559-0.424-0.84      c-0.141-0.298-0.271-0.604-0.268-0.939c0.008-0.957,0.094-1.904,0.201-2.854c0.02-0.176,0.037-0.354,0.051-0.527      c0.008-0.099,0.014-0.201-0.023-0.291c-0.037-0.094-0.119-0.166-0.203-0.222c-0.289-0.19-0.666-0.229-0.994-0.125      c-0.271,0.087-0.65,0.341-0.715,0.64c-0.037,0.172,0,0.351,0.029,0.523c0.148,0.865,0.123,1.749,0.096,2.626      c-0.006,0.207-0.023,0.444-0.211,0.571c-0.137,0.093-0.318,0.095-0.469,0.15c-0.213,0.078-0.412,0.188-0.592,0.321      c-1.598,1.185-2.348,3.624-3.309,5.24c-0.676,1.134-1.387,2.151-2.365,3.04c-0.969,0.879-2.404,1.215-3.639,1.52      c-1.162,0.285-3.195,0.58-3.787,1.813c-0.221,0.465-0.252,0.993-0.271,1.509c-0.004,0.141-0.008,0.285,0.047,0.414      C8.126,22.89,8.267,23,8.407,23.093c1.744,1.19,3.959,1.513,6.066,1.365c2.129-0.15,3.865-1.01,5.43-2.43      c1.58-1.432,2.875-3.203,3.807-5.123c0.035-0.068,0.072-0.137,0.107-0.207C24.499,15.341,24.972,13.81,25.099,12.292z" stroke-width="1"/>
				<path fill="#E0D74F" d="M24.481,9.326c-0.141-0.298-0.27-0.604-0.268-0.939c0.01-0.957,0.096-1.904,0.201-2.854      c0.02-0.176,0.037-0.354,0.051-0.527c0.008-0.099,0.014-0.201-0.023-0.291c-0.037-0.094-0.117-0.166-0.203-0.222      c-0.289-0.19-0.666-0.229-0.994-0.125c-0.271,0.087-0.65,0.341-0.715,0.64c-0.037,0.172,0,0.351,0.029,0.523      c0.148,0.865,0.123,1.749,0.098,2.626c-0.006,0.155-0.018,0.328-0.104,0.458c0.012,0.018,0.025,0.031,0.047,0.034      c0.049,0.011,0.088-0.036,0.113-0.078c0.059-0.091,0.109-0.188,0.154-0.286c0.016,0.223,0.102,0.438,0.242,0.611      c0.057-0.133,0.133-0.258,0.225-0.37c0.111,0.278,0.26,0.543,0.436,0.786c0.088-0.232,0.146-0.477,0.178-0.723      c0.146,0.354,0.297,0.715,0.535,1.016c0.027,0.033,0.064,0.07,0.107,0.064c0.021-0.004,0.039-0.018,0.051-0.035      C24.587,9.532,24.53,9.429,24.481,9.326z" stroke-width="1"/>
				<path fill="#D5D351" d="M23.642,6.996c0.061,0.344,0.199,0.674,0.406,0.957c0.09-0.186,0.156-0.383,0.205-0.585      c0.035-0.612,0.094-1.224,0.162-1.836c0.02-0.176,0.037-0.353,0.051-0.528c0.008-0.098,0.014-0.199-0.023-0.291      c-0.037-0.094-0.119-0.164-0.203-0.221C23.95,4.3,23.573,4.263,23.247,4.367c-0.273,0.088-0.652,0.342-0.717,0.641      c-0.037,0.172,0,0.35,0.029,0.522c0.119,0.697,0.127,1.405,0.111,2.113c0.029,0.053,0.061,0.106,0.1,0.155      c0.135-0.275,0.223-0.574,0.262-0.877c0.045,0.312,0.174,0.61,0.363,0.859C23.478,7.52,23.56,7.257,23.642,6.996z" stroke-width="1"/>
				<path opacity="0.4" fill="#F9BA0F" enable-background="new    " d="M23.817,16.699c0.684-1.357,1.154-2.891,1.281-4.408      c0.059-0.701,0.072-1.461-0.193-2.125c-0.113-0.285-0.291-0.56-0.424-0.841c-0.141-0.297-0.271-0.604-0.268-0.938      c0.008-0.957,0.094-1.905,0.201-2.854c0.02-0.176,0.037-0.353,0.051-0.528c0.008-0.098,0.014-0.199-0.023-0.291      c-0.037-0.094-0.119-0.166-0.203-0.221c-0.109-0.072-0.234-0.123-0.363-0.15c-0.178,1.91-0.873,3.754-1.594,5.543      c-0.928,2.305-1.922,4.609-3.404,6.604c-1.482,1.993-3.51,3.67-5.912,4.296c-1.539,0.399-3.148,0.354-4.732,0.151      c-0.176,0.435-0.205,0.918-0.221,1.388c-0.006,0.14-0.01,0.284,0.045,0.413C8.124,22.89,8.267,23,8.405,23.093      c1.744,1.19,3.959,1.514,6.066,1.365c2.131-0.149,3.867-1.009,5.432-2.429c1.578-1.431,2.873-3.204,3.807-5.123      C23.745,16.837,23.78,16.769,23.817,16.699z" stroke-width="1"/>
				<path d="M7.942,22.608c-0.131-0.099-0.246-0.28-0.268-0.442c-0.016-0.109,0.012-0.24,0.025-0.349      c0.016-0.115,0.035-0.229,0.064-0.345c0.029-0.111,0.061-0.238,0.115-0.342c0.049-0.092,0.141-0.162,0.211-0.235      c0.027-0.029,0.055-0.06,0.09-0.076c0.035-0.019,0.08-0.024,0.115-0.006s0.053,0.056,0.068,0.092      c0.08,0.19,0.096,0.403,0.078,0.608c-0.016,0.207-0.064,0.408-0.107,0.609c-0.039,0.176-0.076,0.355-0.184,0.5      C8.085,22.708,8.011,22.661,7.942,22.608z" stroke-width="1" fill="undefined"/>
			</g>
			<path d="M23.595,4.315c0.094,0,0.188,0.01,0.279,0.03c0-0.002,0.002-0.004,0.002-0.006c0.027,0.006,0.055,0.018,0.082,0.025     c0.023,0.008,0.049,0.014,0.072,0.023c0.074,0.027,0.145,0.06,0.209,0.103c0.084,0.058,0.166,0.127,0.203,0.222     c0.02,0.045,0.025,0.094,0.027,0.143c0.004,0.049,0,0.1-0.004,0.148c-0.014,0.176-0.031,0.352-0.051,0.527     c-0.033,0.301-0.064,0.6-0.094,0.898c0,0.015-0.002,0.029-0.004,0.043c-0.025,0.298-0.049,0.597-0.066,0.896     c-0.008,0.1-0.016,0.2-0.02,0.301c-0.012,0.238-0.018,0.478-0.02,0.717c-0.002,0.168,0.029,0.328,0.078,0.484     c0.051,0.155,0.119,0.307,0.189,0.455l0,0c0.049,0.104,0.104,0.206,0.158,0.309c0.059,0.105,0.115,0.213,0.168,0.32     c0.035,0.069,0.068,0.141,0.096,0.211c0.033,0.082,0.062,0.166,0.088,0.252c0.102,0.344,0.137,0.707,0.143,1.068     c0.002,0.271-0.014,0.542-0.035,0.805c-0.033,0.379-0.086,0.76-0.158,1.139c-0.219,1.135-0.613,2.25-1.125,3.27     c-0.035,0.069-0.07,0.139-0.105,0.207c-0.582,1.199-1.307,2.342-2.154,3.379c-0.508,0.623-1.061,1.207-1.652,1.744     c-0.391,0.354-0.793,0.676-1.209,0.957c-1.248,0.848-2.623,1.357-4.221,1.471c-0.131,0.01-0.264,0.018-0.396,0.021     c-0.182,0.008-0.365,0.012-0.547,0.012c-0.217,0-0.434-0.005-0.648-0.018c-1.596-0.084-3.168-0.487-4.477-1.381     c-0.068-0.047-0.139-0.1-0.199-0.156c-0.031-0.029-0.061-0.061-0.086-0.094c-0.023-0.033-0.045-0.069-0.062-0.108     c-0.01-0.022-0.016-0.048-0.023-0.071c-0.029-0.011-0.062-0.031-0.094-0.055c-0.129-0.1-0.244-0.279-0.268-0.443     c-0.016-0.107,0.014-0.24,0.027-0.348c0.016-0.116,0.035-0.23,0.064-0.346c0.029-0.111,0.061-0.238,0.115-0.34     c0.049-0.092,0.141-0.162,0.211-0.237c0.027-0.029,0.055-0.058,0.09-0.076c0.02-0.01,0.041-0.017,0.062-0.017     c0.014,0,0.029,0.004,0.041,0.01c0.592-1.232,2.625-1.528,3.787-1.814c1.232-0.303,2.668-0.639,3.639-1.518     c0.979-0.889,1.689-1.906,2.363-3.04c0.961-1.616,1.711-4.056,3.309-5.24c0.182-0.134,0.381-0.243,0.592-0.321     c0.15-0.055,0.334-0.057,0.469-0.149c0.047-0.032,0.082-0.071,0.111-0.114c0.002-0.002,0.002-0.005,0.004-0.008     c0.023-0.037,0.039-0.079,0.053-0.121c0.004-0.016,0.008-0.029,0.014-0.045c0.008-0.034,0.014-0.068,0.018-0.104     c0.002-0.015,0.004-0.029,0.006-0.043c0.004-0.045,0.008-0.092,0.01-0.137c0.006-0.184,0.01-0.365,0.014-0.547     c0.002-0.084,0.002-0.169,0.004-0.254c0-0.125,0-0.25,0-0.374C22.671,6.9,22.669,6.82,22.667,6.74     c-0.004-0.134-0.012-0.27-0.02-0.402c-0.006-0.068-0.01-0.137-0.014-0.205c-0.02-0.201-0.041-0.401-0.076-0.602     c-0.029-0.173-0.066-0.352-0.029-0.523c0.064-0.297,0.443-0.553,0.717-0.639C23.358,4.332,23.476,4.315,23.595,4.315      M23.597,3.96l-0.004,0.045c-0.154,0-0.301,0.021-0.441,0.066c-0.316,0.102-0.828,0.416-0.926,0.869     c-0.047,0.218-0.01,0.422,0.021,0.602l0.008,0.041c0.027,0.17,0.051,0.352,0.07,0.574c0.006,0.047,0.008,0.094,0.012,0.141     l0.004,0.06c0.008,0.13,0.016,0.261,0.02,0.392c0.002,0.077,0.004,0.156,0.004,0.235c0.002,0.122,0.002,0.245,0,0.366v0.084     L22.36,7.603c-0.004,0.181-0.008,0.363-0.014,0.544c0,0.039-0.004,0.079-0.008,0.12v0.002L22.335,8.3     c-0.002,0.022-0.008,0.045-0.012,0.067l-0.008,0.024c-0.006,0.023-0.014,0.039-0.02,0.051l-0.01,0.014     c-0.006,0.006-0.012,0.012-0.02,0.016c-0.033,0.023-0.107,0.041-0.18,0.057c-0.076,0.016-0.15,0.033-0.221,0.059     c-0.234,0.086-0.459,0.209-0.67,0.364c-1.186,0.88-1.926,2.409-2.578,3.759c-0.273,0.568-0.533,1.105-0.811,1.571     c-0.562,0.94-1.273,2.031-2.307,2.97c-0.887,0.803-2.229,1.133-3.41,1.424l-0.094,0.021c-0.148,0.036-0.311,0.073-0.482,0.112     c-1.182,0.266-2.779,0.626-3.424,1.712c-0.02,0.007-0.035,0.014-0.053,0.021c-0.084,0.043-0.139,0.104-0.174,0.139     c-0.016,0.019-0.035,0.035-0.053,0.054c-0.064,0.062-0.146,0.142-0.205,0.25c-0.07,0.132-0.109,0.278-0.137,0.396     c-0.035,0.138-0.061,0.265-0.076,0.396l-0.01,0.062c-0.016,0.105-0.035,0.236-0.018,0.365c0.033,0.239,0.186,0.493,0.389,0.648     c0.01,0.007,0.018,0.014,0.027,0.021c0.023,0.053,0.055,0.104,0.092,0.151c0.035,0.047,0.074,0.092,0.117,0.133     c0.08,0.075,0.166,0.138,0.24,0.188c1.254,0.855,2.814,1.339,4.635,1.435c0.217,0.013,0.441,0.019,0.664,0.019     c0.188,0,0.375-0.004,0.561-0.012c0.135-0.006,0.271-0.014,0.404-0.023c1.6-0.111,3.031-0.609,4.375-1.522     c0.418-0.282,0.838-0.614,1.244-0.983c0.596-0.539,1.162-1.137,1.684-1.777c0.855-1.047,1.594-2.204,2.191-3.439     c0.031-0.061,0.07-0.132,0.105-0.203c0.537-1.067,0.936-2.227,1.15-3.35c0.076-0.395,0.131-0.787,0.164-1.171     c0.027-0.323,0.037-0.589,0.035-0.834c-0.006-0.437-0.055-0.813-0.154-1.151c-0.027-0.096-0.061-0.188-0.096-0.281     c-0.031-0.078-0.066-0.156-0.105-0.232c-0.051-0.104-0.105-0.204-0.16-0.307L24.915,9.49c-0.053-0.098-0.105-0.195-0.15-0.293     l-0.008-0.014l0,0c-0.062-0.131-0.123-0.27-0.166-0.404c-0.047-0.143-0.066-0.268-0.066-0.387     c0.002-0.235,0.01-0.471,0.021-0.705c0.004-0.062,0.008-0.124,0.012-0.186l0.006-0.113c0.018-0.295,0.041-0.59,0.068-0.885     l-0.307-0.07l0.311,0.027c0.025-0.297,0.057-0.594,0.092-0.892c0.02-0.181,0.037-0.36,0.051-0.539     c0.004-0.062,0.008-0.123,0.006-0.185c-0.004-0.092-0.021-0.172-0.051-0.246c-0.057-0.141-0.162-0.26-0.32-0.364     c-0.078-0.052-0.166-0.095-0.27-0.134c-0.025-0.01-0.051-0.018-0.076-0.023l-0.035-0.013c-0.029-0.011-0.057-0.019-0.086-0.024     L23.597,3.96L23.597,3.96z" stroke-width="1" fill="undefined"/>
			<g>
				<path fill="#FFE449" d="M27.8,11.3c-0.141-0.688-0.342-1.424-0.783-1.985c-0.189-0.24-0.436-0.455-0.643-0.687      c-0.219-0.246-0.43-0.504-0.521-0.826c-0.26-0.92-0.443-1.854-0.609-2.797c-0.027-0.174-0.061-0.349-0.1-0.521      c-0.02-0.097-0.043-0.194-0.104-0.272c-0.062-0.08-0.158-0.125-0.258-0.154c-0.332-0.102-0.701-0.032-0.988,0.16      c-0.236,0.16-0.529,0.511-0.508,0.813c0.014,0.177,0.1,0.337,0.178,0.495c0.385,0.788,0.609,1.643,0.83,2.492      c0.053,0.199,0.1,0.434-0.043,0.607c-0.104,0.127-0.277,0.18-0.406,0.276c-0.184,0.134-0.344,0.295-0.48,0.476      c-1.197,1.584-1.23,4.137-1.699,5.957c-0.328,1.278-0.727,2.455-1.416,3.582c-0.684,1.116-1.967,1.842-3.064,2.48      c-1.035,0.602-2.904,1.456-3.123,2.807c-0.084,0.508,0.037,1.024,0.162,1.523c0.035,0.136,0.072,0.275,0.162,0.384      c0.105,0.13,0.273,0.192,0.434,0.246c2.01,0.651,4.227,0.339,6.205-0.396c2.002-0.744,3.428-2.056,4.529-3.857      c1.113-1.816,1.857-3.883,2.213-5.986c0.016-0.076,0.029-0.152,0.043-0.229C28.081,14.396,28.104,12.792,27.8,11.3z" stroke-width="1"/>
				<path fill="#FFE449" d="M27.8,11.3c-0.141-0.688-0.342-1.424-0.783-1.985c-0.189-0.24-0.436-0.455-0.643-0.687      c-0.219-0.246-0.43-0.504-0.521-0.826c-0.26-0.92-0.443-1.854-0.609-2.797c-0.027-0.174-0.061-0.349-0.1-0.521      c-0.02-0.097-0.043-0.194-0.104-0.272c-0.062-0.08-0.158-0.125-0.258-0.154c-0.332-0.102-0.701-0.032-0.988,0.16      c-0.236,0.16-0.529,0.511-0.508,0.813c0.014,0.177,0.1,0.337,0.178,0.495c0.385,0.788,0.609,1.643,0.83,2.492      c0.053,0.199,0.1,0.434-0.043,0.607c-0.104,0.127-0.277,0.18-0.406,0.276c-0.184,0.134-0.344,0.295-0.48,0.476      c-1.197,1.584-1.23,4.137-1.699,5.957c-0.328,1.278-0.727,2.455-1.416,3.582c-0.684,1.116-1.967,1.842-3.064,2.48      c-1.035,0.602-2.904,1.456-3.123,2.807c-0.084,0.508,0.037,1.024,0.162,1.523c0.035,0.136,0.072,0.275,0.162,0.384      c0.105,0.13,0.273,0.192,0.434,0.246c2.01,0.651,4.227,0.339,6.205-0.396c2.002-0.744,3.428-2.056,4.529-3.857      c1.113-1.816,1.857-3.883,2.213-5.986c0.016-0.076,0.029-0.152,0.043-0.229C28.081,14.396,28.104,12.792,27.8,11.3z" stroke-width="1"/>
				<path fill="#E0D74F" d="M26.374,8.628c-0.219-0.246-0.432-0.504-0.521-0.826c-0.262-0.92-0.445-1.854-0.609-2.797      c-0.029-0.174-0.062-0.349-0.1-0.521c-0.02-0.097-0.043-0.194-0.104-0.272c-0.062-0.08-0.158-0.125-0.258-0.154      c-0.332-0.102-0.703-0.032-0.988,0.16c-0.238,0.16-0.529,0.511-0.508,0.813c0.014,0.177,0.1,0.337,0.176,0.495      c0.387,0.788,0.609,1.643,0.832,2.492c0.039,0.15,0.074,0.32,0.029,0.469c0.018,0.014,0.033,0.021,0.055,0.021      c0.049-0.006,0.072-0.062,0.088-0.107c0.027-0.104,0.051-0.21,0.066-0.316c0.076,0.207,0.221,0.392,0.402,0.518      c0.018-0.145,0.055-0.286,0.113-0.418c0.186,0.236,0.4,0.449,0.639,0.631c0.02-0.248,0.008-0.498-0.033-0.743      c0.24,0.3,0.486,0.603,0.801,0.824c0.035,0.024,0.08,0.051,0.121,0.03c0.021-0.008,0.031-0.026,0.039-0.047      C26.532,8.796,26.45,8.714,26.374,8.628z" stroke-width="1"/>
				<path fill="#D5D351" d="M24.911,6.628c0.154,0.313,0.383,0.592,0.66,0.805c0.033-0.205,0.043-0.413,0.031-0.619      c-0.137-0.6-0.254-1.202-0.359-1.809c-0.029-0.174-0.062-0.35-0.1-0.521c-0.021-0.098-0.045-0.195-0.105-0.273      c-0.062-0.08-0.158-0.125-0.258-0.156c-0.33-0.1-0.703-0.03-0.988,0.162c-0.236,0.16-0.529,0.51-0.508,0.813      c0.014,0.177,0.1,0.336,0.178,0.494c0.311,0.635,0.516,1.312,0.699,1.996c0.045,0.042,0.09,0.084,0.141,0.12      c0.051-0.303,0.053-0.612,0.006-0.916c0.129,0.287,0.336,0.539,0.59,0.723C24.901,7.177,24.907,6.902,24.911,6.628z" stroke-width="1"/>
				<path opacity="0.4" fill="#F9BA0F" enable-background="new    " d="M21.022,25.962c2.002-0.742,3.428-2.055,4.529-3.856      c1.113-1.815,1.857-3.882,2.213-5.985c0.016-0.076,0.031-0.152,0.043-0.23c0.273-1.494,0.297-3.098-0.008-4.59      c-0.141-0.688-0.342-1.424-0.783-1.985c-0.189-0.239-0.436-0.455-0.643-0.687c-0.219-0.246-0.43-0.504-0.521-0.826      c-0.26-0.922-0.443-1.854-0.609-2.797c-0.027-0.174-0.061-0.35-0.1-0.521c-0.02-0.098-0.043-0.195-0.104-0.273      c-0.062-0.08-0.158-0.125-0.258-0.156C24.63,4.007,24.47,4,24.31,4.021c0.227,1.134,0.451,2.268,0.678,3.402      c0.08,0.396,0.158,0.795,0.275,1.184c0.15,0.502,0.365,0.984,0.506,1.488c0.162,0.582,0.225,1.186,0.27,1.785      c0.098,1.322,0.131,2.646-0.188,3.933c-0.508,2.058-1.293,3.874-2.752,5.444c-1.58,1.699-3.66,2.809-5.889,3.396      c-1.02,0.269-2.059,0.438-3.105,0.562c0.035,0.172,0.076,0.345,0.119,0.515c0.033,0.136,0.07,0.276,0.16,0.385      c0.107,0.13,0.273,0.193,0.436,0.246C16.825,27.011,19.042,26.698,21.022,25.962z" stroke-width="1"/>
				<path d="M14.235,26.026c-0.152-0.06-0.314-0.2-0.383-0.351c-0.045-0.101-0.055-0.234-0.072-0.342      c-0.018-0.115-0.031-0.231-0.033-0.349c-0.006-0.116-0.012-0.246,0.014-0.36c0.02-0.102,0.088-0.195,0.135-0.287      c0.02-0.035,0.037-0.069,0.066-0.098c0.027-0.027,0.068-0.046,0.107-0.038c0.037,0.009,0.066,0.039,0.092,0.069      c0.131,0.16,0.205,0.359,0.246,0.562c0.041,0.201,0.053,0.408,0.066,0.614c0.012,0.179,0.027,0.363-0.035,0.529      C14.401,26.08,14.317,26.056,14.235,26.026z" stroke-width="1" fill="undefined"/>
			</g>
			<path d="M24.513,4.013c0.01,0,0.02,0,0.027,0.002c0.082,0.005,0.162,0.019,0.242,0.041c0.098,0.031,0.193,0.076,0.258,0.156     c0.061,0.078,0.084,0.178,0.104,0.273c0.037,0.172,0.07,0.346,0.1,0.521c0.053,0.297,0.107,0.594,0.164,0.89     c0.004,0.013,0.006,0.026,0.01,0.039c0.059,0.294,0.119,0.587,0.186,0.879c0.023,0.099,0.045,0.198,0.068,0.295     c0.057,0.231,0.115,0.463,0.182,0.692c0.023,0.08,0.053,0.156,0.09,0.229c0.107,0.22,0.27,0.411,0.434,0.597l0,0     c0.074,0.086,0.156,0.168,0.238,0.25c0.086,0.086,0.17,0.172,0.252,0.26c0.053,0.059,0.105,0.117,0.15,0.177     c0.223,0.28,0.383,0.604,0.506,0.946c0.092,0.255,0.162,0.52,0.223,0.779c0.021,0.088,0.037,0.174,0.057,0.26     c0.305,1.492,0.281,3.096,0.008,4.592c-0.012,0.076-0.027,0.152-0.043,0.229c-0.354,2.104-1.1,4.17-2.213,5.986     c-0.137,0.227-0.281,0.443-0.428,0.652c-0.299,0.42-0.615,0.809-0.961,1.164c-0.609,0.629-1.307,1.148-2.102,1.567     c-0.33,0.175-0.672,0.337-1.039,0.474c-0.742,0.274-1.518,0.49-2.305,0.619c-0.131,0.021-0.262,0.041-0.395,0.058     c-0.262,0.032-0.525,0.055-0.789,0.065c-0.125,0.006-0.25,0.008-0.375,0.008c-0.4,0-0.799-0.026-1.193-0.086     c-0.258-0.039-0.516-0.09-0.77-0.156c-0.127-0.033-0.254-0.07-0.379-0.111c-0.121-0.039-0.244-0.084-0.344-0.16     c-0.033-0.023-0.064-0.054-0.092-0.086c-0.018-0.02-0.029-0.041-0.041-0.062c-0.033,0-0.07-0.01-0.105-0.024     c-0.152-0.06-0.314-0.2-0.383-0.351c-0.045-0.1-0.055-0.234-0.072-0.342c-0.018-0.115-0.029-0.23-0.033-0.349     c-0.004-0.116-0.01-0.246,0.014-0.358c0.021-0.103,0.09-0.195,0.137-0.287c0.018-0.035,0.037-0.071,0.064-0.1     c0.023-0.021,0.055-0.035,0.088-0.035c0.004,0,0.008,0,0.01,0c0.221-1.351,2.09-2.203,3.125-2.806     c1.098-0.638,2.381-1.364,3.064-2.479c0.689-1.127,1.086-2.305,1.414-3.582c0.469-1.82,0.502-4.373,1.701-5.959     c0.137-0.18,0.297-0.34,0.479-0.476c0.129-0.095,0.305-0.147,0.408-0.274c0.035-0.043,0.059-0.09,0.072-0.14     c0.012-0.034,0.016-0.069,0.018-0.104c0.002-0.008,0.002-0.016,0.002-0.022c0.002-0.071-0.006-0.144-0.021-0.215     c-0.002-0.009-0.002-0.019-0.004-0.026c-0.008-0.033-0.016-0.066-0.023-0.1c-0.047-0.178-0.094-0.354-0.143-0.53     c-0.02-0.081-0.045-0.161-0.066-0.241c-0.033-0.121-0.068-0.242-0.105-0.361c-0.023-0.077-0.047-0.153-0.072-0.229     c-0.041-0.129-0.086-0.256-0.133-0.383c-0.023-0.064-0.047-0.129-0.07-0.191c-0.074-0.188-0.152-0.375-0.24-0.557     c-0.078-0.158-0.164-0.318-0.178-0.494c-0.021-0.304,0.27-0.654,0.508-0.814c0.154-0.104,0.332-0.168,0.518-0.191     c0-0.001,0-0.002,0-0.002c0.031-0.004,0.064-0.001,0.1-0.003C24.444,4.017,24.478,4.013,24.513,4.013 M24.513,3.703     c-0.029,0-0.061,0.002-0.09,0.004l-0.029,0.002c-0.057,0-0.092,0.002-0.125,0.006l-0.316,0.043l0.008,0.033     c-0.121,0.043-0.234,0.1-0.34,0.168c-0.275,0.188-0.678,0.633-0.645,1.094c0.018,0.224,0.109,0.408,0.189,0.572l0.018,0.037     c0.076,0.156,0.15,0.325,0.232,0.533c0.016,0.042,0.031,0.085,0.047,0.128l0.021,0.058c0.045,0.123,0.088,0.246,0.129,0.371     c0.023,0.074,0.047,0.149,0.07,0.225c0.035,0.117,0.07,0.236,0.104,0.354l0.023,0.079l0.045,0.161     c0.047,0.176,0.094,0.352,0.139,0.525c0.01,0.029,0.016,0.06,0.021,0.09c0.016,0.076,0.02,0.123,0.02,0.162     c-0.004,0.035-0.006,0.045-0.006,0.051c-0.006,0.013-0.01,0.021-0.018,0.031c-0.027,0.033-0.094,0.07-0.158,0.104     c-0.068,0.037-0.135,0.074-0.193,0.118c-0.201,0.148-0.385,0.33-0.541,0.538c-0.891,1.177-1.17,2.853-1.418,4.332     c-0.104,0.623-0.201,1.211-0.336,1.735c-0.273,1.062-0.65,2.308-1.379,3.498c-0.625,1.021-1.818,1.713-2.873,2.324l-0.084,0.049     c-0.133,0.078-0.277,0.158-0.432,0.244c-1.059,0.588-2.49,1.381-2.805,2.604c-0.016,0.012-0.029,0.022-0.043,0.036     c-0.062,0.061-0.1,0.125-0.127,0.183c-0.012,0.021-0.023,0.043-0.035,0.063c-0.045,0.08-0.104,0.179-0.127,0.3     c-0.031,0.146-0.025,0.297-0.021,0.418c0.004,0.141,0.018,0.271,0.039,0.401l0.01,0.063c0.014,0.104,0.031,0.235,0.086,0.354     c0.098,0.221,0.314,0.422,0.553,0.514c0.012,0.005,0.021,0.009,0.033,0.012c0.037,0.044,0.082,0.084,0.131,0.121     c0.135,0.102,0.287,0.159,0.434,0.207c0.131,0.043,0.264,0.082,0.396,0.116c0.26,0.067,0.529,0.124,0.803,0.165     c0.398,0.059,0.814,0.09,1.238,0.09c0.131,0,0.26-0.004,0.391-0.01c0.266-0.01,0.541-0.033,0.814-0.067     c0.135-0.019,0.27-0.037,0.404-0.06c0.77-0.125,1.564-0.34,2.363-0.635c0.344-0.127,0.686-0.283,1.076-0.49     c0.816-0.43,1.549-0.978,2.178-1.625c0.348-0.359,0.682-0.764,0.99-1.2c0.148-0.212,0.299-0.438,0.439-0.671     c1.107-1.805,1.887-3.914,2.254-6.096c0.014-0.067,0.029-0.146,0.043-0.226c0.295-1.608,0.291-3.235-0.01-4.708     c-0.018-0.088-0.037-0.178-0.057-0.268c-0.07-0.311-0.146-0.578-0.234-0.816c-0.146-0.41-0.328-0.747-0.553-1.031     c-0.051-0.066-0.107-0.131-0.166-0.193c-0.078-0.086-0.16-0.168-0.242-0.252C26.757,8.58,26.681,8.5,26.608,8.419l-0.008-0.01     l-0.01-0.009c-0.129-0.144-0.275-0.317-0.369-0.509c-0.031-0.061-0.053-0.118-0.07-0.178c-0.062-0.228-0.123-0.455-0.178-0.684     c-0.016-0.059-0.029-0.117-0.041-0.177L25.907,6.74c-0.066-0.289-0.127-0.58-0.186-0.871L25.409,5.89l0.305-0.061     c-0.059-0.293-0.111-0.588-0.164-0.883c-0.031-0.178-0.064-0.355-0.104-0.531c-0.021-0.105-0.057-0.265-0.164-0.4     c-0.094-0.119-0.229-0.205-0.408-0.26c-0.1-0.031-0.203-0.049-0.312-0.056C24.546,3.705,24.528,3.703,24.513,3.703L24.513,3.703z     " stroke-width="1" fill="undefined"/>
		</g>
		<path fill="#A46C21" d="M21.894,4.843c0.244-0.021,0.486-0.055,0.73-0.084c0.303-0.037,0.605-0.08,0.912-0.098    c0.498-0.027,1.02,0.021,1.451,0.268c0.102,0.058,0.244,0.117,0.314,0.027c0.037-0.048,0.031-0.111,0.023-0.17    c-0.025-0.229-0.055-0.455-0.082-0.683c-0.008-0.063-0.016-0.132-0.053-0.187c-0.047-0.063-0.125-0.095-0.203-0.113    c-0.332-0.082-0.654,0.017-0.988,0.01c-0.295-0.006-0.584-0.172-0.889-0.191c-0.365-0.023-0.676,0.021-0.957,0.279    c-0.225,0.206-0.369,0.486-0.453,0.779c-0.016,0.055-0.023,0.125,0.023,0.156c0.025,0.017,0.057,0.016,0.086,0.012    C21.839,4.847,21.866,4.845,21.894,4.843z" stroke-width="1"/>
		<path d="M22.948,3.615c0.053,0,0.107,0.002,0.162,0.006c0.305,0.021,0.594,0.186,0.889,0.191c0.012,0,0.021,0,0.031,0    c0.225,0,0.443-0.042,0.662-0.042c0.1,0,0.197,0.009,0.297,0.032c0.076,0.02,0.156,0.05,0.201,0.113    c0.037,0.055,0.047,0.123,0.055,0.187c0.027,0.228,0.055,0.454,0.08,0.683c0.008,0.059,0.014,0.122-0.023,0.17    C25.276,4.987,25.239,5,25.198,5c-0.066,0-0.146-0.037-0.211-0.072c-0.365-0.207-0.789-0.274-1.211-0.274    c-0.08,0-0.16,0.002-0.24,0.007c-0.307,0.018-0.609,0.061-0.914,0.098c-0.244,0.029-0.484,0.062-0.73,0.084    c-0.027,0.002-0.055,0.004-0.082,0.006c-0.01,0-0.02,0.002-0.029,0.002c-0.02,0-0.039-0.004-0.057-0.014    c-0.047-0.031-0.039-0.103-0.023-0.156c0.084-0.293,0.23-0.574,0.453-0.78C22.394,3.681,22.653,3.615,22.948,3.615 M22.948,3.306    L22.948,3.306c-0.412,0-0.73,0.115-1.004,0.365c-0.246,0.227-0.434,0.545-0.541,0.922c-0.092,0.316,0.094,0.465,0.154,0.504    c0.062,0.041,0.139,0.062,0.223,0.062c0.02,0,0.035-0.001,0.053-0.002l0.088-0.007c0.191-0.018,0.383-0.04,0.574-0.064    l0.164-0.021l0.197-0.024c0.24-0.029,0.467-0.059,0.697-0.07c0.074-0.004,0.148-0.008,0.225-0.008    c0.434,0,0.779,0.078,1.057,0.234C24.97,5.273,25.089,5.31,25.2,5.31c0.141,0,0.264-0.059,0.348-0.167    c0.115-0.149,0.096-0.323,0.088-0.396l-0.082-0.683c-0.01-0.078-0.025-0.209-0.109-0.328c-0.121-0.173-0.314-0.222-0.381-0.235    c-0.113-0.029-0.234-0.043-0.369-0.043c-0.125,0-0.244,0.012-0.357,0.022c-0.102,0.009-0.201,0.021-0.305,0.021h-0.025    C23.897,3.5,23.769,3.46,23.634,3.419c-0.148-0.045-0.318-0.098-0.5-0.109C23.069,3.308,23.009,3.306,22.948,3.306L22.948,3.306z" stroke-width="1" fill="undefined"/>
	</g>
</g>
</svg>