<svg version="1.1" xmlns="http://www.w3.org/2000/svg" xmlns:xlink="http://www.w3.org/1999/xlink" width="33.5651" height="28.404" viewBox="0,0,33.5651,28.404"><g transform="translate(-222.86444,-167.323)"><g data-paper-data="{&quot;isPaintingLayer&quot;:true}" fill-rule="nonzero" stroke="none" stroke-linecap="butt" stroke-linejoin="miter" stroke-miterlimit="10" stroke-dasharray="" stroke-dashoffset="0" style="mix-blend-mode: normal"><path d="M250.877,168.226l-23.827,2.373l-0.027,0.981l-0.051,0.006c0.008,-0.002 0.017,-0.004 0.026,-0.004v0v0c0.008,0 0.015,-0.001 0.023,-0.001c-0.007,0 -0.014,0.001 -0.023,0.001c-0.001,0 -0.001,0 -0.001,0v0c-1.398,0.114 -2.594,2.156 -2.715,6.696h-0.002c0.119,2.233 0.236,4.462 0.356,6.694c-0.24,0.334 -0.446,0.723 -0.6,1.162c-0.567,1.619 -0.189,3.192 0.857,3.68c0.028,0.509 0.054,1.019 0.082,1.529c1.787,1.16 3.575,2.32 5.363,3.482l23.832,-2.371c0.451,-3.91 0.901,-7.822 1.35,-11.734c0.023,-0.857 0.004,-1.676 -0.05,-2.455c-0.038,-0.533 -0.093,-1.045 -0.161,-1.538v0c-0.05,-0.355 -0.11,-0.696 -0.174,-1.03c-0.008,-0.045 -0.016,-0.092 -0.025,-0.137c-0.067,-0.334 -0.141,-0.655 -0.221,-0.967c-0.004,-0.014 -0.007,-0.027 -0.012,-0.042c-0.201,-0.771 -0.438,-1.472 -0.706,-2.089c-0.288,-0.666 -0.608,-1.24 -0.948,-1.712l0.026,-0.985l-2.372,-1.539M227.048,172.59c0.007,-0.002 0.012,-0.004 0.019,-0.004c-0.007,0 -0.012,0.002 -0.019,0.004v0v0M226.75,172.662c0.024,-0.009 0.049,-0.017 0.074,-0.025v0c-0.025,0.008 -0.049,0.016 -0.074,0.025v0M226.573,172.741c-0.016,0.006 -0.032,0.01 -0.047,0.019c0.015,-0.009 0.031,-0.012 0.047,-0.019M224.784,187.787c-0.001,-0.031 -0.004,-0.062 -0.005,-0.096c0.002,0.034 0.004,0.065 0.005,0.096M250.877,167.323c0.176,0 0.346,0.05 0.49,0.144l2.37,1.539c0.265,0.172 0.42,0.467 0.412,0.781l-0.02,0.691c0.316,0.475 0.606,1.019 0.867,1.622c0.287,0.666 0.541,1.413 0.754,2.229c0,0.005 0.009,0.032 0.011,0.037c0.083,0.324 0.161,0.664 0.23,1.014l0.019,0.093l0.01,0.053c0.075,0.384 0.132,0.734 0.18,1.072c0,0.002 0,0.004 0.001,0.006c0.072,0.525 0.129,1.063 0.167,1.599c0.058,0.823 0.075,1.679 0.051,2.541c0,0.026 -0.001,0.054 -0.004,0.081l-0.696,6.044l-0.655,5.688c-0.048,0.422 -0.385,0.756 -0.808,0.797l-23.831,2.369c-0.029,0.002 -0.059,0.004 -0.089,0.004c-0.174,0 -0.346,-0.051 -0.492,-0.145l-3.513,-2.283l-1.851,-1.201c-0.242,-0.158 -0.394,-0.42 -0.41,-0.711l-0.055,-1.033l-0.001,-0.027c-1.117,-0.877 -1.474,-2.662 -0.831,-4.494c0.139,-0.398 0.317,-0.771 0.533,-1.115l-0.34,-6.392c-0.002,-0.044 -0.001,-0.088 0.003,-0.133c0.146,-5.093 1.558,-6.794 2.756,-7.314l0.009,-0.306c0.012,-0.456 0.361,-0.83 0.814,-0.875l23.83,-2.371c0.03,-0.002 0.06,-0.004 0.089,-0.004z" fill="#000000" stroke-width="1"/><g stroke-width="1"><g fill="#c4c4c4"><path d="M225.063,185.484l23.832,-2.371l0.271,5.114l-23.831,2.369z"/></g><g fill="#c4c4c4"><path d="M224.75,179.563l23.83,-2.371l0.315,5.921l-23.832,2.371z"/></g><g fill="#5b2a0e"><path d="M230.573,188.906l23.831,-2.369l-0.546,4.736l-23.832,2.372z"/></g><g fill="#c4c4c4"><path d="M225.335,190.596l23.831,-2.369l4.692,3.046l-23.832,2.372z"/></g><g fill="#5b2a0e"><path d="M231.167,183.732l23.831,-2.371l-0.594,5.176l-23.831,2.369z"/></g><g fill="#c4c4c4"><path d="M231.688,183.09l23.831,-2.369c-0.45,3.91 -0.9,7.824 -1.351,11.734l-23.831,2.369c0.451,-3.91 0.901,-7.822 1.351,-11.734z"/></g><g fill="#5d514c"><path d="M232.317,183.869l22.498,-2.236c-0.425,3.689 -0.724,6.346 -1.149,10.041l-22.499,2.234c0.426,-3.691 0.724,-6.346 1.15,-10.039z"/></g><path d="M231.894,187.557c3.192,-0.625 15.817,-1.553 22.51,-2.336c-0.222,1.934 -0.226,1.984 -0.461,4.041l-22.479,2.064c0.117,-1.021 0.315,-2.754 0.43,-3.769z" fill="#806f6a"/><path d="M238.341,193.402l-0.935,0.094c0.441,-3.832 0.751,-6.588 1.193,-10.42l0.934,-0.094c-0.434,3.762 -0.757,6.633 -1.192,10.42z" fill="#c4c4c4"/><path d="M247.421,192.363l-0.935,0.094c0.441,-3.832 0.752,-6.586 1.193,-10.418l0.934,-0.094c-0.431,3.762 -0.756,6.635 -1.192,10.418z" fill="#c4c4c4"/><g fill="#525251"><path d="M224.278,178.279l7.41,4.811c-0.451,3.912 -0.9,7.824 -1.351,11.734c-1.788,-1.162 -3.576,-2.322 -5.364,-3.482c-0.232,-4.356 -0.462,-8.709 -0.695,-13.063zM230.026,193.645l0.547,-4.736l0.594,-5.176l-6.417,-4.17l0.314,5.921l0.272,5.111l4.69,3.05"/></g><g fill="#514742"><path d="M231.167,183.732l-0.594,5.174l-0.547,4.739l-4.691,-3.049l-0.272,-5.112l-0.313,-5.921z"/></g><path d="M230.573,188.908l-0.227,1.963v0l-5.179,-3.43l-0.104,-1.957l-0.132,-2.494l5.836,4.227z" fill="#332d29"/><g fill="#b2b2b2"><path d="M224.278,178.279l23.832,-2.371l7.41,4.813l-23.832,2.369z"/></g><g fill="#362901"><path d="M225.465,178.458l22.42,-2.231l6.594,4.289l-22.42,2.23z"/></g><path d="M254.479,180.516l-7.17,0.714l0.193,-1.683l0.381,-3.32h0.002z" fill="#433306"/><g><g fill="#6d6d6c"><path d="M225.569,189.967c-0.181,0 -0.358,-0.029 -0.532,-0.09c-1.156,-0.406 -1.595,-2.049 -1.001,-3.744c0.594,-1.695 1.961,-2.705 3.121,-2.301c0.594,0.207 1.014,0.742 1.184,1.504c0.152,0.678 0.087,1.473 -0.183,2.242c-0.269,0.766 -0.714,1.43 -1.255,1.863c-0.432,0.348 -0.893,0.526 -1.334,0.526zM226.633,184.748c-0.53,0 -1.27,0.631 -1.65,1.717c-0.429,1.223 -0.139,2.279 0.387,2.465c0.344,0.119 0.714,-0.119 0.904,-0.271c0.39,-0.314 0.732,-0.83 0.937,-1.414v0c0.205,-0.584 0.26,-1.201 0.151,-1.689c-0.053,-0.236 -0.194,-0.654 -0.537,-0.775c-0.06,-0.023 -0.124,-0.033 -0.192,-0.033z"/></g><g fill="#525251"><path d="M226.475,185.102c-0.082,-0.166 -0.086,-0.363 -0.054,-0.545c0.044,-0.246 0.162,-0.488 0.37,-0.625c0.068,-0.043 0.143,-0.076 0.22,-0.098c0.271,-0.078 0.579,-0.037 0.809,0.129c0.23,0.164 0.357,0.506 0.317,0.785c-0.309,-0.121 -0.525,-0.033 -0.714,0.154c-0.095,0.094 -0.167,0.232 -0.071,0.609c-0.546,-0.027 -0.79,-0.232 -0.877,-0.409z"/></g></g><g><g fill="#c4c4c4"><path d="M227.075,172.584l23.831,-2.371c-1.11,0.111 -2.104,1.586 -2.341,5.012l-23.831,2.369c0.238,-3.424 1.231,-4.899 2.341,-5.01z"/></g><g fill="#5b2a0e"><path d="M250.906,170.213c0.366,-0.037 0.745,0.076 1.116,0.316l-23.832,2.371c-0.369,-0.239 -0.748,-0.352 -1.114,-0.316c7.149,-0.71 16.681,-1.66 23.83,-2.371z"/></g><g fill="#c4c4c4"><path d="M224.734,177.594l23.831,-2.369l6.552,4.254l-23.83,2.371z"/></g><g fill="#5b2a0e"><path d="M254.245,173.95c0.545,1.589 0.845,3.482 0.872,5.529c-3.973,0.396 -7.944,0.791 -11.916,1.186c-1.935,0.191 -3.87,0.385 -5.803,0.578c-1.11,0.109 -2.219,0.218 -3.33,0.33l-2.783,0.277c-0.028,-2.047 -0.327,-3.941 -0.872,-5.529c7.945,-0.79 15.888,-1.58 23.832,-2.371c-7.944,0.789 -15.887,1.58 -23.831,2.369c-0.563,-1.64 -1.353,-2.854 -2.224,-3.419l23.832,-2.371c0.871,0.566 1.66,1.781 2.223,3.421z"/></g><g fill="#4d433f"><path d="M229.418,172.135l23.831,-2.37l-0.026,0.985l-23.831,2.369z"/></g><g fill="#4d433f"><path d="M226.97,171.583l23.831,-2.369c0.016,-0.002 0.033,-0.004 0.051,-0.005c0.391,-0.024 0.795,0.099 1.196,0.358c0.401,0.262 0.8,0.659 1.175,1.183l-23.831,2.369c-0.375,-0.522 -0.773,-0.92 -1.176,-1.18c-0.401,-0.262 -0.805,-0.386 -1.195,-0.359c-0.018,0.001 -0.034,0.001 -0.051,0.003z"/></g><g fill="#332c28"><path d="M229.418,172.135l-0.026,0.983c-0.375,-0.522 -0.774,-0.92 -1.176,-1.18c-0.401,-0.261 -0.806,-0.385 -1.196,-0.358l0.027,-0.984z"/></g><g fill="#665954"><path d="M227.047,170.595l23.832,-2.369l2.37,1.539l-23.831,2.37z"/></g><g fill="#525251"><path d="M229.392,173.119c1.356,1.89 2.418,5.403 2.297,9.971l-7.408,-4.811c0.121,-4.567 1.331,-6.608 2.739,-6.7c0.39,-0.025 0.795,0.098 1.197,0.359c0.401,0.261 0.799,0.658 1.175,1.181zM228.19,172.9c-1.488,-0.967 -3.139,0.142 -3.456,4.694l6.553,4.255c-0.029,-2.047 -0.327,-3.941 -0.872,-5.529c-0.564,-1.641 -1.354,-2.855 -2.225,-3.42"/></g><g fill="#514742"><path d="M228.19,172.9c0.871,0.565 1.661,1.779 2.225,3.421c0.545,1.589 0.844,3.481 0.872,5.529l-6.553,-4.253c0.316,-4.555 1.968,-5.664 3.456,-4.697z"/></g><path d="M226.228,172.976l3.312,1.434c0.327,0.541 0.625,1.181 0.875,1.91c0.297,0.867 0.518,1.825 0.664,2.847l-6.159,-3.155c0.268,-1.566 0.743,-2.541 1.308,-3.036z" fill="#332d29"/><g fill="#733617"><path d="M229.392,173.119l23.831,-2.369c1.355,1.887 2.418,5.401 2.297,9.97l-23.832,2.37c0.121,-4.567 -0.939,-8.082 -2.296,-9.971z"/></g><g fill="#5d514c"><path d="M229.392,173.119l23.831,-2.369c1.355,1.887 2.418,5.401 2.297,9.97l-23.832,2.37c0.121,-4.567 -0.939,-8.082 -2.296,-9.971z"/></g><path d="M255.308,176.726l-23.62,2.146l-0.303,-0.367c-0.224,-1.318 -0.556,-2.475 -0.955,-3.451l23.858,-2.304c0.446,1.106 0.806,2.442 1.02,3.976z" fill="#806f6a"/><path d="M238.666,182.406c0.121,-4.568 -0.941,-8.082 -2.297,-9.97l0.945,-0.093c1.353,1.899 2.411,5.411 2.301,9.969z" fill="#c4c4c4"/><path d="M247.664,181.508c0.121,-4.57 -0.94,-8.084 -2.297,-9.972l0.945,-0.094c1.353,1.901 2.411,5.413 2.301,9.97z" fill="#c4c4c4"/><g fill="#c4c4c4"><path d="M252.876,171.49l-22.297,2.218c1.152,2.154 1.81,5.241 1.822,8.605l22.425,-2.23c0.008,-3.492 -0.705,-6.633 -1.95,-8.593M253.223,170.75c1.355,1.886 2.418,5.401 2.297,9.971l-23.831,2.369c0.121,-4.568 -0.941,-8.081 -2.297,-9.971l23.831,-2.369z"/></g></g><g><path d="M242.787,185.717v-3.137h1.62v3.137z" fill="#333332"/><g><g><path d="M242.487,185.438l1.381,-0.137c-0.043,-0.4 -0.088,-0.801 -0.127,-1.201c0.068,-0.045 0.211,-0.138 0.334,-0.318c0.409,-0.592 0.028,-1.252 -0.646,-1.121c-0.718,0.139 -1.167,1.106 -0.522,1.502c-0.144,0.423 -0.281,0.849 -0.42,1.275M246.002,181.682c-0.461,1.744 -0.921,3.488 -1.382,5.23c-0.393,0.041 -0.92,0.094 -1.315,0.131l-1.473,0.473l-0.445,-0.281c-0.065,-1.691 -0.131,-3.383 -0.195,-5.074l2.104,-0.209l0.602,-0.061c0.631,-0.063 1.473,-0.145 2.104,-0.209" fill="#c4821b"/><path d="M246.001,181.68c-1.465,0.147 -2.896,0.614 -4.363,0.76l-0.445,-0.279c0.227,-1.366 1.278,-2.382 2.676,-2.587c0.397,-0.041 0.873,0.03 1.273,0.26v0l0.006,0.005c0.008,0.003 0.014,0.007 0.02,0.011l0.408,0.258l-0.021,0.062c0.299,0.334 0.491,0.824 0.446,1.51z" fill="#fff6b6"/></g><g><path d="M242.933,185.717l1.381,-0.137c-0.044,-0.4 -0.088,-0.801 -0.127,-1.203c0.068,-0.043 0.211,-0.136 0.334,-0.314c0.409,-0.594 0.028,-1.254 -0.646,-1.123c-0.718,0.139 -1.167,1.106 -0.522,1.502c-0.142,0.423 -0.281,0.849 -0.42,1.275M246.447,181.963c-0.461,1.742 -0.92,3.486 -1.383,5.23c-0.392,0.039 -0.919,0.092 -1.314,0.131l-0.602,0.061l-1.316,0.131c-0.064,-1.691 -0.13,-3.383 -0.195,-5.074l2.104,-0.209l0.602,-0.061c0.631,-0.063 1.473,-0.147 2.104,-0.209" fill="#ffdb10"/><path d="M244.312,179.853c0.918,-0.091 2.245,0.397 2.135,2.108c-1.604,0.16 -3.206,0.318 -4.809,0.48c0.226,-1.364 1.276,-2.382 2.674,-2.588" fill="#ffe42b"/></g></g></g></g><path d="M240.70949,175.525c0,-1.38071 1.11929,-2.5 2.5,-2.5c1.38071,0 2.5,1.11929 2.5,2.5c0,1.38071 -1.11929,2.5 -2.5,2.5c-1.38071,0 -2.5,-1.11929 -2.5,-2.5z" fill="#c58021" stroke-width="0.5"/><path d="M248.58449,185.15c0,-1.38071 1.11929,-2.5 2.5,-2.5c1.38071,0 2.5,1.11929 2.5,2.5c0,1.38071 -1.11929,2.5 -2.5,2.5c-1.38071,0 -2.5,-1.11929 -2.5,-2.5z" fill="#c58021" stroke-width="0.5"/><path d="M232.83449,186.275c0,-1.38071 1.11929,-2.5 2.5,-2.5c1.38071,0 2.5,1.11929 2.5,2.5c0,1.38071 -1.11929,2.5 -2.5,2.5c-1.38071,0 -2.5,-1.11929 -2.5,-2.5z" fill="#c58021" stroke-width="0.5"/></g></g></svg>