<?xml version="1.0" encoding="utf-8"?><!-- Generator: Adobe Illustrator 16.0.0, SVG Export Plug-In . SVG Version: 6.00 Build 0)  --><!DOCTYPE svg PUBLIC "-//W3C//DTD SVG 1.1//EN" "http://www.w3.org/Graphics/SVG/1.1/DTD/svg11.dtd"><svg xmlns="http://www.w3.org/2000/svg" xmlns:xlink="http://www.w3.org/1999/xlink" version="1.1" id="Calque_1" x="0px" y="0px" width="33.240867614746094" height="54.78499984741211" viewBox="1.6523096561431885 2.2760000228881836 33.240867614746094 54.78499984741211" enable-background="new 0 0 36 59.666" xml:space="preserve">
<g id="garçon">
	<g>
		<g>
			<g>
				<g>
					<path fill="#8D5E1B" d="M32.914,16.736c-0.15,0-0.298-0.069-0.387-0.198c-0.144-0.212-0.101-0.492,0.111-0.637       c0.004-0.002,0.03-0.021,0.034-0.023c0.078-0.05,0.166-0.073,0.252-0.073c0.15,0,0.3,0.073,0.39,0.21       c0.141,0.213,0.082,0.5-0.131,0.643C33.102,16.71,33.008,16.736,32.914,16.736z" stroke-width="1"/>
				</g>
				<g>
					<path d="M32.926,16.269h0.002 M32.926,16.269c-0.004,0.004-0.01,0.007-0.014,0.011C32.916,16.274,32.922,16.272,32.926,16.269        M32.912,16.277c-0.004,0.003-0.008,0.005-0.012,0.007C32.904,16.282,32.908,16.28,32.912,16.277 M32.924,15.339       c-0.088,0-0.176,0.012-0.262,0.037c-0.096,0.028-0.186,0.071-0.266,0.127l0,0c-0.006,0.004-0.015,0.01-0.019,0.012       c-0.422,0.287-0.532,0.861-0.25,1.285c0.181,0.27,0.476,0.414,0.774,0.414c0.175,0,0.353-0.049,0.509-0.152       c0.004-0.002,0.006-0.004,0.01-0.007c0.261-0.164,0.437-0.455,0.437-0.786c0-0.508-0.404-0.918-0.907-0.93       C32.941,15.339,32.934,15.339,32.924,15.339L32.924,15.339z" stroke-width="1" fill="undefined"/>
				</g>
			</g>
			<g>
				<g>
					<path fill="#8D5E1B" d="M19.715,56.094c-0.188,0-0.379-0.011-0.564-0.026c-0.842-0.07-1.677-0.229-2.481-0.379l0.033-0.467       l-0.085,0.457c-0.418-0.076-0.938-0.174-1.346-0.479c-0.134-0.104-0.226-0.215-0.278-0.348       c-0.058-0.142-0.059-0.272-0.059-0.354c0-0.432,0.029-0.865,0.085-1.292c0.024-0.171,0.039-0.341,0.055-0.51       c0.017-0.165,0.031-0.33,0.052-0.497c0.021-0.17,0.075-0.292,0.143-0.381c0.005-0.029,0.007-0.06,0.007-0.082       c-0.007-0.111-0.009-0.172-0.004-0.232c0.002-0.021,0.011-0.082,0.015-0.104c0.025-0.127,0.088-0.239,0.176-0.326       c0.066-0.461,0.112-0.881,0.141-1.28c0.016-0.216,0.031-0.42,0.015-0.569c-0.01-0.094-0.034-0.197-0.067-0.314       c-0.153-0.041-0.277-0.16-0.324-0.318c-0.104-0.352-0.236-0.727-0.404-1.142c-0.027-0.011-0.054-0.019-0.081-0.024       c-0.396-0.125-0.718-0.299-0.985-0.529c-0.01-0.008-0.019-0.016-0.027-0.023c-0.096-0.086-0.176-0.169-0.251-0.261       c-0.043-0.056-0.08-0.108-0.117-0.164c-0.179-0.271-0.304-0.562-0.394-0.901c-0.096-0.37-0.138-0.751-0.17-1.078       c-0.012-0.104-0.021-0.213-0.028-0.32c-0.124,0.002-0.248,0.002-0.372,0.002c-0.2,0-0.401,0-0.602-0.004       c-0.097,0.113-0.227,0.199-0.385,0.252c-0.092,0.031-0.191,0.048-0.295,0.048c-0.193,0-0.379-0.058-0.527-0.157       c-0.002,0.02-0.016,0.123-0.016,0.123c-0.031,0.262-0.081,0.697-0.447,0.912c-0.154,0.09-0.328,0.137-0.506,0.137       c-0.238,0-0.47-0.085-0.652-0.238c-0.071-0.061-0.127-0.125-0.172-0.195C8.75,45.049,8.7,45.071,8.649,45.087       c-0.099,0.03-0.198,0.046-0.3,0.046c-0.315,0-0.616-0.151-0.807-0.405c-0.061-0.08-0.103-0.164-0.131-0.248       c-0.033,0.006-0.068,0.013-0.104,0.015c-0.01,0.002-0.057,0.003-0.067,0.003c-0.401,0-0.766-0.239-0.925-0.607       c-0.221-0.498,0.105-0.97,0.302-1.25c0.03-0.043,0.058-0.084,0.082-0.121c0.134-0.209,0.284-0.429,0.47-0.679       c-0.062-0.319-0.096-0.635-0.117-0.887c-0.176-2-0.248-3.927,0.771-5.489c0.081-0.124,0.167-0.244,0.255-0.363       c0.135-0.184,0.26-0.355,0.354-0.537c0.301-0.578,0.297-1.277,0.293-2.019c-0.004-0.524-0.006-1.065,0.099-1.604       c0.29-1.479,1.515-2.757,3.048-3.184c0.276-0.076,0.707-0.154,1.184-0.216c-0.497-0.667-0.766-1.487-0.998-2.284       c-0.043-0.146-0.083-0.291-0.124-0.438c-0.281,0.114-0.587,0.175-0.903,0.175c-0.543,0-1.098-0.177-1.562-0.492       c-0.498-0.34-0.836-0.752-1.096-1.336c-0.293-0.662-0.357-1.367-0.186-2.008c-0.071-0.117-0.139-0.244-0.205-0.384       c-0.176,0.002-0.344,0.003-0.51,0.003c-1.661,0-2.863-0.099-3.573-0.293c-0.008-0.001-0.054-0.015-0.067-0.019       c-0.091-0.027-0.168-0.054-0.236-0.082C3.59,20.381,3.51,20.348,3.51,20.348l-0.072-0.027       c-0.077-0.032-0.178-0.088-0.245-0.136c-0.115-0.08-0.351-0.245-0.491-0.579c-0.189-0.449-0.05-0.955,0.376-1.35       c0,0,3.692-3.354,3.696-3.355c0.066-0.059,0.136-0.114,0.213-0.173c0.002-0.991,0.025-1.648,0.031-1.689       c0.025-0.39,0.062-0.941,0.224-1.678c0.091-0.404,0.164-0.628,0.275-0.963c0.063-0.189,0.157-0.409,0.25-0.618       c0.182-0.418,0.5-0.942,0.702-1.213c0.274-0.366,0.56-0.748,1.227-1.335c0.104-0.091,0.666-0.573,1.602-1.157       c0.312-0.194,0.959-0.574,1.793-0.934c0.324-0.139,0.662-0.268,1.004-0.383c0.033-0.187,0.115-0.414,0.303-0.648       c0.208-0.259,0.52-0.448,0.927-0.566c0.574-0.166,1.532-0.297,2.183-0.298c0.004,0,0.01,0,0.015,0       c0.306,0,0.825,0.006,1.269,0.381c0.162,0.136,0.289,0.305,0.375,0.491c0.129,0.009,0.26,0.021,0.39,0.032       c0.059-0.024,0.123-0.039,0.187-0.039c0.056,0,0.112,0.012,0.167,0.031l0.188,0.073c1.06,0.152,2.101,0.428,3.098,0.822       c0.269,0.105,1.088,0.429,1.814,0.938c0.406,0.283,0.645,0.491,0.822,0.656c0.363,0.333,0.65,0.683,0.704,0.749       c0.125,0.157,0.296,0.376,0.407,0.552c0.168,0.26,0.341,0.525,0.51,0.867c0.279,0.563,0.5,1.082,0.738,1.918l0.201,0.725       c0.045,0.164,0.1,0.371,0.146,0.552c0.091,0.035,0.175,0.073,0.255,0.115c0.004,0.001,4.404,2.321,4.404,2.321       c0.199,0.117,0.236,0.143,0.311,0.208c0.137,0.122,0.195,0.206,0.252,0.296c0.1,0.156,0.189,0.426,0.147,0.712       c-0.048,0.319-0.188,0.52-0.321,0.673c-0.098,0.113-0.223,0.221-0.395,0.336c-0.006,0.005-0.103,0.068-0.107,0.071       c-0.011,0.007-0.061,0.036-0.062,0.039v-0.001c-0.055,0.033-0.11,0.066-0.176,0.102c-0.572,0.302-1.486,0.626-2.717,0.962       c0.004,0.023,0.008,0.049,0.012,0.071c0.029,0.197-0.068,0.393-0.246,0.483c-0.067,0.034-0.141,0.052-0.215,0.052       c-0.117,0-0.234-0.045-0.322-0.132c-0.047-0.044-0.098-0.085-0.153-0.121c-0.039,0.878-0.175,1.792-0.397,2.673       c-0.06,0.228-0.123,0.453-0.188,0.681c-0.188,0.665-0.366,1.293-0.381,1.932c-0.024,1.311-0.106,2.818-0.766,4.115       c-0.613,1.206-1.609,2.166-2.49,3.013c-0.141,0.137-0.287,0.252-0.442,0.352c0.03,0.175,0.045,0.343,0.058,0.496       c0.073,0.978,0.098,2.004,0.073,3.056c0.646,1.469,0.993,3.078,1.328,4.635c0.097,0.449,0.19,0.874,0.289,1.29       c0.209,0.118,0.383,0.26,0.517,0.421c0.004,0.007,0.028,0.037,0.032,0.044c0.134,0.145,0.281,0.311,0.397,0.508       c0.248,0.332,0.441,0.606,0.607,0.864c0.023,0.039,0.053,0.08,0.082,0.125c0.194,0.279,0.52,0.748,0.299,1.25       c-0.158,0.366-0.521,0.604-0.922,0.604c-0.012,0-0.059-0.002-0.068-0.004c-0.034-0.002-0.069-0.006-0.104-0.014       c-0.029,0.086-0.07,0.17-0.131,0.25c-0.189,0.254-0.49,0.404-0.807,0.404c-0.103,0-0.201-0.018-0.299-0.045       c-0.054-0.018-0.103-0.038-0.146-0.062c-0.046,0.069-0.103,0.135-0.173,0.195c-0.182,0.154-0.413,0.24-0.651,0.24       c-0.178,0-0.354-0.051-0.508-0.141c-0.363-0.211-0.416-0.646-0.444-0.907c0,0-0.017-0.108-0.019-0.128       c-0.147,0.104-0.333,0.158-0.527,0.158c-0.103,0-0.202-0.017-0.297-0.047c-0.045-0.016-0.086-0.033-0.125-0.052       c-0.011,0.19-0.026,0.368-0.049,0.532c-0.045,0.352-0.111,0.656-0.203,0.938c0,0.002,0.021,0.031,0.03,0.045       c0.148,0.209,0.482,0.679,0.597,0.812c0.058,0.044,0.104,0.102,0.14,0.171c0.094,0.197,0.037,0.427-0.125,0.56       c0.375,0.556,0.782,1.172,1.186,1.823c0.102,0.019,0.221,0.064,0.336,0.175c0.01-0.002,0.021-0.002,0.031-0.002       c0.191,0,0.369,0.071,0.514,0.207c0.062,0.061,0.118,0.123,0.168,0.186c0.166,0.02,0.314,0.104,0.418,0.23       c0.104,0.006,0.199,0.036,0.285,0.088l0.036-0.03c0.272-0.22,0.593-0.386,0.927-0.482c0.209-0.062,0.42-0.093,0.625-0.093       c0.344,0,0.66,0.09,0.918,0.26c0.207,0.139,0.346,0.326,0.398,0.529c0.021,0.036,0.039,0.077,0.051,0.12       c0.042,0.151,0.016,0.315-0.074,0.467c-0.414,0.685-0.969,1.248-1.506,1.792c-0.141,0.143-0.279,0.284-0.416,0.427       c-0.15,0.156-0.318,0.334-0.512,0.493c-0.146,0.122-0.295,0.198-0.424,0.268c-0.047,0.024-0.097,0.051-0.146,0.078       c-0.396,0.229-0.845,0.368-1.299,0.401c-0.011,0-0.021,0.001-0.033,0.001c-0.047,0-0.094-0.007-0.138-0.021       c-0.01,0-0.03,0-0.03,0c-0.17,0-0.31-0.033-0.427-0.102c-0.137-0.078-0.219-0.186-0.268-0.246       c-0.266-0.343-0.508-0.703-0.721-1.072c-0.086-0.146-0.177-0.289-0.266-0.432c-0.09-0.145-0.18-0.283-0.266-0.432       c-0.085-0.141-0.117-0.266-0.119-0.375c-0.021-0.035-0.039-0.068-0.06-0.103c-0.058-0.085-0.104-0.157-0.138-0.229       c-0.043-0.088-0.065-0.176-0.073-0.262c-0.455-0.76-0.945-1.498-1.422-2.197c-0.005,0-0.017,0-0.019,0       c-0.131,0-0.256-0.055-0.344-0.15c-0.232-0.255-0.439-0.52-0.65-0.802c-0.137,0.018-0.28,0.03-0.432,0.044       c-0.238,0.018-0.486,0.029-0.75,0.036c0.082,0.22-0.012,0.466-0.219,0.573c-0.062,0.033-0.125,0.063-0.186,0.093       c0.04,0.168,0.074,0.347,0.093,0.532c0.041,0.396,0.015,0.75-0.008,1.062c-0.024,0.348-0.062,0.709-0.115,1.12       c0.046,0.06,0.087,0.139,0.107,0.239c0.003,0.003,0.005,0.006,0.008,0.009c0.285,0.228,0.323,0.562,0.323,0.815       c0.068,0.073,0.119,0.164,0.146,0.268c0.01,0.029,0.016,0.062,0.018,0.096c0.17,0.071,0.305,0.215,0.361,0.396       c0.1,0.061,0.186,0.135,0.252,0.219c0.189,0.068,0.381,0.133,0.574,0.193l0.233,0.078c0.354,0.119,0.615,0.285,0.796,0.508       c0.141,0.179,0.235,0.393,0.291,0.656c0.073,0.354,0.032,0.652-0.117,0.895c-0.152,0.248-0.42,0.421-0.787,0.512       C20.282,56.065,20.016,56.094,19.715,56.094z M23.141,40.794c0.074-0.088,0.158-0.169,0.254-0.242       c-0.062-0.273-0.283-1.302-0.338-1.543l-0.01,1.348L23.141,40.794z" stroke-width="1"/>
				</g>
				<g>
					<path d="M17.547,3.707c0.262,0,0.635,0.013,0.941,0.271c0.239,0.201,0.307,0.444,0.327,0.581       c0.303,0.015,0.686,0.043,1.131,0.104c-0.068-0.029-0.137-0.062-0.209-0.09c0.08,0.03,0.158,0.062,0.238,0.094       c0.836,0.116,1.889,0.346,3.043,0.803c0.258,0.104,1.041,0.41,1.719,0.885c0.385,0.271,0.606,0.464,0.775,0.618       c0.37,0.341,0.655,0.698,0.659,0.701c0.063,0.08,0.259,0.324,0.377,0.509c0.16,0.248,0.324,0.504,0.481,0.822       c0.269,0.541,0.479,1.037,0.709,1.841c0.037,0.124,0.072,0.249,0.105,0.374c0.031,0.115,0.062,0.229,0.094,0.344       c0.066,0.244,0.154,0.587,0.205,0.781c0.144,0.048,0.287,0.104,0.433,0.178c-0.023-0.012-0.054-0.021-0.082-0.032       c0.028,0.012,0.062,0.021,0.083,0.034c1.468,0.771,2.933,1.545,4.398,2.316c-0.027-0.014-0.063-0.025-0.096-0.04       c-0.004-0.001-0.006-0.003-0.01-0.003c0.002,0,0.006,0.002,0.01,0.003c0.033,0.016,0.07,0.028,0.1,0.042       c0.131,0.078,0.158,0.094,0.213,0.144c0.101,0.089,0.129,0.137,0.168,0.196c0.056,0.09,0.103,0.246,0.08,0.396       c-0.028,0.188-0.104,0.312-0.215,0.438c-0.084,0.098-0.199,0.187-0.303,0.255c0.012-0.007,0.018-0.014,0.025-0.021       c0-0.001,0-0.001,0-0.001s0,0,0,0.001c-0.025,0.019-0.053,0.038-0.084,0.058c0.01-0.006,0.02-0.012,0.029-0.018       c-0.021,0.014-0.043,0.029-0.062,0.041c-0.011,0.005-0.021,0.01-0.029,0.017c-0.016,0.011-0.032,0.021-0.047,0.028       c0.011-0.006,0.019-0.012,0.027-0.018h0.002c0,0,0,0-0.002,0c-0.052,0.03-0.104,0.062-0.166,0.096       c-0.617,0.326-1.669,0.678-3.021,1.031c0.026,0.16,0.051,0.321,0.075,0.481c-0.17-0.164-0.366-0.274-0.58-0.354       c-0.114,0.028-0.231,0.058-0.353,0.087c-0.004,1.024-0.149,2.067-0.396,3.037c-0.229,0.9-0.562,1.789-0.579,2.719       c-0.025,1.317-0.109,2.719-0.716,3.914c-0.571,1.125-1.498,2.021-2.397,2.887c-0.215,0.207-0.435,0.352-0.659,0.451       c0.087,0.242,0.114,0.507,0.134,0.766c0.076,1.035,0.096,2.076,0.07,3.114c0.002,0.005,0.004,0.009,0.006,0.013       c0.65,1.44,0.998,3.062,1.336,4.633c0.111,0.521,0.223,1.02,0.34,1.506c0.225,0.098,0.42,0.229,0.561,0.396       c0.013,0.016,0.023,0.031,0.037,0.047c0.131,0.146,0.269,0.297,0.363,0.467c0.211,0.278,0.416,0.562,0.604,0.856       c0.16,0.253,0.488,0.62,0.351,0.938c-0.084,0.195-0.278,0.326-0.498,0.326c-0.012,0-0.022,0-0.035-0.002       c-0.219-0.015-0.381-0.315-0.493-0.478c-0.166-0.243-0.328-0.504-0.5-0.752c-0.017-0.022-0.033-0.045-0.05-0.067       c0.101,0.239,0.195,0.48,0.281,0.726c0.099,0.282,0.332,0.717,0.123,0.991c-0.104,0.14-0.265,0.22-0.435,0.22       c-0.053,0-0.106-0.009-0.16-0.024c-0.209-0.064-0.299-0.396-0.368-0.576c-0.104-0.274-0.203-0.564-0.314-0.847       c-0.03-0.081-0.065-0.159-0.102-0.237c0.055,0.295,0.1,0.592,0.131,0.889c0.03,0.298,0.161,0.771-0.103,0.994       c-0.102,0.086-0.227,0.131-0.352,0.131c-0.095,0-0.188-0.024-0.271-0.073c-0.188-0.111-0.203-0.452-0.229-0.646       c-0.043-0.293-0.071-0.599-0.117-0.896c-0.034-0.228-0.082-0.449-0.122-0.673c-0.005-0.001-0.011-0.002-0.015-0.002       c-0.16,0-0.25,0.764-0.279,0.863c-0.03,0.106-0.065,0.207-0.146,0.289c-0.077,0.08-0.198,0.121-0.315,0.121       c-0.053,0-0.104-0.009-0.149-0.022c-0.301-0.101-0.275-0.357-0.254-0.611c0.024-0.276,0.033-0.557,0.088-0.83       c0.041-0.202,0.043-0.461,0.138-0.659c0.089-0.386,0.343-0.656,0.673-0.828c-0.086-0.379-0.168-0.761-0.248-1.133       c-0.119-0.554-0.244-1.111-0.379-1.662c-0.139,0.067-0.283,0.123-0.434,0.164c-0.084,0.022-0.174,0.035-0.26,0.058       c-0.007,0.735-0.011,1.474-0.017,2.211c0.146,0.678,0.289,1.354,0.435,2.032c0.034,0.164,0.062,0.359-0.056,0.479       c-0.045,0.047-0.104,0.074-0.166,0.099c-0.076,0.026-0.155,0.043-0.233,0.062c0,0.051,0,0.101,0,0.149       c-0.002,0.146-0.004,0.293-0.008,0.441c-0.009,0.298-0.027,0.6-0.064,0.893c-0.037,0.295-0.094,0.582-0.182,0.854       c-0.024,0.073-0.058,0.141-0.086,0.212c0.116,0.155,0.814,1.158,0.87,1.158l0,0c-0.129,0.062-0.258,0.123-0.385,0.185       c0.553,0.81,1.104,1.639,1.629,2.5c0.049-0.027,0.093-0.045,0.133-0.045c0.052,0,0.097,0.024,0.144,0.077       c0.046,0.054,0.093,0.104,0.141,0.155c0.062-0.03,0.127-0.051,0.189-0.051c0.065,0,0.133,0.021,0.192,0.078       c0.111,0.104,0.192,0.231,0.285,0.353c0.024-0.013,0.049-0.028,0.073-0.035c0.02-0.007,0.035-0.01,0.054-0.01       c0.07,0,0.138,0.047,0.162,0.116c0.021,0.06,0.002,0.119-0.035,0.164c0.029,0.019,0.062,0.035,0.093,0.052       c0.061-0.038,0.121-0.069,0.18-0.089c0.02-0.008,0.037-0.01,0.055-0.01c0.07,0,0.137,0.047,0.161,0.116       c0.005,0.015,0.005,0.026,0.005,0.039c0.062-0.015,0.143-0.034,0.211-0.034c0.021,0,0.045,0.002,0.062,0.008       c0.074-0.053,0.143-0.113,0.213-0.174c0.227-0.181,0.488-0.315,0.768-0.397c0.158-0.047,0.328-0.073,0.494-0.073       c0.234,0,0.465,0.055,0.659,0.184c0.118,0.078,0.228,0.203,0.213,0.345c0,0.004-0.002,0.006-0.002,0.01c0,0,0,0,0.001,0       c0.004,0,0.008-0.001,0.012-0.001s0.008,0.001,0.012,0.003c0.045,0.024,0.023,0.092-0.002,0.136       c-0.488,0.809-1.211,1.455-1.858,2.137c-0.15,0.156-0.302,0.315-0.47,0.455c-0.162,0.134-0.336,0.199-0.508,0.303       c-0.334,0.193-0.713,0.312-1.099,0.34c0.011-0.016,0.021-0.03,0.032-0.046c-0.066,0.012-0.135,0.024-0.201,0.024       c-0.002,0-0.005,0-0.008,0c-0.064,0-0.131-0.009-0.187-0.039c-0.053-0.03-0.092-0.08-0.131-0.129       c-0.25-0.324-0.479-0.666-0.687-1.021c-0.172-0.297-0.358-0.569-0.532-0.864c-0.038-0.064-0.076-0.146-0.038-0.213       c0-0.002,0.003-0.002,0.003-0.004c-0.049-0.094-0.095-0.188-0.151-0.277c-0.031-0.047-0.078-0.109-0.107-0.176       c-0.023-0.051-0.038-0.102-0.027-0.146c0.002-0.01,0.01-0.016,0.012-0.022c-0.543-0.917-1.139-1.804-1.762-2.715       c-0.052,0.053-0.107,0.101-0.156,0.155c-0.283-0.312-0.537-0.648-0.787-0.987c-0.225,0.038-0.449,0.063-0.674,0.08       c-0.416,0.03-0.83,0.043-1.246,0.043c-0.055,0-0.109,0-0.163,0c0.087,0.207,0.176,0.413,0.258,0.622       c-0.168,0.09-0.345,0.162-0.522,0.232c0.082,0.271,0.154,0.547,0.187,0.851c0.036,0.354,0.012,0.688-0.009,0.983       c-0.035,0.483-0.092,0.957-0.156,1.416c0.016,0,0.031-0.002,0.046-0.005c0.009,0,0.019-0.002,0.028-0.002       c0.017,0,0.033,0.003,0.046,0.013c0.03,0.019,0.036,0.06,0.041,0.095c0.006,0.062,0.008,0.123,0.013,0.184       c0.059,0.013,0.114,0.029,0.155,0.062c0.196,0.154,0.146,0.463,0.146,0.715l0,0c0.074,0,0.146,0.047,0.166,0.124       c0.021,0.087-0.029,0.176-0.115,0.202c0.031,0.093,0.078,0.178,0.137,0.25c0.053-0.017,0.104-0.038,0.156-0.055       c0.016-0.003,0.029-0.005,0.043-0.005c0.076,0,0.146,0.054,0.164,0.128c0.016,0.059-0.002,0.111-0.039,0.152       c0.066,0.023,0.135,0.047,0.199,0.078c0.096,0.047,0.188,0.123,0.225,0.221c0.281,0.11,0.572,0.201,0.863,0.298       c0.035,0.013,0.071,0.023,0.107,0.036c0.219,0.072,0.438,0.18,0.581,0.359c0.106,0.132,0.165,0.295,0.2,0.461       c0.037,0.186,0.043,0.391-0.058,0.551c-0.106,0.172-0.31,0.258-0.506,0.307c-0.229,0.059-0.465,0.076-0.701,0.076       c-0.176,0-0.352-0.011-0.524-0.023c-0.821-0.07-1.631-0.223-2.439-0.371c-0.397-0.074-0.867-0.154-1.199-0.405       c-0.053-0.04-0.103-0.089-0.127-0.151c-0.023-0.057-0.024-0.117-0.024-0.181c0-0.409,0.026-0.819,0.082-1.226       c0.046-0.342,0.063-0.674,0.106-1.012c0.01-0.074,0.029-0.164,0.101-0.191c0.002,0,0.006,0,0.009,0       c0.023-0.113,0.046-0.229,0.044-0.342c-0.001-0.062-0.01-0.121-0.005-0.184c0.001-0.014,0.003-0.025,0.005-0.039       c0.019-0.092,0.077-0.131,0.149-0.146c0.076-0.495,0.139-1.011,0.177-1.53c0.017-0.236,0.032-0.461,0.013-0.65       c-0.021-0.205-0.09-0.434-0.171-0.688c-0.003-0.01-0.006-0.02-0.009-0.027c-0.01,0-0.02,0-0.029,0       c-0.044,0-0.088,0.002-0.132,0.002c-0.022,0-0.044,0-0.065-0.002c-0.142-0.479-0.316-0.943-0.51-1.404       c-0.096-0.021-0.191-0.047-0.283-0.074c-0.303-0.096-0.584-0.232-0.82-0.438c-0.002-0.003-0.004-0.005-0.008-0.007       c-0.076-0.066-0.147-0.141-0.213-0.221c-0.037-0.047-0.068-0.096-0.101-0.143c-0.149-0.227-0.251-0.479-0.321-0.748       c-0.084-0.326-0.125-0.672-0.158-1.008c-0.024-0.248-0.039-0.496-0.061-0.744c-0.268,0.006-0.536,0.008-0.803,0.008       c-0.292,0-0.586-0.004-0.877-0.01c-0.023,0.123-0.09,0.228-0.254,0.279c-0.047,0.016-0.098,0.021-0.149,0.021       c-0.118,0-0.239-0.039-0.317-0.119c-0.059-0.062-0.09-0.135-0.117-0.213c-0.157-0.006-0.316-0.012-0.476-0.02       c-0.028,0.217-0.053,0.436-0.085,0.646c-0.027,0.193-0.039,0.535-0.229,0.646c-0.086,0.05-0.178,0.073-0.271,0.073       c-0.126,0-0.252-0.045-0.352-0.13c-0.264-0.224-0.135-0.698-0.102-0.995c0.012-0.112,0.033-0.227,0.049-0.337       c-0.041-0.011-0.084-0.021-0.125-0.029c-0.068,0.188-0.138,0.38-0.209,0.562c-0.07,0.185-0.16,0.514-0.369,0.578       c-0.053,0.018-0.107,0.023-0.16,0.023c-0.17,0-0.33-0.08-0.434-0.219c-0.209-0.275,0.025-0.709,0.123-0.992       c0.051-0.145,0.109-0.283,0.166-0.426c-0.018-0.021-0.033-0.037-0.051-0.059c-0.129,0.194-0.256,0.393-0.384,0.578       c-0.112,0.16-0.274,0.463-0.493,0.479c-0.012,0.002-0.023,0.002-0.037,0.002c-0.218,0-0.412-0.133-0.498-0.328       c-0.139-0.316,0.189-0.686,0.35-0.938c0.179-0.281,0.375-0.553,0.576-0.818c-0.082-0.34-0.123-0.695-0.154-1.036       c-0.154-1.774-0.274-3.701,0.697-5.194c0.207-0.316,0.457-0.604,0.631-0.939c0.584-1.125,0.191-2.504,0.436-3.746       c0.266-1.354,1.4-2.46,2.715-2.824c0.393-0.109,1.242-0.241,2.092-0.301c-0.082-0.06-0.164-0.116-0.24-0.184       c-0.74-0.653-1.066-1.646-1.342-2.595c-0.1-0.338-0.189-0.678-0.283-1.019c-0.033,0.029-0.064,0.06-0.104,0.089       c-0.329,0.227-0.707,0.33-1.086,0.33c-0.458,0-0.918-0.15-1.301-0.41c-0.438-0.301-0.714-0.648-0.933-1.142       c-0.258-0.581-0.324-1.248-0.115-1.849c0.006-0.013,0.013-0.022,0.018-0.035c-0.013-0.021-0.029-0.038-0.042-0.059       c-0.149-0.23-0.271-0.478-0.378-0.729c-0.279,0.005-0.546,0.008-0.805,0.008c-1.649,0-2.854-0.101-3.506-0.292       c0.006,0.002,0.01,0.003,0.013,0.004c-0.005-0.001-0.009-0.002-0.013-0.004c-0.073-0.021-0.142-0.045-0.201-0.067       c-0.01-0.004-0.021-0.009-0.031-0.013c-0.01-0.005-0.02-0.009-0.027-0.013c-0.031-0.012-0.062-0.022-0.09-0.034       c-0.051-0.021-0.117-0.059-0.162-0.09c-0.096-0.066-0.24-0.167-0.328-0.376c-0.065-0.157-0.119-0.475,0.264-0.829       c0.035-0.032,0.082-0.065,0.13-0.1c-0.046,0.033-0.093,0.065-0.127,0.098c1.227-1.115,2.452-2.229,3.68-3.344       c0.001-0.001,0.004-0.002,0.005-0.004c0.114-0.103,0.236-0.191,0.369-0.277c-0.001-1.157,0.028-1.883,0.029-1.888       c0.025-0.391,0.061-0.924,0.216-1.622c0.084-0.383,0.151-0.584,0.263-0.916C8.02,10.36,8.11,10.155,8.197,9.956       C8.361,9.581,8.66,9.085,8.844,8.842c0.272-0.365,0.531-0.71,1.162-1.264c0.098-0.087,0.637-0.55,1.541-1.114       c0.299-0.188,0.924-0.553,1.729-0.899c0.495-0.213,0.937-0.361,1.271-0.466c-0.011-0.137-0.025-0.401,0.215-0.701       c0.146-0.183,0.381-0.321,0.692-0.411c0.53-0.152,1.451-0.279,2.054-0.28C17.518,3.707,17.532,3.707,17.547,3.707        M18.227,4.546c-0.112,0-0.238,0.003-0.376,0.01C17.989,4.549,18.114,4.546,18.227,4.546 M17.766,4.562       c-0.148,0.009-0.305,0.02-0.479,0.033C17.461,4.58,17.617,4.569,17.766,4.562c0.001,0,0.002-0.001,0.003-0.001       C17.768,4.561,17.766,4.562,17.766,4.562 M16.907,4.634c-0.017,0.002-0.034,0.005-0.05,0.007       c-0.02,0.003-0.041,0.005-0.061,0.007c0.02-0.002,0.041-0.004,0.061-0.007C16.873,4.639,16.891,4.636,16.907,4.634        M16.412,4.696c0.03-0.004,0.062-0.009,0.094-0.013C16.475,4.688,16.443,4.692,16.412,4.696 M15.994,4.761       c0.02-0.003,0.038-0.006,0.059-0.01C16.032,4.755,16.014,4.758,15.994,4.761 M15.713,4.812       c-0.033,0.007-0.065,0.013-0.098,0.019C15.647,4.823,15.68,4.816,15.713,4.812 M15.035,4.96c-0.002,0-0.005,0-0.007,0.001       C15.031,4.96,15.034,4.96,15.035,4.96 M26.957,12.109c-0.01-0.001-0.018-0.003-0.025-0.003       C26.941,12.106,26.948,12.108,26.957,12.109 M27.332,12.154c-0.027-0.004-0.055-0.009-0.084-0.012       C27.277,12.147,27.305,12.15,27.332,12.154 M8.816,14.353c-0.036,0.013-0.072,0.023-0.105,0.035       c-0.041,0.015-0.08,0.027-0.117,0.04c0.037-0.013,0.076-0.025,0.117-0.04C8.744,14.376,8.78,14.364,8.816,14.353        M29.334,14.423L29.334,14.423L29.334,14.423c-0.041,0-0.082,0-0.123,0.001c-0.043,0-0.088,0-0.131,0.001       c0.043-0.001,0.088-0.001,0.131-0.001C29.252,14.423,29.293,14.423,29.334,14.423L29.334,14.423L29.334,14.423       c0.032,0,0.066,0,0.1,0.001c0.006,0,0.012,0,0.021,0c-0.007,0-0.015,0-0.021,0C29.4,14.423,29.367,14.423,29.334,14.423       L29.334,14.423L29.334,14.423 M28.543,14.428c0.066-0.001,0.137-0.003,0.201-0.003C28.68,14.425,28.609,14.427,28.543,14.428        M30.104,14.437c-0.14-0.004-0.289-0.007-0.437-0.009C29.814,14.43,29.965,14.433,30.104,14.437 M30.698,14.46       c-0.114-0.006-0.239-0.011-0.36-0.015C30.459,14.449,30.584,14.454,30.698,14.46 M31.236,14.495       c-0.098-0.009-0.207-0.015-0.312-0.021C31.029,14.481,31.139,14.486,31.236,14.495 M31.711,14.542       c-0.082-0.011-0.176-0.018-0.266-0.026C31.535,14.522,31.629,14.531,31.711,14.542 M8.236,14.565       c-0.021,0.009-0.042,0.017-0.062,0.025C8.194,14.581,8.215,14.573,8.236,14.565c0.04-0.017,0.082-0.031,0.123-0.049       C8.318,14.532,8.276,14.548,8.236,14.565 M32.125,14.6c-0.062-0.011-0.137-0.019-0.203-0.027       C31.99,14.581,32.062,14.589,32.125,14.6 M32.477,14.669c-0.057-0.014-0.125-0.025-0.188-0.037       C32.352,14.645,32.42,14.655,32.477,14.669 M32.762,14.749c-0.043-0.014-0.098-0.027-0.146-0.041       C32.662,14.722,32.717,14.734,32.762,14.749 M29.162,15.19L29.162,15.19c-0.002,0-0.003,0-0.005,0       c-0.039,0-0.077,0-0.118,0.001c-0.004,0-0.008,0-0.012,0c0.004,0,0.008,0,0.012,0c0.041-0.001,0.079-0.001,0.118-0.001       C29.159,15.19,29.16,15.19,29.162,15.19c0.014,0,0.029,0,0.047,0c0.145,0.001,0.285,0.001,0.424,0.003       c0.213,0.002,0.416,0.008,0.613,0.014c0,0,0.002,0,0.004,0c-0.002,0-0.002,0-0.004,0c-0.197-0.007-0.4-0.012-0.613-0.014       c-0.139-0.003-0.279-0.003-0.424-0.003C29.191,15.19,29.178,15.19,29.162,15.19L29.162,15.19 M31.377,15.271       c0.004,0,0.008,0.001,0.01,0.001C31.385,15.272,31.381,15.271,31.377,15.271c-0.299-0.025-0.633-0.048-0.998-0.061       C30.744,15.224,31.078,15.245,31.377,15.271 M32.258,15.386c0.002,0,0.004,0.001,0.006,0.001       C32.262,15.387,32.26,15.386,32.258,15.386c-0.221-0.041-0.479-0.076-0.771-0.104C31.777,15.31,32.037,15.345,32.258,15.386        M32.866,15.55c-0.138-0.056-0.315-0.104-0.53-0.147C32.551,15.444,32.729,15.494,32.866,15.55 M33.068,15.653L33.068,15.653       c-0.043-0.031-0.098-0.06-0.159-0.086C32.971,15.596,33.025,15.624,33.068,15.653 M33.141,15.729       c-0.01-0.014-0.022-0.025-0.035-0.038C33.118,15.702,33.133,15.714,33.141,15.729 M33.168,15.741       c-0.014-0.016-0.029-0.029-0.045-0.045C33.139,15.712,33.154,15.727,33.168,15.741 M33.18,15.812       c-0.004-0.014-0.01-0.027-0.018-0.041C33.168,15.784,33.176,15.797,33.18,15.812 M33.211,15.822       c-0.004-0.016-0.014-0.03-0.021-0.046C33.198,15.792,33.207,15.808,33.211,15.822 M33.18,15.856c0,0.008,0,0.016,0,0.021       s0,0.014-0.002,0.021c0.002-0.008,0.002-0.015,0.002-0.021S33.18,15.864,33.18,15.856L33.18,15.856L33.18,15.856        M33.221,15.894c0,0.006,0,0.011-0.002,0.017C33.221,15.903,33.221,15.897,33.221,15.894c0-0.012-0.002-0.021-0.002-0.032       C33.219,15.872,33.221,15.882,33.221,15.894 M33.141,15.994c0.01-0.017,0.014-0.03,0.021-0.046       C33.152,15.964,33.148,15.979,33.141,15.994 M33.189,16.001c0.008-0.018,0.014-0.034,0.02-0.051       C33.203,15.966,33.198,15.983,33.189,16.001 M33.162,16.044c-0.008,0.01-0.014,0.02-0.021,0.029       c-0.006,0.009-0.012,0.016-0.02,0.023c0.006-0.009,0.014-0.016,0.02-0.023C33.148,16.063,33.156,16.054,33.162,16.044        M33.098,16.048c-0.01,0.016-0.02,0.029-0.033,0.045C33.078,16.078,33.086,16.063,33.098,16.048L33.098,16.048L33.098,16.048        M33.078,16.144c-0.02,0.02-0.041,0.037-0.064,0.057C33.037,16.181,33.059,16.162,33.078,16.144 M32.943,16.196       c0.02-0.015,0.033-0.028,0.051-0.043C32.977,16.169,32.963,16.183,32.943,16.196 M32.785,16.307       c0.021-0.013,0.037-0.025,0.059-0.04C32.823,16.28,32.807,16.294,32.785,16.307 M7.234,17.962       c0.171-0.044,0.348-0.088,0.527-0.131C7.582,17.875,7.405,17.919,7.234,17.962 M4.012,19.048       C4.012,19.048,4.012,19.047,4.012,19.048c0.289-0.153,0.671-0.311,1.134-0.472c0.463-0.161,1.007-0.325,1.618-0.49       c-0.612,0.165-1.155,0.329-1.618,0.49C4.683,18.736,4.301,18.896,4.012,19.048C4.012,19.047,4.012,19.048,4.012,19.048        M3.578,18.454c0.061-0.041,0.137-0.084,0.215-0.127C3.715,18.37,3.641,18.413,3.578,18.454 M3.723,19.221       c0.018-0.011,0.035-0.021,0.053-0.034C3.758,19.198,3.741,19.21,3.723,19.221 M3.653,19.276       c-0.017,0.012-0.032,0.024-0.046,0.036c-0.029,0.025-0.057,0.05-0.078,0.072c0.021-0.022,0.048-0.047,0.078-0.072       C3.621,19.302,3.637,19.289,3.653,19.276 M5.973,20.235c-1.834-0.093-2.752-0.368-2.479-0.804       c-0.002,0.003-0.006,0.007-0.008,0.011C3.233,19.872,4.151,20.145,5.973,20.235 M3.443,19.499       c0.004-0.008,0.01-0.015,0.014-0.021C3.453,19.483,3.447,19.491,3.443,19.499 M3.412,19.609c0,0.001,0,0.001,0,0.003       c0,0.002,0,0.006,0,0.009c0,0.004,0.002,0.008,0.002,0.011c0-0.004-0.002-0.008-0.002-0.011s0-0.007,0-0.009       C3.412,19.61,3.412,19.61,3.412,19.609 M3.45,19.737c0,0-0.001-0.002-0.001-0.003C3.449,19.735,3.45,19.737,3.45,19.737        M3.578,19.853c-0.011-0.006-0.02-0.012-0.027-0.02C3.559,19.84,3.567,19.847,3.578,19.853 M6.332,20.251       c-0.121-0.004-0.24-0.009-0.355-0.015C6.092,20.242,6.211,20.247,6.332,20.251 M6.709,20.262c0.002,0,0.006,0,0.008,0.001       C6.715,20.262,6.711,20.262,6.709,20.262c-0.121-0.003-0.24-0.007-0.355-0.011C6.469,20.256,6.588,20.259,6.709,20.262        M6.869,20.265c0.084,0.002,0.168,0.004,0.252,0.004C7.035,20.269,6.953,20.267,6.869,20.265c-0.044,0-0.088-0.001-0.132-0.002       C6.78,20.264,6.824,20.265,6.869,20.265 M8.088,20.267c0.059-0.002,0.117-0.002,0.176-0.004l0,0       C8.205,20.265,8.146,20.265,8.088,20.267 M7.604,20.271c0.126,0,0.254-0.002,0.386-0.003       C7.859,20.269,7.731,20.271,7.604,20.271 M7.491,20.271c0.019,0,0.037,0,0.056,0c-0.018,0-0.035,0-0.053,0       c-0.115,0-0.229,0-0.341-0.002C7.264,20.271,7.375,20.271,7.491,20.271 M32.902,16.284c-0.002,0.002-0.004,0.003-0.006,0.004       C32.898,16.287,32.9,16.286,32.902,16.284 M32.76,16.375c-0.002,0.001-0.006,0.003-0.008,0.005       C32.754,16.378,32.758,16.377,32.76,16.375 M3.981,20.022c0.004,0.003,0.009,0.005,0.013,0.006       C3.989,20.025,3.985,20.022,3.981,20.022 M17.547,2.776h-0.039c-0.692,0.002-1.707,0.141-2.314,0.315       c-0.5,0.146-0.891,0.39-1.16,0.725c-0.16,0.2-0.263,0.398-0.326,0.58c-0.271,0.098-0.539,0.201-0.801,0.313       c-0.863,0.37-1.533,0.765-1.855,0.966c-0.968,0.604-1.556,1.11-1.665,1.205c-0.7,0.616-1,1.017-1.291,1.404       C7.881,8.572,7.545,9.125,7.344,9.583c-0.096,0.22-0.194,0.444-0.269,0.666c-0.116,0.35-0.192,0.58-0.288,1.009       c-0.169,0.768-0.209,1.364-0.236,1.76c-0.002,0.049-0.023,0.615-0.028,1.482c-0.017,0.014-0.032,0.027-0.047,0.041       c-0.011,0.01-0.021,0.018-0.03,0.027l-3.674,3.336l0,0c-0.002,0.002-0.004,0.004-0.005,0.006       c-0.579,0.534-0.763,1.233-0.492,1.875c0.192,0.457,0.515,0.682,0.651,0.777c0.102,0.07,0.224,0.138,0.334,0.186       c0.027,0.01,0.059,0.022,0.091,0.035v-0.001c0.006,0.003,0.011,0.005,0.013,0.007c0.014,0.006,0.055,0.021,0.069,0.027       c0.069,0.027,0.157,0.059,0.256,0.088c0.021,0.008,0.041,0.014,0.056,0.018c0.02,0.006,0.037,0.011,0.055,0.014       c0.756,0.202,1.992,0.305,3.678,0.305c0.072,0,0.143,0,0.215-0.001c-0.137,0.688-0.049,1.422,0.257,2.111       c0.296,0.669,0.685,1.142,1.259,1.531c0.541,0.369,1.188,0.573,1.824,0.573c0.198,0,0.395-0.021,0.583-0.06       c0.177,0.605,0.375,1.224,0.673,1.791c-0.21,0.038-0.396,0.078-0.541,0.119c-1.697,0.472-3.055,1.896-3.379,3.543       c-0.113,0.582-0.111,1.146-0.107,1.694c0.004,0.71,0.008,1.324-0.239,1.801c-0.077,0.148-0.193,0.31-0.315,0.479       c-0.093,0.127-0.185,0.254-0.27,0.385c-1.189,1.828-0.989,4.114-0.844,5.783c0.019,0.211,0.043,0.466,0.086,0.731       c-0.139,0.194-0.26,0.372-0.368,0.543c-0.021,0.032-0.046,0.067-0.071,0.104c-0.218,0.312-0.67,0.965-0.345,1.705       c0.219,0.502,0.7,0.84,1.243,0.879c0.012,0.019,0.025,0.034,0.037,0.053c0.274,0.367,0.715,0.589,1.177,0.589       c0.103,0,0.204-0.011,0.305-0.031c0.004,0.004,0.009,0.009,0.013,0.012c0.262,0.224,0.602,0.348,0.95,0.348       c0.261,0,0.517-0.068,0.741-0.199c0.357-0.207,0.518-0.535,0.598-0.822c0.051,0.006,0.104,0.009,0.157,0.009       c0.154,0,0.304-0.022,0.445-0.071c0.157-0.052,0.298-0.128,0.419-0.225c0.122,0.001,0.244,0.002,0.365,0.003       c0.033,0.319,0.08,0.684,0.174,1.047c0.1,0.386,0.25,0.731,0.445,1.028c0.056,0.082,0.102,0.148,0.152,0.214       c0.09,0.11,0.191,0.217,0.303,0.312c0.015,0.017,0.03,0.031,0.047,0.044c0.27,0.232,0.61,0.426,1.006,0.564       c0.125,0.32,0.227,0.617,0.309,0.898c0.062,0.211,0.195,0.388,0.369,0.506c0.002,0.016,0.004,0.028,0.006,0.043       c0.012,0.108-0.002,0.304-0.016,0.488c-0.025,0.351-0.064,0.719-0.119,1.118c-0.092,0.127-0.157,0.274-0.189,0.438       c-0.011,0.047-0.018,0.096-0.021,0.145c-0.008,0.088-0.006,0.162-0.002,0.221c-0.066,0.123-0.118,0.271-0.143,0.459       c-0.021,0.174-0.037,0.344-0.054,0.516c-0.015,0.162-0.03,0.324-0.052,0.488c-0.061,0.445-0.09,0.9-0.09,1.352       c0,0.1,0,0.307,0.095,0.533c0.085,0.207,0.229,0.389,0.427,0.539c0.494,0.373,1.1,0.486,1.542,0.566l0.048,0.012       c0.819,0.15,1.664,0.311,2.53,0.384c0.234,0.02,0.427,0.028,0.605,0.028c0.34,0,0.643-0.033,0.926-0.104       c0.49-0.121,0.853-0.363,1.072-0.719c0.146-0.238,0.297-0.646,0.178-1.231c-0.069-0.334-0.199-0.621-0.387-0.854       c-0.236-0.297-0.566-0.512-1.01-0.659l-0.115-0.037l-0.115-0.039c-0.158-0.051-0.311-0.103-0.457-0.153       c-0.045-0.043-0.094-0.086-0.145-0.123c-0.078-0.156-0.193-0.291-0.33-0.394c-0.029-0.08-0.064-0.155-0.107-0.226       c-0.02-0.28-0.1-0.633-0.385-0.918c-0.01-0.028-0.021-0.058-0.033-0.084c0.043-0.354,0.074-0.677,0.098-0.984       c0.021-0.318,0.05-0.71,0.007-1.146c-0.011-0.082-0.021-0.164-0.033-0.242c0.158-0.117,0.271-0.28,0.33-0.461       c0.114-0.008,0.226-0.015,0.336-0.021c0.062-0.005,0.123-0.012,0.185-0.016c0.166,0.213,0.334,0.42,0.52,0.623       c0.119,0.129,0.271,0.222,0.436,0.269c0.42,0.619,0.847,1.267,1.246,1.928c0.019,0.095,0.049,0.193,0.1,0.302       c0.052,0.11,0.113,0.201,0.15,0.261l0.012,0.017c0.021,0.143,0.072,0.299,0.173,0.469c0.088,0.149,0.18,0.295,0.271,0.439       c0.088,0.137,0.176,0.273,0.26,0.419c0.226,0.392,0.479,0.769,0.756,1.123c0.06,0.078,0.187,0.24,0.398,0.365       c0.188,0.105,0.401,0.161,0.639,0.163c0.062,0.015,0.125,0.021,0.189,0.021c0.021,0,0.045,0,0.067-0.002       c0.524-0.037,1.044-0.198,1.499-0.463c0.041-0.024,0.085-0.047,0.127-0.069c0.143-0.072,0.318-0.166,0.504-0.318       c0.213-0.176,0.393-0.364,0.553-0.53c0.135-0.142,0.271-0.281,0.41-0.421c0.555-0.562,1.131-1.146,1.57-1.876       c0.156-0.259,0.203-0.554,0.129-0.826c-0.016-0.062-0.039-0.12-0.066-0.176c-0.09-0.293-0.289-0.554-0.576-0.744       c-0.334-0.222-0.738-0.338-1.174-0.338c-0.25,0-0.504,0.036-0.756,0.11c-0.318,0.095-0.627,0.239-0.902,0.431       c-0.111-0.095-0.24-0.165-0.381-0.209c-0.031-0.035-0.068-0.07-0.105-0.105c-0.192-0.181-0.436-0.293-0.69-0.321       c-0.063-0.043-0.131-0.08-0.2-0.108c-0.488-0.782-0.979-1.511-1.404-2.133l-0.381,0.262v-0.75l0.012-0.028       c0.01-0.022,0.02-0.048,0.029-0.07c0.301,0.015,0.521,0.175,0.604,0.271c-0.072-0.084-0.315-0.42-0.479-0.649       c0.065-0.243,0.117-0.508,0.153-0.795c0-0.011,0.002-0.021,0.004-0.028c0.003,0,0.005,0,0.007,0       c0.053,0,0.105-0.003,0.157-0.009c0.08,0.289,0.24,0.615,0.601,0.824c0.223,0.129,0.479,0.198,0.74,0.198       c0.348,0,0.688-0.125,0.952-0.353c0.005-0.002,0.009-0.006,0.011-0.008c0.101,0.021,0.203,0.03,0.305,0.03       c0.461,0,0.902-0.221,1.18-0.592c0.012-0.017,0.023-0.033,0.035-0.05c0.545-0.039,1.025-0.377,1.245-0.885       c0.323-0.735-0.13-1.387-0.347-1.698c-0.025-0.038-0.051-0.073-0.07-0.104c-0.172-0.271-0.365-0.55-0.615-0.878       c-0.133-0.221-0.293-0.399-0.426-0.548l-0.023-0.029c-0.135-0.162-0.293-0.306-0.474-0.429       c-0.079-0.338-0.159-0.696-0.243-1.09c-0.334-1.554-0.678-3.155-1.316-4.635c0.021-1.03-0.006-2.037-0.076-2.997       c-0.008-0.079-0.014-0.161-0.021-0.245c0.09-0.071,0.178-0.147,0.266-0.229c0.906-0.874,1.937-1.863,2.582-3.14       c0.703-1.385,0.791-2.954,0.816-4.315c0.012-0.578,0.182-1.179,0.361-1.813c0.066-0.23,0.132-0.462,0.191-0.691       c0.172-0.683,0.295-1.383,0.362-2.072c0.021,0.002,0.041,0.002,0.062,0.002c0.146,0,0.291-0.033,0.426-0.104       c0.248-0.127,0.419-0.354,0.479-0.612c1.099-0.312,1.929-0.616,2.476-0.905c0.045-0.024,0.088-0.048,0.127-0.07       c0.014-0.007,0.025-0.013,0.037-0.021c0.006-0.004,0.015-0.01,0.022-0.015c0,0,0.002,0,0.002-0.001l0.03-0.019l0.021-0.014       l0.039-0.025c0.014-0.007,0.037-0.022,0.062-0.039c0.002-0.002,0.005-0.004,0.007-0.005c0.006-0.005,0.019-0.011,0.021-0.016       c0.002,0,0.002-0.002,0.004-0.002c0.006-0.004,0.012-0.008,0.019-0.012c0.203-0.139,0.362-0.274,0.485-0.418       c0.152-0.178,0.361-0.465,0.429-0.907c0.051-0.349-0.028-0.732-0.214-1.025c-0.069-0.112-0.153-0.234-0.336-0.396       c-0.123-0.108-0.207-0.159-0.36-0.25c-0.011-0.007-0.022-0.014-0.034-0.02l0,0c-0.003-0.002-0.005-0.002-0.007-0.004       l-2.698-1.422l-1.693-0.894c-0.004-0.001-0.006-0.003-0.01-0.005c-0.026-0.014-0.054-0.028-0.08-0.041       c-0.031-0.117-0.062-0.235-0.09-0.337l-0.097-0.35c-0.034-0.128-0.071-0.256-0.106-0.383c-0.25-0.867-0.487-1.426-0.771-1.997       c-0.183-0.364-0.369-0.655-0.535-0.914c-0.146-0.224-0.36-0.493-0.431-0.583c-0.059-0.072-0.36-0.441-0.758-0.807       c-0.19-0.177-0.442-0.396-0.871-0.695c-0.77-0.537-1.629-0.877-1.911-0.987c-1.015-0.401-2.074-0.686-3.146-0.844l-0.144-0.056       L20.064,3.74c-0.205-0.027-0.408-0.051-0.611-0.069c-0.1-0.148-0.219-0.286-0.359-0.402       C18.506,2.776,17.834,2.776,17.547,2.776L17.547,2.776z" stroke-width="1" fill="undefined"/>
				</g>
			</g>
			<g>
				<g>
					<path fill="#8D5E1B" d="M7.078,15.714c-0.123,0-0.242-0.047-0.335-0.141c-0.177-0.183-0.175-0.474,0.005-0.652       c0.004-0.003,0.076-0.064,0.084-0.07c0.084-0.063,0.182-0.095,0.28-0.095c0.14,0,0.278,0.062,0.37,0.183       c0.156,0.203,0.117,0.494-0.085,0.65c-0.003,0.002-0.005,0.004-0.009,0.006C7.299,15.675,7.188,15.714,7.078,15.714z" stroke-width="1"/>
				</g>
				<g>
					<path d="M7.111,15.221c-0.001,0.001-0.001,0.001-0.002,0.002C7.11,15.222,7.11,15.222,7.111,15.221 M7.109,15.223       C7.1,15.23,7.09,15.238,7.08,15.246c0,0.001-0.002,0.003-0.004,0.004C7.086,15.24,7.098,15.231,7.109,15.223 M7.104,14.294       c-0.204,0-0.408,0.066-0.58,0.205l0,0l0,0V14.5c-0.001,0.001-0.003,0.003-0.005,0.003l0,0c-0.023,0.021-0.049,0.041-0.07,0.061       l0.002,0.003c-0.332,0.331-0.365,0.868-0.064,1.241c0.185,0.228,0.453,0.345,0.725,0.345c0.186,0,0.372-0.056,0.533-0.168       l0.001,0.002c0.014-0.012,0.028-0.023,0.042-0.035l0,0c0.001,0,0.003-0.002,0.004-0.002c0.001-0.002,0.002-0.002,0.003-0.004       l0,0c0.394-0.324,0.455-0.908,0.133-1.306C7.643,14.413,7.375,14.294,7.104,14.294L7.104,14.294z" stroke-width="1" fill="undefined"/>
				</g>
			</g>
		</g>
		<g>
			<g>
				<g>
					<path fill="#F6C7A0" d="M23.955,40.742c0.787-0.386,1.984-0.214,2.484,0.392c0.012,0.018,0.022,0.031,0.035,0.049       c0.133,0.146,0.27,0.295,0.364,0.465c0.211,0.279,0.416,0.564,0.604,0.857c0.16,0.252,0.488,0.62,0.35,0.938       c-0.09,0.207-0.302,0.343-0.533,0.326c-0.219-0.017-0.381-0.316-0.492-0.479c-0.168-0.243-0.328-0.503-0.5-0.751       c-0.018-0.024-0.033-0.046-0.051-0.069c0.102,0.239,0.195,0.481,0.281,0.728c0.098,0.28,0.332,0.717,0.123,0.991       c-0.135,0.182-0.371,0.264-0.594,0.192c-0.209-0.063-0.299-0.396-0.369-0.578c-0.105-0.272-0.203-0.562-0.314-0.846       c-0.031-0.08-0.066-0.158-0.102-0.235c0.055,0.295,0.1,0.592,0.131,0.887c0.031,0.298,0.161,0.772-0.102,0.994       c-0.174,0.147-0.424,0.176-0.625,0.058c-0.189-0.11-0.203-0.451-0.229-0.646c-0.043-0.293-0.072-0.599-0.117-0.896       c-0.033-0.228-0.082-0.448-0.123-0.672c-0.168-0.05-0.264,0.759-0.293,0.86c-0.029,0.107-0.064,0.207-0.144,0.289       c-0.112,0.115-0.315,0.147-0.466,0.098c-0.303-0.101-0.277-0.356-0.254-0.609c0.024-0.277,0.033-0.559,0.088-0.831       c0.039-0.203,0.041-0.461,0.137-0.66C23.338,41.192,23.605,40.913,23.955,40.742z" stroke-width="1"/>
				</g>
				<g>
					<path fill="#F6C7A0" d="M25.115,42.589c-0.422,0-0.809-0.281-0.924-0.709c-0.195-0.729-0.361-1.501-0.521-2.246       c-0.316-1.471-0.645-2.992-1.209-4.248c-0.889-1.969-2.232-3.74-3.533-5.387c-0.326-0.414-0.256-1.016,0.158-1.344       c0.412-0.326,1.016-0.258,1.344,0.157c1.375,1.738,2.799,3.619,3.775,5.785c0.648,1.441,0.998,3.063,1.336,4.635       c0.161,0.756,0.314,1.469,0.498,2.15c0.137,0.512-0.166,1.035-0.676,1.172C25.279,42.579,25.197,42.589,25.115,42.589z" stroke-width="1"/>
				</g>
			</g>
			<g>
				<path fill="#704413" d="M9.28,31.026c-0.243,1.242,0.149,2.621-0.435,3.746c-0.174,0.336-0.426,0.623-0.631,0.939      c-0.973,1.493-0.853,3.42-0.697,5.194c0.074,0.851,0.208,1.81,0.9,2.308c0.439,0.314,1.01,0.367,1.551,0.398      c1.758,0.104,3.522,0.098,5.281-0.018c0.6-0.039,1.297-0.147,1.588-0.676c0.117-0.214,0.146-0.465,0.17-0.707      c0.412-4.168-0.045-8.252-0.123-12.412c-0.012-0.632-0.08-1.363-0.604-1.717c-0.662-0.444-3.465-0.112-4.284,0.115      C10.682,28.566,9.545,29.672,9.28,31.026z" stroke-width="1"/>
			</g>
			<g>
				<path fill="#704413" d="M23.912,30.515c-0.695-1.27-2.275-1.046-3.438-1.095c-0.261-0.011-0.324-0.085-0.562,0.066      c-0.102,0.062-0.479,0.478-0.193,0.511c0.789,0.095,1.555,0.123,2.268,0.506c0.166,0.088,0.33,0.196,0.424,0.359      c0.08,0.141,0.099,0.307,0.111,0.467c0.142,1.551,0.123,3.115-0.059,4.662c-0.041,0.354-0.097,0.725-0.306,1.016      c-0.459,0.635-1.396,0.605-2.175,0.514c-0.051,0.246-0.064,0.502-0.039,0.752c0.966,0.174,1.971,0.125,2.914-0.138      c0.242-0.067,0.485-0.151,0.682-0.309c0.439-0.354,0.531-0.978,0.576-1.538c0.127-1.604,0.131-3.214,0.012-4.816      C24.104,31.144,24.07,30.804,23.912,30.515z" stroke-width="1"/>
			</g>
			<g>
				<g>
					<path fill="#F6C7A0" d="M16.574,53.968c-0.061,0-0.121-0.005-0.181-0.016c-0.519-0.102-0.859-0.604-0.759-1.12       c0.17-0.888,0.354-1.938,0.432-3.002c0.018-0.237,0.033-0.463,0.014-0.651c-0.021-0.205-0.091-0.434-0.172-0.688       c-0.234-0.739-0.492-1.485-0.771-2.216c-0.188-0.492,0.062-1.047,0.555-1.232c0.493-0.188,1.046,0.061,1.234,0.553       c0.291,0.766,0.562,1.545,0.807,2.318c0.109,0.346,0.21,0.688,0.25,1.072c0.036,0.354,0.012,0.688-0.01,0.981       c-0.084,1.165-0.279,2.284-0.461,3.228C17.426,53.649,17.024,53.968,16.574,53.968z" stroke-width="1"/>
				</g>
				<g>
					<path fill="#DDA949" d="M14.758,46.157c0.375,0.736,0.681,1.511,0.914,2.305c0.912,0.066,1.842-0.131,2.647-0.562       c-0.28-0.711-0.587-1.412-0.92-2.104c-0.095-0.193-0.2-0.398-0.388-0.506" stroke-width="1"/>
				</g>
				<g>
					<path fill="#FBD271" d="M15.734,51.544c0.001-0.014,0.003-0.027,0.006-0.04c0.045-0.226,0.333-0.142,0.498-0.12       c0.209,0.027,0.418,0.068,0.63,0.068c0.335,0.002,0.664-0.04,0.996-0.072c0.024-0.002,0.052-0.004,0.074,0.01       c0.03,0.021,0.037,0.062,0.041,0.096c0.051,0.5,0.069,1.002,0.06,1.502c-0.004,0.137-0.011,0.279-0.078,0.396       c-0.099,0.172-0.299,0.252-0.488,0.309c-0.23,0.066-0.467,0.117-0.705,0.146c-0.18,0.023-0.366,0.035-0.54-0.018       c-0.233-0.07-0.405-0.23-0.478-0.461c-0.123-0.385-0.148-0.799-0.076-1.191c0.027-0.146,0.067-0.293,0.064-0.443       C15.738,51.665,15.729,51.604,15.734,51.544z" stroke-width="1"/>
				</g>
				<g>
					<path fill="#704413" d="M20.09,53.838c0.035,0.013,0.072,0.022,0.107,0.036c0.219,0.072,0.438,0.179,0.58,0.359       c0.106,0.132,0.166,0.295,0.201,0.461c0.037,0.186,0.043,0.391-0.058,0.552c-0.106,0.171-0.31,0.257-0.506,0.306       c-0.399,0.1-0.817,0.086-1.228,0.051c-0.82-0.067-1.632-0.221-2.438-0.369c-0.398-0.074-0.867-0.153-1.199-0.404       c-0.053-0.041-0.104-0.09-0.129-0.151c-0.022-0.056-0.023-0.118-0.023-0.181c0-0.41,0.027-0.82,0.082-1.229       c0.046-0.34,0.064-0.67,0.107-1.01c0.008-0.074,0.028-0.164,0.099-0.191c0.096-0.037,0.308,0.033,0.407,0.051       c0.162,0.021,0.324,0.044,0.484,0.064c0.129,0.019,0.266,0.023,0.383-0.029c0.078-0.037,0.144-0.1,0.213-0.148       c0.19-0.139,0.431-0.207,0.666-0.188c0.104,0.008,0.215,0.035,0.285,0.113c0.152,0.172,0.07,0.506,0.117,0.721       c0.053,0.23,0.168,0.479,0.381,0.604C19.084,53.526,19.586,53.673,20.09,53.838z" stroke-width="1"/>
				</g>
				<g>
					<path fill="#6D3E1B" d="M18.006,53.916c0.236,0.087,0.496,0.081,0.748,0.054c0.107-0.012,0.219-0.025,0.314-0.08       c0.098-0.053,0.175-0.149,0.176-0.261c0.002-0.139-0.117-0.249-0.242-0.31c-0.125-0.062-0.266-0.092-0.381-0.164       c-0.182-0.117-0.281-0.334-0.32-0.547c-0.047-0.265,0.086-0.688-0.154-0.881c-0.25-0.199-0.928,0.037-1.073,0.289       c-0.097,0.166-0.112,0.452-0.065,0.635C17.139,53.147,17.494,53.729,18.006,53.916z" stroke-width="1"/>
				</g>
				<g>
					<path fill="#D49F65" d="M17.16,53.261c-0.057,0-0.113-0.027-0.145-0.08c-0.049-0.08-0.024-0.186,0.056-0.232       c0.365-0.227,0.763-0.396,1.177-0.502c0.09-0.022,0.185,0.029,0.209,0.121c0.023,0.092-0.031,0.186-0.123,0.207       c-0.383,0.101-0.748,0.256-1.084,0.463C17.223,53.253,17.191,53.261,17.16,53.261z" stroke-width="1"/>
				</g>
				<g>
					<path fill="#D49F65" d="M17.547,53.784c-0.057,0-0.112-0.029-0.145-0.081c-0.05-0.08-0.023-0.187,0.055-0.235       c0.366-0.225,0.762-0.394,1.178-0.502c0.092-0.021,0.186,0.031,0.209,0.123c0.022,0.092-0.031,0.184-0.123,0.207       c-0.383,0.1-0.748,0.255-1.083,0.463C17.608,53.774,17.578,53.784,17.547,53.784z" stroke-width="1"/>
				</g>
			</g>
			<g>
				<path fill="#F6C7A0" d="M24.402,52.487c-0.351,0-0.687-0.191-0.854-0.523c-0.75-1.482-1.666-2.82-2.637-4.234L20.4,46.981      c-0.297-0.438-0.184-1.031,0.254-1.328c0.437-0.297,1.031-0.185,1.328,0.254l0.508,0.74c0.962,1.404,1.957,2.856,2.765,4.453      c0.237,0.473,0.05,1.047-0.422,1.284C24.695,52.456,24.547,52.487,24.402,52.487z" stroke-width="1"/>
			</g>
			<g>
				<path fill="#DDA949" d="M20.932,48.144c0.225-0.26,0.486-0.484,0.777-0.666c0.219-0.139,0.455-0.252,0.689-0.361      c0.231-0.111,0.463-0.223,0.694-0.333c-0.043,0.021-0.805-1.075-0.885-1.179c-0.287-0.362-0.591-0.735-0.916-1.069      c-0.062-0.063-0.138-0.132-0.228-0.128c-0.053,0.003-0.102,0.029-0.146,0.061c-0.386,0.242-0.735,0.535-1.071,0.84      c-0.211,0.189-0.677,0.479-0.509,0.81c0.065,0.13,0.209,0.249,0.3,0.362c0.146,0.188,0.286,0.383,0.428,0.574      C20.342,47.425,20.617,47.8,20.932,48.144z" stroke-width="1"/>
			</g>
			<g>
				<path fill="#FBD271" d="M22.865,50.872c-0.023-0.051-0.037-0.104-0.027-0.146c0.008-0.031,0.027-0.062,0.047-0.09      c0.143-0.193,0.334-0.348,0.524-0.498c0.296-0.23,0.591-0.465,0.909-0.662c0.121-0.072,0.203-0.076,0.293,0.023      c0.109,0.123,0.223,0.24,0.33,0.365c0.211,0.242,0.412,0.492,0.604,0.752c0.082,0.107,0.162,0.227,0.182,0.363      c0.027,0.193-0.082,0.381-0.197,0.541c-0.143,0.193-0.297,0.377-0.467,0.547c-0.129,0.129-0.27,0.252-0.438,0.314      c-0.228,0.088-0.461,0.065-0.66-0.072c-0.33-0.229-0.604-0.537-0.787-0.896c-0.065-0.125-0.127-0.248-0.202-0.367      C22.941,51,22.896,50.937,22.865,50.872z" stroke-width="1"/>
			</g>
			<g>
				<path fill="#704413" d="M24.334,50.185c0.07-0.148,0.199-0.281,0.336-0.373c0.088-0.059,0.193-0.104,0.297-0.084      c0.227,0.043,0.365,0.357,0.533,0.498c0.184,0.151,0.426,0.275,0.672,0.246c0.199-0.024,0.332-0.169,0.482-0.291      c0.227-0.182,0.488-0.316,0.768-0.397c0.383-0.112,0.821-0.112,1.153,0.106c0.118,0.079,0.228,0.203,0.214,0.346      c-0.008,0.066-0.041,0.13-0.08,0.186c-0.062,0.09-0.141,0.17-0.217,0.249c-0.436,0.454-0.871,0.908-1.309,1.363      c-0.22,0.227-0.437,0.454-0.654,0.681c-0.084,0.088-0.163,0.2-0.258,0.275c-0.103,0.082-0.256,0.133-0.373,0.191      c-0.361,0.187-0.78,0.408-1.196,0.413c-0.067,0.001-0.136-0.008-0.194-0.04c-0.053-0.029-0.092-0.08-0.129-0.129      c-0.252-0.324-0.48-0.665-0.688-1.02c-0.172-0.299-0.359-0.57-0.532-0.865c-0.038-0.064-0.077-0.146-0.038-0.213      c0.053-0.092,0.211-0.133,0.299-0.184c0.116-0.065,0.229-0.142,0.338-0.223c0.131-0.098,0.256-0.207,0.357-0.337      c0.053-0.065,0.098-0.135,0.141-0.205C24.297,50.315,24.303,50.253,24.334,50.185z" stroke-width="1"/>
			</g>
			<g>
				<path fill="#6D3E1B" d="M25.914,51.147c0.217-0.168,0.404-0.373,0.553-0.604c0.031-0.047,0.061-0.105,0.033-0.154      c-0.061-0.105-0.305-0.007-0.393,0.002c-0.217,0.021-0.426-0.093-0.586-0.235c-0.152-0.138-0.236-0.333-0.388-0.474      c-0.182-0.173-0.405-0.041-0.579,0.088c-0.144,0.106-0.281,0.228-0.361,0.388c-0.023,0.049-0.043,0.101-0.043,0.155      c0,0.117,0.086,0.246,0.127,0.354c0.047,0.121,0.143,0.231,0.246,0.312c0.336,0.26,0.834,0.543,1.233,0.278      C25.812,51.226,25.863,51.188,25.914,51.147z" stroke-width="1"/>
			</g>
			<g>
				<path fill="#D49F65" d="M24.756,51.36c-0.004,0-0.01,0-0.015-0.002c-0.095-0.01-0.163-0.092-0.155-0.186      c0.027-0.299,0.146-0.468,0.285-0.663c0.137-0.192,0.391-0.438,0.622-0.513c0.089-0.027,0.187,0.02,0.216,0.107      c0.029,0.09-0.02,0.187-0.107,0.217c-0.143,0.047-0.346,0.234-0.451,0.387c-0.137,0.188-0.205,0.297-0.225,0.495      C24.918,51.294,24.844,51.36,24.756,51.36z" stroke-width="1"/>
			</g>
			<g>
				<path fill="#D49F65" d="M25.209,51.594c-0.004,0-0.011-0.001-0.016-0.001c-0.094-0.008-0.164-0.092-0.154-0.186      c0.027-0.299,0.152-0.477,0.285-0.661c0.139-0.194,0.393-0.438,0.623-0.513c0.092-0.03,0.186,0.019,0.215,0.105      c0.029,0.09-0.02,0.188-0.107,0.217c-0.143,0.047-0.346,0.236-0.451,0.387c-0.135,0.188-0.205,0.299-0.225,0.496      C25.371,51.526,25.297,51.594,25.209,51.594z" stroke-width="1"/>
			</g>
			<g>
				<path fill="#381E02" d="M25.014,53.408c-0.049,0.065-0.096,0.135-0.141,0.204c0.385-0.027,0.764-0.146,1.098-0.34      c0.174-0.102,0.346-0.17,0.508-0.303c0.168-0.139,0.318-0.298,0.471-0.455c0.646-0.681,1.371-1.328,1.859-2.137      c0.025-0.043,0.045-0.109,0.002-0.135c-0.028-0.018-0.062,0-0.09,0.016c-0.322,0.186-0.609,0.424-0.894,0.662      c-0.642,0.536-1.302,1.053-1.929,1.602C25.588,52.796,25.266,53.078,25.014,53.408z" stroke-width="1"/>
			</g>
			<g>
				<path fill="#FBD271" d="M13.828,29.776c-0.15,0.418-0.244,0.866-0.32,1.306c-0.271,1.569-0.299,3.12-0.399,4.696      c-0.185,2.879-0.136,5.771,0.151,8.643c0.065,0.67,0.162,1.383,0.578,1.896c0.545,0.67,1.465,0.809,2.301,0.875      c1.109,0.086,2.224,0.127,3.332,0.043c0.783-0.062,1.613-0.205,2.195-0.762c0.82-0.779,0.887-2.087,0.896-3.25      c0.021-2.809,0.041-5.617,0.062-8.428c0.01-1.229-0.047-2.48,0.019-3.708c0.047-0.874,0.414-2.027-0.134-2.8      c-0.633-0.896-2.224-0.975-3.163-0.888c-0.906,0.083-1.808,0.205-2.704,0.362c-0.742,0.132-1.52,0.307-2.083,0.831      C14.217,28.915,13.989,29.327,13.828,29.776z" stroke-width="1"/>
			</g>
			<g>
				<g>
					<g>
						<g>
							<path fill="#A47D50" d="M19.418,33.812h-2.485c-0.125,0-0.226,0.102-0.226,0.227v2.809c0,0.125,0.101,0.227,0.226,0.227         h2.485c0.125,0,0.225-0.102,0.225-0.227v-2.809C19.643,33.911,19.543,33.812,19.418,33.812z M19.525,36.726         c0,0.113-0.092,0.207-0.207,0.207h-2.288c-0.113,0-0.207-0.094-0.207-0.207v-2.568c0-0.113,0.094-0.207,0.207-0.207h2.288         c0.113,0,0.207,0.094,0.207,0.207V36.726z" stroke-width="1"/>
						</g>
					</g>
					<g>
						<g>
							<rect x="17.815" y="34.961" fill="#DDA949" width="0.08" height="2.022" stroke-width="1"/>
						</g>
						<g>
							<rect x="18.455" y="34.961" fill="#DDA949" width="0.08" height="2.022" stroke-width="1"/>
						</g>
					</g>
					<g>
						<path fill="#DDA949" d="M19.592,34.823c-0.031,0.015-0.072,0.006-0.107,0.004c-0.229-0.012-0.459-0.029-0.688-0.008        c-0.17,0.015-0.396,0.08-0.529,0.189c-0.008,0.008-0.022,0.02-0.039,0.031c-0.016,0.016-0.034,0.031-0.051,0.049        c-0.018-0.018-0.035-0.033-0.053-0.049c-0.016-0.014-0.029-0.023-0.037-0.031c-0.133-0.109-0.36-0.177-0.531-0.189        c-0.229-0.021-0.459-0.004-0.688,0.008c-0.034,0.002-0.077,0.011-0.108-0.004c0.011,0.037,0.015,0.086,0.006,0.125        c0.09-0.008,0.184-0.018,0.275-0.021c0.197-0.01,0.375-0.013,0.57,0.021c0.133,0.021,0.264,0.059,0.376,0.139        c0.024,0.018,0.104,0.112,0.168,0.135c0.002,0,0.005,0.002,0.007,0.004c0.006,0,0.01-0.002,0.014,0        c0.006-0.002,0.01,0,0.015,0c0.002-0.002,0.005-0.004,0.007-0.004c0.064-0.021,0.145-0.117,0.169-0.135        c0.111-0.08,0.242-0.117,0.375-0.139c0.197-0.032,0.373-0.029,0.57-0.021c0.092,0.006,0.187,0.016,0.275,0.021        C19.578,34.909,19.582,34.86,19.592,34.823z" stroke-width="1"/>
					</g>
				</g>
				<g>
					<circle fill="#DDA949" cx="18.176" cy="34.644" r="0.26" stroke-width="1"/>
				</g>
			</g>
			<g>
				<g>
					<g>
						<g>
							<path fill="#A47D50" d="M22.379,33.812h-0.93c-0.081,0-0.146,0.064-0.146,0.146v2.969c0,0.08,0.065,0.146,0.146,0.146h0.93         c0.08,0,0.146-0.064,0.146-0.146v-2.969C22.523,33.876,22.459,33.812,22.379,33.812z M22.477,36.798         c0,0.073-0.061,0.135-0.135,0.135h-0.855c-0.073,0-0.135-0.061-0.135-0.135v-2.716c0-0.073,0.062-0.134,0.135-0.134h0.855         c0.074,0,0.135,0.06,0.135,0.134V36.798z" stroke-width="1"/>
						</g>
					</g>
					<g>
						<g>
							<rect x="21.764" y="34.961" fill="#DDA949" width="0.033" height="2.022" stroke-width="1"/>
						</g>
						<g>
							<rect x="22.029" y="34.961" fill="#DDA949" width="0.035" height="2.022" stroke-width="1"/>
						</g>
					</g>
					<g>
						<path fill="#DDA949" d="M22.504,34.823c-0.014,0.015-0.031,0.006-0.045,0.004c-0.096-0.012-0.191-0.029-0.287-0.008        c-0.07,0.015-0.166,0.08-0.221,0.189c-0.004,0.008-0.01,0.02-0.016,0.031c-0.009,0.016-0.015,0.031-0.021,0.049        c-0.007-0.018-0.014-0.033-0.021-0.049c-0.006-0.014-0.013-0.023-0.015-0.031c-0.058-0.109-0.149-0.177-0.222-0.189        c-0.096-0.021-0.19-0.004-0.286,0.008c-0.015,0.002-0.031,0.011-0.046-0.004c0.005,0.037,0.007,0.086,0.003,0.125        c0.036-0.008,0.075-0.018,0.114-0.021c0.082-0.01,0.154-0.013,0.236,0.021c0.057,0.021,0.109,0.059,0.156,0.139        c0.01,0.018,0.043,0.112,0.068,0.135c0.002,0,0.002,0.002,0.004,0.004c0.002,0,0.004-0.002,0.006,0        c0.002-0.002,0.004,0,0.006,0c0.002-0.002,0.002-0.004,0.004-0.004c0.026-0.021,0.061-0.117,0.07-0.135        c0.045-0.08,0.1-0.117,0.154-0.139c0.082-0.032,0.156-0.029,0.237-0.021c0.039,0.006,0.078,0.016,0.115,0.021        C22.496,34.909,22.498,34.86,22.504,34.823z" stroke-width="1"/>
					</g>
				</g>
				<g>
					<ellipse fill="#DDA949" cx="21.914" cy="34.644" rx="0.107" ry="0.26" stroke-width="1"/>
				</g>
			</g>
			<g>
				<path fill="#DDA949" d="M15.11,31.194c-0.192,0.017-0.382,0.062-0.56,0.143c-0.26,0.111-0.457,0.327-0.664,0.518      c-0.172,0.155-0.402,0.27-0.508,0.479c-0.115,0.233-0.267,0.444-0.365,0.688c-0.01,0.023-0.02,0.056-0.006,0.078      c0.01,0.021,0.029,0.029,0.049,0.037c0.103,0.049,0.207,0.096,0.31,0.145c0.06,0.025,0.123,0.056,0.188,0.05      c0.057-0.005,0.107-0.036,0.156-0.065c0.646-0.399,1.254-0.861,1.812-1.381c0.05-0.046,0.101-0.094,0.129-0.156      c0.035-0.082,0.024-0.178,0.015-0.266c-0.007-0.055-0.014-0.111-0.043-0.158c-0.057-0.086-0.172-0.107-0.275-0.113      C15.268,31.188,15.188,31.188,15.11,31.194z" stroke-width="1"/>
			</g>
			<g>
				<path fill="#DDA949" d="M17.328,43.379c-1.396,0.054-2.836-0.22-4.21-0.688c0.039,0.578,0.083,1.153,0.142,1.729      c0.065,0.67,0.162,1.383,0.578,1.896c0.545,0.67,1.465,0.81,2.301,0.875c1.109,0.088,2.224,0.127,3.332,0.043      c0.783-0.061,1.613-0.205,2.195-0.76c0.82-0.781,0.887-2.088,0.896-3.25c0-0.154,0.002-0.31,0.004-0.466      C20.836,43.104,19.084,43.313,17.328,43.379z" stroke-width="1"/>
			</g>
			<g>
				<g>
					<path fill="#B37A2C" d="M16.416,43.169c0.047,0.4,0.037,0.811-0.027,1.209c-0.016,0.09-0.032,0.182-0.078,0.262       c-0.074,0.133-0.213,0.217-0.354,0.279c-0.6,0.264-1.289,0.209-1.931,0.077c0.235,0.138,0.517,0.181,0.79,0.188       c0.482,0.019,0.969-0.064,1.42-0.238c0.096-0.036,0.193-0.08,0.26-0.158c0.072-0.088,0.094-0.205,0.113-0.316       c0.062-0.387,0.104-0.775,0.124-1.17" stroke-width="1"/>
				</g>
				<g>
					<path fill="#B37A2C" d="M19.049,46.817c0.324-0.926,0.412-1.912,0.387-2.887c-0.002-0.095,0.025-0.615-0.057-0.645       c-0.188-0.064-0.104,0.402-0.102,0.457c0.037,0.492,0.059,0.984,0.035,1.479C19.287,45.755,19.227,46.313,19.049,46.817z" stroke-width="1"/>
				</g>
				<g>
					<path fill="#B37A2C" d="M20.131,45.192c-0.004,0.199-0.018,0.406-0.1,0.594c-0.113,0.257-0.352,0.438-0.592,0.585       c0.348-0.027,0.627-0.319,0.748-0.646c0.119-0.326,0.112-0.686,0.104-1.031c-0.008-0.262-0.016-0.521-0.021-0.782       c-0.006-0.185,0.041-0.462-0.031-0.629c-0.196,0.086-0.153,0.479-0.141,0.642C20.133,44.347,20.143,44.771,20.131,45.192z" stroke-width="1"/>
				</g>
			</g>
			<g>
				<path fill="#FBD271" d="M13.131,39.812c-0.158,0.666-0.317,1.33-0.477,1.996c-0.066,0.279-0.126,0.604,0.047,0.834      c0.083,0.111,0.208,0.182,0.332,0.241c1.024,0.5,2.202,0.56,3.344,0.566c1.896,0.015,3.793-0.082,5.676-0.29      c0.252-0.027,0.506-0.059,0.742-0.146c0.062-0.021,0.123-0.051,0.168-0.097c0.117-0.121,0.09-0.315,0.055-0.479      c-0.203-0.953-0.408-1.908-0.613-2.862" stroke-width="1"/>
			</g>
			<g>
				<g>
					<path fill="#F6C7A0" d="M10.582,41.001c-0.787-0.385-1.984-0.213-2.484,0.393c-0.012,0.018-0.024,0.031-0.036,0.047       c-0.132,0.146-0.269,0.297-0.364,0.468c-0.211,0.278-0.417,0.563-0.604,0.856c-0.16,0.252-0.489,0.619-0.351,0.938       c0.091,0.207,0.302,0.341,0.534,0.325c0.219-0.016,0.381-0.317,0.493-0.479c0.167-0.241,0.329-0.504,0.5-0.752       c0.017-0.022,0.032-0.045,0.05-0.067c-0.102,0.239-0.197,0.481-0.281,0.727c-0.098,0.281-0.33,0.717-0.123,0.991       c0.135,0.182,0.371,0.264,0.594,0.194c0.209-0.064,0.299-0.396,0.369-0.578c0.106-0.274,0.205-0.563,0.314-0.847       c0.032-0.079,0.066-0.157,0.102-0.237c-0.055,0.297-0.1,0.595-0.131,0.89c-0.033,0.297-0.162,0.772,0.1,0.993       c0.175,0.147,0.424,0.175,0.625,0.058c0.189-0.11,0.203-0.452,0.229-0.646c0.043-0.293,0.073-0.6,0.117-0.896       c0.035-0.227,0.083-0.449,0.123-0.672c0.168-0.049,0.264,0.758,0.293,0.861c0.031,0.105,0.064,0.205,0.145,0.287       c0.111,0.117,0.314,0.148,0.465,0.1c0.303-0.102,0.277-0.357,0.254-0.611c-0.024-0.275-0.032-0.558-0.088-0.83       c-0.039-0.203-0.041-0.461-0.137-0.66C11.2,41.452,10.932,41.172,10.582,41.001z" stroke-width="1"/>
				</g>
				<g>
					<path fill="#F6C7A0" d="M9.422,42.849c-0.082,0-0.164-0.011-0.248-0.033c-0.51-0.137-0.812-0.659-0.676-1.172       c0.182-0.684,0.336-1.396,0.5-2.152c0.338-1.568,0.686-3.19,1.336-4.631c0.976-2.166,2.399-4.049,3.774-5.787       c0.327-0.415,0.931-0.484,1.343-0.156c0.415,0.326,0.486,0.928,0.158,1.343c-1.301,1.647-2.645,3.421-3.531,5.39       c-0.566,1.254-0.894,2.773-1.21,4.244c-0.159,0.746-0.325,1.519-0.522,2.248C10.231,42.565,9.846,42.849,9.422,42.849z" stroke-width="1"/>
				</g>
			</g>
			<g>
				<path fill="#FBD271" d="M15.766,28.942c-0.088-0.162-0.197-0.322-0.358-0.412c-0.214-0.12-0.479-0.099-0.715-0.025      c-0.659,0.205-1.144,0.753-1.592,1.277c-0.296,0.344-0.638,0.682-0.882,1.062c-0.232,0.361-0.459,0.702-0.762,1.015      c0.736,0.44,1.437,0.944,2.088,1.506c0.516-0.561,1.014-1.135,1.496-1.721c0.323-0.396,0.723-0.752,0.946-1.221      C16.221,29.935,16.012,29.399,15.766,28.942z" stroke-width="1"/>
			</g>
			<g>
				<path fill="#DDA949" d="M18.239,33.349c-0.739-0.722-1.407-1.525-1.989-2.396c-0.597-0.891-1.074-1.845-1.66-2.741      c0.183,0.025,0.332-0.155,0.514-0.191c0.105-0.021,0.214,0.01,0.316,0.039c1.619,0.483,3.143,1.271,4.653,2.052      c0.021,0.012,0.04,0.021,0.052,0.043c0.012,0.028,0,0.062-0.014,0.092c-0.111,0.232-0.293,0.388-0.422,0.604      c-0.166,0.279-0.306,0.58-0.465,0.863C19.143,31.862,18.229,33.337,18.239,33.349z" stroke-width="1"/>
			</g>
			<g>
				<path fill="#DDA949" d="M22.271,33.132c-0.024-0.053,0.205-0.475,0.234-0.546c0.074-0.185,0.146-0.372,0.213-0.56      c0.143-0.396,0.268-0.799,0.375-1.204c0.111-0.412,0.191-0.83,0.281-1.248c0.082-0.382,0.178-0.729,0.129-1.128      c-0.926,0.617-1.797,1.336-2.597,2.144C21.385,31.419,21.854,32.261,22.271,33.132z" stroke-width="1"/>
			</g>
			<g>
				<path fill="#C7886C" d="M19.926,29.143c0.172,2.28,0.41,4.543,0.709,6.78c0.199-2.451,0.357-4.912,0.445-7.375" stroke-width="1"/>
			</g>
			<g>
				<path fill="#704413" d="M16.838,30.515c-0.694-1.27-2.273-1.046-3.436-1.095c-0.261-0.011-0.324-0.085-0.562,0.066      c-0.102,0.062-0.479,0.478-0.194,0.511c0.79,0.095,1.553,0.123,2.267,0.506c0.166,0.088,0.331,0.196,0.426,0.359      c0.078,0.141,0.097,0.307,0.111,0.467c0.141,1.551,0.122,3.115-0.059,4.662c-0.041,0.354-0.098,0.725-0.307,1.016      c-0.457,0.635-1.396,0.605-2.174,0.514c-0.052,0.246-0.064,0.502-0.039,0.752c0.967,0.174,1.969,0.125,2.914-0.138      c0.242-0.067,0.485-0.151,0.682-0.309c0.438-0.354,0.531-0.978,0.574-1.538c0.127-1.604,0.133-3.214,0.012-4.816      C17.028,31.144,16.996,30.804,16.838,30.515z" stroke-width="1"/>
			</g>
			<g>
				<g>
					<g>
						<path fill="#B37A2C" d="M33.078,15.658c-0.796-0.562-4.781-0.643-10.582-0.116c-7.9,0.717-16.176,2.286-18.484,3.506        c-0.131,0.069-0.238,0.135-0.326,0.199h0.001c-0.074,0.055-0.136,0.106-0.179,0.158l0,0c-0.654,0.9,3.683,1.143,10.637,0.512        c7.882-0.715,16.139-2.281,18.441-3.496C33.168,16.112,33.312,15.856,33.078,15.658z" stroke-width="1"/>
					</g>
					<g>
						<path fill="#FBD271" d="M33.096,15.671c-0.012-0.01-0.025-0.02-0.037-0.029c0.264,0.201,0.125,0.463-0.473,0.779        c-2.304,1.216-10.561,2.781-18.442,3.496C7.148,20.552,2.799,20.303,3.518,19.39c-0.01,0.013-0.02,0.025-0.029,0.037        c-0.72,0.916,3.639,1.165,10.65,0.529c7.9-0.717,16.175-2.285,18.482-3.504C33.223,16.134,33.359,15.873,33.096,15.671z" stroke-width="1"/>
					</g>
				</g>
				<g>
					<path fill="#F6C7A0" d="M20.121,8.75c-0.371-0.021-0.738-0.015-1.102,0.009c-0.357-0.062-0.724-0.105-1.095-0.127       c-5.055-0.27-9.371,3.607-9.641,8.661c-0.059,1.1,0.082,2.212,0.461,3.247c0.299,0.818,0.721,1.859,1.586,2.188       c0.559,0.214,1.118,0.41,1.676,0.611c0.158,0.598,0.324,1.192,0.496,1.785c0.276,0.948,0.603,1.941,1.344,2.595       c0.429,0.378,0.963,0.61,1.488,0.837c1.431,0.617,2.865,1.234,4.353,1.708c0.733,0.233,1.524,0.502,2.295,0.584       c1.016,0.109,1.873,0.18,2.674-0.593c0.898-0.864,1.826-1.762,2.398-2.888c0.604-1.195,0.688-2.597,0.715-3.914       c0.018-0.928,0.352-1.817,0.58-2.718c0.358-1.413,0.512-2.979,0.31-4.428C28.076,12.153,24.217,8.969,20.121,8.75z" stroke-width="1"/>
				</g>
				<g>
					<path fill="#DF6736" d="M8.907,16.143c0.179-0.106,0.359-0.208,0.544-0.303c0.448-0.229,0.838-0.523,1.271-0.757       c1.05-0.562,2.611-0.372,3.712-0.094c0.164,0.041,0.338,0.098,0.44,0.23c0.084,0.107,0.107,0.25,0.129,0.386       c0.18,1.127,0.586,2.143,0.633,3.282c0.006,0.156,0.008,0.319-0.066,0.456c-0.143,0.265-0.475,0.328-0.72,0.452       c-0.345,0.174-0.658,0.387-1.015,0.539c0.059,0.604,0.08,1.213,0.061,1.819c-1.408-0.11-2.891-0.209-4.171,0.388       c-0.3-0.557-0.724-0.986-1.067-1.514c-0.496-0.764-0.744-1.666-0.855-2.562c-0.049-0.383-0.073-0.777,0.025-1.149       C7.973,16.761,8.438,16.425,8.907,16.143z" stroke-width="1"/>
				</g>
				<g>
					<path fill="#DF6736" d="M24.389,12.455c-1.133-0.05-2.207,0.052-3.328,0.185c-0.494,0.059-0.975,0.013-1.475,0.14       c-0.512,0.129-1,0.33-1.5,0.489c-0.931,0.298-1.847,0.668-2.664,1.21c-0.479,0.317-0.937,0.713-1.16,1.24       c0.926,0.331,1.818,0.753,2.662,1.257c-0.469-0.641-0.969-1.26-1.491-1.854c0.481,0.093,0.924,0.321,1.36,0.543       c1.104,0.562,2.229,1.102,3.426,1.422c1.195,0.322,2.477,0.418,3.672,0.091c-1.121-0.339-2.051-1.253-2.406-2.368       c0.806,0.652,1.672,1.276,2.513,1.869c0.821,0.581,2.209,0.724,3.187,0.742c0.875,0.02,1.866-0.062,2.496,0.547       c-0.189-1.234-0.398-2.521-1.13-3.534C27.616,13.144,25.975,12.522,24.389,12.455z" stroke-width="1"/>
				</g>
				<g>
					<path fill="#9F6B4F" d="M22.9,24.823c-0.139,0.021-0.281,0.018-0.416,0c-0.076-0.011-0.154-0.029-0.209-0.084       c-0.055-0.054-0.072-0.15-0.021-0.205c0.043-0.047,0.115-0.049,0.179-0.049c0.08,0.002,0.159,0.002,0.241,0.004       c0.121,0.001,0.246,0.002,0.361-0.035c0.356-0.116,0.396-0.627,0.024-0.759c-0.139-0.05-0.334-0.097-0.406-0.226       c-0.032-0.058-0.045-0.125-0.047-0.191c0-0.074,0.011-0.155,0.062-0.219c0.015-0.018,0.032-0.033,0.056-0.042       c0.021-0.01,0.049-0.008,0.063,0.007c0.021,0.016,0.021,0.043,0.021,0.067c0.002,0.105,0.004,0.301,0.113,0.355       c0.127,0.063,0.293,0.043,0.416,0.128c0.119,0.081,0.207,0.159,0.252,0.294c0.102,0.301-0.064,0.676-0.375,0.85       C23.119,24.772,23.012,24.808,22.9,24.823z" stroke-width="1"/>
				</g>
				<g>
					<path fill="#090503" d="M23.359,27.503c-0.359,0.357-0.842,0.595-1.342,0.663c-0.642,0.088-1.297-0.082-1.851-0.411       c-0.615-0.364-0.854-0.916-1.041-1.588c-0.101-0.352-0.104-0.734,0.024-1.075c0.019-0.046,0.039-0.093,0.078-0.121       c0.068-0.052,0.168-0.027,0.248,0.001c0.35,0.126,0.664,0.326,1.002,0.475c0.322,0.142,0.656,0.234,1.002,0.31       c0.789,0.169,1.642,0.2,2.443,0.107c0.006,0-0.039,0.457-0.043,0.513c-0.031,0.316-0.076,0.546-0.265,0.818       C23.543,27.305,23.455,27.408,23.359,27.503z" stroke-width="1"/>
				</g>
				<g>
					<g>
						<g>
							<path fill="#FFFFFF" d="M16.578,21.303c-0.092,1.133,0.756,2.12,1.893,2.21c1.132,0.088,2.121-0.756,2.21-1.889         c0.092-1.13-0.758-2.119-1.891-2.209C17.658,19.326,16.666,20.172,16.578,21.303z" stroke-width="1"/>
						</g>
					</g>
					<g>
						<path fill="#090503" d="M17.215,21.978c0.023,0.037,0.057,0.07,0.093,0.096c0.637,0.437,1.321-0.006,1.323-0.606        c-0.002-0.436-0.353-0.789-0.789-0.788C17.244,20.671,16.799,21.343,17.215,21.978z" stroke-width="1"/>
					</g>
				</g>
				<g>
					<g>
						<g>
							<path fill="#FFFFFF" d="M23.279,21.303c-0.092,1.133,0.758,2.12,1.893,2.21c1.133,0.088,2.123-0.756,2.211-1.889         c0.092-1.13-0.756-2.119-1.891-2.209C24.357,19.326,23.367,20.172,23.279,21.303z" stroke-width="1"/>
						</g>
					</g>
					<g>
						<path fill="#090503" d="M23.914,21.978c0.025,0.037,0.057,0.07,0.094,0.096c0.637,0.437,1.322-0.006,1.324-0.606        c-0.002-0.436-0.354-0.789-0.789-0.788C23.945,20.671,23.498,21.343,23.914,21.978z" stroke-width="1"/>
					</g>
				</g>
				<g>
					<g>
						<path fill="#F6C7A0" d="M8.797,22.974c0.219,0.491,0.494,0.843,0.933,1.141c0.7,0.479,1.662,0.582,2.387,0.08        c0.552-0.382,0.47-0.86,0.455-1.454c-0.017-0.604-0.14-1.189-0.209-1.791c-0.026-0.229-0.019-0.474-0.129-0.681        c-0.229-0.425-0.785-0.434-1.205-0.434c-0.903,0.002-2.017,0.344-2.346,1.29C8.473,21.726,8.539,22.393,8.797,22.974z" stroke-width="1"/>
					</g>
					<g>
						<path fill="#C7886C" d="M11.909,21.178c-0.356-0.417-0.923-0.592-1.51-0.453c-0.313,0.073-0.631,0.236-0.84,0.487        C9.236,21.6,9.208,22.167,9.38,22.626c0.06,0.158,0.183,0.535,0.424,0.473c0.318-0.082,0.048-0.557,0.031-0.75        c-0.022-0.299,0.223-0.895,0.613-0.728c0.184,0.078,0.33,0.382,0.318,0.571c-0.012,0.183-0.189,0.309-0.264,0.464        c-0.256,0.53,0.145,1.009,0.678,1.038c0.363,0.021,0.676-0.15,0.865-0.456c0.272-0.438,0.307-0.989,0.168-1.479        C12.152,21.533,12.047,21.337,11.909,21.178z" stroke-width="1"/>
					</g>
				</g>
				<g>
					<g>
						<path fill="#DDA949" d="M18.816,4.575c-0.017-0.134-0.082-0.39-0.33-0.598c-0.323-0.272-0.721-0.271-0.983-0.271        c-0.604,0.001-1.524,0.128-2.055,0.28c-0.312,0.091-0.545,0.229-0.691,0.412c-0.25,0.31-0.227,0.586-0.215,0.719l0,0        l0.008,0.064c-0.004-0.023,0.024-0.053,0.086-0.085c0.33-0.176,1.517-0.399,2.65-0.502c0.922-0.085,1.523-0.061,1.537,0.045        L18.816,4.575z" stroke-width="1"/>
					</g>
					<g>
						<g>
							<path fill="#FBD271" d="M7.45,15.128c-0.005-1.253,0.028-2.042,0.028-2.047c0.025-0.391,0.062-0.924,0.216-1.623         c0.084-0.381,0.151-0.582,0.263-0.916c0.06-0.181,0.15-0.387,0.237-0.586C8.358,9.581,8.657,9.087,8.84,8.843         c0.273-0.365,0.533-0.711,1.162-1.264c0.099-0.088,0.639-0.551,1.541-1.114c0.301-0.188,0.924-0.554,1.73-0.898         c0.85-0.364,1.544-0.55,1.805-0.618c0.531-0.139,1.385-0.278,2.211-0.354c0.385-0.035,0.713-0.051,0.967-0.051         c0.617,0.006,2.492,0.026,4.766,0.924c0.258,0.103,1.041,0.412,1.719,0.887c0.384,0.269,0.605,0.464,0.773,0.617         c0.371,0.342,0.656,0.697,0.66,0.701c0.062,0.08,0.258,0.324,0.377,0.51c0.16,0.246,0.324,0.502,0.482,0.821         c0.268,0.541,0.479,1.038,0.709,1.841c0.035,0.124,0.07,0.249,0.105,0.374c0.03,0.114,0.062,0.229,0.094,0.345         c0.096,0.356,0.242,0.931,0.244,0.935c-0.127-0.499-3.033-0.604-7.459-0.203c-5.496,0.498-11.252,1.59-12.857,2.438         C7.584,14.882,7.449,15.015,7.45,15.128z" stroke-width="1"/>
						</g>
					</g>
					<g>
						<g>
							<path fill="#FBD271" d="M3.994,20.026c-0.113-0.036-0.264-0.09-0.375-0.136c-0.051-0.021-0.117-0.059-0.162-0.091         c-0.096-0.065-0.24-0.166-0.326-0.375c-0.066-0.158-0.121-0.475,0.263-0.829c0.1-0.093,0.247-0.188,0.442-0.292         c2.32-1.227,10.645-2.805,18.59-3.524c5.646-0.513,9.582-0.453,10.557,0.062c0.131,0.078,0.158,0.095,0.213,0.145         c0.101,0.089,0.13,0.136,0.168,0.196c0.056,0.089,0.103,0.245,0.08,0.396c-0.028,0.188-0.104,0.311-0.215,0.438         c-0.143,0.164-0.385,0.312-0.477,0.365c1.996-1.163-2.514-1.541-10.256-0.838c-7.9,0.717-16.176,2.285-18.484,3.505         C3.189,19.481,3.236,19.813,3.994,20.026z" stroke-width="1"/>
						</g>
					</g>
					<g>
						<path fill="#DDA949" d="M28.578,12.522c-0.023-0.012-0.055-0.022-0.082-0.034C28.523,12.499,28.555,12.51,28.578,12.522        c-0.445-0.233-0.93-0.315-1.164-0.354c-1.154-0.188-3.535-0.159-6.688,0.127c-5.241,0.476-10.72,1.489-12.608,2.318        c-0.454,0.2-0.767,0.392-1.042,0.638c0.012-0.011,0.023-0.02,0.035-0.028c-0.014,0.011-0.025,0.021-0.036,0.029        c-1.228,1.114-2.454,2.229-3.681,3.342c0.1-0.09,0.246-0.188,0.439-0.289c2.321-1.226,10.646-2.804,18.59-3.524        c5.642-0.512,9.574-0.453,10.554,0.062C31.512,14.067,30.045,13.295,28.578,12.522z M7.297,15.095        c0.029-0.018,0.062-0.035,0.098-0.055C7.359,15.06,7.326,15.077,7.297,15.095z M7.137,15.2        c0.014-0.012,0.031-0.022,0.047-0.033C7.168,15.178,7.15,15.19,7.137,15.2z M7.209,15.147        c0.019-0.012,0.039-0.022,0.058-0.034C7.248,15.125,7.228,15.136,7.209,15.147z" stroke-width="1"/>
					</g>
				</g>
				<g>
					<path fill="#DDA949" d="M12.369,13.452c-0.773-1.878-0.686-4.191,0.297-5.976c0.654-1.188,1.693-2.161,2.922-2.737       c-0.873,0.583-1.67,1.287-2.299,2.126c-0.988,1.316-1.268,2.898-1.205,4.525C12.111,12.082,12.102,12.802,12.369,13.452z" stroke-width="1"/>
				</g>
				<g>
					<path fill="#DDA949" d="M17.118,4.667c0.419,1.064,0.835,2.153,1.112,3.266c0.344,1.391,0.616,2.799,0.811,4.218       c0-1.21-0.168-2.382-0.396-3.564c-0.208-1.079-0.501-2.13-1.027-3.104C17.473,5.214,17.227,4.944,17.118,4.667z" stroke-width="1"/>
				</g>
				<g>
					<path fill="#DDA949" d="M25.227,11.907c-0.012-1.695-0.438-3.281-1.401-4.672c-0.979-1.409-2.533-2.065-4.089-2.662       C22.951,5.808,24.607,8.632,25.227,11.907z" stroke-width="1"/>
				</g>
			</g>
		</g>
	</g>
</g>
</svg>